<?xml version="1.0" encoding="utf-8" standalone="no"?>
<!DOCTYPE svg PUBLIC "-//W3C//DTD SVG 1.1//EN"
  "http://www.w3.org/Graphics/SVG/1.1/DTD/svg11.dtd">
<svg xmlns:xlink="http://www.w3.org/1999/xlink" width="792pt" height="576pt" viewBox="0 0 792 576" xmlns="http://www.w3.org/2000/svg" version="1.1">
 <metadata>
  <rdf:RDF xmlns:dc="http://purl.org/dc/elements/1.1/" xmlns:cc="http://creativecommons.org/ns#" xmlns:rdf="http://www.w3.org/1999/02/22-rdf-syntax-ns#">
   <cc:Work>
    <dc:type rdf:resource="http://purl.org/dc/dcmitype/StillImage"/>
    <dc:date>2021-12-01T04:37:45.364238</dc:date>
    <dc:format>image/svg+xml</dc:format>
    <dc:creator>
     <cc:Agent>
      <dc:title>Matplotlib v3.5.0, https://matplotlib.org/</dc:title>
     </cc:Agent>
    </dc:creator>
   </cc:Work>
  </rdf:RDF>
 </metadata>
 <defs>
  <style type="text/css">*{stroke-linejoin: round; stroke-linecap: butt}</style>
 </defs>
 <g id="figure_1">
  <g id="patch_1">
   <path d="M 0 576 
L 792 576 
L 792 0 
L 0 0 
z
" style="fill: #ffffff"/>
  </g>
  <g id="axes_1">
   <g id="patch_2">
    <path d="M 99 512.64 
L 653.4 512.64 
L 653.4 69.12 
L 99 69.12 
z
" style="fill: #e5e5e5"/>
   </g>
   <g id="matplotlib.axis_1">
    <g id="xtick_1">
     <g id="line2d_1">
      <path d="M 147.461538 512.64 
L 147.461538 69.12 
" clip-path="url(#p1828329be4)" style="fill: none; stroke: #ffffff; stroke-width: 1.4; stroke-linecap: square"/>
     </g>
     <g id="line2d_2">
      <defs>
       <path id="mf7e3915215" d="M 0 0 
L 0 5 
" style="stroke: #7f7f7f; stroke-width: 1.4"/>
      </defs>
      <g>
       <use xlink:href="#mf7e3915215" x="147.461538" y="512.64" style="fill: #7f7f7f; stroke: #7f7f7f; stroke-width: 1.4"/>
      </g>
     </g>
     <g id="text_1">
      <!-- 1850 -->
      <g style="fill: #7f7f7f" transform="translate(132.191538 527.758125)scale(0.12 -0.12)">
       <defs>
        <path id="DejaVuSans-31" d="M 794 531 
L 1825 531 
L 1825 4091 
L 703 3866 
L 703 4441 
L 1819 4666 
L 2450 4666 
L 2450 531 
L 3481 531 
L 3481 0 
L 794 0 
L 794 531 
z
" transform="scale(0.015625)"/>
        <path id="DejaVuSans-38" d="M 2034 2216 
Q 1584 2216 1326 1975 
Q 1069 1734 1069 1313 
Q 1069 891 1326 650 
Q 1584 409 2034 409 
Q 2484 409 2743 651 
Q 3003 894 3003 1313 
Q 3003 1734 2745 1975 
Q 2488 2216 2034 2216 
z
M 1403 2484 
Q 997 2584 770 2862 
Q 544 3141 544 3541 
Q 544 4100 942 4425 
Q 1341 4750 2034 4750 
Q 2731 4750 3128 4425 
Q 3525 4100 3525 3541 
Q 3525 3141 3298 2862 
Q 3072 2584 2669 2484 
Q 3125 2378 3379 2068 
Q 3634 1759 3634 1313 
Q 3634 634 3220 271 
Q 2806 -91 2034 -91 
Q 1263 -91 848 271 
Q 434 634 434 1313 
Q 434 1759 690 2068 
Q 947 2378 1403 2484 
z
M 1172 3481 
Q 1172 3119 1398 2916 
Q 1625 2713 2034 2713 
Q 2441 2713 2670 2916 
Q 2900 3119 2900 3481 
Q 2900 3844 2670 4047 
Q 2441 4250 2034 4250 
Q 1625 4250 1398 4047 
Q 1172 3844 1172 3481 
z
" transform="scale(0.015625)"/>
        <path id="DejaVuSans-35" d="M 691 4666 
L 3169 4666 
L 3169 4134 
L 1269 4134 
L 1269 2991 
Q 1406 3038 1543 3061 
Q 1681 3084 1819 3084 
Q 2600 3084 3056 2656 
Q 3513 2228 3513 1497 
Q 3513 744 3044 326 
Q 2575 -91 1722 -91 
Q 1428 -91 1123 -41 
Q 819 9 494 109 
L 494 744 
Q 775 591 1075 516 
Q 1375 441 1709 441 
Q 2250 441 2565 725 
Q 2881 1009 2881 1497 
Q 2881 1984 2565 2268 
Q 2250 2553 1709 2553 
Q 1456 2553 1204 2497 
Q 953 2441 691 2322 
L 691 4666 
z
" transform="scale(0.015625)"/>
        <path id="DejaVuSans-30" d="M 2034 4250 
Q 1547 4250 1301 3770 
Q 1056 3291 1056 2328 
Q 1056 1369 1301 889 
Q 1547 409 2034 409 
Q 2525 409 2770 889 
Q 3016 1369 3016 2328 
Q 3016 3291 2770 3770 
Q 2525 4250 2034 4250 
z
M 2034 4750 
Q 2819 4750 3233 4129 
Q 3647 3509 3647 2328 
Q 3647 1150 3233 529 
Q 2819 -91 2034 -91 
Q 1250 -91 836 529 
Q 422 1150 422 2328 
Q 422 3509 836 4129 
Q 1250 4750 2034 4750 
z
" transform="scale(0.015625)"/>
       </defs>
       <use xlink:href="#DejaVuSans-31"/>
       <use xlink:href="#DejaVuSans-38" x="63.623047"/>
       <use xlink:href="#DejaVuSans-35" x="127.246094"/>
       <use xlink:href="#DejaVuSans-30" x="190.869141"/>
      </g>
     </g>
    </g>
    <g id="xtick_2">
     <g id="line2d_3">
      <path d="M 212.076923 512.64 
L 212.076923 69.12 
" clip-path="url(#p1828329be4)" style="fill: none; stroke: #ffffff; stroke-width: 1.4; stroke-linecap: square"/>
     </g>
     <g id="line2d_4">
      <g>
       <use xlink:href="#mf7e3915215" x="212.076923" y="512.64" style="fill: #7f7f7f; stroke: #7f7f7f; stroke-width: 1.4"/>
      </g>
     </g>
     <g id="text_2">
      <!-- 1875 -->
      <g style="fill: #7f7f7f" transform="translate(196.806923 527.758125)scale(0.12 -0.12)">
       <defs>
        <path id="DejaVuSans-37" d="M 525 4666 
L 3525 4666 
L 3525 4397 
L 1831 0 
L 1172 0 
L 2766 4134 
L 525 4134 
L 525 4666 
z
" transform="scale(0.015625)"/>
       </defs>
       <use xlink:href="#DejaVuSans-31"/>
       <use xlink:href="#DejaVuSans-38" x="63.623047"/>
       <use xlink:href="#DejaVuSans-37" x="127.246094"/>
       <use xlink:href="#DejaVuSans-35" x="190.869141"/>
      </g>
     </g>
    </g>
    <g id="xtick_3">
     <g id="line2d_5">
      <path d="M 276.692308 512.64 
L 276.692308 69.12 
" clip-path="url(#p1828329be4)" style="fill: none; stroke: #ffffff; stroke-width: 1.4; stroke-linecap: square"/>
     </g>
     <g id="line2d_6">
      <g>
       <use xlink:href="#mf7e3915215" x="276.692308" y="512.64" style="fill: #7f7f7f; stroke: #7f7f7f; stroke-width: 1.4"/>
      </g>
     </g>
     <g id="text_3">
      <!-- 1900 -->
      <g style="fill: #7f7f7f" transform="translate(261.422308 527.758125)scale(0.12 -0.12)">
       <defs>
        <path id="DejaVuSans-39" d="M 703 97 
L 703 672 
Q 941 559 1184 500 
Q 1428 441 1663 441 
Q 2288 441 2617 861 
Q 2947 1281 2994 2138 
Q 2813 1869 2534 1725 
Q 2256 1581 1919 1581 
Q 1219 1581 811 2004 
Q 403 2428 403 3163 
Q 403 3881 828 4315 
Q 1253 4750 1959 4750 
Q 2769 4750 3195 4129 
Q 3622 3509 3622 2328 
Q 3622 1225 3098 567 
Q 2575 -91 1691 -91 
Q 1453 -91 1209 -44 
Q 966 3 703 97 
z
M 1959 2075 
Q 2384 2075 2632 2365 
Q 2881 2656 2881 3163 
Q 2881 3666 2632 3958 
Q 2384 4250 1959 4250 
Q 1534 4250 1286 3958 
Q 1038 3666 1038 3163 
Q 1038 2656 1286 2365 
Q 1534 2075 1959 2075 
z
" transform="scale(0.015625)"/>
       </defs>
       <use xlink:href="#DejaVuSans-31"/>
       <use xlink:href="#DejaVuSans-39" x="63.623047"/>
       <use xlink:href="#DejaVuSans-30" x="127.246094"/>
       <use xlink:href="#DejaVuSans-30" x="190.869141"/>
      </g>
     </g>
    </g>
    <g id="xtick_4">
     <g id="line2d_7">
      <path d="M 341.307692 512.64 
L 341.307692 69.12 
" clip-path="url(#p1828329be4)" style="fill: none; stroke: #ffffff; stroke-width: 1.4; stroke-linecap: square"/>
     </g>
     <g id="line2d_8">
      <g>
       <use xlink:href="#mf7e3915215" x="341.307692" y="512.64" style="fill: #7f7f7f; stroke: #7f7f7f; stroke-width: 1.4"/>
      </g>
     </g>
     <g id="text_4">
      <!-- 1925 -->
      <g style="fill: #7f7f7f" transform="translate(326.037692 527.758125)scale(0.12 -0.12)">
       <defs>
        <path id="DejaVuSans-32" d="M 1228 531 
L 3431 531 
L 3431 0 
L 469 0 
L 469 531 
Q 828 903 1448 1529 
Q 2069 2156 2228 2338 
Q 2531 2678 2651 2914 
Q 2772 3150 2772 3378 
Q 2772 3750 2511 3984 
Q 2250 4219 1831 4219 
Q 1534 4219 1204 4116 
Q 875 4013 500 3803 
L 500 4441 
Q 881 4594 1212 4672 
Q 1544 4750 1819 4750 
Q 2544 4750 2975 4387 
Q 3406 4025 3406 3419 
Q 3406 3131 3298 2873 
Q 3191 2616 2906 2266 
Q 2828 2175 2409 1742 
Q 1991 1309 1228 531 
z
" transform="scale(0.015625)"/>
       </defs>
       <use xlink:href="#DejaVuSans-31"/>
       <use xlink:href="#DejaVuSans-39" x="63.623047"/>
       <use xlink:href="#DejaVuSans-32" x="127.246094"/>
       <use xlink:href="#DejaVuSans-35" x="190.869141"/>
      </g>
     </g>
    </g>
    <g id="xtick_5">
     <g id="line2d_9">
      <path d="M 405.923077 512.64 
L 405.923077 69.12 
" clip-path="url(#p1828329be4)" style="fill: none; stroke: #ffffff; stroke-width: 1.4; stroke-linecap: square"/>
     </g>
     <g id="line2d_10">
      <g>
       <use xlink:href="#mf7e3915215" x="405.923077" y="512.64" style="fill: #7f7f7f; stroke: #7f7f7f; stroke-width: 1.4"/>
      </g>
     </g>
     <g id="text_5">
      <!-- 1950 -->
      <g style="fill: #7f7f7f" transform="translate(390.653077 527.758125)scale(0.12 -0.12)">
       <use xlink:href="#DejaVuSans-31"/>
       <use xlink:href="#DejaVuSans-39" x="63.623047"/>
       <use xlink:href="#DejaVuSans-35" x="127.246094"/>
       <use xlink:href="#DejaVuSans-30" x="190.869141"/>
      </g>
     </g>
    </g>
    <g id="xtick_6">
     <g id="line2d_11">
      <path d="M 470.538462 512.64 
L 470.538462 69.12 
" clip-path="url(#p1828329be4)" style="fill: none; stroke: #ffffff; stroke-width: 1.4; stroke-linecap: square"/>
     </g>
     <g id="line2d_12">
      <g>
       <use xlink:href="#mf7e3915215" x="470.538462" y="512.64" style="fill: #7f7f7f; stroke: #7f7f7f; stroke-width: 1.4"/>
      </g>
     </g>
     <g id="text_6">
      <!-- 1975 -->
      <g style="fill: #7f7f7f" transform="translate(455.268462 527.758125)scale(0.12 -0.12)">
       <use xlink:href="#DejaVuSans-31"/>
       <use xlink:href="#DejaVuSans-39" x="63.623047"/>
       <use xlink:href="#DejaVuSans-37" x="127.246094"/>
       <use xlink:href="#DejaVuSans-35" x="190.869141"/>
      </g>
     </g>
    </g>
    <g id="xtick_7">
     <g id="line2d_13">
      <path d="M 535.153846 512.64 
L 535.153846 69.12 
" clip-path="url(#p1828329be4)" style="fill: none; stroke: #ffffff; stroke-width: 1.4; stroke-linecap: square"/>
     </g>
     <g id="line2d_14">
      <g>
       <use xlink:href="#mf7e3915215" x="535.153846" y="512.64" style="fill: #7f7f7f; stroke: #7f7f7f; stroke-width: 1.4"/>
      </g>
     </g>
     <g id="text_7">
      <!-- 2000 -->
      <g style="fill: #7f7f7f" transform="translate(519.883846 527.758125)scale(0.12 -0.12)">
       <use xlink:href="#DejaVuSans-32"/>
       <use xlink:href="#DejaVuSans-30" x="63.623047"/>
       <use xlink:href="#DejaVuSans-30" x="127.246094"/>
       <use xlink:href="#DejaVuSans-30" x="190.869141"/>
      </g>
     </g>
    </g>
    <g id="xtick_8">
     <g id="line2d_15">
      <path d="M 599.769231 512.64 
L 599.769231 69.12 
" clip-path="url(#p1828329be4)" style="fill: none; stroke: #ffffff; stroke-width: 1.4; stroke-linecap: square"/>
     </g>
     <g id="line2d_16">
      <g>
       <use xlink:href="#mf7e3915215" x="599.769231" y="512.64" style="fill: #7f7f7f; stroke: #7f7f7f; stroke-width: 1.4"/>
      </g>
     </g>
     <g id="text_8">
      <!-- 2025 -->
      <g style="fill: #7f7f7f" transform="translate(584.499231 527.758125)scale(0.12 -0.12)">
       <use xlink:href="#DejaVuSans-32"/>
       <use xlink:href="#DejaVuSans-30" x="63.623047"/>
       <use xlink:href="#DejaVuSans-32" x="127.246094"/>
       <use xlink:href="#DejaVuSans-35" x="190.869141"/>
      </g>
     </g>
    </g>
    <g id="xtick_9">
     <g id="line2d_17">
      <path d="M 115.153846 512.64 
L 115.153846 69.12 
" clip-path="url(#p1828329be4)" style="fill: none; stroke: #f2f2f2; stroke-width: 0.7; stroke-linecap: square"/>
     </g>
     <g id="line2d_18"/>
    </g>
    <g id="xtick_10">
     <g id="line2d_19">
      <path d="M 179.769231 512.64 
L 179.769231 69.12 
" clip-path="url(#p1828329be4)" style="fill: none; stroke: #f2f2f2; stroke-width: 0.7; stroke-linecap: square"/>
     </g>
     <g id="line2d_20"/>
    </g>
    <g id="xtick_11">
     <g id="line2d_21">
      <path d="M 244.384615 512.64 
L 244.384615 69.12 
" clip-path="url(#p1828329be4)" style="fill: none; stroke: #f2f2f2; stroke-width: 0.7; stroke-linecap: square"/>
     </g>
     <g id="line2d_22"/>
    </g>
    <g id="xtick_12">
     <g id="line2d_23">
      <path d="M 309 512.64 
L 309 69.12 
" clip-path="url(#p1828329be4)" style="fill: none; stroke: #f2f2f2; stroke-width: 0.7; stroke-linecap: square"/>
     </g>
     <g id="line2d_24"/>
    </g>
    <g id="xtick_13">
     <g id="line2d_25">
      <path d="M 373.615385 512.64 
L 373.615385 69.12 
" clip-path="url(#p1828329be4)" style="fill: none; stroke: #f2f2f2; stroke-width: 0.7; stroke-linecap: square"/>
     </g>
     <g id="line2d_26"/>
    </g>
    <g id="xtick_14">
     <g id="line2d_27">
      <path d="M 438.230769 512.64 
L 438.230769 69.12 
" clip-path="url(#p1828329be4)" style="fill: none; stroke: #f2f2f2; stroke-width: 0.7; stroke-linecap: square"/>
     </g>
     <g id="line2d_28"/>
    </g>
    <g id="xtick_15">
     <g id="line2d_29">
      <path d="M 502.846154 512.64 
L 502.846154 69.12 
" clip-path="url(#p1828329be4)" style="fill: none; stroke: #f2f2f2; stroke-width: 0.7; stroke-linecap: square"/>
     </g>
     <g id="line2d_30"/>
    </g>
    <g id="xtick_16">
     <g id="line2d_31">
      <path d="M 567.461538 512.64 
L 567.461538 69.12 
" clip-path="url(#p1828329be4)" style="fill: none; stroke: #f2f2f2; stroke-width: 0.7; stroke-linecap: square"/>
     </g>
     <g id="line2d_32"/>
    </g>
    <g id="xtick_17">
     <g id="line2d_33">
      <path d="M 632.076923 512.64 
L 632.076923 69.12 
" clip-path="url(#p1828329be4)" style="fill: none; stroke: #f2f2f2; stroke-width: 0.7; stroke-linecap: square"/>
     </g>
     <g id="line2d_34"/>
    </g>
   </g>
   <g id="matplotlib.axis_2">
    <g id="ytick_1">
     <g id="line2d_35">
      <path d="M 99 464.992184 
L 653.4 464.992184 
" clip-path="url(#p1828329be4)" style="fill: none; stroke: #ffffff; stroke-width: 1.4; stroke-linecap: square"/>
     </g>
     <g id="line2d_36">
      <defs>
       <path id="m8731b33fb2" d="M 0 0 
L -5 0 
" style="stroke: #7f7f7f; stroke-width: 1.4"/>
      </defs>
      <g>
       <use xlink:href="#m8731b33fb2" x="99" y="464.992184" style="fill: #7f7f7f; stroke: #7f7f7f; stroke-width: 1.4"/>
      </g>
     </g>
     <g id="text_9">
      <!-- 0.25 -->
      <g style="fill: #7f7f7f" transform="translate(66.28125 469.551246)scale(0.12 -0.12)">
       <defs>
        <path id="DejaVuSans-2e" d="M 684 794 
L 1344 794 
L 1344 0 
L 684 0 
L 684 794 
z
" transform="scale(0.015625)"/>
       </defs>
       <use xlink:href="#DejaVuSans-30"/>
       <use xlink:href="#DejaVuSans-2e" x="63.623047"/>
       <use xlink:href="#DejaVuSans-32" x="95.410156"/>
       <use xlink:href="#DejaVuSans-35" x="159.033203"/>
      </g>
     </g>
    </g>
    <g id="ytick_2">
     <g id="line2d_37">
      <path d="M 99 413.91288 
L 653.4 413.91288 
" clip-path="url(#p1828329be4)" style="fill: none; stroke: #ffffff; stroke-width: 1.4; stroke-linecap: square"/>
     </g>
     <g id="line2d_38">
      <g>
       <use xlink:href="#m8731b33fb2" x="99" y="413.91288" style="fill: #7f7f7f; stroke: #7f7f7f; stroke-width: 1.4"/>
      </g>
     </g>
     <g id="text_10">
      <!-- 0.50 -->
      <g style="fill: #7f7f7f" transform="translate(66.28125 418.471942)scale(0.12 -0.12)">
       <use xlink:href="#DejaVuSans-30"/>
       <use xlink:href="#DejaVuSans-2e" x="63.623047"/>
       <use xlink:href="#DejaVuSans-35" x="95.410156"/>
       <use xlink:href="#DejaVuSans-30" x="159.033203"/>
      </g>
     </g>
    </g>
    <g id="ytick_3">
     <g id="line2d_39">
      <path d="M 99 362.833576 
L 653.4 362.833576 
" clip-path="url(#p1828329be4)" style="fill: none; stroke: #ffffff; stroke-width: 1.4; stroke-linecap: square"/>
     </g>
     <g id="line2d_40">
      <g>
       <use xlink:href="#m8731b33fb2" x="99" y="362.833576" style="fill: #7f7f7f; stroke: #7f7f7f; stroke-width: 1.4"/>
      </g>
     </g>
     <g id="text_11">
      <!-- 0.75 -->
      <g style="fill: #7f7f7f" transform="translate(66.28125 367.392639)scale(0.12 -0.12)">
       <use xlink:href="#DejaVuSans-30"/>
       <use xlink:href="#DejaVuSans-2e" x="63.623047"/>
       <use xlink:href="#DejaVuSans-37" x="95.410156"/>
       <use xlink:href="#DejaVuSans-35" x="159.033203"/>
      </g>
     </g>
    </g>
    <g id="ytick_4">
     <g id="line2d_41">
      <path d="M 99 311.754273 
L 653.4 311.754273 
" clip-path="url(#p1828329be4)" style="fill: none; stroke: #ffffff; stroke-width: 1.4; stroke-linecap: square"/>
     </g>
     <g id="line2d_42">
      <g>
       <use xlink:href="#m8731b33fb2" x="99" y="311.754273" style="fill: #7f7f7f; stroke: #7f7f7f; stroke-width: 1.4"/>
      </g>
     </g>
     <g id="text_12">
      <!-- 1.00 -->
      <g style="fill: #7f7f7f" transform="translate(66.28125 316.313335)scale(0.12 -0.12)">
       <use xlink:href="#DejaVuSans-31"/>
       <use xlink:href="#DejaVuSans-2e" x="63.623047"/>
       <use xlink:href="#DejaVuSans-30" x="95.410156"/>
       <use xlink:href="#DejaVuSans-30" x="159.033203"/>
      </g>
     </g>
    </g>
    <g id="ytick_5">
     <g id="line2d_43">
      <path d="M 99 260.674969 
L 653.4 260.674969 
" clip-path="url(#p1828329be4)" style="fill: none; stroke: #ffffff; stroke-width: 1.4; stroke-linecap: square"/>
     </g>
     <g id="line2d_44">
      <g>
       <use xlink:href="#m8731b33fb2" x="99" y="260.674969" style="fill: #7f7f7f; stroke: #7f7f7f; stroke-width: 1.4"/>
      </g>
     </g>
     <g id="text_13">
      <!-- 1.25 -->
      <g style="fill: #7f7f7f" transform="translate(66.28125 265.234031)scale(0.12 -0.12)">
       <use xlink:href="#DejaVuSans-31"/>
       <use xlink:href="#DejaVuSans-2e" x="63.623047"/>
       <use xlink:href="#DejaVuSans-32" x="95.410156"/>
       <use xlink:href="#DejaVuSans-35" x="159.033203"/>
      </g>
     </g>
    </g>
    <g id="ytick_6">
     <g id="line2d_45">
      <path d="M 99 209.595665 
L 653.4 209.595665 
" clip-path="url(#p1828329be4)" style="fill: none; stroke: #ffffff; stroke-width: 1.4; stroke-linecap: square"/>
     </g>
     <g id="line2d_46">
      <g>
       <use xlink:href="#m8731b33fb2" x="99" y="209.595665" style="fill: #7f7f7f; stroke: #7f7f7f; stroke-width: 1.4"/>
      </g>
     </g>
     <g id="text_14">
      <!-- 1.50 -->
      <g style="fill: #7f7f7f" transform="translate(66.28125 214.154728)scale(0.12 -0.12)">
       <use xlink:href="#DejaVuSans-31"/>
       <use xlink:href="#DejaVuSans-2e" x="63.623047"/>
       <use xlink:href="#DejaVuSans-35" x="95.410156"/>
       <use xlink:href="#DejaVuSans-30" x="159.033203"/>
      </g>
     </g>
    </g>
    <g id="ytick_7">
     <g id="line2d_47">
      <path d="M 99 158.516362 
L 653.4 158.516362 
" clip-path="url(#p1828329be4)" style="fill: none; stroke: #ffffff; stroke-width: 1.4; stroke-linecap: square"/>
     </g>
     <g id="line2d_48">
      <g>
       <use xlink:href="#m8731b33fb2" x="99" y="158.516362" style="fill: #7f7f7f; stroke: #7f7f7f; stroke-width: 1.4"/>
      </g>
     </g>
     <g id="text_15">
      <!-- 1.75 -->
      <g style="fill: #7f7f7f" transform="translate(66.28125 163.075424)scale(0.12 -0.12)">
       <use xlink:href="#DejaVuSans-31"/>
       <use xlink:href="#DejaVuSans-2e" x="63.623047"/>
       <use xlink:href="#DejaVuSans-37" x="95.410156"/>
       <use xlink:href="#DejaVuSans-35" x="159.033203"/>
      </g>
     </g>
    </g>
    <g id="ytick_8">
     <g id="line2d_49">
      <path d="M 99 107.437058 
L 653.4 107.437058 
" clip-path="url(#p1828329be4)" style="fill: none; stroke: #ffffff; stroke-width: 1.4; stroke-linecap: square"/>
     </g>
     <g id="line2d_50">
      <g>
       <use xlink:href="#m8731b33fb2" x="99" y="107.437058" style="fill: #7f7f7f; stroke: #7f7f7f; stroke-width: 1.4"/>
      </g>
     </g>
     <g id="text_16">
      <!-- 2.00 -->
      <g style="fill: #7f7f7f" transform="translate(66.28125 111.99612)scale(0.12 -0.12)">
       <use xlink:href="#DejaVuSans-32"/>
       <use xlink:href="#DejaVuSans-2e" x="63.623047"/>
       <use xlink:href="#DejaVuSans-30" x="95.410156"/>
       <use xlink:href="#DejaVuSans-30" x="159.033203"/>
      </g>
     </g>
    </g>
    <g id="ytick_9">
     <g id="line2d_51">
      <path d="M 99 490.531835 
L 653.4 490.531835 
" clip-path="url(#p1828329be4)" style="fill: none; stroke: #f2f2f2; stroke-width: 0.7; stroke-linecap: square"/>
     </g>
     <g id="line2d_52"/>
    </g>
    <g id="ytick_10">
     <g id="line2d_53">
      <path d="M 99 439.452532 
L 653.4 439.452532 
" clip-path="url(#p1828329be4)" style="fill: none; stroke: #f2f2f2; stroke-width: 0.7; stroke-linecap: square"/>
     </g>
     <g id="line2d_54"/>
    </g>
    <g id="ytick_11">
     <g id="line2d_55">
      <path d="M 99 388.373228 
L 653.4 388.373228 
" clip-path="url(#p1828329be4)" style="fill: none; stroke: #f2f2f2; stroke-width: 0.7; stroke-linecap: square"/>
     </g>
     <g id="line2d_56"/>
    </g>
    <g id="ytick_12">
     <g id="line2d_57">
      <path d="M 99 337.293924 
L 653.4 337.293924 
" clip-path="url(#p1828329be4)" style="fill: none; stroke: #f2f2f2; stroke-width: 0.7; stroke-linecap: square"/>
     </g>
     <g id="line2d_58"/>
    </g>
    <g id="ytick_13">
     <g id="line2d_59">
      <path d="M 99 286.214621 
L 653.4 286.214621 
" clip-path="url(#p1828329be4)" style="fill: none; stroke: #f2f2f2; stroke-width: 0.7; stroke-linecap: square"/>
     </g>
     <g id="line2d_60"/>
    </g>
    <g id="ytick_14">
     <g id="line2d_61">
      <path d="M 99 235.135317 
L 653.4 235.135317 
" clip-path="url(#p1828329be4)" style="fill: none; stroke: #f2f2f2; stroke-width: 0.7; stroke-linecap: square"/>
     </g>
     <g id="line2d_62"/>
    </g>
    <g id="ytick_15">
     <g id="line2d_63">
      <path d="M 99 184.056013 
L 653.4 184.056013 
" clip-path="url(#p1828329be4)" style="fill: none; stroke: #f2f2f2; stroke-width: 0.7; stroke-linecap: square"/>
     </g>
     <g id="line2d_64"/>
    </g>
    <g id="ytick_16">
     <g id="line2d_65">
      <path d="M 99 132.97671 
L 653.4 132.97671 
" clip-path="url(#p1828329be4)" style="fill: none; stroke: #f2f2f2; stroke-width: 0.7; stroke-linecap: square"/>
     </g>
     <g id="line2d_66"/>
    </g>
    <g id="ytick_17">
     <g id="line2d_67">
      <path d="M 99 81.897406 
L 653.4 81.897406 
" clip-path="url(#p1828329be4)" style="fill: none; stroke: #f2f2f2; stroke-width: 0.7; stroke-linecap: square"/>
     </g>
     <g id="line2d_68"/>
    </g>
    <g id="text_17">
     <!-- 1e6 -->
     <g style="fill: #7f7f7f" transform="translate(99 66.12)scale(0.12 -0.12)">
      <defs>
       <path id="DejaVuSans-65" d="M 3597 1894 
L 3597 1613 
L 953 1613 
Q 991 1019 1311 708 
Q 1631 397 2203 397 
Q 2534 397 2845 478 
Q 3156 559 3463 722 
L 3463 178 
Q 3153 47 2828 -22 
Q 2503 -91 2169 -91 
Q 1331 -91 842 396 
Q 353 884 353 1716 
Q 353 2575 817 3079 
Q 1281 3584 2069 3584 
Q 2775 3584 3186 3129 
Q 3597 2675 3597 1894 
z
M 3022 2063 
Q 3016 2534 2758 2815 
Q 2500 3097 2075 3097 
Q 1594 3097 1305 2825 
Q 1016 2553 972 2059 
L 3022 2063 
z
" transform="scale(0.015625)"/>
       <path id="DejaVuSans-36" d="M 2113 2584 
Q 1688 2584 1439 2293 
Q 1191 2003 1191 1497 
Q 1191 994 1439 701 
Q 1688 409 2113 409 
Q 2538 409 2786 701 
Q 3034 994 3034 1497 
Q 3034 2003 2786 2293 
Q 2538 2584 2113 2584 
z
M 3366 4563 
L 3366 3988 
Q 3128 4100 2886 4159 
Q 2644 4219 2406 4219 
Q 1781 4219 1451 3797 
Q 1122 3375 1075 2522 
Q 1259 2794 1537 2939 
Q 1816 3084 2150 3084 
Q 2853 3084 3261 2657 
Q 3669 2231 3669 1497 
Q 3669 778 3244 343 
Q 2819 -91 2113 -91 
Q 1303 -91 875 529 
Q 447 1150 447 2328 
Q 447 3434 972 4092 
Q 1497 4750 2381 4750 
Q 2619 4750 2861 4703 
Q 3103 4656 3366 4563 
z
" transform="scale(0.015625)"/>
      </defs>
      <use xlink:href="#DejaVuSans-31"/>
      <use xlink:href="#DejaVuSans-65" x="63.623047"/>
      <use xlink:href="#DejaVuSans-36" x="125.146484"/>
     </g>
    </g>
   </g>
   <g id="line2d_69">
    <path d="M 124.2 89.28 
L 147.461538 186.150878 
L 150.046154 200.442458 
L 173.307692 238.794843 
L 175.892308 239.140956 
L 199.153846 260.022584 
L 201.738462 263.226074 
L 225 276.451936 
L 227.584615 277.642696 
L 250.846154 306.62918 
L 253.430769 307.332439 
L 276.692308 326.323724 
L 281.861538 328.714236 
L 302.538462 338.647322 
L 305.123077 336.858116 
L 341.307692 353.931679 
L 343.892308 354.026278 
L 367.153846 365.495421 
L 369.738462 363.697021 
L 393 370.822379 
L 395.584615 372.775652 
L 405.923077 378.074415 
L 408.507692 378.709841 
L 418.846154 384.37188 
L 421.430769 386.929727 
L 431.769231 393.500977 
L 434.353846 395.931739 
L 444.692308 399.724684 
L 447.276923 401.153065 
L 457.615385 402.6928 
L 460.2 403.610593 
L 483.461538 395.447712 
L 486.046154 394.813715 
L 496.384615 392.790975 
L 504.138462 394.373616 
L 509.307692 395.454863 
L 511.892308 396.916752 
L 522.230769 396.143616 
L 524.815385 396.237806 
L 537.738462 391.126198 
L 540.323077 390.430294 
L 548.076923 380.257748 
L 550.661538 380.720322 
L 561 372.695968 
L 563.584615 369.155559 
L 573.923077 368.883818 
L 576.507692 368.089637 
L 579.092308 363.883923 
L 584.261538 361.945475 
L 589.430769 360.28518 
L 594.6 358.851633 
L 602.353846 356.996109 
L 610.107692 355.407299 
L 620.446154 353.525411 
L 628.2 352.19668 
L 628.2 352.19668 
" clip-path="url(#p1828329be4)" style="fill: none; stroke: #f7746a; stroke-linecap: square"/>
   </g>
   <g id="line2d_70">
    <path d="M 124.2 129.888455 
L 147.461538 201.594807 
L 150.046154 212.583804 
L 173.307692 263.523355 
L 199.153846 287.291781 
L 201.738462 289.064642 
L 225 301.545972 
L 227.584615 300.604886 
L 250.846154 324.296285 
L 253.430769 324.950508 
L 276.692308 341.611351 
L 279.276923 342.488894 
L 302.538462 351.473948 
L 305.123077 350.192879 
L 341.307692 361.609716 
L 343.892308 361.515934 
L 367.153846 368.901185 
L 369.738462 367.286057 
L 393 370.001433 
L 395.584615 371.329086 
L 408.507692 375.416861 
L 418.846154 377.612453 
L 421.430769 379.476439 
L 431.769231 382.969446 
L 434.353846 384.707573 
L 444.692308 385.156253 
L 447.276923 385.833565 
L 457.615385 383.880292 
L 460.2 383.655748 
L 483.461538 367.529807 
L 486.046154 365.874838 
L 496.384615 361.491825 
L 509.307692 362.223894 
L 511.892308 363.13474 
L 522.230769 359.700985 
L 524.815385 359.291533 
L 537.738462 347.696531 
L 540.323077 345.917337 
L 548.076923 332.844304 
L 550.661538 330.843834 
L 561 320.460025 
L 563.584615 315.708424 
L 573.923077 312.259958 
L 576.507692 310.620516 
L 579.092308 307.615065 
L 584.261538 303.833947 
L 589.430769 300.486883 
L 594.6 297.455895 
L 599.769231 294.648798 
L 604.938462 292.03317 
L 612.692308 288.373256 
L 620.446154 284.944099 
L 628.2 281.640293 
L 628.2 281.640293 
" clip-path="url(#p1828329be4)" style="fill: none; stroke: #a0a131; stroke-linecap: square"/>
   </g>
   <g id="line2d_71">
    <path d="M 124.2 120.428977 
L 147.461538 202.70711 
L 150.046154 213.368587 
L 173.307692 261.393348 
L 175.892308 263.809399 
L 199.153846 281.942552 
L 201.738462 283.752803 
L 225 294.70584 
L 227.584615 294.71483 
L 250.846154 319.50096 
L 253.430769 319.910411 
L 276.692308 335.453231 
L 279.276923 336.972125 
L 302.538462 344.54739 
L 305.123077 343.187863 
L 343.892308 352.37989 
L 367.153846 355.677161 
L 369.738462 354.445946 
L 393 354.301289 
L 395.584615 355.916621 
L 405.923077 357.43715 
L 408.507692 357.146407 
L 418.846154 358.335533 
L 421.430769 359.553672 
L 431.769231 362.429641 
L 434.353846 363.616315 
L 447.276923 360.332325 
L 460.2 354.815147 
L 480.876923 332.551109 
L 486.046154 328.083917 
L 496.384615 321.996899 
L 498.969231 321.654055 
L 509.307692 321.418681 
L 511.892308 322.218787 
L 522.230769 317.302098 
L 524.815385 316.595773 
L 537.738462 300.786524 
L 540.323077 297.853347 
L 548.076923 281.777259 
L 550.661538 276.791919 
L 561 262.81417 
L 563.584615 256.889788 
L 573.923077 249.249959 
L 576.507692 246.42323 
L 579.092308 249.65089 
L 584.261538 244.069125 
L 589.430769 238.813141 
L 594.6 233.915332 
L 599.769231 229.316228 
L 604.938462 224.961714 
L 612.692308 218.729257 
L 625.615385 208.755326 
L 628.2 206.78432 
L 628.2 206.78432 
" clip-path="url(#p1828329be4)" style="fill: none; stroke: #34af8b; stroke-linecap: square"/>
   </g>
   <g id="line2d_72">
    <path d="M 124.2 466.906432 
L 150.046154 476.290517 
L 173.307692 480.557478 
L 175.892308 479.820505 
L 199.153846 482.202027 
L 201.738462 482.908556 
L 225 485.6603 
L 227.584615 486.202354 
L 250.846154 488.963496 
L 256.015385 489.186611 
L 281.861538 490.679761 
L 302.538462 490.863238 
L 305.123077 490.054142 
L 341.307692 491.511332 
L 343.892308 492.448535 
L 367.153846 492.48 
L 382.661538 491.367288 
L 405.923077 489.822037 
L 408.507692 489.70905 
L 418.846154 489.793229 
L 421.430769 490.364091 
L 431.769231 490.7384 
L 434.353846 490.962332 
L 447.276923 490.157526 
L 460.2 487.820137 
L 478.292308 480.374409 
L 480.876923 479.062489 
L 486.046154 476.930234 
L 496.384615 473.554914 
L 501.553846 472.565201 
L 509.307692 471.248172 
L 511.892308 471.137841 
L 522.230769 468.128657 
L 524.815385 467.510393 
L 540.323077 459.144625 
L 548.076923 453.625608 
L 550.661538 452.216432 
L 561 447.278903 
L 563.584615 445.183221 
L 573.923077 442.404098 
L 576.507692 441.51021 
L 581.676923 439.285895 
L 628.2 418.23472 
L 628.2 418.23472 
" clip-path="url(#p1828329be4)" style="fill: none; stroke: #39a7d4; stroke-linecap: square"/>
   </g>
   <g id="line2d_73">
    <path d="M 124.2 439.907546 
L 150.046154 433.292981 
L 173.307692 432.941555 
L 175.892308 432.249941 
L 199.153846 432.861667 
L 201.738462 433.269484 
L 225 431.792679 
L 227.584615 430.480963 
L 250.846154 430.246815 
L 253.430769 430.418442 
L 299.953846 419.784139 
L 305.123077 418.57213 
L 341.307692 412.53619 
L 343.892308 412.75767 
L 367.153846 396.881814 
L 369.738462 396.152606 
L 393 383.589549 
L 395.584615 386.086305 
L 405.923077 378.597671 
L 408.507692 374.475162 
L 418.846154 371.448816 
L 421.430769 371.868279 
L 431.769231 369.523126 
L 434.353846 369.303894 
L 444.692308 357.526641 
L 447.276923 353.629699 
L 457.615385 344.850597 
L 460.2 341.948475 
L 478.292308 318.933367 
L 480.876923 315.088117 
L 483.461538 312.9955 
L 486.046154 311.107813 
L 496.384615 308.378952 
L 498.969231 307.371873 
L 509.307692 306.161906 
L 511.892308 306.58423 
L 524.815385 299.849934 
L 537.738462 289.822045 
L 540.323077 286.659828 
L 548.076923 285.491951 
L 550.661538 273.510994 
L 561 261.302631 
L 563.584615 255.961575 
L 573.923077 243.385851 
L 576.507692 240.782849 
L 579.092308 239.380177 
L 586.846154 228.531989 
L 592.015385 221.715354 
L 597.184615 215.301973 
L 602.353846 209.284047 
L 607.523077 203.631237 
L 612.692308 198.268046 
L 620.446154 190.634994 
L 628.2 183.129435 
L 628.2 183.129435 
" clip-path="url(#p1828329be4)" style="fill: none; stroke: #e668f4; stroke-linecap: square"/>
   </g>
   <g id="patch_3">
    <path d="M 99 512.64 
L 99 69.12 
" style="fill: none; opacity: 0"/>
   </g>
   <g id="patch_4">
    <path d="M 653.4 512.64 
L 653.4 69.12 
" style="fill: none; opacity: 0"/>
   </g>
   <g id="patch_5">
    <path d="M 99 512.64 
L 653.4 512.64 
" style="fill: none; opacity: 0"/>
   </g>
   <g id="patch_6">
    <path d="M 99 69.12 
L 653.4 69.12 
" style="fill: none; opacity: 0"/>
   </g>
   <g id="legend_1">
    <g id="patch_7">
     <path d="M 690.1164 256.957637 
L 710.1084 256.957637 
L 710.1084 249.960437 
L 690.1164 249.960437 
L 690.1164 256.957637 
z
" style="fill: none"/>
    </g>
    <g id="text_18">
     <!-- Group -->
     <g transform="translate(718.1052 256.957637)scale(0.09996 -0.09996)">
      <defs>
       <path id="DejaVuSans-47" d="M 3809 666 
L 3809 1919 
L 2778 1919 
L 2778 2438 
L 4434 2438 
L 4434 434 
Q 4069 175 3628 42 
Q 3188 -91 2688 -91 
Q 1594 -91 976 548 
Q 359 1188 359 2328 
Q 359 3472 976 4111 
Q 1594 4750 2688 4750 
Q 3144 4750 3555 4637 
Q 3966 4525 4313 4306 
L 4313 3634 
Q 3963 3931 3569 4081 
Q 3175 4231 2741 4231 
Q 1884 4231 1454 3753 
Q 1025 3275 1025 2328 
Q 1025 1384 1454 906 
Q 1884 428 2741 428 
Q 3075 428 3337 486 
Q 3600 544 3809 666 
z
" transform="scale(0.015625)"/>
       <path id="DejaVuSans-72" d="M 2631 2963 
Q 2534 3019 2420 3045 
Q 2306 3072 2169 3072 
Q 1681 3072 1420 2755 
Q 1159 2438 1159 1844 
L 1159 0 
L 581 0 
L 581 3500 
L 1159 3500 
L 1159 2956 
Q 1341 3275 1631 3429 
Q 1922 3584 2338 3584 
Q 2397 3584 2469 3576 
Q 2541 3569 2628 3553 
L 2631 2963 
z
" transform="scale(0.015625)"/>
       <path id="DejaVuSans-6f" d="M 1959 3097 
Q 1497 3097 1228 2736 
Q 959 2375 959 1747 
Q 959 1119 1226 758 
Q 1494 397 1959 397 
Q 2419 397 2687 759 
Q 2956 1122 2956 1747 
Q 2956 2369 2687 2733 
Q 2419 3097 1959 3097 
z
M 1959 3584 
Q 2709 3584 3137 3096 
Q 3566 2609 3566 1747 
Q 3566 888 3137 398 
Q 2709 -91 1959 -91 
Q 1206 -91 779 398 
Q 353 888 353 1747 
Q 353 2609 779 3096 
Q 1206 3584 1959 3584 
z
" transform="scale(0.015625)"/>
       <path id="DejaVuSans-75" d="M 544 1381 
L 544 3500 
L 1119 3500 
L 1119 1403 
Q 1119 906 1312 657 
Q 1506 409 1894 409 
Q 2359 409 2629 706 
Q 2900 1003 2900 1516 
L 2900 3500 
L 3475 3500 
L 3475 0 
L 2900 0 
L 2900 538 
Q 2691 219 2414 64 
Q 2138 -91 1772 -91 
Q 1169 -91 856 284 
Q 544 659 544 1381 
z
M 1991 3584 
L 1991 3584 
z
" transform="scale(0.015625)"/>
       <path id="DejaVuSans-70" d="M 1159 525 
L 1159 -1331 
L 581 -1331 
L 581 3500 
L 1159 3500 
L 1159 2969 
Q 1341 3281 1617 3432 
Q 1894 3584 2278 3584 
Q 2916 3584 3314 3078 
Q 3713 2572 3713 1747 
Q 3713 922 3314 415 
Q 2916 -91 2278 -91 
Q 1894 -91 1617 61 
Q 1341 213 1159 525 
z
M 3116 1747 
Q 3116 2381 2855 2742 
Q 2594 3103 2138 3103 
Q 1681 3103 1420 2742 
Q 1159 2381 1159 1747 
Q 1159 1113 1420 752 
Q 1681 391 2138 391 
Q 2594 391 2855 752 
Q 3116 1113 3116 1747 
z
" transform="scale(0.015625)"/>
      </defs>
      <use xlink:href="#DejaVuSans-47"/>
      <use xlink:href="#DejaVuSans-72" x="77.490234"/>
      <use xlink:href="#DejaVuSans-6f" x="116.353516"/>
      <use xlink:href="#DejaVuSans-75" x="177.535156"/>
      <use xlink:href="#DejaVuSans-70" x="240.914062"/>
     </g>
    </g>
    <g id="line2d_74">
     <path d="M 690.1164 268.131291 
L 700.1124 268.131291 
L 710.1084 268.131291 
" style="fill: none; stroke: #f7746a; stroke-width: 5; stroke-linecap: square"/>
    </g>
    <g id="text_19">
     <!-- 1 -->
     <g transform="translate(718.1052 271.629891)scale(0.09996 -0.09996)">
      <use xlink:href="#DejaVuSans-31"/>
     </g>
    </g>
    <g id="line2d_75">
     <path d="M 690.1164 282.803544 
L 700.1124 282.803544 
L 710.1084 282.803544 
" style="fill: none; stroke: #a0a131; stroke-width: 5; stroke-linecap: square"/>
    </g>
    <g id="text_20">
     <!-- 2 -->
     <g transform="translate(718.1052 286.302144)scale(0.09996 -0.09996)">
      <use xlink:href="#DejaVuSans-32"/>
     </g>
    </g>
    <g id="line2d_76">
     <path d="M 690.1164 297.475798 
L 700.1124 297.475798 
L 710.1084 297.475798 
" style="fill: none; stroke: #34af8b; stroke-width: 5; stroke-linecap: square"/>
    </g>
    <g id="text_21">
     <!-- 3 -->
     <g transform="translate(718.1052 300.974398)scale(0.09996 -0.09996)">
      <defs>
       <path id="DejaVuSans-33" d="M 2597 2516 
Q 3050 2419 3304 2112 
Q 3559 1806 3559 1356 
Q 3559 666 3084 287 
Q 2609 -91 1734 -91 
Q 1441 -91 1130 -33 
Q 819 25 488 141 
L 488 750 
Q 750 597 1062 519 
Q 1375 441 1716 441 
Q 2309 441 2620 675 
Q 2931 909 2931 1356 
Q 2931 1769 2642 2001 
Q 2353 2234 1838 2234 
L 1294 2234 
L 1294 2753 
L 1863 2753 
Q 2328 2753 2575 2939 
Q 2822 3125 2822 3475 
Q 2822 3834 2567 4026 
Q 2313 4219 1838 4219 
Q 1578 4219 1281 4162 
Q 984 4106 628 3988 
L 628 4550 
Q 988 4650 1302 4700 
Q 1616 4750 1894 4750 
Q 2613 4750 3031 4423 
Q 3450 4097 3450 3541 
Q 3450 3153 3228 2886 
Q 3006 2619 2597 2516 
z
" transform="scale(0.015625)"/>
      </defs>
      <use xlink:href="#DejaVuSans-33"/>
     </g>
    </g>
    <g id="line2d_77">
     <path d="M 690.1164 312.148052 
L 700.1124 312.148052 
L 710.1084 312.148052 
" style="fill: none; stroke: #39a7d4; stroke-width: 5; stroke-linecap: square"/>
    </g>
    <g id="text_22">
     <!-- 4 -->
     <g transform="translate(718.1052 315.646652)scale(0.09996 -0.09996)">
      <defs>
       <path id="DejaVuSans-34" d="M 2419 4116 
L 825 1625 
L 2419 1625 
L 2419 4116 
z
M 2253 4666 
L 3047 4666 
L 3047 1625 
L 3713 1625 
L 3713 1100 
L 3047 1100 
L 3047 0 
L 2419 0 
L 2419 1100 
L 313 1100 
L 313 1709 
L 2253 4666 
z
" transform="scale(0.015625)"/>
      </defs>
      <use xlink:href="#DejaVuSans-34"/>
     </g>
    </g>
    <g id="line2d_78">
     <path d="M 690.1164 326.820306 
L 700.1124 326.820306 
L 710.1084 326.820306 
" style="fill: none; stroke: #e668f4; stroke-width: 5; stroke-linecap: square"/>
    </g>
    <g id="text_23">
     <!-- 5 -->
     <g transform="translate(718.1052 330.318906)scale(0.09996 -0.09996)">
      <use xlink:href="#DejaVuSans-35"/>
     </g>
    </g>
   </g>
  </g>
  <g id="text_24">
   <!-- Year -->
   <g transform="translate(383.295 547.2)scale(0.12 -0.12)">
    <defs>
     <path id="DejaVuSans-59" d="M -13 4666 
L 666 4666 
L 1959 2747 
L 3244 4666 
L 3922 4666 
L 2272 2222 
L 2272 0 
L 1638 0 
L 1638 2222 
L -13 4666 
z
" transform="scale(0.015625)"/>
     <path id="DejaVuSans-61" d="M 2194 1759 
Q 1497 1759 1228 1600 
Q 959 1441 959 1056 
Q 959 750 1161 570 
Q 1363 391 1709 391 
Q 2188 391 2477 730 
Q 2766 1069 2766 1631 
L 2766 1759 
L 2194 1759 
z
M 3341 1997 
L 3341 0 
L 2766 0 
L 2766 531 
Q 2569 213 2275 61 
Q 1981 -91 1556 -91 
Q 1019 -91 701 211 
Q 384 513 384 1019 
Q 384 1609 779 1909 
Q 1175 2209 1959 2209 
L 2766 2209 
L 2766 2266 
Q 2766 2663 2505 2880 
Q 2244 3097 1772 3097 
Q 1472 3097 1187 3025 
Q 903 2953 641 2809 
L 641 3341 
Q 956 3463 1253 3523 
Q 1550 3584 1831 3584 
Q 2591 3584 2966 3190 
Q 3341 2797 3341 1997 
z
" transform="scale(0.015625)"/>
    </defs>
    <use xlink:href="#DejaVuSans-59"/>
    <use xlink:href="#DejaVuSans-65" x="47.833984"/>
    <use xlink:href="#DejaVuSans-61" x="109.357422"/>
    <use xlink:href="#DejaVuSans-72" x="170.636719"/>
   </g>
  </g>
  <g id="text_25">
   <!-- Total Population -->
   <g transform="translate(42.91125 290.495625)rotate(-90)scale(0.12 -0.12)">
    <defs>
     <path id="DejaVuSans-54" d="M -19 4666 
L 3928 4666 
L 3928 4134 
L 2272 4134 
L 2272 0 
L 1638 0 
L 1638 4134 
L -19 4134 
L -19 4666 
z
" transform="scale(0.015625)"/>
     <path id="DejaVuSans-74" d="M 1172 4494 
L 1172 3500 
L 2356 3500 
L 2356 3053 
L 1172 3053 
L 1172 1153 
Q 1172 725 1289 603 
Q 1406 481 1766 481 
L 2356 481 
L 2356 0 
L 1766 0 
Q 1100 0 847 248 
Q 594 497 594 1153 
L 594 3053 
L 172 3053 
L 172 3500 
L 594 3500 
L 594 4494 
L 1172 4494 
z
" transform="scale(0.015625)"/>
     <path id="DejaVuSans-6c" d="M 603 4863 
L 1178 4863 
L 1178 0 
L 603 0 
L 603 4863 
z
" transform="scale(0.015625)"/>
     <path id="DejaVuSans-20" transform="scale(0.015625)"/>
     <path id="DejaVuSans-50" d="M 1259 4147 
L 1259 2394 
L 2053 2394 
Q 2494 2394 2734 2622 
Q 2975 2850 2975 3272 
Q 2975 3691 2734 3919 
Q 2494 4147 2053 4147 
L 1259 4147 
z
M 628 4666 
L 2053 4666 
Q 2838 4666 3239 4311 
Q 3641 3956 3641 3272 
Q 3641 2581 3239 2228 
Q 2838 1875 2053 1875 
L 1259 1875 
L 1259 0 
L 628 0 
L 628 4666 
z
" transform="scale(0.015625)"/>
     <path id="DejaVuSans-69" d="M 603 3500 
L 1178 3500 
L 1178 0 
L 603 0 
L 603 3500 
z
M 603 4863 
L 1178 4863 
L 1178 4134 
L 603 4134 
L 603 4863 
z
" transform="scale(0.015625)"/>
     <path id="DejaVuSans-6e" d="M 3513 2113 
L 3513 0 
L 2938 0 
L 2938 2094 
Q 2938 2591 2744 2837 
Q 2550 3084 2163 3084 
Q 1697 3084 1428 2787 
Q 1159 2491 1159 1978 
L 1159 0 
L 581 0 
L 581 3500 
L 1159 3500 
L 1159 2956 
Q 1366 3272 1645 3428 
Q 1925 3584 2291 3584 
Q 2894 3584 3203 3211 
Q 3513 2838 3513 2113 
z
" transform="scale(0.015625)"/>
    </defs>
    <use xlink:href="#DejaVuSans-54"/>
    <use xlink:href="#DejaVuSans-6f" x="44.083984"/>
    <use xlink:href="#DejaVuSans-74" x="105.265625"/>
    <use xlink:href="#DejaVuSans-61" x="144.474609"/>
    <use xlink:href="#DejaVuSans-6c" x="205.753906"/>
    <use xlink:href="#DejaVuSans-20" x="233.537109"/>
    <use xlink:href="#DejaVuSans-50" x="265.324219"/>
    <use xlink:href="#DejaVuSans-6f" x="322.001953"/>
    <use xlink:href="#DejaVuSans-70" x="383.183594"/>
    <use xlink:href="#DejaVuSans-75" x="446.660156"/>
    <use xlink:href="#DejaVuSans-6c" x="510.039062"/>
    <use xlink:href="#DejaVuSans-61" x="537.822266"/>
    <use xlink:href="#DejaVuSans-74" x="599.101562"/>
    <use xlink:href="#DejaVuSans-69" x="638.310547"/>
    <use xlink:href="#DejaVuSans-6f" x="666.09375"/>
    <use xlink:href="#DejaVuSans-6e" x="727.275391"/>
   </g>
  </g>
 </g>
 <defs>
  <clipPath id="p1828329be4">
   <rect x="99" y="69.12" width="554.4" height="443.52"/>
  </clipPath>
 </defs>
</svg>
