<?xml version="1.0" encoding="utf-8" standalone="no"?>
<!DOCTYPE svg PUBLIC "-//W3C//DTD SVG 1.1//EN"
  "http://www.w3.org/Graphics/SVG/1.1/DTD/svg11.dtd">
<svg xmlns:xlink="http://www.w3.org/1999/xlink" width="792pt" height="576pt" viewBox="0 0 792 576" xmlns="http://www.w3.org/2000/svg" version="1.1">
 <metadata>
  <rdf:RDF xmlns:dc="http://purl.org/dc/elements/1.1/" xmlns:cc="http://creativecommons.org/ns#" xmlns:rdf="http://www.w3.org/1999/02/22-rdf-syntax-ns#">
   <cc:Work>
    <dc:type rdf:resource="http://purl.org/dc/dcmitype/StillImage"/>
    <dc:date>2021-12-01T04:37:45.007998</dc:date>
    <dc:format>image/svg+xml</dc:format>
    <dc:creator>
     <cc:Agent>
      <dc:title>Matplotlib v3.5.0, https://matplotlib.org/</dc:title>
     </cc:Agent>
    </dc:creator>
   </cc:Work>
  </rdf:RDF>
 </metadata>
 <defs>
  <style type="text/css">*{stroke-linejoin: round; stroke-linecap: butt}</style>
 </defs>
 <g id="figure_1">
  <g id="patch_1">
   <path d="M 0 576 
L 792 576 
L 792 0 
L 0 0 
z
" style="fill: #ffffff"/>
  </g>
  <g id="axes_1">
   <g id="patch_2">
    <path d="M 99 512.64 
L 653.4 512.64 
L 653.4 69.12 
L 99 69.12 
z
" style="fill: #ffffff"/>
   </g>
   <g id="matplotlib.axis_1">
    <g id="xtick_1">
     <g id="line2d_1">
      <path d="M 147.461538 512.64 
L 147.461538 69.12 
" clip-path="url(#p8241e69989)" style="fill: none; stroke: #ffffff; stroke-width: 1.4; stroke-linecap: square"/>
     </g>
     <g id="line2d_2">
      <defs>
       <path id="m7f63be62b7" d="M 0 0 
L 0 5 
" style="stroke: #7f7f7f; stroke-width: 1.4"/>
      </defs>
      <g>
       <use xlink:href="#m7f63be62b7" x="147.461538" y="512.64" style="fill: #7f7f7f; stroke: #7f7f7f; stroke-width: 1.4"/>
      </g>
     </g>
     <g id="text_1">
      <!-- 1850 -->
      <g style="fill: #7f7f7f" transform="translate(132.191538 527.758125)scale(0.12 -0.12)">
       <defs>
        <path id="DejaVuSans-31" d="M 794 531 
L 1825 531 
L 1825 4091 
L 703 3866 
L 703 4441 
L 1819 4666 
L 2450 4666 
L 2450 531 
L 3481 531 
L 3481 0 
L 794 0 
L 794 531 
z
" transform="scale(0.015625)"/>
        <path id="DejaVuSans-38" d="M 2034 2216 
Q 1584 2216 1326 1975 
Q 1069 1734 1069 1313 
Q 1069 891 1326 650 
Q 1584 409 2034 409 
Q 2484 409 2743 651 
Q 3003 894 3003 1313 
Q 3003 1734 2745 1975 
Q 2488 2216 2034 2216 
z
M 1403 2484 
Q 997 2584 770 2862 
Q 544 3141 544 3541 
Q 544 4100 942 4425 
Q 1341 4750 2034 4750 
Q 2731 4750 3128 4425 
Q 3525 4100 3525 3541 
Q 3525 3141 3298 2862 
Q 3072 2584 2669 2484 
Q 3125 2378 3379 2068 
Q 3634 1759 3634 1313 
Q 3634 634 3220 271 
Q 2806 -91 2034 -91 
Q 1263 -91 848 271 
Q 434 634 434 1313 
Q 434 1759 690 2068 
Q 947 2378 1403 2484 
z
M 1172 3481 
Q 1172 3119 1398 2916 
Q 1625 2713 2034 2713 
Q 2441 2713 2670 2916 
Q 2900 3119 2900 3481 
Q 2900 3844 2670 4047 
Q 2441 4250 2034 4250 
Q 1625 4250 1398 4047 
Q 1172 3844 1172 3481 
z
" transform="scale(0.015625)"/>
        <path id="DejaVuSans-35" d="M 691 4666 
L 3169 4666 
L 3169 4134 
L 1269 4134 
L 1269 2991 
Q 1406 3038 1543 3061 
Q 1681 3084 1819 3084 
Q 2600 3084 3056 2656 
Q 3513 2228 3513 1497 
Q 3513 744 3044 326 
Q 2575 -91 1722 -91 
Q 1428 -91 1123 -41 
Q 819 9 494 109 
L 494 744 
Q 775 591 1075 516 
Q 1375 441 1709 441 
Q 2250 441 2565 725 
Q 2881 1009 2881 1497 
Q 2881 1984 2565 2268 
Q 2250 2553 1709 2553 
Q 1456 2553 1204 2497 
Q 953 2441 691 2322 
L 691 4666 
z
" transform="scale(0.015625)"/>
        <path id="DejaVuSans-30" d="M 2034 4250 
Q 1547 4250 1301 3770 
Q 1056 3291 1056 2328 
Q 1056 1369 1301 889 
Q 1547 409 2034 409 
Q 2525 409 2770 889 
Q 3016 1369 3016 2328 
Q 3016 3291 2770 3770 
Q 2525 4250 2034 4250 
z
M 2034 4750 
Q 2819 4750 3233 4129 
Q 3647 3509 3647 2328 
Q 3647 1150 3233 529 
Q 2819 -91 2034 -91 
Q 1250 -91 836 529 
Q 422 1150 422 2328 
Q 422 3509 836 4129 
Q 1250 4750 2034 4750 
z
" transform="scale(0.015625)"/>
       </defs>
       <use xlink:href="#DejaVuSans-31"/>
       <use xlink:href="#DejaVuSans-38" x="63.623047"/>
       <use xlink:href="#DejaVuSans-35" x="127.246094"/>
       <use xlink:href="#DejaVuSans-30" x="190.869141"/>
      </g>
     </g>
    </g>
    <g id="xtick_2">
     <g id="line2d_3">
      <path d="M 212.076923 512.64 
L 212.076923 69.12 
" clip-path="url(#p8241e69989)" style="fill: none; stroke: #ffffff; stroke-width: 1.4; stroke-linecap: square"/>
     </g>
     <g id="line2d_4">
      <g>
       <use xlink:href="#m7f63be62b7" x="212.076923" y="512.64" style="fill: #7f7f7f; stroke: #7f7f7f; stroke-width: 1.4"/>
      </g>
     </g>
     <g id="text_2">
      <!-- 1875 -->
      <g style="fill: #7f7f7f" transform="translate(196.806923 527.758125)scale(0.12 -0.12)">
       <defs>
        <path id="DejaVuSans-37" d="M 525 4666 
L 3525 4666 
L 3525 4397 
L 1831 0 
L 1172 0 
L 2766 4134 
L 525 4134 
L 525 4666 
z
" transform="scale(0.015625)"/>
       </defs>
       <use xlink:href="#DejaVuSans-31"/>
       <use xlink:href="#DejaVuSans-38" x="63.623047"/>
       <use xlink:href="#DejaVuSans-37" x="127.246094"/>
       <use xlink:href="#DejaVuSans-35" x="190.869141"/>
      </g>
     </g>
    </g>
    <g id="xtick_3">
     <g id="line2d_5">
      <path d="M 276.692308 512.64 
L 276.692308 69.12 
" clip-path="url(#p8241e69989)" style="fill: none; stroke: #ffffff; stroke-width: 1.4; stroke-linecap: square"/>
     </g>
     <g id="line2d_6">
      <g>
       <use xlink:href="#m7f63be62b7" x="276.692308" y="512.64" style="fill: #7f7f7f; stroke: #7f7f7f; stroke-width: 1.4"/>
      </g>
     </g>
     <g id="text_3">
      <!-- 1900 -->
      <g style="fill: #7f7f7f" transform="translate(261.422308 527.758125)scale(0.12 -0.12)">
       <defs>
        <path id="DejaVuSans-39" d="M 703 97 
L 703 672 
Q 941 559 1184 500 
Q 1428 441 1663 441 
Q 2288 441 2617 861 
Q 2947 1281 2994 2138 
Q 2813 1869 2534 1725 
Q 2256 1581 1919 1581 
Q 1219 1581 811 2004 
Q 403 2428 403 3163 
Q 403 3881 828 4315 
Q 1253 4750 1959 4750 
Q 2769 4750 3195 4129 
Q 3622 3509 3622 2328 
Q 3622 1225 3098 567 
Q 2575 -91 1691 -91 
Q 1453 -91 1209 -44 
Q 966 3 703 97 
z
M 1959 2075 
Q 2384 2075 2632 2365 
Q 2881 2656 2881 3163 
Q 2881 3666 2632 3958 
Q 2384 4250 1959 4250 
Q 1534 4250 1286 3958 
Q 1038 3666 1038 3163 
Q 1038 2656 1286 2365 
Q 1534 2075 1959 2075 
z
" transform="scale(0.015625)"/>
       </defs>
       <use xlink:href="#DejaVuSans-31"/>
       <use xlink:href="#DejaVuSans-39" x="63.623047"/>
       <use xlink:href="#DejaVuSans-30" x="127.246094"/>
       <use xlink:href="#DejaVuSans-30" x="190.869141"/>
      </g>
     </g>
    </g>
    <g id="xtick_4">
     <g id="line2d_7">
      <path d="M 341.307692 512.64 
L 341.307692 69.12 
" clip-path="url(#p8241e69989)" style="fill: none; stroke: #ffffff; stroke-width: 1.4; stroke-linecap: square"/>
     </g>
     <g id="line2d_8">
      <g>
       <use xlink:href="#m7f63be62b7" x="341.307692" y="512.64" style="fill: #7f7f7f; stroke: #7f7f7f; stroke-width: 1.4"/>
      </g>
     </g>
     <g id="text_4">
      <!-- 1925 -->
      <g style="fill: #7f7f7f" transform="translate(326.037692 527.758125)scale(0.12 -0.12)">
       <defs>
        <path id="DejaVuSans-32" d="M 1228 531 
L 3431 531 
L 3431 0 
L 469 0 
L 469 531 
Q 828 903 1448 1529 
Q 2069 2156 2228 2338 
Q 2531 2678 2651 2914 
Q 2772 3150 2772 3378 
Q 2772 3750 2511 3984 
Q 2250 4219 1831 4219 
Q 1534 4219 1204 4116 
Q 875 4013 500 3803 
L 500 4441 
Q 881 4594 1212 4672 
Q 1544 4750 1819 4750 
Q 2544 4750 2975 4387 
Q 3406 4025 3406 3419 
Q 3406 3131 3298 2873 
Q 3191 2616 2906 2266 
Q 2828 2175 2409 1742 
Q 1991 1309 1228 531 
z
" transform="scale(0.015625)"/>
       </defs>
       <use xlink:href="#DejaVuSans-31"/>
       <use xlink:href="#DejaVuSans-39" x="63.623047"/>
       <use xlink:href="#DejaVuSans-32" x="127.246094"/>
       <use xlink:href="#DejaVuSans-35" x="190.869141"/>
      </g>
     </g>
    </g>
    <g id="xtick_5">
     <g id="line2d_9">
      <path d="M 405.923077 512.64 
L 405.923077 69.12 
" clip-path="url(#p8241e69989)" style="fill: none; stroke: #ffffff; stroke-width: 1.4; stroke-linecap: square"/>
     </g>
     <g id="line2d_10">
      <g>
       <use xlink:href="#m7f63be62b7" x="405.923077" y="512.64" style="fill: #7f7f7f; stroke: #7f7f7f; stroke-width: 1.4"/>
      </g>
     </g>
     <g id="text_5">
      <!-- 1950 -->
      <g style="fill: #7f7f7f" transform="translate(390.653077 527.758125)scale(0.12 -0.12)">
       <use xlink:href="#DejaVuSans-31"/>
       <use xlink:href="#DejaVuSans-39" x="63.623047"/>
       <use xlink:href="#DejaVuSans-35" x="127.246094"/>
       <use xlink:href="#DejaVuSans-30" x="190.869141"/>
      </g>
     </g>
    </g>
    <g id="xtick_6">
     <g id="line2d_11">
      <path d="M 470.538462 512.64 
L 470.538462 69.12 
" clip-path="url(#p8241e69989)" style="fill: none; stroke: #ffffff; stroke-width: 1.4; stroke-linecap: square"/>
     </g>
     <g id="line2d_12">
      <g>
       <use xlink:href="#m7f63be62b7" x="470.538462" y="512.64" style="fill: #7f7f7f; stroke: #7f7f7f; stroke-width: 1.4"/>
      </g>
     </g>
     <g id="text_6">
      <!-- 1975 -->
      <g style="fill: #7f7f7f" transform="translate(455.268462 527.758125)scale(0.12 -0.12)">
       <use xlink:href="#DejaVuSans-31"/>
       <use xlink:href="#DejaVuSans-39" x="63.623047"/>
       <use xlink:href="#DejaVuSans-37" x="127.246094"/>
       <use xlink:href="#DejaVuSans-35" x="190.869141"/>
      </g>
     </g>
    </g>
    <g id="xtick_7">
     <g id="line2d_13">
      <path d="M 535.153846 512.64 
L 535.153846 69.12 
" clip-path="url(#p8241e69989)" style="fill: none; stroke: #ffffff; stroke-width: 1.4; stroke-linecap: square"/>
     </g>
     <g id="line2d_14">
      <g>
       <use xlink:href="#m7f63be62b7" x="535.153846" y="512.64" style="fill: #7f7f7f; stroke: #7f7f7f; stroke-width: 1.4"/>
      </g>
     </g>
     <g id="text_7">
      <!-- 2000 -->
      <g style="fill: #7f7f7f" transform="translate(519.883846 527.758125)scale(0.12 -0.12)">
       <use xlink:href="#DejaVuSans-32"/>
       <use xlink:href="#DejaVuSans-30" x="63.623047"/>
       <use xlink:href="#DejaVuSans-30" x="127.246094"/>
       <use xlink:href="#DejaVuSans-30" x="190.869141"/>
      </g>
     </g>
    </g>
    <g id="xtick_8">
     <g id="line2d_15">
      <path d="M 599.769231 512.64 
L 599.769231 69.12 
" clip-path="url(#p8241e69989)" style="fill: none; stroke: #ffffff; stroke-width: 1.4; stroke-linecap: square"/>
     </g>
     <g id="line2d_16">
      <g>
       <use xlink:href="#m7f63be62b7" x="599.769231" y="512.64" style="fill: #7f7f7f; stroke: #7f7f7f; stroke-width: 1.4"/>
      </g>
     </g>
     <g id="text_8">
      <!-- 2025 -->
      <g style="fill: #7f7f7f" transform="translate(584.499231 527.758125)scale(0.12 -0.12)">
       <use xlink:href="#DejaVuSans-32"/>
       <use xlink:href="#DejaVuSans-30" x="63.623047"/>
       <use xlink:href="#DejaVuSans-32" x="127.246094"/>
       <use xlink:href="#DejaVuSans-35" x="190.869141"/>
      </g>
     </g>
    </g>
    <g id="xtick_9">
     <g id="line2d_17">
      <path d="M 115.153846 512.64 
L 115.153846 69.12 
" clip-path="url(#p8241e69989)" style="fill: none; stroke: #f2f2f2; stroke-width: 0.7; stroke-linecap: square"/>
     </g>
     <g id="line2d_18"/>
    </g>
    <g id="xtick_10">
     <g id="line2d_19">
      <path d="M 179.769231 512.64 
L 179.769231 69.12 
" clip-path="url(#p8241e69989)" style="fill: none; stroke: #f2f2f2; stroke-width: 0.7; stroke-linecap: square"/>
     </g>
     <g id="line2d_20"/>
    </g>
    <g id="xtick_11">
     <g id="line2d_21">
      <path d="M 244.384615 512.64 
L 244.384615 69.12 
" clip-path="url(#p8241e69989)" style="fill: none; stroke: #f2f2f2; stroke-width: 0.7; stroke-linecap: square"/>
     </g>
     <g id="line2d_22"/>
    </g>
    <g id="xtick_12">
     <g id="line2d_23">
      <path d="M 309 512.64 
L 309 69.12 
" clip-path="url(#p8241e69989)" style="fill: none; stroke: #f2f2f2; stroke-width: 0.7; stroke-linecap: square"/>
     </g>
     <g id="line2d_24"/>
    </g>
    <g id="xtick_13">
     <g id="line2d_25">
      <path d="M 373.615385 512.64 
L 373.615385 69.12 
" clip-path="url(#p8241e69989)" style="fill: none; stroke: #f2f2f2; stroke-width: 0.7; stroke-linecap: square"/>
     </g>
     <g id="line2d_26"/>
    </g>
    <g id="xtick_14">
     <g id="line2d_27">
      <path d="M 438.230769 512.64 
L 438.230769 69.12 
" clip-path="url(#p8241e69989)" style="fill: none; stroke: #f2f2f2; stroke-width: 0.7; stroke-linecap: square"/>
     </g>
     <g id="line2d_28"/>
    </g>
    <g id="xtick_15">
     <g id="line2d_29">
      <path d="M 502.846154 512.64 
L 502.846154 69.12 
" clip-path="url(#p8241e69989)" style="fill: none; stroke: #f2f2f2; stroke-width: 0.7; stroke-linecap: square"/>
     </g>
     <g id="line2d_30"/>
    </g>
    <g id="xtick_16">
     <g id="line2d_31">
      <path d="M 567.461538 512.64 
L 567.461538 69.12 
" clip-path="url(#p8241e69989)" style="fill: none; stroke: #f2f2f2; stroke-width: 0.7; stroke-linecap: square"/>
     </g>
     <g id="line2d_32"/>
    </g>
    <g id="xtick_17">
     <g id="line2d_33">
      <path d="M 632.076923 512.64 
L 632.076923 69.12 
" clip-path="url(#p8241e69989)" style="fill: none; stroke: #f2f2f2; stroke-width: 0.7; stroke-linecap: square"/>
     </g>
     <g id="line2d_34"/>
    </g>
   </g>
   <g id="matplotlib.axis_2">
    <g id="ytick_1">
     <g id="line2d_35">
      <path d="M 99 466.70063 
L 653.4 466.70063 
" clip-path="url(#p8241e69989)" style="fill: none; stroke: #ffffff; stroke-width: 1.4; stroke-linecap: square"/>
     </g>
     <g id="line2d_36">
      <defs>
       <path id="m9cac2df43d" d="M 0 0 
L -5 0 
" style="stroke: #7f7f7f; stroke-width: 1.4"/>
      </defs>
      <g>
       <use xlink:href="#m9cac2df43d" x="99" y="466.70063" style="fill: #7f7f7f; stroke: #7f7f7f; stroke-width: 1.4"/>
      </g>
     </g>
     <g id="text_9">
      <!-- 50000 -->
      <g style="fill: #7f7f7f" transform="translate(54.825 471.259692)scale(0.12 -0.12)">
       <use xlink:href="#DejaVuSans-35"/>
       <use xlink:href="#DejaVuSans-30" x="63.623047"/>
       <use xlink:href="#DejaVuSans-30" x="127.246094"/>
       <use xlink:href="#DejaVuSans-30" x="190.869141"/>
       <use xlink:href="#DejaVuSans-30" x="254.492188"/>
      </g>
     </g>
    </g>
    <g id="ytick_2">
     <g id="line2d_37">
      <path d="M 99 389.322282 
L 653.4 389.322282 
" clip-path="url(#p8241e69989)" style="fill: none; stroke: #ffffff; stroke-width: 1.4; stroke-linecap: square"/>
     </g>
     <g id="line2d_38">
      <g>
       <use xlink:href="#m9cac2df43d" x="99" y="389.322282" style="fill: #7f7f7f; stroke: #7f7f7f; stroke-width: 1.4"/>
      </g>
     </g>
     <g id="text_10">
      <!-- 100000 -->
      <g style="fill: #7f7f7f" transform="translate(47.19 393.881344)scale(0.12 -0.12)">
       <use xlink:href="#DejaVuSans-31"/>
       <use xlink:href="#DejaVuSans-30" x="63.623047"/>
       <use xlink:href="#DejaVuSans-30" x="127.246094"/>
       <use xlink:href="#DejaVuSans-30" x="190.869141"/>
       <use xlink:href="#DejaVuSans-30" x="254.492188"/>
       <use xlink:href="#DejaVuSans-30" x="318.115234"/>
      </g>
     </g>
    </g>
    <g id="ytick_3">
     <g id="line2d_39">
      <path d="M 99 311.943934 
L 653.4 311.943934 
" clip-path="url(#p8241e69989)" style="fill: none; stroke: #ffffff; stroke-width: 1.4; stroke-linecap: square"/>
     </g>
     <g id="line2d_40">
      <g>
       <use xlink:href="#m9cac2df43d" x="99" y="311.943934" style="fill: #7f7f7f; stroke: #7f7f7f; stroke-width: 1.4"/>
      </g>
     </g>
     <g id="text_11">
      <!-- 150000 -->
      <g style="fill: #7f7f7f" transform="translate(47.19 316.502996)scale(0.12 -0.12)">
       <use xlink:href="#DejaVuSans-31"/>
       <use xlink:href="#DejaVuSans-35" x="63.623047"/>
       <use xlink:href="#DejaVuSans-30" x="127.246094"/>
       <use xlink:href="#DejaVuSans-30" x="190.869141"/>
       <use xlink:href="#DejaVuSans-30" x="254.492188"/>
       <use xlink:href="#DejaVuSans-30" x="318.115234"/>
      </g>
     </g>
    </g>
    <g id="ytick_4">
     <g id="line2d_41">
      <path d="M 99 234.565586 
L 653.4 234.565586 
" clip-path="url(#p8241e69989)" style="fill: none; stroke: #ffffff; stroke-width: 1.4; stroke-linecap: square"/>
     </g>
     <g id="line2d_42">
      <g>
       <use xlink:href="#m9cac2df43d" x="99" y="234.565586" style="fill: #7f7f7f; stroke: #7f7f7f; stroke-width: 1.4"/>
      </g>
     </g>
     <g id="text_12">
      <!-- 200000 -->
      <g style="fill: #7f7f7f" transform="translate(47.19 239.124648)scale(0.12 -0.12)">
       <use xlink:href="#DejaVuSans-32"/>
       <use xlink:href="#DejaVuSans-30" x="63.623047"/>
       <use xlink:href="#DejaVuSans-30" x="127.246094"/>
       <use xlink:href="#DejaVuSans-30" x="190.869141"/>
       <use xlink:href="#DejaVuSans-30" x="254.492188"/>
       <use xlink:href="#DejaVuSans-30" x="318.115234"/>
      </g>
     </g>
    </g>
    <g id="ytick_5">
     <g id="line2d_43">
      <path d="M 99 157.187238 
L 653.4 157.187238 
" clip-path="url(#p8241e69989)" style="fill: none; stroke: #ffffff; stroke-width: 1.4; stroke-linecap: square"/>
     </g>
     <g id="line2d_44">
      <g>
       <use xlink:href="#m9cac2df43d" x="99" y="157.187238" style="fill: #7f7f7f; stroke: #7f7f7f; stroke-width: 1.4"/>
      </g>
     </g>
     <g id="text_13">
      <!-- 250000 -->
      <g style="fill: #7f7f7f" transform="translate(47.19 161.746301)scale(0.12 -0.12)">
       <use xlink:href="#DejaVuSans-32"/>
       <use xlink:href="#DejaVuSans-35" x="63.623047"/>
       <use xlink:href="#DejaVuSans-30" x="127.246094"/>
       <use xlink:href="#DejaVuSans-30" x="190.869141"/>
       <use xlink:href="#DejaVuSans-30" x="254.492188"/>
       <use xlink:href="#DejaVuSans-30" x="318.115234"/>
      </g>
     </g>
    </g>
    <g id="ytick_6">
     <g id="line2d_45">
      <path d="M 99 79.80889 
L 653.4 79.80889 
" clip-path="url(#p8241e69989)" style="fill: none; stroke: #ffffff; stroke-width: 1.4; stroke-linecap: square"/>
     </g>
     <g id="line2d_46">
      <g>
       <use xlink:href="#m9cac2df43d" x="99" y="79.80889" style="fill: #7f7f7f; stroke: #7f7f7f; stroke-width: 1.4"/>
      </g>
     </g>
     <g id="text_14">
      <!-- 300000 -->
      <g style="fill: #7f7f7f" transform="translate(47.19 84.367953)scale(0.12 -0.12)">
       <defs>
        <path id="DejaVuSans-33" d="M 2597 2516 
Q 3050 2419 3304 2112 
Q 3559 1806 3559 1356 
Q 3559 666 3084 287 
Q 2609 -91 1734 -91 
Q 1441 -91 1130 -33 
Q 819 25 488 141 
L 488 750 
Q 750 597 1062 519 
Q 1375 441 1716 441 
Q 2309 441 2620 675 
Q 2931 909 2931 1356 
Q 2931 1769 2642 2001 
Q 2353 2234 1838 2234 
L 1294 2234 
L 1294 2753 
L 1863 2753 
Q 2328 2753 2575 2939 
Q 2822 3125 2822 3475 
Q 2822 3834 2567 4026 
Q 2313 4219 1838 4219 
Q 1578 4219 1281 4162 
Q 984 4106 628 3988 
L 628 4550 
Q 988 4650 1302 4700 
Q 1616 4750 1894 4750 
Q 2613 4750 3031 4423 
Q 3450 4097 3450 3541 
Q 3450 3153 3228 2886 
Q 3006 2619 2597 2516 
z
" transform="scale(0.015625)"/>
       </defs>
       <use xlink:href="#DejaVuSans-33"/>
       <use xlink:href="#DejaVuSans-30" x="63.623047"/>
       <use xlink:href="#DejaVuSans-30" x="127.246094"/>
       <use xlink:href="#DejaVuSans-30" x="190.869141"/>
       <use xlink:href="#DejaVuSans-30" x="254.492188"/>
       <use xlink:href="#DejaVuSans-30" x="318.115234"/>
      </g>
     </g>
    </g>
    <g id="ytick_7">
     <g id="line2d_47">
      <path d="M 99 505.389804 
L 653.4 505.389804 
" clip-path="url(#p8241e69989)" style="fill: none; stroke: #f2f2f2; stroke-width: 0.7; stroke-linecap: square"/>
     </g>
     <g id="line2d_48"/>
    </g>
    <g id="ytick_8">
     <g id="line2d_49">
      <path d="M 99 428.011456 
L 653.4 428.011456 
" clip-path="url(#p8241e69989)" style="fill: none; stroke: #f2f2f2; stroke-width: 0.7; stroke-linecap: square"/>
     </g>
     <g id="line2d_50"/>
    </g>
    <g id="ytick_9">
     <g id="line2d_51">
      <path d="M 99 350.633108 
L 653.4 350.633108 
" clip-path="url(#p8241e69989)" style="fill: none; stroke: #f2f2f2; stroke-width: 0.7; stroke-linecap: square"/>
     </g>
     <g id="line2d_52"/>
    </g>
    <g id="ytick_10">
     <g id="line2d_53">
      <path d="M 99 273.25476 
L 653.4 273.25476 
" clip-path="url(#p8241e69989)" style="fill: none; stroke: #f2f2f2; stroke-width: 0.7; stroke-linecap: square"/>
     </g>
     <g id="line2d_54"/>
    </g>
    <g id="ytick_11">
     <g id="line2d_55">
      <path d="M 99 195.876412 
L 653.4 195.876412 
" clip-path="url(#p8241e69989)" style="fill: none; stroke: #f2f2f2; stroke-width: 0.7; stroke-linecap: square"/>
     </g>
     <g id="line2d_56"/>
    </g>
    <g id="ytick_12">
     <g id="line2d_57">
      <path d="M 99 118.498064 
L 653.4 118.498064 
" clip-path="url(#p8241e69989)" style="fill: none; stroke: #f2f2f2; stroke-width: 0.7; stroke-linecap: square"/>
     </g>
     <g id="line2d_58"/>
    </g>
   </g>
   <g id="line2d_59">
    <path d="M 124.2 410.635374 
L 147.461538 434.978602 
L 150.046154 438.723714 
L 173.307692 455.616955 
L 175.892308 455.655644 
L 199.153846 463.489428 
L 201.738462 464.147144 
L 225 471.659034 
L 227.584615 472.011879 
L 250.846154 480.665874 
L 253.430769 480.727777 
L 276.692308 485.31167 
L 284.446154 486.261876 
L 302.538462 488.360377 
L 305.123077 487.97658 
L 341.307692 491.145997 
L 343.892308 490.725059 
L 367.153846 491.529794 
L 369.738462 490.762201 
L 393 490.783867 
L 395.584615 491.336348 
L 405.923077 491.497295 
L 408.507692 491.210995 
L 418.846154 491.440035 
L 426.6 491.932161 
L 434.353846 492.48 
L 444.692308 491.761929 
L 447.276923 492.091561 
L 457.615385 490.949456 
L 460.2 491.094928 
L 480.876923 484.237658 
L 483.461538 483.154362 
L 486.046154 482.454861 
L 496.384615 481.102288 
L 498.969231 480.647303 
L 511.892308 480.718491 
L 524.815385 479.675431 
L 537.738462 474.308469 
L 540.323077 472.869232 
L 548.076923 465.90518 
L 550.661538 466.160529 
L 561 461.654014 
L 563.584615 459.563251 
L 573.923077 457.003575 
L 576.507692 455.972895 
L 579.092308 455.747264 
L 584.261538 454.308257 
L 589.430769 453.070888 
L 597.184615 451.464502 
L 604.938462 450.069683 
L 615.276923 448.466273 
L 628.2 446.74059 
L 628.2 446.74059 
" clip-path="url(#p8241e69989)" style="fill: none; stroke: #f7746a; stroke-linecap: square"/>
   </g>
   <g id="line2d_60">
    <path d="M 124.2 100.865086 
L 147.461538 195.015965 
L 150.046154 215.313853 
L 173.307692 284.183678 
L 175.892308 286.710855 
L 199.153846 312.734741 
L 201.738462 315.249537 
L 225 326.457017 
L 227.584615 325.164798 
L 250.846154 350.387045 
L 253.430769 351.4332 
L 276.692308 369.254981 
L 279.276923 370.234591 
L 302.538462 383.029874 
L 305.123077 382.772978 
L 341.307692 398.264124 
L 343.892308 396.961072 
L 367.153846 405.516022 
L 369.738462 404.985207 
L 393 411.138333 
L 395.584615 412.436742 
L 408.507692 418.216904 
L 418.846154 422.051775 
L 421.430769 424.64395 
L 431.769231 428.382872 
L 434.353846 430.020198 
L 444.692308 429.695209 
L 447.276923 430.182692 
L 457.615385 427.520877 
L 460.2 427.999075 
L 483.461538 410.763822 
L 486.046154 408.563182 
L 496.384615 403.041463 
L 498.969231 402.718021 
L 509.307692 402.420888 
L 511.892308 403.377285 
L 522.230769 399.254566 
L 524.815385 398.598398 
L 537.738462 385.71026 
L 540.323077 384.250905 
L 548.076923 373.031044 
L 550.661538 372.376424 
L 561 366.805183 
L 563.584615 362.71032 
L 573.923077 361.506313 
L 576.507692 360.201714 
L 579.092308 376.224334 
L 584.261538 374.014738 
L 589.430769 372.050125 
L 594.6 370.320173 
L 599.769231 368.779321 
L 607.523077 366.746253 
L 615.276923 364.919434 
L 628.2 362.151236 
L 628.2 362.151236 
" clip-path="url(#p8241e69989)" style="fill: none; stroke: #cb9132; stroke-linecap: square"/>
   </g>
   <g id="line2d_61">
    <path d="M 124.2 89.28 
L 147.461538 158.446958 
L 150.046154 175.36496 
L 173.307692 230.916423 
L 178.476923 232.748742 
L 199.153846 240.495863 
L 201.738462 239.84898 
L 225 236.62385 
L 227.584615 232.957664 
L 250.846154 265.583471 
L 253.430769 266.854023 
L 276.692308 285.851955 
L 279.276923 287.606896 
L 302.538462 296.192797 
L 305.123077 296.946462 
L 341.307692 314.019221 
L 343.892308 313.226867 
L 367.153846 329.878687 
L 369.738462 327.6765 
L 393 334.782927 
L 395.584615 336.870595 
L 408.507692 348.088908 
L 418.846154 353.115405 
L 421.430769 355.164384 
L 431.769231 361.3237 
L 434.353846 363.852425 
L 444.692308 367.591347 
L 447.276923 369.536638 
L 457.615385 368.902136 
L 460.2 369.556757 
L 480.876923 357.820009 
L 483.461538 356.1084 
L 486.046154 354.084182 
L 496.384615 350.153362 
L 498.969231 351.934612 
L 509.307692 354.175489 
L 511.892308 355.439851 
L 522.230769 349.580762 
L 524.815385 348.884357 
L 537.738462 339.533958 
L 540.323077 338.984571 
L 548.076923 328.108271 
L 550.661538 327.674952 
L 561 322.753689 
L 563.584615 318.90489 
L 573.923077 317.852545 
L 576.507692 315.492505 
L 579.092308 292.391563 
L 581.676923 290.274652 
L 584.261538 288.306248 
L 586.846154 286.488391 
L 592.015385 283.277689 
L 597.184615 280.448206 
L 602.353846 277.945369 
L 607.523077 275.71217 
L 612.692308 273.663223 
L 620.446154 270.886394 
L 628.2 268.295199 
L 628.2 268.295199 
" clip-path="url(#p8241e69989)" style="fill: none; stroke: #a0a131; stroke-linecap: square"/>
   </g>
   <g id="line2d_62">
    <path d="M 124.2 230.820474 
L 147.461538 289.460881 
L 150.046154 298.405818 
L 173.307692 348.707935 
L 175.892308 351.383678 
L 199.153846 373.068186 
L 204.323077 376.6214 
L 225 391.115912 
L 227.584615 390.048091 
L 250.846154 408.900551 
L 253.430769 409.036737 
L 276.692308 422.212722 
L 279.276923 421.575125 
L 302.538462 428.966304 
L 305.123077 428.070263 
L 341.307692 435.306686 
L 343.892308 434.217199 
L 367.153846 439.178699 
L 369.738462 437.894218 
L 393 440.339374 
L 398.169231 441.271009 
L 405.923077 442.570966 
L 408.507692 443.123447 
L 418.846154 444.079843 
L 421.430769 444.896959 
L 431.769231 446.744754 
L 434.353846 448.643618 
L 444.692308 449.49478 
L 447.276923 450.508437 
L 457.615385 449.09396 
L 460.2 448.945394 
L 483.461538 435.597629 
L 486.046154 434.501952 
L 496.384615 430.911596 
L 501.553846 430.617558 
L 509.307692 430.010912 
L 511.892308 430.123885 
L 522.230769 427.638492 
L 524.815385 427.491473 
L 537.738462 420.768842 
L 540.323077 419.748996 
L 548.076923 409.386487 
L 550.661538 408.57711 
L 561 399.848832 
L 563.584615 396.411686 
L 573.923077 392.090879 
L 576.507692 390.510813 
L 579.092308 393.64715 
L 584.261538 391.745091 
L 589.430769 390.200128 
L 594.6 388.908036 
L 599.769231 387.7908 
L 607.523077 386.413519 
L 615.276923 385.306398 
L 625.615385 384.146109 
L 628.2 383.898793 
L 628.2 383.898793 
" clip-path="url(#p8241e69989)" style="fill: none; stroke: #53b031; stroke-linecap: square"/>
   </g>
   <g id="line2d_63">
    <path d="M 124.2 305.861996 
L 147.461538 365.529987 
L 150.046154 371.271461 
L 173.307692 400.71547 
L 175.892308 403.792033 
L 199.153846 419.419364 
L 204.323077 421.763928 
L 225 430.838861 
L 227.584615 430.914691 
L 250.846154 443.59236 
L 253.430769 443.668191 
L 276.692308 454.782816 
L 279.276923 455.222325 
L 302.538462 460.251918 
L 305.123077 459.536942 
L 341.307692 464.089884 
L 343.892308 464.317377 
L 367.153846 468.167723 
L 369.738462 466.531945 
L 393 466.572182 
L 395.584615 467.169542 
L 405.923077 468.828534 
L 413.676923 469.653387 
L 418.846154 470.176465 
L 421.430769 471.208692 
L 431.769231 473.127675 
L 434.353846 474.331682 
L 444.692308 474.597864 
L 447.276923 475.065229 
L 457.615385 473.876698 
L 460.2 474.037645 
L 478.292308 467.838091 
L 483.461538 465.79066 
L 488.630769 464.049647 
L 496.384615 461.533304 
L 498.969231 461.61842 
L 509.307692 462.469582 
L 511.892308 463.11956 
L 522.230769 462.19102 
L 524.815385 462.143045 
L 537.738462 454.773531 
L 540.323077 453.122277 
L 548.076923 439.738918 
L 550.661538 440.300685 
L 561 425.004533 
L 563.584615 419.408531 
L 573.923077 413.902288 
L 576.507692 413.004699 
L 579.092308 425.293888 
L 584.261538 422.173122 
L 589.430769 419.272497 
L 597.184615 415.187609 
L 607.523077 410.04774 
L 623.030769 402.649715 
L 628.2 400.20657 
L 628.2 400.20657 
" clip-path="url(#p8241e69989)" style="fill: none; stroke: #34af8b; stroke-linecap: square"/>
   </g>
   <g id="line2d_64">
    <path d="M 124.2 316.807937 
L 150.046154 370.633863 
L 173.307692 404.791761 
L 175.892308 404.731406 
L 199.153846 424.057422 
L 201.738462 426.618645 
L 225 431.765853 
L 227.584615 431.33563 
L 250.846154 442.366687 
L 253.430769 442.615845 
L 279.276923 450.935565 
L 302.538462 456.769892 
L 305.123077 456.127652 
L 341.307692 461.912457 
L 343.892308 462.689336 
L 367.153846 466.23636 
L 369.738462 464.676412 
L 393 462.946232 
L 395.584615 460.996298 
L 405.923077 461.336763 
L 408.507692 462.763619 
L 418.846154 462.416964 
L 421.430769 463.651923 
L 431.769231 463.738586 
L 434.353846 464.328209 
L 444.692308 463.42443 
L 447.276923 464.043457 
L 460.2 463.87013 
L 480.876923 455.338393 
L 488.630769 453.224417 
L 496.384615 451.376622 
L 498.969231 451.480309 
L 509.307692 452.507893 
L 511.892308 453.555596 
L 522.230769 452.289686 
L 524.815385 452.591462 
L 537.738462 446.494048 
L 540.323077 445.556222 
L 548.076923 435.206094 
L 550.661538 434.406002 
L 561 428.234305 
L 563.584615 425.40071 
L 573.923077 424.391697 
L 576.507692 423.42911 
L 579.092308 412.265398 
L 584.261538 408.618735 
L 589.430769 405.20755 
L 597.184615 400.370876 
L 607.523077 394.235797 
L 625.615385 383.843224 
L 628.2 382.36456 
L 628.2 382.36456 
" clip-path="url(#p8241e69989)" style="fill: none; stroke: #36acae; stroke-linecap: square"/>
   </g>
   <g id="line2d_65">
    <path d="M 124.2 264.145781 
L 147.461538 335.708372 
L 150.046154 345.19341 
L 173.307692 352.795059 
L 175.892308 350.872981 
L 199.153846 363.123521 
L 201.738462 365.345827 
L 225 371.127537 
L 227.584615 371.404552 
L 250.846154 391.157696 
L 253.430769 392.397297 
L 276.692308 412.203059 
L 279.276923 413.954905 
L 302.538462 423.008172 
L 305.123077 421.751547 
L 341.307692 434.067085 
L 343.892308 433.601268 
L 367.153846 440.973877 
L 369.738462 439.700229 
L 393 445.488129 
L 395.584615 447.549489 
L 408.507692 450.431058 
L 418.846154 454.358783 
L 421.430769 456.099796 
L 431.769231 459.90062 
L 434.353846 461.189744 
L 444.692308 463.681326 
L 447.276923 464.746053 
L 460.2 466.275049 
L 478.292308 459.731936 
L 480.876923 459.566346 
L 483.461538 458.814228 
L 486.046154 458.229248 
L 496.384615 456.817867 
L 498.969231 457.34404 
L 509.307692 458.223058 
L 511.892308 459.340401 
L 524.815385 457.692242 
L 537.738462 454.194741 
L 540.323077 454.010581 
L 548.076923 452.088502 
L 550.661538 449.841435 
L 561 444.449712 
L 563.584615 442.878931 
L 573.923077 443.052259 
L 576.507692 442.659177 
L 579.092308 436.782994 
L 584.261538 435.193235 
L 589.430769 433.807657 
L 597.184615 431.986918 
L 607.523077 429.824148 
L 628.2 425.849934 
L 628.2 425.849934 
" clip-path="url(#p8241e69989)" style="fill: none; stroke: #39a7d4; stroke-linecap: square"/>
   </g>
   <g id="line2d_66">
    <path d="M 124.2 240.466459 
L 147.461538 283.730241 
L 150.046154 290.223832 
L 173.307692 332.395031 
L 175.892308 336.315018 
L 199.153846 352.220911 
L 201.738462 353.248496 
L 225 370.191259 
L 227.584615 369.562947 
L 250.846154 391.717915 
L 253.430769 392.028976 
L 276.692308 408.786031 
L 279.276923 409.151257 
L 302.538462 416.579579 
L 305.123077 414.13597 
L 341.307692 421.013358 
L 343.892308 422.499022 
L 367.153846 425.423924 
L 369.738462 423.966116 
L 393 424.148729 
L 395.584615 426.296751 
L 405.923077 428.584055 
L 408.507692 427.917054 
L 418.846154 428.028479 
L 421.430769 429.511048 
L 431.769231 432.343096 
L 434.353846 433.522342 
L 444.692308 431.782876 
L 447.276923 430.982784 
L 457.615385 426.203897 
L 462.784615 422.581043 
L 478.292308 411.494274 
L 480.876923 409.010429 
L 483.461538 407.840468 
L 493.8 404.276421 
L 496.384615 403.375737 
L 498.969231 403.016702 
L 509.307692 402.143874 
L 511.892308 402.284703 
L 524.815385 397.555338 
L 537.738462 388.539213 
L 540.323077 386.929743 
L 548.076923 379.832601 
L 550.661538 377.002101 
L 561 370.734455 
L 563.584615 367.973596 
L 576.507692 364.288839 
L 579.092308 354.061184 
L 584.261538 351.20707 
L 589.430769 348.792745 
L 594.6 346.68874 
L 599.769231 344.797779 
L 604.938462 343.105491 
L 612.692308 340.867744 
L 620.446154 338.907794 
L 628.2 337.146552 
L 628.2 337.146552 
" clip-path="url(#p8241e69989)" style="fill: none; stroke: #9392f4; stroke-linecap: square"/>
   </g>
   <g id="line2d_67">
    <path d="M 124.2 325.407766 
L 147.461538 368.878922 
L 150.046154 371.669185 
L 173.307692 401.339139 
L 175.892308 403.43764 
L 199.153846 420.244217 
L 201.738462 422.700206 
L 227.584615 432.966765 
L 250.846154 444.496139 
L 253.430769 443.31844 
L 276.692308 447.311163 
L 279.276923 448.703973 
L 302.538462 453.365245 
L 305.123077 451.246626 
L 341.307692 455.319822 
L 343.892308 456.149318 
L 367.153846 458.934939 
L 369.738462 459.41778 
L 393 458.795658 
L 395.584615 459.041721 
L 405.923077 459.450278 
L 408.507692 459.793838 
L 418.846154 459.066482 
L 421.430769 460.321559 
L 431.769231 461.169625 
L 434.353846 462.273041 
L 444.692308 461.975908 
L 447.276923 462.212685 
L 457.615385 461.652466 
L 460.2 461.175816 
L 478.292308 452.233974 
L 480.876923 451.40293 
L 486.046154 448.868016 
L 496.384615 445.909068 
L 498.969231 445.995731 
L 509.307692 447.12855 
L 511.892308 448.315534 
L 522.230769 446.235604 
L 524.815385 446.096323 
L 537.738462 435.309781 
L 540.323077 432.873911 
L 548.076923 423.774217 
L 550.661538 421.28573 
L 561 413.947167 
L 563.584615 410.734418 
L 576.507692 406.701459 
L 579.092308 399.983833 
L 584.261538 395.84932 
L 589.430769 391.96512 
L 597.184615 386.432827 
L 607.523077 379.378151 
L 628.2 365.634121 
L 628.2 365.634121 
" clip-path="url(#p8241e69989)" style="fill: none; stroke: #e668f4; stroke-linecap: square"/>
   </g>
   <g id="line2d_68">
    <path d="M 124.2 231.419382 
L 150.046154 265.27241 
L 173.307692 316.444259 
L 175.892308 321.300524 
L 199.153846 339.082068 
L 201.738462 338.76946 
L 225 354.204892 
L 227.584615 352.40662 
L 250.846154 369.352478 
L 253.430769 371.095038 
L 276.692308 383.61795 
L 279.276923 382.971067 
L 302.538462 387.54877 
L 305.123077 385.804662 
L 341.307692 395.705995 
L 343.892308 395.74778 
L 367.153846 400.232629 
L 369.738462 398.22853 
L 393 399.410871 
L 395.584615 401.927215 
L 405.923077 404.793309 
L 408.507692 404.748429 
L 418.846154 407.320485 
L 421.430769 409.039832 
L 431.769231 413.670153 
L 434.353846 415.154269 
L 444.692308 415.188316 
L 447.276923 414.954633 
L 457.615385 411.450942 
L 460.2 410.445023 
L 478.292308 397.272133 
L 480.876923 394.861024 
L 486.046154 390.744496 
L 496.384615 385.730379 
L 498.969231 385.372891 
L 509.307692 385.731926 
L 511.892308 386.120366 
L 522.230769 382.86738 
L 524.815385 382.557867 
L 537.738462 365.828668 
L 540.323077 363.638861 
L 550.661538 340.188578 
L 561 325.731208 
L 563.584615 319.186547 
L 573.923077 314.698603 
L 576.507692 312.374157 
L 579.092308 315.47347 
L 584.261538 311.815808 
L 586.846154 310.182396 
L 592.015385 307.263697 
L 597.184615 304.629028 
L 602.353846 302.236997 
L 607.523077 300.067687 
L 615.276923 297.122307 
L 623.030769 294.482228 
L 628.2 292.841901 
L 628.2 292.841901 
" clip-path="url(#p8241e69989)" style="fill: none; stroke: #f669b8; stroke-linecap: square"/>
   </g>
   <g id="patch_3">
    <path d="M 99 512.64 
L 99 69.12 
" style="fill: none; opacity: 0"/>
   </g>
   <g id="patch_4">
    <path d="M 653.4 512.64 
L 653.4 69.12 
" style="fill: none; opacity: 0"/>
   </g>
   <g id="patch_5">
    <path d="M 99 512.64 
L 653.4 512.64 
" style="fill: none; opacity: 0"/>
   </g>
   <g id="patch_6">
    <path d="M 99 69.12 
L 653.4 69.12 
" style="fill: none; opacity: 0"/>
   </g>
   <g id="legend_1">
    <g id="patch_7">
     <path d="M 690.1164 220.277002 
L 710.1084 220.277002 
L 710.1084 213.279802 
L 690.1164 213.279802 
L 690.1164 220.277002 
z
" style="fill: none"/>
    </g>
    <g id="text_15">
     <!-- County -->
     <g transform="translate(718.1052 220.277002)scale(0.09996 -0.09996)">
      <defs>
       <path id="DejaVuSans-43" d="M 4122 4306 
L 4122 3641 
Q 3803 3938 3442 4084 
Q 3081 4231 2675 4231 
Q 1875 4231 1450 3742 
Q 1025 3253 1025 2328 
Q 1025 1406 1450 917 
Q 1875 428 2675 428 
Q 3081 428 3442 575 
Q 3803 722 4122 1019 
L 4122 359 
Q 3791 134 3420 21 
Q 3050 -91 2638 -91 
Q 1578 -91 968 557 
Q 359 1206 359 2328 
Q 359 3453 968 4101 
Q 1578 4750 2638 4750 
Q 3056 4750 3426 4639 
Q 3797 4528 4122 4306 
z
" transform="scale(0.015625)"/>
       <path id="DejaVuSans-6f" d="M 1959 3097 
Q 1497 3097 1228 2736 
Q 959 2375 959 1747 
Q 959 1119 1226 758 
Q 1494 397 1959 397 
Q 2419 397 2687 759 
Q 2956 1122 2956 1747 
Q 2956 2369 2687 2733 
Q 2419 3097 1959 3097 
z
M 1959 3584 
Q 2709 3584 3137 3096 
Q 3566 2609 3566 1747 
Q 3566 888 3137 398 
Q 2709 -91 1959 -91 
Q 1206 -91 779 398 
Q 353 888 353 1747 
Q 353 2609 779 3096 
Q 1206 3584 1959 3584 
z
" transform="scale(0.015625)"/>
       <path id="DejaVuSans-75" d="M 544 1381 
L 544 3500 
L 1119 3500 
L 1119 1403 
Q 1119 906 1312 657 
Q 1506 409 1894 409 
Q 2359 409 2629 706 
Q 2900 1003 2900 1516 
L 2900 3500 
L 3475 3500 
L 3475 0 
L 2900 0 
L 2900 538 
Q 2691 219 2414 64 
Q 2138 -91 1772 -91 
Q 1169 -91 856 284 
Q 544 659 544 1381 
z
M 1991 3584 
L 1991 3584 
z
" transform="scale(0.015625)"/>
       <path id="DejaVuSans-6e" d="M 3513 2113 
L 3513 0 
L 2938 0 
L 2938 2094 
Q 2938 2591 2744 2837 
Q 2550 3084 2163 3084 
Q 1697 3084 1428 2787 
Q 1159 2491 1159 1978 
L 1159 0 
L 581 0 
L 581 3500 
L 1159 3500 
L 1159 2956 
Q 1366 3272 1645 3428 
Q 1925 3584 2291 3584 
Q 2894 3584 3203 3211 
Q 3513 2838 3513 2113 
z
" transform="scale(0.015625)"/>
       <path id="DejaVuSans-74" d="M 1172 4494 
L 1172 3500 
L 2356 3500 
L 2356 3053 
L 1172 3053 
L 1172 1153 
Q 1172 725 1289 603 
Q 1406 481 1766 481 
L 2356 481 
L 2356 0 
L 1766 0 
Q 1100 0 847 248 
Q 594 497 594 1153 
L 594 3053 
L 172 3053 
L 172 3500 
L 594 3500 
L 594 4494 
L 1172 4494 
z
" transform="scale(0.015625)"/>
       <path id="DejaVuSans-79" d="M 2059 -325 
Q 1816 -950 1584 -1140 
Q 1353 -1331 966 -1331 
L 506 -1331 
L 506 -850 
L 844 -850 
Q 1081 -850 1212 -737 
Q 1344 -625 1503 -206 
L 1606 56 
L 191 3500 
L 800 3500 
L 1894 763 
L 2988 3500 
L 3597 3500 
L 2059 -325 
z
" transform="scale(0.015625)"/>
      </defs>
      <use xlink:href="#DejaVuSans-43"/>
      <use xlink:href="#DejaVuSans-6f" x="69.824219"/>
      <use xlink:href="#DejaVuSans-75" x="131.005859"/>
      <use xlink:href="#DejaVuSans-6e" x="194.384766"/>
      <use xlink:href="#DejaVuSans-74" x="257.763672"/>
      <use xlink:href="#DejaVuSans-79" x="296.972656"/>
     </g>
    </g>
    <g id="line2d_69">
     <path d="M 690.1164 231.450656 
L 700.1124 231.450656 
L 710.1084 231.450656 
" style="fill: none; stroke: #f7746a; stroke-width: 5; stroke-linecap: square"/>
    </g>
    <g id="text_16">
     <!-- Carlow -->
     <g transform="translate(718.1052 234.949256)scale(0.09996 -0.09996)">
      <defs>
       <path id="DejaVuSans-61" d="M 2194 1759 
Q 1497 1759 1228 1600 
Q 959 1441 959 1056 
Q 959 750 1161 570 
Q 1363 391 1709 391 
Q 2188 391 2477 730 
Q 2766 1069 2766 1631 
L 2766 1759 
L 2194 1759 
z
M 3341 1997 
L 3341 0 
L 2766 0 
L 2766 531 
Q 2569 213 2275 61 
Q 1981 -91 1556 -91 
Q 1019 -91 701 211 
Q 384 513 384 1019 
Q 384 1609 779 1909 
Q 1175 2209 1959 2209 
L 2766 2209 
L 2766 2266 
Q 2766 2663 2505 2880 
Q 2244 3097 1772 3097 
Q 1472 3097 1187 3025 
Q 903 2953 641 2809 
L 641 3341 
Q 956 3463 1253 3523 
Q 1550 3584 1831 3584 
Q 2591 3584 2966 3190 
Q 3341 2797 3341 1997 
z
" transform="scale(0.015625)"/>
       <path id="DejaVuSans-72" d="M 2631 2963 
Q 2534 3019 2420 3045 
Q 2306 3072 2169 3072 
Q 1681 3072 1420 2755 
Q 1159 2438 1159 1844 
L 1159 0 
L 581 0 
L 581 3500 
L 1159 3500 
L 1159 2956 
Q 1341 3275 1631 3429 
Q 1922 3584 2338 3584 
Q 2397 3584 2469 3576 
Q 2541 3569 2628 3553 
L 2631 2963 
z
" transform="scale(0.015625)"/>
       <path id="DejaVuSans-6c" d="M 603 4863 
L 1178 4863 
L 1178 0 
L 603 0 
L 603 4863 
z
" transform="scale(0.015625)"/>
       <path id="DejaVuSans-77" d="M 269 3500 
L 844 3500 
L 1563 769 
L 2278 3500 
L 2956 3500 
L 3675 769 
L 4391 3500 
L 4966 3500 
L 4050 0 
L 3372 0 
L 2619 2869 
L 1863 0 
L 1184 0 
L 269 3500 
z
" transform="scale(0.015625)"/>
      </defs>
      <use xlink:href="#DejaVuSans-43"/>
      <use xlink:href="#DejaVuSans-61" x="69.824219"/>
      <use xlink:href="#DejaVuSans-72" x="131.103516"/>
      <use xlink:href="#DejaVuSans-6c" x="172.216797"/>
      <use xlink:href="#DejaVuSans-6f" x="200"/>
      <use xlink:href="#DejaVuSans-77" x="261.181641"/>
     </g>
    </g>
    <g id="line2d_70">
     <path d="M 690.1164 246.12291 
L 700.1124 246.12291 
L 710.1084 246.12291 
" style="fill: none; stroke: #cb9132; stroke-width: 5; stroke-linecap: square"/>
    </g>
    <g id="text_17">
     <!-- Clare -->
     <g transform="translate(718.1052 249.62151)scale(0.09996 -0.09996)">
      <defs>
       <path id="DejaVuSans-65" d="M 3597 1894 
L 3597 1613 
L 953 1613 
Q 991 1019 1311 708 
Q 1631 397 2203 397 
Q 2534 397 2845 478 
Q 3156 559 3463 722 
L 3463 178 
Q 3153 47 2828 -22 
Q 2503 -91 2169 -91 
Q 1331 -91 842 396 
Q 353 884 353 1716 
Q 353 2575 817 3079 
Q 1281 3584 2069 3584 
Q 2775 3584 3186 3129 
Q 3597 2675 3597 1894 
z
M 3022 2063 
Q 3016 2534 2758 2815 
Q 2500 3097 2075 3097 
Q 1594 3097 1305 2825 
Q 1016 2553 972 2059 
L 3022 2063 
z
" transform="scale(0.015625)"/>
      </defs>
      <use xlink:href="#DejaVuSans-43"/>
      <use xlink:href="#DejaVuSans-6c" x="69.824219"/>
      <use xlink:href="#DejaVuSans-61" x="97.607422"/>
      <use xlink:href="#DejaVuSans-72" x="158.886719"/>
      <use xlink:href="#DejaVuSans-65" x="197.75"/>
     </g>
    </g>
    <g id="line2d_71">
     <path d="M 690.1164 260.795164 
L 700.1124 260.795164 
L 710.1084 260.795164 
" style="fill: none; stroke: #a0a131; stroke-width: 5; stroke-linecap: square"/>
    </g>
    <g id="text_18">
     <!-- Kerry -->
     <g transform="translate(718.1052 264.293764)scale(0.09996 -0.09996)">
      <defs>
       <path id="DejaVuSans-4b" d="M 628 4666 
L 1259 4666 
L 1259 2694 
L 3353 4666 
L 4166 4666 
L 1850 2491 
L 4331 0 
L 3500 0 
L 1259 2247 
L 1259 0 
L 628 0 
L 628 4666 
z
" transform="scale(0.015625)"/>
      </defs>
      <use xlink:href="#DejaVuSans-4b"/>
      <use xlink:href="#DejaVuSans-65" x="60.576172"/>
      <use xlink:href="#DejaVuSans-72" x="122.099609"/>
      <use xlink:href="#DejaVuSans-72" x="161.462891"/>
      <use xlink:href="#DejaVuSans-79" x="202.576172"/>
     </g>
    </g>
    <g id="line2d_72">
     <path d="M 690.1164 275.467417 
L 700.1124 275.467417 
L 710.1084 275.467417 
" style="fill: none; stroke: #53b031; stroke-width: 5; stroke-linecap: square"/>
    </g>
    <g id="text_19">
     <!-- Kilkenny -->
     <g transform="translate(718.1052 278.966017)scale(0.09996 -0.09996)">
      <defs>
       <path id="DejaVuSans-69" d="M 603 3500 
L 1178 3500 
L 1178 0 
L 603 0 
L 603 3500 
z
M 603 4863 
L 1178 4863 
L 1178 4134 
L 603 4134 
L 603 4863 
z
" transform="scale(0.015625)"/>
       <path id="DejaVuSans-6b" d="M 581 4863 
L 1159 4863 
L 1159 1991 
L 2875 3500 
L 3609 3500 
L 1753 1863 
L 3688 0 
L 2938 0 
L 1159 1709 
L 1159 0 
L 581 0 
L 581 4863 
z
" transform="scale(0.015625)"/>
      </defs>
      <use xlink:href="#DejaVuSans-4b"/>
      <use xlink:href="#DejaVuSans-69" x="65.576172"/>
      <use xlink:href="#DejaVuSans-6c" x="93.359375"/>
      <use xlink:href="#DejaVuSans-6b" x="121.142578"/>
      <use xlink:href="#DejaVuSans-65" x="175.427734"/>
      <use xlink:href="#DejaVuSans-6e" x="236.951172"/>
      <use xlink:href="#DejaVuSans-6e" x="300.330078"/>
      <use xlink:href="#DejaVuSans-79" x="363.708984"/>
     </g>
    </g>
    <g id="line2d_73">
     <path d="M 690.1164 290.139671 
L 700.1124 290.139671 
L 710.1084 290.139671 
" style="fill: none; stroke: #34af8b; stroke-width: 5; stroke-linecap: square"/>
    </g>
    <g id="text_20">
     <!-- Laois -->
     <g transform="translate(718.1052 293.638271)scale(0.09996 -0.09996)">
      <defs>
       <path id="DejaVuSans-4c" d="M 628 4666 
L 1259 4666 
L 1259 531 
L 3531 531 
L 3531 0 
L 628 0 
L 628 4666 
z
" transform="scale(0.015625)"/>
       <path id="DejaVuSans-73" d="M 2834 3397 
L 2834 2853 
Q 2591 2978 2328 3040 
Q 2066 3103 1784 3103 
Q 1356 3103 1142 2972 
Q 928 2841 928 2578 
Q 928 2378 1081 2264 
Q 1234 2150 1697 2047 
L 1894 2003 
Q 2506 1872 2764 1633 
Q 3022 1394 3022 966 
Q 3022 478 2636 193 
Q 2250 -91 1575 -91 
Q 1294 -91 989 -36 
Q 684 19 347 128 
L 347 722 
Q 666 556 975 473 
Q 1284 391 1588 391 
Q 1994 391 2212 530 
Q 2431 669 2431 922 
Q 2431 1156 2273 1281 
Q 2116 1406 1581 1522 
L 1381 1569 
Q 847 1681 609 1914 
Q 372 2147 372 2553 
Q 372 3047 722 3315 
Q 1072 3584 1716 3584 
Q 2034 3584 2315 3537 
Q 2597 3491 2834 3397 
z
" transform="scale(0.015625)"/>
      </defs>
      <use xlink:href="#DejaVuSans-4c"/>
      <use xlink:href="#DejaVuSans-61" x="55.712891"/>
      <use xlink:href="#DejaVuSans-6f" x="116.992188"/>
      <use xlink:href="#DejaVuSans-69" x="178.173828"/>
      <use xlink:href="#DejaVuSans-73" x="205.957031"/>
     </g>
    </g>
    <g id="line2d_74">
     <path d="M 690.1164 304.811925 
L 700.1124 304.811925 
L 710.1084 304.811925 
" style="fill: none; stroke: #36acae; stroke-width: 5; stroke-linecap: square"/>
    </g>
    <g id="text_21">
     <!-- Offaly -->
     <g transform="translate(718.1052 308.310525)scale(0.09996 -0.09996)">
      <defs>
       <path id="DejaVuSans-4f" d="M 2522 4238 
Q 1834 4238 1429 3725 
Q 1025 3213 1025 2328 
Q 1025 1447 1429 934 
Q 1834 422 2522 422 
Q 3209 422 3611 934 
Q 4013 1447 4013 2328 
Q 4013 3213 3611 3725 
Q 3209 4238 2522 4238 
z
M 2522 4750 
Q 3503 4750 4090 4092 
Q 4678 3434 4678 2328 
Q 4678 1225 4090 567 
Q 3503 -91 2522 -91 
Q 1538 -91 948 565 
Q 359 1222 359 2328 
Q 359 3434 948 4092 
Q 1538 4750 2522 4750 
z
" transform="scale(0.015625)"/>
       <path id="DejaVuSans-66" d="M 2375 4863 
L 2375 4384 
L 1825 4384 
Q 1516 4384 1395 4259 
Q 1275 4134 1275 3809 
L 1275 3500 
L 2222 3500 
L 2222 3053 
L 1275 3053 
L 1275 0 
L 697 0 
L 697 3053 
L 147 3053 
L 147 3500 
L 697 3500 
L 697 3744 
Q 697 4328 969 4595 
Q 1241 4863 1831 4863 
L 2375 4863 
z
" transform="scale(0.015625)"/>
      </defs>
      <use xlink:href="#DejaVuSans-4f"/>
      <use xlink:href="#DejaVuSans-66" x="78.710938"/>
      <use xlink:href="#DejaVuSans-66" x="113.916016"/>
      <use xlink:href="#DejaVuSans-61" x="149.121094"/>
      <use xlink:href="#DejaVuSans-6c" x="210.400391"/>
      <use xlink:href="#DejaVuSans-79" x="238.183594"/>
     </g>
    </g>
    <g id="line2d_75">
     <path d="M 690.1164 319.484179 
L 700.1124 319.484179 
L 710.1084 319.484179 
" style="fill: none; stroke: #39a7d4; stroke-width: 5; stroke-linecap: square"/>
    </g>
    <g id="text_22">
     <!-- Sligo -->
     <g transform="translate(718.1052 322.982779)scale(0.09996 -0.09996)">
      <defs>
       <path id="DejaVuSans-53" d="M 3425 4513 
L 3425 3897 
Q 3066 4069 2747 4153 
Q 2428 4238 2131 4238 
Q 1616 4238 1336 4038 
Q 1056 3838 1056 3469 
Q 1056 3159 1242 3001 
Q 1428 2844 1947 2747 
L 2328 2669 
Q 3034 2534 3370 2195 
Q 3706 1856 3706 1288 
Q 3706 609 3251 259 
Q 2797 -91 1919 -91 
Q 1588 -91 1214 -16 
Q 841 59 441 206 
L 441 856 
Q 825 641 1194 531 
Q 1563 422 1919 422 
Q 2459 422 2753 634 
Q 3047 847 3047 1241 
Q 3047 1584 2836 1778 
Q 2625 1972 2144 2069 
L 1759 2144 
Q 1053 2284 737 2584 
Q 422 2884 422 3419 
Q 422 4038 858 4394 
Q 1294 4750 2059 4750 
Q 2388 4750 2728 4690 
Q 3069 4631 3425 4513 
z
" transform="scale(0.015625)"/>
       <path id="DejaVuSans-67" d="M 2906 1791 
Q 2906 2416 2648 2759 
Q 2391 3103 1925 3103 
Q 1463 3103 1205 2759 
Q 947 2416 947 1791 
Q 947 1169 1205 825 
Q 1463 481 1925 481 
Q 2391 481 2648 825 
Q 2906 1169 2906 1791 
z
M 3481 434 
Q 3481 -459 3084 -895 
Q 2688 -1331 1869 -1331 
Q 1566 -1331 1297 -1286 
Q 1028 -1241 775 -1147 
L 775 -588 
Q 1028 -725 1275 -790 
Q 1522 -856 1778 -856 
Q 2344 -856 2625 -561 
Q 2906 -266 2906 331 
L 2906 616 
Q 2728 306 2450 153 
Q 2172 0 1784 0 
Q 1141 0 747 490 
Q 353 981 353 1791 
Q 353 2603 747 3093 
Q 1141 3584 1784 3584 
Q 2172 3584 2450 3431 
Q 2728 3278 2906 2969 
L 2906 3500 
L 3481 3500 
L 3481 434 
z
" transform="scale(0.015625)"/>
      </defs>
      <use xlink:href="#DejaVuSans-53"/>
      <use xlink:href="#DejaVuSans-6c" x="63.476562"/>
      <use xlink:href="#DejaVuSans-69" x="91.259766"/>
      <use xlink:href="#DejaVuSans-67" x="119.042969"/>
      <use xlink:href="#DejaVuSans-6f" x="182.519531"/>
     </g>
    </g>
    <g id="line2d_76">
     <path d="M 690.1164 334.156432 
L 700.1124 334.156432 
L 710.1084 334.156432 
" style="fill: none; stroke: #9392f4; stroke-width: 5; stroke-linecap: square"/>
    </g>
    <g id="text_23">
     <!-- Waterford -->
     <g transform="translate(718.1052 337.655032)scale(0.09996 -0.09996)">
      <defs>
       <path id="DejaVuSans-57" d="M 213 4666 
L 850 4666 
L 1831 722 
L 2809 4666 
L 3519 4666 
L 4500 722 
L 5478 4666 
L 6119 4666 
L 4947 0 
L 4153 0 
L 3169 4050 
L 2175 0 
L 1381 0 
L 213 4666 
z
" transform="scale(0.015625)"/>
       <path id="DejaVuSans-64" d="M 2906 2969 
L 2906 4863 
L 3481 4863 
L 3481 0 
L 2906 0 
L 2906 525 
Q 2725 213 2448 61 
Q 2172 -91 1784 -91 
Q 1150 -91 751 415 
Q 353 922 353 1747 
Q 353 2572 751 3078 
Q 1150 3584 1784 3584 
Q 2172 3584 2448 3432 
Q 2725 3281 2906 2969 
z
M 947 1747 
Q 947 1113 1208 752 
Q 1469 391 1925 391 
Q 2381 391 2643 752 
Q 2906 1113 2906 1747 
Q 2906 2381 2643 2742 
Q 2381 3103 1925 3103 
Q 1469 3103 1208 2742 
Q 947 2381 947 1747 
z
" transform="scale(0.015625)"/>
      </defs>
      <use xlink:href="#DejaVuSans-57"/>
      <use xlink:href="#DejaVuSans-61" x="92.501953"/>
      <use xlink:href="#DejaVuSans-74" x="153.78125"/>
      <use xlink:href="#DejaVuSans-65" x="192.990234"/>
      <use xlink:href="#DejaVuSans-72" x="254.513672"/>
      <use xlink:href="#DejaVuSans-66" x="295.626953"/>
      <use xlink:href="#DejaVuSans-6f" x="330.832031"/>
      <use xlink:href="#DejaVuSans-72" x="392.013672"/>
      <use xlink:href="#DejaVuSans-64" x="431.376953"/>
     </g>
    </g>
    <g id="line2d_77">
     <path d="M 690.1164 348.828686 
L 700.1124 348.828686 
L 710.1084 348.828686 
" style="fill: none; stroke: #e668f4; stroke-width: 5; stroke-linecap: square"/>
    </g>
    <g id="text_24">
     <!-- Westmeath -->
     <g transform="translate(718.1052 352.327286)scale(0.09996 -0.09996)">
      <defs>
       <path id="DejaVuSans-6d" d="M 3328 2828 
Q 3544 3216 3844 3400 
Q 4144 3584 4550 3584 
Q 5097 3584 5394 3201 
Q 5691 2819 5691 2113 
L 5691 0 
L 5113 0 
L 5113 2094 
Q 5113 2597 4934 2840 
Q 4756 3084 4391 3084 
Q 3944 3084 3684 2787 
Q 3425 2491 3425 1978 
L 3425 0 
L 2847 0 
L 2847 2094 
Q 2847 2600 2669 2842 
Q 2491 3084 2119 3084 
Q 1678 3084 1418 2786 
Q 1159 2488 1159 1978 
L 1159 0 
L 581 0 
L 581 3500 
L 1159 3500 
L 1159 2956 
Q 1356 3278 1631 3431 
Q 1906 3584 2284 3584 
Q 2666 3584 2933 3390 
Q 3200 3197 3328 2828 
z
" transform="scale(0.015625)"/>
       <path id="DejaVuSans-68" d="M 3513 2113 
L 3513 0 
L 2938 0 
L 2938 2094 
Q 2938 2591 2744 2837 
Q 2550 3084 2163 3084 
Q 1697 3084 1428 2787 
Q 1159 2491 1159 1978 
L 1159 0 
L 581 0 
L 581 4863 
L 1159 4863 
L 1159 2956 
Q 1366 3272 1645 3428 
Q 1925 3584 2291 3584 
Q 2894 3584 3203 3211 
Q 3513 2838 3513 2113 
z
" transform="scale(0.015625)"/>
      </defs>
      <use xlink:href="#DejaVuSans-57"/>
      <use xlink:href="#DejaVuSans-65" x="93.001953"/>
      <use xlink:href="#DejaVuSans-73" x="154.525391"/>
      <use xlink:href="#DejaVuSans-74" x="206.625"/>
      <use xlink:href="#DejaVuSans-6d" x="245.833984"/>
      <use xlink:href="#DejaVuSans-65" x="343.246094"/>
      <use xlink:href="#DejaVuSans-61" x="404.769531"/>
      <use xlink:href="#DejaVuSans-74" x="466.048828"/>
      <use xlink:href="#DejaVuSans-68" x="505.257812"/>
     </g>
    </g>
    <g id="line2d_78">
     <path d="M 690.1164 363.50094 
L 700.1124 363.50094 
L 710.1084 363.50094 
" style="fill: none; stroke: #f669b8; stroke-width: 5; stroke-linecap: square"/>
    </g>
    <g id="text_25">
     <!-- Wexford -->
     <g transform="translate(718.1052 366.99954)scale(0.09996 -0.09996)">
      <defs>
       <path id="DejaVuSans-78" d="M 3513 3500 
L 2247 1797 
L 3578 0 
L 2900 0 
L 1881 1375 
L 863 0 
L 184 0 
L 1544 1831 
L 300 3500 
L 978 3500 
L 1906 2253 
L 2834 3500 
L 3513 3500 
z
" transform="scale(0.015625)"/>
      </defs>
      <use xlink:href="#DejaVuSans-57"/>
      <use xlink:href="#DejaVuSans-65" x="93.001953"/>
      <use xlink:href="#DejaVuSans-78" x="152.775391"/>
      <use xlink:href="#DejaVuSans-66" x="211.955078"/>
      <use xlink:href="#DejaVuSans-6f" x="247.160156"/>
      <use xlink:href="#DejaVuSans-72" x="308.341797"/>
      <use xlink:href="#DejaVuSans-64" x="347.705078"/>
     </g>
    </g>
   </g>
  </g>
  <g id="text_26">
   <!-- Year -->
   <g transform="translate(383.295 547.2)scale(0.12 -0.12)">
    <defs>
     <path id="DejaVuSans-59" d="M -13 4666 
L 666 4666 
L 1959 2747 
L 3244 4666 
L 3922 4666 
L 2272 2222 
L 2272 0 
L 1638 0 
L 1638 2222 
L -13 4666 
z
" transform="scale(0.015625)"/>
    </defs>
    <use xlink:href="#DejaVuSans-59"/>
    <use xlink:href="#DejaVuSans-65" x="47.833984"/>
    <use xlink:href="#DejaVuSans-61" x="109.357422"/>
    <use xlink:href="#DejaVuSans-72" x="170.636719"/>
   </g>
  </g>
  <g id="text_27">
   <!-- Total Population -->
   <g transform="translate(42.91125 290.495625)rotate(-90)scale(0.12 -0.12)">
    <defs>
     <path id="DejaVuSans-54" d="M -19 4666 
L 3928 4666 
L 3928 4134 
L 2272 4134 
L 2272 0 
L 1638 0 
L 1638 4134 
L -19 4134 
L -19 4666 
z
" transform="scale(0.015625)"/>
     <path id="DejaVuSans-20" transform="scale(0.015625)"/>
     <path id="DejaVuSans-50" d="M 1259 4147 
L 1259 2394 
L 2053 2394 
Q 2494 2394 2734 2622 
Q 2975 2850 2975 3272 
Q 2975 3691 2734 3919 
Q 2494 4147 2053 4147 
L 1259 4147 
z
M 628 4666 
L 2053 4666 
Q 2838 4666 3239 4311 
Q 3641 3956 3641 3272 
Q 3641 2581 3239 2228 
Q 2838 1875 2053 1875 
L 1259 1875 
L 1259 0 
L 628 0 
L 628 4666 
z
" transform="scale(0.015625)"/>
     <path id="DejaVuSans-70" d="M 1159 525 
L 1159 -1331 
L 581 -1331 
L 581 3500 
L 1159 3500 
L 1159 2969 
Q 1341 3281 1617 3432 
Q 1894 3584 2278 3584 
Q 2916 3584 3314 3078 
Q 3713 2572 3713 1747 
Q 3713 922 3314 415 
Q 2916 -91 2278 -91 
Q 1894 -91 1617 61 
Q 1341 213 1159 525 
z
M 3116 1747 
Q 3116 2381 2855 2742 
Q 2594 3103 2138 3103 
Q 1681 3103 1420 2742 
Q 1159 2381 1159 1747 
Q 1159 1113 1420 752 
Q 1681 391 2138 391 
Q 2594 391 2855 752 
Q 3116 1113 3116 1747 
z
" transform="scale(0.015625)"/>
    </defs>
    <use xlink:href="#DejaVuSans-54"/>
    <use xlink:href="#DejaVuSans-6f" x="44.083984"/>
    <use xlink:href="#DejaVuSans-74" x="105.265625"/>
    <use xlink:href="#DejaVuSans-61" x="144.474609"/>
    <use xlink:href="#DejaVuSans-6c" x="205.753906"/>
    <use xlink:href="#DejaVuSans-20" x="233.537109"/>
    <use xlink:href="#DejaVuSans-50" x="265.324219"/>
    <use xlink:href="#DejaVuSans-6f" x="322.001953"/>
    <use xlink:href="#DejaVuSans-70" x="383.183594"/>
    <use xlink:href="#DejaVuSans-75" x="446.660156"/>
    <use xlink:href="#DejaVuSans-6c" x="510.039062"/>
    <use xlink:href="#DejaVuSans-61" x="537.822266"/>
    <use xlink:href="#DejaVuSans-74" x="599.101562"/>
    <use xlink:href="#DejaVuSans-69" x="638.310547"/>
    <use xlink:href="#DejaVuSans-6f" x="666.09375"/>
    <use xlink:href="#DejaVuSans-6e" x="727.275391"/>
   </g>
  </g>
 </g>
 <defs>
  <clipPath id="p8241e69989">
   <rect x="99" y="69.12" width="554.4" height="443.52"/>
  </clipPath>
 </defs>
</svg>
