<?xml version="1.0" encoding="utf-8" standalone="no"?>
<!DOCTYPE svg PUBLIC "-//W3C//DTD SVG 1.1//EN"
  "http://www.w3.org/Graphics/SVG/1.1/DTD/svg11.dtd">
<svg xmlns:xlink="http://www.w3.org/1999/xlink" width="460.8pt" height="345.6pt" viewBox="0 0 460.8 345.6" xmlns="http://www.w3.org/2000/svg" version="1.1">
 <metadata>
  <rdf:RDF xmlns:dc="http://purl.org/dc/elements/1.1/" xmlns:cc="http://creativecommons.org/ns#" xmlns:rdf="http://www.w3.org/1999/02/22-rdf-syntax-ns#">
   <cc:Work>
    <dc:type rdf:resource="http://purl.org/dc/dcmitype/StillImage"/>
    <dc:date>2021-12-01T03:00:47.030624</dc:date>
    <dc:format>image/svg+xml</dc:format>
    <dc:creator>
     <cc:Agent>
      <dc:title>Matplotlib v3.5.0, https://matplotlib.org/</dc:title>
     </cc:Agent>
    </dc:creator>
   </cc:Work>
  </rdf:RDF>
 </metadata>
 <defs>
  <style type="text/css">*{stroke-linejoin: round; stroke-linecap: butt}</style>
 </defs>
 <g id="figure_1">
  <g id="patch_1">
   <path d="M 0 345.6 
L 460.8 345.6 
L 460.8 0 
L 0 0 
z
" style="fill: #ffffff"/>
  </g>
  <g id="axes_1">
   <g id="patch_2">
    <path d="M 57.6 307.584 
L 414.72 307.584 
L 414.72 41.472 
L 57.6 41.472 
z
" style="fill: #ffffff"/>
   </g>
   <g id="matplotlib.axis_1">
    <g id="xtick_1">
     <g id="line2d_1">
      <defs>
       <path id="m38d2b22407" d="M 0 0 
L 0 3.5 
" style="stroke: #000000; stroke-width: 0.8"/>
      </defs>
      <g>
       <use xlink:href="#m38d2b22407" x="82.376268" y="307.584" style="stroke: #000000; stroke-width: 0.8"/>
      </g>
     </g>
     <g id="text_1">
      <!-- 2017.5 -->
      <g transform="translate(64.880955 322.182437)scale(0.1 -0.1)">
       <defs>
        <path id="DejaVuSans-32" d="M 1228 531 
L 3431 531 
L 3431 0 
L 469 0 
L 469 531 
Q 828 903 1448 1529 
Q 2069 2156 2228 2338 
Q 2531 2678 2651 2914 
Q 2772 3150 2772 3378 
Q 2772 3750 2511 3984 
Q 2250 4219 1831 4219 
Q 1534 4219 1204 4116 
Q 875 4013 500 3803 
L 500 4441 
Q 881 4594 1212 4672 
Q 1544 4750 1819 4750 
Q 2544 4750 2975 4387 
Q 3406 4025 3406 3419 
Q 3406 3131 3298 2873 
Q 3191 2616 2906 2266 
Q 2828 2175 2409 1742 
Q 1991 1309 1228 531 
z
" transform="scale(0.015625)"/>
        <path id="DejaVuSans-30" d="M 2034 4250 
Q 1547 4250 1301 3770 
Q 1056 3291 1056 2328 
Q 1056 1369 1301 889 
Q 1547 409 2034 409 
Q 2525 409 2770 889 
Q 3016 1369 3016 2328 
Q 3016 3291 2770 3770 
Q 2525 4250 2034 4250 
z
M 2034 4750 
Q 2819 4750 3233 4129 
Q 3647 3509 3647 2328 
Q 3647 1150 3233 529 
Q 2819 -91 2034 -91 
Q 1250 -91 836 529 
Q 422 1150 422 2328 
Q 422 3509 836 4129 
Q 1250 4750 2034 4750 
z
" transform="scale(0.015625)"/>
        <path id="DejaVuSans-31" d="M 794 531 
L 1825 531 
L 1825 4091 
L 703 3866 
L 703 4441 
L 1819 4666 
L 2450 4666 
L 2450 531 
L 3481 531 
L 3481 0 
L 794 0 
L 794 531 
z
" transform="scale(0.015625)"/>
        <path id="DejaVuSans-37" d="M 525 4666 
L 3525 4666 
L 3525 4397 
L 1831 0 
L 1172 0 
L 2766 4134 
L 525 4134 
L 525 4666 
z
" transform="scale(0.015625)"/>
        <path id="DejaVuSans-2e" d="M 684 794 
L 1344 794 
L 1344 0 
L 684 0 
L 684 794 
z
" transform="scale(0.015625)"/>
        <path id="DejaVuSans-35" d="M 691 4666 
L 3169 4666 
L 3169 4134 
L 1269 4134 
L 1269 2991 
Q 1406 3038 1543 3061 
Q 1681 3084 1819 3084 
Q 2600 3084 3056 2656 
Q 3513 2228 3513 1497 
Q 3513 744 3044 326 
Q 2575 -91 1722 -91 
Q 1428 -91 1123 -41 
Q 819 9 494 109 
L 494 744 
Q 775 591 1075 516 
Q 1375 441 1709 441 
Q 2250 441 2565 725 
Q 2881 1009 2881 1497 
Q 2881 1984 2565 2268 
Q 2250 2553 1709 2553 
Q 1456 2553 1204 2497 
Q 953 2441 691 2322 
L 691 4666 
z
" transform="scale(0.015625)"/>
       </defs>
       <use xlink:href="#DejaVuSans-32"/>
       <use xlink:href="#DejaVuSans-30" x="63.623047"/>
       <use xlink:href="#DejaVuSans-31" x="127.246094"/>
       <use xlink:href="#DejaVuSans-37" x="190.869141"/>
       <use xlink:href="#DejaVuSans-2e" x="254.492188"/>
       <use xlink:href="#DejaVuSans-35" x="286.279297"/>
      </g>
     </g>
    </g>
    <g id="xtick_2">
     <g id="line2d_2">
      <g>
       <use xlink:href="#m38d2b22407" x="125.093971" y="307.584" style="stroke: #000000; stroke-width: 0.8"/>
      </g>
     </g>
     <g id="text_2">
      <!-- 2020.0 -->
      <g transform="translate(107.598659 322.182437)scale(0.1 -0.1)">
       <use xlink:href="#DejaVuSans-32"/>
       <use xlink:href="#DejaVuSans-30" x="63.623047"/>
       <use xlink:href="#DejaVuSans-32" x="127.246094"/>
       <use xlink:href="#DejaVuSans-30" x="190.869141"/>
       <use xlink:href="#DejaVuSans-2e" x="254.492188"/>
       <use xlink:href="#DejaVuSans-30" x="286.279297"/>
      </g>
     </g>
    </g>
    <g id="xtick_3">
     <g id="line2d_3">
      <g>
       <use xlink:href="#m38d2b22407" x="167.811675" y="307.584" style="stroke: #000000; stroke-width: 0.8"/>
      </g>
     </g>
     <g id="text_3">
      <!-- 2022.5 -->
      <g transform="translate(150.316362 322.182437)scale(0.1 -0.1)">
       <use xlink:href="#DejaVuSans-32"/>
       <use xlink:href="#DejaVuSans-30" x="63.623047"/>
       <use xlink:href="#DejaVuSans-32" x="127.246094"/>
       <use xlink:href="#DejaVuSans-32" x="190.869141"/>
       <use xlink:href="#DejaVuSans-2e" x="254.492188"/>
       <use xlink:href="#DejaVuSans-35" x="286.279297"/>
      </g>
     </g>
    </g>
    <g id="xtick_4">
     <g id="line2d_4">
      <g>
       <use xlink:href="#m38d2b22407" x="210.529378" y="307.584" style="stroke: #000000; stroke-width: 0.8"/>
      </g>
     </g>
     <g id="text_4">
      <!-- 2025.0 -->
      <g transform="translate(193.034065 322.182437)scale(0.1 -0.1)">
       <use xlink:href="#DejaVuSans-32"/>
       <use xlink:href="#DejaVuSans-30" x="63.623047"/>
       <use xlink:href="#DejaVuSans-32" x="127.246094"/>
       <use xlink:href="#DejaVuSans-35" x="190.869141"/>
       <use xlink:href="#DejaVuSans-2e" x="254.492188"/>
       <use xlink:href="#DejaVuSans-30" x="286.279297"/>
      </g>
     </g>
    </g>
    <g id="xtick_5">
     <g id="line2d_5">
      <g>
       <use xlink:href="#m38d2b22407" x="253.247081" y="307.584" style="stroke: #000000; stroke-width: 0.8"/>
      </g>
     </g>
     <g id="text_5">
      <!-- 2027.5 -->
      <g transform="translate(235.751769 322.182437)scale(0.1 -0.1)">
       <use xlink:href="#DejaVuSans-32"/>
       <use xlink:href="#DejaVuSans-30" x="63.623047"/>
       <use xlink:href="#DejaVuSans-32" x="127.246094"/>
       <use xlink:href="#DejaVuSans-37" x="190.869141"/>
       <use xlink:href="#DejaVuSans-2e" x="254.492188"/>
       <use xlink:href="#DejaVuSans-35" x="286.279297"/>
      </g>
     </g>
    </g>
    <g id="xtick_6">
     <g id="line2d_6">
      <g>
       <use xlink:href="#m38d2b22407" x="295.964785" y="307.584" style="stroke: #000000; stroke-width: 0.8"/>
      </g>
     </g>
     <g id="text_6">
      <!-- 2030.0 -->
      <g transform="translate(278.469472 322.182437)scale(0.1 -0.1)">
       <defs>
        <path id="DejaVuSans-33" d="M 2597 2516 
Q 3050 2419 3304 2112 
Q 3559 1806 3559 1356 
Q 3559 666 3084 287 
Q 2609 -91 1734 -91 
Q 1441 -91 1130 -33 
Q 819 25 488 141 
L 488 750 
Q 750 597 1062 519 
Q 1375 441 1716 441 
Q 2309 441 2620 675 
Q 2931 909 2931 1356 
Q 2931 1769 2642 2001 
Q 2353 2234 1838 2234 
L 1294 2234 
L 1294 2753 
L 1863 2753 
Q 2328 2753 2575 2939 
Q 2822 3125 2822 3475 
Q 2822 3834 2567 4026 
Q 2313 4219 1838 4219 
Q 1578 4219 1281 4162 
Q 984 4106 628 3988 
L 628 4550 
Q 988 4650 1302 4700 
Q 1616 4750 1894 4750 
Q 2613 4750 3031 4423 
Q 3450 4097 3450 3541 
Q 3450 3153 3228 2886 
Q 3006 2619 2597 2516 
z
" transform="scale(0.015625)"/>
       </defs>
       <use xlink:href="#DejaVuSans-32"/>
       <use xlink:href="#DejaVuSans-30" x="63.623047"/>
       <use xlink:href="#DejaVuSans-33" x="127.246094"/>
       <use xlink:href="#DejaVuSans-30" x="190.869141"/>
       <use xlink:href="#DejaVuSans-2e" x="254.492188"/>
       <use xlink:href="#DejaVuSans-30" x="286.279297"/>
      </g>
     </g>
    </g>
    <g id="xtick_7">
     <g id="line2d_7">
      <g>
       <use xlink:href="#m38d2b22407" x="338.682488" y="307.584" style="stroke: #000000; stroke-width: 0.8"/>
      </g>
     </g>
     <g id="text_7">
      <!-- 2032.5 -->
      <g transform="translate(321.187176 322.182437)scale(0.1 -0.1)">
       <use xlink:href="#DejaVuSans-32"/>
       <use xlink:href="#DejaVuSans-30" x="63.623047"/>
       <use xlink:href="#DejaVuSans-33" x="127.246094"/>
       <use xlink:href="#DejaVuSans-32" x="190.869141"/>
       <use xlink:href="#DejaVuSans-2e" x="254.492188"/>
       <use xlink:href="#DejaVuSans-35" x="286.279297"/>
      </g>
     </g>
    </g>
    <g id="xtick_8">
     <g id="line2d_8">
      <g>
       <use xlink:href="#m38d2b22407" x="381.400191" y="307.584" style="stroke: #000000; stroke-width: 0.8"/>
      </g>
     </g>
     <g id="text_8">
      <!-- 2035.0 -->
      <g transform="translate(363.904879 322.182437)scale(0.1 -0.1)">
       <use xlink:href="#DejaVuSans-32"/>
       <use xlink:href="#DejaVuSans-30" x="63.623047"/>
       <use xlink:href="#DejaVuSans-33" x="127.246094"/>
       <use xlink:href="#DejaVuSans-35" x="190.869141"/>
       <use xlink:href="#DejaVuSans-2e" x="254.492188"/>
       <use xlink:href="#DejaVuSans-30" x="286.279297"/>
      </g>
     </g>
    </g>
   </g>
   <g id="matplotlib.axis_2">
    <g id="ytick_1">
     <g id="line2d_9">
      <defs>
       <path id="m9ded821841" d="M 0 0 
L -3.5 0 
" style="stroke: #000000; stroke-width: 0.8"/>
      </defs>
      <g>
       <use xlink:href="#m9ded821841" x="57.6" y="300.328673" style="stroke: #000000; stroke-width: 0.8"/>
      </g>
     </g>
     <g id="text_9">
      <!-- 0.0 -->
      <g transform="translate(34.696875 304.127891)scale(0.1 -0.1)">
       <use xlink:href="#DejaVuSans-30"/>
       <use xlink:href="#DejaVuSans-2e" x="63.623047"/>
       <use xlink:href="#DejaVuSans-30" x="95.410156"/>
      </g>
     </g>
    </g>
    <g id="ytick_2">
     <g id="line2d_10">
      <g>
       <use xlink:href="#m9ded821841" x="57.6" y="270.04265" style="stroke: #000000; stroke-width: 0.8"/>
      </g>
     </g>
     <g id="text_10">
      <!-- 0.2 -->
      <g transform="translate(34.696875 273.841868)scale(0.1 -0.1)">
       <use xlink:href="#DejaVuSans-30"/>
       <use xlink:href="#DejaVuSans-2e" x="63.623047"/>
       <use xlink:href="#DejaVuSans-32" x="95.410156"/>
      </g>
     </g>
    </g>
    <g id="ytick_3">
     <g id="line2d_11">
      <g>
       <use xlink:href="#m9ded821841" x="57.6" y="239.756627" style="stroke: #000000; stroke-width: 0.8"/>
      </g>
     </g>
     <g id="text_11">
      <!-- 0.4 -->
      <g transform="translate(34.696875 243.555845)scale(0.1 -0.1)">
       <defs>
        <path id="DejaVuSans-34" d="M 2419 4116 
L 825 1625 
L 2419 1625 
L 2419 4116 
z
M 2253 4666 
L 3047 4666 
L 3047 1625 
L 3713 1625 
L 3713 1100 
L 3047 1100 
L 3047 0 
L 2419 0 
L 2419 1100 
L 313 1100 
L 313 1709 
L 2253 4666 
z
" transform="scale(0.015625)"/>
       </defs>
       <use xlink:href="#DejaVuSans-30"/>
       <use xlink:href="#DejaVuSans-2e" x="63.623047"/>
       <use xlink:href="#DejaVuSans-34" x="95.410156"/>
      </g>
     </g>
    </g>
    <g id="ytick_4">
     <g id="line2d_12">
      <g>
       <use xlink:href="#m9ded821841" x="57.6" y="209.470604" style="stroke: #000000; stroke-width: 0.8"/>
      </g>
     </g>
     <g id="text_12">
      <!-- 0.6 -->
      <g transform="translate(34.696875 213.269822)scale(0.1 -0.1)">
       <defs>
        <path id="DejaVuSans-36" d="M 2113 2584 
Q 1688 2584 1439 2293 
Q 1191 2003 1191 1497 
Q 1191 994 1439 701 
Q 1688 409 2113 409 
Q 2538 409 2786 701 
Q 3034 994 3034 1497 
Q 3034 2003 2786 2293 
Q 2538 2584 2113 2584 
z
M 3366 4563 
L 3366 3988 
Q 3128 4100 2886 4159 
Q 2644 4219 2406 4219 
Q 1781 4219 1451 3797 
Q 1122 3375 1075 2522 
Q 1259 2794 1537 2939 
Q 1816 3084 2150 3084 
Q 2853 3084 3261 2657 
Q 3669 2231 3669 1497 
Q 3669 778 3244 343 
Q 2819 -91 2113 -91 
Q 1303 -91 875 529 
Q 447 1150 447 2328 
Q 447 3434 972 4092 
Q 1497 4750 2381 4750 
Q 2619 4750 2861 4703 
Q 3103 4656 3366 4563 
z
" transform="scale(0.015625)"/>
       </defs>
       <use xlink:href="#DejaVuSans-30"/>
       <use xlink:href="#DejaVuSans-2e" x="63.623047"/>
       <use xlink:href="#DejaVuSans-36" x="95.410156"/>
      </g>
     </g>
    </g>
    <g id="ytick_5">
     <g id="line2d_13">
      <g>
       <use xlink:href="#m9ded821841" x="57.6" y="179.184581" style="stroke: #000000; stroke-width: 0.8"/>
      </g>
     </g>
     <g id="text_13">
      <!-- 0.8 -->
      <g transform="translate(34.696875 182.983799)scale(0.1 -0.1)">
       <defs>
        <path id="DejaVuSans-38" d="M 2034 2216 
Q 1584 2216 1326 1975 
Q 1069 1734 1069 1313 
Q 1069 891 1326 650 
Q 1584 409 2034 409 
Q 2484 409 2743 651 
Q 3003 894 3003 1313 
Q 3003 1734 2745 1975 
Q 2488 2216 2034 2216 
z
M 1403 2484 
Q 997 2584 770 2862 
Q 544 3141 544 3541 
Q 544 4100 942 4425 
Q 1341 4750 2034 4750 
Q 2731 4750 3128 4425 
Q 3525 4100 3525 3541 
Q 3525 3141 3298 2862 
Q 3072 2584 2669 2484 
Q 3125 2378 3379 2068 
Q 3634 1759 3634 1313 
Q 3634 634 3220 271 
Q 2806 -91 2034 -91 
Q 1263 -91 848 271 
Q 434 634 434 1313 
Q 434 1759 690 2068 
Q 947 2378 1403 2484 
z
M 1172 3481 
Q 1172 3119 1398 2916 
Q 1625 2713 2034 2713 
Q 2441 2713 2670 2916 
Q 2900 3119 2900 3481 
Q 2900 3844 2670 4047 
Q 2441 4250 2034 4250 
Q 1625 4250 1398 4047 
Q 1172 3844 1172 3481 
z
" transform="scale(0.015625)"/>
       </defs>
       <use xlink:href="#DejaVuSans-30"/>
       <use xlink:href="#DejaVuSans-2e" x="63.623047"/>
       <use xlink:href="#DejaVuSans-38" x="95.410156"/>
      </g>
     </g>
    </g>
    <g id="ytick_6">
     <g id="line2d_14">
      <g>
       <use xlink:href="#m9ded821841" x="57.6" y="148.898558" style="stroke: #000000; stroke-width: 0.8"/>
      </g>
     </g>
     <g id="text_14">
      <!-- 1.0 -->
      <g transform="translate(34.696875 152.697776)scale(0.1 -0.1)">
       <use xlink:href="#DejaVuSans-31"/>
       <use xlink:href="#DejaVuSans-2e" x="63.623047"/>
       <use xlink:href="#DejaVuSans-30" x="95.410156"/>
      </g>
     </g>
    </g>
    <g id="ytick_7">
     <g id="line2d_15">
      <g>
       <use xlink:href="#m9ded821841" x="57.6" y="118.612535" style="stroke: #000000; stroke-width: 0.8"/>
      </g>
     </g>
     <g id="text_15">
      <!-- 1.2 -->
      <g transform="translate(34.696875 122.411753)scale(0.1 -0.1)">
       <use xlink:href="#DejaVuSans-31"/>
       <use xlink:href="#DejaVuSans-2e" x="63.623047"/>
       <use xlink:href="#DejaVuSans-32" x="95.410156"/>
      </g>
     </g>
    </g>
    <g id="ytick_8">
     <g id="line2d_16">
      <g>
       <use xlink:href="#m9ded821841" x="57.6" y="88.326511" style="stroke: #000000; stroke-width: 0.8"/>
      </g>
     </g>
     <g id="text_16">
      <!-- 1.4 -->
      <g transform="translate(34.696875 92.12573)scale(0.1 -0.1)">
       <use xlink:href="#DejaVuSans-31"/>
       <use xlink:href="#DejaVuSans-2e" x="63.623047"/>
       <use xlink:href="#DejaVuSans-34" x="95.410156"/>
      </g>
     </g>
    </g>
    <g id="ytick_9">
     <g id="line2d_17">
      <g>
       <use xlink:href="#m9ded821841" x="57.6" y="58.040488" style="stroke: #000000; stroke-width: 0.8"/>
      </g>
     </g>
     <g id="text_17">
      <!-- 1.6 -->
      <g transform="translate(34.696875 61.839707)scale(0.1 -0.1)">
       <use xlink:href="#DejaVuSans-31"/>
       <use xlink:href="#DejaVuSans-2e" x="63.623047"/>
       <use xlink:href="#DejaVuSans-36" x="95.410156"/>
      </g>
     </g>
    </g>
    <g id="text_18">
     <!-- 1e6 -->
     <g transform="translate(57.6 38.472)scale(0.1 -0.1)">
      <defs>
       <path id="DejaVuSans-65" d="M 3597 1894 
L 3597 1613 
L 953 1613 
Q 991 1019 1311 708 
Q 1631 397 2203 397 
Q 2534 397 2845 478 
Q 3156 559 3463 722 
L 3463 178 
Q 3153 47 2828 -22 
Q 2503 -91 2169 -91 
Q 1331 -91 842 396 
Q 353 884 353 1716 
Q 353 2575 817 3079 
Q 1281 3584 2069 3584 
Q 2775 3584 3186 3129 
Q 3597 2675 3597 1894 
z
M 3022 2063 
Q 3016 2534 2758 2815 
Q 2500 3097 2075 3097 
Q 1594 3097 1305 2825 
Q 1016 2553 972 2059 
L 3022 2063 
z
" transform="scale(0.015625)"/>
      </defs>
      <use xlink:href="#DejaVuSans-31"/>
      <use xlink:href="#DejaVuSans-65" x="63.623047"/>
      <use xlink:href="#DejaVuSans-36" x="125.146484"/>
     </g>
    </g>
   </g>
   <g id="line2d_18">
    <path d="M 73.832727 291.685375 
L 90.919809 291.61258 
L 108.00689 291.544568 
L 125.093971 291.481528 
L 142.181053 291.423491 
L 159.268134 291.368571 
L 176.355215 291.316308 
L 193.442297 291.266305 
L 210.529378 291.218625 
L 227.616459 291.173173 
L 244.703541 291.129821 
L 261.790622 291.08843 
L 278.877703 291.048568 
L 295.964785 291.010045 
L 313.051866 290.972927 
L 330.138947 290.937345 
L 347.226029 290.90265 
L 364.31311 290.868913 
L 381.400191 290.836011 
L 398.487273 290.804068 
" clip-path="url(#pac49f3a2ca)" style="fill: none; stroke: #1f77b4; stroke-width: 1.5; stroke-linecap: square"/>
   </g>
   <g id="line2d_19">
    <path d="M 73.832727 290.055334 
L 90.919809 289.994155 
L 108.00689 289.938187 
L 125.093971 289.887238 
L 142.181053 289.841442 
L 159.268134 289.799075 
L 176.355215 289.759452 
L 193.442297 289.722297 
L 210.529378 289.686946 
L 227.616459 289.653251 
L 244.703541 289.621424 
L 261.790622 289.590916 
L 278.877703 289.561329 
L 295.964785 289.532518 
L 313.051866 289.50438 
L 330.138947 289.477135 
L 347.226029 289.449603 
L 364.31311 289.422212 
L 381.400191 289.395151 
L 398.487273 289.368536 
" clip-path="url(#pac49f3a2ca)" style="fill: none; stroke: #ff7f0e; stroke-width: 1.5; stroke-linecap: square"/>
   </g>
   <g id="line2d_20">
    <path d="M 73.832727 283.904021 
L 90.919809 283.792994 
L 108.00689 283.687811 
L 125.093971 283.588591 
L 142.181053 283.495573 
L 159.268134 283.408359 
L 176.355215 283.326296 
L 193.442297 283.248845 
L 210.529378 283.175523 
L 227.616459 283.106079 
L 244.703541 283.04001 
L 261.790622 282.976587 
L 278.877703 282.915057 
L 295.964785 282.855574 
L 313.051866 282.797832 
L 330.138947 282.742299 
L 347.226029 282.687045 
L 364.31311 282.632369 
L 381.400191 282.578943 
L 398.487273 282.526962 
" clip-path="url(#pac49f3a2ca)" style="fill: none; stroke: #2ca02c; stroke-width: 1.5; stroke-linecap: square"/>
   </g>
   <g id="line2d_21">
    <path d="M 73.832727 220.992706 
L 90.919809 220.180872 
L 108.00689 219.413185 
L 125.093971 218.690535 
L 142.181053 218.01647 
L 159.268134 217.372865 
L 176.355215 216.757131 
L 193.442297 216.167729 
L 210.529378 215.60237 
L 227.616459 215.058894 
L 244.703541 214.53631 
L 261.790622 214.0291 
L 278.877703 213.534689 
L 295.964785 213.051673 
L 313.051866 212.580755 
L 330.138947 212.123273 
L 347.226029 211.669157 
L 364.31311 211.219544 
L 381.400191 210.773441 
L 398.487273 210.332947 
" clip-path="url(#pac49f3a2ca)" style="fill: none; stroke: #d62728; stroke-width: 1.5; stroke-linecap: square"/>
   </g>
   <g id="line2d_22">
    <path d="M 73.832727 275.198192 
L 90.919809 274.971846 
L 108.00689 274.757201 
L 125.093971 274.553894 
L 142.181053 274.362364 
L 159.268134 274.178444 
L 176.355215 274.000497 
L 193.442297 273.827893 
L 210.529378 273.659023 
L 227.616459 273.493552 
L 244.703541 273.332046 
L 261.790622 273.173161 
L 278.877703 273.015909 
L 295.964785 272.859944 
L 313.051866 272.705015 
L 330.138947 272.551702 
L 347.226029 272.39699 
L 364.31311 272.24197 
L 381.400191 272.087133 
L 398.487273 271.932785 
" clip-path="url(#pac49f3a2ca)" style="fill: none; stroke: #9467bd; stroke-width: 1.5; stroke-linecap: square"/>
   </g>
   <g id="line2d_23">
    <path d="M 73.832727 95.258351 
L 90.919809 92.53695 
L 108.00689 89.855476 
L 125.093971 87.218194 
L 142.181053 84.653423 
L 159.268134 82.166032 
L 176.355215 79.751251 
L 193.442297 77.412741 
L 210.529378 75.148911 
L 227.616459 72.952544 
L 244.703541 70.828585 
L 261.790622 68.762952 
L 278.877703 66.745953 
L 295.964785 64.788012 
L 313.051866 62.870529 
L 330.138947 60.994612 
L 347.226029 59.13076 
L 364.31311 57.269911 
L 381.400191 55.416987 
L 398.487273 53.568 
" clip-path="url(#pac49f3a2ca)" style="fill: none; stroke: #8c564b; stroke-width: 1.5; stroke-linecap: square"/>
   </g>
   <g id="line2d_24">
    <path d="M 73.832727 265.412569 
L 90.919809 265.11666 
L 108.00689 264.835473 
L 125.093971 264.568943 
L 142.181053 264.318654 
L 159.268134 264.081423 
L 176.355215 263.856929 
L 193.442297 263.642558 
L 210.529378 263.43745 
L 227.616459 263.242229 
L 244.703541 263.055895 
L 261.790622 262.877786 
L 278.877703 262.705876 
L 295.964785 262.539367 
L 313.051866 262.378143 
L 330.138947 262.221569 
L 347.226029 262.067429 
L 364.31311 261.915273 
L 381.400191 261.765125 
L 398.487273 261.617769 
" clip-path="url(#pac49f3a2ca)" style="fill: none; stroke: #e377c2; stroke-width: 1.5; stroke-linecap: square"/>
   </g>
   <g id="line2d_25">
    <path d="M 73.832727 274.831287 
L 90.919809 274.608197 
L 108.00689 274.399993 
L 125.093971 274.206895 
L 142.181053 274.029973 
L 159.268134 273.863376 
L 176.355215 273.706235 
L 193.442297 273.558021 
L 210.529378 273.417969 
L 227.616459 273.28536 
L 244.703541 273.159848 
L 261.790622 273.039658 
L 278.877703 272.923957 
L 295.964785 272.812282 
L 313.051866 272.704838 
L 330.138947 272.602028 
L 347.226029 272.500673 
L 364.31311 272.401125 
L 381.400191 272.303064 
L 398.487273 272.207142 
" clip-path="url(#pac49f3a2ca)" style="fill: none; stroke: #7f7f7f; stroke-width: 1.5; stroke-linecap: square"/>
   </g>
   <g id="line2d_26">
    <path d="M 73.832727 268.536481 
L 90.919809 268.031301 
L 108.00689 267.516833 
L 125.093971 266.992737 
L 142.181053 266.458464 
L 159.268134 265.931364 
L 176.355215 265.410134 
L 193.442297 264.892859 
L 210.529378 264.378709 
L 227.616459 263.866415 
L 244.703541 263.355487 
L 261.790622 262.844522 
L 278.877703 262.331277 
L 295.964785 261.815694 
L 313.051866 261.297598 
L 330.138947 260.777812 
L 347.226029 260.252731 
L 364.31311 259.72222 
L 381.400191 259.186936 
L 398.487273 258.647768 
" clip-path="url(#pac49f3a2ca)" style="fill: none; stroke: #bcbd22; stroke-width: 1.5; stroke-linecap: square"/>
   </g>
   <g id="line2d_27">
    <path d="M 73.832727 285.608852 
L 90.919809 285.511529 
L 108.00689 285.422734 
L 125.093971 285.342742 
L 142.181053 285.271559 
L 159.268134 285.205955 
L 176.355215 285.145127 
L 193.442297 285.088383 
L 210.529378 285.035805 
L 227.616459 284.987215 
L 244.703541 284.942377 
L 261.790622 284.901037 
L 278.877703 284.862463 
L 295.964785 284.826319 
L 313.051866 284.792705 
L 330.138947 284.761824 
L 347.226029 284.732589 
L 364.31311 284.705107 
L 381.400191 284.67917 
L 398.487273 284.65497 
" clip-path="url(#pac49f3a2ca)" style="fill: none; stroke: #17becf; stroke-width: 1.5; stroke-linecap: square"/>
   </g>
   <g id="line2d_28"/>
   <g id="line2d_29">
    <path d="M 73.832727 295.427913 
L 90.919809 295.417483 
L 108.00689 295.409796 
L 125.093971 295.404732 
L 142.181053 295.402329 
L 159.268134 295.401753 
L 176.355215 295.402666 
L 193.442297 295.404925 
L 210.529378 295.408212 
L 227.616459 295.412448 
L 244.703541 295.417723 
L 261.790622 295.423776 
L 278.877703 295.430418 
L 295.964785 295.437581 
L 313.051866 295.445214 
L 330.138947 295.453413 
L 347.226029 295.461645 
L 364.31311 295.470103 
L 381.400191 295.478871 
L 398.487273 295.488 
" clip-path="url(#pac49f3a2ca)" style="fill: none; stroke: #ff7f0e; stroke-width: 1.5; stroke-linecap: square"/>
   </g>
   <g id="line2d_30">
    <path d="M 73.832727 269.11791 
L 90.919809 268.825581 
L 108.00689 268.54314 
L 125.093971 268.270896 
L 142.181053 268.009391 
L 159.268134 267.757949 
L 176.355215 267.515393 
L 193.442297 267.280752 
L 210.529378 267.053155 
L 227.616459 266.832173 
L 244.703541 266.616882 
L 261.790622 266.4059 
L 278.877703 266.197794 
L 295.964785 265.99289 
L 313.051866 265.790612 
L 330.138947 265.591911 
L 347.226029 265.392994 
L 364.31311 265.194456 
L 381.400191 264.997644 
L 398.487273 264.80296 
" clip-path="url(#pac49f3a2ca)" style="fill: none; stroke: #2ca02c; stroke-width: 1.5; stroke-linecap: square"/>
   </g>
   <g id="line2d_31"/>
   <g id="line2d_32">
    <path d="M 73.832727 276.299541 
L 90.919809 275.976474 
L 108.00689 275.64807 
L 125.093971 275.314116 
L 142.181053 274.974245 
L 159.268134 274.641459 
L 176.355215 274.314743 
L 193.442297 273.992634 
L 210.529378 273.674486 
L 227.616459 273.359338 
L 244.703541 273.046809 
L 261.790622 272.735853 
L 278.877703 272.424814 
L 295.964785 272.113655 
L 313.051866 271.802253 
L 330.138947 271.491215 
L 347.226029 271.177917 
L 364.31311 270.862283 
L 381.400191 270.54481 
L 398.487273 270.226156 
" clip-path="url(#pac49f3a2ca)" style="fill: none; stroke: #9467bd; stroke-width: 1.5; stroke-linecap: square"/>
   </g>
   <g id="line2d_33">
    <path d="M 73.832727 277.06272 
L 90.919809 276.929077 
L 108.00689 276.806045 
L 125.093971 276.693499 
L 142.181053 276.592399 
L 159.268134 276.500563 
L 176.355215 276.417706 
L 193.442297 276.342051 
L 210.529378 276.272979 
L 227.616459 276.210844 
L 244.703541 276.154944 
L 261.790622 276.104801 
L 278.877703 276.059065 
L 295.964785 276.017186 
L 313.051866 275.97906 
L 330.138947 275.944252 
L 347.226029 275.911324 
L 364.31311 275.879973 
L 381.400191 275.850203 
L 398.487273 275.822499 
" clip-path="url(#pac49f3a2ca)" style="fill: none; stroke: #8c564b; stroke-width: 1.5; stroke-linecap: square"/>
   </g>
   <g id="line2d_34">
    <path d="M 73.832727 274.292484 
L 90.919809 273.949978 
L 108.00689 273.601905 
L 125.093971 273.248039 
L 142.181053 272.88799 
L 159.268134 272.535833 
L 176.355215 272.190462 
L 193.442297 271.85029 
L 210.529378 271.514616 
L 227.616459 271.182396 
L 244.703541 270.853219 
L 261.790622 270.525952 
L 278.877703 270.198805 
L 295.964785 269.87174 
L 313.051866 269.544625 
L 330.138947 269.218113 
L 347.226029 268.889378 
L 364.31311 268.558338 
L 381.400191 268.225533 
L 398.487273 267.891673 
" clip-path="url(#pac49f3a2ca)" style="fill: none; stroke: #e377c2; stroke-width: 1.5; stroke-linecap: square"/>
   </g>
   <g id="line2d_35">
    <path d="M 73.832727 291.09171 
L 90.919809 291.027634 
L 108.00689 290.968121 
L 125.093971 290.913009 
L 142.181053 290.862433 
L 159.268134 290.814847 
L 176.355215 290.769642 
L 193.442297 290.726573 
L 210.529378 290.685046 
L 227.616459 290.644931 
L 244.703541 290.606424 
L 261.790622 290.569031 
L 278.877703 290.532393 
L 295.964785 290.496381 
L 313.051866 290.460901 
L 330.138947 290.426158 
L 347.226029 290.391074 
L 364.31311 290.356039 
L 381.400191 290.321227 
L 398.487273 290.286745 
" clip-path="url(#pac49f3a2ca)" style="fill: none; stroke: #7f7f7f; stroke-width: 1.5; stroke-linecap: square"/>
   </g>
   <g id="line2d_36"/>
   <g id="line2d_37">
    <path d="M 73.832727 290.237402 
L 90.919809 290.203149 
L 108.00689 290.173798 
L 125.093971 290.149263 
L 142.181053 290.129926 
L 159.268134 290.114816 
L 176.355215 290.103786 
L 193.442297 290.096049 
L 210.529378 290.091321 
L 227.616459 290.089732 
L 244.703541 290.090964 
L 261.790622 290.094797 
L 278.877703 290.100643 
L 295.964785 290.108259 
L 313.051866 290.11759 
L 330.138947 290.128442 
L 347.226029 290.140204 
L 364.31311 290.152747 
L 381.400191 290.166066 
L 398.487273 290.180358 
" clip-path="url(#pac49f3a2ca)" style="fill: none; stroke: #17becf; stroke-width: 1.5; stroke-linecap: square"/>
   </g>
   <g id="line2d_38">
    <path d="M 73.832727 289.829713 
L 90.919809 289.749392 
L 108.00689 289.674154 
L 125.093971 289.603828 
L 142.181053 289.538575 
L 159.268134 289.476646 
L 176.355215 289.41735 
L 193.442297 289.360415 
L 210.529378 289.305166 
L 227.616459 289.251458 
L 244.703541 289.199518 
L 261.790622 289.148787 
L 278.877703 289.098852 
L 295.964785 289.049569 
L 313.051866 289.000832 
L 330.138947 288.952875 
L 347.226029 288.904464 
L 364.31311 288.856045 
L 381.400191 288.807819 
L 398.487273 288.759908 
" clip-path="url(#pac49f3a2ca)" style="fill: none; stroke: #1f77b4; stroke-width: 1.5; stroke-linecap: square"/>
   </g>
   <g id="line2d_39">
    <path d="M 73.832727 275.811146 
L 90.919809 275.645452 
L 108.00689 275.488482 
L 125.093971 275.340415 
L 142.181053 275.201605 
L 159.268134 275.071459 
L 176.355215 274.949004 
L 193.442297 274.833433 
L 210.529378 274.724026 
L 227.616459 274.620407 
L 244.703541 274.521829 
L 261.790622 274.427198 
L 278.877703 274.335395 
L 295.964785 274.246648 
L 313.051866 274.160499 
L 330.138947 274.077649 
L 347.226029 273.995215 
L 364.31311 273.913644 
L 381.400191 273.83394 
L 398.487273 273.756393 
" clip-path="url(#pac49f3a2ca)" style="fill: none; stroke: #ff7f0e; stroke-width: 1.5; stroke-linecap: square"/>
   </g>
   <g id="line2d_40">
    <path d="M 73.832727 281.735347 
L 90.919809 281.59048 
L 108.00689 281.456071 
L 125.093971 281.332505 
L 142.181053 281.219828 
L 159.268134 281.113976 
L 176.355215 281.01395 
L 193.442297 280.91889 
L 210.529378 280.828919 
L 227.616459 280.743826 
L 244.703541 280.663328 
L 261.790622 280.587117 
L 278.877703 280.514267 
L 295.964785 280.444363 
L 313.051866 280.377543 
L 330.138947 280.314078 
L 347.226029 280.252581 
L 364.31311 280.193198 
L 381.400191 280.135667 
L 398.487273 280.080243 
" clip-path="url(#pac49f3a2ca)" style="fill: none; stroke: #2ca02c; stroke-width: 1.5; stroke-linecap: square"/>
   </g>
   <g id="line2d_41"/>
   <g id="line2d_42">
    <path d="M 73.832727 277.959522 
L 90.919809 277.774358 
L 108.00689 277.601618 
L 125.093971 277.441788 
L 142.181053 277.29494 
L 159.268134 277.156192 
L 176.355215 277.024351 
L 193.442297 276.898389 
L 210.529378 276.778463 
L 227.616459 276.664327 
L 244.703541 276.555647 
L 261.790622 276.452059 
L 278.877703 276.352451 
L 295.964785 276.256324 
L 313.051866 276.163853 
L 330.138947 276.075369 
L 347.226029 275.989198 
L 364.31311 275.90552 
L 381.400191 275.82402 
L 398.487273 275.745013 
" clip-path="url(#pac49f3a2ca)" style="fill: none; stroke: #9467bd; stroke-width: 1.5; stroke-linecap: square"/>
   </g>
   <g id="line2d_43">
    <path d="M 73.832727 276.060528 
L 90.919809 275.716248 
L 108.00689 275.366063 
L 125.093971 275.009743 
L 142.181053 274.646904 
L 159.268134 274.290711 
L 176.355215 273.940148 
L 193.442297 273.593742 
L 210.529378 273.250847 
L 227.616459 272.910492 
L 244.703541 272.572296 
L 261.790622 272.235199 
L 278.877703 271.897515 
L 295.964785 271.559206 
L 313.051866 271.220144 
L 330.138947 270.880946 
L 347.226029 270.538933 
L 364.31311 270.194018 
L 381.400191 269.846704 
L 398.487273 269.497661 
" clip-path="url(#pac49f3a2ca)" style="fill: none; stroke: #8c564b; stroke-width: 1.5; stroke-linecap: square"/>
   </g>
   <g id="patch_3">
    <path d="M 57.6 307.584 
L 57.6 41.472 
" style="fill: none; stroke: #000000; stroke-width: 0.8; stroke-linejoin: miter; stroke-linecap: square"/>
   </g>
   <g id="patch_4">
    <path d="M 414.72 307.584 
L 414.72 41.472 
" style="fill: none; stroke: #000000; stroke-width: 0.8; stroke-linejoin: miter; stroke-linecap: square"/>
   </g>
   <g id="patch_5">
    <path d="M 57.6 307.584 
L 414.72 307.584 
" style="fill: none; stroke: #000000; stroke-width: 0.8; stroke-linejoin: miter; stroke-linecap: square"/>
   </g>
   <g id="patch_6">
    <path d="M 57.6 41.472 
L 414.72 41.472 
" style="fill: none; stroke: #000000; stroke-width: 0.8; stroke-linejoin: miter; stroke-linecap: square"/>
   </g>
  </g>
 </g>
 <defs>
  <clipPath id="pac49f3a2ca">
   <rect x="57.6" y="41.472" width="357.12" height="266.112"/>
  </clipPath>
 </defs>
</svg>
