<?xml version="1.0" encoding="utf-8" standalone="no"?>
<!DOCTYPE svg PUBLIC "-//W3C//DTD SVG 1.1//EN"
  "http://www.w3.org/Graphics/SVG/1.1/DTD/svg11.dtd">
<svg xmlns:xlink="http://www.w3.org/1999/xlink" width="792pt" height="360pt" viewBox="0 0 792 360" xmlns="http://www.w3.org/2000/svg" version="1.1">
 <metadata>
  <rdf:RDF xmlns:dc="http://purl.org/dc/elements/1.1/" xmlns:cc="http://creativecommons.org/ns#" xmlns:rdf="http://www.w3.org/1999/02/22-rdf-syntax-ns#">
   <cc:Work>
    <dc:type rdf:resource="http://purl.org/dc/dcmitype/StillImage"/>
    <dc:date>2021-12-02T03:12:26.219731</dc:date>
    <dc:format>image/svg+xml</dc:format>
    <dc:creator>
     <cc:Agent>
      <dc:title>Matplotlib v3.5.0, https://matplotlib.org/</dc:title>
     </cc:Agent>
    </dc:creator>
   </cc:Work>
  </rdf:RDF>
 </metadata>
 <defs>
  <style type="text/css">*{stroke-linejoin: round; stroke-linecap: butt}</style>
 </defs>
 <g id="figure_1">
  <g id="patch_1">
   <path d="M 0 360 
L 792 360 
L 792 0 
L 0 0 
z
" style="fill: #ffffff"/>
  </g>
  <g id="axes_1">
   <g id="patch_2">
    <path d="M 99 320.4 
L 653.4 320.4 
L 653.4 43.2 
L 99 43.2 
z
" style="fill: #e5e5e5"/>
   </g>
   <g id="matplotlib.axis_1">
    <g id="xtick_1">
     <g id="line2d_1">
      <path d="M 155.7 320.4 
L 155.7 43.2 
" clip-path="url(#p9f35e96397)" style="fill: none; stroke: #ffffff; stroke-width: 1.4; stroke-linecap: square"/>
     </g>
     <g id="line2d_2">
      <defs>
       <path id="m9ca6a8c22a" d="M 0 0 
L 0 5 
" style="stroke: #7f7f7f; stroke-width: 1.4"/>
      </defs>
      <g>
       <use xlink:href="#m9ca6a8c22a" x="155.7" y="320.4" style="fill: #7f7f7f; stroke: #7f7f7f; stroke-width: 1.4"/>
      </g>
     </g>
     <g id="text_1">
      <!-- 2006 -->
      <g style="fill: #7f7f7f" transform="translate(140.43 335.518125)scale(0.12 -0.12)">
       <defs>
        <path id="DejaVuSans-32" d="M 1228 531 
L 3431 531 
L 3431 0 
L 469 0 
L 469 531 
Q 828 903 1448 1529 
Q 2069 2156 2228 2338 
Q 2531 2678 2651 2914 
Q 2772 3150 2772 3378 
Q 2772 3750 2511 3984 
Q 2250 4219 1831 4219 
Q 1534 4219 1204 4116 
Q 875 4013 500 3803 
L 500 4441 
Q 881 4594 1212 4672 
Q 1544 4750 1819 4750 
Q 2544 4750 2975 4387 
Q 3406 4025 3406 3419 
Q 3406 3131 3298 2873 
Q 3191 2616 2906 2266 
Q 2828 2175 2409 1742 
Q 1991 1309 1228 531 
z
" transform="scale(0.015625)"/>
        <path id="DejaVuSans-30" d="M 2034 4250 
Q 1547 4250 1301 3770 
Q 1056 3291 1056 2328 
Q 1056 1369 1301 889 
Q 1547 409 2034 409 
Q 2525 409 2770 889 
Q 3016 1369 3016 2328 
Q 3016 3291 2770 3770 
Q 2525 4250 2034 4250 
z
M 2034 4750 
Q 2819 4750 3233 4129 
Q 3647 3509 3647 2328 
Q 3647 1150 3233 529 
Q 2819 -91 2034 -91 
Q 1250 -91 836 529 
Q 422 1150 422 2328 
Q 422 3509 836 4129 
Q 1250 4750 2034 4750 
z
" transform="scale(0.015625)"/>
        <path id="DejaVuSans-36" d="M 2113 2584 
Q 1688 2584 1439 2293 
Q 1191 2003 1191 1497 
Q 1191 994 1439 701 
Q 1688 409 2113 409 
Q 2538 409 2786 701 
Q 3034 994 3034 1497 
Q 3034 2003 2786 2293 
Q 2538 2584 2113 2584 
z
M 3366 4563 
L 3366 3988 
Q 3128 4100 2886 4159 
Q 2644 4219 2406 4219 
Q 1781 4219 1451 3797 
Q 1122 3375 1075 2522 
Q 1259 2794 1537 2939 
Q 1816 3084 2150 3084 
Q 2853 3084 3261 2657 
Q 3669 2231 3669 1497 
Q 3669 778 3244 343 
Q 2819 -91 2113 -91 
Q 1303 -91 875 529 
Q 447 1150 447 2328 
Q 447 3434 972 4092 
Q 1497 4750 2381 4750 
Q 2619 4750 2861 4703 
Q 3103 4656 3366 4563 
z
" transform="scale(0.015625)"/>
       </defs>
       <use xlink:href="#DejaVuSans-32"/>
       <use xlink:href="#DejaVuSans-30" x="63.623047"/>
       <use xlink:href="#DejaVuSans-30" x="127.246094"/>
       <use xlink:href="#DejaVuSans-36" x="190.869141"/>
      </g>
     </g>
    </g>
    <g id="xtick_2">
     <g id="line2d_3">
      <path d="M 218.7 320.4 
L 218.7 43.2 
" clip-path="url(#p9f35e96397)" style="fill: none; stroke: #ffffff; stroke-width: 1.4; stroke-linecap: square"/>
     </g>
     <g id="line2d_4">
      <g>
       <use xlink:href="#m9ca6a8c22a" x="218.7" y="320.4" style="fill: #7f7f7f; stroke: #7f7f7f; stroke-width: 1.4"/>
      </g>
     </g>
     <g id="text_2">
      <!-- 2008 -->
      <g style="fill: #7f7f7f" transform="translate(203.43 335.518125)scale(0.12 -0.12)">
       <defs>
        <path id="DejaVuSans-38" d="M 2034 2216 
Q 1584 2216 1326 1975 
Q 1069 1734 1069 1313 
Q 1069 891 1326 650 
Q 1584 409 2034 409 
Q 2484 409 2743 651 
Q 3003 894 3003 1313 
Q 3003 1734 2745 1975 
Q 2488 2216 2034 2216 
z
M 1403 2484 
Q 997 2584 770 2862 
Q 544 3141 544 3541 
Q 544 4100 942 4425 
Q 1341 4750 2034 4750 
Q 2731 4750 3128 4425 
Q 3525 4100 3525 3541 
Q 3525 3141 3298 2862 
Q 3072 2584 2669 2484 
Q 3125 2378 3379 2068 
Q 3634 1759 3634 1313 
Q 3634 634 3220 271 
Q 2806 -91 2034 -91 
Q 1263 -91 848 271 
Q 434 634 434 1313 
Q 434 1759 690 2068 
Q 947 2378 1403 2484 
z
M 1172 3481 
Q 1172 3119 1398 2916 
Q 1625 2713 2034 2713 
Q 2441 2713 2670 2916 
Q 2900 3119 2900 3481 
Q 2900 3844 2670 4047 
Q 2441 4250 2034 4250 
Q 1625 4250 1398 4047 
Q 1172 3844 1172 3481 
z
" transform="scale(0.015625)"/>
       </defs>
       <use xlink:href="#DejaVuSans-32"/>
       <use xlink:href="#DejaVuSans-30" x="63.623047"/>
       <use xlink:href="#DejaVuSans-30" x="127.246094"/>
       <use xlink:href="#DejaVuSans-38" x="190.869141"/>
      </g>
     </g>
    </g>
    <g id="xtick_3">
     <g id="line2d_5">
      <path d="M 281.7 320.4 
L 281.7 43.2 
" clip-path="url(#p9f35e96397)" style="fill: none; stroke: #ffffff; stroke-width: 1.4; stroke-linecap: square"/>
     </g>
     <g id="line2d_6">
      <g>
       <use xlink:href="#m9ca6a8c22a" x="281.7" y="320.4" style="fill: #7f7f7f; stroke: #7f7f7f; stroke-width: 1.4"/>
      </g>
     </g>
     <g id="text_3">
      <!-- 2010 -->
      <g style="fill: #7f7f7f" transform="translate(266.43 335.518125)scale(0.12 -0.12)">
       <defs>
        <path id="DejaVuSans-31" d="M 794 531 
L 1825 531 
L 1825 4091 
L 703 3866 
L 703 4441 
L 1819 4666 
L 2450 4666 
L 2450 531 
L 3481 531 
L 3481 0 
L 794 0 
L 794 531 
z
" transform="scale(0.015625)"/>
       </defs>
       <use xlink:href="#DejaVuSans-32"/>
       <use xlink:href="#DejaVuSans-30" x="63.623047"/>
       <use xlink:href="#DejaVuSans-31" x="127.246094"/>
       <use xlink:href="#DejaVuSans-30" x="190.869141"/>
      </g>
     </g>
    </g>
    <g id="xtick_4">
     <g id="line2d_7">
      <path d="M 344.7 320.4 
L 344.7 43.2 
" clip-path="url(#p9f35e96397)" style="fill: none; stroke: #ffffff; stroke-width: 1.4; stroke-linecap: square"/>
     </g>
     <g id="line2d_8">
      <g>
       <use xlink:href="#m9ca6a8c22a" x="344.7" y="320.4" style="fill: #7f7f7f; stroke: #7f7f7f; stroke-width: 1.4"/>
      </g>
     </g>
     <g id="text_4">
      <!-- 2012 -->
      <g style="fill: #7f7f7f" transform="translate(329.43 335.518125)scale(0.12 -0.12)">
       <use xlink:href="#DejaVuSans-32"/>
       <use xlink:href="#DejaVuSans-30" x="63.623047"/>
       <use xlink:href="#DejaVuSans-31" x="127.246094"/>
       <use xlink:href="#DejaVuSans-32" x="190.869141"/>
      </g>
     </g>
    </g>
    <g id="xtick_5">
     <g id="line2d_9">
      <path d="M 407.7 320.4 
L 407.7 43.2 
" clip-path="url(#p9f35e96397)" style="fill: none; stroke: #ffffff; stroke-width: 1.4; stroke-linecap: square"/>
     </g>
     <g id="line2d_10">
      <g>
       <use xlink:href="#m9ca6a8c22a" x="407.7" y="320.4" style="fill: #7f7f7f; stroke: #7f7f7f; stroke-width: 1.4"/>
      </g>
     </g>
     <g id="text_5">
      <!-- 2014 -->
      <g style="fill: #7f7f7f" transform="translate(392.43 335.518125)scale(0.12 -0.12)">
       <defs>
        <path id="DejaVuSans-34" d="M 2419 4116 
L 825 1625 
L 2419 1625 
L 2419 4116 
z
M 2253 4666 
L 3047 4666 
L 3047 1625 
L 3713 1625 
L 3713 1100 
L 3047 1100 
L 3047 0 
L 2419 0 
L 2419 1100 
L 313 1100 
L 313 1709 
L 2253 4666 
z
" transform="scale(0.015625)"/>
       </defs>
       <use xlink:href="#DejaVuSans-32"/>
       <use xlink:href="#DejaVuSans-30" x="63.623047"/>
       <use xlink:href="#DejaVuSans-31" x="127.246094"/>
       <use xlink:href="#DejaVuSans-34" x="190.869141"/>
      </g>
     </g>
    </g>
    <g id="xtick_6">
     <g id="line2d_11">
      <path d="M 470.7 320.4 
L 470.7 43.2 
" clip-path="url(#p9f35e96397)" style="fill: none; stroke: #ffffff; stroke-width: 1.4; stroke-linecap: square"/>
     </g>
     <g id="line2d_12">
      <g>
       <use xlink:href="#m9ca6a8c22a" x="470.7" y="320.4" style="fill: #7f7f7f; stroke: #7f7f7f; stroke-width: 1.4"/>
      </g>
     </g>
     <g id="text_6">
      <!-- 2016 -->
      <g style="fill: #7f7f7f" transform="translate(455.43 335.518125)scale(0.12 -0.12)">
       <use xlink:href="#DejaVuSans-32"/>
       <use xlink:href="#DejaVuSans-30" x="63.623047"/>
       <use xlink:href="#DejaVuSans-31" x="127.246094"/>
       <use xlink:href="#DejaVuSans-36" x="190.869141"/>
      </g>
     </g>
    </g>
    <g id="xtick_7">
     <g id="line2d_13">
      <path d="M 533.7 320.4 
L 533.7 43.2 
" clip-path="url(#p9f35e96397)" style="fill: none; stroke: #ffffff; stroke-width: 1.4; stroke-linecap: square"/>
     </g>
     <g id="line2d_14">
      <g>
       <use xlink:href="#m9ca6a8c22a" x="533.7" y="320.4" style="fill: #7f7f7f; stroke: #7f7f7f; stroke-width: 1.4"/>
      </g>
     </g>
     <g id="text_7">
      <!-- 2018 -->
      <g style="fill: #7f7f7f" transform="translate(518.43 335.518125)scale(0.12 -0.12)">
       <use xlink:href="#DejaVuSans-32"/>
       <use xlink:href="#DejaVuSans-30" x="63.623047"/>
       <use xlink:href="#DejaVuSans-31" x="127.246094"/>
       <use xlink:href="#DejaVuSans-38" x="190.869141"/>
      </g>
     </g>
    </g>
    <g id="xtick_8">
     <g id="line2d_15">
      <path d="M 596.7 320.4 
L 596.7 43.2 
" clip-path="url(#p9f35e96397)" style="fill: none; stroke: #ffffff; stroke-width: 1.4; stroke-linecap: square"/>
     </g>
     <g id="line2d_16">
      <g>
       <use xlink:href="#m9ca6a8c22a" x="596.7" y="320.4" style="fill: #7f7f7f; stroke: #7f7f7f; stroke-width: 1.4"/>
      </g>
     </g>
     <g id="text_8">
      <!-- 2020 -->
      <g style="fill: #7f7f7f" transform="translate(581.43 335.518125)scale(0.12 -0.12)">
       <use xlink:href="#DejaVuSans-32"/>
       <use xlink:href="#DejaVuSans-30" x="63.623047"/>
       <use xlink:href="#DejaVuSans-32" x="127.246094"/>
       <use xlink:href="#DejaVuSans-30" x="190.869141"/>
      </g>
     </g>
    </g>
    <g id="xtick_9">
     <g id="line2d_17">
      <path d="M 124.2 320.4 
L 124.2 43.2 
" clip-path="url(#p9f35e96397)" style="fill: none; stroke: #f2f2f2; stroke-width: 0.7; stroke-linecap: square"/>
     </g>
     <g id="line2d_18"/>
    </g>
    <g id="xtick_10">
     <g id="line2d_19">
      <path d="M 187.2 320.4 
L 187.2 43.2 
" clip-path="url(#p9f35e96397)" style="fill: none; stroke: #f2f2f2; stroke-width: 0.7; stroke-linecap: square"/>
     </g>
     <g id="line2d_20"/>
    </g>
    <g id="xtick_11">
     <g id="line2d_21">
      <path d="M 250.2 320.4 
L 250.2 43.2 
" clip-path="url(#p9f35e96397)" style="fill: none; stroke: #f2f2f2; stroke-width: 0.7; stroke-linecap: square"/>
     </g>
     <g id="line2d_22"/>
    </g>
    <g id="xtick_12">
     <g id="line2d_23">
      <path d="M 313.2 320.4 
L 313.2 43.2 
" clip-path="url(#p9f35e96397)" style="fill: none; stroke: #f2f2f2; stroke-width: 0.7; stroke-linecap: square"/>
     </g>
     <g id="line2d_24"/>
    </g>
    <g id="xtick_13">
     <g id="line2d_25">
      <path d="M 376.2 320.4 
L 376.2 43.2 
" clip-path="url(#p9f35e96397)" style="fill: none; stroke: #f2f2f2; stroke-width: 0.7; stroke-linecap: square"/>
     </g>
     <g id="line2d_26"/>
    </g>
    <g id="xtick_14">
     <g id="line2d_27">
      <path d="M 439.2 320.4 
L 439.2 43.2 
" clip-path="url(#p9f35e96397)" style="fill: none; stroke: #f2f2f2; stroke-width: 0.7; stroke-linecap: square"/>
     </g>
     <g id="line2d_28"/>
    </g>
    <g id="xtick_15">
     <g id="line2d_29">
      <path d="M 502.2 320.4 
L 502.2 43.2 
" clip-path="url(#p9f35e96397)" style="fill: none; stroke: #f2f2f2; stroke-width: 0.7; stroke-linecap: square"/>
     </g>
     <g id="line2d_30"/>
    </g>
    <g id="xtick_16">
     <g id="line2d_31">
      <path d="M 565.2 320.4 
L 565.2 43.2 
" clip-path="url(#p9f35e96397)" style="fill: none; stroke: #f2f2f2; stroke-width: 0.7; stroke-linecap: square"/>
     </g>
     <g id="line2d_32"/>
    </g>
    <g id="xtick_17">
     <g id="line2d_33">
      <path d="M 628.2 320.4 
L 628.2 43.2 
" clip-path="url(#p9f35e96397)" style="fill: none; stroke: #f2f2f2; stroke-width: 0.7; stroke-linecap: square"/>
     </g>
     <g id="line2d_34"/>
    </g>
   </g>
   <g id="matplotlib.axis_2">
    <g id="ytick_1">
     <g id="line2d_35">
      <path d="M 99 304.017058 
L 653.4 304.017058 
" clip-path="url(#p9f35e96397)" style="fill: none; stroke: #ffffff; stroke-width: 1.4; stroke-linecap: square"/>
     </g>
     <g id="line2d_36">
      <defs>
       <path id="mf8fc503705" d="M 0 0 
L -5 0 
" style="stroke: #7f7f7f; stroke-width: 1.4"/>
      </defs>
      <g>
       <use xlink:href="#mf8fc503705" x="99" y="304.017058" style="fill: #7f7f7f; stroke: #7f7f7f; stroke-width: 1.4"/>
      </g>
     </g>
     <g id="text_9">
      <!-- 100 -->
      <g style="fill: #7f7f7f" transform="translate(70.095 308.57612)scale(0.12 -0.12)">
       <use xlink:href="#DejaVuSans-31"/>
       <use xlink:href="#DejaVuSans-30" x="63.623047"/>
       <use xlink:href="#DejaVuSans-30" x="127.246094"/>
      </g>
     </g>
    </g>
    <g id="ytick_2">
     <g id="line2d_37">
      <path d="M 99 248.264188 
L 653.4 248.264188 
" clip-path="url(#p9f35e96397)" style="fill: none; stroke: #ffffff; stroke-width: 1.4; stroke-linecap: square"/>
     </g>
     <g id="line2d_38">
      <g>
       <use xlink:href="#mf8fc503705" x="99" y="248.264188" style="fill: #7f7f7f; stroke: #7f7f7f; stroke-width: 1.4"/>
      </g>
     </g>
     <g id="text_10">
      <!-- 200 -->
      <g style="fill: #7f7f7f" transform="translate(70.095 252.82325)scale(0.12 -0.12)">
       <use xlink:href="#DejaVuSans-32"/>
       <use xlink:href="#DejaVuSans-30" x="63.623047"/>
       <use xlink:href="#DejaVuSans-30" x="127.246094"/>
      </g>
     </g>
    </g>
    <g id="ytick_3">
     <g id="line2d_39">
      <path d="M 99 192.511318 
L 653.4 192.511318 
" clip-path="url(#p9f35e96397)" style="fill: none; stroke: #ffffff; stroke-width: 1.4; stroke-linecap: square"/>
     </g>
     <g id="line2d_40">
      <g>
       <use xlink:href="#mf8fc503705" x="99" y="192.511318" style="fill: #7f7f7f; stroke: #7f7f7f; stroke-width: 1.4"/>
      </g>
     </g>
     <g id="text_11">
      <!-- 300 -->
      <g style="fill: #7f7f7f" transform="translate(70.095 197.070381)scale(0.12 -0.12)">
       <defs>
        <path id="DejaVuSans-33" d="M 2597 2516 
Q 3050 2419 3304 2112 
Q 3559 1806 3559 1356 
Q 3559 666 3084 287 
Q 2609 -91 1734 -91 
Q 1441 -91 1130 -33 
Q 819 25 488 141 
L 488 750 
Q 750 597 1062 519 
Q 1375 441 1716 441 
Q 2309 441 2620 675 
Q 2931 909 2931 1356 
Q 2931 1769 2642 2001 
Q 2353 2234 1838 2234 
L 1294 2234 
L 1294 2753 
L 1863 2753 
Q 2328 2753 2575 2939 
Q 2822 3125 2822 3475 
Q 2822 3834 2567 4026 
Q 2313 4219 1838 4219 
Q 1578 4219 1281 4162 
Q 984 4106 628 3988 
L 628 4550 
Q 988 4650 1302 4700 
Q 1616 4750 1894 4750 
Q 2613 4750 3031 4423 
Q 3450 4097 3450 3541 
Q 3450 3153 3228 2886 
Q 3006 2619 2597 2516 
z
" transform="scale(0.015625)"/>
       </defs>
       <use xlink:href="#DejaVuSans-33"/>
       <use xlink:href="#DejaVuSans-30" x="63.623047"/>
       <use xlink:href="#DejaVuSans-30" x="127.246094"/>
      </g>
     </g>
    </g>
    <g id="ytick_4">
     <g id="line2d_41">
      <path d="M 99 136.758448 
L 653.4 136.758448 
" clip-path="url(#p9f35e96397)" style="fill: none; stroke: #ffffff; stroke-width: 1.4; stroke-linecap: square"/>
     </g>
     <g id="line2d_42">
      <g>
       <use xlink:href="#mf8fc503705" x="99" y="136.758448" style="fill: #7f7f7f; stroke: #7f7f7f; stroke-width: 1.4"/>
      </g>
     </g>
     <g id="text_12">
      <!-- 400 -->
      <g style="fill: #7f7f7f" transform="translate(70.095 141.317511)scale(0.12 -0.12)">
       <use xlink:href="#DejaVuSans-34"/>
       <use xlink:href="#DejaVuSans-30" x="63.623047"/>
       <use xlink:href="#DejaVuSans-30" x="127.246094"/>
      </g>
     </g>
    </g>
    <g id="ytick_5">
     <g id="line2d_43">
      <path d="M 99 81.005579 
L 653.4 81.005579 
" clip-path="url(#p9f35e96397)" style="fill: none; stroke: #ffffff; stroke-width: 1.4; stroke-linecap: square"/>
     </g>
     <g id="line2d_44">
      <g>
       <use xlink:href="#mf8fc503705" x="99" y="81.005579" style="fill: #7f7f7f; stroke: #7f7f7f; stroke-width: 1.4"/>
      </g>
     </g>
     <g id="text_13">
      <!-- 500 -->
      <g style="fill: #7f7f7f" transform="translate(70.095 85.564641)scale(0.12 -0.12)">
       <defs>
        <path id="DejaVuSans-35" d="M 691 4666 
L 3169 4666 
L 3169 4134 
L 1269 4134 
L 1269 2991 
Q 1406 3038 1543 3061 
Q 1681 3084 1819 3084 
Q 2600 3084 3056 2656 
Q 3513 2228 3513 1497 
Q 3513 744 3044 326 
Q 2575 -91 1722 -91 
Q 1428 -91 1123 -41 
Q 819 9 494 109 
L 494 744 
Q 775 591 1075 516 
Q 1375 441 1709 441 
Q 2250 441 2565 725 
Q 2881 1009 2881 1497 
Q 2881 1984 2565 2268 
Q 2250 2553 1709 2553 
Q 1456 2553 1204 2497 
Q 953 2441 691 2322 
L 691 4666 
z
" transform="scale(0.015625)"/>
       </defs>
       <use xlink:href="#DejaVuSans-35"/>
       <use xlink:href="#DejaVuSans-30" x="63.623047"/>
       <use xlink:href="#DejaVuSans-30" x="127.246094"/>
      </g>
     </g>
    </g>
    <g id="ytick_6">
     <g id="line2d_45">
      <path d="M 99 276.140623 
L 653.4 276.140623 
" clip-path="url(#p9f35e96397)" style="fill: none; stroke: #f2f2f2; stroke-width: 0.7; stroke-linecap: square"/>
     </g>
     <g id="line2d_46"/>
    </g>
    <g id="ytick_7">
     <g id="line2d_47">
      <path d="M 99 220.387753 
L 653.4 220.387753 
" clip-path="url(#p9f35e96397)" style="fill: none; stroke: #f2f2f2; stroke-width: 0.7; stroke-linecap: square"/>
     </g>
     <g id="line2d_48"/>
    </g>
    <g id="ytick_8">
     <g id="line2d_49">
      <path d="M 99 164.634883 
L 653.4 164.634883 
" clip-path="url(#p9f35e96397)" style="fill: none; stroke: #f2f2f2; stroke-width: 0.7; stroke-linecap: square"/>
     </g>
     <g id="line2d_50"/>
    </g>
    <g id="ytick_9">
     <g id="line2d_51">
      <path d="M 99 108.882013 
L 653.4 108.882013 
" clip-path="url(#p9f35e96397)" style="fill: none; stroke: #f2f2f2; stroke-width: 0.7; stroke-linecap: square"/>
     </g>
     <g id="line2d_52"/>
    </g>
    <g id="ytick_10">
     <g id="line2d_53">
      <path d="M 99 53.129144 
L 653.4 53.129144 
" clip-path="url(#p9f35e96397)" style="fill: none; stroke: #f2f2f2; stroke-width: 0.7; stroke-linecap: square"/>
     </g>
     <g id="line2d_54"/>
    </g>
   </g>
   <g id="line2d_55">
    <path d="M 124.2 277.221962 
L 155.7 269.300365 
L 187.2 263.445112 
L 218.7 267.727056 
L 250.2 279.359672 
L 281.7 286.322929 
L 313.2 295.573152 
L 344.7 301.985873 
L 376.2 304.473479 
L 407.7 301.873727 
L 439.2 297.136387 
L 470.7 293.068418 
L 502.2 287.597317 
L 533.7 281.568339 
L 565.2 278.873569 
L 596.7 278.210887 
L 628.2 274.218892 
" clip-path="url(#p9f35e96397)" style="fill: none; stroke: #f7746a; stroke-linecap: square"/>
   </g>
   <g id="line2d_56">
    <path d="M 124.2 248.836069 
L 155.7 235.767284 
L 187.2 226.107485 
L 218.7 233.171693 
L 250.2 252.362791 
L 281.7 263.850539 
L 313.2 279.111246 
L 344.7 289.690739 
L 376.2 293.794707 
L 407.7 289.505724 
L 439.2 281.690221 
L 470.7 274.979021 
L 502.2 265.952982 
L 533.7 256.006577 
L 565.2 251.560835 
L 596.7 250.467565 
L 628.2 243.881705 
" clip-path="url(#p9f35e96397)" style="fill: none; stroke: #a0a131; stroke-linecap: square"/>
   </g>
   <g id="line2d_57">
    <path d="M 124.2 216.751891 
L 155.7 200.269035 
L 187.2 188.085723 
L 218.7 196.995375 
L 250.2 221.199928 
L 281.7 235.688719 
L 313.2 254.936112 
L 344.7 268.279376 
L 376.2 273.455459 
L 407.7 268.046028 
L 439.2 258.188813 
L 470.7 249.72439 
L 502.2 238.340401 
L 533.7 225.795611 
L 565.2 220.18847 
L 596.7 218.809596 
L 628.2 210.503255 
" clip-path="url(#p9f35e96397)" style="fill: none; stroke: #34af8b; stroke-linecap: square"/>
   </g>
   <g id="line2d_58">
    <path d="M 124.2 159.798303 
L 155.7 138.540917 
L 187.2 122.828509 
L 218.7 134.318987 
L 250.2 165.534787 
L 281.7 184.220494 
L 313.2 209.043211 
L 344.7 226.25157 
L 376.2 232.926991 
L 407.7 225.950629 
L 439.2 213.238111 
L 470.7 202.321828 
L 502.2 187.640279 
L 533.7 171.461686 
L 565.2 164.230344 
L 596.7 162.452056 
L 628.2 151.739647 
" clip-path="url(#p9f35e96397)" style="fill: none; stroke: #39a7d4; stroke-linecap: square"/>
   </g>
   <g id="line2d_59">
    <path d="M 124.2 104.868806 
L 155.7 68.868253 
L 187.2 55.8 
L 218.7 78.586155 
L 250.2 133.690934 
L 281.7 162.632493 
L 313.2 185.287746 
L 344.7 199.038011 
L 376.2 188.823528 
L 407.7 160.982461 
L 439.2 146.773801 
L 470.7 138.82489 
L 502.2 123.137016 
L 533.7 107.658145 
L 565.2 107.683288 
L 596.7 108.66545 
L 628.2 98.271821 
" clip-path="url(#p9f35e96397)" style="fill: none; stroke: #e668f4; stroke-linecap: square"/>
   </g>
   <g id="line2d_60">
    <path d="M 281.7 268.103944 
L 313.2 282.704691 
L 344.7 297.30745 
L 376.2 306.688218 
L 407.7 307.8 
L 439.2 302.537131 
L 470.7 299.564641 
L 502.2 292.978398 
L 533.7 288.200105 
L 565.2 282.513539 
L 596.7 280.824589 
L 628.2 271.68026 
" clip-path="url(#p9f35e96397)" style="fill: none; stroke-dasharray: 3.7,1.6; stroke-dashoffset: 0; stroke: #f7746a"/>
   </g>
   <g id="line2d_61">
    <path d="M 281.7 254.633496 
L 313.2 273.59268 
L 344.7 287.951552 
L 376.2 292.772536 
L 407.7 291.227167 
L 439.2 285.690519 
L 470.7 278.876326 
L 502.2 269.580362 
L 533.7 260.334567 
L 565.2 254.725191 
L 596.7 250.671533 
L 628.2 240.435932 
" clip-path="url(#p9f35e96397)" style="fill: none; stroke-dasharray: 3.7,1.6; stroke-dashoffset: 0; stroke: #a0a131"/>
   </g>
   <g id="line2d_62">
    <path d="M 281.7 234.058834 
L 313.2 252.328832 
L 344.7 265.594017 
L 376.2 272.446449 
L 407.7 269.435891 
L 439.2 262.086073 
L 470.7 250.990054 
L 502.2 239.95206 
L 533.7 227.213553 
L 565.2 220.757137 
L 596.7 217.371126 
L 628.2 209.722202 
" clip-path="url(#p9f35e96397)" style="fill: none; stroke-dasharray: 3.7,1.6; stroke-dashoffset: 0; stroke: #34af8b"/>
   </g>
   <g id="line2d_63">
    <path d="M 281.7 198.559178 
L 313.2 219.847488 
L 344.7 237.241363 
L 376.2 231.020417 
L 407.7 216.071486 
L 439.2 203.920606 
L 470.7 194.469551 
L 502.2 184.244455 
L 533.7 173.323191 
L 565.2 170.008727 
L 596.7 159.411174 
L 628.2 143.35921 
" clip-path="url(#p9f35e96397)" style="fill: none; stroke-dasharray: 3.7,1.6; stroke-dashoffset: 0; stroke: #39a7d4"/>
   </g>
   <g id="line2d_64">
    <path d="M 281.7 170.19266 
L 313.2 181.146392 
L 344.7 196.319612 
L 376.2 183.709157 
L 407.7 163.960581 
L 439.2 154.406368 
L 470.7 137.902634 
L 502.2 121.728136 
L 533.7 111.27984 
L 565.2 115.776814 
L 596.7 110.217919 
L 628.2 81.138539 
" clip-path="url(#p9f35e96397)" style="fill: none; stroke-dasharray: 3.7,1.6; stroke-dashoffset: 0; stroke: #e668f4"/>
   </g>
   <g id="patch_3">
    <path d="M 99 320.4 
L 99 43.2 
" style="fill: none; opacity: 0"/>
   </g>
   <g id="patch_4">
    <path d="M 653.4 320.4 
L 653.4 43.2 
" style="fill: none; opacity: 0"/>
   </g>
   <g id="patch_5">
    <path d="M 99 320.4 
L 653.4 320.4 
" style="fill: none; opacity: 0"/>
   </g>
   <g id="patch_6">
    <path d="M 99 43.2 
L 653.4 43.2 
" style="fill: none; opacity: 0"/>
   </g>
   <g id="legend_1">
    <g id="patch_7">
     <path d="M 690.1164 120.27259 
L 710.1084 120.27259 
L 710.1084 113.27539 
L 690.1164 113.27539 
L 690.1164 120.27259 
z
" style="fill: none"/>
    </g>
    <g id="text_14">
     <!-- Group -->
     <g transform="translate(718.1052 120.27259)scale(0.09996 -0.09996)">
      <defs>
       <path id="DejaVuSans-47" d="M 3809 666 
L 3809 1919 
L 2778 1919 
L 2778 2438 
L 4434 2438 
L 4434 434 
Q 4069 175 3628 42 
Q 3188 -91 2688 -91 
Q 1594 -91 976 548 
Q 359 1188 359 2328 
Q 359 3472 976 4111 
Q 1594 4750 2688 4750 
Q 3144 4750 3555 4637 
Q 3966 4525 4313 4306 
L 4313 3634 
Q 3963 3931 3569 4081 
Q 3175 4231 2741 4231 
Q 1884 4231 1454 3753 
Q 1025 3275 1025 2328 
Q 1025 1384 1454 906 
Q 1884 428 2741 428 
Q 3075 428 3337 486 
Q 3600 544 3809 666 
z
" transform="scale(0.015625)"/>
       <path id="DejaVuSans-72" d="M 2631 2963 
Q 2534 3019 2420 3045 
Q 2306 3072 2169 3072 
Q 1681 3072 1420 2755 
Q 1159 2438 1159 1844 
L 1159 0 
L 581 0 
L 581 3500 
L 1159 3500 
L 1159 2956 
Q 1341 3275 1631 3429 
Q 1922 3584 2338 3584 
Q 2397 3584 2469 3576 
Q 2541 3569 2628 3553 
L 2631 2963 
z
" transform="scale(0.015625)"/>
       <path id="DejaVuSans-6f" d="M 1959 3097 
Q 1497 3097 1228 2736 
Q 959 2375 959 1747 
Q 959 1119 1226 758 
Q 1494 397 1959 397 
Q 2419 397 2687 759 
Q 2956 1122 2956 1747 
Q 2956 2369 2687 2733 
Q 2419 3097 1959 3097 
z
M 1959 3584 
Q 2709 3584 3137 3096 
Q 3566 2609 3566 1747 
Q 3566 888 3137 398 
Q 2709 -91 1959 -91 
Q 1206 -91 779 398 
Q 353 888 353 1747 
Q 353 2609 779 3096 
Q 1206 3584 1959 3584 
z
" transform="scale(0.015625)"/>
       <path id="DejaVuSans-75" d="M 544 1381 
L 544 3500 
L 1119 3500 
L 1119 1403 
Q 1119 906 1312 657 
Q 1506 409 1894 409 
Q 2359 409 2629 706 
Q 2900 1003 2900 1516 
L 2900 3500 
L 3475 3500 
L 3475 0 
L 2900 0 
L 2900 538 
Q 2691 219 2414 64 
Q 2138 -91 1772 -91 
Q 1169 -91 856 284 
Q 544 659 544 1381 
z
M 1991 3584 
L 1991 3584 
z
" transform="scale(0.015625)"/>
       <path id="DejaVuSans-70" d="M 1159 525 
L 1159 -1331 
L 581 -1331 
L 581 3500 
L 1159 3500 
L 1159 2969 
Q 1341 3281 1617 3432 
Q 1894 3584 2278 3584 
Q 2916 3584 3314 3078 
Q 3713 2572 3713 1747 
Q 3713 922 3314 415 
Q 2916 -91 2278 -91 
Q 1894 -91 1617 61 
Q 1341 213 1159 525 
z
M 3116 1747 
Q 3116 2381 2855 2742 
Q 2594 3103 2138 3103 
Q 1681 3103 1420 2742 
Q 1159 2381 1159 1747 
Q 1159 1113 1420 752 
Q 1681 391 2138 391 
Q 2594 391 2855 752 
Q 3116 1113 3116 1747 
z
" transform="scale(0.015625)"/>
      </defs>
      <use xlink:href="#DejaVuSans-47"/>
      <use xlink:href="#DejaVuSans-72" x="77.490234"/>
      <use xlink:href="#DejaVuSans-6f" x="116.353516"/>
      <use xlink:href="#DejaVuSans-75" x="177.535156"/>
      <use xlink:href="#DejaVuSans-70" x="240.914062"/>
     </g>
    </g>
    <g id="line2d_65">
     <path d="M 690.1164 131.446243 
L 700.1124 131.446243 
L 710.1084 131.446243 
" style="fill: none; stroke: #f7746a; stroke-width: 5; stroke-linecap: square"/>
    </g>
    <g id="text_15">
     <!-- 1 -->
     <g transform="translate(718.1052 134.944843)scale(0.09996 -0.09996)">
      <use xlink:href="#DejaVuSans-31"/>
     </g>
    </g>
    <g id="line2d_66">
     <path d="M 690.1164 146.118497 
L 700.1124 146.118497 
L 710.1084 146.118497 
" style="fill: none; stroke: #a0a131; stroke-width: 5; stroke-linecap: square"/>
    </g>
    <g id="text_16">
     <!-- 2 -->
     <g transform="translate(718.1052 149.617097)scale(0.09996 -0.09996)">
      <use xlink:href="#DejaVuSans-32"/>
     </g>
    </g>
    <g id="line2d_67">
     <path d="M 690.1164 160.790751 
L 700.1124 160.790751 
L 710.1084 160.790751 
" style="fill: none; stroke: #34af8b; stroke-width: 5; stroke-linecap: square"/>
    </g>
    <g id="text_17">
     <!-- 3 -->
     <g transform="translate(718.1052 164.289351)scale(0.09996 -0.09996)">
      <use xlink:href="#DejaVuSans-33"/>
     </g>
    </g>
    <g id="line2d_68">
     <path d="M 690.1164 175.463005 
L 700.1124 175.463005 
L 710.1084 175.463005 
" style="fill: none; stroke: #39a7d4; stroke-width: 5; stroke-linecap: square"/>
    </g>
    <g id="text_18">
     <!-- 4 -->
     <g transform="translate(718.1052 178.961605)scale(0.09996 -0.09996)">
      <use xlink:href="#DejaVuSans-34"/>
     </g>
    </g>
    <g id="line2d_69">
     <path d="M 690.1164 190.135258 
L 700.1124 190.135258 
L 710.1084 190.135258 
" style="fill: none; stroke: #e668f4; stroke-width: 5; stroke-linecap: square"/>
    </g>
    <g id="text_19">
     <!-- 5 -->
     <g transform="translate(718.1052 193.633858)scale(0.09996 -0.09996)">
      <use xlink:href="#DejaVuSans-35"/>
     </g>
    </g>
    <g id="patch_8">
     <path d="M 690.1164 214.942207 
L 710.1084 214.942207 
L 710.1084 207.945007 
L 690.1164 207.945007 
L 690.1164 214.942207 
z
" style="fill: none"/>
    </g>
    <g id="text_20">
     <!--  -->
     <g transform="translate(718.1052 208.306112)scale(0.09996 -0.09996)"/>
     <!-- Type -->
     <g transform="translate(718.1052 219.499445)scale(0.09996 -0.09996)">
      <defs>
       <path id="DejaVuSans-54" d="M -19 4666 
L 3928 4666 
L 3928 4134 
L 2272 4134 
L 2272 0 
L 1638 0 
L 1638 4134 
L -19 4134 
L -19 4666 
z
" transform="scale(0.015625)"/>
       <path id="DejaVuSans-79" d="M 2059 -325 
Q 1816 -950 1584 -1140 
Q 1353 -1331 966 -1331 
L 506 -1331 
L 506 -850 
L 844 -850 
Q 1081 -850 1212 -737 
Q 1344 -625 1503 -206 
L 1606 56 
L 191 3500 
L 800 3500 
L 1894 763 
L 2988 3500 
L 3597 3500 
L 2059 -325 
z
" transform="scale(0.015625)"/>
       <path id="DejaVuSans-65" d="M 3597 1894 
L 3597 1613 
L 953 1613 
Q 991 1019 1311 708 
Q 1631 397 2203 397 
Q 2534 397 2845 478 
Q 3156 559 3463 722 
L 3463 178 
Q 3153 47 2828 -22 
Q 2503 -91 2169 -91 
Q 1331 -91 842 396 
Q 353 884 353 1716 
Q 353 2575 817 3079 
Q 1281 3584 2069 3584 
Q 2775 3584 3186 3129 
Q 3597 2675 3597 1894 
z
M 3022 2063 
Q 3016 2534 2758 2815 
Q 2500 3097 2075 3097 
Q 1594 3097 1305 2825 
Q 1016 2553 972 2059 
L 3022 2063 
z
" transform="scale(0.015625)"/>
      </defs>
      <use xlink:href="#DejaVuSans-54"/>
      <use xlink:href="#DejaVuSans-79" x="45.458984"/>
      <use xlink:href="#DejaVuSans-70" x="104.638672"/>
      <use xlink:href="#DejaVuSans-65" x="168.115234"/>
     </g>
    </g>
    <g id="line2d_70">
     <path d="M 690.1164 230.673099 
L 700.1124 230.673099 
L 710.1084 230.673099 
" style="fill: none; stroke: #000000; stroke-linecap: square"/>
    </g>
    <g id="text_21">
     <!-- Estimated -->
     <g transform="translate(718.1052 234.171699)scale(0.09996 -0.09996)">
      <defs>
       <path id="DejaVuSans-45" d="M 628 4666 
L 3578 4666 
L 3578 4134 
L 1259 4134 
L 1259 2753 
L 3481 2753 
L 3481 2222 
L 1259 2222 
L 1259 531 
L 3634 531 
L 3634 0 
L 628 0 
L 628 4666 
z
" transform="scale(0.015625)"/>
       <path id="DejaVuSans-73" d="M 2834 3397 
L 2834 2853 
Q 2591 2978 2328 3040 
Q 2066 3103 1784 3103 
Q 1356 3103 1142 2972 
Q 928 2841 928 2578 
Q 928 2378 1081 2264 
Q 1234 2150 1697 2047 
L 1894 2003 
Q 2506 1872 2764 1633 
Q 3022 1394 3022 966 
Q 3022 478 2636 193 
Q 2250 -91 1575 -91 
Q 1294 -91 989 -36 
Q 684 19 347 128 
L 347 722 
Q 666 556 975 473 
Q 1284 391 1588 391 
Q 1994 391 2212 530 
Q 2431 669 2431 922 
Q 2431 1156 2273 1281 
Q 2116 1406 1581 1522 
L 1381 1569 
Q 847 1681 609 1914 
Q 372 2147 372 2553 
Q 372 3047 722 3315 
Q 1072 3584 1716 3584 
Q 2034 3584 2315 3537 
Q 2597 3491 2834 3397 
z
" transform="scale(0.015625)"/>
       <path id="DejaVuSans-74" d="M 1172 4494 
L 1172 3500 
L 2356 3500 
L 2356 3053 
L 1172 3053 
L 1172 1153 
Q 1172 725 1289 603 
Q 1406 481 1766 481 
L 2356 481 
L 2356 0 
L 1766 0 
Q 1100 0 847 248 
Q 594 497 594 1153 
L 594 3053 
L 172 3053 
L 172 3500 
L 594 3500 
L 594 4494 
L 1172 4494 
z
" transform="scale(0.015625)"/>
       <path id="DejaVuSans-69" d="M 603 3500 
L 1178 3500 
L 1178 0 
L 603 0 
L 603 3500 
z
M 603 4863 
L 1178 4863 
L 1178 4134 
L 603 4134 
L 603 4863 
z
" transform="scale(0.015625)"/>
       <path id="DejaVuSans-6d" d="M 3328 2828 
Q 3544 3216 3844 3400 
Q 4144 3584 4550 3584 
Q 5097 3584 5394 3201 
Q 5691 2819 5691 2113 
L 5691 0 
L 5113 0 
L 5113 2094 
Q 5113 2597 4934 2840 
Q 4756 3084 4391 3084 
Q 3944 3084 3684 2787 
Q 3425 2491 3425 1978 
L 3425 0 
L 2847 0 
L 2847 2094 
Q 2847 2600 2669 2842 
Q 2491 3084 2119 3084 
Q 1678 3084 1418 2786 
Q 1159 2488 1159 1978 
L 1159 0 
L 581 0 
L 581 3500 
L 1159 3500 
L 1159 2956 
Q 1356 3278 1631 3431 
Q 1906 3584 2284 3584 
Q 2666 3584 2933 3390 
Q 3200 3197 3328 2828 
z
" transform="scale(0.015625)"/>
       <path id="DejaVuSans-61" d="M 2194 1759 
Q 1497 1759 1228 1600 
Q 959 1441 959 1056 
Q 959 750 1161 570 
Q 1363 391 1709 391 
Q 2188 391 2477 730 
Q 2766 1069 2766 1631 
L 2766 1759 
L 2194 1759 
z
M 3341 1997 
L 3341 0 
L 2766 0 
L 2766 531 
Q 2569 213 2275 61 
Q 1981 -91 1556 -91 
Q 1019 -91 701 211 
Q 384 513 384 1019 
Q 384 1609 779 1909 
Q 1175 2209 1959 2209 
L 2766 2209 
L 2766 2266 
Q 2766 2663 2505 2880 
Q 2244 3097 1772 3097 
Q 1472 3097 1187 3025 
Q 903 2953 641 2809 
L 641 3341 
Q 956 3463 1253 3523 
Q 1550 3584 1831 3584 
Q 2591 3584 2966 3190 
Q 3341 2797 3341 1997 
z
" transform="scale(0.015625)"/>
       <path id="DejaVuSans-64" d="M 2906 2969 
L 2906 4863 
L 3481 4863 
L 3481 0 
L 2906 0 
L 2906 525 
Q 2725 213 2448 61 
Q 2172 -91 1784 -91 
Q 1150 -91 751 415 
Q 353 922 353 1747 
Q 353 2572 751 3078 
Q 1150 3584 1784 3584 
Q 2172 3584 2448 3432 
Q 2725 3281 2906 2969 
z
M 947 1747 
Q 947 1113 1208 752 
Q 1469 391 1925 391 
Q 2381 391 2643 752 
Q 2906 1113 2906 1747 
Q 2906 2381 2643 2742 
Q 2381 3103 1925 3103 
Q 1469 3103 1208 2742 
Q 947 2381 947 1747 
z
" transform="scale(0.015625)"/>
      </defs>
      <use xlink:href="#DejaVuSans-45"/>
      <use xlink:href="#DejaVuSans-73" x="63.183594"/>
      <use xlink:href="#DejaVuSans-74" x="115.283203"/>
      <use xlink:href="#DejaVuSans-69" x="154.492188"/>
      <use xlink:href="#DejaVuSans-6d" x="182.275391"/>
      <use xlink:href="#DejaVuSans-61" x="279.6875"/>
      <use xlink:href="#DejaVuSans-74" x="340.966797"/>
      <use xlink:href="#DejaVuSans-65" x="380.175781"/>
      <use xlink:href="#DejaVuSans-64" x="441.699219"/>
     </g>
    </g>
    <g id="line2d_71">
     <path d="M 690.1164 245.345353 
L 700.1124 245.345353 
L 710.1084 245.345353 
" style="fill: none; stroke-dasharray: 3.7,1.6; stroke-dashoffset: 0; stroke: #000000"/>
    </g>
    <g id="text_22">
     <!-- Exact -->
     <g transform="translate(718.1052 248.843953)scale(0.09996 -0.09996)">
      <defs>
       <path id="DejaVuSans-78" d="M 3513 3500 
L 2247 1797 
L 3578 0 
L 2900 0 
L 1881 1375 
L 863 0 
L 184 0 
L 1544 1831 
L 300 3500 
L 978 3500 
L 1906 2253 
L 2834 3500 
L 3513 3500 
z
" transform="scale(0.015625)"/>
       <path id="DejaVuSans-63" d="M 3122 3366 
L 3122 2828 
Q 2878 2963 2633 3030 
Q 2388 3097 2138 3097 
Q 1578 3097 1268 2742 
Q 959 2388 959 1747 
Q 959 1106 1268 751 
Q 1578 397 2138 397 
Q 2388 397 2633 464 
Q 2878 531 3122 666 
L 3122 134 
Q 2881 22 2623 -34 
Q 2366 -91 2075 -91 
Q 1284 -91 818 406 
Q 353 903 353 1747 
Q 353 2603 823 3093 
Q 1294 3584 2113 3584 
Q 2378 3584 2631 3529 
Q 2884 3475 3122 3366 
z
" transform="scale(0.015625)"/>
      </defs>
      <use xlink:href="#DejaVuSans-45"/>
      <use xlink:href="#DejaVuSans-78" x="63.183594"/>
      <use xlink:href="#DejaVuSans-61" x="122.363281"/>
      <use xlink:href="#DejaVuSans-63" x="183.642578"/>
      <use xlink:href="#DejaVuSans-74" x="238.623047"/>
     </g>
    </g>
   </g>
  </g>
  <g id="text_23">
   <!--   -->
   <g transform="translate(394.093125 342)scale(0.12 -0.12)">
    <defs>
     <path id="DejaVuSans-20" transform="scale(0.015625)"/>
    </defs>
    <use xlink:href="#DejaVuSans-20"/>
   </g>
  </g>
  <g id="text_24">
   <!-- Value (€1,000) -->
   <g transform="translate(42.91125 182.495625)rotate(-90)scale(0.12 -0.12)">
    <defs>
     <path id="DejaVuSans-56" d="M 1831 0 
L 50 4666 
L 709 4666 
L 2188 738 
L 3669 4666 
L 4325 4666 
L 2547 0 
L 1831 0 
z
" transform="scale(0.015625)"/>
     <path id="DejaVuSans-6c" d="M 603 4863 
L 1178 4863 
L 1178 0 
L 603 0 
L 603 4863 
z
" transform="scale(0.015625)"/>
     <path id="DejaVuSans-28" d="M 1984 4856 
Q 1566 4138 1362 3434 
Q 1159 2731 1159 2009 
Q 1159 1288 1364 580 
Q 1569 -128 1984 -844 
L 1484 -844 
Q 1016 -109 783 600 
Q 550 1309 550 2009 
Q 550 2706 781 3412 
Q 1013 4119 1484 4856 
L 1984 4856 
z
" transform="scale(0.015625)"/>
     <path id="DejaVuSans-20ac" d="M 3647 4306 
L 3647 3641 
Q 3363 3969 3098 4109 
Q 2834 4250 2516 4250 
Q 2025 4250 1709 3937 
Q 1394 3625 1294 3041 
L 3097 3041 
L 2925 2656 
L 1244 2656 
Q 1238 2581 1236 2509 
Q 1234 2438 1234 2328 
Q 1234 2228 1236 2156 
Q 1238 2084 1244 2009 
L 2638 2009 
L 2463 1625 
L 1294 1625 
Q 1394 1041 1709 725 
Q 2025 409 2516 409 
Q 2834 409 3098 550 
Q 3363 691 3647 1019 
L 3647 359 
Q 3369 134 3080 21 
Q 2791 -91 2491 -91 
Q 1750 -91 1267 362 
Q 784 816 659 1625 
L 0 1625 
L 172 2009 
L 606 2009 
Q 606 2081 604 2154 
Q 603 2228 603 2328 
Q 603 2438 604 2511 
Q 606 2584 606 2656 
L 0 2656 
L 172 3041 
L 659 3041 
Q 784 3844 1268 4297 
Q 1753 4750 2491 4750 
Q 2797 4750 3086 4639 
Q 3375 4528 3647 4306 
z
" transform="scale(0.015625)"/>
     <path id="DejaVuSans-2c" d="M 750 794 
L 1409 794 
L 1409 256 
L 897 -744 
L 494 -744 
L 750 256 
L 750 794 
z
" transform="scale(0.015625)"/>
     <path id="DejaVuSans-29" d="M 513 4856 
L 1013 4856 
Q 1481 4119 1714 3412 
Q 1947 2706 1947 2009 
Q 1947 1309 1714 600 
Q 1481 -109 1013 -844 
L 513 -844 
Q 928 -128 1133 580 
Q 1338 1288 1338 2009 
Q 1338 2731 1133 3434 
Q 928 4138 513 4856 
z
" transform="scale(0.015625)"/>
    </defs>
    <use xlink:href="#DejaVuSans-56"/>
    <use xlink:href="#DejaVuSans-61" x="60.658203"/>
    <use xlink:href="#DejaVuSans-6c" x="121.9375"/>
    <use xlink:href="#DejaVuSans-75" x="149.720703"/>
    <use xlink:href="#DejaVuSans-65" x="213.099609"/>
    <use xlink:href="#DejaVuSans-20" x="274.623047"/>
    <use xlink:href="#DejaVuSans-28" x="306.410156"/>
    <use xlink:href="#DejaVuSans-20ac" x="345.423828"/>
    <use xlink:href="#DejaVuSans-31" x="409.046875"/>
    <use xlink:href="#DejaVuSans-2c" x="472.669922"/>
    <use xlink:href="#DejaVuSans-30" x="504.457031"/>
    <use xlink:href="#DejaVuSans-30" x="568.080078"/>
    <use xlink:href="#DejaVuSans-30" x="631.703125"/>
    <use xlink:href="#DejaVuSans-29" x="695.326172"/>
   </g>
  </g>
 </g>
 <defs>
  <clipPath id="p9f35e96397">
   <rect x="99" y="43.2" width="554.4" height="277.2"/>
  </clipPath>
 </defs>
</svg>
