<?xml version="1.0" encoding="utf-8" standalone="no"?>
<!DOCTYPE svg PUBLIC "-//W3C//DTD SVG 1.1//EN"
  "http://www.w3.org/Graphics/SVG/1.1/DTD/svg11.dtd">
<svg xmlns:xlink="http://www.w3.org/1999/xlink" width="792pt" height="576pt" viewBox="0 0 792 576" xmlns="http://www.w3.org/2000/svg" version="1.1">
 <metadata>
  <rdf:RDF xmlns:dc="http://purl.org/dc/elements/1.1/" xmlns:cc="http://creativecommons.org/ns#" xmlns:rdf="http://www.w3.org/1999/02/22-rdf-syntax-ns#">
   <cc:Work>
    <dc:type rdf:resource="http://purl.org/dc/dcmitype/StillImage"/>
    <dc:date>2021-12-02T04:07:06.381159</dc:date>
    <dc:format>image/svg+xml</dc:format>
    <dc:creator>
     <cc:Agent>
      <dc:title>Matplotlib v3.5.0, https://matplotlib.org/</dc:title>
     </cc:Agent>
    </dc:creator>
   </cc:Work>
  </rdf:RDF>
 </metadata>
 <defs>
  <style type="text/css">*{stroke-linejoin: round; stroke-linecap: butt}</style>
 </defs>
 <g id="figure_1">
  <g id="patch_1">
   <path d="M 0 576 
L 792 576 
L 792 0 
L 0 0 
z
" style="fill: #ffffff"/>
  </g>
  <g id="axes_1">
   <g id="patch_2">
    <path d="M 99 512.64 
L 653.4 512.64 
L 653.4 69.12 
L 99 69.12 
z
" style="fill: #e5e5e5"/>
   </g>
   <g id="matplotlib.axis_1">
    <g id="xtick_1">
     <g id="line2d_1">
      <path d="M 155.7 512.64 
L 155.7 69.12 
" clip-path="url(#p68ac1062cf)" style="fill: none; stroke: #ffffff; stroke-width: 1.4; stroke-linecap: square"/>
     </g>
     <g id="line2d_2">
      <defs>
       <path id="m2981463440" d="M 0 0 
L 0 5 
" style="stroke: #7f7f7f; stroke-width: 1.4"/>
      </defs>
      <g>
       <use xlink:href="#m2981463440" x="155.7" y="512.64" style="fill: #7f7f7f; stroke: #7f7f7f; stroke-width: 1.4"/>
      </g>
     </g>
     <g id="text_1">
      <!-- 2006 -->
      <g style="fill: #7f7f7f" transform="translate(140.43 527.758125)scale(0.12 -0.12)">
       <defs>
        <path id="DejaVuSans-32" d="M 1228 531 
L 3431 531 
L 3431 0 
L 469 0 
L 469 531 
Q 828 903 1448 1529 
Q 2069 2156 2228 2338 
Q 2531 2678 2651 2914 
Q 2772 3150 2772 3378 
Q 2772 3750 2511 3984 
Q 2250 4219 1831 4219 
Q 1534 4219 1204 4116 
Q 875 4013 500 3803 
L 500 4441 
Q 881 4594 1212 4672 
Q 1544 4750 1819 4750 
Q 2544 4750 2975 4387 
Q 3406 4025 3406 3419 
Q 3406 3131 3298 2873 
Q 3191 2616 2906 2266 
Q 2828 2175 2409 1742 
Q 1991 1309 1228 531 
z
" transform="scale(0.015625)"/>
        <path id="DejaVuSans-30" d="M 2034 4250 
Q 1547 4250 1301 3770 
Q 1056 3291 1056 2328 
Q 1056 1369 1301 889 
Q 1547 409 2034 409 
Q 2525 409 2770 889 
Q 3016 1369 3016 2328 
Q 3016 3291 2770 3770 
Q 2525 4250 2034 4250 
z
M 2034 4750 
Q 2819 4750 3233 4129 
Q 3647 3509 3647 2328 
Q 3647 1150 3233 529 
Q 2819 -91 2034 -91 
Q 1250 -91 836 529 
Q 422 1150 422 2328 
Q 422 3509 836 4129 
Q 1250 4750 2034 4750 
z
" transform="scale(0.015625)"/>
        <path id="DejaVuSans-36" d="M 2113 2584 
Q 1688 2584 1439 2293 
Q 1191 2003 1191 1497 
Q 1191 994 1439 701 
Q 1688 409 2113 409 
Q 2538 409 2786 701 
Q 3034 994 3034 1497 
Q 3034 2003 2786 2293 
Q 2538 2584 2113 2584 
z
M 3366 4563 
L 3366 3988 
Q 3128 4100 2886 4159 
Q 2644 4219 2406 4219 
Q 1781 4219 1451 3797 
Q 1122 3375 1075 2522 
Q 1259 2794 1537 2939 
Q 1816 3084 2150 3084 
Q 2853 3084 3261 2657 
Q 3669 2231 3669 1497 
Q 3669 778 3244 343 
Q 2819 -91 2113 -91 
Q 1303 -91 875 529 
Q 447 1150 447 2328 
Q 447 3434 972 4092 
Q 1497 4750 2381 4750 
Q 2619 4750 2861 4703 
Q 3103 4656 3366 4563 
z
" transform="scale(0.015625)"/>
       </defs>
       <use xlink:href="#DejaVuSans-32"/>
       <use xlink:href="#DejaVuSans-30" x="63.623047"/>
       <use xlink:href="#DejaVuSans-30" x="127.246094"/>
       <use xlink:href="#DejaVuSans-36" x="190.869141"/>
      </g>
     </g>
    </g>
    <g id="xtick_2">
     <g id="line2d_3">
      <path d="M 218.7 512.64 
L 218.7 69.12 
" clip-path="url(#p68ac1062cf)" style="fill: none; stroke: #ffffff; stroke-width: 1.4; stroke-linecap: square"/>
     </g>
     <g id="line2d_4">
      <g>
       <use xlink:href="#m2981463440" x="218.7" y="512.64" style="fill: #7f7f7f; stroke: #7f7f7f; stroke-width: 1.4"/>
      </g>
     </g>
     <g id="text_2">
      <!-- 2008 -->
      <g style="fill: #7f7f7f" transform="translate(203.43 527.758125)scale(0.12 -0.12)">
       <defs>
        <path id="DejaVuSans-38" d="M 2034 2216 
Q 1584 2216 1326 1975 
Q 1069 1734 1069 1313 
Q 1069 891 1326 650 
Q 1584 409 2034 409 
Q 2484 409 2743 651 
Q 3003 894 3003 1313 
Q 3003 1734 2745 1975 
Q 2488 2216 2034 2216 
z
M 1403 2484 
Q 997 2584 770 2862 
Q 544 3141 544 3541 
Q 544 4100 942 4425 
Q 1341 4750 2034 4750 
Q 2731 4750 3128 4425 
Q 3525 4100 3525 3541 
Q 3525 3141 3298 2862 
Q 3072 2584 2669 2484 
Q 3125 2378 3379 2068 
Q 3634 1759 3634 1313 
Q 3634 634 3220 271 
Q 2806 -91 2034 -91 
Q 1263 -91 848 271 
Q 434 634 434 1313 
Q 434 1759 690 2068 
Q 947 2378 1403 2484 
z
M 1172 3481 
Q 1172 3119 1398 2916 
Q 1625 2713 2034 2713 
Q 2441 2713 2670 2916 
Q 2900 3119 2900 3481 
Q 2900 3844 2670 4047 
Q 2441 4250 2034 4250 
Q 1625 4250 1398 4047 
Q 1172 3844 1172 3481 
z
" transform="scale(0.015625)"/>
       </defs>
       <use xlink:href="#DejaVuSans-32"/>
       <use xlink:href="#DejaVuSans-30" x="63.623047"/>
       <use xlink:href="#DejaVuSans-30" x="127.246094"/>
       <use xlink:href="#DejaVuSans-38" x="190.869141"/>
      </g>
     </g>
    </g>
    <g id="xtick_3">
     <g id="line2d_5">
      <path d="M 281.7 512.64 
L 281.7 69.12 
" clip-path="url(#p68ac1062cf)" style="fill: none; stroke: #ffffff; stroke-width: 1.4; stroke-linecap: square"/>
     </g>
     <g id="line2d_6">
      <g>
       <use xlink:href="#m2981463440" x="281.7" y="512.64" style="fill: #7f7f7f; stroke: #7f7f7f; stroke-width: 1.4"/>
      </g>
     </g>
     <g id="text_3">
      <!-- 2010 -->
      <g style="fill: #7f7f7f" transform="translate(266.43 527.758125)scale(0.12 -0.12)">
       <defs>
        <path id="DejaVuSans-31" d="M 794 531 
L 1825 531 
L 1825 4091 
L 703 3866 
L 703 4441 
L 1819 4666 
L 2450 4666 
L 2450 531 
L 3481 531 
L 3481 0 
L 794 0 
L 794 531 
z
" transform="scale(0.015625)"/>
       </defs>
       <use xlink:href="#DejaVuSans-32"/>
       <use xlink:href="#DejaVuSans-30" x="63.623047"/>
       <use xlink:href="#DejaVuSans-31" x="127.246094"/>
       <use xlink:href="#DejaVuSans-30" x="190.869141"/>
      </g>
     </g>
    </g>
    <g id="xtick_4">
     <g id="line2d_7">
      <path d="M 344.7 512.64 
L 344.7 69.12 
" clip-path="url(#p68ac1062cf)" style="fill: none; stroke: #ffffff; stroke-width: 1.4; stroke-linecap: square"/>
     </g>
     <g id="line2d_8">
      <g>
       <use xlink:href="#m2981463440" x="344.7" y="512.64" style="fill: #7f7f7f; stroke: #7f7f7f; stroke-width: 1.4"/>
      </g>
     </g>
     <g id="text_4">
      <!-- 2012 -->
      <g style="fill: #7f7f7f" transform="translate(329.43 527.758125)scale(0.12 -0.12)">
       <use xlink:href="#DejaVuSans-32"/>
       <use xlink:href="#DejaVuSans-30" x="63.623047"/>
       <use xlink:href="#DejaVuSans-31" x="127.246094"/>
       <use xlink:href="#DejaVuSans-32" x="190.869141"/>
      </g>
     </g>
    </g>
    <g id="xtick_5">
     <g id="line2d_9">
      <path d="M 407.7 512.64 
L 407.7 69.12 
" clip-path="url(#p68ac1062cf)" style="fill: none; stroke: #ffffff; stroke-width: 1.4; stroke-linecap: square"/>
     </g>
     <g id="line2d_10">
      <g>
       <use xlink:href="#m2981463440" x="407.7" y="512.64" style="fill: #7f7f7f; stroke: #7f7f7f; stroke-width: 1.4"/>
      </g>
     </g>
     <g id="text_5">
      <!-- 2014 -->
      <g style="fill: #7f7f7f" transform="translate(392.43 527.758125)scale(0.12 -0.12)">
       <defs>
        <path id="DejaVuSans-34" d="M 2419 4116 
L 825 1625 
L 2419 1625 
L 2419 4116 
z
M 2253 4666 
L 3047 4666 
L 3047 1625 
L 3713 1625 
L 3713 1100 
L 3047 1100 
L 3047 0 
L 2419 0 
L 2419 1100 
L 313 1100 
L 313 1709 
L 2253 4666 
z
" transform="scale(0.015625)"/>
       </defs>
       <use xlink:href="#DejaVuSans-32"/>
       <use xlink:href="#DejaVuSans-30" x="63.623047"/>
       <use xlink:href="#DejaVuSans-31" x="127.246094"/>
       <use xlink:href="#DejaVuSans-34" x="190.869141"/>
      </g>
     </g>
    </g>
    <g id="xtick_6">
     <g id="line2d_11">
      <path d="M 470.7 512.64 
L 470.7 69.12 
" clip-path="url(#p68ac1062cf)" style="fill: none; stroke: #ffffff; stroke-width: 1.4; stroke-linecap: square"/>
     </g>
     <g id="line2d_12">
      <g>
       <use xlink:href="#m2981463440" x="470.7" y="512.64" style="fill: #7f7f7f; stroke: #7f7f7f; stroke-width: 1.4"/>
      </g>
     </g>
     <g id="text_6">
      <!-- 2016 -->
      <g style="fill: #7f7f7f" transform="translate(455.43 527.758125)scale(0.12 -0.12)">
       <use xlink:href="#DejaVuSans-32"/>
       <use xlink:href="#DejaVuSans-30" x="63.623047"/>
       <use xlink:href="#DejaVuSans-31" x="127.246094"/>
       <use xlink:href="#DejaVuSans-36" x="190.869141"/>
      </g>
     </g>
    </g>
    <g id="xtick_7">
     <g id="line2d_13">
      <path d="M 533.7 512.64 
L 533.7 69.12 
" clip-path="url(#p68ac1062cf)" style="fill: none; stroke: #ffffff; stroke-width: 1.4; stroke-linecap: square"/>
     </g>
     <g id="line2d_14">
      <g>
       <use xlink:href="#m2981463440" x="533.7" y="512.64" style="fill: #7f7f7f; stroke: #7f7f7f; stroke-width: 1.4"/>
      </g>
     </g>
     <g id="text_7">
      <!-- 2018 -->
      <g style="fill: #7f7f7f" transform="translate(518.43 527.758125)scale(0.12 -0.12)">
       <use xlink:href="#DejaVuSans-32"/>
       <use xlink:href="#DejaVuSans-30" x="63.623047"/>
       <use xlink:href="#DejaVuSans-31" x="127.246094"/>
       <use xlink:href="#DejaVuSans-38" x="190.869141"/>
      </g>
     </g>
    </g>
    <g id="xtick_8">
     <g id="line2d_15">
      <path d="M 596.7 512.64 
L 596.7 69.12 
" clip-path="url(#p68ac1062cf)" style="fill: none; stroke: #ffffff; stroke-width: 1.4; stroke-linecap: square"/>
     </g>
     <g id="line2d_16">
      <g>
       <use xlink:href="#m2981463440" x="596.7" y="512.64" style="fill: #7f7f7f; stroke: #7f7f7f; stroke-width: 1.4"/>
      </g>
     </g>
     <g id="text_8">
      <!-- 2020 -->
      <g style="fill: #7f7f7f" transform="translate(581.43 527.758125)scale(0.12 -0.12)">
       <use xlink:href="#DejaVuSans-32"/>
       <use xlink:href="#DejaVuSans-30" x="63.623047"/>
       <use xlink:href="#DejaVuSans-32" x="127.246094"/>
       <use xlink:href="#DejaVuSans-30" x="190.869141"/>
      </g>
     </g>
    </g>
    <g id="xtick_9">
     <g id="line2d_17">
      <path d="M 124.2 512.64 
L 124.2 69.12 
" clip-path="url(#p68ac1062cf)" style="fill: none; stroke: #f2f2f2; stroke-width: 0.7; stroke-linecap: square"/>
     </g>
     <g id="line2d_18"/>
    </g>
    <g id="xtick_10">
     <g id="line2d_19">
      <path d="M 187.2 512.64 
L 187.2 69.12 
" clip-path="url(#p68ac1062cf)" style="fill: none; stroke: #f2f2f2; stroke-width: 0.7; stroke-linecap: square"/>
     </g>
     <g id="line2d_20"/>
    </g>
    <g id="xtick_11">
     <g id="line2d_21">
      <path d="M 250.2 512.64 
L 250.2 69.12 
" clip-path="url(#p68ac1062cf)" style="fill: none; stroke: #f2f2f2; stroke-width: 0.7; stroke-linecap: square"/>
     </g>
     <g id="line2d_22"/>
    </g>
    <g id="xtick_12">
     <g id="line2d_23">
      <path d="M 313.2 512.64 
L 313.2 69.12 
" clip-path="url(#p68ac1062cf)" style="fill: none; stroke: #f2f2f2; stroke-width: 0.7; stroke-linecap: square"/>
     </g>
     <g id="line2d_24"/>
    </g>
    <g id="xtick_13">
     <g id="line2d_25">
      <path d="M 376.2 512.64 
L 376.2 69.12 
" clip-path="url(#p68ac1062cf)" style="fill: none; stroke: #f2f2f2; stroke-width: 0.7; stroke-linecap: square"/>
     </g>
     <g id="line2d_26"/>
    </g>
    <g id="xtick_14">
     <g id="line2d_27">
      <path d="M 439.2 512.64 
L 439.2 69.12 
" clip-path="url(#p68ac1062cf)" style="fill: none; stroke: #f2f2f2; stroke-width: 0.7; stroke-linecap: square"/>
     </g>
     <g id="line2d_28"/>
    </g>
    <g id="xtick_15">
     <g id="line2d_29">
      <path d="M 502.2 512.64 
L 502.2 69.12 
" clip-path="url(#p68ac1062cf)" style="fill: none; stroke: #f2f2f2; stroke-width: 0.7; stroke-linecap: square"/>
     </g>
     <g id="line2d_30"/>
    </g>
    <g id="xtick_16">
     <g id="line2d_31">
      <path d="M 565.2 512.64 
L 565.2 69.12 
" clip-path="url(#p68ac1062cf)" style="fill: none; stroke: #f2f2f2; stroke-width: 0.7; stroke-linecap: square"/>
     </g>
     <g id="line2d_32"/>
    </g>
    <g id="xtick_17">
     <g id="line2d_33">
      <path d="M 628.2 512.64 
L 628.2 69.12 
" clip-path="url(#p68ac1062cf)" style="fill: none; stroke: #f2f2f2; stroke-width: 0.7; stroke-linecap: square"/>
     </g>
     <g id="line2d_34"/>
    </g>
   </g>
   <g id="matplotlib.axis_2">
    <g id="ytick_1">
     <g id="line2d_35">
      <path d="M 99 474.503504 
L 653.4 474.503504 
" clip-path="url(#p68ac1062cf)" style="fill: none; stroke: #ffffff; stroke-width: 1.4; stroke-linecap: square"/>
     </g>
     <g id="line2d_36">
      <defs>
       <path id="m3a1250a3cf" d="M 0 0 
L -5 0 
" style="stroke: #7f7f7f; stroke-width: 1.4"/>
      </defs>
      <g>
       <use xlink:href="#m3a1250a3cf" x="99" y="474.503504" style="fill: #7f7f7f; stroke: #7f7f7f; stroke-width: 1.4"/>
      </g>
     </g>
     <g id="text_9">
      <!-- 100000 -->
      <g style="fill: #7f7f7f" transform="translate(47.19 479.062567)scale(0.12 -0.12)">
       <use xlink:href="#DejaVuSans-31"/>
       <use xlink:href="#DejaVuSans-30" x="63.623047"/>
       <use xlink:href="#DejaVuSans-30" x="127.246094"/>
       <use xlink:href="#DejaVuSans-30" x="190.869141"/>
       <use xlink:href="#DejaVuSans-30" x="254.492188"/>
       <use xlink:href="#DejaVuSans-30" x="318.115234"/>
      </g>
     </g>
    </g>
    <g id="ytick_2">
     <g id="line2d_37">
      <path d="M 99 387.977155 
L 653.4 387.977155 
" clip-path="url(#p68ac1062cf)" style="fill: none; stroke: #ffffff; stroke-width: 1.4; stroke-linecap: square"/>
     </g>
     <g id="line2d_38">
      <g>
       <use xlink:href="#m3a1250a3cf" x="99" y="387.977155" style="fill: #7f7f7f; stroke: #7f7f7f; stroke-width: 1.4"/>
      </g>
     </g>
     <g id="text_10">
      <!-- 200000 -->
      <g style="fill: #7f7f7f" transform="translate(47.19 392.536217)scale(0.12 -0.12)">
       <use xlink:href="#DejaVuSans-32"/>
       <use xlink:href="#DejaVuSans-30" x="63.623047"/>
       <use xlink:href="#DejaVuSans-30" x="127.246094"/>
       <use xlink:href="#DejaVuSans-30" x="190.869141"/>
       <use xlink:href="#DejaVuSans-30" x="254.492188"/>
       <use xlink:href="#DejaVuSans-30" x="318.115234"/>
      </g>
     </g>
    </g>
    <g id="ytick_3">
     <g id="line2d_39">
      <path d="M 99 301.450805 
L 653.4 301.450805 
" clip-path="url(#p68ac1062cf)" style="fill: none; stroke: #ffffff; stroke-width: 1.4; stroke-linecap: square"/>
     </g>
     <g id="line2d_40">
      <g>
       <use xlink:href="#m3a1250a3cf" x="99" y="301.450805" style="fill: #7f7f7f; stroke: #7f7f7f; stroke-width: 1.4"/>
      </g>
     </g>
     <g id="text_11">
      <!-- 300000 -->
      <g style="fill: #7f7f7f" transform="translate(47.19 306.009868)scale(0.12 -0.12)">
       <defs>
        <path id="DejaVuSans-33" d="M 2597 2516 
Q 3050 2419 3304 2112 
Q 3559 1806 3559 1356 
Q 3559 666 3084 287 
Q 2609 -91 1734 -91 
Q 1441 -91 1130 -33 
Q 819 25 488 141 
L 488 750 
Q 750 597 1062 519 
Q 1375 441 1716 441 
Q 2309 441 2620 675 
Q 2931 909 2931 1356 
Q 2931 1769 2642 2001 
Q 2353 2234 1838 2234 
L 1294 2234 
L 1294 2753 
L 1863 2753 
Q 2328 2753 2575 2939 
Q 2822 3125 2822 3475 
Q 2822 3834 2567 4026 
Q 2313 4219 1838 4219 
Q 1578 4219 1281 4162 
Q 984 4106 628 3988 
L 628 4550 
Q 988 4650 1302 4700 
Q 1616 4750 1894 4750 
Q 2613 4750 3031 4423 
Q 3450 4097 3450 3541 
Q 3450 3153 3228 2886 
Q 3006 2619 2597 2516 
z
" transform="scale(0.015625)"/>
       </defs>
       <use xlink:href="#DejaVuSans-33"/>
       <use xlink:href="#DejaVuSans-30" x="63.623047"/>
       <use xlink:href="#DejaVuSans-30" x="127.246094"/>
       <use xlink:href="#DejaVuSans-30" x="190.869141"/>
       <use xlink:href="#DejaVuSans-30" x="254.492188"/>
       <use xlink:href="#DejaVuSans-30" x="318.115234"/>
      </g>
     </g>
    </g>
    <g id="ytick_4">
     <g id="line2d_41">
      <path d="M 99 214.924456 
L 653.4 214.924456 
" clip-path="url(#p68ac1062cf)" style="fill: none; stroke: #ffffff; stroke-width: 1.4; stroke-linecap: square"/>
     </g>
     <g id="line2d_42">
      <g>
       <use xlink:href="#m3a1250a3cf" x="99" y="214.924456" style="fill: #7f7f7f; stroke: #7f7f7f; stroke-width: 1.4"/>
      </g>
     </g>
     <g id="text_12">
      <!-- 400000 -->
      <g style="fill: #7f7f7f" transform="translate(47.19 219.483518)scale(0.12 -0.12)">
       <use xlink:href="#DejaVuSans-34"/>
       <use xlink:href="#DejaVuSans-30" x="63.623047"/>
       <use xlink:href="#DejaVuSans-30" x="127.246094"/>
       <use xlink:href="#DejaVuSans-30" x="190.869141"/>
       <use xlink:href="#DejaVuSans-30" x="254.492188"/>
       <use xlink:href="#DejaVuSans-30" x="318.115234"/>
      </g>
     </g>
    </g>
    <g id="ytick_5">
     <g id="line2d_43">
      <path d="M 99 128.398106 
L 653.4 128.398106 
" clip-path="url(#p68ac1062cf)" style="fill: none; stroke: #ffffff; stroke-width: 1.4; stroke-linecap: square"/>
     </g>
     <g id="line2d_44">
      <g>
       <use xlink:href="#m3a1250a3cf" x="99" y="128.398106" style="fill: #7f7f7f; stroke: #7f7f7f; stroke-width: 1.4"/>
      </g>
     </g>
     <g id="text_13">
      <!-- 500000 -->
      <g style="fill: #7f7f7f" transform="translate(47.19 132.957169)scale(0.12 -0.12)">
       <defs>
        <path id="DejaVuSans-35" d="M 691 4666 
L 3169 4666 
L 3169 4134 
L 1269 4134 
L 1269 2991 
Q 1406 3038 1543 3061 
Q 1681 3084 1819 3084 
Q 2600 3084 3056 2656 
Q 3513 2228 3513 1497 
Q 3513 744 3044 326 
Q 2575 -91 1722 -91 
Q 1428 -91 1123 -41 
Q 819 9 494 109 
L 494 744 
Q 775 591 1075 516 
Q 1375 441 1709 441 
Q 2250 441 2565 725 
Q 2881 1009 2881 1497 
Q 2881 1984 2565 2268 
Q 2250 2553 1709 2553 
Q 1456 2553 1204 2497 
Q 953 2441 691 2322 
L 691 4666 
z
" transform="scale(0.015625)"/>
       </defs>
       <use xlink:href="#DejaVuSans-35"/>
       <use xlink:href="#DejaVuSans-30" x="63.623047"/>
       <use xlink:href="#DejaVuSans-30" x="127.246094"/>
       <use xlink:href="#DejaVuSans-30" x="190.869141"/>
       <use xlink:href="#DejaVuSans-30" x="254.492188"/>
       <use xlink:href="#DejaVuSans-30" x="318.115234"/>
      </g>
     </g>
    </g>
    <g id="ytick_6">
     <g id="line2d_45">
      <path d="M 99 431.24033 
L 653.4 431.24033 
" clip-path="url(#p68ac1062cf)" style="fill: none; stroke: #f2f2f2; stroke-width: 0.7; stroke-linecap: square"/>
     </g>
     <g id="line2d_46"/>
    </g>
    <g id="ytick_7">
     <g id="line2d_47">
      <path d="M 99 344.71398 
L 653.4 344.71398 
" clip-path="url(#p68ac1062cf)" style="fill: none; stroke: #f2f2f2; stroke-width: 0.7; stroke-linecap: square"/>
     </g>
     <g id="line2d_48"/>
    </g>
    <g id="ytick_8">
     <g id="line2d_49">
      <path d="M 99 258.187631 
L 653.4 258.187631 
" clip-path="url(#p68ac1062cf)" style="fill: none; stroke: #f2f2f2; stroke-width: 0.7; stroke-linecap: square"/>
     </g>
     <g id="line2d_50"/>
    </g>
    <g id="ytick_9">
     <g id="line2d_51">
      <path d="M 99 171.661281 
L 653.4 171.661281 
" clip-path="url(#p68ac1062cf)" style="fill: none; stroke: #f2f2f2; stroke-width: 0.7; stroke-linecap: square"/>
     </g>
     <g id="line2d_52"/>
    </g>
    <g id="ytick_10">
     <g id="line2d_53">
      <path d="M 99 85.134932 
L 653.4 85.134932 
" clip-path="url(#p68ac1062cf)" style="fill: none; stroke: #f2f2f2; stroke-width: 0.7; stroke-linecap: square"/>
     </g>
     <g id="line2d_54"/>
    </g>
   </g>
   <g id="line2d_55">
    <path d="M 124.2 389.381089 
L 155.7 368.247745 
L 187.2 352.627021 
L 218.7 364.05045 
L 250.2 395.0841 
L 281.7 413.660771 
L 313.2 438.338642 
L 344.7 455.446587 
L 376.2 462.083056 
L 407.7 455.147402 
L 439.2 442.509064 
L 470.7 431.65648 
L 502.2 417.060602 
L 533.7 400.976413 
L 565.2 393.787268 
L 596.7 392.019357 
L 628.2 381.369457 
" clip-path="url(#p68ac1062cf)" style="fill: none; stroke: #f7746a; stroke-linecap: square"/>
   </g>
   <g id="line2d_56">
    <path d="M 124.2 435.063039 
L 155.7 421.817007 
L 187.2 412.026194 
L 218.7 419.186212 
L 250.2 438.637593 
L 281.7 450.281145 
L 313.2 465.748829 
L 344.7 476.471807 
L 376.2 480.631437 
L 407.7 476.284283 
L 439.2 468.362781 
L 470.7 461.560559 
L 502.2 452.412103 
L 533.7 442.330798 
L 565.2 437.82476 
L 596.7 436.716662 
L 628.2 430.04148 
" clip-path="url(#p68ac1062cf)" style="fill: none; stroke: #f07c32; stroke-linecap: square"/>
   </g>
   <g id="line2d_57">
    <path d="M 124.2 392.48039 
L 155.7 373.240213 
L 187.2 359.018824 
L 218.7 369.41892 
L 250.2 397.672515 
L 281.7 414.585052 
L 313.2 437.052231 
L 344.7 452.627613 
L 376.2 458.669573 
L 407.7 452.355229 
L 439.2 440.849058 
L 470.7 430.96867 
L 502.2 417.680318 
L 533.7 403.036983 
L 565.2 396.491856 
L 596.7 394.882317 
L 628.2 385.186456 
" clip-path="url(#p68ac1062cf)" style="fill: none; stroke: #d78b32; stroke-linecap: square"/>
   </g>
   <g id="line2d_58">
    <path d="M 124.2 323.446169 
L 155.7 297.346664 
L 187.2 278.0552 
L 218.7 292.163041 
L 250.2 330.48934 
L 281.7 353.431376 
L 313.2 383.908342 
L 344.7 405.036512 
L 376.2 413.232495 
L 407.7 404.667021 
L 439.2 389.058778 
L 470.7 375.655927 
L 502.2 357.630138 
L 533.7 337.766298 
L 565.2 328.887764 
L 596.7 326.704408 
L 628.2 313.55187 
" clip-path="url(#p68ac1062cf)" style="fill: none; stroke: #c49432; stroke-linecap: square"/>
   </g>
   <g id="line2d_59">
    <path d="M 124.2 433.920678 
L 155.7 424.608445 
L 187.2 417.725302 
L 218.7 422.758942 
L 250.2 436.433663 
L 281.7 444.61932 
L 313.2 455.49342 
L 344.7 463.031895 
L 376.2 465.9562 
L 407.7 462.900062 
L 439.2 457.331082 
L 470.7 452.548981 
L 502.2 446.117427 
L 533.7 439.030062 
L 565.2 435.862225 
L 596.7 435.083209 
L 628.2 430.390419 
" clip-path="url(#p68ac1062cf)" style="fill: none; stroke: #b49b32; stroke-linecap: square"/>
   </g>
   <g id="line2d_60">
    <path d="M 124.2 165.432934 
L 155.7 109.561435 
L 187.2 89.28 
L 218.7 124.643252 
L 250.2 210.163789 
L 281.7 255.079997 
L 313.2 290.240093 
L 344.7 311.579987 
L 376.2 295.727495 
L 407.7 252.51921 
L 439.2 230.467905 
L 470.7 218.131496 
L 502.2 193.784507 
L 533.7 169.761884 
L 565.2 169.800905 
L 596.7 171.325183 
L 628.2 155.194663 
" clip-path="url(#p68ac1062cf)" style="fill: none; stroke: #a3a031; stroke-linecap: square"/>
   </g>
   <g id="line2d_61">
    <path d="M 124.2 337.059233 
L 155.7 312.703653 
L 187.2 294.701211 
L 218.7 307.86639 
L 250.2 343.631792 
L 281.7 365.040881 
L 313.2 393.481429 
L 344.7 413.197851 
L 376.2 420.846193 
L 407.7 412.853049 
L 439.2 398.287722 
L 470.7 385.780426 
L 502.2 368.959089 
L 533.7 350.422517 
L 565.2 342.137231 
L 596.7 340.099763 
L 628.2 327.826055 
" clip-path="url(#p68ac1062cf)" style="fill: none; stroke: #90a531; stroke-linecap: square"/>
   </g>
   <g id="line2d_62">
    <path d="M 124.2 387.091612 
L 155.7 371.122666 
L 187.2 359.31921 
L 218.7 367.951073 
L 250.2 391.400967 
L 281.7 405.438021 
L 313.2 424.085311 
L 344.7 437.012554 
L 376.2 442.027255 
L 407.7 436.786481 
L 439.2 427.236599 
L 470.7 419.036082 
L 502.2 408.007028 
L 533.7 395.853364 
L 565.2 390.421045 
L 596.7 389.085162 
L 628.2 381.037799 
" clip-path="url(#p68ac1062cf)" style="fill: none; stroke: #77ab31; stroke-linecap: square"/>
   </g>
   <g id="line2d_63">
    <path d="M 124.2 284.256852 
L 155.7 254.802103 
L 187.2 233.030608 
L 218.7 248.952094 
L 250.2 292.205464 
L 281.7 318.096833 
L 313.2 352.491791 
L 344.7 376.336111 
L 376.2 385.585737 
L 407.7 375.91912 
L 439.2 358.304346 
L 470.7 343.17848 
L 502.2 322.83537 
L 533.7 300.417918 
L 565.2 290.397996 
L 596.7 287.933957 
L 628.2 273.090583 
" clip-path="url(#p68ac1062cf)" style="fill: none; stroke: #43b231; stroke-linecap: square"/>
   </g>
   <g id="line2d_64">
    <path d="M 124.2 352.75929 
L 155.7 328.129489 
L 187.2 309.924358 
L 218.7 323.237763 
L 250.2 359.405849 
L 281.7 381.055983 
L 313.2 409.816744 
L 344.7 429.755154 
L 376.2 437.489609 
L 407.7 429.40647 
L 439.2 414.677151 
L 470.7 402.029035 
L 502.2 385.018306 
L 533.7 366.273031 
L 565.2 357.894461 
L 596.7 355.834053 
L 628.2 343.422155 
" clip-path="url(#p68ac1062cf)" style="fill: none; stroke: #33b169; stroke-linecap: square"/>
   </g>
   <g id="line2d_65">
    <path d="M 124.2 393.468448 
L 155.7 370.28582 
L 187.2 353.150367 
L 218.7 365.681517 
L 250.2 399.724476 
L 281.7 420.102514 
L 313.2 447.173379 
L 344.7 465.940269 
L 376.2 473.22027 
L 407.7 465.612072 
L 439.2 451.748204 
L 470.7 439.843253 
L 502.2 423.832023 
L 533.7 406.188163 
L 565.2 398.301892 
L 596.7 396.362547 
L 628.2 384.679935 
" clip-path="url(#p68ac1062cf)" style="fill: none; stroke: #34af84; stroke-linecap: square"/>
   </g>
   <g id="line2d_66">
    <path d="M 124.2 443.681698 
L 155.7 431.848299 
L 187.2 423.101635 
L 218.7 429.498067 
L 250.2 446.87504 
L 281.7 457.276857 
L 313.2 471.094978 
L 344.7 480.674396 
L 376.2 484.390419 
L 407.7 480.506871 
L 439.2 473.430163 
L 470.7 467.35337 
L 502.2 459.180557 
L 533.7 450.174381 
L 565.2 446.148893 
L 596.7 445.158969 
L 628.2 439.195667 
" clip-path="url(#p68ac1062cf)" style="fill: none; stroke: #35ae95; stroke-linecap: square"/>
   </g>
   <g id="line2d_67">
    <path d="M 124.2 369.247068 
L 155.7 348.773781 
L 187.2 333.640939 
L 218.7 344.707581 
L 250.2 374.771957 
L 281.7 392.768424 
L 313.2 416.675532 
L 344.7 433.249146 
L 376.2 439.678337 
L 407.7 432.959305 
L 439.2 420.7157 
L 470.7 410.202074 
L 502.2 396.062068 
L 533.7 380.480236 
L 565.2 373.51563 
L 596.7 371.802935 
L 628.2 361.485663 
" clip-path="url(#p68ac1062cf)" style="fill: none; stroke: #36ada2; stroke-linecap: square"/>
   </g>
   <g id="line2d_68">
    <path d="M 124.2 445.897674 
L 155.7 432.356909 
L 187.2 422.348244 
L 218.7 429.667577 
L 250.2 449.551764 
L 281.7 461.454394 
L 313.2 477.266244 
L 344.7 488.227816 
L 376.2 492.48 
L 407.7 488.036119 
L 439.2 479.938358 
L 470.7 472.984783 
L 502.2 463.632767 
L 533.7 453.327146 
L 565.2 448.720846 
L 596.7 447.588092 
L 628.2 440.764382 
" clip-path="url(#p68ac1062cf)" style="fill: none; stroke: #36acae; stroke-linecap: square"/>
   </g>
   <g id="line2d_69">
    <path d="M 124.2 347.168065 
L 155.7 319.292639 
L 187.2 298.688503 
L 218.7 313.7563 
L 250.2 354.690483 
L 281.7 379.193592 
L 313.2 411.744339 
L 344.7 434.31016 
L 376.2 443.063832 
L 407.7 433.915527 
L 439.2 417.245233 
L 470.7 402.930395 
L 502.2 383.678055 
L 533.7 362.462597 
L 565.2 352.979929 
L 596.7 350.648008 
L 628.2 336.600516 
" clip-path="url(#p68ac1062cf)" style="fill: none; stroke: #37aaba; stroke-linecap: square"/>
   </g>
   <g id="line2d_70">
    <path d="M 124.2 423.633768 
L 155.7 413.075002 
L 187.2 405.270484 
L 218.7 410.977925 
L 250.2 426.483139 
L 281.7 435.764525 
L 313.2 448.094228 
L 344.7 456.6418 
L 376.2 459.957552 
L 407.7 456.49232 
L 439.2 450.177879 
L 470.7 444.755647 
L 502.2 437.463168 
L 533.7 429.427092 
L 565.2 425.835209 
L 596.7 424.951915 
L 628.2 419.630949 
" clip-path="url(#p68ac1062cf)" style="fill: none; stroke: #38a8c9; stroke-linecap: square"/>
   </g>
   <g id="line2d_71">
    <path d="M 124.2 318.435759 
L 155.7 289.335709 
L 187.2 267.826391 
L 218.7 283.556147 
L 250.2 326.288652 
L 281.7 351.868233 
L 313.2 385.849001 
L 344.7 409.406184 
L 376.2 418.544423 
L 407.7 408.994214 
L 439.2 391.59156 
L 470.7 376.647842 
L 502.2 356.549708 
L 533.7 334.402211 
L 565.2 324.502951 
L 596.7 322.068584 
L 628.2 307.403956 
" clip-path="url(#p68ac1062cf)" style="fill: none; stroke: #3aa6dd; stroke-linecap: square"/>
   </g>
   <g id="line2d_72">
    <path d="M 124.2 414.273898 
L 155.7 399.106729 
L 187.2 387.895908 
L 218.7 396.094377 
L 250.2 418.366886 
L 281.7 431.69916 
L 313.2 449.410196 
L 344.7 461.68838 
L 376.2 466.451301 
L 407.7 461.473659 
L 439.2 452.403262 
L 470.7 444.614482 
L 502.2 434.13918 
L 533.7 422.595735 
L 565.2 417.436165 
L 596.7 416.167354 
L 628.2 408.524038 
" clip-path="url(#p68ac1062cf)" style="fill: none; stroke: #569ff4; stroke-linecap: square"/>
   </g>
   <g id="line2d_73">
    <path d="M 124.2 405.306457 
L 155.7 388.058309 
L 187.2 375.309329 
L 218.7 384.632653 
L 250.2 409.961016 
L 281.7 425.122516 
L 313.2 445.263559 
L 344.7 459.226346 
L 376.2 464.642753 
L 407.7 458.982164 
L 439.2 448.667282 
L 470.7 439.809858 
L 502.2 427.897315 
L 533.7 414.770075 
L 565.2 408.902597 
L 596.7 407.459701 
L 628.2 398.7677 
" clip-path="url(#p68ac1062cf)" style="fill: none; stroke: #8b94f4; stroke-linecap: square"/>
   </g>
   <g id="line2d_74">
    <path d="M 124.2 450.287274 
L 155.7 439.011739 
L 187.2 430.67742 
L 218.7 436.772304 
L 250.2 453.330073 
L 281.7 463.241515 
L 313.2 476.408206 
L 344.7 485.536021 
L 376.2 489.076858 
L 407.7 485.376393 
L 439.2 478.633303 
L 470.7 472.842989 
L 502.2 465.055469 
L 533.7 456.473872 
L 565.2 452.638158 
L 596.7 451.694902 
L 628.2 446.012729 
" clip-path="url(#p68ac1062cf)" style="fill: none; stroke: #ae88f4; stroke-linecap: square"/>
   </g>
   <g id="line2d_75">
    <path d="M 124.2 418.127106 
L 155.7 405.033355 
L 187.2 395.355101 
L 218.7 402.432804 
L 250.2 421.660565 
L 281.7 433.170259 
L 313.2 448.460121 
L 344.7 459.059824 
L 376.2 463.171633 
L 407.7 458.874456 
L 439.2 451.044022 
L 470.7 444.320001 
L 502.2 435.276718 
L 533.7 425.311312 
L 565.2 420.857077 
L 596.7 419.761718 
L 628.2 413.163277 
" clip-path="url(#p68ac1062cf)" style="fill: none; stroke: #cd79f4; stroke-linecap: square"/>
   </g>
   <g id="line2d_76">
    <path d="M 124.2 416.590185 
L 155.7 403.171931 
L 187.2 393.253821 
L 218.7 400.506931 
L 250.2 420.211214 
L 281.7 432.006153 
L 313.2 447.674943 
L 344.7 458.537339 
L 376.2 462.751051 
L 407.7 458.347377 
L 439.2 450.322881 
L 470.7 443.432219 
L 502.2 434.164817 
L 533.7 423.952438 
L 565.2 419.387813 
L 596.7 418.265308 
L 628.2 411.503337 
" clip-path="url(#p68ac1062cf)" style="fill: none; stroke: #ed62f4; stroke-linecap: square"/>
   </g>
   <g id="line2d_77">
    <path d="M 124.2 379.03328 
L 155.7 355.703665 
L 187.2 338.459567 
L 218.7 351.07017 
L 250.2 385.328973 
L 281.7 405.836214 
L 313.2 433.078718 
L 344.7 451.964597 
L 376.2 459.290756 
L 407.7 451.634319 
L 439.2 437.682549 
L 470.7 425.702117 
L 502.2 409.58937 
L 533.7 391.833642 
L 565.2 383.897369 
L 596.7 381.945728 
L 628.2 370.189044 
" clip-path="url(#p68ac1062cf)" style="fill: none; stroke: #f562db; stroke-linecap: square"/>
   </g>
   <g id="line2d_78">
    <path d="M 124.2 387.882661 
L 155.7 364.630735 
L 187.2 347.44406 
L 218.7 360.012669 
L 250.2 394.157389 
L 281.7 414.59634 
L 313.2 441.748126 
L 344.7 460.571114 
L 376.2 467.872877 
L 407.7 460.241936 
L 439.2 446.336626 
L 470.7 434.396089 
L 502.2 418.336998 
L 533.7 400.640397 
L 565.2 392.730552 
L 596.7 390.785411 
L 628.2 379.067876 
" clip-path="url(#p68ac1062cf)" style="fill: none; stroke: #f668c2; stroke-linecap: square"/>
   </g>
   <g id="line2d_79">
    <path d="M 124.2 383.116597 
L 155.7 361.372327 
L 187.2 345.300038 
L 218.7 357.053697 
L 250.2 388.984471 
L 281.7 408.09816 
L 313.2 433.489421 
L 344.7 451.091925 
L 376.2 457.920241 
L 407.7 450.784091 
L 439.2 437.780402 
L 470.7 426.61409 
L 502.2 411.596272 
L 533.7 395.04712 
L 565.2 387.650151 
L 596.7 385.831132 
L 628.2 374.873364 
" clip-path="url(#p68ac1062cf)" style="fill: none; stroke: #f66caa; stroke-linecap: square"/>
   </g>
   <g id="line2d_80">
    <path d="M 124.2 217.106029 
L 155.7 180.579459 
L 187.2 153.580823 
L 218.7 173.324915 
L 250.2 226.963032 
L 281.7 259.070686 
L 313.2 301.723566 
L 344.7 331.292694 
L 376.2 342.763071 
L 407.7 330.775587 
L 439.2 308.931664 
L 470.7 290.174212 
L 502.2 264.946904 
L 533.7 237.147222 
L 565.2 224.721607 
L 596.7 221.665974 
L 628.2 203.258839 
" clip-path="url(#p68ac1062cf)" style="fill: none; stroke: #f7708e; stroke-linecap: square"/>
   </g>
   <g id="patch_3">
    <path d="M 99 512.64 
L 99 69.12 
" style="fill: none; opacity: 0"/>
   </g>
   <g id="patch_4">
    <path d="M 653.4 512.64 
L 653.4 69.12 
" style="fill: none; opacity: 0"/>
   </g>
   <g id="patch_5">
    <path d="M 99 512.64 
L 653.4 512.64 
" style="fill: none; opacity: 0"/>
   </g>
   <g id="patch_6">
    <path d="M 99 69.12 
L 653.4 69.12 
" style="fill: none; opacity: 0"/>
   </g>
   <g id="legend_1">
    <g id="patch_7">
     <path d="M 690.1164 102.898973 
L 710.1084 102.898973 
L 710.1084 95.901773 
L 690.1164 95.901773 
L 690.1164 102.898973 
z
" style="fill: none"/>
    </g>
    <g id="text_14">
     <!-- County -->
     <g transform="translate(718.1052 102.898973)scale(0.09996 -0.09996)">
      <defs>
       <path id="DejaVuSans-43" d="M 4122 4306 
L 4122 3641 
Q 3803 3938 3442 4084 
Q 3081 4231 2675 4231 
Q 1875 4231 1450 3742 
Q 1025 3253 1025 2328 
Q 1025 1406 1450 917 
Q 1875 428 2675 428 
Q 3081 428 3442 575 
Q 3803 722 4122 1019 
L 4122 359 
Q 3791 134 3420 21 
Q 3050 -91 2638 -91 
Q 1578 -91 968 557 
Q 359 1206 359 2328 
Q 359 3453 968 4101 
Q 1578 4750 2638 4750 
Q 3056 4750 3426 4639 
Q 3797 4528 4122 4306 
z
" transform="scale(0.015625)"/>
       <path id="DejaVuSans-6f" d="M 1959 3097 
Q 1497 3097 1228 2736 
Q 959 2375 959 1747 
Q 959 1119 1226 758 
Q 1494 397 1959 397 
Q 2419 397 2687 759 
Q 2956 1122 2956 1747 
Q 2956 2369 2687 2733 
Q 2419 3097 1959 3097 
z
M 1959 3584 
Q 2709 3584 3137 3096 
Q 3566 2609 3566 1747 
Q 3566 888 3137 398 
Q 2709 -91 1959 -91 
Q 1206 -91 779 398 
Q 353 888 353 1747 
Q 353 2609 779 3096 
Q 1206 3584 1959 3584 
z
" transform="scale(0.015625)"/>
       <path id="DejaVuSans-75" d="M 544 1381 
L 544 3500 
L 1119 3500 
L 1119 1403 
Q 1119 906 1312 657 
Q 1506 409 1894 409 
Q 2359 409 2629 706 
Q 2900 1003 2900 1516 
L 2900 3500 
L 3475 3500 
L 3475 0 
L 2900 0 
L 2900 538 
Q 2691 219 2414 64 
Q 2138 -91 1772 -91 
Q 1169 -91 856 284 
Q 544 659 544 1381 
z
M 1991 3584 
L 1991 3584 
z
" transform="scale(0.015625)"/>
       <path id="DejaVuSans-6e" d="M 3513 2113 
L 3513 0 
L 2938 0 
L 2938 2094 
Q 2938 2591 2744 2837 
Q 2550 3084 2163 3084 
Q 1697 3084 1428 2787 
Q 1159 2491 1159 1978 
L 1159 0 
L 581 0 
L 581 3500 
L 1159 3500 
L 1159 2956 
Q 1366 3272 1645 3428 
Q 1925 3584 2291 3584 
Q 2894 3584 3203 3211 
Q 3513 2838 3513 2113 
z
" transform="scale(0.015625)"/>
       <path id="DejaVuSans-74" d="M 1172 4494 
L 1172 3500 
L 2356 3500 
L 2356 3053 
L 1172 3053 
L 1172 1153 
Q 1172 725 1289 603 
Q 1406 481 1766 481 
L 2356 481 
L 2356 0 
L 1766 0 
Q 1100 0 847 248 
Q 594 497 594 1153 
L 594 3053 
L 172 3053 
L 172 3500 
L 594 3500 
L 594 4494 
L 1172 4494 
z
" transform="scale(0.015625)"/>
       <path id="DejaVuSans-79" d="M 2059 -325 
Q 1816 -950 1584 -1140 
Q 1353 -1331 966 -1331 
L 506 -1331 
L 506 -850 
L 844 -850 
Q 1081 -850 1212 -737 
Q 1344 -625 1503 -206 
L 1606 56 
L 191 3500 
L 800 3500 
L 1894 763 
L 2988 3500 
L 3597 3500 
L 2059 -325 
z
" transform="scale(0.015625)"/>
      </defs>
      <use xlink:href="#DejaVuSans-43"/>
      <use xlink:href="#DejaVuSans-6f" x="69.824219"/>
      <use xlink:href="#DejaVuSans-75" x="131.005859"/>
      <use xlink:href="#DejaVuSans-6e" x="194.384766"/>
      <use xlink:href="#DejaVuSans-74" x="257.763672"/>
      <use xlink:href="#DejaVuSans-79" x="296.972656"/>
     </g>
    </g>
    <g id="line2d_81">
     <path d="M 690.1164 114.072626 
L 700.1124 114.072626 
L 710.1084 114.072626 
" style="fill: none; stroke: #f7746a; stroke-width: 5; stroke-linecap: square"/>
    </g>
    <g id="text_15">
     <!-- Carlow -->
     <g transform="translate(718.1052 117.571226)scale(0.09996 -0.09996)">
      <defs>
       <path id="DejaVuSans-61" d="M 2194 1759 
Q 1497 1759 1228 1600 
Q 959 1441 959 1056 
Q 959 750 1161 570 
Q 1363 391 1709 391 
Q 2188 391 2477 730 
Q 2766 1069 2766 1631 
L 2766 1759 
L 2194 1759 
z
M 3341 1997 
L 3341 0 
L 2766 0 
L 2766 531 
Q 2569 213 2275 61 
Q 1981 -91 1556 -91 
Q 1019 -91 701 211 
Q 384 513 384 1019 
Q 384 1609 779 1909 
Q 1175 2209 1959 2209 
L 2766 2209 
L 2766 2266 
Q 2766 2663 2505 2880 
Q 2244 3097 1772 3097 
Q 1472 3097 1187 3025 
Q 903 2953 641 2809 
L 641 3341 
Q 956 3463 1253 3523 
Q 1550 3584 1831 3584 
Q 2591 3584 2966 3190 
Q 3341 2797 3341 1997 
z
" transform="scale(0.015625)"/>
       <path id="DejaVuSans-72" d="M 2631 2963 
Q 2534 3019 2420 3045 
Q 2306 3072 2169 3072 
Q 1681 3072 1420 2755 
Q 1159 2438 1159 1844 
L 1159 0 
L 581 0 
L 581 3500 
L 1159 3500 
L 1159 2956 
Q 1341 3275 1631 3429 
Q 1922 3584 2338 3584 
Q 2397 3584 2469 3576 
Q 2541 3569 2628 3553 
L 2631 2963 
z
" transform="scale(0.015625)"/>
       <path id="DejaVuSans-6c" d="M 603 4863 
L 1178 4863 
L 1178 0 
L 603 0 
L 603 4863 
z
" transform="scale(0.015625)"/>
       <path id="DejaVuSans-77" d="M 269 3500 
L 844 3500 
L 1563 769 
L 2278 3500 
L 2956 3500 
L 3675 769 
L 4391 3500 
L 4966 3500 
L 4050 0 
L 3372 0 
L 2619 2869 
L 1863 0 
L 1184 0 
L 269 3500 
z
" transform="scale(0.015625)"/>
      </defs>
      <use xlink:href="#DejaVuSans-43"/>
      <use xlink:href="#DejaVuSans-61" x="69.824219"/>
      <use xlink:href="#DejaVuSans-72" x="131.103516"/>
      <use xlink:href="#DejaVuSans-6c" x="172.216797"/>
      <use xlink:href="#DejaVuSans-6f" x="200"/>
      <use xlink:href="#DejaVuSans-77" x="261.181641"/>
     </g>
    </g>
    <g id="line2d_82">
     <path d="M 690.1164 128.74488 
L 700.1124 128.74488 
L 710.1084 128.74488 
" style="fill: none; stroke: #f07c32; stroke-width: 5; stroke-linecap: square"/>
    </g>
    <g id="text_16">
     <!-- Cavan -->
     <g transform="translate(718.1052 132.24348)scale(0.09996 -0.09996)">
      <defs>
       <path id="DejaVuSans-76" d="M 191 3500 
L 800 3500 
L 1894 563 
L 2988 3500 
L 3597 3500 
L 2284 0 
L 1503 0 
L 191 3500 
z
" transform="scale(0.015625)"/>
      </defs>
      <use xlink:href="#DejaVuSans-43"/>
      <use xlink:href="#DejaVuSans-61" x="69.824219"/>
      <use xlink:href="#DejaVuSans-76" x="131.103516"/>
      <use xlink:href="#DejaVuSans-61" x="190.283203"/>
      <use xlink:href="#DejaVuSans-6e" x="251.5625"/>
     </g>
    </g>
    <g id="line2d_83">
     <path d="M 690.1164 143.417134 
L 700.1124 143.417134 
L 710.1084 143.417134 
" style="fill: none; stroke: #d78b32; stroke-width: 5; stroke-linecap: square"/>
    </g>
    <g id="text_17">
     <!-- Clare -->
     <g transform="translate(718.1052 146.915734)scale(0.09996 -0.09996)">
      <defs>
       <path id="DejaVuSans-65" d="M 3597 1894 
L 3597 1613 
L 953 1613 
Q 991 1019 1311 708 
Q 1631 397 2203 397 
Q 2534 397 2845 478 
Q 3156 559 3463 722 
L 3463 178 
Q 3153 47 2828 -22 
Q 2503 -91 2169 -91 
Q 1331 -91 842 396 
Q 353 884 353 1716 
Q 353 2575 817 3079 
Q 1281 3584 2069 3584 
Q 2775 3584 3186 3129 
Q 3597 2675 3597 1894 
z
M 3022 2063 
Q 3016 2534 2758 2815 
Q 2500 3097 2075 3097 
Q 1594 3097 1305 2825 
Q 1016 2553 972 2059 
L 3022 2063 
z
" transform="scale(0.015625)"/>
      </defs>
      <use xlink:href="#DejaVuSans-43"/>
      <use xlink:href="#DejaVuSans-6c" x="69.824219"/>
      <use xlink:href="#DejaVuSans-61" x="97.607422"/>
      <use xlink:href="#DejaVuSans-72" x="158.886719"/>
      <use xlink:href="#DejaVuSans-65" x="197.75"/>
     </g>
    </g>
    <g id="line2d_84">
     <path d="M 690.1164 158.089388 
L 700.1124 158.089388 
L 710.1084 158.089388 
" style="fill: none; stroke: #c49432; stroke-width: 5; stroke-linecap: square"/>
    </g>
    <g id="text_18">
     <!-- Cork -->
     <g transform="translate(718.1052 161.587988)scale(0.09996 -0.09996)">
      <defs>
       <path id="DejaVuSans-6b" d="M 581 4863 
L 1159 4863 
L 1159 1991 
L 2875 3500 
L 3609 3500 
L 1753 1863 
L 3688 0 
L 2938 0 
L 1159 1709 
L 1159 0 
L 581 0 
L 581 4863 
z
" transform="scale(0.015625)"/>
      </defs>
      <use xlink:href="#DejaVuSans-43"/>
      <use xlink:href="#DejaVuSans-6f" x="69.824219"/>
      <use xlink:href="#DejaVuSans-72" x="131.005859"/>
      <use xlink:href="#DejaVuSans-6b" x="172.119141"/>
     </g>
    </g>
    <g id="line2d_85">
     <path d="M 690.1164 172.761641 
L 700.1124 172.761641 
L 710.1084 172.761641 
" style="fill: none; stroke: #b49b32; stroke-width: 5; stroke-linecap: square"/>
    </g>
    <g id="text_19">
     <!-- Donegal -->
     <g transform="translate(718.1052 176.260241)scale(0.09996 -0.09996)">
      <defs>
       <path id="DejaVuSans-44" d="M 1259 4147 
L 1259 519 
L 2022 519 
Q 2988 519 3436 956 
Q 3884 1394 3884 2338 
Q 3884 3275 3436 3711 
Q 2988 4147 2022 4147 
L 1259 4147 
z
M 628 4666 
L 1925 4666 
Q 3281 4666 3915 4102 
Q 4550 3538 4550 2338 
Q 4550 1131 3912 565 
Q 3275 0 1925 0 
L 628 0 
L 628 4666 
z
" transform="scale(0.015625)"/>
       <path id="DejaVuSans-67" d="M 2906 1791 
Q 2906 2416 2648 2759 
Q 2391 3103 1925 3103 
Q 1463 3103 1205 2759 
Q 947 2416 947 1791 
Q 947 1169 1205 825 
Q 1463 481 1925 481 
Q 2391 481 2648 825 
Q 2906 1169 2906 1791 
z
M 3481 434 
Q 3481 -459 3084 -895 
Q 2688 -1331 1869 -1331 
Q 1566 -1331 1297 -1286 
Q 1028 -1241 775 -1147 
L 775 -588 
Q 1028 -725 1275 -790 
Q 1522 -856 1778 -856 
Q 2344 -856 2625 -561 
Q 2906 -266 2906 331 
L 2906 616 
Q 2728 306 2450 153 
Q 2172 0 1784 0 
Q 1141 0 747 490 
Q 353 981 353 1791 
Q 353 2603 747 3093 
Q 1141 3584 1784 3584 
Q 2172 3584 2450 3431 
Q 2728 3278 2906 2969 
L 2906 3500 
L 3481 3500 
L 3481 434 
z
" transform="scale(0.015625)"/>
      </defs>
      <use xlink:href="#DejaVuSans-44"/>
      <use xlink:href="#DejaVuSans-6f" x="77.001953"/>
      <use xlink:href="#DejaVuSans-6e" x="138.183594"/>
      <use xlink:href="#DejaVuSans-65" x="201.5625"/>
      <use xlink:href="#DejaVuSans-67" x="263.085938"/>
      <use xlink:href="#DejaVuSans-61" x="326.5625"/>
      <use xlink:href="#DejaVuSans-6c" x="387.841797"/>
     </g>
    </g>
    <g id="line2d_86">
     <path d="M 690.1164 187.433895 
L 700.1124 187.433895 
L 710.1084 187.433895 
" style="fill: none; stroke: #a3a031; stroke-width: 5; stroke-linecap: square"/>
    </g>
    <g id="text_20">
     <!-- Dublin -->
     <g transform="translate(718.1052 190.932495)scale(0.09996 -0.09996)">
      <defs>
       <path id="DejaVuSans-62" d="M 3116 1747 
Q 3116 2381 2855 2742 
Q 2594 3103 2138 3103 
Q 1681 3103 1420 2742 
Q 1159 2381 1159 1747 
Q 1159 1113 1420 752 
Q 1681 391 2138 391 
Q 2594 391 2855 752 
Q 3116 1113 3116 1747 
z
M 1159 2969 
Q 1341 3281 1617 3432 
Q 1894 3584 2278 3584 
Q 2916 3584 3314 3078 
Q 3713 2572 3713 1747 
Q 3713 922 3314 415 
Q 2916 -91 2278 -91 
Q 1894 -91 1617 61 
Q 1341 213 1159 525 
L 1159 0 
L 581 0 
L 581 4863 
L 1159 4863 
L 1159 2969 
z
" transform="scale(0.015625)"/>
       <path id="DejaVuSans-69" d="M 603 3500 
L 1178 3500 
L 1178 0 
L 603 0 
L 603 3500 
z
M 603 4863 
L 1178 4863 
L 1178 4134 
L 603 4134 
L 603 4863 
z
" transform="scale(0.015625)"/>
      </defs>
      <use xlink:href="#DejaVuSans-44"/>
      <use xlink:href="#DejaVuSans-75" x="77.001953"/>
      <use xlink:href="#DejaVuSans-62" x="140.380859"/>
      <use xlink:href="#DejaVuSans-6c" x="203.857422"/>
      <use xlink:href="#DejaVuSans-69" x="231.640625"/>
      <use xlink:href="#DejaVuSans-6e" x="259.423828"/>
     </g>
    </g>
    <g id="line2d_87">
     <path d="M 690.1164 202.106149 
L 700.1124 202.106149 
L 710.1084 202.106149 
" style="fill: none; stroke: #90a531; stroke-width: 5; stroke-linecap: square"/>
    </g>
    <g id="text_21">
     <!-- Galway -->
     <g transform="translate(718.1052 205.604749)scale(0.09996 -0.09996)">
      <defs>
       <path id="DejaVuSans-47" d="M 3809 666 
L 3809 1919 
L 2778 1919 
L 2778 2438 
L 4434 2438 
L 4434 434 
Q 4069 175 3628 42 
Q 3188 -91 2688 -91 
Q 1594 -91 976 548 
Q 359 1188 359 2328 
Q 359 3472 976 4111 
Q 1594 4750 2688 4750 
Q 3144 4750 3555 4637 
Q 3966 4525 4313 4306 
L 4313 3634 
Q 3963 3931 3569 4081 
Q 3175 4231 2741 4231 
Q 1884 4231 1454 3753 
Q 1025 3275 1025 2328 
Q 1025 1384 1454 906 
Q 1884 428 2741 428 
Q 3075 428 3337 486 
Q 3600 544 3809 666 
z
" transform="scale(0.015625)"/>
      </defs>
      <use xlink:href="#DejaVuSans-47"/>
      <use xlink:href="#DejaVuSans-61" x="77.490234"/>
      <use xlink:href="#DejaVuSans-6c" x="138.769531"/>
      <use xlink:href="#DejaVuSans-77" x="166.552734"/>
      <use xlink:href="#DejaVuSans-61" x="248.339844"/>
      <use xlink:href="#DejaVuSans-79" x="309.619141"/>
     </g>
    </g>
    <g id="line2d_88">
     <path d="M 690.1164 216.778403 
L 700.1124 216.778403 
L 710.1084 216.778403 
" style="fill: none; stroke: #77ab31; stroke-width: 5; stroke-linecap: square"/>
    </g>
    <g id="text_22">
     <!-- Kerry -->
     <g transform="translate(718.1052 220.277003)scale(0.09996 -0.09996)">
      <defs>
       <path id="DejaVuSans-4b" d="M 628 4666 
L 1259 4666 
L 1259 2694 
L 3353 4666 
L 4166 4666 
L 1850 2491 
L 4331 0 
L 3500 0 
L 1259 2247 
L 1259 0 
L 628 0 
L 628 4666 
z
" transform="scale(0.015625)"/>
      </defs>
      <use xlink:href="#DejaVuSans-4b"/>
      <use xlink:href="#DejaVuSans-65" x="60.576172"/>
      <use xlink:href="#DejaVuSans-72" x="122.099609"/>
      <use xlink:href="#DejaVuSans-72" x="161.462891"/>
      <use xlink:href="#DejaVuSans-79" x="202.576172"/>
     </g>
    </g>
    <g id="line2d_89">
     <path d="M 690.1164 231.450656 
L 700.1124 231.450656 
L 710.1084 231.450656 
" style="fill: none; stroke: #43b231; stroke-width: 5; stroke-linecap: square"/>
    </g>
    <g id="text_23">
     <!-- Kildare -->
     <g transform="translate(718.1052 234.949256)scale(0.09996 -0.09996)">
      <defs>
       <path id="DejaVuSans-64" d="M 2906 2969 
L 2906 4863 
L 3481 4863 
L 3481 0 
L 2906 0 
L 2906 525 
Q 2725 213 2448 61 
Q 2172 -91 1784 -91 
Q 1150 -91 751 415 
Q 353 922 353 1747 
Q 353 2572 751 3078 
Q 1150 3584 1784 3584 
Q 2172 3584 2448 3432 
Q 2725 3281 2906 2969 
z
M 947 1747 
Q 947 1113 1208 752 
Q 1469 391 1925 391 
Q 2381 391 2643 752 
Q 2906 1113 2906 1747 
Q 2906 2381 2643 2742 
Q 2381 3103 1925 3103 
Q 1469 3103 1208 2742 
Q 947 2381 947 1747 
z
" transform="scale(0.015625)"/>
      </defs>
      <use xlink:href="#DejaVuSans-4b"/>
      <use xlink:href="#DejaVuSans-69" x="65.576172"/>
      <use xlink:href="#DejaVuSans-6c" x="93.359375"/>
      <use xlink:href="#DejaVuSans-64" x="121.142578"/>
      <use xlink:href="#DejaVuSans-61" x="184.619141"/>
      <use xlink:href="#DejaVuSans-72" x="245.898438"/>
      <use xlink:href="#DejaVuSans-65" x="284.761719"/>
     </g>
    </g>
    <g id="line2d_90">
     <path d="M 690.1164 246.12291 
L 700.1124 246.12291 
L 710.1084 246.12291 
" style="fill: none; stroke: #33b169; stroke-width: 5; stroke-linecap: square"/>
    </g>
    <g id="text_24">
     <!-- Kilkenny -->
     <g transform="translate(718.1052 249.62151)scale(0.09996 -0.09996)">
      <use xlink:href="#DejaVuSans-4b"/>
      <use xlink:href="#DejaVuSans-69" x="65.576172"/>
      <use xlink:href="#DejaVuSans-6c" x="93.359375"/>
      <use xlink:href="#DejaVuSans-6b" x="121.142578"/>
      <use xlink:href="#DejaVuSans-65" x="175.427734"/>
      <use xlink:href="#DejaVuSans-6e" x="236.951172"/>
      <use xlink:href="#DejaVuSans-6e" x="300.330078"/>
      <use xlink:href="#DejaVuSans-79" x="363.708984"/>
     </g>
    </g>
    <g id="line2d_91">
     <path d="M 690.1164 260.795164 
L 700.1124 260.795164 
L 710.1084 260.795164 
" style="fill: none; stroke: #34af84; stroke-width: 5; stroke-linecap: square"/>
    </g>
    <g id="text_25">
     <!-- Laois -->
     <g transform="translate(718.1052 264.293764)scale(0.09996 -0.09996)">
      <defs>
       <path id="DejaVuSans-4c" d="M 628 4666 
L 1259 4666 
L 1259 531 
L 3531 531 
L 3531 0 
L 628 0 
L 628 4666 
z
" transform="scale(0.015625)"/>
       <path id="DejaVuSans-73" d="M 2834 3397 
L 2834 2853 
Q 2591 2978 2328 3040 
Q 2066 3103 1784 3103 
Q 1356 3103 1142 2972 
Q 928 2841 928 2578 
Q 928 2378 1081 2264 
Q 1234 2150 1697 2047 
L 1894 2003 
Q 2506 1872 2764 1633 
Q 3022 1394 3022 966 
Q 3022 478 2636 193 
Q 2250 -91 1575 -91 
Q 1294 -91 989 -36 
Q 684 19 347 128 
L 347 722 
Q 666 556 975 473 
Q 1284 391 1588 391 
Q 1994 391 2212 530 
Q 2431 669 2431 922 
Q 2431 1156 2273 1281 
Q 2116 1406 1581 1522 
L 1381 1569 
Q 847 1681 609 1914 
Q 372 2147 372 2553 
Q 372 3047 722 3315 
Q 1072 3584 1716 3584 
Q 2034 3584 2315 3537 
Q 2597 3491 2834 3397 
z
" transform="scale(0.015625)"/>
      </defs>
      <use xlink:href="#DejaVuSans-4c"/>
      <use xlink:href="#DejaVuSans-61" x="55.712891"/>
      <use xlink:href="#DejaVuSans-6f" x="116.992188"/>
      <use xlink:href="#DejaVuSans-69" x="178.173828"/>
      <use xlink:href="#DejaVuSans-73" x="205.957031"/>
     </g>
    </g>
    <g id="line2d_92">
     <path d="M 690.1164 275.467418 
L 700.1124 275.467418 
L 710.1084 275.467418 
" style="fill: none; stroke: #35ae95; stroke-width: 5; stroke-linecap: square"/>
    </g>
    <g id="text_26">
     <!-- Leitrim -->
     <g transform="translate(718.1052 278.966018)scale(0.09996 -0.09996)">
      <defs>
       <path id="DejaVuSans-6d" d="M 3328 2828 
Q 3544 3216 3844 3400 
Q 4144 3584 4550 3584 
Q 5097 3584 5394 3201 
Q 5691 2819 5691 2113 
L 5691 0 
L 5113 0 
L 5113 2094 
Q 5113 2597 4934 2840 
Q 4756 3084 4391 3084 
Q 3944 3084 3684 2787 
Q 3425 2491 3425 1978 
L 3425 0 
L 2847 0 
L 2847 2094 
Q 2847 2600 2669 2842 
Q 2491 3084 2119 3084 
Q 1678 3084 1418 2786 
Q 1159 2488 1159 1978 
L 1159 0 
L 581 0 
L 581 3500 
L 1159 3500 
L 1159 2956 
Q 1356 3278 1631 3431 
Q 1906 3584 2284 3584 
Q 2666 3584 2933 3390 
Q 3200 3197 3328 2828 
z
" transform="scale(0.015625)"/>
      </defs>
      <use xlink:href="#DejaVuSans-4c"/>
      <use xlink:href="#DejaVuSans-65" x="53.962891"/>
      <use xlink:href="#DejaVuSans-69" x="115.486328"/>
      <use xlink:href="#DejaVuSans-74" x="143.269531"/>
      <use xlink:href="#DejaVuSans-72" x="182.478516"/>
      <use xlink:href="#DejaVuSans-69" x="223.591797"/>
      <use xlink:href="#DejaVuSans-6d" x="251.375"/>
     </g>
    </g>
    <g id="line2d_93">
     <path d="M 690.1164 290.139671 
L 700.1124 290.139671 
L 710.1084 290.139671 
" style="fill: none; stroke: #36ada2; stroke-width: 5; stroke-linecap: square"/>
    </g>
    <g id="text_27">
     <!-- Limerick -->
     <g transform="translate(718.1052 293.638271)scale(0.09996 -0.09996)">
      <defs>
       <path id="DejaVuSans-63" d="M 3122 3366 
L 3122 2828 
Q 2878 2963 2633 3030 
Q 2388 3097 2138 3097 
Q 1578 3097 1268 2742 
Q 959 2388 959 1747 
Q 959 1106 1268 751 
Q 1578 397 2138 397 
Q 2388 397 2633 464 
Q 2878 531 3122 666 
L 3122 134 
Q 2881 22 2623 -34 
Q 2366 -91 2075 -91 
Q 1284 -91 818 406 
Q 353 903 353 1747 
Q 353 2603 823 3093 
Q 1294 3584 2113 3584 
Q 2378 3584 2631 3529 
Q 2884 3475 3122 3366 
z
" transform="scale(0.015625)"/>
      </defs>
      <use xlink:href="#DejaVuSans-4c"/>
      <use xlink:href="#DejaVuSans-69" x="55.712891"/>
      <use xlink:href="#DejaVuSans-6d" x="83.496094"/>
      <use xlink:href="#DejaVuSans-65" x="180.908203"/>
      <use xlink:href="#DejaVuSans-72" x="242.431641"/>
      <use xlink:href="#DejaVuSans-69" x="283.544922"/>
      <use xlink:href="#DejaVuSans-63" x="311.328125"/>
      <use xlink:href="#DejaVuSans-6b" x="366.308594"/>
     </g>
    </g>
    <g id="line2d_94">
     <path d="M 690.1164 304.811925 
L 700.1124 304.811925 
L 710.1084 304.811925 
" style="fill: none; stroke: #36acae; stroke-width: 5; stroke-linecap: square"/>
    </g>
    <g id="text_28">
     <!-- Longford -->
     <g transform="translate(718.1052 308.310525)scale(0.09996 -0.09996)">
      <defs>
       <path id="DejaVuSans-66" d="M 2375 4863 
L 2375 4384 
L 1825 4384 
Q 1516 4384 1395 4259 
Q 1275 4134 1275 3809 
L 1275 3500 
L 2222 3500 
L 2222 3053 
L 1275 3053 
L 1275 0 
L 697 0 
L 697 3053 
L 147 3053 
L 147 3500 
L 697 3500 
L 697 3744 
Q 697 4328 969 4595 
Q 1241 4863 1831 4863 
L 2375 4863 
z
" transform="scale(0.015625)"/>
      </defs>
      <use xlink:href="#DejaVuSans-4c"/>
      <use xlink:href="#DejaVuSans-6f" x="53.962891"/>
      <use xlink:href="#DejaVuSans-6e" x="115.144531"/>
      <use xlink:href="#DejaVuSans-67" x="178.523438"/>
      <use xlink:href="#DejaVuSans-66" x="242"/>
      <use xlink:href="#DejaVuSans-6f" x="277.205078"/>
      <use xlink:href="#DejaVuSans-72" x="338.386719"/>
      <use xlink:href="#DejaVuSans-64" x="377.75"/>
     </g>
    </g>
    <g id="line2d_95">
     <path d="M 690.1164 319.484179 
L 700.1124 319.484179 
L 710.1084 319.484179 
" style="fill: none; stroke: #37aaba; stroke-width: 5; stroke-linecap: square"/>
    </g>
    <g id="text_29">
     <!-- Louth -->
     <g transform="translate(718.1052 322.982779)scale(0.09996 -0.09996)">
      <defs>
       <path id="DejaVuSans-68" d="M 3513 2113 
L 3513 0 
L 2938 0 
L 2938 2094 
Q 2938 2591 2744 2837 
Q 2550 3084 2163 3084 
Q 1697 3084 1428 2787 
Q 1159 2491 1159 1978 
L 1159 0 
L 581 0 
L 581 4863 
L 1159 4863 
L 1159 2956 
Q 1366 3272 1645 3428 
Q 1925 3584 2291 3584 
Q 2894 3584 3203 3211 
Q 3513 2838 3513 2113 
z
" transform="scale(0.015625)"/>
      </defs>
      <use xlink:href="#DejaVuSans-4c"/>
      <use xlink:href="#DejaVuSans-6f" x="53.962891"/>
      <use xlink:href="#DejaVuSans-75" x="115.144531"/>
      <use xlink:href="#DejaVuSans-74" x="178.523438"/>
      <use xlink:href="#DejaVuSans-68" x="217.732422"/>
     </g>
    </g>
    <g id="line2d_96">
     <path d="M 690.1164 334.156433 
L 700.1124 334.156433 
L 710.1084 334.156433 
" style="fill: none; stroke: #38a8c9; stroke-width: 5; stroke-linecap: square"/>
    </g>
    <g id="text_30">
     <!-- Mayo -->
     <g transform="translate(718.1052 337.655033)scale(0.09996 -0.09996)">
      <defs>
       <path id="DejaVuSans-4d" d="M 628 4666 
L 1569 4666 
L 2759 1491 
L 3956 4666 
L 4897 4666 
L 4897 0 
L 4281 0 
L 4281 4097 
L 3078 897 
L 2444 897 
L 1241 4097 
L 1241 0 
L 628 0 
L 628 4666 
z
" transform="scale(0.015625)"/>
      </defs>
      <use xlink:href="#DejaVuSans-4d"/>
      <use xlink:href="#DejaVuSans-61" x="86.279297"/>
      <use xlink:href="#DejaVuSans-79" x="147.558594"/>
      <use xlink:href="#DejaVuSans-6f" x="206.738281"/>
     </g>
    </g>
    <g id="line2d_97">
     <path d="M 690.1164 348.828686 
L 700.1124 348.828686 
L 710.1084 348.828686 
" style="fill: none; stroke: #3aa6dd; stroke-width: 5; stroke-linecap: square"/>
    </g>
    <g id="text_31">
     <!-- Meath -->
     <g transform="translate(718.1052 352.327286)scale(0.09996 -0.09996)">
      <use xlink:href="#DejaVuSans-4d"/>
      <use xlink:href="#DejaVuSans-65" x="86.279297"/>
      <use xlink:href="#DejaVuSans-61" x="147.802734"/>
      <use xlink:href="#DejaVuSans-74" x="209.082031"/>
      <use xlink:href="#DejaVuSans-68" x="248.291016"/>
     </g>
    </g>
    <g id="line2d_98">
     <path d="M 690.1164 363.50094 
L 700.1124 363.50094 
L 710.1084 363.50094 
" style="fill: none; stroke: #569ff4; stroke-width: 5; stroke-linecap: square"/>
    </g>
    <g id="text_32">
     <!-- Monaghan -->
     <g transform="translate(718.1052 366.99954)scale(0.09996 -0.09996)">
      <use xlink:href="#DejaVuSans-4d"/>
      <use xlink:href="#DejaVuSans-6f" x="86.279297"/>
      <use xlink:href="#DejaVuSans-6e" x="147.460938"/>
      <use xlink:href="#DejaVuSans-61" x="210.839844"/>
      <use xlink:href="#DejaVuSans-67" x="272.119141"/>
      <use xlink:href="#DejaVuSans-68" x="335.595703"/>
      <use xlink:href="#DejaVuSans-61" x="398.974609"/>
      <use xlink:href="#DejaVuSans-6e" x="460.253906"/>
     </g>
    </g>
    <g id="line2d_99">
     <path d="M 690.1164 378.173194 
L 700.1124 378.173194 
L 710.1084 378.173194 
" style="fill: none; stroke: #8b94f4; stroke-width: 5; stroke-linecap: square"/>
    </g>
    <g id="text_33">
     <!-- Offaly -->
     <g transform="translate(718.1052 381.671794)scale(0.09996 -0.09996)">
      <defs>
       <path id="DejaVuSans-4f" d="M 2522 4238 
Q 1834 4238 1429 3725 
Q 1025 3213 1025 2328 
Q 1025 1447 1429 934 
Q 1834 422 2522 422 
Q 3209 422 3611 934 
Q 4013 1447 4013 2328 
Q 4013 3213 3611 3725 
Q 3209 4238 2522 4238 
z
M 2522 4750 
Q 3503 4750 4090 4092 
Q 4678 3434 4678 2328 
Q 4678 1225 4090 567 
Q 3503 -91 2522 -91 
Q 1538 -91 948 565 
Q 359 1222 359 2328 
Q 359 3434 948 4092 
Q 1538 4750 2522 4750 
z
" transform="scale(0.015625)"/>
      </defs>
      <use xlink:href="#DejaVuSans-4f"/>
      <use xlink:href="#DejaVuSans-66" x="78.710938"/>
      <use xlink:href="#DejaVuSans-66" x="113.916016"/>
      <use xlink:href="#DejaVuSans-61" x="149.121094"/>
      <use xlink:href="#DejaVuSans-6c" x="210.400391"/>
      <use xlink:href="#DejaVuSans-79" x="238.183594"/>
     </g>
    </g>
    <g id="line2d_100">
     <path d="M 690.1164 392.845448 
L 700.1124 392.845448 
L 710.1084 392.845448 
" style="fill: none; stroke: #ae88f4; stroke-width: 5; stroke-linecap: square"/>
    </g>
    <g id="text_34">
     <!-- Roscommon -->
     <g transform="translate(718.1052 396.344048)scale(0.09996 -0.09996)">
      <defs>
       <path id="DejaVuSans-52" d="M 2841 2188 
Q 3044 2119 3236 1894 
Q 3428 1669 3622 1275 
L 4263 0 
L 3584 0 
L 2988 1197 
Q 2756 1666 2539 1819 
Q 2322 1972 1947 1972 
L 1259 1972 
L 1259 0 
L 628 0 
L 628 4666 
L 2053 4666 
Q 2853 4666 3247 4331 
Q 3641 3997 3641 3322 
Q 3641 2881 3436 2590 
Q 3231 2300 2841 2188 
z
M 1259 4147 
L 1259 2491 
L 2053 2491 
Q 2509 2491 2742 2702 
Q 2975 2913 2975 3322 
Q 2975 3731 2742 3939 
Q 2509 4147 2053 4147 
L 1259 4147 
z
" transform="scale(0.015625)"/>
      </defs>
      <use xlink:href="#DejaVuSans-52"/>
      <use xlink:href="#DejaVuSans-6f" x="64.982422"/>
      <use xlink:href="#DejaVuSans-73" x="126.164062"/>
      <use xlink:href="#DejaVuSans-63" x="178.263672"/>
      <use xlink:href="#DejaVuSans-6f" x="233.244141"/>
      <use xlink:href="#DejaVuSans-6d" x="294.425781"/>
      <use xlink:href="#DejaVuSans-6d" x="391.837891"/>
      <use xlink:href="#DejaVuSans-6f" x="489.25"/>
      <use xlink:href="#DejaVuSans-6e" x="550.431641"/>
     </g>
    </g>
    <g id="line2d_101">
     <path d="M 690.1164 407.517701 
L 700.1124 407.517701 
L 710.1084 407.517701 
" style="fill: none; stroke: #cd79f4; stroke-width: 5; stroke-linecap: square"/>
    </g>
    <g id="text_35">
     <!-- Sligo -->
     <g transform="translate(718.1052 411.016301)scale(0.09996 -0.09996)">
      <defs>
       <path id="DejaVuSans-53" d="M 3425 4513 
L 3425 3897 
Q 3066 4069 2747 4153 
Q 2428 4238 2131 4238 
Q 1616 4238 1336 4038 
Q 1056 3838 1056 3469 
Q 1056 3159 1242 3001 
Q 1428 2844 1947 2747 
L 2328 2669 
Q 3034 2534 3370 2195 
Q 3706 1856 3706 1288 
Q 3706 609 3251 259 
Q 2797 -91 1919 -91 
Q 1588 -91 1214 -16 
Q 841 59 441 206 
L 441 856 
Q 825 641 1194 531 
Q 1563 422 1919 422 
Q 2459 422 2753 634 
Q 3047 847 3047 1241 
Q 3047 1584 2836 1778 
Q 2625 1972 2144 2069 
L 1759 2144 
Q 1053 2284 737 2584 
Q 422 2884 422 3419 
Q 422 4038 858 4394 
Q 1294 4750 2059 4750 
Q 2388 4750 2728 4690 
Q 3069 4631 3425 4513 
z
" transform="scale(0.015625)"/>
      </defs>
      <use xlink:href="#DejaVuSans-53"/>
      <use xlink:href="#DejaVuSans-6c" x="63.476562"/>
      <use xlink:href="#DejaVuSans-69" x="91.259766"/>
      <use xlink:href="#DejaVuSans-67" x="119.042969"/>
      <use xlink:href="#DejaVuSans-6f" x="182.519531"/>
     </g>
    </g>
    <g id="line2d_102">
     <path d="M 690.1164 422.189955 
L 700.1124 422.189955 
L 710.1084 422.189955 
" style="fill: none; stroke: #ed62f4; stroke-width: 5; stroke-linecap: square"/>
    </g>
    <g id="text_36">
     <!-- Tipperary -->
     <g transform="translate(718.1052 425.688555)scale(0.09996 -0.09996)">
      <defs>
       <path id="DejaVuSans-54" d="M -19 4666 
L 3928 4666 
L 3928 4134 
L 2272 4134 
L 2272 0 
L 1638 0 
L 1638 4134 
L -19 4134 
L -19 4666 
z
" transform="scale(0.015625)"/>
       <path id="DejaVuSans-70" d="M 1159 525 
L 1159 -1331 
L 581 -1331 
L 581 3500 
L 1159 3500 
L 1159 2969 
Q 1341 3281 1617 3432 
Q 1894 3584 2278 3584 
Q 2916 3584 3314 3078 
Q 3713 2572 3713 1747 
Q 3713 922 3314 415 
Q 2916 -91 2278 -91 
Q 1894 -91 1617 61 
Q 1341 213 1159 525 
z
M 3116 1747 
Q 3116 2381 2855 2742 
Q 2594 3103 2138 3103 
Q 1681 3103 1420 2742 
Q 1159 2381 1159 1747 
Q 1159 1113 1420 752 
Q 1681 391 2138 391 
Q 2594 391 2855 752 
Q 3116 1113 3116 1747 
z
" transform="scale(0.015625)"/>
      </defs>
      <use xlink:href="#DejaVuSans-54"/>
      <use xlink:href="#DejaVuSans-69" x="57.958984"/>
      <use xlink:href="#DejaVuSans-70" x="85.742188"/>
      <use xlink:href="#DejaVuSans-70" x="149.21875"/>
      <use xlink:href="#DejaVuSans-65" x="212.695312"/>
      <use xlink:href="#DejaVuSans-72" x="274.21875"/>
      <use xlink:href="#DejaVuSans-61" x="315.332031"/>
      <use xlink:href="#DejaVuSans-72" x="376.611328"/>
      <use xlink:href="#DejaVuSans-79" x="417.724609"/>
     </g>
    </g>
    <g id="line2d_103">
     <path d="M 690.1164 436.862209 
L 700.1124 436.862209 
L 710.1084 436.862209 
" style="fill: none; stroke: #f562db; stroke-width: 5; stroke-linecap: square"/>
    </g>
    <g id="text_37">
     <!-- Waterford -->
     <g transform="translate(718.1052 440.360809)scale(0.09996 -0.09996)">
      <defs>
       <path id="DejaVuSans-57" d="M 213 4666 
L 850 4666 
L 1831 722 
L 2809 4666 
L 3519 4666 
L 4500 722 
L 5478 4666 
L 6119 4666 
L 4947 0 
L 4153 0 
L 3169 4050 
L 2175 0 
L 1381 0 
L 213 4666 
z
" transform="scale(0.015625)"/>
      </defs>
      <use xlink:href="#DejaVuSans-57"/>
      <use xlink:href="#DejaVuSans-61" x="92.501953"/>
      <use xlink:href="#DejaVuSans-74" x="153.78125"/>
      <use xlink:href="#DejaVuSans-65" x="192.990234"/>
      <use xlink:href="#DejaVuSans-72" x="254.513672"/>
      <use xlink:href="#DejaVuSans-66" x="295.626953"/>
      <use xlink:href="#DejaVuSans-6f" x="330.832031"/>
      <use xlink:href="#DejaVuSans-72" x="392.013672"/>
      <use xlink:href="#DejaVuSans-64" x="431.376953"/>
     </g>
    </g>
    <g id="line2d_104">
     <path d="M 690.1164 451.534462 
L 700.1124 451.534462 
L 710.1084 451.534462 
" style="fill: none; stroke: #f668c2; stroke-width: 5; stroke-linecap: square"/>
    </g>
    <g id="text_38">
     <!-- Westmeath -->
     <g transform="translate(718.1052 455.033062)scale(0.09996 -0.09996)">
      <use xlink:href="#DejaVuSans-57"/>
      <use xlink:href="#DejaVuSans-65" x="93.001953"/>
      <use xlink:href="#DejaVuSans-73" x="154.525391"/>
      <use xlink:href="#DejaVuSans-74" x="206.625"/>
      <use xlink:href="#DejaVuSans-6d" x="245.833984"/>
      <use xlink:href="#DejaVuSans-65" x="343.246094"/>
      <use xlink:href="#DejaVuSans-61" x="404.769531"/>
      <use xlink:href="#DejaVuSans-74" x="466.048828"/>
      <use xlink:href="#DejaVuSans-68" x="505.257812"/>
     </g>
    </g>
    <g id="line2d_105">
     <path d="M 690.1164 466.206716 
L 700.1124 466.206716 
L 710.1084 466.206716 
" style="fill: none; stroke: #f66caa; stroke-width: 5; stroke-linecap: square"/>
    </g>
    <g id="text_39">
     <!-- Wexford -->
     <g transform="translate(718.1052 469.705316)scale(0.09996 -0.09996)">
      <defs>
       <path id="DejaVuSans-78" d="M 3513 3500 
L 2247 1797 
L 3578 0 
L 2900 0 
L 1881 1375 
L 863 0 
L 184 0 
L 1544 1831 
L 300 3500 
L 978 3500 
L 1906 2253 
L 2834 3500 
L 3513 3500 
z
" transform="scale(0.015625)"/>
      </defs>
      <use xlink:href="#DejaVuSans-57"/>
      <use xlink:href="#DejaVuSans-65" x="93.001953"/>
      <use xlink:href="#DejaVuSans-78" x="152.775391"/>
      <use xlink:href="#DejaVuSans-66" x="211.955078"/>
      <use xlink:href="#DejaVuSans-6f" x="247.160156"/>
      <use xlink:href="#DejaVuSans-72" x="308.341797"/>
      <use xlink:href="#DejaVuSans-64" x="347.705078"/>
     </g>
    </g>
    <g id="line2d_106">
     <path d="M 690.1164 480.87897 
L 700.1124 480.87897 
L 710.1084 480.87897 
" style="fill: none; stroke: #f7708e; stroke-width: 5; stroke-linecap: square"/>
    </g>
    <g id="text_40">
     <!-- Wicklow -->
     <g transform="translate(718.1052 484.37757)scale(0.09996 -0.09996)">
      <use xlink:href="#DejaVuSans-57"/>
      <use xlink:href="#DejaVuSans-69" x="96.626953"/>
      <use xlink:href="#DejaVuSans-63" x="124.410156"/>
      <use xlink:href="#DejaVuSans-6b" x="179.390625"/>
      <use xlink:href="#DejaVuSans-6c" x="237.300781"/>
      <use xlink:href="#DejaVuSans-6f" x="265.083984"/>
      <use xlink:href="#DejaVuSans-77" x="326.265625"/>
     </g>
    </g>
   </g>
  </g>
  <g id="text_41">
   <!-- Year -->
   <g transform="translate(383.295 547.2)scale(0.12 -0.12)">
    <defs>
     <path id="DejaVuSans-59" d="M -13 4666 
L 666 4666 
L 1959 2747 
L 3244 4666 
L 3922 4666 
L 2272 2222 
L 2272 0 
L 1638 0 
L 1638 2222 
L -13 4666 
z
" transform="scale(0.015625)"/>
    </defs>
    <use xlink:href="#DejaVuSans-59"/>
    <use xlink:href="#DejaVuSans-65" x="47.833984"/>
    <use xlink:href="#DejaVuSans-61" x="109.357422"/>
    <use xlink:href="#DejaVuSans-72" x="170.636719"/>
   </g>
  </g>
  <g id="text_42">
   <!-- Estimated Value -->
   <g transform="translate(42.91125 290.495625)rotate(-90)scale(0.12 -0.12)">
    <defs>
     <path id="DejaVuSans-45" d="M 628 4666 
L 3578 4666 
L 3578 4134 
L 1259 4134 
L 1259 2753 
L 3481 2753 
L 3481 2222 
L 1259 2222 
L 1259 531 
L 3634 531 
L 3634 0 
L 628 0 
L 628 4666 
z
" transform="scale(0.015625)"/>
     <path id="DejaVuSans-20" transform="scale(0.015625)"/>
     <path id="DejaVuSans-56" d="M 1831 0 
L 50 4666 
L 709 4666 
L 2188 738 
L 3669 4666 
L 4325 4666 
L 2547 0 
L 1831 0 
z
" transform="scale(0.015625)"/>
    </defs>
    <use xlink:href="#DejaVuSans-45"/>
    <use xlink:href="#DejaVuSans-73" x="63.183594"/>
    <use xlink:href="#DejaVuSans-74" x="115.283203"/>
    <use xlink:href="#DejaVuSans-69" x="154.492188"/>
    <use xlink:href="#DejaVuSans-6d" x="182.275391"/>
    <use xlink:href="#DejaVuSans-61" x="279.6875"/>
    <use xlink:href="#DejaVuSans-74" x="340.966797"/>
    <use xlink:href="#DejaVuSans-65" x="380.175781"/>
    <use xlink:href="#DejaVuSans-64" x="441.699219"/>
    <use xlink:href="#DejaVuSans-20" x="505.175781"/>
    <use xlink:href="#DejaVuSans-56" x="536.962891"/>
    <use xlink:href="#DejaVuSans-61" x="597.621094"/>
    <use xlink:href="#DejaVuSans-6c" x="658.900391"/>
    <use xlink:href="#DejaVuSans-75" x="686.683594"/>
    <use xlink:href="#DejaVuSans-65" x="750.0625"/>
   </g>
  </g>
 </g>
 <defs>
  <clipPath id="p68ac1062cf">
   <rect x="99" y="69.12" width="554.4" height="443.52"/>
  </clipPath>
 </defs>
</svg>
