<?xml version="1.0" encoding="utf-8" standalone="no"?>
<!DOCTYPE svg PUBLIC "-//W3C//DTD SVG 1.1//EN"
  "http://www.w3.org/Graphics/SVG/1.1/DTD/svg11.dtd">
<svg xmlns:xlink="http://www.w3.org/1999/xlink" width="792pt" height="288pt" viewBox="0 0 792 288" xmlns="http://www.w3.org/2000/svg" version="1.1">
 <metadata>
  <rdf:RDF xmlns:dc="http://purl.org/dc/elements/1.1/" xmlns:cc="http://creativecommons.org/ns#" xmlns:rdf="http://www.w3.org/1999/02/22-rdf-syntax-ns#">
   <cc:Work>
    <dc:type rdf:resource="http://purl.org/dc/dcmitype/StillImage"/>
    <dc:date>2021-12-02T04:07:04.416352</dc:date>
    <dc:format>image/svg+xml</dc:format>
    <dc:creator>
     <cc:Agent>
      <dc:title>Matplotlib v3.5.0, https://matplotlib.org/</dc:title>
     </cc:Agent>
    </dc:creator>
   </cc:Work>
  </rdf:RDF>
 </metadata>
 <defs>
  <style type="text/css">*{stroke-linejoin: round; stroke-linecap: butt}</style>
 </defs>
 <g id="figure_1">
  <g id="patch_1">
   <path d="M 0 288 
L 792 288 
L 792 0 
L 0 0 
z
" style="fill: #ffffff"/>
  </g>
  <g id="axes_1">
   <g id="patch_2">
    <path d="M 99 256.32 
L 653.4 256.32 
L 653.4 34.56 
L 99 34.56 
z
" style="fill: #e5e5e5"/>
   </g>
   <g id="matplotlib.axis_1">
    <g id="xtick_1">
     <g id="line2d_1">
      <path d="M 150.12 256.32 
L 150.12 34.56 
" clip-path="url(#p766c035393)" style="fill: none; stroke: #ffffff; stroke-width: 1.4; stroke-linecap: square"/>
     </g>
     <g id="line2d_2">
      <defs>
       <path id="mb59ad6201a" d="M 0 0 
L 0 5 
" style="stroke: #7f7f7f; stroke-width: 1.4"/>
      </defs>
      <g>
       <use xlink:href="#mb59ad6201a" x="150.12" y="256.32" style="fill: #7f7f7f; stroke: #7f7f7f; stroke-width: 1.4"/>
      </g>
     </g>
     <g id="text_1">
      <!-- 1850 -->
      <g style="fill: #7f7f7f" transform="translate(134.85 271.438125)scale(0.12 -0.12)">
       <defs>
        <path id="DejaVuSans-31" d="M 794 531 
L 1825 531 
L 1825 4091 
L 703 3866 
L 703 4441 
L 1819 4666 
L 2450 4666 
L 2450 531 
L 3481 531 
L 3481 0 
L 794 0 
L 794 531 
z
" transform="scale(0.015625)"/>
        <path id="DejaVuSans-38" d="M 2034 2216 
Q 1584 2216 1326 1975 
Q 1069 1734 1069 1313 
Q 1069 891 1326 650 
Q 1584 409 2034 409 
Q 2484 409 2743 651 
Q 3003 894 3003 1313 
Q 3003 1734 2745 1975 
Q 2488 2216 2034 2216 
z
M 1403 2484 
Q 997 2584 770 2862 
Q 544 3141 544 3541 
Q 544 4100 942 4425 
Q 1341 4750 2034 4750 
Q 2731 4750 3128 4425 
Q 3525 4100 3525 3541 
Q 3525 3141 3298 2862 
Q 3072 2584 2669 2484 
Q 3125 2378 3379 2068 
Q 3634 1759 3634 1313 
Q 3634 634 3220 271 
Q 2806 -91 2034 -91 
Q 1263 -91 848 271 
Q 434 634 434 1313 
Q 434 1759 690 2068 
Q 947 2378 1403 2484 
z
M 1172 3481 
Q 1172 3119 1398 2916 
Q 1625 2713 2034 2713 
Q 2441 2713 2670 2916 
Q 2900 3119 2900 3481 
Q 2900 3844 2670 4047 
Q 2441 4250 2034 4250 
Q 1625 4250 1398 4047 
Q 1172 3844 1172 3481 
z
" transform="scale(0.015625)"/>
        <path id="DejaVuSans-35" d="M 691 4666 
L 3169 4666 
L 3169 4134 
L 1269 4134 
L 1269 2991 
Q 1406 3038 1543 3061 
Q 1681 3084 1819 3084 
Q 2600 3084 3056 2656 
Q 3513 2228 3513 1497 
Q 3513 744 3044 326 
Q 2575 -91 1722 -91 
Q 1428 -91 1123 -41 
Q 819 9 494 109 
L 494 744 
Q 775 591 1075 516 
Q 1375 441 1709 441 
Q 2250 441 2565 725 
Q 2881 1009 2881 1497 
Q 2881 1984 2565 2268 
Q 2250 2553 1709 2553 
Q 1456 2553 1204 2497 
Q 953 2441 691 2322 
L 691 4666 
z
" transform="scale(0.015625)"/>
        <path id="DejaVuSans-30" d="M 2034 4250 
Q 1547 4250 1301 3770 
Q 1056 3291 1056 2328 
Q 1056 1369 1301 889 
Q 1547 409 2034 409 
Q 2525 409 2770 889 
Q 3016 1369 3016 2328 
Q 3016 3291 2770 3770 
Q 2525 4250 2034 4250 
z
M 2034 4750 
Q 2819 4750 3233 4129 
Q 3647 3509 3647 2328 
Q 3647 1150 3233 529 
Q 2819 -91 2034 -91 
Q 1250 -91 836 529 
Q 422 1150 422 2328 
Q 422 3509 836 4129 
Q 1250 4750 2034 4750 
z
" transform="scale(0.015625)"/>
       </defs>
       <use xlink:href="#DejaVuSans-31"/>
       <use xlink:href="#DejaVuSans-38" x="63.623047"/>
       <use xlink:href="#DejaVuSans-35" x="127.246094"/>
       <use xlink:href="#DejaVuSans-30" x="190.869141"/>
      </g>
     </g>
    </g>
    <g id="xtick_2">
     <g id="line2d_3">
      <path d="M 222.12 256.32 
L 222.12 34.56 
" clip-path="url(#p766c035393)" style="fill: none; stroke: #ffffff; stroke-width: 1.4; stroke-linecap: square"/>
     </g>
     <g id="line2d_4">
      <g>
       <use xlink:href="#mb59ad6201a" x="222.12" y="256.32" style="fill: #7f7f7f; stroke: #7f7f7f; stroke-width: 1.4"/>
      </g>
     </g>
     <g id="text_2">
      <!-- 1875 -->
      <g style="fill: #7f7f7f" transform="translate(206.85 271.438125)scale(0.12 -0.12)">
       <defs>
        <path id="DejaVuSans-37" d="M 525 4666 
L 3525 4666 
L 3525 4397 
L 1831 0 
L 1172 0 
L 2766 4134 
L 525 4134 
L 525 4666 
z
" transform="scale(0.015625)"/>
       </defs>
       <use xlink:href="#DejaVuSans-31"/>
       <use xlink:href="#DejaVuSans-38" x="63.623047"/>
       <use xlink:href="#DejaVuSans-37" x="127.246094"/>
       <use xlink:href="#DejaVuSans-35" x="190.869141"/>
      </g>
     </g>
    </g>
    <g id="xtick_3">
     <g id="line2d_5">
      <path d="M 294.12 256.32 
L 294.12 34.56 
" clip-path="url(#p766c035393)" style="fill: none; stroke: #ffffff; stroke-width: 1.4; stroke-linecap: square"/>
     </g>
     <g id="line2d_6">
      <g>
       <use xlink:href="#mb59ad6201a" x="294.12" y="256.32" style="fill: #7f7f7f; stroke: #7f7f7f; stroke-width: 1.4"/>
      </g>
     </g>
     <g id="text_3">
      <!-- 1900 -->
      <g style="fill: #7f7f7f" transform="translate(278.85 271.438125)scale(0.12 -0.12)">
       <defs>
        <path id="DejaVuSans-39" d="M 703 97 
L 703 672 
Q 941 559 1184 500 
Q 1428 441 1663 441 
Q 2288 441 2617 861 
Q 2947 1281 2994 2138 
Q 2813 1869 2534 1725 
Q 2256 1581 1919 1581 
Q 1219 1581 811 2004 
Q 403 2428 403 3163 
Q 403 3881 828 4315 
Q 1253 4750 1959 4750 
Q 2769 4750 3195 4129 
Q 3622 3509 3622 2328 
Q 3622 1225 3098 567 
Q 2575 -91 1691 -91 
Q 1453 -91 1209 -44 
Q 966 3 703 97 
z
M 1959 2075 
Q 2384 2075 2632 2365 
Q 2881 2656 2881 3163 
Q 2881 3666 2632 3958 
Q 2384 4250 1959 4250 
Q 1534 4250 1286 3958 
Q 1038 3666 1038 3163 
Q 1038 2656 1286 2365 
Q 1534 2075 1959 2075 
z
" transform="scale(0.015625)"/>
       </defs>
       <use xlink:href="#DejaVuSans-31"/>
       <use xlink:href="#DejaVuSans-39" x="63.623047"/>
       <use xlink:href="#DejaVuSans-30" x="127.246094"/>
       <use xlink:href="#DejaVuSans-30" x="190.869141"/>
      </g>
     </g>
    </g>
    <g id="xtick_4">
     <g id="line2d_7">
      <path d="M 366.12 256.32 
L 366.12 34.56 
" clip-path="url(#p766c035393)" style="fill: none; stroke: #ffffff; stroke-width: 1.4; stroke-linecap: square"/>
     </g>
     <g id="line2d_8">
      <g>
       <use xlink:href="#mb59ad6201a" x="366.12" y="256.32" style="fill: #7f7f7f; stroke: #7f7f7f; stroke-width: 1.4"/>
      </g>
     </g>
     <g id="text_4">
      <!-- 1925 -->
      <g style="fill: #7f7f7f" transform="translate(350.85 271.438125)scale(0.12 -0.12)">
       <defs>
        <path id="DejaVuSans-32" d="M 1228 531 
L 3431 531 
L 3431 0 
L 469 0 
L 469 531 
Q 828 903 1448 1529 
Q 2069 2156 2228 2338 
Q 2531 2678 2651 2914 
Q 2772 3150 2772 3378 
Q 2772 3750 2511 3984 
Q 2250 4219 1831 4219 
Q 1534 4219 1204 4116 
Q 875 4013 500 3803 
L 500 4441 
Q 881 4594 1212 4672 
Q 1544 4750 1819 4750 
Q 2544 4750 2975 4387 
Q 3406 4025 3406 3419 
Q 3406 3131 3298 2873 
Q 3191 2616 2906 2266 
Q 2828 2175 2409 1742 
Q 1991 1309 1228 531 
z
" transform="scale(0.015625)"/>
       </defs>
       <use xlink:href="#DejaVuSans-31"/>
       <use xlink:href="#DejaVuSans-39" x="63.623047"/>
       <use xlink:href="#DejaVuSans-32" x="127.246094"/>
       <use xlink:href="#DejaVuSans-35" x="190.869141"/>
      </g>
     </g>
    </g>
    <g id="xtick_5">
     <g id="line2d_9">
      <path d="M 438.12 256.32 
L 438.12 34.56 
" clip-path="url(#p766c035393)" style="fill: none; stroke: #ffffff; stroke-width: 1.4; stroke-linecap: square"/>
     </g>
     <g id="line2d_10">
      <g>
       <use xlink:href="#mb59ad6201a" x="438.12" y="256.32" style="fill: #7f7f7f; stroke: #7f7f7f; stroke-width: 1.4"/>
      </g>
     </g>
     <g id="text_5">
      <!-- 1950 -->
      <g style="fill: #7f7f7f" transform="translate(422.85 271.438125)scale(0.12 -0.12)">
       <use xlink:href="#DejaVuSans-31"/>
       <use xlink:href="#DejaVuSans-39" x="63.623047"/>
       <use xlink:href="#DejaVuSans-35" x="127.246094"/>
       <use xlink:href="#DejaVuSans-30" x="190.869141"/>
      </g>
     </g>
    </g>
    <g id="xtick_6">
     <g id="line2d_11">
      <path d="M 510.12 256.32 
L 510.12 34.56 
" clip-path="url(#p766c035393)" style="fill: none; stroke: #ffffff; stroke-width: 1.4; stroke-linecap: square"/>
     </g>
     <g id="line2d_12">
      <g>
       <use xlink:href="#mb59ad6201a" x="510.12" y="256.32" style="fill: #7f7f7f; stroke: #7f7f7f; stroke-width: 1.4"/>
      </g>
     </g>
     <g id="text_6">
      <!-- 1975 -->
      <g style="fill: #7f7f7f" transform="translate(494.85 271.438125)scale(0.12 -0.12)">
       <use xlink:href="#DejaVuSans-31"/>
       <use xlink:href="#DejaVuSans-39" x="63.623047"/>
       <use xlink:href="#DejaVuSans-37" x="127.246094"/>
       <use xlink:href="#DejaVuSans-35" x="190.869141"/>
      </g>
     </g>
    </g>
    <g id="xtick_7">
     <g id="line2d_13">
      <path d="M 582.12 256.32 
L 582.12 34.56 
" clip-path="url(#p766c035393)" style="fill: none; stroke: #ffffff; stroke-width: 1.4; stroke-linecap: square"/>
     </g>
     <g id="line2d_14">
      <g>
       <use xlink:href="#mb59ad6201a" x="582.12" y="256.32" style="fill: #7f7f7f; stroke: #7f7f7f; stroke-width: 1.4"/>
      </g>
     </g>
     <g id="text_7">
      <!-- 2000 -->
      <g style="fill: #7f7f7f" transform="translate(566.85 271.438125)scale(0.12 -0.12)">
       <use xlink:href="#DejaVuSans-32"/>
       <use xlink:href="#DejaVuSans-30" x="63.623047"/>
       <use xlink:href="#DejaVuSans-30" x="127.246094"/>
       <use xlink:href="#DejaVuSans-30" x="190.869141"/>
      </g>
     </g>
    </g>
    <g id="xtick_8">
     <g id="line2d_15">
      <path d="M 114.12 256.32 
L 114.12 34.56 
" clip-path="url(#p766c035393)" style="fill: none; stroke: #f2f2f2; stroke-width: 0.7; stroke-linecap: square"/>
     </g>
     <g id="line2d_16"/>
    </g>
    <g id="xtick_9">
     <g id="line2d_17">
      <path d="M 186.12 256.32 
L 186.12 34.56 
" clip-path="url(#p766c035393)" style="fill: none; stroke: #f2f2f2; stroke-width: 0.7; stroke-linecap: square"/>
     </g>
     <g id="line2d_18"/>
    </g>
    <g id="xtick_10">
     <g id="line2d_19">
      <path d="M 258.12 256.32 
L 258.12 34.56 
" clip-path="url(#p766c035393)" style="fill: none; stroke: #f2f2f2; stroke-width: 0.7; stroke-linecap: square"/>
     </g>
     <g id="line2d_20"/>
    </g>
    <g id="xtick_11">
     <g id="line2d_21">
      <path d="M 330.12 256.32 
L 330.12 34.56 
" clip-path="url(#p766c035393)" style="fill: none; stroke: #f2f2f2; stroke-width: 0.7; stroke-linecap: square"/>
     </g>
     <g id="line2d_22"/>
    </g>
    <g id="xtick_12">
     <g id="line2d_23">
      <path d="M 402.12 256.32 
L 402.12 34.56 
" clip-path="url(#p766c035393)" style="fill: none; stroke: #f2f2f2; stroke-width: 0.7; stroke-linecap: square"/>
     </g>
     <g id="line2d_24"/>
    </g>
    <g id="xtick_13">
     <g id="line2d_25">
      <path d="M 474.12 256.32 
L 474.12 34.56 
" clip-path="url(#p766c035393)" style="fill: none; stroke: #f2f2f2; stroke-width: 0.7; stroke-linecap: square"/>
     </g>
     <g id="line2d_26"/>
    </g>
    <g id="xtick_14">
     <g id="line2d_27">
      <path d="M 546.12 256.32 
L 546.12 34.56 
" clip-path="url(#p766c035393)" style="fill: none; stroke: #f2f2f2; stroke-width: 0.7; stroke-linecap: square"/>
     </g>
     <g id="line2d_28"/>
    </g>
    <g id="xtick_15">
     <g id="line2d_29">
      <path d="M 618.12 256.32 
L 618.12 34.56 
" clip-path="url(#p766c035393)" style="fill: none; stroke: #f2f2f2; stroke-width: 0.7; stroke-linecap: square"/>
     </g>
     <g id="line2d_30"/>
    </g>
   </g>
   <g id="matplotlib.axis_2">
    <g id="ytick_1">
     <g id="line2d_31">
      <path d="M 99 231.473443 
L 653.4 231.473443 
" clip-path="url(#p766c035393)" style="fill: none; stroke: #ffffff; stroke-width: 1.4; stroke-linecap: square"/>
     </g>
     <g id="line2d_32">
      <defs>
       <path id="m303cc9ede4" d="M 0 0 
L -5 0 
" style="stroke: #7f7f7f; stroke-width: 1.4"/>
      </defs>
      <g>
       <use xlink:href="#m303cc9ede4" x="99" y="231.473443" style="fill: #7f7f7f; stroke: #7f7f7f; stroke-width: 1.4"/>
      </g>
     </g>
     <g id="text_8">
      <!-- 15.0 -->
      <g style="fill: #7f7f7f" transform="translate(66.28125 236.032506)scale(0.12 -0.12)">
       <defs>
        <path id="DejaVuSans-2e" d="M 684 794 
L 1344 794 
L 1344 0 
L 684 0 
L 684 794 
z
" transform="scale(0.015625)"/>
       </defs>
       <use xlink:href="#DejaVuSans-31"/>
       <use xlink:href="#DejaVuSans-35" x="63.623047"/>
       <use xlink:href="#DejaVuSans-2e" x="127.246094"/>
       <use xlink:href="#DejaVuSans-30" x="159.033203"/>
      </g>
     </g>
    </g>
    <g id="ytick_2">
     <g id="line2d_33">
      <path d="M 99 203.81154 
L 653.4 203.81154 
" clip-path="url(#p766c035393)" style="fill: none; stroke: #ffffff; stroke-width: 1.4; stroke-linecap: square"/>
     </g>
     <g id="line2d_34">
      <g>
       <use xlink:href="#m303cc9ede4" x="99" y="203.81154" style="fill: #7f7f7f; stroke: #7f7f7f; stroke-width: 1.4"/>
      </g>
     </g>
     <g id="text_9">
      <!-- 17.5 -->
      <g style="fill: #7f7f7f" transform="translate(66.28125 208.370602)scale(0.12 -0.12)">
       <use xlink:href="#DejaVuSans-31"/>
       <use xlink:href="#DejaVuSans-37" x="63.623047"/>
       <use xlink:href="#DejaVuSans-2e" x="127.246094"/>
       <use xlink:href="#DejaVuSans-35" x="159.033203"/>
      </g>
     </g>
    </g>
    <g id="ytick_3">
     <g id="line2d_35">
      <path d="M 99 176.149636 
L 653.4 176.149636 
" clip-path="url(#p766c035393)" style="fill: none; stroke: #ffffff; stroke-width: 1.4; stroke-linecap: square"/>
     </g>
     <g id="line2d_36">
      <g>
       <use xlink:href="#m303cc9ede4" x="99" y="176.149636" style="fill: #7f7f7f; stroke: #7f7f7f; stroke-width: 1.4"/>
      </g>
     </g>
     <g id="text_10">
      <!-- 20.0 -->
      <g style="fill: #7f7f7f" transform="translate(66.28125 180.708698)scale(0.12 -0.12)">
       <use xlink:href="#DejaVuSans-32"/>
       <use xlink:href="#DejaVuSans-30" x="63.623047"/>
       <use xlink:href="#DejaVuSans-2e" x="127.246094"/>
       <use xlink:href="#DejaVuSans-30" x="159.033203"/>
      </g>
     </g>
    </g>
    <g id="ytick_4">
     <g id="line2d_37">
      <path d="M 99 148.487732 
L 653.4 148.487732 
" clip-path="url(#p766c035393)" style="fill: none; stroke: #ffffff; stroke-width: 1.4; stroke-linecap: square"/>
     </g>
     <g id="line2d_38">
      <g>
       <use xlink:href="#m303cc9ede4" x="99" y="148.487732" style="fill: #7f7f7f; stroke: #7f7f7f; stroke-width: 1.4"/>
      </g>
     </g>
     <g id="text_11">
      <!-- 22.5 -->
      <g style="fill: #7f7f7f" transform="translate(66.28125 153.046795)scale(0.12 -0.12)">
       <use xlink:href="#DejaVuSans-32"/>
       <use xlink:href="#DejaVuSans-32" x="63.623047"/>
       <use xlink:href="#DejaVuSans-2e" x="127.246094"/>
       <use xlink:href="#DejaVuSans-35" x="159.033203"/>
      </g>
     </g>
    </g>
    <g id="ytick_5">
     <g id="line2d_39">
      <path d="M 99 120.825829 
L 653.4 120.825829 
" clip-path="url(#p766c035393)" style="fill: none; stroke: #ffffff; stroke-width: 1.4; stroke-linecap: square"/>
     </g>
     <g id="line2d_40">
      <g>
       <use xlink:href="#m303cc9ede4" x="99" y="120.825829" style="fill: #7f7f7f; stroke: #7f7f7f; stroke-width: 1.4"/>
      </g>
     </g>
     <g id="text_12">
      <!-- 25.0 -->
      <g style="fill: #7f7f7f" transform="translate(66.28125 125.384891)scale(0.12 -0.12)">
       <use xlink:href="#DejaVuSans-32"/>
       <use xlink:href="#DejaVuSans-35" x="63.623047"/>
       <use xlink:href="#DejaVuSans-2e" x="127.246094"/>
       <use xlink:href="#DejaVuSans-30" x="159.033203"/>
      </g>
     </g>
    </g>
    <g id="ytick_6">
     <g id="line2d_41">
      <path d="M 99 93.163925 
L 653.4 93.163925 
" clip-path="url(#p766c035393)" style="fill: none; stroke: #ffffff; stroke-width: 1.4; stroke-linecap: square"/>
     </g>
     <g id="line2d_42">
      <g>
       <use xlink:href="#m303cc9ede4" x="99" y="93.163925" style="fill: #7f7f7f; stroke: #7f7f7f; stroke-width: 1.4"/>
      </g>
     </g>
     <g id="text_13">
      <!-- 27.5 -->
      <g style="fill: #7f7f7f" transform="translate(66.28125 97.722988)scale(0.12 -0.12)">
       <use xlink:href="#DejaVuSans-32"/>
       <use xlink:href="#DejaVuSans-37" x="63.623047"/>
       <use xlink:href="#DejaVuSans-2e" x="127.246094"/>
       <use xlink:href="#DejaVuSans-35" x="159.033203"/>
      </g>
     </g>
    </g>
    <g id="ytick_7">
     <g id="line2d_43">
      <path d="M 99 65.502022 
L 653.4 65.502022 
" clip-path="url(#p766c035393)" style="fill: none; stroke: #ffffff; stroke-width: 1.4; stroke-linecap: square"/>
     </g>
     <g id="line2d_44">
      <g>
       <use xlink:href="#m303cc9ede4" x="99" y="65.502022" style="fill: #7f7f7f; stroke: #7f7f7f; stroke-width: 1.4"/>
      </g>
     </g>
     <g id="text_14">
      <!-- 30.0 -->
      <g style="fill: #7f7f7f" transform="translate(66.28125 70.061084)scale(0.12 -0.12)">
       <defs>
        <path id="DejaVuSans-33" d="M 2597 2516 
Q 3050 2419 3304 2112 
Q 3559 1806 3559 1356 
Q 3559 666 3084 287 
Q 2609 -91 1734 -91 
Q 1441 -91 1130 -33 
Q 819 25 488 141 
L 488 750 
Q 750 597 1062 519 
Q 1375 441 1716 441 
Q 2309 441 2620 675 
Q 2931 909 2931 1356 
Q 2931 1769 2642 2001 
Q 2353 2234 1838 2234 
L 1294 2234 
L 1294 2753 
L 1863 2753 
Q 2328 2753 2575 2939 
Q 2822 3125 2822 3475 
Q 2822 3834 2567 4026 
Q 2313 4219 1838 4219 
Q 1578 4219 1281 4162 
Q 984 4106 628 3988 
L 628 4550 
Q 988 4650 1302 4700 
Q 1616 4750 1894 4750 
Q 2613 4750 3031 4423 
Q 3450 4097 3450 3541 
Q 3450 3153 3228 2886 
Q 3006 2619 2597 2516 
z
" transform="scale(0.015625)"/>
       </defs>
       <use xlink:href="#DejaVuSans-33"/>
       <use xlink:href="#DejaVuSans-30" x="63.623047"/>
       <use xlink:href="#DejaVuSans-2e" x="127.246094"/>
       <use xlink:href="#DejaVuSans-30" x="159.033203"/>
      </g>
     </g>
    </g>
    <g id="ytick_8">
     <g id="line2d_45">
      <path d="M 99 37.840118 
L 653.4 37.840118 
" clip-path="url(#p766c035393)" style="fill: none; stroke: #ffffff; stroke-width: 1.4; stroke-linecap: square"/>
     </g>
     <g id="line2d_46">
      <g>
       <use xlink:href="#m303cc9ede4" x="99" y="37.840118" style="fill: #7f7f7f; stroke: #7f7f7f; stroke-width: 1.4"/>
      </g>
     </g>
     <g id="text_15">
      <!-- 32.5 -->
      <g style="fill: #7f7f7f" transform="translate(66.28125 42.399181)scale(0.12 -0.12)">
       <use xlink:href="#DejaVuSans-33"/>
       <use xlink:href="#DejaVuSans-32" x="63.623047"/>
       <use xlink:href="#DejaVuSans-2e" x="127.246094"/>
       <use xlink:href="#DejaVuSans-35" x="159.033203"/>
      </g>
     </g>
    </g>
    <g id="ytick_9">
     <g id="line2d_47">
      <path d="M 99 245.304395 
L 653.4 245.304395 
" clip-path="url(#p766c035393)" style="fill: none; stroke: #f2f2f2; stroke-width: 0.7; stroke-linecap: square"/>
     </g>
     <g id="line2d_48"/>
    </g>
    <g id="ytick_10">
     <g id="line2d_49">
      <path d="M 99 217.642491 
L 653.4 217.642491 
" clip-path="url(#p766c035393)" style="fill: none; stroke: #f2f2f2; stroke-width: 0.7; stroke-linecap: square"/>
     </g>
     <g id="line2d_50"/>
    </g>
    <g id="ytick_11">
     <g id="line2d_51">
      <path d="M 99 189.980588 
L 653.4 189.980588 
" clip-path="url(#p766c035393)" style="fill: none; stroke: #f2f2f2; stroke-width: 0.7; stroke-linecap: square"/>
     </g>
     <g id="line2d_52"/>
    </g>
    <g id="ytick_12">
     <g id="line2d_53">
      <path d="M 99 162.318684 
L 653.4 162.318684 
" clip-path="url(#p766c035393)" style="fill: none; stroke: #f2f2f2; stroke-width: 0.7; stroke-linecap: square"/>
     </g>
     <g id="line2d_54"/>
    </g>
    <g id="ytick_13">
     <g id="line2d_55">
      <path d="M 99 134.656781 
L 653.4 134.656781 
" clip-path="url(#p766c035393)" style="fill: none; stroke: #f2f2f2; stroke-width: 0.7; stroke-linecap: square"/>
     </g>
     <g id="line2d_56"/>
    </g>
    <g id="ytick_14">
     <g id="line2d_57">
      <path d="M 99 106.994877 
L 653.4 106.994877 
" clip-path="url(#p766c035393)" style="fill: none; stroke: #f2f2f2; stroke-width: 0.7; stroke-linecap: square"/>
     </g>
     <g id="line2d_58"/>
    </g>
    <g id="ytick_15">
     <g id="line2d_59">
      <path d="M 99 79.332973 
L 653.4 79.332973 
" clip-path="url(#p766c035393)" style="fill: none; stroke: #f2f2f2; stroke-width: 0.7; stroke-linecap: square"/>
     </g>
     <g id="line2d_60"/>
    </g>
    <g id="ytick_16">
     <g id="line2d_61">
      <path d="M 99 51.67107 
L 653.4 51.67107 
" clip-path="url(#p766c035393)" style="fill: none; stroke: #f2f2f2; stroke-width: 0.7; stroke-linecap: square"/>
     </g>
     <g id="line2d_62"/>
    </g>
   </g>
   <g id="line2d_63">
    <path d="M 124.2 91.981104 
L 129.96 93.499106 
L 135.72 95.189325 
L 141.48 97.082832 
L 147.24 99.218647 
L 153 101.504669 
L 176.04 102.00957 
L 178.92 102.085708 
L 181.8 105.24563 
L 201.96 103.935837 
L 207.72 103.513307 
L 210.6 101.853686 
L 225 105.085156 
L 236.52 107.84648 
L 239.4 107.219272 
L 268.2 108.198639 
L 279.72 112.128659 
L 291.24 116.369385 
L 294.12 117.482839 
L 297 116.218063 
L 322.92 115.828248 
L 325.8 116.65085 
L 354.6 115.014793 
L 366.12 114.314101 
L 369 113.437731 
L 394.92 114.455216 
L 397.8 111.604719 
L 423.72 111.832545 
L 426.6 114.800069 
L 438.12 116.966914 
L 441 115.395075 
L 452.52 117.771643 
L 455.4 117.556592 
L 466.92 119.832778 
L 469.8 120.564731 
L 481.32 120.665545 
L 484.2 120.547969 
L 495.72 116.815557 
L 498.6 117.535616 
L 518.76 119.182178 
L 521.64 118.316039 
L 524.52 117.653928 
L 527.4 117.352799 
L 538.92 114.40233 
L 541.8 113.98729 
L 553.32 112.960345 
L 556.2 112.278581 
L 567.72 112.755487 
L 570.6 112.43071 
L 582.12 110.496601 
L 585 110.051116 
L 587.88 108.879178 
L 590.76 105.379615 
L 593.64 102.116107 
L 596.52 99.073751 
L 599.4 102.610547 
L 605.16 94.100278 
L 610.92 86.274484 
L 613.8 81.816482 
L 625.32 76.720898 
L 628.2 76.832859 
L 628.2 76.832859 
" clip-path="url(#p766c035393)" style="fill: none; stroke: #f7746a; stroke-linecap: square"/>
   </g>
   <g id="line2d_64">
    <path d="M 124.2 168.260721 
L 129.96 169.821144 
L 135.72 171.558597 
L 141.48 173.505018 
L 147.24 175.70052 
L 150.12 176.905049 
L 153 179.200101 
L 158.76 176.928893 
L 164.52 174.471216 
L 170.28 171.809413 
L 176.04 168.909052 
L 178.92 167.363277 
L 181.8 166.347987 
L 190.44 164.369779 
L 199.08 162.220732 
L 207.72 159.882543 
L 210.6 158.436621 
L 227.88 155.958782 
L 236.52 154.634668 
L 239.4 155.303116 
L 253.8 157.711254 
L 265.32 159.87338 
L 268.2 162.746315 
L 279.72 165.463286 
L 291.24 168.386054 
L 294.12 169.156044 
L 297 168.846761 
L 322.92 170.652167 
L 325.8 172.209299 
L 348.84 176.044146 
L 366.12 179.110932 
L 369 177.871092 
L 389.16 180.701358 
L 394.92 181.556508 
L 397.8 181.551672 
L 423.72 189.823761 
L 426.6 191.460013 
L 441 196.212851 
L 452.52 201.397181 
L 455.4 201.474927 
L 466.92 207.330208 
L 472.68 210.919014 
L 481.32 216.096061 
L 484.2 217.447912 
L 495.72 221.920862 
L 498.6 222.729642 
L 513 223.932447 
L 518.76 224.370162 
L 521.64 225.364985 
L 527.4 226.995451 
L 538.92 228.497036 
L 541.8 229.894009 
L 553.32 232.625753 
L 556.2 232.299822 
L 567.72 234.929701 
L 570.6 235.054894 
L 576.36 238.143253 
L 582.12 241.045295 
L 585 242.430433 
L 587.88 244.90873 
L 596.52 244.696839 
L 599.4 246.24 
L 610.92 244.935264 
L 613.8 244.643726 
L 625.32 243.025179 
L 628.2 242.724219 
L 628.2 242.724219 
" clip-path="url(#p766c035393)" style="fill: none; stroke: #85a831; stroke-linecap: square"/>
   </g>
   <g id="line2d_65">
    <path d="M 124.2 106.016998 
L 132.84 104.355435 
L 141.48 102.393149 
L 147.24 100.876041 
L 150.12 100.040395 
L 153 100.412756 
L 161.64 103.36895 
L 167.4 105.543361 
L 173.16 107.90997 
L 178.92 110.483731 
L 181.8 107.202221 
L 190.44 109.424615 
L 199.08 111.83104 
L 207.72 114.44926 
L 210.6 116.197663 
L 225 112.971819 
L 236.52 110.217155 
L 239.4 108.298826 
L 253.8 106.341879 
L 265.32 104.589898 
L 268.2 105.167222 
L 285.48 103.512248 
L 294.12 102.606779 
L 297 102.650683 
L 322.92 104.130399 
L 325.8 105.327391 
L 366.12 106.606844 
L 369 107.640767 
L 394.92 107.255283 
L 397.8 104.765182 
L 423.72 98.470932 
L 426.6 92.113185 
L 438.12 89.043134 
L 441 91.435693 
L 452.52 88.40695 
L 455.4 88.531714 
L 466.92 83.095968 
L 469.8 80.853329 
L 481.32 76.155963 
L 487.08 76.39836 
L 495.72 76.616954 
L 498.6 76.902731 
L 518.76 77.520439 
L 521.64 76.918489 
L 524.52 77.688535 
L 527.4 78.265475 
L 538.92 79.575878 
L 541.8 79.137606 
L 553.32 78.234611 
L 556.2 78.591085 
L 567.72 78.332789 
L 582.12 82.618305 
L 585 83.406921 
L 587.88 84.875407 
L 596.52 86.111676 
L 599.4 85.863743 
L 605.16 90.472833 
L 613.8 96.986892 
L 625.32 102.564271 
L 628.2 102.331312 
L 628.2 102.331312 
" clip-path="url(#p766c035393)" style="fill: none; stroke: #36acae; stroke-linecap: square"/>
   </g>
   <g id="line2d_66">
    <path d="M 124.2 117.044492 
L 129.96 115.044331 
L 135.72 112.817252 
L 141.48 110.322317 
L 147.24 107.508108 
L 150.12 105.964745 
L 153 102.185789 
L 173.16 103.068524 
L 178.92 103.370599 
L 181.8 104.507477 
L 207.72 105.458206 
L 210.6 106.815346 
L 227.88 109.28383 
L 236.52 110.605012 
L 239.4 112.482101 
L 259.56 111.145372 
L 265.32 110.72112 
L 268.2 107.191139 
L 276.84 103.054452 
L 285.48 98.686031 
L 294.12 94.057653 
L 297 95.587809 
L 317.16 93.371522 
L 322.92 92.692502 
L 325.8 89.115776 
L 354.6 85.017318 
L 366.12 83.271439 
L 369 84.353725 
L 392.04 80.534845 
L 394.92 80.036308 
L 397.8 85.381742 
L 423.72 83.176077 
L 426.6 84.930048 
L 438.12 82.011718 
L 441 80.259696 
L 452.52 75.727541 
L 455.4 75.740082 
L 466.92 73.044361 
L 469.8 72.694798 
L 481.32 70.385746 
L 484.2 68.981006 
L 495.72 67.949942 
L 498.6 66.135326 
L 510.12 63.817223 
L 518.76 62.230536 
L 521.64 62.703802 
L 524.52 61.77649 
L 527.4 60.68959 
L 538.92 60.828071 
L 541.8 60.284411 
L 553.32 59.482607 
L 556.2 60.133827 
L 570.6 56.612185 
L 576.36 52.758936 
L 582.12 49.143114 
L 585 47.414846 
L 587.88 44.64 
L 590.76 47.768068 
L 593.64 50.692113 
L 596.52 53.421049 
L 599.4 48.589025 
L 605.16 53.170393 
L 610.92 57.378907 
L 613.8 59.856215 
L 628.2 61.414925 
L 628.2 61.414925 
" clip-path="url(#p766c035393)" style="fill: none; stroke: #be81f4; stroke-linecap: square"/>
   </g>
   <g id="patch_3">
    <path d="M 99 256.32 
L 99 34.56 
" style="fill: none; opacity: 0"/>
   </g>
   <g id="patch_4">
    <path d="M 653.4 256.32 
L 653.4 34.56 
" style="fill: none; opacity: 0"/>
   </g>
   <g id="patch_5">
    <path d="M 99 256.32 
L 653.4 256.32 
" style="fill: none; opacity: 0"/>
   </g>
   <g id="patch_6">
    <path d="M 99 34.56 
L 653.4 34.56 
" style="fill: none; opacity: 0"/>
   </g>
   <g id="legend_1">
    <g id="patch_7">
     <path d="M 690.1164 118.853764 
L 710.1084 118.853764 
L 710.1084 111.856564 
L 690.1164 111.856564 
L 690.1164 118.853764 
z
" style="fill: none"/>
    </g>
    <g id="text_16">
     <!-- County -->
     <g transform="translate(718.1052 118.853764)scale(0.09996 -0.09996)">
      <defs>
       <path id="DejaVuSans-43" d="M 4122 4306 
L 4122 3641 
Q 3803 3938 3442 4084 
Q 3081 4231 2675 4231 
Q 1875 4231 1450 3742 
Q 1025 3253 1025 2328 
Q 1025 1406 1450 917 
Q 1875 428 2675 428 
Q 3081 428 3442 575 
Q 3803 722 4122 1019 
L 4122 359 
Q 3791 134 3420 21 
Q 3050 -91 2638 -91 
Q 1578 -91 968 557 
Q 359 1206 359 2328 
Q 359 3453 968 4101 
Q 1578 4750 2638 4750 
Q 3056 4750 3426 4639 
Q 3797 4528 4122 4306 
z
" transform="scale(0.015625)"/>
       <path id="DejaVuSans-6f" d="M 1959 3097 
Q 1497 3097 1228 2736 
Q 959 2375 959 1747 
Q 959 1119 1226 758 
Q 1494 397 1959 397 
Q 2419 397 2687 759 
Q 2956 1122 2956 1747 
Q 2956 2369 2687 2733 
Q 2419 3097 1959 3097 
z
M 1959 3584 
Q 2709 3584 3137 3096 
Q 3566 2609 3566 1747 
Q 3566 888 3137 398 
Q 2709 -91 1959 -91 
Q 1206 -91 779 398 
Q 353 888 353 1747 
Q 353 2609 779 3096 
Q 1206 3584 1959 3584 
z
" transform="scale(0.015625)"/>
       <path id="DejaVuSans-75" d="M 544 1381 
L 544 3500 
L 1119 3500 
L 1119 1403 
Q 1119 906 1312 657 
Q 1506 409 1894 409 
Q 2359 409 2629 706 
Q 2900 1003 2900 1516 
L 2900 3500 
L 3475 3500 
L 3475 0 
L 2900 0 
L 2900 538 
Q 2691 219 2414 64 
Q 2138 -91 1772 -91 
Q 1169 -91 856 284 
Q 544 659 544 1381 
z
M 1991 3584 
L 1991 3584 
z
" transform="scale(0.015625)"/>
       <path id="DejaVuSans-6e" d="M 3513 2113 
L 3513 0 
L 2938 0 
L 2938 2094 
Q 2938 2591 2744 2837 
Q 2550 3084 2163 3084 
Q 1697 3084 1428 2787 
Q 1159 2491 1159 1978 
L 1159 0 
L 581 0 
L 581 3500 
L 1159 3500 
L 1159 2956 
Q 1366 3272 1645 3428 
Q 1925 3584 2291 3584 
Q 2894 3584 3203 3211 
Q 3513 2838 3513 2113 
z
" transform="scale(0.015625)"/>
       <path id="DejaVuSans-74" d="M 1172 4494 
L 1172 3500 
L 2356 3500 
L 2356 3053 
L 1172 3053 
L 1172 1153 
Q 1172 725 1289 603 
Q 1406 481 1766 481 
L 2356 481 
L 2356 0 
L 1766 0 
Q 1100 0 847 248 
Q 594 497 594 1153 
L 594 3053 
L 172 3053 
L 172 3500 
L 594 3500 
L 594 4494 
L 1172 4494 
z
" transform="scale(0.015625)"/>
       <path id="DejaVuSans-79" d="M 2059 -325 
Q 1816 -950 1584 -1140 
Q 1353 -1331 966 -1331 
L 506 -1331 
L 506 -850 
L 844 -850 
Q 1081 -850 1212 -737 
Q 1344 -625 1503 -206 
L 1606 56 
L 191 3500 
L 800 3500 
L 1894 763 
L 2988 3500 
L 3597 3500 
L 2059 -325 
z
" transform="scale(0.015625)"/>
      </defs>
      <use xlink:href="#DejaVuSans-43"/>
      <use xlink:href="#DejaVuSans-6f" x="69.824219"/>
      <use xlink:href="#DejaVuSans-75" x="131.005859"/>
      <use xlink:href="#DejaVuSans-6e" x="194.384766"/>
      <use xlink:href="#DejaVuSans-74" x="257.763672"/>
      <use xlink:href="#DejaVuSans-79" x="296.972656"/>
     </g>
    </g>
    <g id="line2d_67">
     <path d="M 690.1164 130.027417 
L 700.1124 130.027417 
L 710.1084 130.027417 
" style="fill: none; stroke: #f7746a; stroke-width: 5; stroke-linecap: square"/>
    </g>
    <g id="text_17">
     <!-- Laois -->
     <g transform="translate(718.1052 133.526017)scale(0.09996 -0.09996)">
      <defs>
       <path id="DejaVuSans-4c" d="M 628 4666 
L 1259 4666 
L 1259 531 
L 3531 531 
L 3531 0 
L 628 0 
L 628 4666 
z
" transform="scale(0.015625)"/>
       <path id="DejaVuSans-61" d="M 2194 1759 
Q 1497 1759 1228 1600 
Q 959 1441 959 1056 
Q 959 750 1161 570 
Q 1363 391 1709 391 
Q 2188 391 2477 730 
Q 2766 1069 2766 1631 
L 2766 1759 
L 2194 1759 
z
M 3341 1997 
L 3341 0 
L 2766 0 
L 2766 531 
Q 2569 213 2275 61 
Q 1981 -91 1556 -91 
Q 1019 -91 701 211 
Q 384 513 384 1019 
Q 384 1609 779 1909 
Q 1175 2209 1959 2209 
L 2766 2209 
L 2766 2266 
Q 2766 2663 2505 2880 
Q 2244 3097 1772 3097 
Q 1472 3097 1187 3025 
Q 903 2953 641 2809 
L 641 3341 
Q 956 3463 1253 3523 
Q 1550 3584 1831 3584 
Q 2591 3584 2966 3190 
Q 3341 2797 3341 1997 
z
" transform="scale(0.015625)"/>
       <path id="DejaVuSans-69" d="M 603 3500 
L 1178 3500 
L 1178 0 
L 603 0 
L 603 3500 
z
M 603 4863 
L 1178 4863 
L 1178 4134 
L 603 4134 
L 603 4863 
z
" transform="scale(0.015625)"/>
       <path id="DejaVuSans-73" d="M 2834 3397 
L 2834 2853 
Q 2591 2978 2328 3040 
Q 2066 3103 1784 3103 
Q 1356 3103 1142 2972 
Q 928 2841 928 2578 
Q 928 2378 1081 2264 
Q 1234 2150 1697 2047 
L 1894 2003 
Q 2506 1872 2764 1633 
Q 3022 1394 3022 966 
Q 3022 478 2636 193 
Q 2250 -91 1575 -91 
Q 1294 -91 989 -36 
Q 684 19 347 128 
L 347 722 
Q 666 556 975 473 
Q 1284 391 1588 391 
Q 1994 391 2212 530 
Q 2431 669 2431 922 
Q 2431 1156 2273 1281 
Q 2116 1406 1581 1522 
L 1381 1569 
Q 847 1681 609 1914 
Q 372 2147 372 2553 
Q 372 3047 722 3315 
Q 1072 3584 1716 3584 
Q 2034 3584 2315 3537 
Q 2597 3491 2834 3397 
z
" transform="scale(0.015625)"/>
      </defs>
      <use xlink:href="#DejaVuSans-4c"/>
      <use xlink:href="#DejaVuSans-61" x="55.712891"/>
      <use xlink:href="#DejaVuSans-6f" x="116.992188"/>
      <use xlink:href="#DejaVuSans-69" x="178.173828"/>
      <use xlink:href="#DejaVuSans-73" x="205.957031"/>
     </g>
    </g>
    <g id="line2d_68">
     <path d="M 690.1164 144.699671 
L 700.1124 144.699671 
L 710.1084 144.699671 
" style="fill: none; stroke: #85a831; stroke-width: 5; stroke-linecap: square"/>
    </g>
    <g id="text_18">
     <!-- Longford -->
     <g transform="translate(718.1052 148.198271)scale(0.09996 -0.09996)">
      <defs>
       <path id="DejaVuSans-67" d="M 2906 1791 
Q 2906 2416 2648 2759 
Q 2391 3103 1925 3103 
Q 1463 3103 1205 2759 
Q 947 2416 947 1791 
Q 947 1169 1205 825 
Q 1463 481 1925 481 
Q 2391 481 2648 825 
Q 2906 1169 2906 1791 
z
M 3481 434 
Q 3481 -459 3084 -895 
Q 2688 -1331 1869 -1331 
Q 1566 -1331 1297 -1286 
Q 1028 -1241 775 -1147 
L 775 -588 
Q 1028 -725 1275 -790 
Q 1522 -856 1778 -856 
Q 2344 -856 2625 -561 
Q 2906 -266 2906 331 
L 2906 616 
Q 2728 306 2450 153 
Q 2172 0 1784 0 
Q 1141 0 747 490 
Q 353 981 353 1791 
Q 353 2603 747 3093 
Q 1141 3584 1784 3584 
Q 2172 3584 2450 3431 
Q 2728 3278 2906 2969 
L 2906 3500 
L 3481 3500 
L 3481 434 
z
" transform="scale(0.015625)"/>
       <path id="DejaVuSans-66" d="M 2375 4863 
L 2375 4384 
L 1825 4384 
Q 1516 4384 1395 4259 
Q 1275 4134 1275 3809 
L 1275 3500 
L 2222 3500 
L 2222 3053 
L 1275 3053 
L 1275 0 
L 697 0 
L 697 3053 
L 147 3053 
L 147 3500 
L 697 3500 
L 697 3744 
Q 697 4328 969 4595 
Q 1241 4863 1831 4863 
L 2375 4863 
z
" transform="scale(0.015625)"/>
       <path id="DejaVuSans-72" d="M 2631 2963 
Q 2534 3019 2420 3045 
Q 2306 3072 2169 3072 
Q 1681 3072 1420 2755 
Q 1159 2438 1159 1844 
L 1159 0 
L 581 0 
L 581 3500 
L 1159 3500 
L 1159 2956 
Q 1341 3275 1631 3429 
Q 1922 3584 2338 3584 
Q 2397 3584 2469 3576 
Q 2541 3569 2628 3553 
L 2631 2963 
z
" transform="scale(0.015625)"/>
       <path id="DejaVuSans-64" d="M 2906 2969 
L 2906 4863 
L 3481 4863 
L 3481 0 
L 2906 0 
L 2906 525 
Q 2725 213 2448 61 
Q 2172 -91 1784 -91 
Q 1150 -91 751 415 
Q 353 922 353 1747 
Q 353 2572 751 3078 
Q 1150 3584 1784 3584 
Q 2172 3584 2448 3432 
Q 2725 3281 2906 2969 
z
M 947 1747 
Q 947 1113 1208 752 
Q 1469 391 1925 391 
Q 2381 391 2643 752 
Q 2906 1113 2906 1747 
Q 2906 2381 2643 2742 
Q 2381 3103 1925 3103 
Q 1469 3103 1208 2742 
Q 947 2381 947 1747 
z
" transform="scale(0.015625)"/>
      </defs>
      <use xlink:href="#DejaVuSans-4c"/>
      <use xlink:href="#DejaVuSans-6f" x="53.962891"/>
      <use xlink:href="#DejaVuSans-6e" x="115.144531"/>
      <use xlink:href="#DejaVuSans-67" x="178.523438"/>
      <use xlink:href="#DejaVuSans-66" x="242"/>
      <use xlink:href="#DejaVuSans-6f" x="277.205078"/>
      <use xlink:href="#DejaVuSans-72" x="338.386719"/>
      <use xlink:href="#DejaVuSans-64" x="377.75"/>
     </g>
    </g>
    <g id="line2d_69">
     <path d="M 690.1164 159.371925 
L 700.1124 159.371925 
L 710.1084 159.371925 
" style="fill: none; stroke: #36acae; stroke-width: 5; stroke-linecap: square"/>
    </g>
    <g id="text_19">
     <!-- Offaly -->
     <g transform="translate(718.1052 162.870525)scale(0.09996 -0.09996)">
      <defs>
       <path id="DejaVuSans-4f" d="M 2522 4238 
Q 1834 4238 1429 3725 
Q 1025 3213 1025 2328 
Q 1025 1447 1429 934 
Q 1834 422 2522 422 
Q 3209 422 3611 934 
Q 4013 1447 4013 2328 
Q 4013 3213 3611 3725 
Q 3209 4238 2522 4238 
z
M 2522 4750 
Q 3503 4750 4090 4092 
Q 4678 3434 4678 2328 
Q 4678 1225 4090 567 
Q 3503 -91 2522 -91 
Q 1538 -91 948 565 
Q 359 1222 359 2328 
Q 359 3434 948 4092 
Q 1538 4750 2522 4750 
z
" transform="scale(0.015625)"/>
       <path id="DejaVuSans-6c" d="M 603 4863 
L 1178 4863 
L 1178 0 
L 603 0 
L 603 4863 
z
" transform="scale(0.015625)"/>
      </defs>
      <use xlink:href="#DejaVuSans-4f"/>
      <use xlink:href="#DejaVuSans-66" x="78.710938"/>
      <use xlink:href="#DejaVuSans-66" x="113.916016"/>
      <use xlink:href="#DejaVuSans-61" x="149.121094"/>
      <use xlink:href="#DejaVuSans-6c" x="210.400391"/>
      <use xlink:href="#DejaVuSans-79" x="238.183594"/>
     </g>
    </g>
    <g id="line2d_70">
     <path d="M 690.1164 174.044179 
L 700.1124 174.044179 
L 710.1084 174.044179 
" style="fill: none; stroke: #be81f4; stroke-width: 5; stroke-linecap: square"/>
    </g>
    <g id="text_20">
     <!-- Westmeath -->
     <g transform="translate(718.1052 177.542779)scale(0.09996 -0.09996)">
      <defs>
       <path id="DejaVuSans-57" d="M 213 4666 
L 850 4666 
L 1831 722 
L 2809 4666 
L 3519 4666 
L 4500 722 
L 5478 4666 
L 6119 4666 
L 4947 0 
L 4153 0 
L 3169 4050 
L 2175 0 
L 1381 0 
L 213 4666 
z
" transform="scale(0.015625)"/>
       <path id="DejaVuSans-65" d="M 3597 1894 
L 3597 1613 
L 953 1613 
Q 991 1019 1311 708 
Q 1631 397 2203 397 
Q 2534 397 2845 478 
Q 3156 559 3463 722 
L 3463 178 
Q 3153 47 2828 -22 
Q 2503 -91 2169 -91 
Q 1331 -91 842 396 
Q 353 884 353 1716 
Q 353 2575 817 3079 
Q 1281 3584 2069 3584 
Q 2775 3584 3186 3129 
Q 3597 2675 3597 1894 
z
M 3022 2063 
Q 3016 2534 2758 2815 
Q 2500 3097 2075 3097 
Q 1594 3097 1305 2825 
Q 1016 2553 972 2059 
L 3022 2063 
z
" transform="scale(0.015625)"/>
       <path id="DejaVuSans-6d" d="M 3328 2828 
Q 3544 3216 3844 3400 
Q 4144 3584 4550 3584 
Q 5097 3584 5394 3201 
Q 5691 2819 5691 2113 
L 5691 0 
L 5113 0 
L 5113 2094 
Q 5113 2597 4934 2840 
Q 4756 3084 4391 3084 
Q 3944 3084 3684 2787 
Q 3425 2491 3425 1978 
L 3425 0 
L 2847 0 
L 2847 2094 
Q 2847 2600 2669 2842 
Q 2491 3084 2119 3084 
Q 1678 3084 1418 2786 
Q 1159 2488 1159 1978 
L 1159 0 
L 581 0 
L 581 3500 
L 1159 3500 
L 1159 2956 
Q 1356 3278 1631 3431 
Q 1906 3584 2284 3584 
Q 2666 3584 2933 3390 
Q 3200 3197 3328 2828 
z
" transform="scale(0.015625)"/>
       <path id="DejaVuSans-68" d="M 3513 2113 
L 3513 0 
L 2938 0 
L 2938 2094 
Q 2938 2591 2744 2837 
Q 2550 3084 2163 3084 
Q 1697 3084 1428 2787 
Q 1159 2491 1159 1978 
L 1159 0 
L 581 0 
L 581 4863 
L 1159 4863 
L 1159 2956 
Q 1366 3272 1645 3428 
Q 1925 3584 2291 3584 
Q 2894 3584 3203 3211 
Q 3513 2838 3513 2113 
z
" transform="scale(0.015625)"/>
      </defs>
      <use xlink:href="#DejaVuSans-57"/>
      <use xlink:href="#DejaVuSans-65" x="93.001953"/>
      <use xlink:href="#DejaVuSans-73" x="154.525391"/>
      <use xlink:href="#DejaVuSans-74" x="206.625"/>
      <use xlink:href="#DejaVuSans-6d" x="245.833984"/>
      <use xlink:href="#DejaVuSans-65" x="343.246094"/>
      <use xlink:href="#DejaVuSans-61" x="404.769531"/>
      <use xlink:href="#DejaVuSans-74" x="466.048828"/>
      <use xlink:href="#DejaVuSans-68" x="505.257812"/>
     </g>
    </g>
   </g>
  </g>
  <g id="text_21">
   <!--   -->
   <g transform="translate(394.093125 273.6)scale(0.12 -0.12)">
    <defs>
     <path id="DejaVuSans-20" transform="scale(0.015625)"/>
    </defs>
    <use xlink:href="#DejaVuSans-20"/>
   </g>
  </g>
  <g id="text_22">
   <!-- % Region -->
   <g transform="translate(42.91125 146.495625)rotate(-90)scale(0.12 -0.12)">
    <defs>
     <path id="DejaVuSans-25" d="M 4653 2053 
Q 4381 2053 4226 1822 
Q 4072 1591 4072 1178 
Q 4072 772 4226 539 
Q 4381 306 4653 306 
Q 4919 306 5073 539 
Q 5228 772 5228 1178 
Q 5228 1588 5073 1820 
Q 4919 2053 4653 2053 
z
M 4653 2450 
Q 5147 2450 5437 2106 
Q 5728 1763 5728 1178 
Q 5728 594 5436 251 
Q 5144 -91 4653 -91 
Q 4153 -91 3862 251 
Q 3572 594 3572 1178 
Q 3572 1766 3864 2108 
Q 4156 2450 4653 2450 
z
M 1428 4353 
Q 1159 4353 1004 4120 
Q 850 3888 850 3481 
Q 850 3069 1003 2837 
Q 1156 2606 1428 2606 
Q 1700 2606 1854 2837 
Q 2009 3069 2009 3481 
Q 2009 3884 1853 4118 
Q 1697 4353 1428 4353 
z
M 4250 4750 
L 4750 4750 
L 1831 -91 
L 1331 -91 
L 4250 4750 
z
M 1428 4750 
Q 1922 4750 2215 4408 
Q 2509 4066 2509 3481 
Q 2509 2891 2217 2550 
Q 1925 2209 1428 2209 
Q 931 2209 642 2551 
Q 353 2894 353 3481 
Q 353 4063 643 4406 
Q 934 4750 1428 4750 
z
" transform="scale(0.015625)"/>
     <path id="DejaVuSans-52" d="M 2841 2188 
Q 3044 2119 3236 1894 
Q 3428 1669 3622 1275 
L 4263 0 
L 3584 0 
L 2988 1197 
Q 2756 1666 2539 1819 
Q 2322 1972 1947 1972 
L 1259 1972 
L 1259 0 
L 628 0 
L 628 4666 
L 2053 4666 
Q 2853 4666 3247 4331 
Q 3641 3997 3641 3322 
Q 3641 2881 3436 2590 
Q 3231 2300 2841 2188 
z
M 1259 4147 
L 1259 2491 
L 2053 2491 
Q 2509 2491 2742 2702 
Q 2975 2913 2975 3322 
Q 2975 3731 2742 3939 
Q 2509 4147 2053 4147 
L 1259 4147 
z
" transform="scale(0.015625)"/>
    </defs>
    <use xlink:href="#DejaVuSans-25"/>
    <use xlink:href="#DejaVuSans-20" x="95.019531"/>
    <use xlink:href="#DejaVuSans-52" x="126.806641"/>
    <use xlink:href="#DejaVuSans-65" x="191.789062"/>
    <use xlink:href="#DejaVuSans-67" x="253.3125"/>
    <use xlink:href="#DejaVuSans-69" x="316.789062"/>
    <use xlink:href="#DejaVuSans-6f" x="344.572266"/>
    <use xlink:href="#DejaVuSans-6e" x="405.753906"/>
   </g>
  </g>
 </g>
 <defs>
  <clipPath id="p766c035393">
   <rect x="99" y="34.56" width="554.4" height="221.76"/>
  </clipPath>
 </defs>
</svg>
