<?xml version="1.0" encoding="utf-8" standalone="no"?>
<!DOCTYPE svg PUBLIC "-//W3C//DTD SVG 1.1//EN"
  "http://www.w3.org/Graphics/SVG/1.1/DTD/svg11.dtd">
<svg xmlns:xlink="http://www.w3.org/1999/xlink" width="792pt" height="432pt" viewBox="0 0 792 432" xmlns="http://www.w3.org/2000/svg" version="1.1">
 <metadata>
  <rdf:RDF xmlns:dc="http://purl.org/dc/elements/1.1/" xmlns:cc="http://creativecommons.org/ns#" xmlns:rdf="http://www.w3.org/1999/02/22-rdf-syntax-ns#">
   <cc:Work>
    <dc:type rdf:resource="http://purl.org/dc/dcmitype/StillImage"/>
    <dc:date>2021-12-02T04:07:05.685615</dc:date>
    <dc:format>image/svg+xml</dc:format>
    <dc:creator>
     <cc:Agent>
      <dc:title>Matplotlib v3.5.0, https://matplotlib.org/</dc:title>
     </cc:Agent>
    </dc:creator>
   </cc:Work>
  </rdf:RDF>
 </metadata>
 <defs>
  <style type="text/css">*{stroke-linejoin: round; stroke-linecap: butt}</style>
 </defs>
 <g id="figure_1">
  <g id="patch_1">
   <path d="M 0 432 
L 792 432 
L 792 0 
L 0 0 
z
" style="fill: #ffffff"/>
  </g>
  <g id="axes_1">
   <g id="patch_2">
    <path d="M 99 384.48 
L 653.4 384.48 
L 653.4 51.84 
L 99 51.84 
z
" style="fill: #e5e5e5"/>
   </g>
   <g id="matplotlib.axis_1">
    <g id="xtick_1">
     <g id="line2d_1">
      <path d="M 147.461538 384.48 
L 147.461538 51.84 
" clip-path="url(#p726022cfc1)" style="fill: none; stroke: #ffffff; stroke-width: 1.4; stroke-linecap: square"/>
     </g>
     <g id="line2d_2">
      <defs>
       <path id="ma8a6e2cd37" d="M 0 0 
L 0 5 
" style="stroke: #7f7f7f; stroke-width: 1.4"/>
      </defs>
      <g>
       <use xlink:href="#ma8a6e2cd37" x="147.461538" y="384.48" style="fill: #7f7f7f; stroke: #7f7f7f; stroke-width: 1.4"/>
      </g>
     </g>
     <g id="text_1">
      <!-- 1850 -->
      <g style="fill: #7f7f7f" transform="translate(132.191538 399.598125)scale(0.12 -0.12)">
       <defs>
        <path id="DejaVuSans-31" d="M 794 531 
L 1825 531 
L 1825 4091 
L 703 3866 
L 703 4441 
L 1819 4666 
L 2450 4666 
L 2450 531 
L 3481 531 
L 3481 0 
L 794 0 
L 794 531 
z
" transform="scale(0.015625)"/>
        <path id="DejaVuSans-38" d="M 2034 2216 
Q 1584 2216 1326 1975 
Q 1069 1734 1069 1313 
Q 1069 891 1326 650 
Q 1584 409 2034 409 
Q 2484 409 2743 651 
Q 3003 894 3003 1313 
Q 3003 1734 2745 1975 
Q 2488 2216 2034 2216 
z
M 1403 2484 
Q 997 2584 770 2862 
Q 544 3141 544 3541 
Q 544 4100 942 4425 
Q 1341 4750 2034 4750 
Q 2731 4750 3128 4425 
Q 3525 4100 3525 3541 
Q 3525 3141 3298 2862 
Q 3072 2584 2669 2484 
Q 3125 2378 3379 2068 
Q 3634 1759 3634 1313 
Q 3634 634 3220 271 
Q 2806 -91 2034 -91 
Q 1263 -91 848 271 
Q 434 634 434 1313 
Q 434 1759 690 2068 
Q 947 2378 1403 2484 
z
M 1172 3481 
Q 1172 3119 1398 2916 
Q 1625 2713 2034 2713 
Q 2441 2713 2670 2916 
Q 2900 3119 2900 3481 
Q 2900 3844 2670 4047 
Q 2441 4250 2034 4250 
Q 1625 4250 1398 4047 
Q 1172 3844 1172 3481 
z
" transform="scale(0.015625)"/>
        <path id="DejaVuSans-35" d="M 691 4666 
L 3169 4666 
L 3169 4134 
L 1269 4134 
L 1269 2991 
Q 1406 3038 1543 3061 
Q 1681 3084 1819 3084 
Q 2600 3084 3056 2656 
Q 3513 2228 3513 1497 
Q 3513 744 3044 326 
Q 2575 -91 1722 -91 
Q 1428 -91 1123 -41 
Q 819 9 494 109 
L 494 744 
Q 775 591 1075 516 
Q 1375 441 1709 441 
Q 2250 441 2565 725 
Q 2881 1009 2881 1497 
Q 2881 1984 2565 2268 
Q 2250 2553 1709 2553 
Q 1456 2553 1204 2497 
Q 953 2441 691 2322 
L 691 4666 
z
" transform="scale(0.015625)"/>
        <path id="DejaVuSans-30" d="M 2034 4250 
Q 1547 4250 1301 3770 
Q 1056 3291 1056 2328 
Q 1056 1369 1301 889 
Q 1547 409 2034 409 
Q 2525 409 2770 889 
Q 3016 1369 3016 2328 
Q 3016 3291 2770 3770 
Q 2525 4250 2034 4250 
z
M 2034 4750 
Q 2819 4750 3233 4129 
Q 3647 3509 3647 2328 
Q 3647 1150 3233 529 
Q 2819 -91 2034 -91 
Q 1250 -91 836 529 
Q 422 1150 422 2328 
Q 422 3509 836 4129 
Q 1250 4750 2034 4750 
z
" transform="scale(0.015625)"/>
       </defs>
       <use xlink:href="#DejaVuSans-31"/>
       <use xlink:href="#DejaVuSans-38" x="63.623047"/>
       <use xlink:href="#DejaVuSans-35" x="127.246094"/>
       <use xlink:href="#DejaVuSans-30" x="190.869141"/>
      </g>
     </g>
    </g>
    <g id="xtick_2">
     <g id="line2d_3">
      <path d="M 212.076923 384.48 
L 212.076923 51.84 
" clip-path="url(#p726022cfc1)" style="fill: none; stroke: #ffffff; stroke-width: 1.4; stroke-linecap: square"/>
     </g>
     <g id="line2d_4">
      <g>
       <use xlink:href="#ma8a6e2cd37" x="212.076923" y="384.48" style="fill: #7f7f7f; stroke: #7f7f7f; stroke-width: 1.4"/>
      </g>
     </g>
     <g id="text_2">
      <!-- 1875 -->
      <g style="fill: #7f7f7f" transform="translate(196.806923 399.598125)scale(0.12 -0.12)">
       <defs>
        <path id="DejaVuSans-37" d="M 525 4666 
L 3525 4666 
L 3525 4397 
L 1831 0 
L 1172 0 
L 2766 4134 
L 525 4134 
L 525 4666 
z
" transform="scale(0.015625)"/>
       </defs>
       <use xlink:href="#DejaVuSans-31"/>
       <use xlink:href="#DejaVuSans-38" x="63.623047"/>
       <use xlink:href="#DejaVuSans-37" x="127.246094"/>
       <use xlink:href="#DejaVuSans-35" x="190.869141"/>
      </g>
     </g>
    </g>
    <g id="xtick_3">
     <g id="line2d_5">
      <path d="M 276.692308 384.48 
L 276.692308 51.84 
" clip-path="url(#p726022cfc1)" style="fill: none; stroke: #ffffff; stroke-width: 1.4; stroke-linecap: square"/>
     </g>
     <g id="line2d_6">
      <g>
       <use xlink:href="#ma8a6e2cd37" x="276.692308" y="384.48" style="fill: #7f7f7f; stroke: #7f7f7f; stroke-width: 1.4"/>
      </g>
     </g>
     <g id="text_3">
      <!-- 1900 -->
      <g style="fill: #7f7f7f" transform="translate(261.422308 399.598125)scale(0.12 -0.12)">
       <defs>
        <path id="DejaVuSans-39" d="M 703 97 
L 703 672 
Q 941 559 1184 500 
Q 1428 441 1663 441 
Q 2288 441 2617 861 
Q 2947 1281 2994 2138 
Q 2813 1869 2534 1725 
Q 2256 1581 1919 1581 
Q 1219 1581 811 2004 
Q 403 2428 403 3163 
Q 403 3881 828 4315 
Q 1253 4750 1959 4750 
Q 2769 4750 3195 4129 
Q 3622 3509 3622 2328 
Q 3622 1225 3098 567 
Q 2575 -91 1691 -91 
Q 1453 -91 1209 -44 
Q 966 3 703 97 
z
M 1959 2075 
Q 2384 2075 2632 2365 
Q 2881 2656 2881 3163 
Q 2881 3666 2632 3958 
Q 2384 4250 1959 4250 
Q 1534 4250 1286 3958 
Q 1038 3666 1038 3163 
Q 1038 2656 1286 2365 
Q 1534 2075 1959 2075 
z
" transform="scale(0.015625)"/>
       </defs>
       <use xlink:href="#DejaVuSans-31"/>
       <use xlink:href="#DejaVuSans-39" x="63.623047"/>
       <use xlink:href="#DejaVuSans-30" x="127.246094"/>
       <use xlink:href="#DejaVuSans-30" x="190.869141"/>
      </g>
     </g>
    </g>
    <g id="xtick_4">
     <g id="line2d_7">
      <path d="M 341.307692 384.48 
L 341.307692 51.84 
" clip-path="url(#p726022cfc1)" style="fill: none; stroke: #ffffff; stroke-width: 1.4; stroke-linecap: square"/>
     </g>
     <g id="line2d_8">
      <g>
       <use xlink:href="#ma8a6e2cd37" x="341.307692" y="384.48" style="fill: #7f7f7f; stroke: #7f7f7f; stroke-width: 1.4"/>
      </g>
     </g>
     <g id="text_4">
      <!-- 1925 -->
      <g style="fill: #7f7f7f" transform="translate(326.037692 399.598125)scale(0.12 -0.12)">
       <defs>
        <path id="DejaVuSans-32" d="M 1228 531 
L 3431 531 
L 3431 0 
L 469 0 
L 469 531 
Q 828 903 1448 1529 
Q 2069 2156 2228 2338 
Q 2531 2678 2651 2914 
Q 2772 3150 2772 3378 
Q 2772 3750 2511 3984 
Q 2250 4219 1831 4219 
Q 1534 4219 1204 4116 
Q 875 4013 500 3803 
L 500 4441 
Q 881 4594 1212 4672 
Q 1544 4750 1819 4750 
Q 2544 4750 2975 4387 
Q 3406 4025 3406 3419 
Q 3406 3131 3298 2873 
Q 3191 2616 2906 2266 
Q 2828 2175 2409 1742 
Q 1991 1309 1228 531 
z
" transform="scale(0.015625)"/>
       </defs>
       <use xlink:href="#DejaVuSans-31"/>
       <use xlink:href="#DejaVuSans-39" x="63.623047"/>
       <use xlink:href="#DejaVuSans-32" x="127.246094"/>
       <use xlink:href="#DejaVuSans-35" x="190.869141"/>
      </g>
     </g>
    </g>
    <g id="xtick_5">
     <g id="line2d_9">
      <path d="M 405.923077 384.48 
L 405.923077 51.84 
" clip-path="url(#p726022cfc1)" style="fill: none; stroke: #ffffff; stroke-width: 1.4; stroke-linecap: square"/>
     </g>
     <g id="line2d_10">
      <g>
       <use xlink:href="#ma8a6e2cd37" x="405.923077" y="384.48" style="fill: #7f7f7f; stroke: #7f7f7f; stroke-width: 1.4"/>
      </g>
     </g>
     <g id="text_5">
      <!-- 1950 -->
      <g style="fill: #7f7f7f" transform="translate(390.653077 399.598125)scale(0.12 -0.12)">
       <use xlink:href="#DejaVuSans-31"/>
       <use xlink:href="#DejaVuSans-39" x="63.623047"/>
       <use xlink:href="#DejaVuSans-35" x="127.246094"/>
       <use xlink:href="#DejaVuSans-30" x="190.869141"/>
      </g>
     </g>
    </g>
    <g id="xtick_6">
     <g id="line2d_11">
      <path d="M 470.538462 384.48 
L 470.538462 51.84 
" clip-path="url(#p726022cfc1)" style="fill: none; stroke: #ffffff; stroke-width: 1.4; stroke-linecap: square"/>
     </g>
     <g id="line2d_12">
      <g>
       <use xlink:href="#ma8a6e2cd37" x="470.538462" y="384.48" style="fill: #7f7f7f; stroke: #7f7f7f; stroke-width: 1.4"/>
      </g>
     </g>
     <g id="text_6">
      <!-- 1975 -->
      <g style="fill: #7f7f7f" transform="translate(455.268462 399.598125)scale(0.12 -0.12)">
       <use xlink:href="#DejaVuSans-31"/>
       <use xlink:href="#DejaVuSans-39" x="63.623047"/>
       <use xlink:href="#DejaVuSans-37" x="127.246094"/>
       <use xlink:href="#DejaVuSans-35" x="190.869141"/>
      </g>
     </g>
    </g>
    <g id="xtick_7">
     <g id="line2d_13">
      <path d="M 535.153846 384.48 
L 535.153846 51.84 
" clip-path="url(#p726022cfc1)" style="fill: none; stroke: #ffffff; stroke-width: 1.4; stroke-linecap: square"/>
     </g>
     <g id="line2d_14">
      <g>
       <use xlink:href="#ma8a6e2cd37" x="535.153846" y="384.48" style="fill: #7f7f7f; stroke: #7f7f7f; stroke-width: 1.4"/>
      </g>
     </g>
     <g id="text_7">
      <!-- 2000 -->
      <g style="fill: #7f7f7f" transform="translate(519.883846 399.598125)scale(0.12 -0.12)">
       <use xlink:href="#DejaVuSans-32"/>
       <use xlink:href="#DejaVuSans-30" x="63.623047"/>
       <use xlink:href="#DejaVuSans-30" x="127.246094"/>
       <use xlink:href="#DejaVuSans-30" x="190.869141"/>
      </g>
     </g>
    </g>
    <g id="xtick_8">
     <g id="line2d_15">
      <path d="M 599.769231 384.48 
L 599.769231 51.84 
" clip-path="url(#p726022cfc1)" style="fill: none; stroke: #ffffff; stroke-width: 1.4; stroke-linecap: square"/>
     </g>
     <g id="line2d_16">
      <g>
       <use xlink:href="#ma8a6e2cd37" x="599.769231" y="384.48" style="fill: #7f7f7f; stroke: #7f7f7f; stroke-width: 1.4"/>
      </g>
     </g>
     <g id="text_8">
      <!-- 2025 -->
      <g style="fill: #7f7f7f" transform="translate(584.499231 399.598125)scale(0.12 -0.12)">
       <use xlink:href="#DejaVuSans-32"/>
       <use xlink:href="#DejaVuSans-30" x="63.623047"/>
       <use xlink:href="#DejaVuSans-32" x="127.246094"/>
       <use xlink:href="#DejaVuSans-35" x="190.869141"/>
      </g>
     </g>
    </g>
    <g id="xtick_9">
     <g id="line2d_17">
      <path d="M 115.153846 384.48 
L 115.153846 51.84 
" clip-path="url(#p726022cfc1)" style="fill: none; stroke: #f2f2f2; stroke-width: 0.7; stroke-linecap: square"/>
     </g>
     <g id="line2d_18"/>
    </g>
    <g id="xtick_10">
     <g id="line2d_19">
      <path d="M 179.769231 384.48 
L 179.769231 51.84 
" clip-path="url(#p726022cfc1)" style="fill: none; stroke: #f2f2f2; stroke-width: 0.7; stroke-linecap: square"/>
     </g>
     <g id="line2d_20"/>
    </g>
    <g id="xtick_11">
     <g id="line2d_21">
      <path d="M 244.384615 384.48 
L 244.384615 51.84 
" clip-path="url(#p726022cfc1)" style="fill: none; stroke: #f2f2f2; stroke-width: 0.7; stroke-linecap: square"/>
     </g>
     <g id="line2d_22"/>
    </g>
    <g id="xtick_12">
     <g id="line2d_23">
      <path d="M 309 384.48 
L 309 51.84 
" clip-path="url(#p726022cfc1)" style="fill: none; stroke: #f2f2f2; stroke-width: 0.7; stroke-linecap: square"/>
     </g>
     <g id="line2d_24"/>
    </g>
    <g id="xtick_13">
     <g id="line2d_25">
      <path d="M 373.615385 384.48 
L 373.615385 51.84 
" clip-path="url(#p726022cfc1)" style="fill: none; stroke: #f2f2f2; stroke-width: 0.7; stroke-linecap: square"/>
     </g>
     <g id="line2d_26"/>
    </g>
    <g id="xtick_14">
     <g id="line2d_27">
      <path d="M 438.230769 384.48 
L 438.230769 51.84 
" clip-path="url(#p726022cfc1)" style="fill: none; stroke: #f2f2f2; stroke-width: 0.7; stroke-linecap: square"/>
     </g>
     <g id="line2d_28"/>
    </g>
    <g id="xtick_15">
     <g id="line2d_29">
      <path d="M 502.846154 384.48 
L 502.846154 51.84 
" clip-path="url(#p726022cfc1)" style="fill: none; stroke: #f2f2f2; stroke-width: 0.7; stroke-linecap: square"/>
     </g>
     <g id="line2d_30"/>
    </g>
    <g id="xtick_16">
     <g id="line2d_31">
      <path d="M 567.461538 384.48 
L 567.461538 51.84 
" clip-path="url(#p726022cfc1)" style="fill: none; stroke: #f2f2f2; stroke-width: 0.7; stroke-linecap: square"/>
     </g>
     <g id="line2d_32"/>
    </g>
    <g id="xtick_17">
     <g id="line2d_33">
      <path d="M 632.076923 384.48 
L 632.076923 51.84 
" clip-path="url(#p726022cfc1)" style="fill: none; stroke: #f2f2f2; stroke-width: 0.7; stroke-linecap: square"/>
     </g>
     <g id="line2d_34"/>
    </g>
   </g>
   <g id="matplotlib.axis_2">
    <g id="ytick_1">
     <g id="line2d_35">
      <path d="M 99 348.744138 
L 653.4 348.744138 
" clip-path="url(#p726022cfc1)" style="fill: none; stroke: #ffffff; stroke-width: 1.4; stroke-linecap: square"/>
     </g>
     <g id="line2d_36">
      <defs>
       <path id="m74c06fd3df" d="M 0 0 
L -5 0 
" style="stroke: #7f7f7f; stroke-width: 1.4"/>
      </defs>
      <g>
       <use xlink:href="#m74c06fd3df" x="99" y="348.744138" style="fill: #7f7f7f; stroke: #7f7f7f; stroke-width: 1.4"/>
      </g>
     </g>
     <g id="text_9">
      <!-- 0.25 -->
      <g style="fill: #7f7f7f" transform="translate(66.28125 353.3032)scale(0.12 -0.12)">
       <defs>
        <path id="DejaVuSans-2e" d="M 684 794 
L 1344 794 
L 1344 0 
L 684 0 
L 684 794 
z
" transform="scale(0.015625)"/>
       </defs>
       <use xlink:href="#DejaVuSans-30"/>
       <use xlink:href="#DejaVuSans-2e" x="63.623047"/>
       <use xlink:href="#DejaVuSans-32" x="95.410156"/>
       <use xlink:href="#DejaVuSans-35" x="159.033203"/>
      </g>
     </g>
    </g>
    <g id="ytick_2">
     <g id="line2d_37">
      <path d="M 99 310.43466 
L 653.4 310.43466 
" clip-path="url(#p726022cfc1)" style="fill: none; stroke: #ffffff; stroke-width: 1.4; stroke-linecap: square"/>
     </g>
     <g id="line2d_38">
      <g>
       <use xlink:href="#m74c06fd3df" x="99" y="310.43466" style="fill: #7f7f7f; stroke: #7f7f7f; stroke-width: 1.4"/>
      </g>
     </g>
     <g id="text_10">
      <!-- 0.50 -->
      <g style="fill: #7f7f7f" transform="translate(66.28125 314.993722)scale(0.12 -0.12)">
       <use xlink:href="#DejaVuSans-30"/>
       <use xlink:href="#DejaVuSans-2e" x="63.623047"/>
       <use xlink:href="#DejaVuSans-35" x="95.410156"/>
       <use xlink:href="#DejaVuSans-30" x="159.033203"/>
      </g>
     </g>
    </g>
    <g id="ytick_3">
     <g id="line2d_39">
      <path d="M 99 272.125182 
L 653.4 272.125182 
" clip-path="url(#p726022cfc1)" style="fill: none; stroke: #ffffff; stroke-width: 1.4; stroke-linecap: square"/>
     </g>
     <g id="line2d_40">
      <g>
       <use xlink:href="#m74c06fd3df" x="99" y="272.125182" style="fill: #7f7f7f; stroke: #7f7f7f; stroke-width: 1.4"/>
      </g>
     </g>
     <g id="text_11">
      <!-- 0.75 -->
      <g style="fill: #7f7f7f" transform="translate(66.28125 276.684245)scale(0.12 -0.12)">
       <use xlink:href="#DejaVuSans-30"/>
       <use xlink:href="#DejaVuSans-2e" x="63.623047"/>
       <use xlink:href="#DejaVuSans-37" x="95.410156"/>
       <use xlink:href="#DejaVuSans-35" x="159.033203"/>
      </g>
     </g>
    </g>
    <g id="ytick_4">
     <g id="line2d_41">
      <path d="M 99 233.815704 
L 653.4 233.815704 
" clip-path="url(#p726022cfc1)" style="fill: none; stroke: #ffffff; stroke-width: 1.4; stroke-linecap: square"/>
     </g>
     <g id="line2d_42">
      <g>
       <use xlink:href="#m74c06fd3df" x="99" y="233.815704" style="fill: #7f7f7f; stroke: #7f7f7f; stroke-width: 1.4"/>
      </g>
     </g>
     <g id="text_12">
      <!-- 1.00 -->
      <g style="fill: #7f7f7f" transform="translate(66.28125 238.374767)scale(0.12 -0.12)">
       <use xlink:href="#DejaVuSans-31"/>
       <use xlink:href="#DejaVuSans-2e" x="63.623047"/>
       <use xlink:href="#DejaVuSans-30" x="95.410156"/>
       <use xlink:href="#DejaVuSans-30" x="159.033203"/>
      </g>
     </g>
    </g>
    <g id="ytick_5">
     <g id="line2d_43">
      <path d="M 99 195.506227 
L 653.4 195.506227 
" clip-path="url(#p726022cfc1)" style="fill: none; stroke: #ffffff; stroke-width: 1.4; stroke-linecap: square"/>
     </g>
     <g id="line2d_44">
      <g>
       <use xlink:href="#m74c06fd3df" x="99" y="195.506227" style="fill: #7f7f7f; stroke: #7f7f7f; stroke-width: 1.4"/>
      </g>
     </g>
     <g id="text_13">
      <!-- 1.25 -->
      <g style="fill: #7f7f7f" transform="translate(66.28125 200.065289)scale(0.12 -0.12)">
       <use xlink:href="#DejaVuSans-31"/>
       <use xlink:href="#DejaVuSans-2e" x="63.623047"/>
       <use xlink:href="#DejaVuSans-32" x="95.410156"/>
       <use xlink:href="#DejaVuSans-35" x="159.033203"/>
      </g>
     </g>
    </g>
    <g id="ytick_6">
     <g id="line2d_45">
      <path d="M 99 157.196749 
L 653.4 157.196749 
" clip-path="url(#p726022cfc1)" style="fill: none; stroke: #ffffff; stroke-width: 1.4; stroke-linecap: square"/>
     </g>
     <g id="line2d_46">
      <g>
       <use xlink:href="#m74c06fd3df" x="99" y="157.196749" style="fill: #7f7f7f; stroke: #7f7f7f; stroke-width: 1.4"/>
      </g>
     </g>
     <g id="text_14">
      <!-- 1.50 -->
      <g style="fill: #7f7f7f" transform="translate(66.28125 161.755811)scale(0.12 -0.12)">
       <use xlink:href="#DejaVuSans-31"/>
       <use xlink:href="#DejaVuSans-2e" x="63.623047"/>
       <use xlink:href="#DejaVuSans-35" x="95.410156"/>
       <use xlink:href="#DejaVuSans-30" x="159.033203"/>
      </g>
     </g>
    </g>
    <g id="ytick_7">
     <g id="line2d_47">
      <path d="M 99 118.887271 
L 653.4 118.887271 
" clip-path="url(#p726022cfc1)" style="fill: none; stroke: #ffffff; stroke-width: 1.4; stroke-linecap: square"/>
     </g>
     <g id="line2d_48">
      <g>
       <use xlink:href="#m74c06fd3df" x="99" y="118.887271" style="fill: #7f7f7f; stroke: #7f7f7f; stroke-width: 1.4"/>
      </g>
     </g>
     <g id="text_15">
      <!-- 1.75 -->
      <g style="fill: #7f7f7f" transform="translate(66.28125 123.446334)scale(0.12 -0.12)">
       <use xlink:href="#DejaVuSans-31"/>
       <use xlink:href="#DejaVuSans-2e" x="63.623047"/>
       <use xlink:href="#DejaVuSans-37" x="95.410156"/>
       <use xlink:href="#DejaVuSans-35" x="159.033203"/>
      </g>
     </g>
    </g>
    <g id="ytick_8">
     <g id="line2d_49">
      <path d="M 99 80.577793 
L 653.4 80.577793 
" clip-path="url(#p726022cfc1)" style="fill: none; stroke: #ffffff; stroke-width: 1.4; stroke-linecap: square"/>
     </g>
     <g id="line2d_50">
      <g>
       <use xlink:href="#m74c06fd3df" x="99" y="80.577793" style="fill: #7f7f7f; stroke: #7f7f7f; stroke-width: 1.4"/>
      </g>
     </g>
     <g id="text_16">
      <!-- 2.00 -->
      <g style="fill: #7f7f7f" transform="translate(66.28125 85.136856)scale(0.12 -0.12)">
       <use xlink:href="#DejaVuSans-32"/>
       <use xlink:href="#DejaVuSans-2e" x="63.623047"/>
       <use xlink:href="#DejaVuSans-30" x="95.410156"/>
       <use xlink:href="#DejaVuSans-30" x="159.033203"/>
      </g>
     </g>
    </g>
    <g id="ytick_9">
     <g id="line2d_51">
      <path d="M 99 367.898877 
L 653.4 367.898877 
" clip-path="url(#p726022cfc1)" style="fill: none; stroke: #f2f2f2; stroke-width: 0.7; stroke-linecap: square"/>
     </g>
     <g id="line2d_52"/>
    </g>
    <g id="ytick_10">
     <g id="line2d_53">
      <path d="M 99 329.589399 
L 653.4 329.589399 
" clip-path="url(#p726022cfc1)" style="fill: none; stroke: #f2f2f2; stroke-width: 0.7; stroke-linecap: square"/>
     </g>
     <g id="line2d_54"/>
    </g>
    <g id="ytick_11">
     <g id="line2d_55">
      <path d="M 99 291.279921 
L 653.4 291.279921 
" clip-path="url(#p726022cfc1)" style="fill: none; stroke: #f2f2f2; stroke-width: 0.7; stroke-linecap: square"/>
     </g>
     <g id="line2d_56"/>
    </g>
    <g id="ytick_12">
     <g id="line2d_57">
      <path d="M 99 252.970443 
L 653.4 252.970443 
" clip-path="url(#p726022cfc1)" style="fill: none; stroke: #f2f2f2; stroke-width: 0.7; stroke-linecap: square"/>
     </g>
     <g id="line2d_58"/>
    </g>
    <g id="ytick_13">
     <g id="line2d_59">
      <path d="M 99 214.660966 
L 653.4 214.660966 
" clip-path="url(#p726022cfc1)" style="fill: none; stroke: #f2f2f2; stroke-width: 0.7; stroke-linecap: square"/>
     </g>
     <g id="line2d_60"/>
    </g>
    <g id="ytick_14">
     <g id="line2d_61">
      <path d="M 99 176.351488 
L 653.4 176.351488 
" clip-path="url(#p726022cfc1)" style="fill: none; stroke: #f2f2f2; stroke-width: 0.7; stroke-linecap: square"/>
     </g>
     <g id="line2d_62"/>
    </g>
    <g id="ytick_15">
     <g id="line2d_63">
      <path d="M 99 138.04201 
L 653.4 138.04201 
" clip-path="url(#p726022cfc1)" style="fill: none; stroke: #f2f2f2; stroke-width: 0.7; stroke-linecap: square"/>
     </g>
     <g id="line2d_64"/>
    </g>
    <g id="ytick_16">
     <g id="line2d_65">
      <path d="M 99 99.732532 
L 653.4 99.732532 
" clip-path="url(#p726022cfc1)" style="fill: none; stroke: #f2f2f2; stroke-width: 0.7; stroke-linecap: square"/>
     </g>
     <g id="line2d_66"/>
    </g>
    <g id="ytick_17">
     <g id="line2d_67">
      <path d="M 99 61.423055 
L 653.4 61.423055 
" clip-path="url(#p726022cfc1)" style="fill: none; stroke: #f2f2f2; stroke-width: 0.7; stroke-linecap: square"/>
     </g>
     <g id="line2d_68"/>
    </g>
    <g id="text_17">
     <!-- 1e6 -->
     <g style="fill: #7f7f7f" transform="translate(99 48.84)scale(0.12 -0.12)">
      <defs>
       <path id="DejaVuSans-65" d="M 3597 1894 
L 3597 1613 
L 953 1613 
Q 991 1019 1311 708 
Q 1631 397 2203 397 
Q 2534 397 2845 478 
Q 3156 559 3463 722 
L 3463 178 
Q 3153 47 2828 -22 
Q 2503 -91 2169 -91 
Q 1331 -91 842 396 
Q 353 884 353 1716 
Q 353 2575 817 3079 
Q 1281 3584 2069 3584 
Q 2775 3584 3186 3129 
Q 3597 2675 3597 1894 
z
M 3022 2063 
Q 3016 2534 2758 2815 
Q 2500 3097 2075 3097 
Q 1594 3097 1305 2825 
Q 1016 2553 972 2059 
L 3022 2063 
z
" transform="scale(0.015625)"/>
       <path id="DejaVuSans-36" d="M 2113 2584 
Q 1688 2584 1439 2293 
Q 1191 2003 1191 1497 
Q 1191 994 1439 701 
Q 1688 409 2113 409 
Q 2538 409 2786 701 
Q 3034 994 3034 1497 
Q 3034 2003 2786 2293 
Q 2538 2584 2113 2584 
z
M 3366 4563 
L 3366 3988 
Q 3128 4100 2886 4159 
Q 2644 4219 2406 4219 
Q 1781 4219 1451 3797 
Q 1122 3375 1075 2522 
Q 1259 2794 1537 2939 
Q 1816 3084 2150 3084 
Q 2853 3084 3261 2657 
Q 3669 2231 3669 1497 
Q 3669 778 3244 343 
Q 2819 -91 2113 -91 
Q 1303 -91 875 529 
Q 447 1150 447 2328 
Q 447 3434 972 4092 
Q 1497 4750 2381 4750 
Q 2619 4750 2861 4703 
Q 3103 4656 3366 4563 
z
" transform="scale(0.015625)"/>
      </defs>
      <use xlink:href="#DejaVuSans-31"/>
      <use xlink:href="#DejaVuSans-65" x="63.623047"/>
      <use xlink:href="#DejaVuSans-36" x="125.146484"/>
     </g>
    </g>
   </g>
   <g id="line2d_69">
    <path d="M 124.2 66.96 
L 147.461538 139.613158 
L 150.046154 150.331844 
L 173.307692 179.096132 
L 175.892308 179.355717 
L 199.153846 195.016938 
L 201.738462 197.419555 
L 225 207.338952 
L 227.584615 208.232022 
L 250.846154 229.971885 
L 253.430769 230.49933 
L 276.692308 244.742793 
L 281.861538 246.535677 
L 302.538462 253.985491 
L 305.123077 252.643587 
L 341.307692 265.44876 
L 343.892308 265.519709 
L 367.153846 274.121566 
L 369.738462 272.772766 
L 393 278.116784 
L 395.584615 279.581739 
L 405.923077 283.555811 
L 408.507692 284.032381 
L 418.846154 288.27891 
L 421.430769 290.197295 
L 431.769231 295.125733 
L 434.353846 296.948804 
L 444.692308 299.793513 
L 447.276923 300.864799 
L 457.615385 302.0196 
L 460.2 302.707945 
L 483.461538 296.585784 
L 488.630769 295.731482 
L 496.384615 294.593231 
L 506.723077 296.185373 
L 509.307692 296.591147 
L 511.892308 297.687564 
L 522.230769 297.107712 
L 524.815385 297.178355 
L 537.738462 293.344649 
L 540.323077 292.82272 
L 548.076923 285.193311 
L 550.661538 285.540242 
L 561 279.521976 
L 563.584615 276.86667 
L 573.923077 276.662863 
L 576.507692 276.067227 
L 579.092308 272.912942 
L 584.261538 271.459106 
L 589.430769 270.213885 
L 597.184615 268.649494 
L 604.938462 267.33231 
L 615.276923 265.830052 
L 628.2 264.14751 
L 628.2 264.14751 
" clip-path="url(#p726022cfc1)" style="fill: none; stroke: #f7746a; stroke-linecap: square"/>
   </g>
   <g id="line2d_70">
    <path d="M 124.2 97.416341 
L 147.461538 151.196106 
L 150.046154 159.437853 
L 173.307692 197.642516 
L 199.153846 215.468836 
L 201.738462 216.798481 
L 225 226.159479 
L 227.584615 225.453665 
L 250.846154 243.222214 
L 253.430769 243.712881 
L 276.692308 256.208514 
L 281.861538 257.616923 
L 302.538462 263.605461 
L 305.123077 262.644659 
L 341.307692 271.207287 
L 343.892308 271.136951 
L 367.153846 276.675888 
L 369.738462 275.464543 
L 393 277.501075 
L 395.584615 278.496814 
L 408.507692 281.562645 
L 418.846154 283.20934 
L 421.430769 284.607329 
L 431.769231 287.227085 
L 434.353846 288.53068 
L 444.692308 288.86719 
L 447.276923 289.375174 
L 457.615385 287.910219 
L 460.2 287.741811 
L 483.461538 275.647356 
L 486.046154 274.406128 
L 496.384615 271.118869 
L 509.307692 271.66792 
L 511.892308 272.351055 
L 522.230769 269.775739 
L 524.815385 269.46865 
L 537.738462 260.772398 
L 540.323077 259.438003 
L 548.076923 249.633228 
L 550.661538 248.132876 
L 561 240.345019 
L 563.584615 236.781318 
L 573.923077 234.194968 
L 576.507692 232.965387 
L 579.092308 230.711299 
L 584.261538 227.87546 
L 589.430769 225.365163 
L 594.6 223.091921 
L 602.353846 219.98876 
L 610.107692 217.174802 
L 620.446154 213.708074 
L 628.2 211.23022 
L 628.2 211.23022 
" clip-path="url(#p726022cfc1)" style="fill: none; stroke: #a0a131; stroke-linecap: square"/>
   </g>
   <g id="line2d_71">
    <path d="M 124.2 90.321732 
L 147.461538 152.030333 
L 150.046154 160.02644 
L 173.307692 196.045011 
L 175.892308 197.857049 
L 199.153846 211.456914 
L 201.738462 212.814602 
L 225 221.02938 
L 227.584615 221.036122 
L 250.846154 239.62572 
L 253.430769 239.932809 
L 276.692308 251.589923 
L 279.276923 252.729094 
L 302.538462 258.410542 
L 305.123077 257.390897 
L 343.892308 264.284918 
L 367.153846 266.757871 
L 369.738462 265.834459 
L 393 265.725967 
L 395.584615 266.937466 
L 405.923077 268.077862 
L 408.507692 267.859805 
L 418.846154 268.75165 
L 421.430769 269.665254 
L 431.769231 271.822231 
L 434.353846 272.712237 
L 447.276923 270.249244 
L 460.2 266.11136 
L 480.876923 249.413332 
L 486.046154 246.062938 
L 496.384615 241.497674 
L 498.969231 241.240541 
L 509.307692 241.064011 
L 511.892308 241.66409 
L 522.230769 237.976573 
L 524.815385 237.44683 
L 537.738462 225.589893 
L 540.323077 223.39001 
L 548.076923 211.332945 
L 550.661538 207.59394 
L 561 197.110628 
L 563.584615 192.667341 
L 573.923077 186.937469 
L 576.507692 184.817423 
L 579.092308 187.238167 
L 584.261538 183.051844 
L 589.430769 179.109856 
L 594.6 175.436499 
L 599.769231 171.987171 
L 607.523077 167.141437 
L 617.861538 161.036258 
L 628.2 155.08824 
L 628.2 155.08824 
" clip-path="url(#p726022cfc1)" style="fill: none; stroke: #34af8b; stroke-linecap: square"/>
   </g>
   <g id="line2d_72">
    <path d="M 124.2 350.179824 
L 150.046154 357.217888 
L 173.307692 360.418108 
L 175.892308 359.865379 
L 199.153846 361.65152 
L 201.738462 362.181417 
L 225 364.245225 
L 227.584615 364.651765 
L 250.846154 366.722622 
L 256.015385 366.889958 
L 281.861538 368.009821 
L 302.538462 368.147428 
L 305.123077 367.540606 
L 341.307692 368.633499 
L 343.892308 369.336401 
L 367.153846 369.36 
L 385.246154 368.388778 
L 405.923077 367.366528 
L 411.092308 367.297724 
L 418.846154 367.344921 
L 421.430769 367.773068 
L 436.938462 368.093642 
L 447.276923 367.618145 
L 460.2 365.865103 
L 478.292308 360.280807 
L 480.876923 359.296866 
L 486.046154 357.697676 
L 496.384615 355.166185 
L 501.553846 354.423901 
L 509.307692 353.436129 
L 511.892308 353.353381 
L 524.815385 350.632795 
L 540.323077 344.358469 
L 548.076923 340.219206 
L 550.661538 339.162324 
L 561 335.459177 
L 563.584615 333.887416 
L 573.923077 331.803074 
L 576.507692 331.132658 
L 581.676923 329.464421 
L 628.2 313.67604 
L 628.2 313.67604 
" clip-path="url(#p726022cfc1)" style="fill: none; stroke: #39a7d4; stroke-linecap: square"/>
   </g>
   <g id="line2d_73">
    <path d="M 124.2 329.93066 
L 150.046154 324.969735 
L 173.307692 324.706166 
L 175.892308 324.187456 
L 199.153846 324.64625 
L 201.738462 324.952113 
L 225 323.844509 
L 227.584615 322.860722 
L 250.846154 322.685111 
L 253.430769 322.813831 
L 305.123077 313.929097 
L 341.307692 309.402143 
L 343.892308 309.568253 
L 367.153846 297.661361 
L 369.738462 297.114454 
L 393 287.692162 
L 395.584615 289.564729 
L 405.923077 283.948253 
L 408.507692 280.856372 
L 418.846154 278.586612 
L 421.430769 278.901209 
L 431.769231 277.142345 
L 434.353846 276.97792 
L 444.692308 268.144981 
L 447.276923 265.222274 
L 457.615385 258.637947 
L 460.2 256.461356 
L 478.292308 239.200025 
L 480.876923 236.316087 
L 483.461538 234.746625 
L 486.046154 233.33086 
L 496.384615 231.284214 
L 498.969231 230.528904 
L 509.307692 229.62143 
L 511.892308 229.938172 
L 524.815385 224.887451 
L 537.738462 217.366534 
L 540.323077 214.994871 
L 548.076923 214.118963 
L 550.661538 205.133245 
L 561 195.976974 
L 563.584615 191.971181 
L 573.923077 182.539388 
L 576.507692 180.587137 
L 579.092308 179.535133 
L 586.846154 171.398992 
L 592.015385 166.286515 
L 597.184615 161.476479 
L 602.353846 156.963036 
L 607.523077 152.723428 
L 612.692308 148.701035 
L 620.446154 142.976245 
L 628.2 137.347076 
L 628.2 137.347076 
" clip-path="url(#p726022cfc1)" style="fill: none; stroke: #e668f4; stroke-linecap: square"/>
   </g>
   <g id="patch_3">
    <path d="M 99 384.48 
L 99 51.84 
" style="fill: none; opacity: 0"/>
   </g>
   <g id="patch_4">
    <path d="M 653.4 384.48 
L 653.4 51.84 
" style="fill: none; opacity: 0"/>
   </g>
   <g id="patch_5">
    <path d="M 99 384.48 
L 653.4 384.48 
" style="fill: none; opacity: 0"/>
   </g>
   <g id="patch_6">
    <path d="M 99 51.84 
L 653.4 51.84 
" style="fill: none; opacity: 0"/>
   </g>
   <g id="legend_1">
    <g id="patch_7">
     <path d="M 690.1164 184.237637 
L 710.1084 184.237637 
L 710.1084 177.240437 
L 690.1164 177.240437 
L 690.1164 184.237637 
z
" style="fill: none"/>
    </g>
    <g id="text_18">
     <!-- Group -->
     <g transform="translate(718.1052 184.237637)scale(0.09996 -0.09996)">
      <defs>
       <path id="DejaVuSans-47" d="M 3809 666 
L 3809 1919 
L 2778 1919 
L 2778 2438 
L 4434 2438 
L 4434 434 
Q 4069 175 3628 42 
Q 3188 -91 2688 -91 
Q 1594 -91 976 548 
Q 359 1188 359 2328 
Q 359 3472 976 4111 
Q 1594 4750 2688 4750 
Q 3144 4750 3555 4637 
Q 3966 4525 4313 4306 
L 4313 3634 
Q 3963 3931 3569 4081 
Q 3175 4231 2741 4231 
Q 1884 4231 1454 3753 
Q 1025 3275 1025 2328 
Q 1025 1384 1454 906 
Q 1884 428 2741 428 
Q 3075 428 3337 486 
Q 3600 544 3809 666 
z
" transform="scale(0.015625)"/>
       <path id="DejaVuSans-72" d="M 2631 2963 
Q 2534 3019 2420 3045 
Q 2306 3072 2169 3072 
Q 1681 3072 1420 2755 
Q 1159 2438 1159 1844 
L 1159 0 
L 581 0 
L 581 3500 
L 1159 3500 
L 1159 2956 
Q 1341 3275 1631 3429 
Q 1922 3584 2338 3584 
Q 2397 3584 2469 3576 
Q 2541 3569 2628 3553 
L 2631 2963 
z
" transform="scale(0.015625)"/>
       <path id="DejaVuSans-6f" d="M 1959 3097 
Q 1497 3097 1228 2736 
Q 959 2375 959 1747 
Q 959 1119 1226 758 
Q 1494 397 1959 397 
Q 2419 397 2687 759 
Q 2956 1122 2956 1747 
Q 2956 2369 2687 2733 
Q 2419 3097 1959 3097 
z
M 1959 3584 
Q 2709 3584 3137 3096 
Q 3566 2609 3566 1747 
Q 3566 888 3137 398 
Q 2709 -91 1959 -91 
Q 1206 -91 779 398 
Q 353 888 353 1747 
Q 353 2609 779 3096 
Q 1206 3584 1959 3584 
z
" transform="scale(0.015625)"/>
       <path id="DejaVuSans-75" d="M 544 1381 
L 544 3500 
L 1119 3500 
L 1119 1403 
Q 1119 906 1312 657 
Q 1506 409 1894 409 
Q 2359 409 2629 706 
Q 2900 1003 2900 1516 
L 2900 3500 
L 3475 3500 
L 3475 0 
L 2900 0 
L 2900 538 
Q 2691 219 2414 64 
Q 2138 -91 1772 -91 
Q 1169 -91 856 284 
Q 544 659 544 1381 
z
M 1991 3584 
L 1991 3584 
z
" transform="scale(0.015625)"/>
       <path id="DejaVuSans-70" d="M 1159 525 
L 1159 -1331 
L 581 -1331 
L 581 3500 
L 1159 3500 
L 1159 2969 
Q 1341 3281 1617 3432 
Q 1894 3584 2278 3584 
Q 2916 3584 3314 3078 
Q 3713 2572 3713 1747 
Q 3713 922 3314 415 
Q 2916 -91 2278 -91 
Q 1894 -91 1617 61 
Q 1341 213 1159 525 
z
M 3116 1747 
Q 3116 2381 2855 2742 
Q 2594 3103 2138 3103 
Q 1681 3103 1420 2742 
Q 1159 2381 1159 1747 
Q 1159 1113 1420 752 
Q 1681 391 2138 391 
Q 2594 391 2855 752 
Q 3116 1113 3116 1747 
z
" transform="scale(0.015625)"/>
      </defs>
      <use xlink:href="#DejaVuSans-47"/>
      <use xlink:href="#DejaVuSans-72" x="77.490234"/>
      <use xlink:href="#DejaVuSans-6f" x="116.353516"/>
      <use xlink:href="#DejaVuSans-75" x="177.535156"/>
      <use xlink:href="#DejaVuSans-70" x="240.914062"/>
     </g>
    </g>
    <g id="line2d_74">
     <path d="M 690.1164 195.411291 
L 700.1124 195.411291 
L 710.1084 195.411291 
" style="fill: none; stroke: #f7746a; stroke-width: 5; stroke-linecap: square"/>
    </g>
    <g id="text_19">
     <!-- 1 -->
     <g transform="translate(718.1052 198.909891)scale(0.09996 -0.09996)">
      <use xlink:href="#DejaVuSans-31"/>
     </g>
    </g>
    <g id="line2d_75">
     <path d="M 690.1164 210.083544 
L 700.1124 210.083544 
L 710.1084 210.083544 
" style="fill: none; stroke: #a0a131; stroke-width: 5; stroke-linecap: square"/>
    </g>
    <g id="text_20">
     <!-- 2 -->
     <g transform="translate(718.1052 213.582144)scale(0.09996 -0.09996)">
      <use xlink:href="#DejaVuSans-32"/>
     </g>
    </g>
    <g id="line2d_76">
     <path d="M 690.1164 224.755798 
L 700.1124 224.755798 
L 710.1084 224.755798 
" style="fill: none; stroke: #34af8b; stroke-width: 5; stroke-linecap: square"/>
    </g>
    <g id="text_21">
     <!-- 3 -->
     <g transform="translate(718.1052 228.254398)scale(0.09996 -0.09996)">
      <defs>
       <path id="DejaVuSans-33" d="M 2597 2516 
Q 3050 2419 3304 2112 
Q 3559 1806 3559 1356 
Q 3559 666 3084 287 
Q 2609 -91 1734 -91 
Q 1441 -91 1130 -33 
Q 819 25 488 141 
L 488 750 
Q 750 597 1062 519 
Q 1375 441 1716 441 
Q 2309 441 2620 675 
Q 2931 909 2931 1356 
Q 2931 1769 2642 2001 
Q 2353 2234 1838 2234 
L 1294 2234 
L 1294 2753 
L 1863 2753 
Q 2328 2753 2575 2939 
Q 2822 3125 2822 3475 
Q 2822 3834 2567 4026 
Q 2313 4219 1838 4219 
Q 1578 4219 1281 4162 
Q 984 4106 628 3988 
L 628 4550 
Q 988 4650 1302 4700 
Q 1616 4750 1894 4750 
Q 2613 4750 3031 4423 
Q 3450 4097 3450 3541 
Q 3450 3153 3228 2886 
Q 3006 2619 2597 2516 
z
" transform="scale(0.015625)"/>
      </defs>
      <use xlink:href="#DejaVuSans-33"/>
     </g>
    </g>
    <g id="line2d_77">
     <path d="M 690.1164 239.428052 
L 700.1124 239.428052 
L 710.1084 239.428052 
" style="fill: none; stroke: #39a7d4; stroke-width: 5; stroke-linecap: square"/>
    </g>
    <g id="text_22">
     <!-- 4 -->
     <g transform="translate(718.1052 242.926652)scale(0.09996 -0.09996)">
      <defs>
       <path id="DejaVuSans-34" d="M 2419 4116 
L 825 1625 
L 2419 1625 
L 2419 4116 
z
M 2253 4666 
L 3047 4666 
L 3047 1625 
L 3713 1625 
L 3713 1100 
L 3047 1100 
L 3047 0 
L 2419 0 
L 2419 1100 
L 313 1100 
L 313 1709 
L 2253 4666 
z
" transform="scale(0.015625)"/>
      </defs>
      <use xlink:href="#DejaVuSans-34"/>
     </g>
    </g>
    <g id="line2d_78">
     <path d="M 690.1164 254.100306 
L 700.1124 254.100306 
L 710.1084 254.100306 
" style="fill: none; stroke: #e668f4; stroke-width: 5; stroke-linecap: square"/>
    </g>
    <g id="text_23">
     <!-- 5 -->
     <g transform="translate(718.1052 257.598906)scale(0.09996 -0.09996)">
      <use xlink:href="#DejaVuSans-35"/>
     </g>
    </g>
   </g>
  </g>
  <g id="text_24">
   <!--   -->
   <g transform="translate(394.093125 410.4)scale(0.12 -0.12)">
    <defs>
     <path id="DejaVuSans-20" transform="scale(0.015625)"/>
    </defs>
    <use xlink:href="#DejaVuSans-20"/>
   </g>
  </g>
  <g id="text_25">
   <!-- Total Population -->
   <g transform="translate(42.91125 218.495625)rotate(-90)scale(0.12 -0.12)">
    <defs>
     <path id="DejaVuSans-54" d="M -19 4666 
L 3928 4666 
L 3928 4134 
L 2272 4134 
L 2272 0 
L 1638 0 
L 1638 4134 
L -19 4134 
L -19 4666 
z
" transform="scale(0.015625)"/>
     <path id="DejaVuSans-74" d="M 1172 4494 
L 1172 3500 
L 2356 3500 
L 2356 3053 
L 1172 3053 
L 1172 1153 
Q 1172 725 1289 603 
Q 1406 481 1766 481 
L 2356 481 
L 2356 0 
L 1766 0 
Q 1100 0 847 248 
Q 594 497 594 1153 
L 594 3053 
L 172 3053 
L 172 3500 
L 594 3500 
L 594 4494 
L 1172 4494 
z
" transform="scale(0.015625)"/>
     <path id="DejaVuSans-61" d="M 2194 1759 
Q 1497 1759 1228 1600 
Q 959 1441 959 1056 
Q 959 750 1161 570 
Q 1363 391 1709 391 
Q 2188 391 2477 730 
Q 2766 1069 2766 1631 
L 2766 1759 
L 2194 1759 
z
M 3341 1997 
L 3341 0 
L 2766 0 
L 2766 531 
Q 2569 213 2275 61 
Q 1981 -91 1556 -91 
Q 1019 -91 701 211 
Q 384 513 384 1019 
Q 384 1609 779 1909 
Q 1175 2209 1959 2209 
L 2766 2209 
L 2766 2266 
Q 2766 2663 2505 2880 
Q 2244 3097 1772 3097 
Q 1472 3097 1187 3025 
Q 903 2953 641 2809 
L 641 3341 
Q 956 3463 1253 3523 
Q 1550 3584 1831 3584 
Q 2591 3584 2966 3190 
Q 3341 2797 3341 1997 
z
" transform="scale(0.015625)"/>
     <path id="DejaVuSans-6c" d="M 603 4863 
L 1178 4863 
L 1178 0 
L 603 0 
L 603 4863 
z
" transform="scale(0.015625)"/>
     <path id="DejaVuSans-50" d="M 1259 4147 
L 1259 2394 
L 2053 2394 
Q 2494 2394 2734 2622 
Q 2975 2850 2975 3272 
Q 2975 3691 2734 3919 
Q 2494 4147 2053 4147 
L 1259 4147 
z
M 628 4666 
L 2053 4666 
Q 2838 4666 3239 4311 
Q 3641 3956 3641 3272 
Q 3641 2581 3239 2228 
Q 2838 1875 2053 1875 
L 1259 1875 
L 1259 0 
L 628 0 
L 628 4666 
z
" transform="scale(0.015625)"/>
     <path id="DejaVuSans-69" d="M 603 3500 
L 1178 3500 
L 1178 0 
L 603 0 
L 603 3500 
z
M 603 4863 
L 1178 4863 
L 1178 4134 
L 603 4134 
L 603 4863 
z
" transform="scale(0.015625)"/>
     <path id="DejaVuSans-6e" d="M 3513 2113 
L 3513 0 
L 2938 0 
L 2938 2094 
Q 2938 2591 2744 2837 
Q 2550 3084 2163 3084 
Q 1697 3084 1428 2787 
Q 1159 2491 1159 1978 
L 1159 0 
L 581 0 
L 581 3500 
L 1159 3500 
L 1159 2956 
Q 1366 3272 1645 3428 
Q 1925 3584 2291 3584 
Q 2894 3584 3203 3211 
Q 3513 2838 3513 2113 
z
" transform="scale(0.015625)"/>
    </defs>
    <use xlink:href="#DejaVuSans-54"/>
    <use xlink:href="#DejaVuSans-6f" x="44.083984"/>
    <use xlink:href="#DejaVuSans-74" x="105.265625"/>
    <use xlink:href="#DejaVuSans-61" x="144.474609"/>
    <use xlink:href="#DejaVuSans-6c" x="205.753906"/>
    <use xlink:href="#DejaVuSans-20" x="233.537109"/>
    <use xlink:href="#DejaVuSans-50" x="265.324219"/>
    <use xlink:href="#DejaVuSans-6f" x="322.001953"/>
    <use xlink:href="#DejaVuSans-70" x="383.183594"/>
    <use xlink:href="#DejaVuSans-75" x="446.660156"/>
    <use xlink:href="#DejaVuSans-6c" x="510.039062"/>
    <use xlink:href="#DejaVuSans-61" x="537.822266"/>
    <use xlink:href="#DejaVuSans-74" x="599.101562"/>
    <use xlink:href="#DejaVuSans-69" x="638.310547"/>
    <use xlink:href="#DejaVuSans-6f" x="666.09375"/>
    <use xlink:href="#DejaVuSans-6e" x="727.275391"/>
   </g>
  </g>
 </g>
 <defs>
  <clipPath id="p726022cfc1">
   <rect x="99" y="51.84" width="554.4" height="332.64"/>
  </clipPath>
 </defs>
</svg>
