<?xml version="1.0" encoding="utf-8" standalone="no"?>
<!DOCTYPE svg PUBLIC "-//W3C//DTD SVG 1.1//EN"
  "http://www.w3.org/Graphics/SVG/1.1/DTD/svg11.dtd">
<svg xmlns:xlink="http://www.w3.org/1999/xlink" width="792pt" height="576pt" viewBox="0 0 792 576" xmlns="http://www.w3.org/2000/svg" version="1.1">
 <metadata>
  <rdf:RDF xmlns:dc="http://purl.org/dc/elements/1.1/" xmlns:cc="http://creativecommons.org/ns#" xmlns:rdf="http://www.w3.org/1999/02/22-rdf-syntax-ns#">
   <cc:Work>
    <dc:type rdf:resource="http://purl.org/dc/dcmitype/StillImage"/>
    <dc:date>2021-12-02T03:12:24.363688</dc:date>
    <dc:format>image/svg+xml</dc:format>
    <dc:creator>
     <cc:Agent>
      <dc:title>Matplotlib v3.5.0, https://matplotlib.org/</dc:title>
     </cc:Agent>
    </dc:creator>
   </cc:Work>
  </rdf:RDF>
 </metadata>
 <defs>
  <style type="text/css">*{stroke-linejoin: round; stroke-linecap: butt}</style>
 </defs>
 <g id="figure_1">
  <g id="patch_1">
   <path d="M 0 576 
L 792 576 
L 792 0 
L 0 0 
z
" style="fill: #ffffff"/>
  </g>
  <g id="axes_1">
   <g id="patch_2">
    <path d="M 99 512.64 
L 653.4 512.64 
L 653.4 69.12 
L 99 69.12 
z
" style="fill: #e5e5e5"/>
   </g>
   <g id="matplotlib.axis_1">
    <g id="xtick_1">
     <g id="line2d_1">
      <path d="M 147.461538 512.64 
L 147.461538 69.12 
" clip-path="url(#p3b4b04000a)" style="fill: none; stroke: #ffffff; stroke-width: 1.4; stroke-linecap: square"/>
     </g>
     <g id="line2d_2">
      <defs>
       <path id="md234954229" d="M 0 0 
L 0 5 
" style="stroke: #7f7f7f; stroke-width: 1.4"/>
      </defs>
      <g>
       <use xlink:href="#md234954229" x="147.461538" y="512.64" style="fill: #7f7f7f; stroke: #7f7f7f; stroke-width: 1.4"/>
      </g>
     </g>
     <g id="text_1">
      <!-- 1850 -->
      <g style="fill: #7f7f7f" transform="translate(132.191538 527.758125)scale(0.12 -0.12)">
       <defs>
        <path id="DejaVuSans-31" d="M 794 531 
L 1825 531 
L 1825 4091 
L 703 3866 
L 703 4441 
L 1819 4666 
L 2450 4666 
L 2450 531 
L 3481 531 
L 3481 0 
L 794 0 
L 794 531 
z
" transform="scale(0.015625)"/>
        <path id="DejaVuSans-38" d="M 2034 2216 
Q 1584 2216 1326 1975 
Q 1069 1734 1069 1313 
Q 1069 891 1326 650 
Q 1584 409 2034 409 
Q 2484 409 2743 651 
Q 3003 894 3003 1313 
Q 3003 1734 2745 1975 
Q 2488 2216 2034 2216 
z
M 1403 2484 
Q 997 2584 770 2862 
Q 544 3141 544 3541 
Q 544 4100 942 4425 
Q 1341 4750 2034 4750 
Q 2731 4750 3128 4425 
Q 3525 4100 3525 3541 
Q 3525 3141 3298 2862 
Q 3072 2584 2669 2484 
Q 3125 2378 3379 2068 
Q 3634 1759 3634 1313 
Q 3634 634 3220 271 
Q 2806 -91 2034 -91 
Q 1263 -91 848 271 
Q 434 634 434 1313 
Q 434 1759 690 2068 
Q 947 2378 1403 2484 
z
M 1172 3481 
Q 1172 3119 1398 2916 
Q 1625 2713 2034 2713 
Q 2441 2713 2670 2916 
Q 2900 3119 2900 3481 
Q 2900 3844 2670 4047 
Q 2441 4250 2034 4250 
Q 1625 4250 1398 4047 
Q 1172 3844 1172 3481 
z
" transform="scale(0.015625)"/>
        <path id="DejaVuSans-35" d="M 691 4666 
L 3169 4666 
L 3169 4134 
L 1269 4134 
L 1269 2991 
Q 1406 3038 1543 3061 
Q 1681 3084 1819 3084 
Q 2600 3084 3056 2656 
Q 3513 2228 3513 1497 
Q 3513 744 3044 326 
Q 2575 -91 1722 -91 
Q 1428 -91 1123 -41 
Q 819 9 494 109 
L 494 744 
Q 775 591 1075 516 
Q 1375 441 1709 441 
Q 2250 441 2565 725 
Q 2881 1009 2881 1497 
Q 2881 1984 2565 2268 
Q 2250 2553 1709 2553 
Q 1456 2553 1204 2497 
Q 953 2441 691 2322 
L 691 4666 
z
" transform="scale(0.015625)"/>
        <path id="DejaVuSans-30" d="M 2034 4250 
Q 1547 4250 1301 3770 
Q 1056 3291 1056 2328 
Q 1056 1369 1301 889 
Q 1547 409 2034 409 
Q 2525 409 2770 889 
Q 3016 1369 3016 2328 
Q 3016 3291 2770 3770 
Q 2525 4250 2034 4250 
z
M 2034 4750 
Q 2819 4750 3233 4129 
Q 3647 3509 3647 2328 
Q 3647 1150 3233 529 
Q 2819 -91 2034 -91 
Q 1250 -91 836 529 
Q 422 1150 422 2328 
Q 422 3509 836 4129 
Q 1250 4750 2034 4750 
z
" transform="scale(0.015625)"/>
       </defs>
       <use xlink:href="#DejaVuSans-31"/>
       <use xlink:href="#DejaVuSans-38" x="63.623047"/>
       <use xlink:href="#DejaVuSans-35" x="127.246094"/>
       <use xlink:href="#DejaVuSans-30" x="190.869141"/>
      </g>
     </g>
    </g>
    <g id="xtick_2">
     <g id="line2d_3">
      <path d="M 212.076923 512.64 
L 212.076923 69.12 
" clip-path="url(#p3b4b04000a)" style="fill: none; stroke: #ffffff; stroke-width: 1.4; stroke-linecap: square"/>
     </g>
     <g id="line2d_4">
      <g>
       <use xlink:href="#md234954229" x="212.076923" y="512.64" style="fill: #7f7f7f; stroke: #7f7f7f; stroke-width: 1.4"/>
      </g>
     </g>
     <g id="text_2">
      <!-- 1875 -->
      <g style="fill: #7f7f7f" transform="translate(196.806923 527.758125)scale(0.12 -0.12)">
       <defs>
        <path id="DejaVuSans-37" d="M 525 4666 
L 3525 4666 
L 3525 4397 
L 1831 0 
L 1172 0 
L 2766 4134 
L 525 4134 
L 525 4666 
z
" transform="scale(0.015625)"/>
       </defs>
       <use xlink:href="#DejaVuSans-31"/>
       <use xlink:href="#DejaVuSans-38" x="63.623047"/>
       <use xlink:href="#DejaVuSans-37" x="127.246094"/>
       <use xlink:href="#DejaVuSans-35" x="190.869141"/>
      </g>
     </g>
    </g>
    <g id="xtick_3">
     <g id="line2d_5">
      <path d="M 276.692308 512.64 
L 276.692308 69.12 
" clip-path="url(#p3b4b04000a)" style="fill: none; stroke: #ffffff; stroke-width: 1.4; stroke-linecap: square"/>
     </g>
     <g id="line2d_6">
      <g>
       <use xlink:href="#md234954229" x="276.692308" y="512.64" style="fill: #7f7f7f; stroke: #7f7f7f; stroke-width: 1.4"/>
      </g>
     </g>
     <g id="text_3">
      <!-- 1900 -->
      <g style="fill: #7f7f7f" transform="translate(261.422308 527.758125)scale(0.12 -0.12)">
       <defs>
        <path id="DejaVuSans-39" d="M 703 97 
L 703 672 
Q 941 559 1184 500 
Q 1428 441 1663 441 
Q 2288 441 2617 861 
Q 2947 1281 2994 2138 
Q 2813 1869 2534 1725 
Q 2256 1581 1919 1581 
Q 1219 1581 811 2004 
Q 403 2428 403 3163 
Q 403 3881 828 4315 
Q 1253 4750 1959 4750 
Q 2769 4750 3195 4129 
Q 3622 3509 3622 2328 
Q 3622 1225 3098 567 
Q 2575 -91 1691 -91 
Q 1453 -91 1209 -44 
Q 966 3 703 97 
z
M 1959 2075 
Q 2384 2075 2632 2365 
Q 2881 2656 2881 3163 
Q 2881 3666 2632 3958 
Q 2384 4250 1959 4250 
Q 1534 4250 1286 3958 
Q 1038 3666 1038 3163 
Q 1038 2656 1286 2365 
Q 1534 2075 1959 2075 
z
" transform="scale(0.015625)"/>
       </defs>
       <use xlink:href="#DejaVuSans-31"/>
       <use xlink:href="#DejaVuSans-39" x="63.623047"/>
       <use xlink:href="#DejaVuSans-30" x="127.246094"/>
       <use xlink:href="#DejaVuSans-30" x="190.869141"/>
      </g>
     </g>
    </g>
    <g id="xtick_4">
     <g id="line2d_7">
      <path d="M 341.307692 512.64 
L 341.307692 69.12 
" clip-path="url(#p3b4b04000a)" style="fill: none; stroke: #ffffff; stroke-width: 1.4; stroke-linecap: square"/>
     </g>
     <g id="line2d_8">
      <g>
       <use xlink:href="#md234954229" x="341.307692" y="512.64" style="fill: #7f7f7f; stroke: #7f7f7f; stroke-width: 1.4"/>
      </g>
     </g>
     <g id="text_4">
      <!-- 1925 -->
      <g style="fill: #7f7f7f" transform="translate(326.037692 527.758125)scale(0.12 -0.12)">
       <defs>
        <path id="DejaVuSans-32" d="M 1228 531 
L 3431 531 
L 3431 0 
L 469 0 
L 469 531 
Q 828 903 1448 1529 
Q 2069 2156 2228 2338 
Q 2531 2678 2651 2914 
Q 2772 3150 2772 3378 
Q 2772 3750 2511 3984 
Q 2250 4219 1831 4219 
Q 1534 4219 1204 4116 
Q 875 4013 500 3803 
L 500 4441 
Q 881 4594 1212 4672 
Q 1544 4750 1819 4750 
Q 2544 4750 2975 4387 
Q 3406 4025 3406 3419 
Q 3406 3131 3298 2873 
Q 3191 2616 2906 2266 
Q 2828 2175 2409 1742 
Q 1991 1309 1228 531 
z
" transform="scale(0.015625)"/>
       </defs>
       <use xlink:href="#DejaVuSans-31"/>
       <use xlink:href="#DejaVuSans-39" x="63.623047"/>
       <use xlink:href="#DejaVuSans-32" x="127.246094"/>
       <use xlink:href="#DejaVuSans-35" x="190.869141"/>
      </g>
     </g>
    </g>
    <g id="xtick_5">
     <g id="line2d_9">
      <path d="M 405.923077 512.64 
L 405.923077 69.12 
" clip-path="url(#p3b4b04000a)" style="fill: none; stroke: #ffffff; stroke-width: 1.4; stroke-linecap: square"/>
     </g>
     <g id="line2d_10">
      <g>
       <use xlink:href="#md234954229" x="405.923077" y="512.64" style="fill: #7f7f7f; stroke: #7f7f7f; stroke-width: 1.4"/>
      </g>
     </g>
     <g id="text_5">
      <!-- 1950 -->
      <g style="fill: #7f7f7f" transform="translate(390.653077 527.758125)scale(0.12 -0.12)">
       <use xlink:href="#DejaVuSans-31"/>
       <use xlink:href="#DejaVuSans-39" x="63.623047"/>
       <use xlink:href="#DejaVuSans-35" x="127.246094"/>
       <use xlink:href="#DejaVuSans-30" x="190.869141"/>
      </g>
     </g>
    </g>
    <g id="xtick_6">
     <g id="line2d_11">
      <path d="M 470.538462 512.64 
L 470.538462 69.12 
" clip-path="url(#p3b4b04000a)" style="fill: none; stroke: #ffffff; stroke-width: 1.4; stroke-linecap: square"/>
     </g>
     <g id="line2d_12">
      <g>
       <use xlink:href="#md234954229" x="470.538462" y="512.64" style="fill: #7f7f7f; stroke: #7f7f7f; stroke-width: 1.4"/>
      </g>
     </g>
     <g id="text_6">
      <!-- 1975 -->
      <g style="fill: #7f7f7f" transform="translate(455.268462 527.758125)scale(0.12 -0.12)">
       <use xlink:href="#DejaVuSans-31"/>
       <use xlink:href="#DejaVuSans-39" x="63.623047"/>
       <use xlink:href="#DejaVuSans-37" x="127.246094"/>
       <use xlink:href="#DejaVuSans-35" x="190.869141"/>
      </g>
     </g>
    </g>
    <g id="xtick_7">
     <g id="line2d_13">
      <path d="M 535.153846 512.64 
L 535.153846 69.12 
" clip-path="url(#p3b4b04000a)" style="fill: none; stroke: #ffffff; stroke-width: 1.4; stroke-linecap: square"/>
     </g>
     <g id="line2d_14">
      <g>
       <use xlink:href="#md234954229" x="535.153846" y="512.64" style="fill: #7f7f7f; stroke: #7f7f7f; stroke-width: 1.4"/>
      </g>
     </g>
     <g id="text_7">
      <!-- 2000 -->
      <g style="fill: #7f7f7f" transform="translate(519.883846 527.758125)scale(0.12 -0.12)">
       <use xlink:href="#DejaVuSans-32"/>
       <use xlink:href="#DejaVuSans-30" x="63.623047"/>
       <use xlink:href="#DejaVuSans-30" x="127.246094"/>
       <use xlink:href="#DejaVuSans-30" x="190.869141"/>
      </g>
     </g>
    </g>
    <g id="xtick_8">
     <g id="line2d_15">
      <path d="M 599.769231 512.64 
L 599.769231 69.12 
" clip-path="url(#p3b4b04000a)" style="fill: none; stroke: #ffffff; stroke-width: 1.4; stroke-linecap: square"/>
     </g>
     <g id="line2d_16">
      <g>
       <use xlink:href="#md234954229" x="599.769231" y="512.64" style="fill: #7f7f7f; stroke: #7f7f7f; stroke-width: 1.4"/>
      </g>
     </g>
     <g id="text_8">
      <!-- 2025 -->
      <g style="fill: #7f7f7f" transform="translate(584.499231 527.758125)scale(0.12 -0.12)">
       <use xlink:href="#DejaVuSans-32"/>
       <use xlink:href="#DejaVuSans-30" x="63.623047"/>
       <use xlink:href="#DejaVuSans-32" x="127.246094"/>
       <use xlink:href="#DejaVuSans-35" x="190.869141"/>
      </g>
     </g>
    </g>
    <g id="xtick_9">
     <g id="line2d_17">
      <path d="M 115.153846 512.64 
L 115.153846 69.12 
" clip-path="url(#p3b4b04000a)" style="fill: none; stroke: #f2f2f2; stroke-width: 0.7; stroke-linecap: square"/>
     </g>
     <g id="line2d_18"/>
    </g>
    <g id="xtick_10">
     <g id="line2d_19">
      <path d="M 179.769231 512.64 
L 179.769231 69.12 
" clip-path="url(#p3b4b04000a)" style="fill: none; stroke: #f2f2f2; stroke-width: 0.7; stroke-linecap: square"/>
     </g>
     <g id="line2d_20"/>
    </g>
    <g id="xtick_11">
     <g id="line2d_21">
      <path d="M 244.384615 512.64 
L 244.384615 69.12 
" clip-path="url(#p3b4b04000a)" style="fill: none; stroke: #f2f2f2; stroke-width: 0.7; stroke-linecap: square"/>
     </g>
     <g id="line2d_22"/>
    </g>
    <g id="xtick_12">
     <g id="line2d_23">
      <path d="M 309 512.64 
L 309 69.12 
" clip-path="url(#p3b4b04000a)" style="fill: none; stroke: #f2f2f2; stroke-width: 0.7; stroke-linecap: square"/>
     </g>
     <g id="line2d_24"/>
    </g>
    <g id="xtick_13">
     <g id="line2d_25">
      <path d="M 373.615385 512.64 
L 373.615385 69.12 
" clip-path="url(#p3b4b04000a)" style="fill: none; stroke: #f2f2f2; stroke-width: 0.7; stroke-linecap: square"/>
     </g>
     <g id="line2d_26"/>
    </g>
    <g id="xtick_14">
     <g id="line2d_27">
      <path d="M 438.230769 512.64 
L 438.230769 69.12 
" clip-path="url(#p3b4b04000a)" style="fill: none; stroke: #f2f2f2; stroke-width: 0.7; stroke-linecap: square"/>
     </g>
     <g id="line2d_28"/>
    </g>
    <g id="xtick_15">
     <g id="line2d_29">
      <path d="M 502.846154 512.64 
L 502.846154 69.12 
" clip-path="url(#p3b4b04000a)" style="fill: none; stroke: #f2f2f2; stroke-width: 0.7; stroke-linecap: square"/>
     </g>
     <g id="line2d_30"/>
    </g>
    <g id="xtick_16">
     <g id="line2d_31">
      <path d="M 567.461538 512.64 
L 567.461538 69.12 
" clip-path="url(#p3b4b04000a)" style="fill: none; stroke: #f2f2f2; stroke-width: 0.7; stroke-linecap: square"/>
     </g>
     <g id="line2d_32"/>
    </g>
    <g id="xtick_17">
     <g id="line2d_33">
      <path d="M 632.076923 512.64 
L 632.076923 69.12 
" clip-path="url(#p3b4b04000a)" style="fill: none; stroke: #f2f2f2; stroke-width: 0.7; stroke-linecap: square"/>
     </g>
     <g id="line2d_34"/>
    </g>
   </g>
   <g id="matplotlib.axis_2">
    <g id="ytick_1">
     <g id="line2d_35">
      <path d="M 99 498.776741 
L 653.4 498.776741 
" clip-path="url(#p3b4b04000a)" style="fill: none; stroke: #ffffff; stroke-width: 1.4; stroke-linecap: square"/>
     </g>
     <g id="line2d_36">
      <defs>
       <path id="m983c0c7ff1" d="M 0 0 
L -5 0 
" style="stroke: #7f7f7f; stroke-width: 1.4"/>
      </defs>
      <g>
       <use xlink:href="#m983c0c7ff1" x="99" y="498.776741" style="fill: #7f7f7f; stroke: #7f7f7f; stroke-width: 1.4"/>
      </g>
     </g>
     <g id="text_9">
      <!-- 0.0 -->
      <g style="fill: #7f7f7f" transform="translate(73.91625 503.335803)scale(0.12 -0.12)">
       <defs>
        <path id="DejaVuSans-2e" d="M 684 794 
L 1344 794 
L 1344 0 
L 684 0 
L 684 794 
z
" transform="scale(0.015625)"/>
       </defs>
       <use xlink:href="#DejaVuSans-30"/>
       <use xlink:href="#DejaVuSans-2e" x="63.623047"/>
       <use xlink:href="#DejaVuSans-30" x="95.410156"/>
      </g>
     </g>
    </g>
    <g id="ytick_2">
     <g id="line2d_37">
      <path d="M 99 448.517404 
L 653.4 448.517404 
" clip-path="url(#p3b4b04000a)" style="fill: none; stroke: #ffffff; stroke-width: 1.4; stroke-linecap: square"/>
     </g>
     <g id="line2d_38">
      <g>
       <use xlink:href="#m983c0c7ff1" x="99" y="448.517404" style="fill: #7f7f7f; stroke: #7f7f7f; stroke-width: 1.4"/>
      </g>
     </g>
     <g id="text_10">
      <!-- 0.2 -->
      <g style="fill: #7f7f7f" transform="translate(73.91625 453.076467)scale(0.12 -0.12)">
       <use xlink:href="#DejaVuSans-30"/>
       <use xlink:href="#DejaVuSans-2e" x="63.623047"/>
       <use xlink:href="#DejaVuSans-32" x="95.410156"/>
      </g>
     </g>
    </g>
    <g id="ytick_3">
     <g id="line2d_39">
      <path d="M 99 398.258068 
L 653.4 398.258068 
" clip-path="url(#p3b4b04000a)" style="fill: none; stroke: #ffffff; stroke-width: 1.4; stroke-linecap: square"/>
     </g>
     <g id="line2d_40">
      <g>
       <use xlink:href="#m983c0c7ff1" x="99" y="398.258068" style="fill: #7f7f7f; stroke: #7f7f7f; stroke-width: 1.4"/>
      </g>
     </g>
     <g id="text_11">
      <!-- 0.4 -->
      <g style="fill: #7f7f7f" transform="translate(73.91625 402.81713)scale(0.12 -0.12)">
       <defs>
        <path id="DejaVuSans-34" d="M 2419 4116 
L 825 1625 
L 2419 1625 
L 2419 4116 
z
M 2253 4666 
L 3047 4666 
L 3047 1625 
L 3713 1625 
L 3713 1100 
L 3047 1100 
L 3047 0 
L 2419 0 
L 2419 1100 
L 313 1100 
L 313 1709 
L 2253 4666 
z
" transform="scale(0.015625)"/>
       </defs>
       <use xlink:href="#DejaVuSans-30"/>
       <use xlink:href="#DejaVuSans-2e" x="63.623047"/>
       <use xlink:href="#DejaVuSans-34" x="95.410156"/>
      </g>
     </g>
    </g>
    <g id="ytick_4">
     <g id="line2d_41">
      <path d="M 99 347.998731 
L 653.4 347.998731 
" clip-path="url(#p3b4b04000a)" style="fill: none; stroke: #ffffff; stroke-width: 1.4; stroke-linecap: square"/>
     </g>
     <g id="line2d_42">
      <g>
       <use xlink:href="#m983c0c7ff1" x="99" y="347.998731" style="fill: #7f7f7f; stroke: #7f7f7f; stroke-width: 1.4"/>
      </g>
     </g>
     <g id="text_12">
      <!-- 0.6 -->
      <g style="fill: #7f7f7f" transform="translate(73.91625 352.557793)scale(0.12 -0.12)">
       <defs>
        <path id="DejaVuSans-36" d="M 2113 2584 
Q 1688 2584 1439 2293 
Q 1191 2003 1191 1497 
Q 1191 994 1439 701 
Q 1688 409 2113 409 
Q 2538 409 2786 701 
Q 3034 994 3034 1497 
Q 3034 2003 2786 2293 
Q 2538 2584 2113 2584 
z
M 3366 4563 
L 3366 3988 
Q 3128 4100 2886 4159 
Q 2644 4219 2406 4219 
Q 1781 4219 1451 3797 
Q 1122 3375 1075 2522 
Q 1259 2794 1537 2939 
Q 1816 3084 2150 3084 
Q 2853 3084 3261 2657 
Q 3669 2231 3669 1497 
Q 3669 778 3244 343 
Q 2819 -91 2113 -91 
Q 1303 -91 875 529 
Q 447 1150 447 2328 
Q 447 3434 972 4092 
Q 1497 4750 2381 4750 
Q 2619 4750 2861 4703 
Q 3103 4656 3366 4563 
z
" transform="scale(0.015625)"/>
       </defs>
       <use xlink:href="#DejaVuSans-30"/>
       <use xlink:href="#DejaVuSans-2e" x="63.623047"/>
       <use xlink:href="#DejaVuSans-36" x="95.410156"/>
      </g>
     </g>
    </g>
    <g id="ytick_5">
     <g id="line2d_43">
      <path d="M 99 297.739394 
L 653.4 297.739394 
" clip-path="url(#p3b4b04000a)" style="fill: none; stroke: #ffffff; stroke-width: 1.4; stroke-linecap: square"/>
     </g>
     <g id="line2d_44">
      <g>
       <use xlink:href="#m983c0c7ff1" x="99" y="297.739394" style="fill: #7f7f7f; stroke: #7f7f7f; stroke-width: 1.4"/>
      </g>
     </g>
     <g id="text_13">
      <!-- 0.8 -->
      <g style="fill: #7f7f7f" transform="translate(73.91625 302.298457)scale(0.12 -0.12)">
       <use xlink:href="#DejaVuSans-30"/>
       <use xlink:href="#DejaVuSans-2e" x="63.623047"/>
       <use xlink:href="#DejaVuSans-38" x="95.410156"/>
      </g>
     </g>
    </g>
    <g id="ytick_6">
     <g id="line2d_45">
      <path d="M 99 247.480058 
L 653.4 247.480058 
" clip-path="url(#p3b4b04000a)" style="fill: none; stroke: #ffffff; stroke-width: 1.4; stroke-linecap: square"/>
     </g>
     <g id="line2d_46">
      <g>
       <use xlink:href="#m983c0c7ff1" x="99" y="247.480058" style="fill: #7f7f7f; stroke: #7f7f7f; stroke-width: 1.4"/>
      </g>
     </g>
     <g id="text_14">
      <!-- 1.0 -->
      <g style="fill: #7f7f7f" transform="translate(73.91625 252.03912)scale(0.12 -0.12)">
       <use xlink:href="#DejaVuSans-31"/>
       <use xlink:href="#DejaVuSans-2e" x="63.623047"/>
       <use xlink:href="#DejaVuSans-30" x="95.410156"/>
      </g>
     </g>
    </g>
    <g id="ytick_7">
     <g id="line2d_47">
      <path d="M 99 197.220721 
L 653.4 197.220721 
" clip-path="url(#p3b4b04000a)" style="fill: none; stroke: #ffffff; stroke-width: 1.4; stroke-linecap: square"/>
     </g>
     <g id="line2d_48">
      <g>
       <use xlink:href="#m983c0c7ff1" x="99" y="197.220721" style="fill: #7f7f7f; stroke: #7f7f7f; stroke-width: 1.4"/>
      </g>
     </g>
     <g id="text_15">
      <!-- 1.2 -->
      <g style="fill: #7f7f7f" transform="translate(73.91625 201.779783)scale(0.12 -0.12)">
       <use xlink:href="#DejaVuSans-31"/>
       <use xlink:href="#DejaVuSans-2e" x="63.623047"/>
       <use xlink:href="#DejaVuSans-32" x="95.410156"/>
      </g>
     </g>
    </g>
    <g id="ytick_8">
     <g id="line2d_49">
      <path d="M 99 146.961384 
L 653.4 146.961384 
" clip-path="url(#p3b4b04000a)" style="fill: none; stroke: #ffffff; stroke-width: 1.4; stroke-linecap: square"/>
     </g>
     <g id="line2d_50">
      <g>
       <use xlink:href="#m983c0c7ff1" x="99" y="146.961384" style="fill: #7f7f7f; stroke: #7f7f7f; stroke-width: 1.4"/>
      </g>
     </g>
     <g id="text_16">
      <!-- 1.4 -->
      <g style="fill: #7f7f7f" transform="translate(73.91625 151.520447)scale(0.12 -0.12)">
       <use xlink:href="#DejaVuSans-31"/>
       <use xlink:href="#DejaVuSans-2e" x="63.623047"/>
       <use xlink:href="#DejaVuSans-34" x="95.410156"/>
      </g>
     </g>
    </g>
    <g id="ytick_9">
     <g id="line2d_51">
      <path d="M 99 96.702048 
L 653.4 96.702048 
" clip-path="url(#p3b4b04000a)" style="fill: none; stroke: #ffffff; stroke-width: 1.4; stroke-linecap: square"/>
     </g>
     <g id="line2d_52">
      <g>
       <use xlink:href="#m983c0c7ff1" x="99" y="96.702048" style="fill: #7f7f7f; stroke: #7f7f7f; stroke-width: 1.4"/>
      </g>
     </g>
     <g id="text_17">
      <!-- 1.6 -->
      <g style="fill: #7f7f7f" transform="translate(73.91625 101.26111)scale(0.12 -0.12)">
       <use xlink:href="#DejaVuSans-31"/>
       <use xlink:href="#DejaVuSans-2e" x="63.623047"/>
       <use xlink:href="#DejaVuSans-36" x="95.410156"/>
      </g>
     </g>
    </g>
    <g id="ytick_10">
     <g id="line2d_53">
      <path d="M 99 473.647073 
L 653.4 473.647073 
" clip-path="url(#p3b4b04000a)" style="fill: none; stroke: #f2f2f2; stroke-width: 0.7; stroke-linecap: square"/>
     </g>
     <g id="line2d_54"/>
    </g>
    <g id="ytick_11">
     <g id="line2d_55">
      <path d="M 99 423.387736 
L 653.4 423.387736 
" clip-path="url(#p3b4b04000a)" style="fill: none; stroke: #f2f2f2; stroke-width: 0.7; stroke-linecap: square"/>
     </g>
     <g id="line2d_56"/>
    </g>
    <g id="ytick_12">
     <g id="line2d_57">
      <path d="M 99 373.128399 
L 653.4 373.128399 
" clip-path="url(#p3b4b04000a)" style="fill: none; stroke: #f2f2f2; stroke-width: 0.7; stroke-linecap: square"/>
     </g>
     <g id="line2d_58"/>
    </g>
    <g id="ytick_13">
     <g id="line2d_59">
      <path d="M 99 322.869063 
L 653.4 322.869063 
" clip-path="url(#p3b4b04000a)" style="fill: none; stroke: #f2f2f2; stroke-width: 0.7; stroke-linecap: square"/>
     </g>
     <g id="line2d_60"/>
    </g>
    <g id="ytick_14">
     <g id="line2d_61">
      <path d="M 99 272.609726 
L 653.4 272.609726 
" clip-path="url(#p3b4b04000a)" style="fill: none; stroke: #f2f2f2; stroke-width: 0.7; stroke-linecap: square"/>
     </g>
     <g id="line2d_62"/>
    </g>
    <g id="ytick_15">
     <g id="line2d_63">
      <path d="M 99 222.350389 
L 653.4 222.350389 
" clip-path="url(#p3b4b04000a)" style="fill: none; stroke: #f2f2f2; stroke-width: 0.7; stroke-linecap: square"/>
     </g>
     <g id="line2d_64"/>
    </g>
    <g id="ytick_16">
     <g id="line2d_65">
      <path d="M 99 172.091053 
L 653.4 172.091053 
" clip-path="url(#p3b4b04000a)" style="fill: none; stroke: #f2f2f2; stroke-width: 0.7; stroke-linecap: square"/>
     </g>
     <g id="line2d_66"/>
    </g>
    <g id="ytick_17">
     <g id="line2d_67">
      <path d="M 99 121.831716 
L 653.4 121.831716 
" clip-path="url(#p3b4b04000a)" style="fill: none; stroke: #f2f2f2; stroke-width: 0.7; stroke-linecap: square"/>
     </g>
     <g id="line2d_68"/>
    </g>
    <g id="ytick_18">
     <g id="line2d_69">
      <path d="M 99 71.572379 
L 653.4 71.572379 
" clip-path="url(#p3b4b04000a)" style="fill: none; stroke: #f2f2f2; stroke-width: 0.7; stroke-linecap: square"/>
     </g>
     <g id="line2d_70"/>
    </g>
    <g id="text_18">
     <!-- 1e6 -->
     <g style="fill: #7f7f7f" transform="translate(99 66.12)scale(0.12 -0.12)">
      <defs>
       <path id="DejaVuSans-65" d="M 3597 1894 
L 3597 1613 
L 953 1613 
Q 991 1019 1311 708 
Q 1631 397 2203 397 
Q 2534 397 2845 478 
Q 3156 559 3463 722 
L 3463 178 
Q 3153 47 2828 -22 
Q 2503 -91 2169 -91 
Q 1331 -91 842 396 
Q 353 884 353 1716 
Q 353 2575 817 3079 
Q 1281 3584 2069 3584 
Q 2775 3584 3186 3129 
Q 3597 2675 3597 1894 
z
M 3022 2063 
Q 3016 2534 2758 2815 
Q 2500 3097 2075 3097 
Q 1594 3097 1305 2825 
Q 1016 2553 972 2059 
L 3022 2063 
z
" transform="scale(0.015625)"/>
      </defs>
      <use xlink:href="#DejaVuSans-31"/>
      <use xlink:href="#DejaVuSans-65" x="63.623047"/>
      <use xlink:href="#DejaVuSans-36" x="125.146484"/>
     </g>
    </g>
   </g>
   <g id="line2d_71">
    <path d="M 124.2 477.107931 
L 147.461538 481.060827 
L 150.046154 481.668965 
L 173.307692 484.41212 
L 175.892308 484.418402 
L 225 487.017061 
L 230.169231 487.230664 
L 250.846154 488.479608 
L 256.015385 488.572588 
L 284.446154 489.388297 
L 302.538462 489.729055 
L 307.707692 489.703926 
L 343.892308 490.113037 
L 367.153846 490.243711 
L 369.738462 490.119068 
L 403.338462 490.2319 
L 449.861538 490.288693 
L 462.784615 490.035888 
L 488.630769 488.715324 
L 504.138462 488.479608 
L 517.061538 488.413266 
L 524.815385 488.318778 
L 540.323077 487.213575 
L 548.076923 486.08274 
L 550.661538 486.124204 
L 561 485.392428 
L 563.584615 485.052927 
L 602.353846 483.583286 
L 628.2 482.97076 
L 628.2 482.97076 
" clip-path="url(#p3b4b04000a)" style="fill: none; stroke: #f7746a; stroke-linecap: square"/>
   </g>
   <g id="line2d_72">
    <path d="M 124.2 437.671942 
L 147.461538 453.450861 
L 150.046154 455.033276 
L 173.307692 460.035588 
L 175.892308 460.100674 
L 199.153846 462.881523 
L 201.738462 463.410502 
L 227.584615 466.239852 
L 250.846154 470.624979 
L 253.430769 470.65237 
L 276.692308 474.131321 
L 281.861538 474.467556 
L 302.538462 476.085404 
L 305.123077 475.865268 
L 356.815385 478.981599 
L 367.153846 479.720913 
L 369.738462 479.509824 
L 395.584615 481.096763 
L 411.092308 482.260266 
L 418.846154 482.750798 
L 421.430769 483.261684 
L 431.769231 484.164844 
L 434.353846 484.554856 
L 452.446154 485.285627 
L 457.615385 485.370063 
L 460.2 485.554012 
L 491.215385 485.193904 
L 498.969231 485.215515 
L 509.307692 485.328599 
L 511.892308 485.509281 
L 527.4 485.315783 
L 540.323077 484.566919 
L 548.076923 482.537447 
L 550.661538 482.692999 
L 561 481.045498 
L 563.584615 480.386096 
L 576.507692 479.633965 
L 579.092308 481.728244 
L 592.015385 481.302985 
L 615.276923 480.81394 
L 628.2 480.588509 
L 628.2 480.588509 
" clip-path="url(#p3b4b04000a)" style="fill: none; stroke: #f07c32; stroke-linecap: square"/>
   </g>
   <g id="line2d_73">
    <path d="M 124.2 426.806879 
L 147.461538 442.095266 
L 150.046154 445.391274 
L 173.307692 456.574479 
L 178.476923 457.454771 
L 201.738462 461.619008 
L 225 463.438899 
L 227.584615 463.229066 
L 250.846154 467.324699 
L 253.430769 467.494576 
L 276.692308 470.388509 
L 281.861538 470.778772 
L 302.538462 472.6253 
L 305.123077 472.583585 
L 341.307692 475.099065 
L 343.892308 474.887473 
L 367.153846 476.276641 
L 369.738462 476.190446 
L 395.584615 477.40044 
L 416.261538 478.805942 
L 418.846154 478.961746 
L 421.430769 479.382668 
L 431.769231 479.989801 
L 434.353846 480.255673 
L 452.446154 480.065944 
L 457.615385 479.849829 
L 460.2 479.927479 
L 488.630769 476.547288 
L 496.384615 475.874818 
L 504.138462 475.798172 
L 509.307692 475.774048 
L 511.892308 475.929349 
L 524.815385 475.153345 
L 537.738462 473.060546 
L 540.323077 472.823573 
L 548.076923 471.001672 
L 550.661538 470.895374 
L 561 469.990706 
L 563.584615 469.325775 
L 573.923077 469.130266 
L 576.507692 468.918423 
L 579.092308 471.520204 
L 592.015385 470.697658 
L 607.523077 469.981137 
L 628.2 469.23499 
L 628.2 469.23499 
" clip-path="url(#p3b4b04000a)" style="fill: none; stroke: #d78b32; stroke-linecap: square"/>
   </g>
   <g id="line2d_74">
    <path d="M 124.2 284.13972 
L 150.046154 335.607794 
L 173.307692 360.92895 
L 175.892308 361.865785 
L 199.153846 368.274353 
L 225 374.016984 
L 227.584615 374.232346 
L 250.846154 388.308981 
L 253.430769 388.600233 
L 276.692308 395.896381 
L 279.276923 397.099339 
L 302.538462 400.594373 
L 305.123077 400.242306 
L 341.307692 405.886932 
L 343.892308 406.865733 
L 367.153846 409.678748 
L 369.738462 409.325927 
L 393 411.03575 
L 395.584615 412.414112 
L 405.923077 413.274552 
L 408.507692 413.013204 
L 418.846154 413.700249 
L 421.430769 414.174446 
L 434.353846 415.737511 
L 444.692308 414.1463 
L 449.861538 412.767184 
L 460.2 410.098413 
L 478.292308 400.918546 
L 480.876923 399.233601 
L 486.046154 397.638621 
L 496.384615 395.150784 
L 498.969231 395.057804 
L 509.307692 395.234215 
L 511.892308 395.652372 
L 522.230769 393.438951 
L 524.815385 393.103973 
L 537.738462 387.165832 
L 540.323077 386.238799 
L 548.076923 380.471037 
L 550.661538 377.828904 
L 561 371.13235 
L 563.584615 368.345721 
L 573.923077 363.840474 
L 576.507692 362.355813 
L 579.092308 365.676347 
L 584.261538 363.0028 
L 589.430769 360.635161 
L 594.6 358.497338 
L 602.353846 355.609597 
L 610.107692 353.012731 
L 620.446154 349.828434 
L 628.2 347.544658 
L 628.2 347.544658 
" clip-path="url(#p3b4b04000a)" style="fill: none; stroke: #c49432; stroke-linecap: square"/>
   </g>
   <g id="line2d_75">
    <path d="M 124.2 424.280342 
L 147.461538 433.413971 
L 150.046154 434.656382 
L 193.984615 442.380488 
L 199.153846 443.311794 
L 201.738462 443.910131 
L 225 447.026712 
L 227.584615 447.000829 
L 250.846154 452.070488 
L 253.430769 452.127281 
L 276.692308 455.239339 
L 279.276923 455.120979 
L 302.538462 456.644842 
L 305.123077 456.423952 
L 341.307692 460.881452 
L 343.892308 460.451986 
L 367.153846 463.176042 
L 369.738462 463.01471 
L 393 464.072669 
L 395.584615 464.520731 
L 408.507692 465.723688 
L 418.846154 467.400842 
L 421.430769 468.103719 
L 434.353846 470.168624 
L 444.692308 471.133101 
L 447.276923 471.498737 
L 460.2 471.550253 
L 478.292308 468.739248 
L 480.876923 468.133372 
L 483.461538 467.671489 
L 488.630769 467.074659 
L 496.384615 466.288101 
L 498.969231 466.192608 
L 509.307692 466.37706 
L 511.892308 466.581364 
L 522.230769 466.109429 
L 524.815385 466.10968 
L 537.738462 464.398852 
L 540.323077 464.2046 
L 548.076923 462.165076 
L 550.661538 461.769786 
L 561 459.135192 
L 563.584615 458.283547 
L 573.923077 458.887162 
L 576.507692 458.772319 
L 579.092308 457.072973 
L 586.846154 456.003767 
L 599.769231 454.518737 
L 620.446154 452.424407 
L 628.2 451.654064 
L 628.2 451.654064 
" clip-path="url(#p3b4b04000a)" style="fill: none; stroke: #b49b32; stroke-linecap: square"/>
   </g>
   <g id="line2d_76">
    <path d="M 124.2 405.100122 
L 150.046154 396.964644 
L 173.307692 396.532413 
L 175.892308 395.681774 
L 199.153846 396.434156 
L 201.738462 396.935744 
L 225 395.119372 
L 227.584615 393.506047 
L 250.846154 393.218061 
L 253.430769 393.429151 
L 292.2 382.522372 
L 305.123077 378.858969 
L 341.307692 371.435162 
L 343.892308 371.707568 
L 367.153846 352.181313 
L 369.738462 351.284435 
L 393 335.832705 
L 395.584615 338.90355 
L 405.923077 329.693024 
L 408.507692 324.622611 
L 418.846154 320.900404 
L 421.430769 321.416316 
L 431.769231 318.531933 
L 434.353846 318.262292 
L 444.692308 303.777048 
L 447.276923 298.984067 
L 457.615385 288.186351 
L 460.2 284.616933 
L 478.292308 256.309869 
L 480.876923 251.580466 
L 483.461538 249.006685 
L 486.046154 246.684955 
L 496.384615 243.328636 
L 498.969231 242.089995 
L 509.307692 240.601816 
L 511.892308 241.121246 
L 524.815385 232.838508 
L 537.738462 220.504866 
L 540.323077 216.615548 
L 548.076923 215.179136 
L 550.661538 200.44335 
L 561 185.42787 
L 563.584615 178.858724 
L 573.923077 163.391413 
L 576.507692 160.189893 
L 579.092308 158.464699 
L 586.846154 145.122144 
L 592.015385 136.738133 
L 597.184615 128.850097 
L 602.353846 121.448447 
L 607.523077 114.495863 
L 612.692308 107.899493 
L 620.446154 98.511342 
L 628.2 89.28 
L 628.2 89.28 
" clip-path="url(#p3b4b04000a)" style="fill: none; stroke: #a3a031; stroke-linecap: square"/>
   </g>
   <g id="line2d_77">
    <path d="M 124.2 388.156444 
L 147.461538 413.525849 
L 150.046154 417.938619 
L 173.307692 430.209938 
L 175.892308 430.55522 
L 201.738462 436.34007 
L 225 438.405728 
L 227.584615 437.961687 
L 250.846154 444.732122 
L 253.430769 444.820328 
L 276.692308 450.159377 
L 279.276923 450.389816 
L 302.538462 453.4682 
L 305.123077 452.984454 
L 341.307692 456.238244 
L 343.892308 456.215627 
L 367.153846 457.055963 
L 369.738462 456.509141 
L 393 457.080088 
L 398.169231 457.534181 
L 408.507692 458.518007 
L 418.846154 459.215104 
L 421.430769 459.686788 
L 431.769231 460.666342 
L 434.353846 461.110635 
L 444.692308 461.211154 
L 447.276923 461.499391 
L 457.615385 461.203363 
L 460.2 461.277496 
L 478.292308 456.911467 
L 480.876923 456.599608 
L 483.461538 456.002025 
L 496.384615 453.844894 
L 498.969231 453.907216 
L 509.307692 453.331746 
L 511.892308 453.451866 
L 522.230769 451.455565 
L 524.815385 451.318357 
L 537.738462 446.968914 
L 540.323077 446.236384 
L 548.076923 441.8015 
L 550.661538 440.558838 
L 561 437.229157 
L 563.584615 435.788473 
L 573.923077 434.620446 
L 576.507692 433.927621 
L 579.092308 439.074197 
L 586.846154 437.595565 
L 594.6 436.340902 
L 604.938462 434.920477 
L 617.861538 433.429219 
L 628.2 432.344247 
L 628.2 432.344247 
" clip-path="url(#p3b4b04000a)" style="fill: none; stroke: #90a531; stroke-linecap: square"/>
   </g>
   <g id="line2d_78">
    <path d="M 124.2 424.925672 
L 147.461538 436.157126 
L 150.046154 438.904301 
L 173.307692 447.924847 
L 191.4 449.008438 
L 199.153846 449.480373 
L 206.907692 449.259232 
L 225 448.851629 
L 227.584615 448.256307 
L 250.846154 453.554144 
L 253.430769 453.760458 
L 279.276923 457.130347 
L 312.876923 459.240988 
L 341.307692 461.419227 
L 343.892308 461.290563 
L 367.153846 463.994516 
L 369.738462 463.636921 
L 393 464.790875 
L 405.923077 466.594934 
L 408.507692 466.951524 
L 418.846154 467.767735 
L 424.015385 468.350744 
L 431.769231 469.100613 
L 434.353846 469.511232 
L 444.692308 470.118365 
L 447.276923 470.434245 
L 457.615385 470.331213 
L 460.2 470.437511 
L 483.461538 468.253743 
L 486.046154 467.925047 
L 496.384615 467.286754 
L 498.969231 467.575996 
L 509.307692 467.939874 
L 511.892308 468.145183 
L 522.230769 467.193774 
L 524.815385 467.08069 
L 537.738462 465.562356 
L 540.323077 465.473145 
L 548.076923 463.707032 
L 550.661538 463.636669 
L 561 462.837546 
L 563.584615 462.212571 
L 573.923077 462.041689 
L 576.507692 461.658462 
L 579.092308 457.90729 
L 586.846154 456.948722 
L 597.184615 455.967906 
L 610.107692 455.029211 
L 628.2 453.994479 
L 628.2 453.994479 
" clip-path="url(#p3b4b04000a)" style="fill: none; stroke: #77ab31; stroke-linecap: square"/>
   </g>
   <g id="line2d_79">
    <path d="M 124.2 470.006286 
L 150.046154 474.721869 
L 173.307692 477.078529 
L 175.892308 475.922313 
L 199.153846 477.423559 
L 201.738462 477.76482 
L 225 479.377642 
L 227.584615 479.727447 
L 250.846154 481.22216 
L 253.430769 481.134206 
L 276.692308 482.46256 
L 279.276923 482.802816 
L 302.538462 482.766629 
L 305.123077 482.033597 
L 341.307692 483.395122 
L 343.892308 484.194497 
L 369.738462 484.228673 
L 393 482.937008 
L 395.584615 482.480402 
L 405.923077 481.965747 
L 408.507692 482.081343 
L 418.846154 481.770741 
L 421.430769 482.21252 
L 431.769231 482.411547 
L 434.353846 482.588209 
L 444.692308 482.096672 
L 447.276923 482.089636 
L 457.615385 480.834158 
L 460.2 480.68916 
L 478.292308 475.490836 
L 480.876923 474.354473 
L 486.046154 472.611228 
L 496.384615 469.977638 
L 506.723077 468.435431 
L 509.307692 468.058988 
L 511.892308 467.953695 
L 522.230769 465.326137 
L 524.815385 464.853699 
L 537.738462 458.89646 
L 540.323077 457.578158 
L 548.076923 452.685411 
L 550.661538 451.951373 
L 561 447.742657 
L 563.584615 445.926033 
L 576.507692 442.862224 
L 579.092308 446.017934 
L 589.430769 442.569486 
L 604.938462 437.420128 
L 623.030769 431.390759 
L 628.2 429.607717 
L 628.2 429.607717 
" clip-path="url(#p3b4b04000a)" style="fill: none; stroke: #43b231; stroke-linecap: square"/>
   </g>
   <g id="line2d_80">
    <path d="M 124.2 447.909266 
L 147.461538 457.4314 
L 150.046154 458.883895 
L 173.307692 467.052042 
L 181.061538 468.269072 
L 201.738462 471.290161 
L 225 473.938326 
L 227.584615 473.764931 
L 250.846154 476.826227 
L 253.430769 476.848341 
L 276.692308 478.987881 
L 279.276923 478.884347 
L 302.538462 480.08454 
L 305.123077 479.939039 
L 341.307692 481.114102 
L 343.892308 480.937189 
L 367.153846 481.742847 
L 369.738462 481.53427 
L 400.753846 482.152963 
L 431.769231 482.971436 
L 434.353846 483.279777 
L 444.692308 483.41799 
L 447.276923 483.58259 
L 460.2 483.32878 
L 486.046154 480.983428 
L 496.384615 480.40042 
L 511.892308 480.27251 
L 527.4 479.626929 
L 540.323077 478.587817 
L 548.076923 476.905134 
L 550.661538 476.773706 
L 561 475.356393 
L 563.584615 474.798263 
L 576.507692 473.840069 
L 579.092308 474.349353 
L 589.430769 473.789619 
L 604.938462 473.243344 
L 623.030769 472.849599 
L 628.2 472.766397 
L 628.2 472.766397 
" clip-path="url(#p3b4b04000a)" style="fill: none; stroke: #33b169; stroke-linecap: square"/>
   </g>
   <g id="line2d_81">
    <path d="M 124.2 460.094643 
L 147.461538 469.783637 
L 150.046154 470.715948 
L 175.892308 475.996697 
L 201.738462 478.730553 
L 225 480.388609 
L 227.584615 480.400922 
L 250.846154 482.459545 
L 253.430769 482.471858 
L 276.692308 484.276671 
L 292.2 484.801881 
L 302.538462 485.164754 
L 305.123077 485.048654 
L 364.569231 486.380778 
L 367.153846 486.450136 
L 369.738462 486.184515 
L 395.584615 486.28805 
L 416.261538 486.734101 
L 418.846154 486.776319 
L 424.015385 487.021836 
L 431.769231 487.255542 
L 434.353846 487.451051 
L 452.446154 487.473667 
L 462.784615 487.259563 
L 496.384615 485.372827 
L 509.307692 485.524862 
L 511.892308 485.630406 
L 524.815385 485.471838 
L 540.323077 484.00703 
L 548.076923 481.833816 
L 550.661538 481.925037 
L 561 479.44122 
L 563.584615 478.532531 
L 576.507692 477.492666 
L 579.092308 479.488206 
L 592.015385 478.284832 
L 615.276923 476.406969 
L 628.2 475.414483 
L 628.2 475.414483 
" clip-path="url(#p3b4b04000a)" style="fill: none; stroke: #34af84; stroke-linecap: square"/>
   </g>
   <g id="line2d_82">
    <path d="M 124.2 459.75112 
L 147.461538 469.706992 
L 150.046154 470.657396 
L 183.646154 473.110303 
L 199.153846 474.420061 
L 201.738462 474.762327 
L 227.584615 476.066557 
L 250.846154 478.907215 
L 253.430769 479.020298 
L 281.861538 481.523465 
L 302.538462 482.899063 
L 305.123077 482.798795 
L 341.307692 484.751873 
L 343.892308 484.727497 
L 367.153846 486.125209 
L 369.738462 485.983729 
L 403.338462 488.081303 
L 418.846154 489.130718 
L 421.430769 489.464691 
L 449.861538 491.198638 
L 462.784615 491.658009 
L 496.384615 491.870857 
L 504.138462 492.130195 
L 517.061538 492.435772 
L 529.984615 492.402601 
L 540.323077 492.293538 
L 548.076923 491.378315 
L 550.661538 491.501702 
L 566.169231 490.794051 
L 576.507692 490.72419 
L 581.676923 490.626674 
L 602.353846 490.618318 
L 628.2 490.743696 
L 628.2 490.743696 
" clip-path="url(#p3b4b04000a)" style="fill: none; stroke: #35ae95; stroke-linecap: square"/>
   </g>
   <g id="line2d_83">
    <path d="M 124.2 415.841548 
L 147.461538 430.898743 
L 150.046154 432.903839 
L 173.307692 443.388942 
L 175.892308 444.175752 
L 201.738462 450.543861 
L 225 453.48554 
L 227.584615 453.384518 
L 250.846154 458.820066 
L 253.430769 458.842682 
L 276.692308 461.856735 
L 281.861538 462.204027 
L 302.538462 463.330339 
L 305.123077 462.823976 
L 341.307692 463.607016 
L 343.892308 463.509011 
L 367.153846 463.701504 
L 369.738462 463.30546 
L 393 462.503321 
L 395.584615 462.952137 
L 405.923077 463.343155 
L 408.507692 463.283849 
L 418.846154 463.802525 
L 421.430769 464.127703 
L 434.353846 465.269093 
L 449.861538 464.11363 
L 460.2 463.47986 
L 486.046154 458.151868 
L 496.384615 457.4216 
L 501.553846 457.524129 
L 509.307692 457.831716 
L 511.892308 458.077735 
L 524.815385 457.302234 
L 540.323077 454.723427 
L 548.076923 452.836189 
L 561 451.263826 
L 563.584615 450.575775 
L 576.507692 449.799269 
L 579.092308 446.982808 
L 589.430769 445.143233 
L 599.769231 443.55637 
L 615.276923 441.461192 
L 628.2 439.822194 
L 628.2 439.822194 
" clip-path="url(#p3b4b04000a)" style="fill: none; stroke: #36ada2; stroke-linecap: square"/>
   </g>
   <g id="line2d_84">
    <path d="M 124.2 469.754236 
L 150.046154 478.082962 
L 173.307692 480.642167 
L 178.476923 480.944728 
L 201.738462 482.567854 
L 227.584615 483.445382 
L 256.015385 485.703031 
L 279.276923 487.048222 
L 302.538462 487.814677 
L 305.123077 487.76492 
L 367.153846 489.372968 
L 369.738462 489.265915 
L 403.338462 489.895916 
L 424.015385 490.590752 
L 452.446154 491.569301 
L 460.2 491.67761 
L 483.461538 490.995339 
L 496.384615 490.775957 
L 509.307692 491.099125 
L 514.476923 491.169488 
L 529.984615 491.099627 
L 540.323077 490.969456 
L 548.076923 490.102985 
L 550.661538 490.134397 
L 561 489.300092 
L 563.584615 488.97617 
L 576.507692 488.505492 
L 579.092308 488.092656 
L 597.184615 487.44964 
L 625.615385 486.70368 
L 628.2 486.642996 
L 628.2 486.642996 
" clip-path="url(#p3b4b04000a)" style="fill: none; stroke: #36acae; stroke-linecap: square"/>
   </g>
   <g id="line2d_85">
    <path d="M 124.2 466.550454 
L 147.461538 471.317552 
L 155.215385 472.619772 
L 173.307692 475.762488 
L 181.061538 476.331173 
L 212.076923 478.32496 
L 240.507692 480.235067 
L 250.846154 481.019112 
L 253.430769 480.925127 
L 281.861538 482.320829 
L 302.538462 482.996314 
L 305.123077 482.777938 
L 349.061538 482.958369 
L 367.153846 482.775425 
L 372.323077 482.544232 
L 393 482.027566 
L 395.584615 482.142408 
L 416.261538 481.338008 
L 418.846154 481.285738 
L 429.184615 481.586037 
L 431.769231 481.651877 
L 434.353846 481.844873 
L 447.276923 481.306847 
L 460.2 479.941803 
L 483.461538 476.801097 
L 488.630769 476.343486 
L 496.384615 475.773545 
L 501.553846 475.74339 
L 514.476923 475.915779 
L 524.815385 475.615731 
L 542.907692 472.686868 
L 548.076923 471.680676 
L 550.661538 470.815713 
L 561 468.633453 
L 563.584615 467.893132 
L 576.507692 466.388619 
L 579.092308 458.90065 
L 628.2 448.821931 
L 628.2 448.821931 
" clip-path="url(#p3b4b04000a)" style="fill: none; stroke: #37aaba; stroke-linecap: square"/>
   </g>
   <g id="line2d_86">
    <path d="M 124.2 401.050728 
L 147.461538 425.229992 
L 150.046154 429.796053 
L 173.307692 435.258237 
L 175.892308 434.747351 
L 199.153846 436.560206 
L 201.738462 436.950218 
L 225 436.661729 
L 227.584615 437.155779 
L 250.846154 443.604052 
L 253.430769 443.734223 
L 279.276923 448.726986 
L 302.538462 451.336953 
L 305.123077 450.483298 
L 351.646154 456.552867 
L 367.153846 458.897968 
L 369.738462 458.230272 
L 393 460.532653 
L 395.584615 461.554676 
L 405.923077 463.374064 
L 408.507692 463.126034 
L 426.6 466.283577 
L 439.523077 468.542232 
L 449.861538 470.001009 
L 457.615385 470.783547 
L 460.2 471.253472 
L 480.876923 470.124144 
L 496.384615 469.665025 
L 509.307692 470.52446 
L 511.892308 470.954931 
L 524.815385 470.75113 
L 540.323077 469.262951 
L 548.076923 467.627512 
L 550.661538 467.656411 
L 561 466.537136 
L 563.584615 465.947845 
L 573.923077 466.09812 
L 576.507692 465.980765 
L 579.092308 461.348105 
L 589.430769 460.637112 
L 599.769231 460.170495 
L 612.692308 459.819447 
L 628.2 459.58025 
L 628.2 459.58025 
" clip-path="url(#p3b4b04000a)" style="fill: none; stroke: #38a8c9; stroke-linecap: square"/>
   </g>
   <g id="line2d_87">
    <path d="M 124.2 452.581374 
L 150.046154 463.407235 
L 175.892308 471.040372 
L 201.738462 474.763333 
L 230.169231 477.067472 
L 256.015385 479.682968 
L 276.692308 481.702388 
L 287.030769 482.053701 
L 302.538462 482.531164 
L 305.123077 482.419589 
L 367.153846 483.397635 
L 372.323077 483.226754 
L 398.169231 482.12532 
L 413.676923 481.990876 
L 418.846154 481.87528 
L 424.015385 482.064004 
L 436.938462 482.296202 
L 449.861538 481.626999 
L 460.2 480.751481 
L 478.292308 476.679972 
L 483.461538 475.364685 
L 486.046154 474.798263 
L 496.384615 472.993953 
L 498.969231 472.67179 
L 509.307692 472.217948 
L 511.892308 472.297609 
L 524.815385 471.201453 
L 537.738462 466.225779 
L 540.323077 465.101729 
L 548.076923 458.927872 
L 550.661538 457.857851 
L 561 454.135142 
L 563.584615 452.504226 
L 573.923077 450.548133 
L 576.507692 449.762831 
L 579.092308 455.56996 
L 617.861538 447.149095 
L 628.2 444.947881 
L 628.2 444.947881 
" clip-path="url(#p3b4b04000a)" style="fill: none; stroke: #3aa6dd; stroke-linecap: square"/>
   </g>
   <g id="line2d_88">
    <path d="M 124.2 448.406331 
L 150.046154 463.137091 
L 173.307692 466.96233 
L 175.892308 466.992234 
L 201.738462 469.885413 
L 225 472.752205 
L 227.584615 472.956509 
L 250.846154 477.114464 
L 253.430769 477.113459 
L 279.276923 480.027244 
L 302.538462 480.932415 
L 305.123077 480.820336 
L 341.307692 482.523123 
L 343.892308 482.409537 
L 367.153846 483.576056 
L 369.738462 483.375019 
L 418.846154 485.45475 
L 434.353846 486.943683 
L 449.861538 487.251773 
L 462.784615 487.032139 
L 491.215385 485.747511 
L 496.384615 485.582157 
L 509.307692 485.716601 
L 511.892308 485.88698 
L 532.569231 485.723637 
L 540.323077 485.560295 
L 548.076923 484.506356 
L 550.661538 484.704881 
L 561 483.958027 
L 563.584615 483.577564 
L 576.507692 483.350643 
L 579.092308 483.448098 
L 594.6 482.91363 
L 623.030769 482.22726 
L 628.2 482.112268 
L 628.2 482.112268 
" clip-path="url(#p3b4b04000a)" style="fill: none; stroke: #569ff4; stroke-linecap: square"/>
   </g>
   <g id="line2d_89">
    <path d="M 124.2 461.872064 
L 150.046154 470.612414 
L 173.307692 476.159034 
L 175.892308 476.149234 
L 201.738462 479.703323 
L 225 480.539135 
L 227.584615 480.469275 
L 250.846154 482.260518 
L 256.015385 482.435169 
L 289.615385 484.073121 
L 302.538462 484.599336 
L 305.123077 484.495048 
L 367.153846 486.136518 
L 369.738462 485.883211 
L 393 485.602261 
L 395.584615 485.285627 
L 405.923077 485.340913 
L 408.507692 485.572608 
L 418.846154 485.516318 
L 421.430769 485.716852 
L 460.2 485.752285 
L 486.046154 484.123129 
L 496.384615 483.723567 
L 509.307692 483.907265 
L 511.892308 484.077393 
L 527.4 483.722813 
L 540.323077 482.77844 
L 548.076923 481.097768 
L 550.661538 480.967848 
L 561 479.965676 
L 563.584615 479.505552 
L 573.923077 479.341707 
L 576.507692 479.1854 
L 579.092308 477.372617 
L 592.015385 475.960074 
L 612.692308 473.958523 
L 628.2 472.517265 
L 628.2 472.517265 
" clip-path="url(#p3b4b04000a)" style="fill: none; stroke: #8b94f4; stroke-linecap: square"/>
   </g>
   <g id="line2d_90">
    <path d="M 124.2 435.050164 
L 147.461538 452.939975 
L 150.046154 455.192849 
L 173.307692 459.532743 
L 175.892308 459.254809 
L 199.153846 462.606102 
L 201.738462 463.426837 
L 227.584615 465.482443 
L 250.846154 469.750969 
L 271.523077 472.083756 
L 276.692308 472.670785 
L 279.276923 473.197 
L 302.538462 475.514961 
L 305.123077 475.16591 
L 351.646154 478.385523 
L 367.153846 479.596773 
L 369.738462 479.284662 
L 398.169231 480.775354 
L 416.261538 482.219305 
L 418.846154 482.404762 
L 421.430769 482.766629 
L 431.769231 483.527556 
L 434.353846 483.895705 
L 457.615385 485.137865 
L 460.2 485.327594 
L 496.384615 484.92954 
L 514.476923 485.727658 
L 527.4 485.639704 
L 540.323077 485.263513 
L 548.076923 483.760759 
L 550.661538 484.008538 
L 561 483.134025 
L 563.584615 482.677419 
L 581.676923 482.561027 
L 594.6 482.437216 
L 612.692308 482.495878 
L 628.2 482.656629 
L 628.2 482.656629 
" clip-path="url(#p3b4b04000a)" style="fill: none; stroke: #ae88f4; stroke-linecap: square"/>
   </g>
   <g id="line2d_91">
    <path d="M 124.2 453.320689 
L 147.461538 464.94115 
L 150.046154 466.481348 
L 173.307692 467.715717 
L 175.892308 467.403607 
L 199.153846 469.392871 
L 201.738462 469.753733 
L 227.584615 470.73756 
L 250.846154 473.945111 
L 253.430769 474.146399 
L 279.276923 477.646962 
L 302.538462 479.117048 
L 305.123077 478.912995 
L 341.307692 480.912814 
L 343.892308 480.837173 
L 367.153846 482.034351 
L 369.738462 481.827534 
L 393 482.767383 
L 395.584615 483.10211 
L 411.092308 483.729849 
L 418.846154 484.207816 
L 421.430769 484.490525 
L 442.107692 485.620606 
L 455.030769 486.054344 
L 460.2 486.1428 
L 478.292308 485.080318 
L 483.461538 484.931299 
L 491.215385 484.721717 
L 496.384615 484.607126 
L 504.138462 484.763935 
L 509.307692 484.835304 
L 511.892308 485.01674 
L 529.984615 484.521937 
L 545.492308 483.9432 
L 548.076923 483.839164 
L 550.661538 483.474281 
L 563.584615 482.343697 
L 576.507692 482.308013 
L 579.092308 481.353828 
L 592.015385 480.767917 
L 615.276923 479.978308 
L 628.2 479.578498 
L 628.2 479.578498 
" clip-path="url(#p3b4b04000a)" style="fill: none; stroke: #cd79f4; stroke-linecap: square"/>
   </g>
   <g id="line2d_92">
    <path d="M 124.2 389.323717 
L 147.461538 410.746256 
L 150.046154 415.455054 
L 173.307692 435.773898 
L 175.892308 436.177229 
L 201.738462 444.317483 
L 225 448.550324 
L 227.584615 448.614907 
L 250.846154 455.163196 
L 253.430769 455.255171 
L 276.692308 458.66979 
L 279.276923 458.510971 
L 302.538462 460.765605 
L 305.123077 460.470834 
L 346.476923 463.474834 
L 367.153846 464.549379 
L 369.738462 464.139263 
L 393 464.330751 
L 398.169231 464.754688 
L 408.507692 465.275626 
L 418.846154 465.850593 
L 421.430769 466.255181 
L 431.769231 467.194528 
L 434.353846 467.660683 
L 452.446154 467.784824 
L 457.615385 467.655155 
L 460.2 467.725266 
L 478.292308 465.604825 
L 480.876923 465.168071 
L 486.046154 464.7861 
L 496.384615 464.330751 
L 504.138462 464.75494 
L 509.307692 465.064537 
L 511.892308 465.411578 
L 524.815385 465.219838 
L 540.323077 463.562285 
L 548.076923 461.093547 
L 550.661538 461.272219 
L 561 459.758408 
L 563.584615 458.882387 
L 573.923077 458.848714 
L 576.507692 458.681601 
L 579.092308 458.090163 
L 589.430769 457.078636 
L 599.769231 456.286099 
L 615.276923 455.350932 
L 628.2 454.680323 
L 628.2 454.680323 
" clip-path="url(#p3b4b04000a)" style="fill: none; stroke: #ed62f4; stroke-linecap: square"/>
   </g>
   <g id="line2d_93">
    <path d="M 124.2 449.475599 
L 147.461538 456.500849 
L 150.046154 457.55529 
L 173.307692 464.403124 
L 175.892308 465.039659 
L 199.153846 467.622486 
L 201.738462 467.789347 
L 225 470.540543 
L 227.584615 470.438517 
L 250.846154 474.03608 
L 253.430769 474.086591 
L 276.692308 476.807631 
L 281.861538 477.001129 
L 302.538462 478.073161 
L 305.123077 477.676364 
L 341.307692 478.793126 
L 343.892308 479.034371 
L 367.153846 479.509322 
L 369.738462 479.2726 
L 393 479.302253 
L 395.584615 479.651053 
L 405.923077 480.02247 
L 408.507692 479.914161 
L 418.846154 479.932254 
L 421.430769 480.172996 
L 436.938462 480.753994 
L 447.276923 480.411979 
L 460.2 479.347738 
L 483.461538 476.654089 
L 498.969231 475.870797 
L 514.476923 475.602161 
L 524.815385 474.983971 
L 542.907692 472.874587 
L 553.246154 471.392188 
L 561 470.628748 
L 563.584615 470.180435 
L 576.507692 469.582098 
L 579.092308 467.921313 
L 589.430769 467.065814 
L 602.353846 466.275894 
L 617.861538 465.562732 
L 628.2 465.174685 
L 628.2 465.174685 
" clip-path="url(#p3b4b04000a)" style="fill: none; stroke: #f562db; stroke-linecap: square"/>
   </g>
   <g id="line2d_94">
    <path d="M 124.2 463.26852 
L 147.461538 470.327443 
L 152.630769 471.316296 
L 173.307692 475.598391 
L 181.061538 476.54578 
L 204.323077 479.233398 
L 232.753846 481.150289 
L 250.846154 482.606302 
L 253.430769 482.415065 
L 276.692308 483.063411 
L 279.276923 483.289578 
L 302.538462 484.046483 
L 305.123077 483.702458 
L 361.984615 484.850381 
L 374.907692 485.007191 
L 400.753846 485.001411 
L 416.261538 485.001913 
L 418.846154 484.97226 
L 421.430769 485.176062 
L 431.769231 485.313772 
L 434.353846 485.492947 
L 460.2 485.314778 
L 486.046154 483.316215 
L 496.384615 482.835736 
L 506.723077 482.988022 
L 509.307692 483.033758 
L 511.892308 483.226502 
L 524.815385 482.866143 
L 540.323077 480.719064 
L 550.661538 478.837354 
L 561 477.645705 
L 563.584615 477.124014 
L 576.507692 476.469134 
L 579.092308 475.378314 
L 592.015385 473.771914 
L 612.692308 471.470897 
L 628.2 469.800547 
L 628.2 469.800547 
" clip-path="url(#p3b4b04000a)" style="fill: none; stroke: #f668c2; stroke-linecap: square"/>
   </g>
   <g id="line2d_95">
    <path d="M 124.2 448.006518 
L 150.046154 453.503633 
L 173.307692 461.813009 
L 175.892308 462.601578 
L 199.153846 465.488977 
L 201.738462 465.438215 
L 225 467.944648 
L 227.584615 467.652642 
L 256.015385 470.913467 
L 276.692308 472.720793 
L 279.276923 472.615751 
L 302.538462 473.359087 
L 305.123077 473.075875 
L 341.307692 474.683671 
L 346.476923 474.771374 
L 367.153846 475.418714 
L 369.738462 475.093285 
L 393 475.285276 
L 395.584615 475.693884 
L 405.923077 476.159286 
L 408.507692 476.151998 
L 418.846154 476.569653 
L 424.015385 477.036814 
L 434.353846 477.841717 
L 447.276923 477.8093 
L 460.2 477.077021 
L 483.461538 474.22028 
L 486.046154 473.878014 
L 496.384615 473.063813 
L 501.553846 473.020339 
L 514.476923 472.99546 
L 524.815385 472.548655 
L 537.738462 469.832138 
L 540.323077 469.476553 
L 550.661538 465.668654 
L 561 463.321041 
L 563.584615 462.258307 
L 573.923077 461.529547 
L 576.507692 461.152099 
L 579.092308 461.655371 
L 586.846154 460.796197 
L 597.184615 459.894431 
L 610.107692 458.988453 
L 628.2 457.980416 
L 628.2 457.980416 
" clip-path="url(#p3b4b04000a)" style="fill: none; stroke: #f66caa; stroke-linecap: square"/>
   </g>
   <g id="line2d_96">
    <path d="M 124.2 467.077423 
L 147.461538 473.367379 
L 150.046154 473.903647 
L 175.892308 477.044855 
L 199.153846 478.472723 
L 201.738462 479.000446 
L 225 480.772088 
L 230.169231 481.300564 
L 253.430769 483.16217 
L 281.861538 483.52454 
L 302.538462 483.78237 
L 305.123077 483.520268 
L 341.307692 483.950991 
L 343.892308 484.304314 
L 367.153846 484.295267 
L 369.738462 484.058546 
L 393 483.335816 
L 395.584615 483.585605 
L 405.923077 483.302645 
L 408.507692 483.048082 
L 418.846154 483.462219 
L 421.430769 483.722562 
L 434.353846 484.08267 
L 447.276923 483.591385 
L 460.2 482.117027 
L 480.876923 477.680384 
L 488.630769 476.421639 
L 496.384615 475.283265 
L 501.553846 474.855307 
L 509.307692 474.364776 
L 511.892308 474.334369 
L 524.815385 472.972844 
L 540.323077 469.959043 
L 548.076923 468.063763 
L 550.661538 467.064607 
L 561 465.200489 
L 563.584615 464.439562 
L 573.923077 463.388639 
L 576.507692 462.985811 
L 579.092308 458.504009 
L 628.2 447.613001 
L 628.2 447.613001 
" clip-path="url(#p3b4b04000a)" style="fill: none; stroke: #f7708e; stroke-linecap: square"/>
   </g>
   <g id="patch_3">
    <path d="M 99 512.64 
L 99 69.12 
" style="fill: none; opacity: 0"/>
   </g>
   <g id="patch_4">
    <path d="M 653.4 512.64 
L 653.4 69.12 
" style="fill: none; opacity: 0"/>
   </g>
   <g id="patch_5">
    <path d="M 99 512.64 
L 653.4 512.64 
" style="fill: none; opacity: 0"/>
   </g>
   <g id="patch_6">
    <path d="M 99 69.12 
L 653.4 69.12 
" style="fill: none; opacity: 0"/>
   </g>
   <g id="legend_1">
    <g id="patch_7">
     <path d="M 690.1164 102.898973 
L 710.1084 102.898973 
L 710.1084 95.901773 
L 690.1164 95.901773 
L 690.1164 102.898973 
z
" style="fill: none"/>
    </g>
    <g id="text_19">
     <!-- County -->
     <g transform="translate(718.1052 102.898973)scale(0.09996 -0.09996)">
      <defs>
       <path id="DejaVuSans-43" d="M 4122 4306 
L 4122 3641 
Q 3803 3938 3442 4084 
Q 3081 4231 2675 4231 
Q 1875 4231 1450 3742 
Q 1025 3253 1025 2328 
Q 1025 1406 1450 917 
Q 1875 428 2675 428 
Q 3081 428 3442 575 
Q 3803 722 4122 1019 
L 4122 359 
Q 3791 134 3420 21 
Q 3050 -91 2638 -91 
Q 1578 -91 968 557 
Q 359 1206 359 2328 
Q 359 3453 968 4101 
Q 1578 4750 2638 4750 
Q 3056 4750 3426 4639 
Q 3797 4528 4122 4306 
z
" transform="scale(0.015625)"/>
       <path id="DejaVuSans-6f" d="M 1959 3097 
Q 1497 3097 1228 2736 
Q 959 2375 959 1747 
Q 959 1119 1226 758 
Q 1494 397 1959 397 
Q 2419 397 2687 759 
Q 2956 1122 2956 1747 
Q 2956 2369 2687 2733 
Q 2419 3097 1959 3097 
z
M 1959 3584 
Q 2709 3584 3137 3096 
Q 3566 2609 3566 1747 
Q 3566 888 3137 398 
Q 2709 -91 1959 -91 
Q 1206 -91 779 398 
Q 353 888 353 1747 
Q 353 2609 779 3096 
Q 1206 3584 1959 3584 
z
" transform="scale(0.015625)"/>
       <path id="DejaVuSans-75" d="M 544 1381 
L 544 3500 
L 1119 3500 
L 1119 1403 
Q 1119 906 1312 657 
Q 1506 409 1894 409 
Q 2359 409 2629 706 
Q 2900 1003 2900 1516 
L 2900 3500 
L 3475 3500 
L 3475 0 
L 2900 0 
L 2900 538 
Q 2691 219 2414 64 
Q 2138 -91 1772 -91 
Q 1169 -91 856 284 
Q 544 659 544 1381 
z
M 1991 3584 
L 1991 3584 
z
" transform="scale(0.015625)"/>
       <path id="DejaVuSans-6e" d="M 3513 2113 
L 3513 0 
L 2938 0 
L 2938 2094 
Q 2938 2591 2744 2837 
Q 2550 3084 2163 3084 
Q 1697 3084 1428 2787 
Q 1159 2491 1159 1978 
L 1159 0 
L 581 0 
L 581 3500 
L 1159 3500 
L 1159 2956 
Q 1366 3272 1645 3428 
Q 1925 3584 2291 3584 
Q 2894 3584 3203 3211 
Q 3513 2838 3513 2113 
z
" transform="scale(0.015625)"/>
       <path id="DejaVuSans-74" d="M 1172 4494 
L 1172 3500 
L 2356 3500 
L 2356 3053 
L 1172 3053 
L 1172 1153 
Q 1172 725 1289 603 
Q 1406 481 1766 481 
L 2356 481 
L 2356 0 
L 1766 0 
Q 1100 0 847 248 
Q 594 497 594 1153 
L 594 3053 
L 172 3053 
L 172 3500 
L 594 3500 
L 594 4494 
L 1172 4494 
z
" transform="scale(0.015625)"/>
       <path id="DejaVuSans-79" d="M 2059 -325 
Q 1816 -950 1584 -1140 
Q 1353 -1331 966 -1331 
L 506 -1331 
L 506 -850 
L 844 -850 
Q 1081 -850 1212 -737 
Q 1344 -625 1503 -206 
L 1606 56 
L 191 3500 
L 800 3500 
L 1894 763 
L 2988 3500 
L 3597 3500 
L 2059 -325 
z
" transform="scale(0.015625)"/>
      </defs>
      <use xlink:href="#DejaVuSans-43"/>
      <use xlink:href="#DejaVuSans-6f" x="69.824219"/>
      <use xlink:href="#DejaVuSans-75" x="131.005859"/>
      <use xlink:href="#DejaVuSans-6e" x="194.384766"/>
      <use xlink:href="#DejaVuSans-74" x="257.763672"/>
      <use xlink:href="#DejaVuSans-79" x="296.972656"/>
     </g>
    </g>
    <g id="line2d_97">
     <path d="M 690.1164 114.072626 
L 700.1124 114.072626 
L 710.1084 114.072626 
" style="fill: none; stroke: #f7746a; stroke-width: 5; stroke-linecap: square"/>
    </g>
    <g id="text_20">
     <!-- Carlow -->
     <g transform="translate(718.1052 117.571226)scale(0.09996 -0.09996)">
      <defs>
       <path id="DejaVuSans-61" d="M 2194 1759 
Q 1497 1759 1228 1600 
Q 959 1441 959 1056 
Q 959 750 1161 570 
Q 1363 391 1709 391 
Q 2188 391 2477 730 
Q 2766 1069 2766 1631 
L 2766 1759 
L 2194 1759 
z
M 3341 1997 
L 3341 0 
L 2766 0 
L 2766 531 
Q 2569 213 2275 61 
Q 1981 -91 1556 -91 
Q 1019 -91 701 211 
Q 384 513 384 1019 
Q 384 1609 779 1909 
Q 1175 2209 1959 2209 
L 2766 2209 
L 2766 2266 
Q 2766 2663 2505 2880 
Q 2244 3097 1772 3097 
Q 1472 3097 1187 3025 
Q 903 2953 641 2809 
L 641 3341 
Q 956 3463 1253 3523 
Q 1550 3584 1831 3584 
Q 2591 3584 2966 3190 
Q 3341 2797 3341 1997 
z
" transform="scale(0.015625)"/>
       <path id="DejaVuSans-72" d="M 2631 2963 
Q 2534 3019 2420 3045 
Q 2306 3072 2169 3072 
Q 1681 3072 1420 2755 
Q 1159 2438 1159 1844 
L 1159 0 
L 581 0 
L 581 3500 
L 1159 3500 
L 1159 2956 
Q 1341 3275 1631 3429 
Q 1922 3584 2338 3584 
Q 2397 3584 2469 3576 
Q 2541 3569 2628 3553 
L 2631 2963 
z
" transform="scale(0.015625)"/>
       <path id="DejaVuSans-6c" d="M 603 4863 
L 1178 4863 
L 1178 0 
L 603 0 
L 603 4863 
z
" transform="scale(0.015625)"/>
       <path id="DejaVuSans-77" d="M 269 3500 
L 844 3500 
L 1563 769 
L 2278 3500 
L 2956 3500 
L 3675 769 
L 4391 3500 
L 4966 3500 
L 4050 0 
L 3372 0 
L 2619 2869 
L 1863 0 
L 1184 0 
L 269 3500 
z
" transform="scale(0.015625)"/>
      </defs>
      <use xlink:href="#DejaVuSans-43"/>
      <use xlink:href="#DejaVuSans-61" x="69.824219"/>
      <use xlink:href="#DejaVuSans-72" x="131.103516"/>
      <use xlink:href="#DejaVuSans-6c" x="172.216797"/>
      <use xlink:href="#DejaVuSans-6f" x="200"/>
      <use xlink:href="#DejaVuSans-77" x="261.181641"/>
     </g>
    </g>
    <g id="line2d_98">
     <path d="M 690.1164 128.74488 
L 700.1124 128.74488 
L 710.1084 128.74488 
" style="fill: none; stroke: #f07c32; stroke-width: 5; stroke-linecap: square"/>
    </g>
    <g id="text_21">
     <!-- Cavan -->
     <g transform="translate(718.1052 132.24348)scale(0.09996 -0.09996)">
      <defs>
       <path id="DejaVuSans-76" d="M 191 3500 
L 800 3500 
L 1894 563 
L 2988 3500 
L 3597 3500 
L 2284 0 
L 1503 0 
L 191 3500 
z
" transform="scale(0.015625)"/>
      </defs>
      <use xlink:href="#DejaVuSans-43"/>
      <use xlink:href="#DejaVuSans-61" x="69.824219"/>
      <use xlink:href="#DejaVuSans-76" x="131.103516"/>
      <use xlink:href="#DejaVuSans-61" x="190.283203"/>
      <use xlink:href="#DejaVuSans-6e" x="251.5625"/>
     </g>
    </g>
    <g id="line2d_99">
     <path d="M 690.1164 143.417134 
L 700.1124 143.417134 
L 710.1084 143.417134 
" style="fill: none; stroke: #d78b32; stroke-width: 5; stroke-linecap: square"/>
    </g>
    <g id="text_22">
     <!-- Clare -->
     <g transform="translate(718.1052 146.915734)scale(0.09996 -0.09996)">
      <use xlink:href="#DejaVuSans-43"/>
      <use xlink:href="#DejaVuSans-6c" x="69.824219"/>
      <use xlink:href="#DejaVuSans-61" x="97.607422"/>
      <use xlink:href="#DejaVuSans-72" x="158.886719"/>
      <use xlink:href="#DejaVuSans-65" x="197.75"/>
     </g>
    </g>
    <g id="line2d_100">
     <path d="M 690.1164 158.089388 
L 700.1124 158.089388 
L 710.1084 158.089388 
" style="fill: none; stroke: #c49432; stroke-width: 5; stroke-linecap: square"/>
    </g>
    <g id="text_23">
     <!-- Cork -->
     <g transform="translate(718.1052 161.587988)scale(0.09996 -0.09996)">
      <defs>
       <path id="DejaVuSans-6b" d="M 581 4863 
L 1159 4863 
L 1159 1991 
L 2875 3500 
L 3609 3500 
L 1753 1863 
L 3688 0 
L 2938 0 
L 1159 1709 
L 1159 0 
L 581 0 
L 581 4863 
z
" transform="scale(0.015625)"/>
      </defs>
      <use xlink:href="#DejaVuSans-43"/>
      <use xlink:href="#DejaVuSans-6f" x="69.824219"/>
      <use xlink:href="#DejaVuSans-72" x="131.005859"/>
      <use xlink:href="#DejaVuSans-6b" x="172.119141"/>
     </g>
    </g>
    <g id="line2d_101">
     <path d="M 690.1164 172.761641 
L 700.1124 172.761641 
L 710.1084 172.761641 
" style="fill: none; stroke: #b49b32; stroke-width: 5; stroke-linecap: square"/>
    </g>
    <g id="text_24">
     <!-- Donegal -->
     <g transform="translate(718.1052 176.260241)scale(0.09996 -0.09996)">
      <defs>
       <path id="DejaVuSans-44" d="M 1259 4147 
L 1259 519 
L 2022 519 
Q 2988 519 3436 956 
Q 3884 1394 3884 2338 
Q 3884 3275 3436 3711 
Q 2988 4147 2022 4147 
L 1259 4147 
z
M 628 4666 
L 1925 4666 
Q 3281 4666 3915 4102 
Q 4550 3538 4550 2338 
Q 4550 1131 3912 565 
Q 3275 0 1925 0 
L 628 0 
L 628 4666 
z
" transform="scale(0.015625)"/>
       <path id="DejaVuSans-67" d="M 2906 1791 
Q 2906 2416 2648 2759 
Q 2391 3103 1925 3103 
Q 1463 3103 1205 2759 
Q 947 2416 947 1791 
Q 947 1169 1205 825 
Q 1463 481 1925 481 
Q 2391 481 2648 825 
Q 2906 1169 2906 1791 
z
M 3481 434 
Q 3481 -459 3084 -895 
Q 2688 -1331 1869 -1331 
Q 1566 -1331 1297 -1286 
Q 1028 -1241 775 -1147 
L 775 -588 
Q 1028 -725 1275 -790 
Q 1522 -856 1778 -856 
Q 2344 -856 2625 -561 
Q 2906 -266 2906 331 
L 2906 616 
Q 2728 306 2450 153 
Q 2172 0 1784 0 
Q 1141 0 747 490 
Q 353 981 353 1791 
Q 353 2603 747 3093 
Q 1141 3584 1784 3584 
Q 2172 3584 2450 3431 
Q 2728 3278 2906 2969 
L 2906 3500 
L 3481 3500 
L 3481 434 
z
" transform="scale(0.015625)"/>
      </defs>
      <use xlink:href="#DejaVuSans-44"/>
      <use xlink:href="#DejaVuSans-6f" x="77.001953"/>
      <use xlink:href="#DejaVuSans-6e" x="138.183594"/>
      <use xlink:href="#DejaVuSans-65" x="201.5625"/>
      <use xlink:href="#DejaVuSans-67" x="263.085938"/>
      <use xlink:href="#DejaVuSans-61" x="326.5625"/>
      <use xlink:href="#DejaVuSans-6c" x="387.841797"/>
     </g>
    </g>
    <g id="line2d_102">
     <path d="M 690.1164 187.433895 
L 700.1124 187.433895 
L 710.1084 187.433895 
" style="fill: none; stroke: #a3a031; stroke-width: 5; stroke-linecap: square"/>
    </g>
    <g id="text_25">
     <!-- Dublin -->
     <g transform="translate(718.1052 190.932495)scale(0.09996 -0.09996)">
      <defs>
       <path id="DejaVuSans-62" d="M 3116 1747 
Q 3116 2381 2855 2742 
Q 2594 3103 2138 3103 
Q 1681 3103 1420 2742 
Q 1159 2381 1159 1747 
Q 1159 1113 1420 752 
Q 1681 391 2138 391 
Q 2594 391 2855 752 
Q 3116 1113 3116 1747 
z
M 1159 2969 
Q 1341 3281 1617 3432 
Q 1894 3584 2278 3584 
Q 2916 3584 3314 3078 
Q 3713 2572 3713 1747 
Q 3713 922 3314 415 
Q 2916 -91 2278 -91 
Q 1894 -91 1617 61 
Q 1341 213 1159 525 
L 1159 0 
L 581 0 
L 581 4863 
L 1159 4863 
L 1159 2969 
z
" transform="scale(0.015625)"/>
       <path id="DejaVuSans-69" d="M 603 3500 
L 1178 3500 
L 1178 0 
L 603 0 
L 603 3500 
z
M 603 4863 
L 1178 4863 
L 1178 4134 
L 603 4134 
L 603 4863 
z
" transform="scale(0.015625)"/>
      </defs>
      <use xlink:href="#DejaVuSans-44"/>
      <use xlink:href="#DejaVuSans-75" x="77.001953"/>
      <use xlink:href="#DejaVuSans-62" x="140.380859"/>
      <use xlink:href="#DejaVuSans-6c" x="203.857422"/>
      <use xlink:href="#DejaVuSans-69" x="231.640625"/>
      <use xlink:href="#DejaVuSans-6e" x="259.423828"/>
     </g>
    </g>
    <g id="line2d_103">
     <path d="M 690.1164 202.106149 
L 700.1124 202.106149 
L 710.1084 202.106149 
" style="fill: none; stroke: #90a531; stroke-width: 5; stroke-linecap: square"/>
    </g>
    <g id="text_26">
     <!-- Galway -->
     <g transform="translate(718.1052 205.604749)scale(0.09996 -0.09996)">
      <defs>
       <path id="DejaVuSans-47" d="M 3809 666 
L 3809 1919 
L 2778 1919 
L 2778 2438 
L 4434 2438 
L 4434 434 
Q 4069 175 3628 42 
Q 3188 -91 2688 -91 
Q 1594 -91 976 548 
Q 359 1188 359 2328 
Q 359 3472 976 4111 
Q 1594 4750 2688 4750 
Q 3144 4750 3555 4637 
Q 3966 4525 4313 4306 
L 4313 3634 
Q 3963 3931 3569 4081 
Q 3175 4231 2741 4231 
Q 1884 4231 1454 3753 
Q 1025 3275 1025 2328 
Q 1025 1384 1454 906 
Q 1884 428 2741 428 
Q 3075 428 3337 486 
Q 3600 544 3809 666 
z
" transform="scale(0.015625)"/>
      </defs>
      <use xlink:href="#DejaVuSans-47"/>
      <use xlink:href="#DejaVuSans-61" x="77.490234"/>
      <use xlink:href="#DejaVuSans-6c" x="138.769531"/>
      <use xlink:href="#DejaVuSans-77" x="166.552734"/>
      <use xlink:href="#DejaVuSans-61" x="248.339844"/>
      <use xlink:href="#DejaVuSans-79" x="309.619141"/>
     </g>
    </g>
    <g id="line2d_104">
     <path d="M 690.1164 216.778403 
L 700.1124 216.778403 
L 710.1084 216.778403 
" style="fill: none; stroke: #77ab31; stroke-width: 5; stroke-linecap: square"/>
    </g>
    <g id="text_27">
     <!-- Kerry -->
     <g transform="translate(718.1052 220.277003)scale(0.09996 -0.09996)">
      <defs>
       <path id="DejaVuSans-4b" d="M 628 4666 
L 1259 4666 
L 1259 2694 
L 3353 4666 
L 4166 4666 
L 1850 2491 
L 4331 0 
L 3500 0 
L 1259 2247 
L 1259 0 
L 628 0 
L 628 4666 
z
" transform="scale(0.015625)"/>
      </defs>
      <use xlink:href="#DejaVuSans-4b"/>
      <use xlink:href="#DejaVuSans-65" x="60.576172"/>
      <use xlink:href="#DejaVuSans-72" x="122.099609"/>
      <use xlink:href="#DejaVuSans-72" x="161.462891"/>
      <use xlink:href="#DejaVuSans-79" x="202.576172"/>
     </g>
    </g>
    <g id="line2d_105">
     <path d="M 690.1164 231.450656 
L 700.1124 231.450656 
L 710.1084 231.450656 
" style="fill: none; stroke: #43b231; stroke-width: 5; stroke-linecap: square"/>
    </g>
    <g id="text_28">
     <!-- Kildare -->
     <g transform="translate(718.1052 234.949256)scale(0.09996 -0.09996)">
      <defs>
       <path id="DejaVuSans-64" d="M 2906 2969 
L 2906 4863 
L 3481 4863 
L 3481 0 
L 2906 0 
L 2906 525 
Q 2725 213 2448 61 
Q 2172 -91 1784 -91 
Q 1150 -91 751 415 
Q 353 922 353 1747 
Q 353 2572 751 3078 
Q 1150 3584 1784 3584 
Q 2172 3584 2448 3432 
Q 2725 3281 2906 2969 
z
M 947 1747 
Q 947 1113 1208 752 
Q 1469 391 1925 391 
Q 2381 391 2643 752 
Q 2906 1113 2906 1747 
Q 2906 2381 2643 2742 
Q 2381 3103 1925 3103 
Q 1469 3103 1208 2742 
Q 947 2381 947 1747 
z
" transform="scale(0.015625)"/>
      </defs>
      <use xlink:href="#DejaVuSans-4b"/>
      <use xlink:href="#DejaVuSans-69" x="65.576172"/>
      <use xlink:href="#DejaVuSans-6c" x="93.359375"/>
      <use xlink:href="#DejaVuSans-64" x="121.142578"/>
      <use xlink:href="#DejaVuSans-61" x="184.619141"/>
      <use xlink:href="#DejaVuSans-72" x="245.898438"/>
      <use xlink:href="#DejaVuSans-65" x="284.761719"/>
     </g>
    </g>
    <g id="line2d_106">
     <path d="M 690.1164 246.12291 
L 700.1124 246.12291 
L 710.1084 246.12291 
" style="fill: none; stroke: #33b169; stroke-width: 5; stroke-linecap: square"/>
    </g>
    <g id="text_29">
     <!-- Kilkenny -->
     <g transform="translate(718.1052 249.62151)scale(0.09996 -0.09996)">
      <use xlink:href="#DejaVuSans-4b"/>
      <use xlink:href="#DejaVuSans-69" x="65.576172"/>
      <use xlink:href="#DejaVuSans-6c" x="93.359375"/>
      <use xlink:href="#DejaVuSans-6b" x="121.142578"/>
      <use xlink:href="#DejaVuSans-65" x="175.427734"/>
      <use xlink:href="#DejaVuSans-6e" x="236.951172"/>
      <use xlink:href="#DejaVuSans-6e" x="300.330078"/>
      <use xlink:href="#DejaVuSans-79" x="363.708984"/>
     </g>
    </g>
    <g id="line2d_107">
     <path d="M 690.1164 260.795164 
L 700.1124 260.795164 
L 710.1084 260.795164 
" style="fill: none; stroke: #34af84; stroke-width: 5; stroke-linecap: square"/>
    </g>
    <g id="text_30">
     <!-- Laois -->
     <g transform="translate(718.1052 264.293764)scale(0.09996 -0.09996)">
      <defs>
       <path id="DejaVuSans-4c" d="M 628 4666 
L 1259 4666 
L 1259 531 
L 3531 531 
L 3531 0 
L 628 0 
L 628 4666 
z
" transform="scale(0.015625)"/>
       <path id="DejaVuSans-73" d="M 2834 3397 
L 2834 2853 
Q 2591 2978 2328 3040 
Q 2066 3103 1784 3103 
Q 1356 3103 1142 2972 
Q 928 2841 928 2578 
Q 928 2378 1081 2264 
Q 1234 2150 1697 2047 
L 1894 2003 
Q 2506 1872 2764 1633 
Q 3022 1394 3022 966 
Q 3022 478 2636 193 
Q 2250 -91 1575 -91 
Q 1294 -91 989 -36 
Q 684 19 347 128 
L 347 722 
Q 666 556 975 473 
Q 1284 391 1588 391 
Q 1994 391 2212 530 
Q 2431 669 2431 922 
Q 2431 1156 2273 1281 
Q 2116 1406 1581 1522 
L 1381 1569 
Q 847 1681 609 1914 
Q 372 2147 372 2553 
Q 372 3047 722 3315 
Q 1072 3584 1716 3584 
Q 2034 3584 2315 3537 
Q 2597 3491 2834 3397 
z
" transform="scale(0.015625)"/>
      </defs>
      <use xlink:href="#DejaVuSans-4c"/>
      <use xlink:href="#DejaVuSans-61" x="55.712891"/>
      <use xlink:href="#DejaVuSans-6f" x="116.992188"/>
      <use xlink:href="#DejaVuSans-69" x="178.173828"/>
      <use xlink:href="#DejaVuSans-73" x="205.957031"/>
     </g>
    </g>
    <g id="line2d_108">
     <path d="M 690.1164 275.467418 
L 700.1124 275.467418 
L 710.1084 275.467418 
" style="fill: none; stroke: #35ae95; stroke-width: 5; stroke-linecap: square"/>
    </g>
    <g id="text_31">
     <!-- Leitrim -->
     <g transform="translate(718.1052 278.966018)scale(0.09996 -0.09996)">
      <defs>
       <path id="DejaVuSans-6d" d="M 3328 2828 
Q 3544 3216 3844 3400 
Q 4144 3584 4550 3584 
Q 5097 3584 5394 3201 
Q 5691 2819 5691 2113 
L 5691 0 
L 5113 0 
L 5113 2094 
Q 5113 2597 4934 2840 
Q 4756 3084 4391 3084 
Q 3944 3084 3684 2787 
Q 3425 2491 3425 1978 
L 3425 0 
L 2847 0 
L 2847 2094 
Q 2847 2600 2669 2842 
Q 2491 3084 2119 3084 
Q 1678 3084 1418 2786 
Q 1159 2488 1159 1978 
L 1159 0 
L 581 0 
L 581 3500 
L 1159 3500 
L 1159 2956 
Q 1356 3278 1631 3431 
Q 1906 3584 2284 3584 
Q 2666 3584 2933 3390 
Q 3200 3197 3328 2828 
z
" transform="scale(0.015625)"/>
      </defs>
      <use xlink:href="#DejaVuSans-4c"/>
      <use xlink:href="#DejaVuSans-65" x="53.962891"/>
      <use xlink:href="#DejaVuSans-69" x="115.486328"/>
      <use xlink:href="#DejaVuSans-74" x="143.269531"/>
      <use xlink:href="#DejaVuSans-72" x="182.478516"/>
      <use xlink:href="#DejaVuSans-69" x="223.591797"/>
      <use xlink:href="#DejaVuSans-6d" x="251.375"/>
     </g>
    </g>
    <g id="line2d_109">
     <path d="M 690.1164 290.139671 
L 700.1124 290.139671 
L 710.1084 290.139671 
" style="fill: none; stroke: #36ada2; stroke-width: 5; stroke-linecap: square"/>
    </g>
    <g id="text_32">
     <!-- Limerick -->
     <g transform="translate(718.1052 293.638271)scale(0.09996 -0.09996)">
      <defs>
       <path id="DejaVuSans-63" d="M 3122 3366 
L 3122 2828 
Q 2878 2963 2633 3030 
Q 2388 3097 2138 3097 
Q 1578 3097 1268 2742 
Q 959 2388 959 1747 
Q 959 1106 1268 751 
Q 1578 397 2138 397 
Q 2388 397 2633 464 
Q 2878 531 3122 666 
L 3122 134 
Q 2881 22 2623 -34 
Q 2366 -91 2075 -91 
Q 1284 -91 818 406 
Q 353 903 353 1747 
Q 353 2603 823 3093 
Q 1294 3584 2113 3584 
Q 2378 3584 2631 3529 
Q 2884 3475 3122 3366 
z
" transform="scale(0.015625)"/>
      </defs>
      <use xlink:href="#DejaVuSans-4c"/>
      <use xlink:href="#DejaVuSans-69" x="55.712891"/>
      <use xlink:href="#DejaVuSans-6d" x="83.496094"/>
      <use xlink:href="#DejaVuSans-65" x="180.908203"/>
      <use xlink:href="#DejaVuSans-72" x="242.431641"/>
      <use xlink:href="#DejaVuSans-69" x="283.544922"/>
      <use xlink:href="#DejaVuSans-63" x="311.328125"/>
      <use xlink:href="#DejaVuSans-6b" x="366.308594"/>
     </g>
    </g>
    <g id="line2d_110">
     <path d="M 690.1164 304.811925 
L 700.1124 304.811925 
L 710.1084 304.811925 
" style="fill: none; stroke: #36acae; stroke-width: 5; stroke-linecap: square"/>
    </g>
    <g id="text_33">
     <!-- Longford -->
     <g transform="translate(718.1052 308.310525)scale(0.09996 -0.09996)">
      <defs>
       <path id="DejaVuSans-66" d="M 2375 4863 
L 2375 4384 
L 1825 4384 
Q 1516 4384 1395 4259 
Q 1275 4134 1275 3809 
L 1275 3500 
L 2222 3500 
L 2222 3053 
L 1275 3053 
L 1275 0 
L 697 0 
L 697 3053 
L 147 3053 
L 147 3500 
L 697 3500 
L 697 3744 
Q 697 4328 969 4595 
Q 1241 4863 1831 4863 
L 2375 4863 
z
" transform="scale(0.015625)"/>
      </defs>
      <use xlink:href="#DejaVuSans-4c"/>
      <use xlink:href="#DejaVuSans-6f" x="53.962891"/>
      <use xlink:href="#DejaVuSans-6e" x="115.144531"/>
      <use xlink:href="#DejaVuSans-67" x="178.523438"/>
      <use xlink:href="#DejaVuSans-66" x="242"/>
      <use xlink:href="#DejaVuSans-6f" x="277.205078"/>
      <use xlink:href="#DejaVuSans-72" x="338.386719"/>
      <use xlink:href="#DejaVuSans-64" x="377.75"/>
     </g>
    </g>
    <g id="line2d_111">
     <path d="M 690.1164 319.484179 
L 700.1124 319.484179 
L 710.1084 319.484179 
" style="fill: none; stroke: #37aaba; stroke-width: 5; stroke-linecap: square"/>
    </g>
    <g id="text_34">
     <!-- Louth -->
     <g transform="translate(718.1052 322.982779)scale(0.09996 -0.09996)">
      <defs>
       <path id="DejaVuSans-68" d="M 3513 2113 
L 3513 0 
L 2938 0 
L 2938 2094 
Q 2938 2591 2744 2837 
Q 2550 3084 2163 3084 
Q 1697 3084 1428 2787 
Q 1159 2491 1159 1978 
L 1159 0 
L 581 0 
L 581 4863 
L 1159 4863 
L 1159 2956 
Q 1366 3272 1645 3428 
Q 1925 3584 2291 3584 
Q 2894 3584 3203 3211 
Q 3513 2838 3513 2113 
z
" transform="scale(0.015625)"/>
      </defs>
      <use xlink:href="#DejaVuSans-4c"/>
      <use xlink:href="#DejaVuSans-6f" x="53.962891"/>
      <use xlink:href="#DejaVuSans-75" x="115.144531"/>
      <use xlink:href="#DejaVuSans-74" x="178.523438"/>
      <use xlink:href="#DejaVuSans-68" x="217.732422"/>
     </g>
    </g>
    <g id="line2d_112">
     <path d="M 690.1164 334.156433 
L 700.1124 334.156433 
L 710.1084 334.156433 
" style="fill: none; stroke: #38a8c9; stroke-width: 5; stroke-linecap: square"/>
    </g>
    <g id="text_35">
     <!-- Mayo -->
     <g transform="translate(718.1052 337.655033)scale(0.09996 -0.09996)">
      <defs>
       <path id="DejaVuSans-4d" d="M 628 4666 
L 1569 4666 
L 2759 1491 
L 3956 4666 
L 4897 4666 
L 4897 0 
L 4281 0 
L 4281 4097 
L 3078 897 
L 2444 897 
L 1241 4097 
L 1241 0 
L 628 0 
L 628 4666 
z
" transform="scale(0.015625)"/>
      </defs>
      <use xlink:href="#DejaVuSans-4d"/>
      <use xlink:href="#DejaVuSans-61" x="86.279297"/>
      <use xlink:href="#DejaVuSans-79" x="147.558594"/>
      <use xlink:href="#DejaVuSans-6f" x="206.738281"/>
     </g>
    </g>
    <g id="line2d_113">
     <path d="M 690.1164 348.828686 
L 700.1124 348.828686 
L 710.1084 348.828686 
" style="fill: none; stroke: #3aa6dd; stroke-width: 5; stroke-linecap: square"/>
    </g>
    <g id="text_36">
     <!-- Meath -->
     <g transform="translate(718.1052 352.327286)scale(0.09996 -0.09996)">
      <use xlink:href="#DejaVuSans-4d"/>
      <use xlink:href="#DejaVuSans-65" x="86.279297"/>
      <use xlink:href="#DejaVuSans-61" x="147.802734"/>
      <use xlink:href="#DejaVuSans-74" x="209.082031"/>
      <use xlink:href="#DejaVuSans-68" x="248.291016"/>
     </g>
    </g>
    <g id="line2d_114">
     <path d="M 690.1164 363.50094 
L 700.1124 363.50094 
L 710.1084 363.50094 
" style="fill: none; stroke: #569ff4; stroke-width: 5; stroke-linecap: square"/>
    </g>
    <g id="text_37">
     <!-- Monaghan -->
     <g transform="translate(718.1052 366.99954)scale(0.09996 -0.09996)">
      <use xlink:href="#DejaVuSans-4d"/>
      <use xlink:href="#DejaVuSans-6f" x="86.279297"/>
      <use xlink:href="#DejaVuSans-6e" x="147.460938"/>
      <use xlink:href="#DejaVuSans-61" x="210.839844"/>
      <use xlink:href="#DejaVuSans-67" x="272.119141"/>
      <use xlink:href="#DejaVuSans-68" x="335.595703"/>
      <use xlink:href="#DejaVuSans-61" x="398.974609"/>
      <use xlink:href="#DejaVuSans-6e" x="460.253906"/>
     </g>
    </g>
    <g id="line2d_115">
     <path d="M 690.1164 378.173194 
L 700.1124 378.173194 
L 710.1084 378.173194 
" style="fill: none; stroke: #8b94f4; stroke-width: 5; stroke-linecap: square"/>
    </g>
    <g id="text_38">
     <!-- Offaly -->
     <g transform="translate(718.1052 381.671794)scale(0.09996 -0.09996)">
      <defs>
       <path id="DejaVuSans-4f" d="M 2522 4238 
Q 1834 4238 1429 3725 
Q 1025 3213 1025 2328 
Q 1025 1447 1429 934 
Q 1834 422 2522 422 
Q 3209 422 3611 934 
Q 4013 1447 4013 2328 
Q 4013 3213 3611 3725 
Q 3209 4238 2522 4238 
z
M 2522 4750 
Q 3503 4750 4090 4092 
Q 4678 3434 4678 2328 
Q 4678 1225 4090 567 
Q 3503 -91 2522 -91 
Q 1538 -91 948 565 
Q 359 1222 359 2328 
Q 359 3434 948 4092 
Q 1538 4750 2522 4750 
z
" transform="scale(0.015625)"/>
      </defs>
      <use xlink:href="#DejaVuSans-4f"/>
      <use xlink:href="#DejaVuSans-66" x="78.710938"/>
      <use xlink:href="#DejaVuSans-66" x="113.916016"/>
      <use xlink:href="#DejaVuSans-61" x="149.121094"/>
      <use xlink:href="#DejaVuSans-6c" x="210.400391"/>
      <use xlink:href="#DejaVuSans-79" x="238.183594"/>
     </g>
    </g>
    <g id="line2d_116">
     <path d="M 690.1164 392.845448 
L 700.1124 392.845448 
L 710.1084 392.845448 
" style="fill: none; stroke: #ae88f4; stroke-width: 5; stroke-linecap: square"/>
    </g>
    <g id="text_39">
     <!-- Roscommon -->
     <g transform="translate(718.1052 396.344048)scale(0.09996 -0.09996)">
      <defs>
       <path id="DejaVuSans-52" d="M 2841 2188 
Q 3044 2119 3236 1894 
Q 3428 1669 3622 1275 
L 4263 0 
L 3584 0 
L 2988 1197 
Q 2756 1666 2539 1819 
Q 2322 1972 1947 1972 
L 1259 1972 
L 1259 0 
L 628 0 
L 628 4666 
L 2053 4666 
Q 2853 4666 3247 4331 
Q 3641 3997 3641 3322 
Q 3641 2881 3436 2590 
Q 3231 2300 2841 2188 
z
M 1259 4147 
L 1259 2491 
L 2053 2491 
Q 2509 2491 2742 2702 
Q 2975 2913 2975 3322 
Q 2975 3731 2742 3939 
Q 2509 4147 2053 4147 
L 1259 4147 
z
" transform="scale(0.015625)"/>
      </defs>
      <use xlink:href="#DejaVuSans-52"/>
      <use xlink:href="#DejaVuSans-6f" x="64.982422"/>
      <use xlink:href="#DejaVuSans-73" x="126.164062"/>
      <use xlink:href="#DejaVuSans-63" x="178.263672"/>
      <use xlink:href="#DejaVuSans-6f" x="233.244141"/>
      <use xlink:href="#DejaVuSans-6d" x="294.425781"/>
      <use xlink:href="#DejaVuSans-6d" x="391.837891"/>
      <use xlink:href="#DejaVuSans-6f" x="489.25"/>
      <use xlink:href="#DejaVuSans-6e" x="550.431641"/>
     </g>
    </g>
    <g id="line2d_117">
     <path d="M 690.1164 407.517701 
L 700.1124 407.517701 
L 710.1084 407.517701 
" style="fill: none; stroke: #cd79f4; stroke-width: 5; stroke-linecap: square"/>
    </g>
    <g id="text_40">
     <!-- Sligo -->
     <g transform="translate(718.1052 411.016301)scale(0.09996 -0.09996)">
      <defs>
       <path id="DejaVuSans-53" d="M 3425 4513 
L 3425 3897 
Q 3066 4069 2747 4153 
Q 2428 4238 2131 4238 
Q 1616 4238 1336 4038 
Q 1056 3838 1056 3469 
Q 1056 3159 1242 3001 
Q 1428 2844 1947 2747 
L 2328 2669 
Q 3034 2534 3370 2195 
Q 3706 1856 3706 1288 
Q 3706 609 3251 259 
Q 2797 -91 1919 -91 
Q 1588 -91 1214 -16 
Q 841 59 441 206 
L 441 856 
Q 825 641 1194 531 
Q 1563 422 1919 422 
Q 2459 422 2753 634 
Q 3047 847 3047 1241 
Q 3047 1584 2836 1778 
Q 2625 1972 2144 2069 
L 1759 2144 
Q 1053 2284 737 2584 
Q 422 2884 422 3419 
Q 422 4038 858 4394 
Q 1294 4750 2059 4750 
Q 2388 4750 2728 4690 
Q 3069 4631 3425 4513 
z
" transform="scale(0.015625)"/>
      </defs>
      <use xlink:href="#DejaVuSans-53"/>
      <use xlink:href="#DejaVuSans-6c" x="63.476562"/>
      <use xlink:href="#DejaVuSans-69" x="91.259766"/>
      <use xlink:href="#DejaVuSans-67" x="119.042969"/>
      <use xlink:href="#DejaVuSans-6f" x="182.519531"/>
     </g>
    </g>
    <g id="line2d_118">
     <path d="M 690.1164 422.189955 
L 700.1124 422.189955 
L 710.1084 422.189955 
" style="fill: none; stroke: #ed62f4; stroke-width: 5; stroke-linecap: square"/>
    </g>
    <g id="text_41">
     <!-- Tipperary -->
     <g transform="translate(718.1052 425.688555)scale(0.09996 -0.09996)">
      <defs>
       <path id="DejaVuSans-54" d="M -19 4666 
L 3928 4666 
L 3928 4134 
L 2272 4134 
L 2272 0 
L 1638 0 
L 1638 4134 
L -19 4134 
L -19 4666 
z
" transform="scale(0.015625)"/>
       <path id="DejaVuSans-70" d="M 1159 525 
L 1159 -1331 
L 581 -1331 
L 581 3500 
L 1159 3500 
L 1159 2969 
Q 1341 3281 1617 3432 
Q 1894 3584 2278 3584 
Q 2916 3584 3314 3078 
Q 3713 2572 3713 1747 
Q 3713 922 3314 415 
Q 2916 -91 2278 -91 
Q 1894 -91 1617 61 
Q 1341 213 1159 525 
z
M 3116 1747 
Q 3116 2381 2855 2742 
Q 2594 3103 2138 3103 
Q 1681 3103 1420 2742 
Q 1159 2381 1159 1747 
Q 1159 1113 1420 752 
Q 1681 391 2138 391 
Q 2594 391 2855 752 
Q 3116 1113 3116 1747 
z
" transform="scale(0.015625)"/>
      </defs>
      <use xlink:href="#DejaVuSans-54"/>
      <use xlink:href="#DejaVuSans-69" x="57.958984"/>
      <use xlink:href="#DejaVuSans-70" x="85.742188"/>
      <use xlink:href="#DejaVuSans-70" x="149.21875"/>
      <use xlink:href="#DejaVuSans-65" x="212.695312"/>
      <use xlink:href="#DejaVuSans-72" x="274.21875"/>
      <use xlink:href="#DejaVuSans-61" x="315.332031"/>
      <use xlink:href="#DejaVuSans-72" x="376.611328"/>
      <use xlink:href="#DejaVuSans-79" x="417.724609"/>
     </g>
    </g>
    <g id="line2d_119">
     <path d="M 690.1164 436.862209 
L 700.1124 436.862209 
L 710.1084 436.862209 
" style="fill: none; stroke: #f562db; stroke-width: 5; stroke-linecap: square"/>
    </g>
    <g id="text_42">
     <!-- Waterford -->
     <g transform="translate(718.1052 440.360809)scale(0.09996 -0.09996)">
      <defs>
       <path id="DejaVuSans-57" d="M 213 4666 
L 850 4666 
L 1831 722 
L 2809 4666 
L 3519 4666 
L 4500 722 
L 5478 4666 
L 6119 4666 
L 4947 0 
L 4153 0 
L 3169 4050 
L 2175 0 
L 1381 0 
L 213 4666 
z
" transform="scale(0.015625)"/>
      </defs>
      <use xlink:href="#DejaVuSans-57"/>
      <use xlink:href="#DejaVuSans-61" x="92.501953"/>
      <use xlink:href="#DejaVuSans-74" x="153.78125"/>
      <use xlink:href="#DejaVuSans-65" x="192.990234"/>
      <use xlink:href="#DejaVuSans-72" x="254.513672"/>
      <use xlink:href="#DejaVuSans-66" x="295.626953"/>
      <use xlink:href="#DejaVuSans-6f" x="330.832031"/>
      <use xlink:href="#DejaVuSans-72" x="392.013672"/>
      <use xlink:href="#DejaVuSans-64" x="431.376953"/>
     </g>
    </g>
    <g id="line2d_120">
     <path d="M 690.1164 451.534462 
L 700.1124 451.534462 
L 710.1084 451.534462 
" style="fill: none; stroke: #f668c2; stroke-width: 5; stroke-linecap: square"/>
    </g>
    <g id="text_43">
     <!-- Westmeath -->
     <g transform="translate(718.1052 455.033062)scale(0.09996 -0.09996)">
      <use xlink:href="#DejaVuSans-57"/>
      <use xlink:href="#DejaVuSans-65" x="93.001953"/>
      <use xlink:href="#DejaVuSans-73" x="154.525391"/>
      <use xlink:href="#DejaVuSans-74" x="206.625"/>
      <use xlink:href="#DejaVuSans-6d" x="245.833984"/>
      <use xlink:href="#DejaVuSans-65" x="343.246094"/>
      <use xlink:href="#DejaVuSans-61" x="404.769531"/>
      <use xlink:href="#DejaVuSans-74" x="466.048828"/>
      <use xlink:href="#DejaVuSans-68" x="505.257812"/>
     </g>
    </g>
    <g id="line2d_121">
     <path d="M 690.1164 466.206716 
L 700.1124 466.206716 
L 710.1084 466.206716 
" style="fill: none; stroke: #f66caa; stroke-width: 5; stroke-linecap: square"/>
    </g>
    <g id="text_44">
     <!-- Wexford -->
     <g transform="translate(718.1052 469.705316)scale(0.09996 -0.09996)">
      <defs>
       <path id="DejaVuSans-78" d="M 3513 3500 
L 2247 1797 
L 3578 0 
L 2900 0 
L 1881 1375 
L 863 0 
L 184 0 
L 1544 1831 
L 300 3500 
L 978 3500 
L 1906 2253 
L 2834 3500 
L 3513 3500 
z
" transform="scale(0.015625)"/>
      </defs>
      <use xlink:href="#DejaVuSans-57"/>
      <use xlink:href="#DejaVuSans-65" x="93.001953"/>
      <use xlink:href="#DejaVuSans-78" x="152.775391"/>
      <use xlink:href="#DejaVuSans-66" x="211.955078"/>
      <use xlink:href="#DejaVuSans-6f" x="247.160156"/>
      <use xlink:href="#DejaVuSans-72" x="308.341797"/>
      <use xlink:href="#DejaVuSans-64" x="347.705078"/>
     </g>
    </g>
    <g id="line2d_122">
     <path d="M 690.1164 480.87897 
L 700.1124 480.87897 
L 710.1084 480.87897 
" style="fill: none; stroke: #f7708e; stroke-width: 5; stroke-linecap: square"/>
    </g>
    <g id="text_45">
     <!-- Wicklow -->
     <g transform="translate(718.1052 484.37757)scale(0.09996 -0.09996)">
      <use xlink:href="#DejaVuSans-57"/>
      <use xlink:href="#DejaVuSans-69" x="96.626953"/>
      <use xlink:href="#DejaVuSans-63" x="124.410156"/>
      <use xlink:href="#DejaVuSans-6b" x="179.390625"/>
      <use xlink:href="#DejaVuSans-6c" x="237.300781"/>
      <use xlink:href="#DejaVuSans-6f" x="265.083984"/>
      <use xlink:href="#DejaVuSans-77" x="326.265625"/>
     </g>
    </g>
   </g>
  </g>
  <g id="text_46">
   <!-- Year -->
   <g transform="translate(383.295 547.2)scale(0.12 -0.12)">
    <defs>
     <path id="DejaVuSans-59" d="M -13 4666 
L 666 4666 
L 1959 2747 
L 3244 4666 
L 3922 4666 
L 2272 2222 
L 2272 0 
L 1638 0 
L 1638 2222 
L -13 4666 
z
" transform="scale(0.015625)"/>
    </defs>
    <use xlink:href="#DejaVuSans-59"/>
    <use xlink:href="#DejaVuSans-65" x="47.833984"/>
    <use xlink:href="#DejaVuSans-61" x="109.357422"/>
    <use xlink:href="#DejaVuSans-72" x="170.636719"/>
   </g>
  </g>
  <g id="text_47">
   <!-- Total Population -->
   <g transform="translate(42.91125 290.495625)rotate(-90)scale(0.12 -0.12)">
    <defs>
     <path id="DejaVuSans-20" transform="scale(0.015625)"/>
     <path id="DejaVuSans-50" d="M 1259 4147 
L 1259 2394 
L 2053 2394 
Q 2494 2394 2734 2622 
Q 2975 2850 2975 3272 
Q 2975 3691 2734 3919 
Q 2494 4147 2053 4147 
L 1259 4147 
z
M 628 4666 
L 2053 4666 
Q 2838 4666 3239 4311 
Q 3641 3956 3641 3272 
Q 3641 2581 3239 2228 
Q 2838 1875 2053 1875 
L 1259 1875 
L 1259 0 
L 628 0 
L 628 4666 
z
" transform="scale(0.015625)"/>
    </defs>
    <use xlink:href="#DejaVuSans-54"/>
    <use xlink:href="#DejaVuSans-6f" x="44.083984"/>
    <use xlink:href="#DejaVuSans-74" x="105.265625"/>
    <use xlink:href="#DejaVuSans-61" x="144.474609"/>
    <use xlink:href="#DejaVuSans-6c" x="205.753906"/>
    <use xlink:href="#DejaVuSans-20" x="233.537109"/>
    <use xlink:href="#DejaVuSans-50" x="265.324219"/>
    <use xlink:href="#DejaVuSans-6f" x="322.001953"/>
    <use xlink:href="#DejaVuSans-70" x="383.183594"/>
    <use xlink:href="#DejaVuSans-75" x="446.660156"/>
    <use xlink:href="#DejaVuSans-6c" x="510.039062"/>
    <use xlink:href="#DejaVuSans-61" x="537.822266"/>
    <use xlink:href="#DejaVuSans-74" x="599.101562"/>
    <use xlink:href="#DejaVuSans-69" x="638.310547"/>
    <use xlink:href="#DejaVuSans-6f" x="666.09375"/>
    <use xlink:href="#DejaVuSans-6e" x="727.275391"/>
   </g>
  </g>
 </g>
 <defs>
  <clipPath id="p3b4b04000a">
   <rect x="99" y="69.12" width="554.4" height="443.52"/>
  </clipPath>
 </defs>
</svg>
