<?xml version="1.0" encoding="utf-8" standalone="no"?>
<!DOCTYPE svg PUBLIC "-//W3C//DTD SVG 1.1//EN"
  "http://www.w3.org/Graphics/SVG/1.1/DTD/svg11.dtd">
<svg xmlns:xlink="http://www.w3.org/1999/xlink" width="792pt" height="576pt" viewBox="0 0 792 576" xmlns="http://www.w3.org/2000/svg" version="1.1">
 <metadata>
  <rdf:RDF xmlns:dc="http://purl.org/dc/elements/1.1/" xmlns:cc="http://creativecommons.org/ns#" xmlns:rdf="http://www.w3.org/1999/02/22-rdf-syntax-ns#">
   <cc:Work>
    <dc:type rdf:resource="http://purl.org/dc/dcmitype/StillImage"/>
    <dc:date>2021-12-02T04:07:06.041029</dc:date>
    <dc:format>image/svg+xml</dc:format>
    <dc:creator>
     <cc:Agent>
      <dc:title>Matplotlib v3.5.0, https://matplotlib.org/</dc:title>
     </cc:Agent>
    </dc:creator>
   </cc:Work>
  </rdf:RDF>
 </metadata>
 <defs>
  <style type="text/css">*{stroke-linejoin: round; stroke-linecap: butt}</style>
 </defs>
 <g id="figure_1">
  <g id="patch_1">
   <path d="M 0 576 
L 792 576 
L 792 0 
L 0 0 
z
" style="fill: #ffffff"/>
  </g>
  <g id="axes_1">
   <g id="patch_2">
    <path d="M 99 512.64 
L 653.4 512.64 
L 653.4 69.12 
L 99 69.12 
z
" style="fill: #e5e5e5"/>
   </g>
   <g id="matplotlib.axis_1">
    <g id="xtick_1">
     <g id="line2d_1">
      <path d="M 124.2 512.64 
L 124.2 69.12 
" clip-path="url(#p67d6a5a8b4)" style="fill: none; stroke: #ffffff; stroke-width: 1.4; stroke-linecap: square"/>
     </g>
     <g id="line2d_2">
      <defs>
       <path id="m72fb728592" d="M 0 0 
L 0 5 
" style="stroke: #7f7f7f; stroke-width: 1.4"/>
      </defs>
      <g>
       <use xlink:href="#m72fb728592" x="124.2" y="512.64" style="fill: #7f7f7f; stroke: #7f7f7f; stroke-width: 1.4"/>
      </g>
     </g>
     <g id="text_1">
      <!-- 2010 -->
      <g style="fill: #7f7f7f" transform="translate(108.93 527.758125)scale(0.12 -0.12)">
       <defs>
        <path id="DejaVuSans-32" d="M 1228 531 
L 3431 531 
L 3431 0 
L 469 0 
L 469 531 
Q 828 903 1448 1529 
Q 2069 2156 2228 2338 
Q 2531 2678 2651 2914 
Q 2772 3150 2772 3378 
Q 2772 3750 2511 3984 
Q 2250 4219 1831 4219 
Q 1534 4219 1204 4116 
Q 875 4013 500 3803 
L 500 4441 
Q 881 4594 1212 4672 
Q 1544 4750 1819 4750 
Q 2544 4750 2975 4387 
Q 3406 4025 3406 3419 
Q 3406 3131 3298 2873 
Q 3191 2616 2906 2266 
Q 2828 2175 2409 1742 
Q 1991 1309 1228 531 
z
" transform="scale(0.015625)"/>
        <path id="DejaVuSans-30" d="M 2034 4250 
Q 1547 4250 1301 3770 
Q 1056 3291 1056 2328 
Q 1056 1369 1301 889 
Q 1547 409 2034 409 
Q 2525 409 2770 889 
Q 3016 1369 3016 2328 
Q 3016 3291 2770 3770 
Q 2525 4250 2034 4250 
z
M 2034 4750 
Q 2819 4750 3233 4129 
Q 3647 3509 3647 2328 
Q 3647 1150 3233 529 
Q 2819 -91 2034 -91 
Q 1250 -91 836 529 
Q 422 1150 422 2328 
Q 422 3509 836 4129 
Q 1250 4750 2034 4750 
z
" transform="scale(0.015625)"/>
        <path id="DejaVuSans-31" d="M 794 531 
L 1825 531 
L 1825 4091 
L 703 3866 
L 703 4441 
L 1819 4666 
L 2450 4666 
L 2450 531 
L 3481 531 
L 3481 0 
L 794 0 
L 794 531 
z
" transform="scale(0.015625)"/>
       </defs>
       <use xlink:href="#DejaVuSans-32"/>
       <use xlink:href="#DejaVuSans-30" x="63.623047"/>
       <use xlink:href="#DejaVuSans-31" x="127.246094"/>
       <use xlink:href="#DejaVuSans-30" x="190.869141"/>
      </g>
     </g>
    </g>
    <g id="xtick_2">
     <g id="line2d_3">
      <path d="M 215.836364 512.64 
L 215.836364 69.12 
" clip-path="url(#p67d6a5a8b4)" style="fill: none; stroke: #ffffff; stroke-width: 1.4; stroke-linecap: square"/>
     </g>
     <g id="line2d_4">
      <g>
       <use xlink:href="#m72fb728592" x="215.836364" y="512.64" style="fill: #7f7f7f; stroke: #7f7f7f; stroke-width: 1.4"/>
      </g>
     </g>
     <g id="text_2">
      <!-- 2012 -->
      <g style="fill: #7f7f7f" transform="translate(200.566364 527.758125)scale(0.12 -0.12)">
       <use xlink:href="#DejaVuSans-32"/>
       <use xlink:href="#DejaVuSans-30" x="63.623047"/>
       <use xlink:href="#DejaVuSans-31" x="127.246094"/>
       <use xlink:href="#DejaVuSans-32" x="190.869141"/>
      </g>
     </g>
    </g>
    <g id="xtick_3">
     <g id="line2d_5">
      <path d="M 307.472727 512.64 
L 307.472727 69.12 
" clip-path="url(#p67d6a5a8b4)" style="fill: none; stroke: #ffffff; stroke-width: 1.4; stroke-linecap: square"/>
     </g>
     <g id="line2d_6">
      <g>
       <use xlink:href="#m72fb728592" x="307.472727" y="512.64" style="fill: #7f7f7f; stroke: #7f7f7f; stroke-width: 1.4"/>
      </g>
     </g>
     <g id="text_3">
      <!-- 2014 -->
      <g style="fill: #7f7f7f" transform="translate(292.202727 527.758125)scale(0.12 -0.12)">
       <defs>
        <path id="DejaVuSans-34" d="M 2419 4116 
L 825 1625 
L 2419 1625 
L 2419 4116 
z
M 2253 4666 
L 3047 4666 
L 3047 1625 
L 3713 1625 
L 3713 1100 
L 3047 1100 
L 3047 0 
L 2419 0 
L 2419 1100 
L 313 1100 
L 313 1709 
L 2253 4666 
z
" transform="scale(0.015625)"/>
       </defs>
       <use xlink:href="#DejaVuSans-32"/>
       <use xlink:href="#DejaVuSans-30" x="63.623047"/>
       <use xlink:href="#DejaVuSans-31" x="127.246094"/>
       <use xlink:href="#DejaVuSans-34" x="190.869141"/>
      </g>
     </g>
    </g>
    <g id="xtick_4">
     <g id="line2d_7">
      <path d="M 399.109091 512.64 
L 399.109091 69.12 
" clip-path="url(#p67d6a5a8b4)" style="fill: none; stroke: #ffffff; stroke-width: 1.4; stroke-linecap: square"/>
     </g>
     <g id="line2d_8">
      <g>
       <use xlink:href="#m72fb728592" x="399.109091" y="512.64" style="fill: #7f7f7f; stroke: #7f7f7f; stroke-width: 1.4"/>
      </g>
     </g>
     <g id="text_4">
      <!-- 2016 -->
      <g style="fill: #7f7f7f" transform="translate(383.839091 527.758125)scale(0.12 -0.12)">
       <defs>
        <path id="DejaVuSans-36" d="M 2113 2584 
Q 1688 2584 1439 2293 
Q 1191 2003 1191 1497 
Q 1191 994 1439 701 
Q 1688 409 2113 409 
Q 2538 409 2786 701 
Q 3034 994 3034 1497 
Q 3034 2003 2786 2293 
Q 2538 2584 2113 2584 
z
M 3366 4563 
L 3366 3988 
Q 3128 4100 2886 4159 
Q 2644 4219 2406 4219 
Q 1781 4219 1451 3797 
Q 1122 3375 1075 2522 
Q 1259 2794 1537 2939 
Q 1816 3084 2150 3084 
Q 2853 3084 3261 2657 
Q 3669 2231 3669 1497 
Q 3669 778 3244 343 
Q 2819 -91 2113 -91 
Q 1303 -91 875 529 
Q 447 1150 447 2328 
Q 447 3434 972 4092 
Q 1497 4750 2381 4750 
Q 2619 4750 2861 4703 
Q 3103 4656 3366 4563 
z
" transform="scale(0.015625)"/>
       </defs>
       <use xlink:href="#DejaVuSans-32"/>
       <use xlink:href="#DejaVuSans-30" x="63.623047"/>
       <use xlink:href="#DejaVuSans-31" x="127.246094"/>
       <use xlink:href="#DejaVuSans-36" x="190.869141"/>
      </g>
     </g>
    </g>
    <g id="xtick_5">
     <g id="line2d_9">
      <path d="M 490.745455 512.64 
L 490.745455 69.12 
" clip-path="url(#p67d6a5a8b4)" style="fill: none; stroke: #ffffff; stroke-width: 1.4; stroke-linecap: square"/>
     </g>
     <g id="line2d_10">
      <g>
       <use xlink:href="#m72fb728592" x="490.745455" y="512.64" style="fill: #7f7f7f; stroke: #7f7f7f; stroke-width: 1.4"/>
      </g>
     </g>
     <g id="text_5">
      <!-- 2018 -->
      <g style="fill: #7f7f7f" transform="translate(475.475455 527.758125)scale(0.12 -0.12)">
       <defs>
        <path id="DejaVuSans-38" d="M 2034 2216 
Q 1584 2216 1326 1975 
Q 1069 1734 1069 1313 
Q 1069 891 1326 650 
Q 1584 409 2034 409 
Q 2484 409 2743 651 
Q 3003 894 3003 1313 
Q 3003 1734 2745 1975 
Q 2488 2216 2034 2216 
z
M 1403 2484 
Q 997 2584 770 2862 
Q 544 3141 544 3541 
Q 544 4100 942 4425 
Q 1341 4750 2034 4750 
Q 2731 4750 3128 4425 
Q 3525 4100 3525 3541 
Q 3525 3141 3298 2862 
Q 3072 2584 2669 2484 
Q 3125 2378 3379 2068 
Q 3634 1759 3634 1313 
Q 3634 634 3220 271 
Q 2806 -91 2034 -91 
Q 1263 -91 848 271 
Q 434 634 434 1313 
Q 434 1759 690 2068 
Q 947 2378 1403 2484 
z
M 1172 3481 
Q 1172 3119 1398 2916 
Q 1625 2713 2034 2713 
Q 2441 2713 2670 2916 
Q 2900 3119 2900 3481 
Q 2900 3844 2670 4047 
Q 2441 4250 2034 4250 
Q 1625 4250 1398 4047 
Q 1172 3844 1172 3481 
z
" transform="scale(0.015625)"/>
       </defs>
       <use xlink:href="#DejaVuSans-32"/>
       <use xlink:href="#DejaVuSans-30" x="63.623047"/>
       <use xlink:href="#DejaVuSans-31" x="127.246094"/>
       <use xlink:href="#DejaVuSans-38" x="190.869141"/>
      </g>
     </g>
    </g>
    <g id="xtick_6">
     <g id="line2d_11">
      <path d="M 582.381818 512.64 
L 582.381818 69.12 
" clip-path="url(#p67d6a5a8b4)" style="fill: none; stroke: #ffffff; stroke-width: 1.4; stroke-linecap: square"/>
     </g>
     <g id="line2d_12">
      <g>
       <use xlink:href="#m72fb728592" x="582.381818" y="512.64" style="fill: #7f7f7f; stroke: #7f7f7f; stroke-width: 1.4"/>
      </g>
     </g>
     <g id="text_6">
      <!-- 2020 -->
      <g style="fill: #7f7f7f" transform="translate(567.111818 527.758125)scale(0.12 -0.12)">
       <use xlink:href="#DejaVuSans-32"/>
       <use xlink:href="#DejaVuSans-30" x="63.623047"/>
       <use xlink:href="#DejaVuSans-32" x="127.246094"/>
       <use xlink:href="#DejaVuSans-30" x="190.869141"/>
      </g>
     </g>
    </g>
    <g id="xtick_7">
     <g id="line2d_13">
      <path d="M 170.018182 512.64 
L 170.018182 69.12 
" clip-path="url(#p67d6a5a8b4)" style="fill: none; stroke: #f2f2f2; stroke-width: 0.7; stroke-linecap: square"/>
     </g>
     <g id="line2d_14"/>
    </g>
    <g id="xtick_8">
     <g id="line2d_15">
      <path d="M 261.654545 512.64 
L 261.654545 69.12 
" clip-path="url(#p67d6a5a8b4)" style="fill: none; stroke: #f2f2f2; stroke-width: 0.7; stroke-linecap: square"/>
     </g>
     <g id="line2d_16"/>
    </g>
    <g id="xtick_9">
     <g id="line2d_17">
      <path d="M 353.290909 512.64 
L 353.290909 69.12 
" clip-path="url(#p67d6a5a8b4)" style="fill: none; stroke: #f2f2f2; stroke-width: 0.7; stroke-linecap: square"/>
     </g>
     <g id="line2d_18"/>
    </g>
    <g id="xtick_10">
     <g id="line2d_19">
      <path d="M 444.927273 512.64 
L 444.927273 69.12 
" clip-path="url(#p67d6a5a8b4)" style="fill: none; stroke: #f2f2f2; stroke-width: 0.7; stroke-linecap: square"/>
     </g>
     <g id="line2d_20"/>
    </g>
    <g id="xtick_11">
     <g id="line2d_21">
      <path d="M 536.563636 512.64 
L 536.563636 69.12 
" clip-path="url(#p67d6a5a8b4)" style="fill: none; stroke: #f2f2f2; stroke-width: 0.7; stroke-linecap: square"/>
     </g>
     <g id="line2d_22"/>
    </g>
    <g id="xtick_12">
     <g id="line2d_23">
      <path d="M 628.2 512.64 
L 628.2 69.12 
" clip-path="url(#p67d6a5a8b4)" style="fill: none; stroke: #f2f2f2; stroke-width: 0.7; stroke-linecap: square"/>
     </g>
     <g id="line2d_24"/>
    </g>
   </g>
   <g id="matplotlib.axis_2">
    <g id="ytick_1">
     <g id="line2d_25">
      <path d="M 99 469.738645 
L 653.4 469.738645 
" clip-path="url(#p67d6a5a8b4)" style="fill: none; stroke: #ffffff; stroke-width: 1.4; stroke-linecap: square"/>
     </g>
     <g id="line2d_26">
      <defs>
       <path id="m02daaa5da2" d="M 0 0 
L -5 0 
" style="stroke: #7f7f7f; stroke-width: 1.4"/>
      </defs>
      <g>
       <use xlink:href="#m02daaa5da2" x="99" y="469.738645" style="fill: #7f7f7f; stroke: #7f7f7f; stroke-width: 1.4"/>
      </g>
     </g>
     <g id="text_7">
      <!-- 100000 -->
      <g style="fill: #7f7f7f" transform="translate(47.19 474.297708)scale(0.12 -0.12)">
       <use xlink:href="#DejaVuSans-31"/>
       <use xlink:href="#DejaVuSans-30" x="63.623047"/>
       <use xlink:href="#DejaVuSans-30" x="127.246094"/>
       <use xlink:href="#DejaVuSans-30" x="190.869141"/>
       <use xlink:href="#DejaVuSans-30" x="254.492188"/>
       <use xlink:href="#DejaVuSans-30" x="318.115234"/>
      </g>
     </g>
    </g>
    <g id="ytick_2">
     <g id="line2d_27">
      <path d="M 99 374.567242 
L 653.4 374.567242 
" clip-path="url(#p67d6a5a8b4)" style="fill: none; stroke: #ffffff; stroke-width: 1.4; stroke-linecap: square"/>
     </g>
     <g id="line2d_28">
      <g>
       <use xlink:href="#m02daaa5da2" x="99" y="374.567242" style="fill: #7f7f7f; stroke: #7f7f7f; stroke-width: 1.4"/>
      </g>
     </g>
     <g id="text_8">
      <!-- 200000 -->
      <g style="fill: #7f7f7f" transform="translate(47.19 379.126305)scale(0.12 -0.12)">
       <use xlink:href="#DejaVuSans-32"/>
       <use xlink:href="#DejaVuSans-30" x="63.623047"/>
       <use xlink:href="#DejaVuSans-30" x="127.246094"/>
       <use xlink:href="#DejaVuSans-30" x="190.869141"/>
       <use xlink:href="#DejaVuSans-30" x="254.492188"/>
       <use xlink:href="#DejaVuSans-30" x="318.115234"/>
      </g>
     </g>
    </g>
    <g id="ytick_3">
     <g id="line2d_29">
      <path d="M 99 279.395839 
L 653.4 279.395839 
" clip-path="url(#p67d6a5a8b4)" style="fill: none; stroke: #ffffff; stroke-width: 1.4; stroke-linecap: square"/>
     </g>
     <g id="line2d_30">
      <g>
       <use xlink:href="#m02daaa5da2" x="99" y="279.395839" style="fill: #7f7f7f; stroke: #7f7f7f; stroke-width: 1.4"/>
      </g>
     </g>
     <g id="text_9">
      <!-- 300000 -->
      <g style="fill: #7f7f7f" transform="translate(47.19 283.954902)scale(0.12 -0.12)">
       <defs>
        <path id="DejaVuSans-33" d="M 2597 2516 
Q 3050 2419 3304 2112 
Q 3559 1806 3559 1356 
Q 3559 666 3084 287 
Q 2609 -91 1734 -91 
Q 1441 -91 1130 -33 
Q 819 25 488 141 
L 488 750 
Q 750 597 1062 519 
Q 1375 441 1716 441 
Q 2309 441 2620 675 
Q 2931 909 2931 1356 
Q 2931 1769 2642 2001 
Q 2353 2234 1838 2234 
L 1294 2234 
L 1294 2753 
L 1863 2753 
Q 2328 2753 2575 2939 
Q 2822 3125 2822 3475 
Q 2822 3834 2567 4026 
Q 2313 4219 1838 4219 
Q 1578 4219 1281 4162 
Q 984 4106 628 3988 
L 628 4550 
Q 988 4650 1302 4700 
Q 1616 4750 1894 4750 
Q 2613 4750 3031 4423 
Q 3450 4097 3450 3541 
Q 3450 3153 3228 2886 
Q 3006 2619 2597 2516 
z
" transform="scale(0.015625)"/>
       </defs>
       <use xlink:href="#DejaVuSans-33"/>
       <use xlink:href="#DejaVuSans-30" x="63.623047"/>
       <use xlink:href="#DejaVuSans-30" x="127.246094"/>
       <use xlink:href="#DejaVuSans-30" x="190.869141"/>
       <use xlink:href="#DejaVuSans-30" x="254.492188"/>
       <use xlink:href="#DejaVuSans-30" x="318.115234"/>
      </g>
     </g>
    </g>
    <g id="ytick_4">
     <g id="line2d_31">
      <path d="M 99 184.224436 
L 653.4 184.224436 
" clip-path="url(#p67d6a5a8b4)" style="fill: none; stroke: #ffffff; stroke-width: 1.4; stroke-linecap: square"/>
     </g>
     <g id="line2d_32">
      <g>
       <use xlink:href="#m02daaa5da2" x="99" y="184.224436" style="fill: #7f7f7f; stroke: #7f7f7f; stroke-width: 1.4"/>
      </g>
     </g>
     <g id="text_10">
      <!-- 400000 -->
      <g style="fill: #7f7f7f" transform="translate(47.19 188.783499)scale(0.12 -0.12)">
       <use xlink:href="#DejaVuSans-34"/>
       <use xlink:href="#DejaVuSans-30" x="63.623047"/>
       <use xlink:href="#DejaVuSans-30" x="127.246094"/>
       <use xlink:href="#DejaVuSans-30" x="190.869141"/>
       <use xlink:href="#DejaVuSans-30" x="254.492188"/>
       <use xlink:href="#DejaVuSans-30" x="318.115234"/>
      </g>
     </g>
    </g>
    <g id="ytick_5">
     <g id="line2d_33">
      <path d="M 99 89.053033 
L 653.4 89.053033 
" clip-path="url(#p67d6a5a8b4)" style="fill: none; stroke: #ffffff; stroke-width: 1.4; stroke-linecap: square"/>
     </g>
     <g id="line2d_34">
      <g>
       <use xlink:href="#m02daaa5da2" x="99" y="89.053033" style="fill: #7f7f7f; stroke: #7f7f7f; stroke-width: 1.4"/>
      </g>
     </g>
     <g id="text_11">
      <!-- 500000 -->
      <g style="fill: #7f7f7f" transform="translate(47.19 93.612096)scale(0.12 -0.12)">
       <defs>
        <path id="DejaVuSans-35" d="M 691 4666 
L 3169 4666 
L 3169 4134 
L 1269 4134 
L 1269 2991 
Q 1406 3038 1543 3061 
Q 1681 3084 1819 3084 
Q 2600 3084 3056 2656 
Q 3513 2228 3513 1497 
Q 3513 744 3044 326 
Q 2575 -91 1722 -91 
Q 1428 -91 1123 -41 
Q 819 9 494 109 
L 494 744 
Q 775 591 1075 516 
Q 1375 441 1709 441 
Q 2250 441 2565 725 
Q 2881 1009 2881 1497 
Q 2881 1984 2565 2268 
Q 2250 2553 1709 2553 
Q 1456 2553 1204 2497 
Q 953 2441 691 2322 
L 691 4666 
z
" transform="scale(0.015625)"/>
       </defs>
       <use xlink:href="#DejaVuSans-35"/>
       <use xlink:href="#DejaVuSans-30" x="63.623047"/>
       <use xlink:href="#DejaVuSans-30" x="127.246094"/>
       <use xlink:href="#DejaVuSans-30" x="190.869141"/>
       <use xlink:href="#DejaVuSans-30" x="254.492188"/>
       <use xlink:href="#DejaVuSans-30" x="318.115234"/>
      </g>
     </g>
    </g>
    <g id="ytick_6">
     <g id="line2d_35">
      <path d="M 99 422.152944 
L 653.4 422.152944 
" clip-path="url(#p67d6a5a8b4)" style="fill: none; stroke: #f2f2f2; stroke-width: 0.7; stroke-linecap: square"/>
     </g>
     <g id="line2d_36"/>
    </g>
    <g id="ytick_7">
     <g id="line2d_37">
      <path d="M 99 326.981541 
L 653.4 326.981541 
" clip-path="url(#p67d6a5a8b4)" style="fill: none; stroke: #f2f2f2; stroke-width: 0.7; stroke-linecap: square"/>
     </g>
     <g id="line2d_38"/>
    </g>
    <g id="ytick_8">
     <g id="line2d_39">
      <path d="M 99 231.810138 
L 653.4 231.810138 
" clip-path="url(#p67d6a5a8b4)" style="fill: none; stroke: #f2f2f2; stroke-width: 0.7; stroke-linecap: square"/>
     </g>
     <g id="line2d_40"/>
    </g>
    <g id="ytick_9">
     <g id="line2d_41">
      <path d="M 99 136.638735 
L 653.4 136.638735 
" clip-path="url(#p67d6a5a8b4)" style="fill: none; stroke: #f2f2f2; stroke-width: 0.7; stroke-linecap: square"/>
     </g>
     <g id="line2d_42"/>
    </g>
   </g>
   <g id="line2d_43">
    <path d="M 124.2 385.948401 
L 170.018182 416.361726 
L 215.836364 455.874067 
L 261.654545 452.875659 
L 307.472727 453.14801 
L 353.290909 438.437614 
L 399.109091 423.498518 
L 444.927273 412.642707 
L 490.745455 392.503245 
L 536.563636 393.488376 
L 582.381818 377.022827 
L 628.2 364.130394 
" clip-path="url(#p67d6a5a8b4)" style="fill: none; stroke: #f7746a; stroke-linecap: square"/>
   </g>
   <g id="line2d_44">
    <path d="M 124.2 412.353365 
L 170.018182 433.269784 
L 215.836364 457.190029 
L 261.654545 478.581068 
L 307.472727 487.870373 
L 353.290909 479.720421 
L 399.109091 465.658301 
L 444.927273 456.521545 
L 490.745455 446.436369 
L 536.563636 432.260029 
L 582.381818 432.573271 
L 628.2 417.535111 
" clip-path="url(#p67d6a5a8b4)" style="fill: none; stroke: #f07c32; stroke-linecap: square"/>
   </g>
   <g id="line2d_45">
    <path d="M 124.2 391.762387 
L 170.018182 408.876905 
L 215.836364 433.088262 
L 261.654545 450.517325 
L 307.472727 456.212792 
L 353.290909 447.897362 
L 399.109091 429.643685 
L 444.927273 416.717027 
L 490.745455 398.090316 
L 536.563636 385.460561 
L 582.381818 379.898141 
L 628.2 368.130034 
" clip-path="url(#p67d6a5a8b4)" style="fill: none; stroke: #d78b32; stroke-linecap: square"/>
   </g>
   <g id="line2d_46">
    <path d="M 124.2 329.9759 
L 170.018182 363.698655 
L 215.836364 393.040756 
L 261.654545 401.56022 
L 307.472727 396.10373 
L 353.290909 379.313326 
L 399.109091 360.576775 
L 444.927273 346.869886 
L 490.745455 322.595122 
L 536.563636 309.001737 
L 582.381818 304.600745 
L 628.2 294.678957 
" clip-path="url(#p67d6a5a8b4)" style="fill: none; stroke: #c49432; stroke-linecap: square"/>
   </g>
   <g id="line2d_47">
    <path d="M 124.2 400.971423 
L 170.018182 426.4792 
L 215.836364 450.157313 
L 261.654545 467.169564 
L 307.472727 469.590119 
L 353.290909 455.438059 
L 399.109091 456.065292 
L 444.927273 444.414777 
L 490.745455 447.218205 
L 536.563636 438.082167 
L 582.381818 425.467755 
L 628.2 419.591129 
" clip-path="url(#p67d6a5a8b4)" style="fill: none; stroke: #b49b32; stroke-linecap: square"/>
   </g>
   <g id="line2d_48">
    <path d="M 124.2 241.297387 
L 170.018182 259.995654 
L 215.836364 285.896683 
L 261.654545 264.370352 
L 307.472727 230.659088 
L 353.290909 214.349832 
L 399.109091 186.177586 
L 444.927273 158.567355 
L 490.745455 140.731879 
L 536.563636 148.408314 
L 582.381818 138.919156 
L 628.2 89.28 
" clip-path="url(#p67d6a5a8b4)" style="fill: none; stroke: #a3a031; stroke-linecap: square"/>
   </g>
   <g id="line2d_49">
    <path d="M 124.2 336.628649 
L 170.018182 372.443035 
L 215.836364 395.828336 
L 261.654545 405.160343 
L 307.472727 406.240152 
L 353.290909 398.704024 
L 399.109091 378.362163 
L 444.927273 360.780156 
L 490.745455 339.074067 
L 536.563636 328.899474 
L 582.381818 318.60154 
L 628.2 303.623935 
" clip-path="url(#p67d6a5a8b4)" style="fill: none; stroke: #90a531; stroke-linecap: square"/>
   </g>
   <g id="line2d_50">
    <path d="M 124.2 367.722979 
L 170.018182 396.326828 
L 215.836364 411.601835 
L 261.654545 438.015706 
L 307.472727 435.95681 
L 353.290909 432.137217 
L 399.109091 421.344187 
L 444.927273 407.626253 
L 490.745455 395.177994 
L 536.563636 383.324292 
L 582.381818 376.51108 
L 628.2 359.366341 
" clip-path="url(#p67d6a5a8b4)" style="fill: none; stroke: #77ab31; stroke-linecap: square"/>
   </g>
   <g id="line2d_51">
    <path d="M 124.2 321.41563 
L 170.018182 346.4701 
L 215.836364 379.345085 
L 261.654545 372.849381 
L 307.472727 344.081742 
L 353.290909 329.908147 
L 399.109091 314.042624 
L 444.927273 299.234288 
L 490.745455 277.111694 
L 536.563636 268.792338 
L 582.381818 259.029733 
L 628.2 244.333571 
" clip-path="url(#p67d6a5a8b4)" style="fill: none; stroke: #43b231; stroke-linecap: square"/>
   </g>
   <g id="line2d_52">
    <path d="M 124.2 370.781495 
L 170.018182 398.740516 
L 215.836364 428.007463 
L 261.654545 426.330176 
L 307.472727 421.668521 
L 353.290909 395.119144 
L 399.109091 378.735648 
L 444.927273 382.135067 
L 490.745455 352.30824 
L 536.563636 344.828711 
L 582.381818 345.293254 
L 628.2 313.494606 
" clip-path="url(#p67d6a5a8b4)" style="fill: none; stroke: #33b169; stroke-linecap: square"/>
   </g>
   <g id="line2d_53">
    <path d="M 124.2 396.145818 
L 170.018182 434.414495 
L 215.836364 466.153621 
L 261.654545 463.108436 
L 307.472727 465.895734 
L 353.290909 441.390708 
L 399.109091 435.92618 
L 444.927273 414.463904 
L 490.745455 404.756743 
L 536.563636 390.060195 
L 582.381818 385.136085 
L 628.2 366.316193 
" clip-path="url(#p67d6a5a8b4)" style="fill: none; stroke: #34af84; stroke-linecap: square"/>
   </g>
   <g id="line2d_54">
    <path d="M 124.2 421.107537 
L 170.018182 445.823269 
L 215.836364 467.36851 
L 261.654545 485.763355 
L 307.472727 486.096367 
L 353.290909 473.519523 
L 399.109091 478.541085 
L 444.927273 457.247141 
L 490.745455 450.726983 
L 536.563636 449.66138 
L 582.381818 443.409401 
L 628.2 424.209228 
" clip-path="url(#p67d6a5a8b4)" style="fill: none; stroke: #35ae95; stroke-linecap: square"/>
   </g>
   <g id="line2d_55">
    <path d="M 124.2 369.508396 
L 170.018182 392.690791 
L 215.836364 406.748645 
L 261.654545 425.964251 
L 307.472727 437.004195 
L 353.290909 424.634403 
L 399.109091 408.503946 
L 444.927273 395.410629 
L 490.745455 372.528561 
L 536.563636 363.184878 
L 582.381818 351.913257 
L 628.2 337.955831 
" clip-path="url(#p67d6a5a8b4)" style="fill: none; stroke: #36ada2; stroke-linecap: square"/>
   </g>
   <g id="line2d_56">
    <path d="M 124.2 415.431098 
L 170.018182 454.70989 
L 215.836364 478.329146 
L 261.654545 492.48 
L 307.472727 491.364936 
L 353.290909 487.520942 
L 399.109091 480.916598 
L 444.927273 467.871858 
L 490.745455 459.679104 
L 536.563636 442.283386 
L 582.381818 446.306001 
L 628.2 432.394545 
" clip-path="url(#p67d6a5a8b4)" style="fill: none; stroke: #36acae; stroke-linecap: square"/>
   </g>
   <g id="line2d_57">
    <path d="M 124.2 372.91355 
L 170.018182 401.833173 
L 215.836364 423.859082 
L 261.654545 434.147619 
L 307.472727 423.699612 
L 353.290909 410.021459 
L 399.109091 390.061793 
L 444.927273 365.874204 
L 490.745455 343.359056 
L 536.563636 338.994488 
L 582.381818 333.601457 
L 628.2 314.787725 
" clip-path="url(#p67d6a5a8b4)" style="fill: none; stroke: #37aaba; stroke-linecap: square"/>
   </g>
   <g id="line2d_58">
    <path d="M 124.2 395.972101 
L 170.018182 415.890899 
L 215.836364 445.306279 
L 261.654545 452.153472 
L 307.472727 461.265554 
L 353.290909 453.958718 
L 399.109091 450.945158 
L 444.927273 437.734425 
L 490.745455 432.788768 
L 536.563636 423.012302 
L 582.381818 419.896872 
L 628.2 402.639924 
" clip-path="url(#p67d6a5a8b4)" style="fill: none; stroke: #38a8c9; stroke-linecap: square"/>
   </g>
   <g id="line2d_59">
    <path d="M 124.2 342.565424 
L 170.018182 376.862747 
L 215.836364 401.271436 
L 261.654545 412.402092 
L 307.472727 390.491389 
L 353.290909 378.134344 
L 399.109091 358.597107 
L 444.927273 332.956387 
L 490.745455 315.609865 
L 536.563636 297.979863 
L 582.381818 300.443455 
L 628.2 292.82958 
" clip-path="url(#p67d6a5a8b4)" style="fill: none; stroke: #3aa6dd; stroke-linecap: square"/>
   </g>
   <g id="line2d_60">
    <path d="M 124.2 401.307545 
L 170.018182 428.427806 
L 215.836364 441.562041 
L 261.654545 468.396705 
L 307.472727 468.3904 
L 353.290909 449.44557 
L 399.109091 438.757961 
L 444.927273 435.559027 
L 490.745455 416.013296 
L 536.563636 416.236866 
L 582.381818 411.449169 
L 628.2 391.171755 
" clip-path="url(#p67d6a5a8b4)" style="fill: none; stroke: #569ff4; stroke-linecap: square"/>
   </g>
   <g id="line2d_61">
    <path d="M 124.2 395.78587 
L 170.018182 429.814153 
L 215.836364 443.357191 
L 261.654545 460.078408 
L 307.472727 447.768553 
L 353.290909 453.482888 
L 399.109091 451.421016 
L 444.927273 422.292919 
L 490.745455 409.950623 
L 536.563636 404.910279 
L 582.381818 392.899087 
L 628.2 381.162882 
" clip-path="url(#p67d6a5a8b4)" style="fill: none; stroke: #8b94f4; stroke-linecap: square"/>
   </g>
   <g id="line2d_62">
    <path d="M 124.2 418.941724 
L 170.018182 456.77329 
L 215.836364 475.566236 
L 261.654545 488.152297 
L 307.472727 488.285021 
L 353.290909 483.923896 
L 399.109091 478.910849 
L 444.927273 469.705982 
L 490.745455 463.668272 
L 536.563636 449.842778 
L 582.381818 449.655594 
L 628.2 435.28723 
" clip-path="url(#p67d6a5a8b4)" style="fill: none; stroke: #ae88f4; stroke-linecap: square"/>
   </g>
   <g id="line2d_63">
    <path d="M 124.2 390.101572 
L 170.018182 431.136556 
L 215.836364 452.946302 
L 261.654545 457.473681 
L 307.472727 451.587885 
L 353.290909 452.420157 
L 399.109091 449.746319 
L 444.927273 433.819189 
L 490.745455 424.45644 
L 536.563636 409.097715 
L 582.381818 420.56687 
L 628.2 399.819198 
" clip-path="url(#p67d6a5a8b4)" style="fill: none; stroke: #cd79f4; stroke-linecap: square"/>
   </g>
   <g id="line2d_64">
    <path d="M 124.2 401.388421 
L 170.018182 405.489511 
L 215.836364 450.802003 
L 261.654545 461.690549 
L 307.472727 456.706932 
L 353.290909 454.171887 
L 399.109091 447.31092 
L 444.927273 438.108477 
L 490.745455 425.379017 
L 536.563636 412.874333 
L 582.381818 412.430572 
L 628.2 393.48311 
" clip-path="url(#p67d6a5a8b4)" style="fill: none; stroke: #ed62f4; stroke-linecap: square"/>
   </g>
   <g id="line2d_65">
    <path d="M 124.2 370.389262 
L 170.018182 418.751518 
L 215.836364 440.828478 
L 261.654545 450.179835 
L 307.472727 444.635612 
L 353.290909 440.884794 
L 399.109091 425.445324 
L 444.927273 401.551013 
L 490.745455 392.287966 
L 536.563636 379.065383 
L 582.381818 361.6659 
L 628.2 350.701849 
" clip-path="url(#p67d6a5a8b4)" style="fill: none; stroke: #f562db; stroke-linecap: square"/>
   </g>
   <g id="line2d_66">
    <path d="M 124.2 399.596246 
L 170.018182 423.558797 
L 215.836364 451.88706 
L 261.654545 455.198335 
L 307.472727 457.757606 
L 353.290909 448.698961 
L 399.109091 432.260151 
L 444.927273 411.673834 
L 490.745455 393.326997 
L 536.563636 383.247759 
L 582.381818 377.908305 
L 628.2 356.411619 
" clip-path="url(#p67d6a5a8b4)" style="fill: none; stroke: #f668c2; stroke-linecap: square"/>
   </g>
   <g id="line2d_67">
    <path d="M 124.2 386.163907 
L 170.018182 420.053983 
L 215.836364 439.400381 
L 261.654545 451.662382 
L 307.472727 444.428622 
L 353.290909 434.079462 
L 399.109091 420.207472 
L 444.927273 406.622401 
L 490.745455 388.857936 
L 536.563636 382.479927 
L 582.381818 369.864802 
L 628.2 352.509211 
" clip-path="url(#p67d6a5a8b4)" style="fill: none; stroke: #f66caa; stroke-linecap: square"/>
   </g>
   <g id="line2d_68">
    <path d="M 124.2 258.023715 
L 170.018182 305.648491 
L 215.836364 332.156977 
L 261.654545 317.414094 
L 307.472727 295.145411 
L 353.290909 267.835352 
L 399.109091 251.434548 
L 444.927273 231.333948 
L 490.745455 216.170854 
L 536.563636 213.174482 
L 582.381818 186.756565 
L 628.2 146.650598 
" clip-path="url(#p67d6a5a8b4)" style="fill: none; stroke: #f7708e; stroke-linecap: square"/>
   </g>
   <g id="patch_3">
    <path d="M 99 512.64 
L 99 69.12 
" style="fill: none; opacity: 0"/>
   </g>
   <g id="patch_4">
    <path d="M 653.4 512.64 
L 653.4 69.12 
" style="fill: none; opacity: 0"/>
   </g>
   <g id="patch_5">
    <path d="M 99 512.64 
L 653.4 512.64 
" style="fill: none; opacity: 0"/>
   </g>
   <g id="patch_6">
    <path d="M 99 69.12 
L 653.4 69.12 
" style="fill: none; opacity: 0"/>
   </g>
   <g id="legend_1">
    <g id="patch_7">
     <path d="M 690.1164 102.898973 
L 710.1084 102.898973 
L 710.1084 95.901773 
L 690.1164 95.901773 
L 690.1164 102.898973 
z
" style="fill: none"/>
    </g>
    <g id="text_12">
     <!-- County -->
     <g transform="translate(718.1052 102.898973)scale(0.09996 -0.09996)">
      <defs>
       <path id="DejaVuSans-43" d="M 4122 4306 
L 4122 3641 
Q 3803 3938 3442 4084 
Q 3081 4231 2675 4231 
Q 1875 4231 1450 3742 
Q 1025 3253 1025 2328 
Q 1025 1406 1450 917 
Q 1875 428 2675 428 
Q 3081 428 3442 575 
Q 3803 722 4122 1019 
L 4122 359 
Q 3791 134 3420 21 
Q 3050 -91 2638 -91 
Q 1578 -91 968 557 
Q 359 1206 359 2328 
Q 359 3453 968 4101 
Q 1578 4750 2638 4750 
Q 3056 4750 3426 4639 
Q 3797 4528 4122 4306 
z
" transform="scale(0.015625)"/>
       <path id="DejaVuSans-6f" d="M 1959 3097 
Q 1497 3097 1228 2736 
Q 959 2375 959 1747 
Q 959 1119 1226 758 
Q 1494 397 1959 397 
Q 2419 397 2687 759 
Q 2956 1122 2956 1747 
Q 2956 2369 2687 2733 
Q 2419 3097 1959 3097 
z
M 1959 3584 
Q 2709 3584 3137 3096 
Q 3566 2609 3566 1747 
Q 3566 888 3137 398 
Q 2709 -91 1959 -91 
Q 1206 -91 779 398 
Q 353 888 353 1747 
Q 353 2609 779 3096 
Q 1206 3584 1959 3584 
z
" transform="scale(0.015625)"/>
       <path id="DejaVuSans-75" d="M 544 1381 
L 544 3500 
L 1119 3500 
L 1119 1403 
Q 1119 906 1312 657 
Q 1506 409 1894 409 
Q 2359 409 2629 706 
Q 2900 1003 2900 1516 
L 2900 3500 
L 3475 3500 
L 3475 0 
L 2900 0 
L 2900 538 
Q 2691 219 2414 64 
Q 2138 -91 1772 -91 
Q 1169 -91 856 284 
Q 544 659 544 1381 
z
M 1991 3584 
L 1991 3584 
z
" transform="scale(0.015625)"/>
       <path id="DejaVuSans-6e" d="M 3513 2113 
L 3513 0 
L 2938 0 
L 2938 2094 
Q 2938 2591 2744 2837 
Q 2550 3084 2163 3084 
Q 1697 3084 1428 2787 
Q 1159 2491 1159 1978 
L 1159 0 
L 581 0 
L 581 3500 
L 1159 3500 
L 1159 2956 
Q 1366 3272 1645 3428 
Q 1925 3584 2291 3584 
Q 2894 3584 3203 3211 
Q 3513 2838 3513 2113 
z
" transform="scale(0.015625)"/>
       <path id="DejaVuSans-74" d="M 1172 4494 
L 1172 3500 
L 2356 3500 
L 2356 3053 
L 1172 3053 
L 1172 1153 
Q 1172 725 1289 603 
Q 1406 481 1766 481 
L 2356 481 
L 2356 0 
L 1766 0 
Q 1100 0 847 248 
Q 594 497 594 1153 
L 594 3053 
L 172 3053 
L 172 3500 
L 594 3500 
L 594 4494 
L 1172 4494 
z
" transform="scale(0.015625)"/>
       <path id="DejaVuSans-79" d="M 2059 -325 
Q 1816 -950 1584 -1140 
Q 1353 -1331 966 -1331 
L 506 -1331 
L 506 -850 
L 844 -850 
Q 1081 -850 1212 -737 
Q 1344 -625 1503 -206 
L 1606 56 
L 191 3500 
L 800 3500 
L 1894 763 
L 2988 3500 
L 3597 3500 
L 2059 -325 
z
" transform="scale(0.015625)"/>
      </defs>
      <use xlink:href="#DejaVuSans-43"/>
      <use xlink:href="#DejaVuSans-6f" x="69.824219"/>
      <use xlink:href="#DejaVuSans-75" x="131.005859"/>
      <use xlink:href="#DejaVuSans-6e" x="194.384766"/>
      <use xlink:href="#DejaVuSans-74" x="257.763672"/>
      <use xlink:href="#DejaVuSans-79" x="296.972656"/>
     </g>
    </g>
    <g id="line2d_69">
     <path d="M 690.1164 114.072626 
L 700.1124 114.072626 
L 710.1084 114.072626 
" style="fill: none; stroke: #f7746a; stroke-width: 5; stroke-linecap: square"/>
    </g>
    <g id="text_13">
     <!-- Carlow -->
     <g transform="translate(718.1052 117.571226)scale(0.09996 -0.09996)">
      <defs>
       <path id="DejaVuSans-61" d="M 2194 1759 
Q 1497 1759 1228 1600 
Q 959 1441 959 1056 
Q 959 750 1161 570 
Q 1363 391 1709 391 
Q 2188 391 2477 730 
Q 2766 1069 2766 1631 
L 2766 1759 
L 2194 1759 
z
M 3341 1997 
L 3341 0 
L 2766 0 
L 2766 531 
Q 2569 213 2275 61 
Q 1981 -91 1556 -91 
Q 1019 -91 701 211 
Q 384 513 384 1019 
Q 384 1609 779 1909 
Q 1175 2209 1959 2209 
L 2766 2209 
L 2766 2266 
Q 2766 2663 2505 2880 
Q 2244 3097 1772 3097 
Q 1472 3097 1187 3025 
Q 903 2953 641 2809 
L 641 3341 
Q 956 3463 1253 3523 
Q 1550 3584 1831 3584 
Q 2591 3584 2966 3190 
Q 3341 2797 3341 1997 
z
" transform="scale(0.015625)"/>
       <path id="DejaVuSans-72" d="M 2631 2963 
Q 2534 3019 2420 3045 
Q 2306 3072 2169 3072 
Q 1681 3072 1420 2755 
Q 1159 2438 1159 1844 
L 1159 0 
L 581 0 
L 581 3500 
L 1159 3500 
L 1159 2956 
Q 1341 3275 1631 3429 
Q 1922 3584 2338 3584 
Q 2397 3584 2469 3576 
Q 2541 3569 2628 3553 
L 2631 2963 
z
" transform="scale(0.015625)"/>
       <path id="DejaVuSans-6c" d="M 603 4863 
L 1178 4863 
L 1178 0 
L 603 0 
L 603 4863 
z
" transform="scale(0.015625)"/>
       <path id="DejaVuSans-77" d="M 269 3500 
L 844 3500 
L 1563 769 
L 2278 3500 
L 2956 3500 
L 3675 769 
L 4391 3500 
L 4966 3500 
L 4050 0 
L 3372 0 
L 2619 2869 
L 1863 0 
L 1184 0 
L 269 3500 
z
" transform="scale(0.015625)"/>
      </defs>
      <use xlink:href="#DejaVuSans-43"/>
      <use xlink:href="#DejaVuSans-61" x="69.824219"/>
      <use xlink:href="#DejaVuSans-72" x="131.103516"/>
      <use xlink:href="#DejaVuSans-6c" x="172.216797"/>
      <use xlink:href="#DejaVuSans-6f" x="200"/>
      <use xlink:href="#DejaVuSans-77" x="261.181641"/>
     </g>
    </g>
    <g id="line2d_70">
     <path d="M 690.1164 128.74488 
L 700.1124 128.74488 
L 710.1084 128.74488 
" style="fill: none; stroke: #f07c32; stroke-width: 5; stroke-linecap: square"/>
    </g>
    <g id="text_14">
     <!-- Cavan -->
     <g transform="translate(718.1052 132.24348)scale(0.09996 -0.09996)">
      <defs>
       <path id="DejaVuSans-76" d="M 191 3500 
L 800 3500 
L 1894 563 
L 2988 3500 
L 3597 3500 
L 2284 0 
L 1503 0 
L 191 3500 
z
" transform="scale(0.015625)"/>
      </defs>
      <use xlink:href="#DejaVuSans-43"/>
      <use xlink:href="#DejaVuSans-61" x="69.824219"/>
      <use xlink:href="#DejaVuSans-76" x="131.103516"/>
      <use xlink:href="#DejaVuSans-61" x="190.283203"/>
      <use xlink:href="#DejaVuSans-6e" x="251.5625"/>
     </g>
    </g>
    <g id="line2d_71">
     <path d="M 690.1164 143.417134 
L 700.1124 143.417134 
L 710.1084 143.417134 
" style="fill: none; stroke: #d78b32; stroke-width: 5; stroke-linecap: square"/>
    </g>
    <g id="text_15">
     <!-- Clare -->
     <g transform="translate(718.1052 146.915734)scale(0.09996 -0.09996)">
      <defs>
       <path id="DejaVuSans-65" d="M 3597 1894 
L 3597 1613 
L 953 1613 
Q 991 1019 1311 708 
Q 1631 397 2203 397 
Q 2534 397 2845 478 
Q 3156 559 3463 722 
L 3463 178 
Q 3153 47 2828 -22 
Q 2503 -91 2169 -91 
Q 1331 -91 842 396 
Q 353 884 353 1716 
Q 353 2575 817 3079 
Q 1281 3584 2069 3584 
Q 2775 3584 3186 3129 
Q 3597 2675 3597 1894 
z
M 3022 2063 
Q 3016 2534 2758 2815 
Q 2500 3097 2075 3097 
Q 1594 3097 1305 2825 
Q 1016 2553 972 2059 
L 3022 2063 
z
" transform="scale(0.015625)"/>
      </defs>
      <use xlink:href="#DejaVuSans-43"/>
      <use xlink:href="#DejaVuSans-6c" x="69.824219"/>
      <use xlink:href="#DejaVuSans-61" x="97.607422"/>
      <use xlink:href="#DejaVuSans-72" x="158.886719"/>
      <use xlink:href="#DejaVuSans-65" x="197.75"/>
     </g>
    </g>
    <g id="line2d_72">
     <path d="M 690.1164 158.089388 
L 700.1124 158.089388 
L 710.1084 158.089388 
" style="fill: none; stroke: #c49432; stroke-width: 5; stroke-linecap: square"/>
    </g>
    <g id="text_16">
     <!-- Cork -->
     <g transform="translate(718.1052 161.587988)scale(0.09996 -0.09996)">
      <defs>
       <path id="DejaVuSans-6b" d="M 581 4863 
L 1159 4863 
L 1159 1991 
L 2875 3500 
L 3609 3500 
L 1753 1863 
L 3688 0 
L 2938 0 
L 1159 1709 
L 1159 0 
L 581 0 
L 581 4863 
z
" transform="scale(0.015625)"/>
      </defs>
      <use xlink:href="#DejaVuSans-43"/>
      <use xlink:href="#DejaVuSans-6f" x="69.824219"/>
      <use xlink:href="#DejaVuSans-72" x="131.005859"/>
      <use xlink:href="#DejaVuSans-6b" x="172.119141"/>
     </g>
    </g>
    <g id="line2d_73">
     <path d="M 690.1164 172.761641 
L 700.1124 172.761641 
L 710.1084 172.761641 
" style="fill: none; stroke: #b49b32; stroke-width: 5; stroke-linecap: square"/>
    </g>
    <g id="text_17">
     <!-- Donegal -->
     <g transform="translate(718.1052 176.260241)scale(0.09996 -0.09996)">
      <defs>
       <path id="DejaVuSans-44" d="M 1259 4147 
L 1259 519 
L 2022 519 
Q 2988 519 3436 956 
Q 3884 1394 3884 2338 
Q 3884 3275 3436 3711 
Q 2988 4147 2022 4147 
L 1259 4147 
z
M 628 4666 
L 1925 4666 
Q 3281 4666 3915 4102 
Q 4550 3538 4550 2338 
Q 4550 1131 3912 565 
Q 3275 0 1925 0 
L 628 0 
L 628 4666 
z
" transform="scale(0.015625)"/>
       <path id="DejaVuSans-67" d="M 2906 1791 
Q 2906 2416 2648 2759 
Q 2391 3103 1925 3103 
Q 1463 3103 1205 2759 
Q 947 2416 947 1791 
Q 947 1169 1205 825 
Q 1463 481 1925 481 
Q 2391 481 2648 825 
Q 2906 1169 2906 1791 
z
M 3481 434 
Q 3481 -459 3084 -895 
Q 2688 -1331 1869 -1331 
Q 1566 -1331 1297 -1286 
Q 1028 -1241 775 -1147 
L 775 -588 
Q 1028 -725 1275 -790 
Q 1522 -856 1778 -856 
Q 2344 -856 2625 -561 
Q 2906 -266 2906 331 
L 2906 616 
Q 2728 306 2450 153 
Q 2172 0 1784 0 
Q 1141 0 747 490 
Q 353 981 353 1791 
Q 353 2603 747 3093 
Q 1141 3584 1784 3584 
Q 2172 3584 2450 3431 
Q 2728 3278 2906 2969 
L 2906 3500 
L 3481 3500 
L 3481 434 
z
" transform="scale(0.015625)"/>
      </defs>
      <use xlink:href="#DejaVuSans-44"/>
      <use xlink:href="#DejaVuSans-6f" x="77.001953"/>
      <use xlink:href="#DejaVuSans-6e" x="138.183594"/>
      <use xlink:href="#DejaVuSans-65" x="201.5625"/>
      <use xlink:href="#DejaVuSans-67" x="263.085938"/>
      <use xlink:href="#DejaVuSans-61" x="326.5625"/>
      <use xlink:href="#DejaVuSans-6c" x="387.841797"/>
     </g>
    </g>
    <g id="line2d_74">
     <path d="M 690.1164 187.433895 
L 700.1124 187.433895 
L 710.1084 187.433895 
" style="fill: none; stroke: #a3a031; stroke-width: 5; stroke-linecap: square"/>
    </g>
    <g id="text_18">
     <!-- Dublin -->
     <g transform="translate(718.1052 190.932495)scale(0.09996 -0.09996)">
      <defs>
       <path id="DejaVuSans-62" d="M 3116 1747 
Q 3116 2381 2855 2742 
Q 2594 3103 2138 3103 
Q 1681 3103 1420 2742 
Q 1159 2381 1159 1747 
Q 1159 1113 1420 752 
Q 1681 391 2138 391 
Q 2594 391 2855 752 
Q 3116 1113 3116 1747 
z
M 1159 2969 
Q 1341 3281 1617 3432 
Q 1894 3584 2278 3584 
Q 2916 3584 3314 3078 
Q 3713 2572 3713 1747 
Q 3713 922 3314 415 
Q 2916 -91 2278 -91 
Q 1894 -91 1617 61 
Q 1341 213 1159 525 
L 1159 0 
L 581 0 
L 581 4863 
L 1159 4863 
L 1159 2969 
z
" transform="scale(0.015625)"/>
       <path id="DejaVuSans-69" d="M 603 3500 
L 1178 3500 
L 1178 0 
L 603 0 
L 603 3500 
z
M 603 4863 
L 1178 4863 
L 1178 4134 
L 603 4134 
L 603 4863 
z
" transform="scale(0.015625)"/>
      </defs>
      <use xlink:href="#DejaVuSans-44"/>
      <use xlink:href="#DejaVuSans-75" x="77.001953"/>
      <use xlink:href="#DejaVuSans-62" x="140.380859"/>
      <use xlink:href="#DejaVuSans-6c" x="203.857422"/>
      <use xlink:href="#DejaVuSans-69" x="231.640625"/>
      <use xlink:href="#DejaVuSans-6e" x="259.423828"/>
     </g>
    </g>
    <g id="line2d_75">
     <path d="M 690.1164 202.106149 
L 700.1124 202.106149 
L 710.1084 202.106149 
" style="fill: none; stroke: #90a531; stroke-width: 5; stroke-linecap: square"/>
    </g>
    <g id="text_19">
     <!-- Galway -->
     <g transform="translate(718.1052 205.604749)scale(0.09996 -0.09996)">
      <defs>
       <path id="DejaVuSans-47" d="M 3809 666 
L 3809 1919 
L 2778 1919 
L 2778 2438 
L 4434 2438 
L 4434 434 
Q 4069 175 3628 42 
Q 3188 -91 2688 -91 
Q 1594 -91 976 548 
Q 359 1188 359 2328 
Q 359 3472 976 4111 
Q 1594 4750 2688 4750 
Q 3144 4750 3555 4637 
Q 3966 4525 4313 4306 
L 4313 3634 
Q 3963 3931 3569 4081 
Q 3175 4231 2741 4231 
Q 1884 4231 1454 3753 
Q 1025 3275 1025 2328 
Q 1025 1384 1454 906 
Q 1884 428 2741 428 
Q 3075 428 3337 486 
Q 3600 544 3809 666 
z
" transform="scale(0.015625)"/>
      </defs>
      <use xlink:href="#DejaVuSans-47"/>
      <use xlink:href="#DejaVuSans-61" x="77.490234"/>
      <use xlink:href="#DejaVuSans-6c" x="138.769531"/>
      <use xlink:href="#DejaVuSans-77" x="166.552734"/>
      <use xlink:href="#DejaVuSans-61" x="248.339844"/>
      <use xlink:href="#DejaVuSans-79" x="309.619141"/>
     </g>
    </g>
    <g id="line2d_76">
     <path d="M 690.1164 216.778403 
L 700.1124 216.778403 
L 710.1084 216.778403 
" style="fill: none; stroke: #77ab31; stroke-width: 5; stroke-linecap: square"/>
    </g>
    <g id="text_20">
     <!-- Kerry -->
     <g transform="translate(718.1052 220.277003)scale(0.09996 -0.09996)">
      <defs>
       <path id="DejaVuSans-4b" d="M 628 4666 
L 1259 4666 
L 1259 2694 
L 3353 4666 
L 4166 4666 
L 1850 2491 
L 4331 0 
L 3500 0 
L 1259 2247 
L 1259 0 
L 628 0 
L 628 4666 
z
" transform="scale(0.015625)"/>
      </defs>
      <use xlink:href="#DejaVuSans-4b"/>
      <use xlink:href="#DejaVuSans-65" x="60.576172"/>
      <use xlink:href="#DejaVuSans-72" x="122.099609"/>
      <use xlink:href="#DejaVuSans-72" x="161.462891"/>
      <use xlink:href="#DejaVuSans-79" x="202.576172"/>
     </g>
    </g>
    <g id="line2d_77">
     <path d="M 690.1164 231.450656 
L 700.1124 231.450656 
L 710.1084 231.450656 
" style="fill: none; stroke: #43b231; stroke-width: 5; stroke-linecap: square"/>
    </g>
    <g id="text_21">
     <!-- Kildare -->
     <g transform="translate(718.1052 234.949256)scale(0.09996 -0.09996)">
      <defs>
       <path id="DejaVuSans-64" d="M 2906 2969 
L 2906 4863 
L 3481 4863 
L 3481 0 
L 2906 0 
L 2906 525 
Q 2725 213 2448 61 
Q 2172 -91 1784 -91 
Q 1150 -91 751 415 
Q 353 922 353 1747 
Q 353 2572 751 3078 
Q 1150 3584 1784 3584 
Q 2172 3584 2448 3432 
Q 2725 3281 2906 2969 
z
M 947 1747 
Q 947 1113 1208 752 
Q 1469 391 1925 391 
Q 2381 391 2643 752 
Q 2906 1113 2906 1747 
Q 2906 2381 2643 2742 
Q 2381 3103 1925 3103 
Q 1469 3103 1208 2742 
Q 947 2381 947 1747 
z
" transform="scale(0.015625)"/>
      </defs>
      <use xlink:href="#DejaVuSans-4b"/>
      <use xlink:href="#DejaVuSans-69" x="65.576172"/>
      <use xlink:href="#DejaVuSans-6c" x="93.359375"/>
      <use xlink:href="#DejaVuSans-64" x="121.142578"/>
      <use xlink:href="#DejaVuSans-61" x="184.619141"/>
      <use xlink:href="#DejaVuSans-72" x="245.898438"/>
      <use xlink:href="#DejaVuSans-65" x="284.761719"/>
     </g>
    </g>
    <g id="line2d_78">
     <path d="M 690.1164 246.12291 
L 700.1124 246.12291 
L 710.1084 246.12291 
" style="fill: none; stroke: #33b169; stroke-width: 5; stroke-linecap: square"/>
    </g>
    <g id="text_22">
     <!-- Kilkenny -->
     <g transform="translate(718.1052 249.62151)scale(0.09996 -0.09996)">
      <use xlink:href="#DejaVuSans-4b"/>
      <use xlink:href="#DejaVuSans-69" x="65.576172"/>
      <use xlink:href="#DejaVuSans-6c" x="93.359375"/>
      <use xlink:href="#DejaVuSans-6b" x="121.142578"/>
      <use xlink:href="#DejaVuSans-65" x="175.427734"/>
      <use xlink:href="#DejaVuSans-6e" x="236.951172"/>
      <use xlink:href="#DejaVuSans-6e" x="300.330078"/>
      <use xlink:href="#DejaVuSans-79" x="363.708984"/>
     </g>
    </g>
    <g id="line2d_79">
     <path d="M 690.1164 260.795164 
L 700.1124 260.795164 
L 710.1084 260.795164 
" style="fill: none; stroke: #34af84; stroke-width: 5; stroke-linecap: square"/>
    </g>
    <g id="text_23">
     <!-- Laois -->
     <g transform="translate(718.1052 264.293764)scale(0.09996 -0.09996)">
      <defs>
       <path id="DejaVuSans-4c" d="M 628 4666 
L 1259 4666 
L 1259 531 
L 3531 531 
L 3531 0 
L 628 0 
L 628 4666 
z
" transform="scale(0.015625)"/>
       <path id="DejaVuSans-73" d="M 2834 3397 
L 2834 2853 
Q 2591 2978 2328 3040 
Q 2066 3103 1784 3103 
Q 1356 3103 1142 2972 
Q 928 2841 928 2578 
Q 928 2378 1081 2264 
Q 1234 2150 1697 2047 
L 1894 2003 
Q 2506 1872 2764 1633 
Q 3022 1394 3022 966 
Q 3022 478 2636 193 
Q 2250 -91 1575 -91 
Q 1294 -91 989 -36 
Q 684 19 347 128 
L 347 722 
Q 666 556 975 473 
Q 1284 391 1588 391 
Q 1994 391 2212 530 
Q 2431 669 2431 922 
Q 2431 1156 2273 1281 
Q 2116 1406 1581 1522 
L 1381 1569 
Q 847 1681 609 1914 
Q 372 2147 372 2553 
Q 372 3047 722 3315 
Q 1072 3584 1716 3584 
Q 2034 3584 2315 3537 
Q 2597 3491 2834 3397 
z
" transform="scale(0.015625)"/>
      </defs>
      <use xlink:href="#DejaVuSans-4c"/>
      <use xlink:href="#DejaVuSans-61" x="55.712891"/>
      <use xlink:href="#DejaVuSans-6f" x="116.992188"/>
      <use xlink:href="#DejaVuSans-69" x="178.173828"/>
      <use xlink:href="#DejaVuSans-73" x="205.957031"/>
     </g>
    </g>
    <g id="line2d_80">
     <path d="M 690.1164 275.467418 
L 700.1124 275.467418 
L 710.1084 275.467418 
" style="fill: none; stroke: #35ae95; stroke-width: 5; stroke-linecap: square"/>
    </g>
    <g id="text_24">
     <!-- Leitrim -->
     <g transform="translate(718.1052 278.966018)scale(0.09996 -0.09996)">
      <defs>
       <path id="DejaVuSans-6d" d="M 3328 2828 
Q 3544 3216 3844 3400 
Q 4144 3584 4550 3584 
Q 5097 3584 5394 3201 
Q 5691 2819 5691 2113 
L 5691 0 
L 5113 0 
L 5113 2094 
Q 5113 2597 4934 2840 
Q 4756 3084 4391 3084 
Q 3944 3084 3684 2787 
Q 3425 2491 3425 1978 
L 3425 0 
L 2847 0 
L 2847 2094 
Q 2847 2600 2669 2842 
Q 2491 3084 2119 3084 
Q 1678 3084 1418 2786 
Q 1159 2488 1159 1978 
L 1159 0 
L 581 0 
L 581 3500 
L 1159 3500 
L 1159 2956 
Q 1356 3278 1631 3431 
Q 1906 3584 2284 3584 
Q 2666 3584 2933 3390 
Q 3200 3197 3328 2828 
z
" transform="scale(0.015625)"/>
      </defs>
      <use xlink:href="#DejaVuSans-4c"/>
      <use xlink:href="#DejaVuSans-65" x="53.962891"/>
      <use xlink:href="#DejaVuSans-69" x="115.486328"/>
      <use xlink:href="#DejaVuSans-74" x="143.269531"/>
      <use xlink:href="#DejaVuSans-72" x="182.478516"/>
      <use xlink:href="#DejaVuSans-69" x="223.591797"/>
      <use xlink:href="#DejaVuSans-6d" x="251.375"/>
     </g>
    </g>
    <g id="line2d_81">
     <path d="M 690.1164 290.139671 
L 700.1124 290.139671 
L 710.1084 290.139671 
" style="fill: none; stroke: #36ada2; stroke-width: 5; stroke-linecap: square"/>
    </g>
    <g id="text_25">
     <!-- Limerick -->
     <g transform="translate(718.1052 293.638271)scale(0.09996 -0.09996)">
      <defs>
       <path id="DejaVuSans-63" d="M 3122 3366 
L 3122 2828 
Q 2878 2963 2633 3030 
Q 2388 3097 2138 3097 
Q 1578 3097 1268 2742 
Q 959 2388 959 1747 
Q 959 1106 1268 751 
Q 1578 397 2138 397 
Q 2388 397 2633 464 
Q 2878 531 3122 666 
L 3122 134 
Q 2881 22 2623 -34 
Q 2366 -91 2075 -91 
Q 1284 -91 818 406 
Q 353 903 353 1747 
Q 353 2603 823 3093 
Q 1294 3584 2113 3584 
Q 2378 3584 2631 3529 
Q 2884 3475 3122 3366 
z
" transform="scale(0.015625)"/>
      </defs>
      <use xlink:href="#DejaVuSans-4c"/>
      <use xlink:href="#DejaVuSans-69" x="55.712891"/>
      <use xlink:href="#DejaVuSans-6d" x="83.496094"/>
      <use xlink:href="#DejaVuSans-65" x="180.908203"/>
      <use xlink:href="#DejaVuSans-72" x="242.431641"/>
      <use xlink:href="#DejaVuSans-69" x="283.544922"/>
      <use xlink:href="#DejaVuSans-63" x="311.328125"/>
      <use xlink:href="#DejaVuSans-6b" x="366.308594"/>
     </g>
    </g>
    <g id="line2d_82">
     <path d="M 690.1164 304.811925 
L 700.1124 304.811925 
L 710.1084 304.811925 
" style="fill: none; stroke: #36acae; stroke-width: 5; stroke-linecap: square"/>
    </g>
    <g id="text_26">
     <!-- Longford -->
     <g transform="translate(718.1052 308.310525)scale(0.09996 -0.09996)">
      <defs>
       <path id="DejaVuSans-66" d="M 2375 4863 
L 2375 4384 
L 1825 4384 
Q 1516 4384 1395 4259 
Q 1275 4134 1275 3809 
L 1275 3500 
L 2222 3500 
L 2222 3053 
L 1275 3053 
L 1275 0 
L 697 0 
L 697 3053 
L 147 3053 
L 147 3500 
L 697 3500 
L 697 3744 
Q 697 4328 969 4595 
Q 1241 4863 1831 4863 
L 2375 4863 
z
" transform="scale(0.015625)"/>
      </defs>
      <use xlink:href="#DejaVuSans-4c"/>
      <use xlink:href="#DejaVuSans-6f" x="53.962891"/>
      <use xlink:href="#DejaVuSans-6e" x="115.144531"/>
      <use xlink:href="#DejaVuSans-67" x="178.523438"/>
      <use xlink:href="#DejaVuSans-66" x="242"/>
      <use xlink:href="#DejaVuSans-6f" x="277.205078"/>
      <use xlink:href="#DejaVuSans-72" x="338.386719"/>
      <use xlink:href="#DejaVuSans-64" x="377.75"/>
     </g>
    </g>
    <g id="line2d_83">
     <path d="M 690.1164 319.484179 
L 700.1124 319.484179 
L 710.1084 319.484179 
" style="fill: none; stroke: #37aaba; stroke-width: 5; stroke-linecap: square"/>
    </g>
    <g id="text_27">
     <!-- Louth -->
     <g transform="translate(718.1052 322.982779)scale(0.09996 -0.09996)">
      <defs>
       <path id="DejaVuSans-68" d="M 3513 2113 
L 3513 0 
L 2938 0 
L 2938 2094 
Q 2938 2591 2744 2837 
Q 2550 3084 2163 3084 
Q 1697 3084 1428 2787 
Q 1159 2491 1159 1978 
L 1159 0 
L 581 0 
L 581 4863 
L 1159 4863 
L 1159 2956 
Q 1366 3272 1645 3428 
Q 1925 3584 2291 3584 
Q 2894 3584 3203 3211 
Q 3513 2838 3513 2113 
z
" transform="scale(0.015625)"/>
      </defs>
      <use xlink:href="#DejaVuSans-4c"/>
      <use xlink:href="#DejaVuSans-6f" x="53.962891"/>
      <use xlink:href="#DejaVuSans-75" x="115.144531"/>
      <use xlink:href="#DejaVuSans-74" x="178.523438"/>
      <use xlink:href="#DejaVuSans-68" x="217.732422"/>
     </g>
    </g>
    <g id="line2d_84">
     <path d="M 690.1164 334.156433 
L 700.1124 334.156433 
L 710.1084 334.156433 
" style="fill: none; stroke: #38a8c9; stroke-width: 5; stroke-linecap: square"/>
    </g>
    <g id="text_28">
     <!-- Mayo -->
     <g transform="translate(718.1052 337.655033)scale(0.09996 -0.09996)">
      <defs>
       <path id="DejaVuSans-4d" d="M 628 4666 
L 1569 4666 
L 2759 1491 
L 3956 4666 
L 4897 4666 
L 4897 0 
L 4281 0 
L 4281 4097 
L 3078 897 
L 2444 897 
L 1241 4097 
L 1241 0 
L 628 0 
L 628 4666 
z
" transform="scale(0.015625)"/>
      </defs>
      <use xlink:href="#DejaVuSans-4d"/>
      <use xlink:href="#DejaVuSans-61" x="86.279297"/>
      <use xlink:href="#DejaVuSans-79" x="147.558594"/>
      <use xlink:href="#DejaVuSans-6f" x="206.738281"/>
     </g>
    </g>
    <g id="line2d_85">
     <path d="M 690.1164 348.828686 
L 700.1124 348.828686 
L 710.1084 348.828686 
" style="fill: none; stroke: #3aa6dd; stroke-width: 5; stroke-linecap: square"/>
    </g>
    <g id="text_29">
     <!-- Meath -->
     <g transform="translate(718.1052 352.327286)scale(0.09996 -0.09996)">
      <use xlink:href="#DejaVuSans-4d"/>
      <use xlink:href="#DejaVuSans-65" x="86.279297"/>
      <use xlink:href="#DejaVuSans-61" x="147.802734"/>
      <use xlink:href="#DejaVuSans-74" x="209.082031"/>
      <use xlink:href="#DejaVuSans-68" x="248.291016"/>
     </g>
    </g>
    <g id="line2d_86">
     <path d="M 690.1164 363.50094 
L 700.1124 363.50094 
L 710.1084 363.50094 
" style="fill: none; stroke: #569ff4; stroke-width: 5; stroke-linecap: square"/>
    </g>
    <g id="text_30">
     <!-- Monaghan -->
     <g transform="translate(718.1052 366.99954)scale(0.09996 -0.09996)">
      <use xlink:href="#DejaVuSans-4d"/>
      <use xlink:href="#DejaVuSans-6f" x="86.279297"/>
      <use xlink:href="#DejaVuSans-6e" x="147.460938"/>
      <use xlink:href="#DejaVuSans-61" x="210.839844"/>
      <use xlink:href="#DejaVuSans-67" x="272.119141"/>
      <use xlink:href="#DejaVuSans-68" x="335.595703"/>
      <use xlink:href="#DejaVuSans-61" x="398.974609"/>
      <use xlink:href="#DejaVuSans-6e" x="460.253906"/>
     </g>
    </g>
    <g id="line2d_87">
     <path d="M 690.1164 378.173194 
L 700.1124 378.173194 
L 710.1084 378.173194 
" style="fill: none; stroke: #8b94f4; stroke-width: 5; stroke-linecap: square"/>
    </g>
    <g id="text_31">
     <!-- Offaly -->
     <g transform="translate(718.1052 381.671794)scale(0.09996 -0.09996)">
      <defs>
       <path id="DejaVuSans-4f" d="M 2522 4238 
Q 1834 4238 1429 3725 
Q 1025 3213 1025 2328 
Q 1025 1447 1429 934 
Q 1834 422 2522 422 
Q 3209 422 3611 934 
Q 4013 1447 4013 2328 
Q 4013 3213 3611 3725 
Q 3209 4238 2522 4238 
z
M 2522 4750 
Q 3503 4750 4090 4092 
Q 4678 3434 4678 2328 
Q 4678 1225 4090 567 
Q 3503 -91 2522 -91 
Q 1538 -91 948 565 
Q 359 1222 359 2328 
Q 359 3434 948 4092 
Q 1538 4750 2522 4750 
z
" transform="scale(0.015625)"/>
      </defs>
      <use xlink:href="#DejaVuSans-4f"/>
      <use xlink:href="#DejaVuSans-66" x="78.710938"/>
      <use xlink:href="#DejaVuSans-66" x="113.916016"/>
      <use xlink:href="#DejaVuSans-61" x="149.121094"/>
      <use xlink:href="#DejaVuSans-6c" x="210.400391"/>
      <use xlink:href="#DejaVuSans-79" x="238.183594"/>
     </g>
    </g>
    <g id="line2d_88">
     <path d="M 690.1164 392.845448 
L 700.1124 392.845448 
L 710.1084 392.845448 
" style="fill: none; stroke: #ae88f4; stroke-width: 5; stroke-linecap: square"/>
    </g>
    <g id="text_32">
     <!-- Roscommon -->
     <g transform="translate(718.1052 396.344048)scale(0.09996 -0.09996)">
      <defs>
       <path id="DejaVuSans-52" d="M 2841 2188 
Q 3044 2119 3236 1894 
Q 3428 1669 3622 1275 
L 4263 0 
L 3584 0 
L 2988 1197 
Q 2756 1666 2539 1819 
Q 2322 1972 1947 1972 
L 1259 1972 
L 1259 0 
L 628 0 
L 628 4666 
L 2053 4666 
Q 2853 4666 3247 4331 
Q 3641 3997 3641 3322 
Q 3641 2881 3436 2590 
Q 3231 2300 2841 2188 
z
M 1259 4147 
L 1259 2491 
L 2053 2491 
Q 2509 2491 2742 2702 
Q 2975 2913 2975 3322 
Q 2975 3731 2742 3939 
Q 2509 4147 2053 4147 
L 1259 4147 
z
" transform="scale(0.015625)"/>
      </defs>
      <use xlink:href="#DejaVuSans-52"/>
      <use xlink:href="#DejaVuSans-6f" x="64.982422"/>
      <use xlink:href="#DejaVuSans-73" x="126.164062"/>
      <use xlink:href="#DejaVuSans-63" x="178.263672"/>
      <use xlink:href="#DejaVuSans-6f" x="233.244141"/>
      <use xlink:href="#DejaVuSans-6d" x="294.425781"/>
      <use xlink:href="#DejaVuSans-6d" x="391.837891"/>
      <use xlink:href="#DejaVuSans-6f" x="489.25"/>
      <use xlink:href="#DejaVuSans-6e" x="550.431641"/>
     </g>
    </g>
    <g id="line2d_89">
     <path d="M 690.1164 407.517701 
L 700.1124 407.517701 
L 710.1084 407.517701 
" style="fill: none; stroke: #cd79f4; stroke-width: 5; stroke-linecap: square"/>
    </g>
    <g id="text_33">
     <!-- Sligo -->
     <g transform="translate(718.1052 411.016301)scale(0.09996 -0.09996)">
      <defs>
       <path id="DejaVuSans-53" d="M 3425 4513 
L 3425 3897 
Q 3066 4069 2747 4153 
Q 2428 4238 2131 4238 
Q 1616 4238 1336 4038 
Q 1056 3838 1056 3469 
Q 1056 3159 1242 3001 
Q 1428 2844 1947 2747 
L 2328 2669 
Q 3034 2534 3370 2195 
Q 3706 1856 3706 1288 
Q 3706 609 3251 259 
Q 2797 -91 1919 -91 
Q 1588 -91 1214 -16 
Q 841 59 441 206 
L 441 856 
Q 825 641 1194 531 
Q 1563 422 1919 422 
Q 2459 422 2753 634 
Q 3047 847 3047 1241 
Q 3047 1584 2836 1778 
Q 2625 1972 2144 2069 
L 1759 2144 
Q 1053 2284 737 2584 
Q 422 2884 422 3419 
Q 422 4038 858 4394 
Q 1294 4750 2059 4750 
Q 2388 4750 2728 4690 
Q 3069 4631 3425 4513 
z
" transform="scale(0.015625)"/>
      </defs>
      <use xlink:href="#DejaVuSans-53"/>
      <use xlink:href="#DejaVuSans-6c" x="63.476562"/>
      <use xlink:href="#DejaVuSans-69" x="91.259766"/>
      <use xlink:href="#DejaVuSans-67" x="119.042969"/>
      <use xlink:href="#DejaVuSans-6f" x="182.519531"/>
     </g>
    </g>
    <g id="line2d_90">
     <path d="M 690.1164 422.189955 
L 700.1124 422.189955 
L 710.1084 422.189955 
" style="fill: none; stroke: #ed62f4; stroke-width: 5; stroke-linecap: square"/>
    </g>
    <g id="text_34">
     <!-- Tipperary -->
     <g transform="translate(718.1052 425.688555)scale(0.09996 -0.09996)">
      <defs>
       <path id="DejaVuSans-54" d="M -19 4666 
L 3928 4666 
L 3928 4134 
L 2272 4134 
L 2272 0 
L 1638 0 
L 1638 4134 
L -19 4134 
L -19 4666 
z
" transform="scale(0.015625)"/>
       <path id="DejaVuSans-70" d="M 1159 525 
L 1159 -1331 
L 581 -1331 
L 581 3500 
L 1159 3500 
L 1159 2969 
Q 1341 3281 1617 3432 
Q 1894 3584 2278 3584 
Q 2916 3584 3314 3078 
Q 3713 2572 3713 1747 
Q 3713 922 3314 415 
Q 2916 -91 2278 -91 
Q 1894 -91 1617 61 
Q 1341 213 1159 525 
z
M 3116 1747 
Q 3116 2381 2855 2742 
Q 2594 3103 2138 3103 
Q 1681 3103 1420 2742 
Q 1159 2381 1159 1747 
Q 1159 1113 1420 752 
Q 1681 391 2138 391 
Q 2594 391 2855 752 
Q 3116 1113 3116 1747 
z
" transform="scale(0.015625)"/>
      </defs>
      <use xlink:href="#DejaVuSans-54"/>
      <use xlink:href="#DejaVuSans-69" x="57.958984"/>
      <use xlink:href="#DejaVuSans-70" x="85.742188"/>
      <use xlink:href="#DejaVuSans-70" x="149.21875"/>
      <use xlink:href="#DejaVuSans-65" x="212.695312"/>
      <use xlink:href="#DejaVuSans-72" x="274.21875"/>
      <use xlink:href="#DejaVuSans-61" x="315.332031"/>
      <use xlink:href="#DejaVuSans-72" x="376.611328"/>
      <use xlink:href="#DejaVuSans-79" x="417.724609"/>
     </g>
    </g>
    <g id="line2d_91">
     <path d="M 690.1164 436.862209 
L 700.1124 436.862209 
L 710.1084 436.862209 
" style="fill: none; stroke: #f562db; stroke-width: 5; stroke-linecap: square"/>
    </g>
    <g id="text_35">
     <!-- Waterford -->
     <g transform="translate(718.1052 440.360809)scale(0.09996 -0.09996)">
      <defs>
       <path id="DejaVuSans-57" d="M 213 4666 
L 850 4666 
L 1831 722 
L 2809 4666 
L 3519 4666 
L 4500 722 
L 5478 4666 
L 6119 4666 
L 4947 0 
L 4153 0 
L 3169 4050 
L 2175 0 
L 1381 0 
L 213 4666 
z
" transform="scale(0.015625)"/>
      </defs>
      <use xlink:href="#DejaVuSans-57"/>
      <use xlink:href="#DejaVuSans-61" x="92.501953"/>
      <use xlink:href="#DejaVuSans-74" x="153.78125"/>
      <use xlink:href="#DejaVuSans-65" x="192.990234"/>
      <use xlink:href="#DejaVuSans-72" x="254.513672"/>
      <use xlink:href="#DejaVuSans-66" x="295.626953"/>
      <use xlink:href="#DejaVuSans-6f" x="330.832031"/>
      <use xlink:href="#DejaVuSans-72" x="392.013672"/>
      <use xlink:href="#DejaVuSans-64" x="431.376953"/>
     </g>
    </g>
    <g id="line2d_92">
     <path d="M 690.1164 451.534462 
L 700.1124 451.534462 
L 710.1084 451.534462 
" style="fill: none; stroke: #f668c2; stroke-width: 5; stroke-linecap: square"/>
    </g>
    <g id="text_36">
     <!-- Westmeath -->
     <g transform="translate(718.1052 455.033062)scale(0.09996 -0.09996)">
      <use xlink:href="#DejaVuSans-57"/>
      <use xlink:href="#DejaVuSans-65" x="93.001953"/>
      <use xlink:href="#DejaVuSans-73" x="154.525391"/>
      <use xlink:href="#DejaVuSans-74" x="206.625"/>
      <use xlink:href="#DejaVuSans-6d" x="245.833984"/>
      <use xlink:href="#DejaVuSans-65" x="343.246094"/>
      <use xlink:href="#DejaVuSans-61" x="404.769531"/>
      <use xlink:href="#DejaVuSans-74" x="466.048828"/>
      <use xlink:href="#DejaVuSans-68" x="505.257812"/>
     </g>
    </g>
    <g id="line2d_93">
     <path d="M 690.1164 466.206716 
L 700.1124 466.206716 
L 710.1084 466.206716 
" style="fill: none; stroke: #f66caa; stroke-width: 5; stroke-linecap: square"/>
    </g>
    <g id="text_37">
     <!-- Wexford -->
     <g transform="translate(718.1052 469.705316)scale(0.09996 -0.09996)">
      <defs>
       <path id="DejaVuSans-78" d="M 3513 3500 
L 2247 1797 
L 3578 0 
L 2900 0 
L 1881 1375 
L 863 0 
L 184 0 
L 1544 1831 
L 300 3500 
L 978 3500 
L 1906 2253 
L 2834 3500 
L 3513 3500 
z
" transform="scale(0.015625)"/>
      </defs>
      <use xlink:href="#DejaVuSans-57"/>
      <use xlink:href="#DejaVuSans-65" x="93.001953"/>
      <use xlink:href="#DejaVuSans-78" x="152.775391"/>
      <use xlink:href="#DejaVuSans-66" x="211.955078"/>
      <use xlink:href="#DejaVuSans-6f" x="247.160156"/>
      <use xlink:href="#DejaVuSans-72" x="308.341797"/>
      <use xlink:href="#DejaVuSans-64" x="347.705078"/>
     </g>
    </g>
    <g id="line2d_94">
     <path d="M 690.1164 480.87897 
L 700.1124 480.87897 
L 710.1084 480.87897 
" style="fill: none; stroke: #f7708e; stroke-width: 5; stroke-linecap: square"/>
    </g>
    <g id="text_38">
     <!-- Wicklow -->
     <g transform="translate(718.1052 484.37757)scale(0.09996 -0.09996)">
      <use xlink:href="#DejaVuSans-57"/>
      <use xlink:href="#DejaVuSans-69" x="96.626953"/>
      <use xlink:href="#DejaVuSans-63" x="124.410156"/>
      <use xlink:href="#DejaVuSans-6b" x="179.390625"/>
      <use xlink:href="#DejaVuSans-6c" x="237.300781"/>
      <use xlink:href="#DejaVuSans-6f" x="265.083984"/>
      <use xlink:href="#DejaVuSans-77" x="326.265625"/>
     </g>
    </g>
   </g>
  </g>
  <g id="text_39">
   <!-- Year -->
   <g transform="translate(383.295 547.2)scale(0.12 -0.12)">
    <defs>
     <path id="DejaVuSans-59" d="M -13 4666 
L 666 4666 
L 1959 2747 
L 3244 4666 
L 3922 4666 
L 2272 2222 
L 2272 0 
L 1638 0 
L 1638 2222 
L -13 4666 
z
" transform="scale(0.015625)"/>
    </defs>
    <use xlink:href="#DejaVuSans-59"/>
    <use xlink:href="#DejaVuSans-65" x="47.833984"/>
    <use xlink:href="#DejaVuSans-61" x="109.357422"/>
    <use xlink:href="#DejaVuSans-72" x="170.636719"/>
   </g>
  </g>
  <g id="text_40">
   <!-- Mean Value -->
   <g transform="translate(42.91125 290.495625)rotate(-90)scale(0.12 -0.12)">
    <defs>
     <path id="DejaVuSans-20" transform="scale(0.015625)"/>
     <path id="DejaVuSans-56" d="M 1831 0 
L 50 4666 
L 709 4666 
L 2188 738 
L 3669 4666 
L 4325 4666 
L 2547 0 
L 1831 0 
z
" transform="scale(0.015625)"/>
    </defs>
    <use xlink:href="#DejaVuSans-4d"/>
    <use xlink:href="#DejaVuSans-65" x="86.279297"/>
    <use xlink:href="#DejaVuSans-61" x="147.802734"/>
    <use xlink:href="#DejaVuSans-6e" x="209.082031"/>
    <use xlink:href="#DejaVuSans-20" x="272.460938"/>
    <use xlink:href="#DejaVuSans-56" x="304.248047"/>
    <use xlink:href="#DejaVuSans-61" x="364.90625"/>
    <use xlink:href="#DejaVuSans-6c" x="426.185547"/>
    <use xlink:href="#DejaVuSans-75" x="453.96875"/>
    <use xlink:href="#DejaVuSans-65" x="517.347656"/>
   </g>
  </g>
 </g>
 <defs>
  <clipPath id="p67d6a5a8b4">
   <rect x="99" y="69.12" width="554.4" height="443.52"/>
  </clipPath>
 </defs>
</svg>
