<?xml version="1.0" encoding="utf-8" standalone="no"?>
<!DOCTYPE svg PUBLIC "-//W3C//DTD SVG 1.1//EN"
  "http://www.w3.org/Graphics/SVG/1.1/DTD/svg11.dtd">
<svg xmlns:xlink="http://www.w3.org/1999/xlink" width="792pt" height="576pt" viewBox="0 0 792 576" xmlns="http://www.w3.org/2000/svg" version="1.1">
 <metadata>
  <rdf:RDF xmlns:dc="http://purl.org/dc/elements/1.1/" xmlns:cc="http://creativecommons.org/ns#" xmlns:rdf="http://www.w3.org/1999/02/22-rdf-syntax-ns#">
   <cc:Work>
    <dc:type rdf:resource="http://purl.org/dc/dcmitype/StillImage"/>
    <dc:date>2021-12-01T21:15:43.804633</dc:date>
    <dc:format>image/svg+xml</dc:format>
    <dc:creator>
     <cc:Agent>
      <dc:title>Matplotlib v3.5.0, https://matplotlib.org/</dc:title>
     </cc:Agent>
    </dc:creator>
   </cc:Work>
  </rdf:RDF>
 </metadata>
 <defs>
  <style type="text/css">*{stroke-linejoin: round; stroke-linecap: butt}</style>
 </defs>
 <g id="figure_1">
  <g id="patch_1">
   <path d="M 0 576 
L 792 576 
L 792 0 
L 0 0 
z
" style="fill: #ffffff"/>
  </g>
  <g id="axes_1">
   <g id="patch_2">
    <path d="M 99 512.64 
L 653.4 512.64 
L 653.4 69.12 
L 99 69.12 
z
" style="fill: #ffffff"/>
   </g>
   <g id="matplotlib.axis_1">
    <g id="xtick_1">
     <g id="line2d_1">
      <defs>
       <path id="md8afd6c0b2" d="M 0 0 
L 0 3.5 
" style="stroke: #000000; stroke-width: 0.8"/>
      </defs>
      <g>
       <use xlink:href="#md8afd6c0b2" x="140.694545" y="512.64" style="stroke: #000000; stroke-width: 0.8"/>
      </g>
     </g>
     <g id="text_1">
      <!-- 1850 -->
      <g transform="translate(127.969545 527.238438)scale(0.1 -0.1)">
       <defs>
        <path id="DejaVuSans-31" d="M 794 531 
L 1825 531 
L 1825 4091 
L 703 3866 
L 703 4441 
L 1819 4666 
L 2450 4666 
L 2450 531 
L 3481 531 
L 3481 0 
L 794 0 
L 794 531 
z
" transform="scale(0.015625)"/>
        <path id="DejaVuSans-38" d="M 2034 2216 
Q 1584 2216 1326 1975 
Q 1069 1734 1069 1313 
Q 1069 891 1326 650 
Q 1584 409 2034 409 
Q 2484 409 2743 651 
Q 3003 894 3003 1313 
Q 3003 1734 2745 1975 
Q 2488 2216 2034 2216 
z
M 1403 2484 
Q 997 2584 770 2862 
Q 544 3141 544 3541 
Q 544 4100 942 4425 
Q 1341 4750 2034 4750 
Q 2731 4750 3128 4425 
Q 3525 4100 3525 3541 
Q 3525 3141 3298 2862 
Q 3072 2584 2669 2484 
Q 3125 2378 3379 2068 
Q 3634 1759 3634 1313 
Q 3634 634 3220 271 
Q 2806 -91 2034 -91 
Q 1263 -91 848 271 
Q 434 634 434 1313 
Q 434 1759 690 2068 
Q 947 2378 1403 2484 
z
M 1172 3481 
Q 1172 3119 1398 2916 
Q 1625 2713 2034 2713 
Q 2441 2713 2670 2916 
Q 2900 3119 2900 3481 
Q 2900 3844 2670 4047 
Q 2441 4250 2034 4250 
Q 1625 4250 1398 4047 
Q 1172 3844 1172 3481 
z
" transform="scale(0.015625)"/>
        <path id="DejaVuSans-35" d="M 691 4666 
L 3169 4666 
L 3169 4134 
L 1269 4134 
L 1269 2991 
Q 1406 3038 1543 3061 
Q 1681 3084 1819 3084 
Q 2600 3084 3056 2656 
Q 3513 2228 3513 1497 
Q 3513 744 3044 326 
Q 2575 -91 1722 -91 
Q 1428 -91 1123 -41 
Q 819 9 494 109 
L 494 744 
Q 775 591 1075 516 
Q 1375 441 1709 441 
Q 2250 441 2565 725 
Q 2881 1009 2881 1497 
Q 2881 1984 2565 2268 
Q 2250 2553 1709 2553 
Q 1456 2553 1204 2497 
Q 953 2441 691 2322 
L 691 4666 
z
" transform="scale(0.015625)"/>
        <path id="DejaVuSans-30" d="M 2034 4250 
Q 1547 4250 1301 3770 
Q 1056 3291 1056 2328 
Q 1056 1369 1301 889 
Q 1547 409 2034 409 
Q 2525 409 2770 889 
Q 3016 1369 3016 2328 
Q 3016 3291 2770 3770 
Q 2525 4250 2034 4250 
z
M 2034 4750 
Q 2819 4750 3233 4129 
Q 3647 3509 3647 2328 
Q 3647 1150 3233 529 
Q 2819 -91 2034 -91 
Q 1250 -91 836 529 
Q 422 1150 422 2328 
Q 422 3509 836 4129 
Q 1250 4750 2034 4750 
z
" transform="scale(0.015625)"/>
       </defs>
       <use xlink:href="#DejaVuSans-31"/>
       <use xlink:href="#DejaVuSans-38" x="63.623047"/>
       <use xlink:href="#DejaVuSans-35" x="127.246094"/>
       <use xlink:href="#DejaVuSans-30" x="190.869141"/>
      </g>
     </g>
    </g>
    <g id="xtick_2">
     <g id="line2d_2">
      <g>
       <use xlink:href="#md8afd6c0b2" x="232.330909" y="512.64" style="stroke: #000000; stroke-width: 0.8"/>
      </g>
     </g>
     <g id="text_2">
      <!-- 1900 -->
      <g transform="translate(219.605909 527.238438)scale(0.1 -0.1)">
       <defs>
        <path id="DejaVuSans-39" d="M 703 97 
L 703 672 
Q 941 559 1184 500 
Q 1428 441 1663 441 
Q 2288 441 2617 861 
Q 2947 1281 2994 2138 
Q 2813 1869 2534 1725 
Q 2256 1581 1919 1581 
Q 1219 1581 811 2004 
Q 403 2428 403 3163 
Q 403 3881 828 4315 
Q 1253 4750 1959 4750 
Q 2769 4750 3195 4129 
Q 3622 3509 3622 2328 
Q 3622 1225 3098 567 
Q 2575 -91 1691 -91 
Q 1453 -91 1209 -44 
Q 966 3 703 97 
z
M 1959 2075 
Q 2384 2075 2632 2365 
Q 2881 2656 2881 3163 
Q 2881 3666 2632 3958 
Q 2384 4250 1959 4250 
Q 1534 4250 1286 3958 
Q 1038 3666 1038 3163 
Q 1038 2656 1286 2365 
Q 1534 2075 1959 2075 
z
" transform="scale(0.015625)"/>
       </defs>
       <use xlink:href="#DejaVuSans-31"/>
       <use xlink:href="#DejaVuSans-39" x="63.623047"/>
       <use xlink:href="#DejaVuSans-30" x="127.246094"/>
       <use xlink:href="#DejaVuSans-30" x="190.869141"/>
      </g>
     </g>
    </g>
    <g id="xtick_3">
     <g id="line2d_3">
      <g>
       <use xlink:href="#md8afd6c0b2" x="323.967273" y="512.64" style="stroke: #000000; stroke-width: 0.8"/>
      </g>
     </g>
     <g id="text_3">
      <!-- 1950 -->
      <g transform="translate(311.242273 527.238438)scale(0.1 -0.1)">
       <use xlink:href="#DejaVuSans-31"/>
       <use xlink:href="#DejaVuSans-39" x="63.623047"/>
       <use xlink:href="#DejaVuSans-35" x="127.246094"/>
       <use xlink:href="#DejaVuSans-30" x="190.869141"/>
      </g>
     </g>
    </g>
    <g id="xtick_4">
     <g id="line2d_4">
      <g>
       <use xlink:href="#md8afd6c0b2" x="415.603636" y="512.64" style="stroke: #000000; stroke-width: 0.8"/>
      </g>
     </g>
     <g id="text_4">
      <!-- 2000 -->
      <g transform="translate(402.878636 527.238438)scale(0.1 -0.1)">
       <defs>
        <path id="DejaVuSans-32" d="M 1228 531 
L 3431 531 
L 3431 0 
L 469 0 
L 469 531 
Q 828 903 1448 1529 
Q 2069 2156 2228 2338 
Q 2531 2678 2651 2914 
Q 2772 3150 2772 3378 
Q 2772 3750 2511 3984 
Q 2250 4219 1831 4219 
Q 1534 4219 1204 4116 
Q 875 4013 500 3803 
L 500 4441 
Q 881 4594 1212 4672 
Q 1544 4750 1819 4750 
Q 2544 4750 2975 4387 
Q 3406 4025 3406 3419 
Q 3406 3131 3298 2873 
Q 3191 2616 2906 2266 
Q 2828 2175 2409 1742 
Q 1991 1309 1228 531 
z
" transform="scale(0.015625)"/>
       </defs>
       <use xlink:href="#DejaVuSans-32"/>
       <use xlink:href="#DejaVuSans-30" x="63.623047"/>
       <use xlink:href="#DejaVuSans-30" x="127.246094"/>
       <use xlink:href="#DejaVuSans-30" x="190.869141"/>
      </g>
     </g>
    </g>
    <g id="xtick_5">
     <g id="line2d_5">
      <g>
       <use xlink:href="#md8afd6c0b2" x="507.24" y="512.64" style="stroke: #000000; stroke-width: 0.8"/>
      </g>
     </g>
     <g id="text_5">
      <!-- 2050 -->
      <g transform="translate(494.515 527.238438)scale(0.1 -0.1)">
       <use xlink:href="#DejaVuSans-32"/>
       <use xlink:href="#DejaVuSans-30" x="63.623047"/>
       <use xlink:href="#DejaVuSans-35" x="127.246094"/>
       <use xlink:href="#DejaVuSans-30" x="190.869141"/>
      </g>
     </g>
    </g>
    <g id="xtick_6">
     <g id="line2d_6">
      <g>
       <use xlink:href="#md8afd6c0b2" x="598.876364" y="512.64" style="stroke: #000000; stroke-width: 0.8"/>
      </g>
     </g>
     <g id="text_6">
      <!-- 2100 -->
      <g transform="translate(586.151364 527.238438)scale(0.1 -0.1)">
       <use xlink:href="#DejaVuSans-32"/>
       <use xlink:href="#DejaVuSans-31" x="63.623047"/>
       <use xlink:href="#DejaVuSans-30" x="127.246094"/>
       <use xlink:href="#DejaVuSans-30" x="190.869141"/>
      </g>
     </g>
    </g>
   </g>
   <g id="matplotlib.axis_2">
    <g id="ytick_1">
     <g id="line2d_7">
      <defs>
       <path id="m47e816e11e" d="M 0 0 
L -3.5 0 
" style="stroke: #000000; stroke-width: 0.8"/>
      </defs>
      <g>
       <use xlink:href="#m47e816e11e" x="99" y="482.26796" style="stroke: #000000; stroke-width: 0.8"/>
      </g>
     </g>
     <g id="text_7">
      <!-- 0.5 -->
      <g transform="translate(76.096875 486.067179)scale(0.1 -0.1)">
       <defs>
        <path id="DejaVuSans-2e" d="M 684 794 
L 1344 794 
L 1344 0 
L 684 0 
L 684 794 
z
" transform="scale(0.015625)"/>
       </defs>
       <use xlink:href="#DejaVuSans-30"/>
       <use xlink:href="#DejaVuSans-2e" x="63.623047"/>
       <use xlink:href="#DejaVuSans-35" x="95.410156"/>
      </g>
     </g>
    </g>
    <g id="ytick_2">
     <g id="line2d_8">
      <g>
       <use xlink:href="#m47e816e11e" x="99" y="384.303041" style="stroke: #000000; stroke-width: 0.8"/>
      </g>
     </g>
     <g id="text_8">
      <!-- 1.0 -->
      <g transform="translate(76.096875 388.10226)scale(0.1 -0.1)">
       <use xlink:href="#DejaVuSans-31"/>
       <use xlink:href="#DejaVuSans-2e" x="63.623047"/>
       <use xlink:href="#DejaVuSans-30" x="95.410156"/>
      </g>
     </g>
    </g>
    <g id="ytick_3">
     <g id="line2d_9">
      <g>
       <use xlink:href="#m47e816e11e" x="99" y="286.338122" style="stroke: #000000; stroke-width: 0.8"/>
      </g>
     </g>
     <g id="text_9">
      <!-- 1.5 -->
      <g transform="translate(76.096875 290.137341)scale(0.1 -0.1)">
       <use xlink:href="#DejaVuSans-31"/>
       <use xlink:href="#DejaVuSans-2e" x="63.623047"/>
       <use xlink:href="#DejaVuSans-35" x="95.410156"/>
      </g>
     </g>
    </g>
    <g id="ytick_4">
     <g id="line2d_10">
      <g>
       <use xlink:href="#m47e816e11e" x="99" y="188.373203" style="stroke: #000000; stroke-width: 0.8"/>
      </g>
     </g>
     <g id="text_10">
      <!-- 2.0 -->
      <g transform="translate(76.096875 192.172422)scale(0.1 -0.1)">
       <use xlink:href="#DejaVuSans-32"/>
       <use xlink:href="#DejaVuSans-2e" x="63.623047"/>
       <use xlink:href="#DejaVuSans-30" x="95.410156"/>
      </g>
     </g>
    </g>
    <g id="ytick_5">
     <g id="line2d_11">
      <g>
       <use xlink:href="#m47e816e11e" x="99" y="90.408285" style="stroke: #000000; stroke-width: 0.8"/>
      </g>
     </g>
     <g id="text_11">
      <!-- 2.5 -->
      <g transform="translate(76.096875 94.207503)scale(0.1 -0.1)">
       <use xlink:href="#DejaVuSans-32"/>
       <use xlink:href="#DejaVuSans-2e" x="63.623047"/>
       <use xlink:href="#DejaVuSans-35" x="95.410156"/>
      </g>
     </g>
    </g>
   </g>
   <g id="line2d_12">
    <path d="M 124.2 165.94129 
L 134.485714 168.025664 
L 144.771429 170.110039 
L 155.057143 172.194413 
L 165.342857 174.278788 
L 175.628571 176.363162 
L 185.914286 178.447537 
L 196.2 180.531911 
L 206.485714 182.616285 
L 216.771429 184.70066 
L 227.057143 186.785034 
L 237.342857 188.869409 
L 247.628571 190.953783 
L 257.914286 193.038158 
L 268.2 195.122532 
L 278.485714 197.206907 
L 288.771429 199.291281 
L 299.057143 201.375655 
L 309.342857 203.46003 
L 319.628571 205.544404 
L 329.914286 207.628779 
L 340.2 209.713153 
L 350.485714 211.797528 
L 360.771429 213.881902 
L 371.057143 215.966276 
L 381.342857 218.050651 
L 391.628571 220.135025 
L 401.914286 222.2194 
L 412.2 224.303774 
L 422.485714 226.388149 
L 432.771429 228.472523 
L 443.057143 230.556898 
L 453.342857 232.641272 
L 463.628571 234.725646 
L 473.914286 236.810021 
L 484.2 238.894395 
L 494.485714 240.97877 
L 504.771429 243.063144 
L 515.057143 245.147519 
L 525.342857 247.231893 
L 535.628571 249.316267 
L 545.914286 251.400642 
L 556.2 253.485016 
L 566.485714 255.569391 
L 576.771429 257.653765 
L 587.057143 259.73814 
L 597.342857 261.822514 
L 607.628571 263.906889 
L 617.914286 265.991263 
L 628.2 268.075637 
" clip-path="url(#p6152d51ec5)" style="fill: none; stroke: #1f77b4; stroke-width: 1.5; stroke-linecap: square"/>
   </g>
   <g id="line2d_13">
    <path d="M 124.2 89.28 
L 134.485714 89.350085 
L 144.771429 89.420169 
L 155.057143 89.490254 
L 165.342857 89.560338 
L 175.628571 89.630423 
L 185.914286 89.700508 
L 196.2 89.770592 
L 206.485714 89.840677 
L 216.771429 89.910761 
L 227.057143 89.980846 
L 237.342857 90.050931 
L 247.628571 90.121015 
L 257.914286 90.1911 
L 268.2 90.261184 
L 278.485714 90.331269 
L 288.771429 90.401354 
L 299.057143 90.471438 
L 309.342857 90.541523 
L 319.628571 90.611607 
L 329.914286 90.681692 
L 340.2 90.751776 
L 350.485714 90.821861 
L 360.771429 90.891946 
L 371.057143 90.96203 
L 381.342857 91.032115 
L 391.628571 91.102199 
L 401.914286 91.172284 
L 412.2 91.242369 
L 422.485714 91.312453 
L 432.771429 91.382538 
L 443.057143 91.452622 
L 453.342857 91.522707 
L 463.628571 91.592792 
L 473.914286 91.662876 
L 484.2 91.732961 
L 494.485714 91.803045 
L 504.771429 91.87313 
L 515.057143 91.943215 
L 525.342857 92.013299 
L 535.628571 92.083384 
L 545.914286 92.153468 
L 556.2 92.223553 
L 566.485714 92.293638 
L 576.771429 92.363722 
L 587.057143 92.433807 
L 597.342857 92.503891 
L 607.628571 92.573976 
L 617.914286 92.644061 
L 628.2 92.714145 
" clip-path="url(#p6152d51ec5)" style="fill: none; stroke: #ff7f0e; stroke-width: 1.5; stroke-linecap: square"/>
   </g>
   <g id="line2d_14">
    <path d="M 124.2 201.721361 
L 134.485714 200.069009 
L 144.771429 198.416656 
L 155.057143 196.764303 
L 165.342857 195.111951 
L 175.628571 193.459598 
L 185.914286 191.807246 
L 196.2 190.154893 
L 206.485714 188.50254 
L 216.771429 186.850188 
L 227.057143 185.197835 
L 237.342857 183.545483 
L 247.628571 181.89313 
L 257.914286 180.240777 
L 268.2 178.588425 
L 278.485714 176.936072 
L 288.771429 175.28372 
L 299.057143 173.631367 
L 309.342857 171.979015 
L 319.628571 170.326662 
L 329.914286 168.674309 
L 340.2 167.021957 
L 350.485714 165.369604 
L 360.771429 163.717252 
L 371.057143 162.064899 
L 381.342857 160.412546 
L 391.628571 158.760194 
L 401.914286 157.107841 
L 412.2 155.455489 
L 422.485714 153.803136 
L 432.771429 152.150783 
L 443.057143 150.498431 
L 453.342857 148.846078 
L 463.628571 147.193726 
L 473.914286 145.541373 
L 484.2 143.889021 
L 494.485714 142.236668 
L 504.771429 140.584315 
L 515.057143 138.931963 
L 525.342857 137.27961 
L 535.628571 135.627258 
L 545.914286 133.974905 
L 556.2 132.322552 
L 566.485714 130.6702 
L 576.771429 129.017847 
L 587.057143 127.365495 
L 597.342857 125.713142 
L 607.628571 124.060789 
L 617.914286 122.408437 
L 628.2 120.756084 
" clip-path="url(#p6152d51ec5)" style="fill: none; stroke: #2ca02c; stroke-width: 1.5; stroke-linecap: square"/>
   </g>
   <g id="line2d_15">
    <path d="M 124.2 492.48 
L 134.485714 491.977894 
L 144.771429 491.475787 
L 155.057143 490.973681 
L 165.342857 490.471574 
L 175.628571 489.969468 
L 185.914286 489.467361 
L 196.2 488.965255 
L 206.485714 488.463148 
L 216.771429 487.961042 
L 227.057143 487.458936 
L 237.342857 486.956829 
L 247.628571 486.454723 
L 257.914286 485.952616 
L 268.2 485.45051 
L 278.485714 484.948403 
L 288.771429 484.446297 
L 299.057143 483.94419 
L 309.342857 483.442084 
L 319.628571 482.939978 
L 329.914286 482.437871 
L 340.2 481.935765 
L 350.485714 481.433658 
L 360.771429 480.931552 
L 371.057143 480.429445 
L 381.342857 479.927339 
L 391.628571 479.425232 
L 401.914286 478.923126 
L 412.2 478.42102 
L 422.485714 477.918913 
L 432.771429 477.416807 
L 443.057143 476.9147 
L 453.342857 476.412594 
L 463.628571 475.910487 
L 473.914286 475.408381 
L 484.2 474.906274 
L 494.485714 474.404168 
L 504.771429 473.902062 
L 515.057143 473.399955 
L 525.342857 472.897849 
L 535.628571 472.395742 
L 545.914286 471.893636 
L 556.2 471.391529 
L 566.485714 470.889423 
L 576.771429 470.387316 
L 587.057143 469.88521 
L 597.342857 469.383104 
L 607.628571 468.880997 
L 617.914286 468.378891 
L 628.2 467.876784 
" clip-path="url(#p6152d51ec5)" style="fill: none; stroke: #d62728; stroke-width: 1.5; stroke-linecap: square"/>
   </g>
   <g id="line2d_16">
    <path d="M 124.2 384.303041 
L 134.485714 384.303041 
L 144.771429 384.303041 
L 155.057143 384.303041 
L 165.342857 384.303041 
L 175.628571 384.303041 
L 185.914286 384.303041 
L 196.2 384.303041 
L 206.485714 384.303041 
L 216.771429 384.303041 
L 227.057143 384.303041 
L 237.342857 384.303041 
L 247.628571 384.303041 
L 257.914286 384.303041 
L 268.2 384.303041 
L 278.485714 384.303041 
L 288.771429 384.303041 
L 299.057143 384.303041 
L 309.342857 384.303041 
L 319.628571 384.303041 
L 329.914286 384.303041 
L 340.2 384.303041 
L 350.485714 384.303041 
L 360.771429 384.303041 
L 371.057143 384.303041 
L 381.342857 384.303041 
L 391.628571 384.303041 
L 401.914286 384.303041 
L 412.2 384.303041 
L 422.485714 384.303041 
L 432.771429 384.303041 
L 443.057143 384.303041 
L 453.342857 384.303041 
L 463.628571 384.303041 
L 473.914286 384.303041 
L 484.2 384.303041 
L 494.485714 384.303041 
L 504.771429 384.303041 
L 515.057143 384.303041 
L 525.342857 384.303041 
L 535.628571 384.303041 
L 545.914286 384.303041 
L 556.2 384.303041 
L 566.485714 384.303041 
L 576.771429 384.303041 
L 587.057143 384.303041 
L 597.342857 384.303041 
L 607.628571 384.303041 
L 617.914286 384.303041 
L 628.2 384.303041 
" clip-path="url(#p6152d51ec5)" style="fill: none; stroke: #9467bd; stroke-width: 1.5; stroke-linecap: square"/>
   </g>
   <g id="patch_3">
    <path d="M 99 512.64 
L 99 69.12 
" style="fill: none; stroke: #000000; stroke-width: 0.8; stroke-linejoin: miter; stroke-linecap: square"/>
   </g>
   <g id="patch_4">
    <path d="M 653.4 512.64 
L 653.4 69.12 
" style="fill: none; stroke: #000000; stroke-width: 0.8; stroke-linejoin: miter; stroke-linecap: square"/>
   </g>
   <g id="patch_5">
    <path d="M 99 512.64 
L 653.4 512.64 
" style="fill: none; stroke: #000000; stroke-width: 0.8; stroke-linejoin: miter; stroke-linecap: square"/>
   </g>
   <g id="patch_6">
    <path d="M 99 69.12 
L 653.4 69.12 
" style="fill: none; stroke: #000000; stroke-width: 0.8; stroke-linejoin: miter; stroke-linecap: square"/>
   </g>
   <g id="legend_1">
    <g id="patch_7">
     <path d="M 106 329.075313 
L 144.3625 329.075313 
Q 146.3625 329.075313 146.3625 327.075313 
L 146.3625 254.684688 
Q 146.3625 252.684688 144.3625 252.684688 
L 106 252.684688 
Q 104 252.684688 104 254.684688 
L 104 327.075313 
Q 104 329.075313 106 329.075313 
z
" style="fill: #ffffff; opacity: 0.8; stroke: #cccccc; stroke-linejoin: miter"/>
    </g>
    <g id="line2d_17">
     <path d="M 108 260.783125 
L 118 260.783125 
L 128 260.783125 
" style="fill: none; stroke: #ff7f0e; stroke-width: 1.5; stroke-linecap: square"/>
    </g>
    <g id="text_12">
     <!-- 2 -->
     <g transform="translate(136 264.283125)scale(0.1 -0.1)">
      <use xlink:href="#DejaVuSans-32"/>
     </g>
    </g>
    <g id="line2d_18">
     <path d="M 108 275.46125 
L 118 275.46125 
L 128 275.46125 
" style="fill: none; stroke: #2ca02c; stroke-width: 1.5; stroke-linecap: square"/>
    </g>
    <g id="text_13">
     <!-- 3 -->
     <g transform="translate(136 278.96125)scale(0.1 -0.1)">
      <defs>
       <path id="DejaVuSans-33" d="M 2597 2516 
Q 3050 2419 3304 2112 
Q 3559 1806 3559 1356 
Q 3559 666 3084 287 
Q 2609 -91 1734 -91 
Q 1441 -91 1130 -33 
Q 819 25 488 141 
L 488 750 
Q 750 597 1062 519 
Q 1375 441 1716 441 
Q 2309 441 2620 675 
Q 2931 909 2931 1356 
Q 2931 1769 2642 2001 
Q 2353 2234 1838 2234 
L 1294 2234 
L 1294 2753 
L 1863 2753 
Q 2328 2753 2575 2939 
Q 2822 3125 2822 3475 
Q 2822 3834 2567 4026 
Q 2313 4219 1838 4219 
Q 1578 4219 1281 4162 
Q 984 4106 628 3988 
L 628 4550 
Q 988 4650 1302 4700 
Q 1616 4750 1894 4750 
Q 2613 4750 3031 4423 
Q 3450 4097 3450 3541 
Q 3450 3153 3228 2886 
Q 3006 2619 2597 2516 
z
" transform="scale(0.015625)"/>
      </defs>
      <use xlink:href="#DejaVuSans-33"/>
     </g>
    </g>
    <g id="line2d_19">
     <path d="M 108 290.139375 
L 118 290.139375 
L 128 290.139375 
" style="fill: none; stroke: #1f77b4; stroke-width: 1.5; stroke-linecap: square"/>
    </g>
    <g id="text_14">
     <!-- 1 -->
     <g transform="translate(136 293.639375)scale(0.1 -0.1)">
      <use xlink:href="#DejaVuSans-31"/>
     </g>
    </g>
    <g id="line2d_20">
     <path d="M 108 304.8175 
L 118 304.8175 
L 128 304.8175 
" style="fill: none; stroke: #9467bd; stroke-width: 1.5; stroke-linecap: square"/>
    </g>
    <g id="text_15">
     <!-- 5 -->
     <g transform="translate(136 308.3175)scale(0.1 -0.1)">
      <use xlink:href="#DejaVuSans-35"/>
     </g>
    </g>
    <g id="line2d_21">
     <path d="M 108 319.495625 
L 118 319.495625 
L 128 319.495625 
" style="fill: none; stroke: #d62728; stroke-width: 1.5; stroke-linecap: square"/>
    </g>
    <g id="text_16">
     <!-- 4 -->
     <g transform="translate(136 322.995625)scale(0.1 -0.1)">
      <defs>
       <path id="DejaVuSans-34" d="M 2419 4116 
L 825 1625 
L 2419 1625 
L 2419 4116 
z
M 2253 4666 
L 3047 4666 
L 3047 1625 
L 3713 1625 
L 3713 1100 
L 3047 1100 
L 3047 0 
L 2419 0 
L 2419 1100 
L 313 1100 
L 313 1709 
L 2253 4666 
z
" transform="scale(0.015625)"/>
      </defs>
      <use xlink:href="#DejaVuSans-34"/>
     </g>
    </g>
   </g>
  </g>
 </g>
 <defs>
  <clipPath id="p6152d51ec5">
   <rect x="99" y="69.12" width="554.4" height="443.52"/>
  </clipPath>
 </defs>
</svg>
