<?xml version="1.0" encoding="utf-8" standalone="no"?>
<!DOCTYPE svg PUBLIC "-//W3C//DTD SVG 1.1//EN"
  "http://www.w3.org/Graphics/SVG/1.1/DTD/svg11.dtd">
<svg xmlns:xlink="http://www.w3.org/1999/xlink" width="460.8pt" height="345.6pt" viewBox="0 0 460.8 345.6" xmlns="http://www.w3.org/2000/svg" version="1.1">
 <metadata>
  <rdf:RDF xmlns:dc="http://purl.org/dc/elements/1.1/" xmlns:cc="http://creativecommons.org/ns#" xmlns:rdf="http://www.w3.org/1999/02/22-rdf-syntax-ns#">
   <cc:Work>
    <dc:type rdf:resource="http://purl.org/dc/dcmitype/StillImage"/>
    <dc:date>2021-12-01T21:15:42.143570</dc:date>
    <dc:format>image/svg+xml</dc:format>
    <dc:creator>
     <cc:Agent>
      <dc:title>Matplotlib v3.5.0, https://matplotlib.org/</dc:title>
     </cc:Agent>
    </dc:creator>
   </cc:Work>
  </rdf:RDF>
 </metadata>
 <defs>
  <style type="text/css">*{stroke-linejoin: round; stroke-linecap: butt}</style>
 </defs>
 <g id="figure_1">
  <g id="patch_1">
   <path d="M 0 345.6 
L 460.8 345.6 
L 460.8 0 
L 0 0 
z
" style="fill: #ffffff"/>
  </g>
  <g id="axes_1">
   <g id="patch_2">
    <path d="M 57.6 307.584 
L 414.72 307.584 
L 414.72 41.472 
L 57.6 41.472 
z
" style="fill: #ffffff"/>
   </g>
   <g id="matplotlib.axis_1">
    <g id="xtick_1">
     <g id="line2d_1">
      <defs>
       <path id="mb8750f26f0" d="M 0 0 
L 0 3.5 
" style="stroke: #000000; stroke-width: 0.8"/>
      </defs>
      <g>
       <use xlink:href="#mb8750f26f0" x="111.003002" y="307.584" style="stroke: #000000; stroke-width: 0.8"/>
      </g>
     </g>
     <g id="text_1">
      <!-- 80 -->
      <g transform="translate(104.640502 322.182437)scale(0.1 -0.1)">
       <defs>
        <path id="DejaVuSans-38" d="M 2034 2216 
Q 1584 2216 1326 1975 
Q 1069 1734 1069 1313 
Q 1069 891 1326 650 
Q 1584 409 2034 409 
Q 2484 409 2743 651 
Q 3003 894 3003 1313 
Q 3003 1734 2745 1975 
Q 2488 2216 2034 2216 
z
M 1403 2484 
Q 997 2584 770 2862 
Q 544 3141 544 3541 
Q 544 4100 942 4425 
Q 1341 4750 2034 4750 
Q 2731 4750 3128 4425 
Q 3525 4100 3525 3541 
Q 3525 3141 3298 2862 
Q 3072 2584 2669 2484 
Q 3125 2378 3379 2068 
Q 3634 1759 3634 1313 
Q 3634 634 3220 271 
Q 2806 -91 2034 -91 
Q 1263 -91 848 271 
Q 434 634 434 1313 
Q 434 1759 690 2068 
Q 947 2378 1403 2484 
z
M 1172 3481 
Q 1172 3119 1398 2916 
Q 1625 2713 2034 2713 
Q 2441 2713 2670 2916 
Q 2900 3119 2900 3481 
Q 2900 3844 2670 4047 
Q 2441 4250 2034 4250 
Q 1625 4250 1398 4047 
Q 1172 3844 1172 3481 
z
" transform="scale(0.015625)"/>
        <path id="DejaVuSans-30" d="M 2034 4250 
Q 1547 4250 1301 3770 
Q 1056 3291 1056 2328 
Q 1056 1369 1301 889 
Q 1547 409 2034 409 
Q 2525 409 2770 889 
Q 3016 1369 3016 2328 
Q 3016 3291 2770 3770 
Q 2525 4250 2034 4250 
z
M 2034 4750 
Q 2819 4750 3233 4129 
Q 3647 3509 3647 2328 
Q 3647 1150 3233 529 
Q 2819 -91 2034 -91 
Q 1250 -91 836 529 
Q 422 1150 422 2328 
Q 422 3509 836 4129 
Q 1250 4750 2034 4750 
z
" transform="scale(0.015625)"/>
       </defs>
       <use xlink:href="#DejaVuSans-38"/>
       <use xlink:href="#DejaVuSans-30" x="63.623047"/>
      </g>
     </g>
    </g>
    <g id="xtick_2">
     <g id="line2d_2">
      <g>
       <use xlink:href="#mb8750f26f0" x="167.038452" y="307.584" style="stroke: #000000; stroke-width: 0.8"/>
      </g>
     </g>
     <g id="text_2">
      <!-- 100 -->
      <g transform="translate(157.494702 322.182437)scale(0.1 -0.1)">
       <defs>
        <path id="DejaVuSans-31" d="M 794 531 
L 1825 531 
L 1825 4091 
L 703 3866 
L 703 4441 
L 1819 4666 
L 2450 4666 
L 2450 531 
L 3481 531 
L 3481 0 
L 794 0 
L 794 531 
z
" transform="scale(0.015625)"/>
       </defs>
       <use xlink:href="#DejaVuSans-31"/>
       <use xlink:href="#DejaVuSans-30" x="63.623047"/>
       <use xlink:href="#DejaVuSans-30" x="127.246094"/>
      </g>
     </g>
    </g>
    <g id="xtick_3">
     <g id="line2d_3">
      <g>
       <use xlink:href="#mb8750f26f0" x="223.073901" y="307.584" style="stroke: #000000; stroke-width: 0.8"/>
      </g>
     </g>
     <g id="text_3">
      <!-- 120 -->
      <g transform="translate(213.530151 322.182437)scale(0.1 -0.1)">
       <defs>
        <path id="DejaVuSans-32" d="M 1228 531 
L 3431 531 
L 3431 0 
L 469 0 
L 469 531 
Q 828 903 1448 1529 
Q 2069 2156 2228 2338 
Q 2531 2678 2651 2914 
Q 2772 3150 2772 3378 
Q 2772 3750 2511 3984 
Q 2250 4219 1831 4219 
Q 1534 4219 1204 4116 
Q 875 4013 500 3803 
L 500 4441 
Q 881 4594 1212 4672 
Q 1544 4750 1819 4750 
Q 2544 4750 2975 4387 
Q 3406 4025 3406 3419 
Q 3406 3131 3298 2873 
Q 3191 2616 2906 2266 
Q 2828 2175 2409 1742 
Q 1991 1309 1228 531 
z
" transform="scale(0.015625)"/>
       </defs>
       <use xlink:href="#DejaVuSans-31"/>
       <use xlink:href="#DejaVuSans-32" x="63.623047"/>
       <use xlink:href="#DejaVuSans-30" x="127.246094"/>
      </g>
     </g>
    </g>
    <g id="xtick_4">
     <g id="line2d_4">
      <g>
       <use xlink:href="#mb8750f26f0" x="279.109351" y="307.584" style="stroke: #000000; stroke-width: 0.8"/>
      </g>
     </g>
     <g id="text_4">
      <!-- 140 -->
      <g transform="translate(269.565601 322.182437)scale(0.1 -0.1)">
       <defs>
        <path id="DejaVuSans-34" d="M 2419 4116 
L 825 1625 
L 2419 1625 
L 2419 4116 
z
M 2253 4666 
L 3047 4666 
L 3047 1625 
L 3713 1625 
L 3713 1100 
L 3047 1100 
L 3047 0 
L 2419 0 
L 2419 1100 
L 313 1100 
L 313 1709 
L 2253 4666 
z
" transform="scale(0.015625)"/>
       </defs>
       <use xlink:href="#DejaVuSans-31"/>
       <use xlink:href="#DejaVuSans-34" x="63.623047"/>
       <use xlink:href="#DejaVuSans-30" x="127.246094"/>
      </g>
     </g>
    </g>
    <g id="xtick_5">
     <g id="line2d_5">
      <g>
       <use xlink:href="#mb8750f26f0" x="335.144801" y="307.584" style="stroke: #000000; stroke-width: 0.8"/>
      </g>
     </g>
     <g id="text_5">
      <!-- 160 -->
      <g transform="translate(325.601051 322.182437)scale(0.1 -0.1)">
       <defs>
        <path id="DejaVuSans-36" d="M 2113 2584 
Q 1688 2584 1439 2293 
Q 1191 2003 1191 1497 
Q 1191 994 1439 701 
Q 1688 409 2113 409 
Q 2538 409 2786 701 
Q 3034 994 3034 1497 
Q 3034 2003 2786 2293 
Q 2538 2584 2113 2584 
z
M 3366 4563 
L 3366 3988 
Q 3128 4100 2886 4159 
Q 2644 4219 2406 4219 
Q 1781 4219 1451 3797 
Q 1122 3375 1075 2522 
Q 1259 2794 1537 2939 
Q 1816 3084 2150 3084 
Q 2853 3084 3261 2657 
Q 3669 2231 3669 1497 
Q 3669 778 3244 343 
Q 2819 -91 2113 -91 
Q 1303 -91 875 529 
Q 447 1150 447 2328 
Q 447 3434 972 4092 
Q 1497 4750 2381 4750 
Q 2619 4750 2861 4703 
Q 3103 4656 3366 4563 
z
" transform="scale(0.015625)"/>
       </defs>
       <use xlink:href="#DejaVuSans-31"/>
       <use xlink:href="#DejaVuSans-36" x="63.623047"/>
       <use xlink:href="#DejaVuSans-30" x="127.246094"/>
      </g>
     </g>
    </g>
    <g id="xtick_6">
     <g id="line2d_6">
      <g>
       <use xlink:href="#mb8750f26f0" x="391.18025" y="307.584" style="stroke: #000000; stroke-width: 0.8"/>
      </g>
     </g>
     <g id="text_6">
      <!-- 180 -->
      <g transform="translate(381.6365 322.182437)scale(0.1 -0.1)">
       <use xlink:href="#DejaVuSans-31"/>
       <use xlink:href="#DejaVuSans-38" x="63.623047"/>
       <use xlink:href="#DejaVuSans-30" x="127.246094"/>
      </g>
     </g>
    </g>
   </g>
   <g id="matplotlib.axis_2">
    <g id="ytick_1">
     <g id="line2d_7">
      <defs>
       <path id="m4d70af4daf" d="M 0 0 
L -3.5 0 
" style="stroke: #000000; stroke-width: 0.8"/>
      </defs>
      <g>
       <use xlink:href="#m4d70af4daf" x="57.6" y="280.886039" style="stroke: #000000; stroke-width: 0.8"/>
      </g>
     </g>
     <g id="text_7">
      <!-- 100000 -->
      <g transform="translate(12.425 284.685258)scale(0.1 -0.1)">
       <use xlink:href="#DejaVuSans-31"/>
       <use xlink:href="#DejaVuSans-30" x="63.623047"/>
       <use xlink:href="#DejaVuSans-30" x="127.246094"/>
       <use xlink:href="#DejaVuSans-30" x="190.869141"/>
       <use xlink:href="#DejaVuSans-30" x="254.492188"/>
       <use xlink:href="#DejaVuSans-30" x="318.115234"/>
      </g>
     </g>
    </g>
    <g id="ytick_2">
     <g id="line2d_8">
      <g>
       <use xlink:href="#m4d70af4daf" x="57.6" y="236.738019" style="stroke: #000000; stroke-width: 0.8"/>
      </g>
     </g>
     <g id="text_8">
      <!-- 200000 -->
      <g transform="translate(12.425 240.537238)scale(0.1 -0.1)">
       <use xlink:href="#DejaVuSans-32"/>
       <use xlink:href="#DejaVuSans-30" x="63.623047"/>
       <use xlink:href="#DejaVuSans-30" x="127.246094"/>
       <use xlink:href="#DejaVuSans-30" x="190.869141"/>
       <use xlink:href="#DejaVuSans-30" x="254.492188"/>
       <use xlink:href="#DejaVuSans-30" x="318.115234"/>
      </g>
     </g>
    </g>
    <g id="ytick_3">
     <g id="line2d_9">
      <g>
       <use xlink:href="#m4d70af4daf" x="57.6" y="192.589999" style="stroke: #000000; stroke-width: 0.8"/>
      </g>
     </g>
     <g id="text_9">
      <!-- 300000 -->
      <g transform="translate(12.425 196.389218)scale(0.1 -0.1)">
       <defs>
        <path id="DejaVuSans-33" d="M 2597 2516 
Q 3050 2419 3304 2112 
Q 3559 1806 3559 1356 
Q 3559 666 3084 287 
Q 2609 -91 1734 -91 
Q 1441 -91 1130 -33 
Q 819 25 488 141 
L 488 750 
Q 750 597 1062 519 
Q 1375 441 1716 441 
Q 2309 441 2620 675 
Q 2931 909 2931 1356 
Q 2931 1769 2642 2001 
Q 2353 2234 1838 2234 
L 1294 2234 
L 1294 2753 
L 1863 2753 
Q 2328 2753 2575 2939 
Q 2822 3125 2822 3475 
Q 2822 3834 2567 4026 
Q 2313 4219 1838 4219 
Q 1578 4219 1281 4162 
Q 984 4106 628 3988 
L 628 4550 
Q 988 4650 1302 4700 
Q 1616 4750 1894 4750 
Q 2613 4750 3031 4423 
Q 3450 4097 3450 3541 
Q 3450 3153 3228 2886 
Q 3006 2619 2597 2516 
z
" transform="scale(0.015625)"/>
       </defs>
       <use xlink:href="#DejaVuSans-33"/>
       <use xlink:href="#DejaVuSans-30" x="63.623047"/>
       <use xlink:href="#DejaVuSans-30" x="127.246094"/>
       <use xlink:href="#DejaVuSans-30" x="190.869141"/>
       <use xlink:href="#DejaVuSans-30" x="254.492188"/>
       <use xlink:href="#DejaVuSans-30" x="318.115234"/>
      </g>
     </g>
    </g>
    <g id="ytick_4">
     <g id="line2d_10">
      <g>
       <use xlink:href="#m4d70af4daf" x="57.6" y="148.441979" style="stroke: #000000; stroke-width: 0.8"/>
      </g>
     </g>
     <g id="text_10">
      <!-- 400000 -->
      <g transform="translate(12.425 152.241198)scale(0.1 -0.1)">
       <use xlink:href="#DejaVuSans-34"/>
       <use xlink:href="#DejaVuSans-30" x="63.623047"/>
       <use xlink:href="#DejaVuSans-30" x="127.246094"/>
       <use xlink:href="#DejaVuSans-30" x="190.869141"/>
       <use xlink:href="#DejaVuSans-30" x="254.492188"/>
       <use xlink:href="#DejaVuSans-30" x="318.115234"/>
      </g>
     </g>
    </g>
    <g id="ytick_5">
     <g id="line2d_11">
      <g>
       <use xlink:href="#m4d70af4daf" x="57.6" y="104.293959" style="stroke: #000000; stroke-width: 0.8"/>
      </g>
     </g>
     <g id="text_11">
      <!-- 500000 -->
      <g transform="translate(12.425 108.093178)scale(0.1 -0.1)">
       <defs>
        <path id="DejaVuSans-35" d="M 691 4666 
L 3169 4666 
L 3169 4134 
L 1269 4134 
L 1269 2991 
Q 1406 3038 1543 3061 
Q 1681 3084 1819 3084 
Q 2600 3084 3056 2656 
Q 3513 2228 3513 1497 
Q 3513 744 3044 326 
Q 2575 -91 1722 -91 
Q 1428 -91 1123 -41 
Q 819 9 494 109 
L 494 744 
Q 775 591 1075 516 
Q 1375 441 1709 441 
Q 2250 441 2565 725 
Q 2881 1009 2881 1497 
Q 2881 1984 2565 2268 
Q 2250 2553 1709 2553 
Q 1456 2553 1204 2497 
Q 953 2441 691 2322 
L 691 4666 
z
" transform="scale(0.015625)"/>
       </defs>
       <use xlink:href="#DejaVuSans-35"/>
       <use xlink:href="#DejaVuSans-30" x="63.623047"/>
       <use xlink:href="#DejaVuSans-30" x="127.246094"/>
       <use xlink:href="#DejaVuSans-30" x="190.869141"/>
       <use xlink:href="#DejaVuSans-30" x="254.492188"/>
       <use xlink:href="#DejaVuSans-30" x="318.115234"/>
      </g>
     </g>
    </g>
    <g id="ytick_6">
     <g id="line2d_12">
      <g>
       <use xlink:href="#m4d70af4daf" x="57.6" y="60.145939" style="stroke: #000000; stroke-width: 0.8"/>
      </g>
     </g>
     <g id="text_12">
      <!-- 600000 -->
      <g transform="translate(12.425 63.945158)scale(0.1 -0.1)">
       <use xlink:href="#DejaVuSans-36"/>
       <use xlink:href="#DejaVuSans-30" x="63.623047"/>
       <use xlink:href="#DejaVuSans-30" x="127.246094"/>
       <use xlink:href="#DejaVuSans-30" x="190.869141"/>
       <use xlink:href="#DejaVuSans-30" x="254.492188"/>
       <use xlink:href="#DejaVuSans-30" x="318.115234"/>
      </g>
     </g>
    </g>
   </g>
   <g id="line2d_13">
    <path d="M 73.832727 283.023322 
L 92.044248 279.415181 
L 98.348236 278.16621 
L 116.606547 274.548799 
L 133.697359 271.162699 
L 134.467847 271.010047 
L 138.74055 270.163521 
L 141.682411 269.580668 
L 167.015197 264.561634 
L 177.755232 262.433775 
L 181.187403 261.753779 
L 190.340794 259.940273 
L 194.963718 259.02436 
L 209.157497 256.212231 
L 232.552298 251.577159 
L 234.95902 251.100329 
L 236.710128 250.753393 
L 236.754956 250.744511 
L 241.307837 249.842476 
L 241.728103 249.759211 
L 253.489943 247.428908 
L 273.973702 243.370583 
L 288.587747 240.475189 
L 289.148102 240.364169 
L 292.487815 239.702492 
L 297.040695 238.800457 
L 303.834993 237.454343 
L 305.913908 237.04246 
L 324.467246 233.366598 
L 329.213448 232.426261 
L 358.259423 226.671555 
L 369.068662 224.529985 
L 398.487273 218.701451 
" clip-path="url(#p1c07891464)" style="fill: none; stroke: #1f77b4; stroke-width: 1.5; stroke-linecap: square"/>
   </g>
   <g id="line2d_14">
    <path d="M 116.606547 273.063653 
L 133.697359 274.454552 
L 134.467847 273.189991 
L 167.015197 266.366146 
L 177.755232 256.125604 
L 194.963718 259.436213 
L 232.552298 254.40043 
L 241.307837 242.0175 
L 273.973702 245.058155 
L 292.487815 245.515137 
L 297.040695 237.877113 
L 324.467246 231.896584 
" clip-path="url(#p1c07891464)" style="fill: none; stroke: #ff7f0e; stroke-width: 1.5; stroke-linecap: square"/>
   </g>
   <g id="line2d_15">
    <path d="M 73.832727 289.324362 
L 92.044248 287.06284 
L 98.348236 286.280005 
L 116.606547 284.012671 
L 133.697359 281.890319 
L 134.467847 281.794639 
L 138.74055 281.264051 
L 141.682411 280.898728 
L 167.015197 277.75288 
L 177.755232 276.419173 
L 181.187403 275.992963 
L 190.340794 274.856287 
L 194.963718 274.282208 
L 209.157497 272.519612 
L 232.552298 269.614425 
L 234.95902 269.315556 
L 236.710128 269.098102 
L 236.754956 269.092535 
L 241.307837 268.527154 
L 241.728103 268.474965 
L 253.489943 267.014369 
L 273.973702 264.470678 
L 288.587747 262.655893 
L 289.148102 262.586307 
L 292.487815 262.171579 
L 297.040695 261.606198 
L 303.834993 260.762476 
L 305.913908 260.504315 
L 324.467246 258.200345 
L 329.213448 257.610957 
L 358.259423 254.004002 
L 369.068662 252.661701 
L 398.487273 249.008472 
" clip-path="url(#p1c07891464)" style="fill: none; stroke: #2ca02c; stroke-width: 1.5; stroke-linecap: square"/>
   </g>
   <g id="line2d_16">
    <path d="M 116.606547 284.987854 
L 133.697359 275.064999 
L 134.467847 289.296968 
L 167.015197 285.516376 
L 177.755232 263.968898 
L 194.963718 278.993253 
L 232.552298 274.754903 
L 241.307837 254.26621 
L 273.973702 270.076601 
L 292.487815 263.500494 
L 297.040695 263.6458 
L 324.467246 256.669913 
" clip-path="url(#p1c07891464)" style="fill: none; stroke: #d62728; stroke-width: 1.5; stroke-linecap: square"/>
   </g>
   <g id="line2d_17">
    <path d="M 73.832727 280.522509 
L 92.044248 277.237593 
L 98.348236 276.100506 
L 116.606547 272.807151 
L 133.697359 269.724384 
L 134.467847 269.585406 
L 138.74055 268.814715 
L 141.682411 268.284074 
L 167.015197 263.714655 
L 177.755232 261.777414 
L 181.187403 261.158334 
L 190.340794 259.507284 
L 194.963718 258.673421 
L 209.157497 256.113208 
L 232.552298 251.893355 
L 234.95902 251.45924 
L 236.710128 251.143383 
L 236.754956 251.135297 
L 241.307837 250.314068 
L 241.728103 250.238262 
L 253.489943 248.116712 
L 273.973702 244.42194 
L 288.587747 241.785921 
L 289.148102 241.684847 
L 292.487815 241.082444 
L 297.040695 240.261215 
L 303.834993 239.035688 
L 305.913908 238.660703 
L 324.467246 235.314131 
L 329.213448 234.458032 
L 358.259423 229.218844 
L 369.068662 227.26912 
L 398.487273 221.962717 
" clip-path="url(#p1c07891464)" style="fill: none; stroke: #9467bd; stroke-width: 1.5; stroke-linecap: square"/>
   </g>
   <g id="line2d_18">
    <path d="M 116.606547 271.969671 
L 133.697359 263.884694 
L 134.467847 274.611679 
L 167.015197 270.754325 
L 177.755232 252.653553 
L 194.963718 262.286827 
L 232.552298 256.290421 
L 241.307837 244.714486 
L 273.973702 247.64988 
L 292.487815 241.791201 
L 297.040695 239.210911 
L 324.467246 233.751933 
" clip-path="url(#p1c07891464)" style="fill: none; stroke: #8c564b; stroke-width: 1.5; stroke-linecap: square"/>
   </g>
   <g id="line2d_19">
    <path d="M 73.832727 260.089923 
L 92.044248 255.6339 
L 98.348236 254.09143 
L 116.606547 249.623958 
L 133.697359 245.442152 
L 134.467847 245.253628 
L 138.74055 244.208176 
L 141.682411 243.488357 
L 167.015197 237.289892 
L 177.755232 234.662003 
L 181.187403 233.822214 
L 190.340794 231.582549 
L 194.963718 230.451404 
L 209.157497 226.978448 
L 232.552298 221.254172 
L 234.95902 220.665292 
L 236.710128 220.236828 
L 236.754956 220.225859 
L 241.307837 219.111854 
L 241.728103 219.009022 
L 253.489943 216.131117 
L 273.973702 211.119119 
L 288.587747 207.543332 
L 289.148102 207.406223 
L 292.487815 206.589057 
L 297.040695 205.475052 
L 303.834993 203.812612 
L 305.913908 203.30394 
L 324.467246 198.764281 
L 329.213448 197.602972 
L 358.259423 190.495958 
L 369.068662 187.851137 
L 398.487273 180.652946 
" clip-path="url(#p1c07891464)" style="fill: none; stroke: #e377c2; stroke-width: 1.5; stroke-linecap: square"/>
   </g>
   <g id="line2d_20">
    <path d="M 116.606547 249.259496 
L 133.697359 245.307495 
L 134.467847 246.728344 
L 167.015197 238.939628 
L 177.755232 231.696309 
L 194.963718 230.248134 
L 232.552298 223.889796 
L 241.307837 216.053029 
L 273.973702 212.629241 
L 292.487815 206.323555 
L 297.040695 204.282027 
L 324.467246 199.679517 
" clip-path="url(#p1c07891464)" style="fill: none; stroke: #7f7f7f; stroke-width: 1.5; stroke-linecap: square"/>
   </g>
   <g id="line2d_21">
    <path d="M 73.832727 280.259208 
L 92.044248 278.669311 
L 98.348236 278.118962 
L 116.606547 276.52498 
L 133.697359 275.032922 
L 134.467847 274.965657 
L 138.74055 274.592643 
L 141.682411 274.335813 
L 167.015197 272.124218 
L 177.755232 271.186594 
L 181.187403 270.88696 
L 190.340794 270.087853 
L 194.963718 269.684263 
L 209.157497 268.445122 
L 232.552298 266.402716 
L 234.95902 266.192605 
L 236.710128 266.03973 
L 236.754956 266.035816 
L 241.307837 265.638342 
L 241.728103 265.601652 
L 253.489943 264.574823 
L 273.973702 262.786556 
L 288.587747 261.510724 
L 289.148102 261.461804 
L 292.487815 261.170242 
L 297.040695 260.772767 
L 303.834993 260.179613 
L 305.913908 259.998121 
L 324.467246 258.378382 
L 329.213448 257.964031 
L 358.259423 255.428267 
L 369.068662 254.484602 
L 398.487273 251.916306 
" clip-path="url(#p1c07891464)" style="fill: none; stroke: #bcbd22; stroke-width: 1.5; stroke-linecap: square"/>
   </g>
   <g id="line2d_22">
    <path d="M 116.606547 279.694296 
L 133.697359 271.802669 
L 134.467847 280.817141 
L 167.015197 274.252296 
L 177.755232 260.818889 
L 194.963718 274.543257 
L 232.552298 269.138827 
L 241.307837 248.986365 
L 273.973702 270.439279 
L 292.487815 266.201262 
L 297.040695 260.349701 
L 324.467246 257.623657 
" clip-path="url(#p1c07891464)" style="fill: none; stroke: #17becf; stroke-width: 1.5; stroke-linecap: square"/>
   </g>
   <g id="line2d_23">
    <path d="M 73.832727 197.758174 
L 92.044248 189.669815 
L 98.348236 186.869999 
L 116.606547 178.760859 
L 133.697359 171.170246 
L 134.467847 170.828046 
L 138.74055 168.930393 
L 141.682411 167.623812 
L 167.015197 156.372656 
L 177.755232 151.60264 
L 181.187403 150.078295 
L 190.340794 146.012962 
L 194.963718 143.959763 
L 209.157497 137.655821 
L 232.552298 127.265391 
L 234.95902 126.196483 
L 236.710128 125.418756 
L 236.754956 125.398846 
L 241.307837 123.376757 
L 241.728103 123.190102 
L 253.489943 117.966267 
L 273.973702 108.86873 
L 288.587747 102.378133 
L 289.148102 102.129261 
L 292.487815 100.64598 
L 297.040695 98.623891 
L 303.834993 95.606311 
L 305.913908 94.682993 
L 324.467246 86.442823 
L 329.213448 84.334872 
L 358.259423 71.434562 
L 369.068662 66.63381 
L 398.487273 53.568 
" clip-path="url(#p1c07891464)" style="fill: none; stroke: #1f77b4; stroke-width: 1.5; stroke-linecap: square"/>
   </g>
   <g id="line2d_24">
    <path d="M 73.832727 195.605604 
L 92.044248 185.61999 
L 98.348236 183.590659 
L 138.74055 174.916925 
L 141.682411 169.982041 
L 167.015197 162.416519 
L 181.187403 149.348004 
L 209.157497 136.540197 
L 234.95902 127.425809 
L 236.710128 131.82763 
L 236.754956 128.266693 
L 253.489943 104.399244 
" clip-path="url(#p1c07891464)" style="fill: none; stroke: #ff7f0e; stroke-width: 1.5; stroke-linecap: square"/>
   </g>
   <g id="line2d_25">
    <path d="M 73.832727 263.275314 
L 92.044248 259.117035 
L 98.348236 257.67763 
L 116.606547 253.508667 
L 133.697359 249.606282 
L 134.467847 249.430355 
L 138.74055 248.454758 
L 141.682411 247.783036 
L 167.015197 241.998742 
L 177.755232 239.546444 
L 181.187403 238.762769 
L 190.340794 236.672753 
L 194.963718 235.61719 
L 209.157497 232.376291 
L 232.552298 227.034501 
L 234.95902 226.484969 
L 236.710128 226.085134 
L 236.754956 226.074898 
L 241.307837 225.035329 
L 241.728103 224.939368 
L 253.489943 222.25376 
L 273.973702 217.576655 
L 288.587747 214.239795 
L 289.148102 214.111848 
L 292.487815 213.349284 
L 297.040695 212.309714 
L 303.834993 210.758356 
L 305.913908 210.283672 
L 324.467246 206.047345 
L 329.213448 204.963634 
L 358.259423 198.331498 
L 369.068662 195.863399 
L 398.487273 189.146178 
" clip-path="url(#p1c07891464)" style="fill: none; stroke: #2ca02c; stroke-width: 1.5; stroke-linecap: square"/>
   </g>
   <g id="line2d_26">
    <path d="M 116.606547 250.929518 
L 133.697359 246.600595 
L 134.467847 251.430419 
L 167.015197 247.934567 
L 177.755232 235.752644 
L 194.963718 238.498403 
L 232.552298 230.342478 
L 241.307837 219.1391 
L 273.973702 220.273479 
L 292.487815 215.553698 
L 297.040695 210.776702 
L 324.467246 203.828905 
" clip-path="url(#p1c07891464)" style="fill: none; stroke: #d62728; stroke-width: 1.5; stroke-linecap: square"/>
   </g>
   <g id="line2d_27">
    <path d="M 73.832727 270.719389 
L 92.044248 267.992977 
L 98.348236 267.049219 
L 116.606547 264.315802 
L 133.697359 261.75717 
L 134.467847 261.641822 
L 138.74055 261.002163 
L 141.682411 260.561743 
L 167.015197 256.76922 
L 177.755232 255.16135 
L 181.187403 254.647527 
L 190.340794 253.27719 
L 194.963718 252.585101 
L 209.157497 250.460178 
L 232.552298 246.957787 
L 234.95902 246.597481 
L 236.710128 246.335326 
L 236.754956 246.328615 
L 241.307837 245.647012 
L 241.728103 245.584095 
L 253.489943 243.823253 
L 273.973702 240.756668 
L 288.587747 238.568828 
L 289.148102 238.484938 
L 292.487815 237.984956 
L 297.040695 237.303353 
L 303.834993 236.286192 
L 305.913908 235.974962 
L 324.467246 233.197377 
L 329.213448 232.486832 
L 358.259423 228.138415 
L 369.068662 226.520185 
L 398.487273 222.115981 
" clip-path="url(#p1c07891464)" style="fill: none; stroke: #9467bd; stroke-width: 1.5; stroke-linecap: square"/>
   </g>
   <g id="line2d_28">
    <path d="M 116.606547 266.170432 
L 133.697359 253.917591 
L 134.467847 265.215354 
L 167.015197 263.443524 
L 177.755232 246.831835 
L 194.963718 258.436864 
L 232.552298 252.073401 
L 241.307837 233.563109 
L 273.973702 246.298915 
L 292.487815 240.800231 
L 297.040695 237.639725 
L 324.467246 229.686639 
" clip-path="url(#p1c07891464)" style="fill: none; stroke: #8c564b; stroke-width: 1.5; stroke-linecap: square"/>
   </g>
   <g id="line2d_29">
    <path d="M 73.832727 247.32928 
L 92.044248 242.300409 
L 98.348236 240.559646 
L 116.606547 235.517855 
L 133.697359 230.798452 
L 134.467847 230.585692 
L 138.74055 229.405842 
L 141.682411 228.593486 
L 167.015197 221.598171 
L 177.755232 218.632453 
L 181.187403 217.684704 
L 190.340794 215.157116 
L 194.963718 213.880556 
L 209.157497 209.961132 
L 232.552298 203.500967 
L 234.95902 202.836382 
L 236.710128 202.352837 
L 236.754956 202.340458 
L 241.307837 201.08324 
L 241.728103 200.967189 
L 253.489943 197.719312 
L 273.973702 192.062993 
L 288.587747 188.027517 
L 289.148102 187.872783 
L 292.487815 186.950565 
L 297.040695 185.693347 
L 303.834993 183.817191 
L 305.913908 183.243126 
L 324.467246 178.119867 
L 329.213448 176.809266 
L 358.259423 168.788604 
L 369.068662 165.803775 
L 398.487273 157.680214 
" clip-path="url(#p1c07891464)" style="fill: none; stroke: #e377c2; stroke-width: 1.5; stroke-linecap: square"/>
   </g>
   <g id="line2d_30">
    <path d="M 116.606547 235.941139 
L 133.697359 238.95436 
L 134.467847 222.596434 
L 167.015197 216.0216 
L 177.755232 223.704344 
L 194.963718 208.661917 
L 232.552298 201.79264 
L 241.307837 212.0821 
L 273.973702 191.530432 
L 292.487815 187.671257 
L 297.040695 183.142589 
L 324.467246 176.325347 
" clip-path="url(#p1c07891464)" style="fill: none; stroke: #7f7f7f; stroke-width: 1.5; stroke-linecap: square"/>
   </g>
   <g id="line2d_31">
    <path d="M 73.832727 271.877186 
L 92.044248 267.672088 
L 98.348236 266.216477 
L 116.606547 262.000576 
L 133.697359 258.054253 
L 134.467847 257.876345 
L 138.74055 256.889765 
L 141.682411 256.21048 
L 167.015197 250.36106 
L 177.755232 247.881152 
L 181.187403 247.088653 
L 190.340794 244.975106 
L 194.963718 243.907658 
L 209.157497 240.63027 
L 232.552298 235.228337 
L 234.95902 234.672617 
L 236.710128 234.268281 
L 236.754956 234.25793 
L 241.307837 233.206655 
L 241.728103 233.109615 
L 253.489943 230.393768 
L 273.973702 225.664004 
L 288.587747 222.289575 
L 289.148102 222.160187 
L 292.487815 221.389037 
L 297.040695 220.337763 
L 303.834993 218.768938 
L 305.913908 218.28891 
L 324.467246 214.004886 
L 329.213448 212.908973 
L 358.259423 206.202165 
L 369.068662 203.706278 
L 398.487273 196.913428 
" clip-path="url(#p1c07891464)" style="fill: none; stroke: #bcbd22; stroke-width: 1.5; stroke-linecap: square"/>
   </g>
   <g id="line2d_32">
    <path d="M 116.606547 260.74976 
L 133.697359 261.527818 
L 134.467847 258.587316 
L 167.015197 246.271616 
L 177.755232 247.951494 
L 194.963718 238.671655 
L 232.552298 240.248574 
L 241.307837 234.98189 
L 273.973702 226.412534 
L 292.487815 222.942937 
L 297.040695 223.158429 
L 324.467246 208.407703 
" clip-path="url(#p1c07891464)" style="fill: none; stroke: #17becf; stroke-width: 1.5; stroke-linecap: square"/>
   </g>
   <g id="line2d_33">
    <path d="M 73.832727 289.527589 
L 92.044248 285.569571 
L 98.348236 284.199487 
L 116.606547 280.231299 
L 133.697359 276.516851 
L 134.467847 276.349396 
L 138.74055 275.420784 
L 141.682411 274.781412 
L 167.015197 269.275686 
L 177.755232 266.94149 
L 181.187403 266.195556 
L 190.340794 264.206195 
L 194.963718 263.201467 
L 209.157497 260.116648 
L 232.552298 255.032116 
L 234.95902 254.509049 
L 236.710128 254.12847 
L 236.754956 254.118727 
L 241.307837 253.129222 
L 241.728103 253.037883 
L 253.489943 250.481612 
L 273.973702 246.029754 
L 288.587747 242.853597 
L 289.148102 242.731811 
L 292.487815 242.005972 
L 297.040695 241.016467 
L 303.834993 239.539821 
L 305.913908 239.087998 
L 324.467246 235.055691 
L 329.213448 234.02417 
L 358.259423 227.711435 
L 369.068662 225.362198 
L 398.487273 218.968475 
" clip-path="url(#p1c07891464)" style="fill: none; stroke: #1f77b4; stroke-width: 1.5; stroke-linecap: square"/>
   </g>
   <g id="line2d_34">
    <path d="M 116.606547 277.810424 
L 133.697359 279.223021 
L 134.467847 279.103393 
L 167.015197 267.736025 
L 177.755232 264.499906 
L 194.963718 265.201145 
L 232.552298 255.245245 
L 241.307837 246.747868 
L 273.973702 250.742296 
L 292.487815 243.924875 
L 297.040695 241.640684 
L 324.467246 232.91053 
" clip-path="url(#p1c07891464)" style="fill: none; stroke: #ff7f0e; stroke-width: 1.5; stroke-linecap: square"/>
   </g>
   <g id="line2d_35">
    <path d="M 73.832727 290.675825 
L 92.044248 288.655484 
L 98.348236 287.956135 
L 116.606547 285.930603 
L 133.697359 284.034591 
L 134.467847 283.949115 
L 138.74055 283.475112 
L 141.682411 283.148749 
L 167.015197 280.338392 
L 177.755232 279.146919 
L 181.187403 278.766163 
L 190.340794 277.750708 
L 194.963718 277.237852 
L 209.157497 275.66323 
L 232.552298 273.067868 
L 234.95902 272.800872 
L 236.710128 272.606609 
L 236.754956 272.601636 
L 241.307837 272.096551 
L 241.728103 272.049927 
L 253.489943 270.745098 
L 273.973702 268.47268 
L 288.587747 266.851434 
L 289.148102 266.78927 
L 292.487815 266.41877 
L 297.040695 265.913685 
L 303.834993 265.159942 
L 305.913908 264.929313 
L 324.467246 262.871051 
L 329.213448 262.344519 
L 358.259423 259.122231 
L 369.068662 257.923081 
L 398.487273 254.659453 
" clip-path="url(#p1c07891464)" style="fill: none; stroke: #2ca02c; stroke-width: 1.5; stroke-linecap: square"/>
   </g>
   <g id="line2d_36">
    <path d="M 116.606547 288.319566 
L 133.697359 279.786583 
L 134.467847 288.474043 
L 167.015197 282.639909 
L 177.755232 269.792197 
L 194.963718 284.969307 
L 232.552298 275.091492 
L 241.307837 258.327087 
L 273.973702 272.066927 
L 292.487815 271.572616 
L 297.040695 268.672454 
L 324.467246 259.765896 
" clip-path="url(#p1c07891464)" style="fill: none; stroke: #d62728; stroke-width: 1.5; stroke-linecap: square"/>
   </g>
   <g id="line2d_37">
    <path d="M 73.832727 271.32716 
L 92.044248 267.831713 
L 98.348236 266.62175 
L 116.606547 263.117323 
L 133.697359 259.83698 
L 134.467847 259.689096 
L 138.74055 258.86901 
L 141.682411 258.304361 
L 167.015197 253.442086 
L 177.755232 251.380686 
L 181.187403 250.721929 
L 190.340794 248.965063 
L 194.963718 248.077757 
L 209.157497 245.35346 
L 232.552298 240.863154 
L 234.95902 240.401218 
L 236.710128 240.065117 
L 236.754956 240.056513 
L 241.307837 239.182651 
L 241.728103 239.101987 
L 253.489943 236.844466 
L 273.973702 232.912894 
L 288.587747 230.107932 
L 289.148102 230.00038 
L 292.487815 229.359369 
L 297.040695 228.485507 
L 303.834993 227.181436 
L 305.913908 226.782417 
L 324.467246 223.221363 
L 329.213448 222.310396 
L 358.259423 216.735426 
L 369.068662 214.660744 
L 398.487273 209.014252 
" clip-path="url(#p1c07891464)" style="fill: none; stroke: #9467bd; stroke-width: 1.5; stroke-linecap: square"/>
   </g>
   <g id="line2d_38">
    <path d="M 116.606547 260.580014 
L 133.697359 251.666298 
L 134.467847 265.701214 
L 167.015197 259.963126 
L 177.755232 245.145153 
L 194.963718 252.480545 
L 232.552298 246.406829 
L 241.307837 234.391326 
L 273.973702 235.792318 
L 292.487815 231.457979 
L 297.040695 226.22931 
L 324.467246 219.754753 
" clip-path="url(#p1c07891464)" style="fill: none; stroke: #8c564b; stroke-width: 1.5; stroke-linecap: square"/>
   </g>
   <g id="line2d_39">
    <path d="M 73.832727 295.488 
L 92.044248 293.176157 
L 98.348236 292.375903 
L 116.606547 290.05812 
L 133.697359 287.888544 
L 134.467847 287.790735 
L 138.74055 287.248341 
L 141.682411 286.87489 
L 167.015197 283.659044 
L 177.755232 282.295661 
L 181.187403 281.859968 
L 190.340794 280.698 
L 194.963718 280.111147 
L 209.157497 278.309332 
L 232.552298 275.339503 
L 234.95902 275.033984 
L 236.710128 274.811691 
L 236.754956 274.806 
L 241.307837 274.228039 
L 241.728103 274.174689 
L 253.489943 272.681594 
L 273.973702 270.081304 
L 288.587747 268.226138 
L 289.148102 268.155005 
L 292.487815 267.731048 
L 297.040695 267.153087 
L 303.834993 266.290592 
L 305.913908 266.026686 
L 324.467246 263.671451 
L 329.213448 263.068949 
L 358.259423 259.381737 
L 369.068662 258.009569 
L 398.487273 254.275053 
" clip-path="url(#p1c07891464)" style="fill: none; stroke: #e377c2; stroke-width: 1.5; stroke-linecap: square"/>
   </g>
   <g id="line2d_40">
    <path d="M 116.606547 291.435277 
L 133.697359 284.870992 
L 134.467847 290.918022 
L 167.015197 289.134874 
L 177.755232 273.914514 
L 194.963718 286.071257 
L 232.552298 280.020076 
L 241.307837 255.693905 
L 273.973702 276.219629 
L 292.487815 268.150119 
L 297.040695 270.016126 
L 324.467246 263.562893 
" clip-path="url(#p1c07891464)" style="fill: none; stroke: #7f7f7f; stroke-width: 1.5; stroke-linecap: square"/>
   </g>
   <g id="line2d_41">
    <path d="M 73.832727 276.022804 
L 92.044248 271.263574 
L 98.348236 269.616149 
L 116.606547 264.844691 
L 133.697359 260.378337 
L 134.467847 260.176985 
L 138.74055 259.060397 
L 141.682411 258.291598 
L 167.015197 251.671363 
L 177.755232 248.864662 
L 181.187403 247.96773 
L 190.340794 245.575668 
L 194.963718 244.367556 
L 209.157497 240.658285 
L 232.552298 234.544505 
L 234.95902 233.915555 
L 236.710128 233.457937 
L 236.754956 233.446222 
L 241.307837 232.256414 
L 241.728103 232.146586 
L 253.489943 229.072855 
L 273.973702 223.71982 
L 288.587747 219.900721 
L 289.148102 219.754283 
L 292.487815 218.881514 
L 297.040695 217.691706 
L 303.834993 215.916148 
L 305.913908 215.372863 
L 324.467246 210.524306 
L 329.213448 209.283978 
L 358.259423 201.693372 
L 369.068662 198.868586 
L 398.487273 191.1806 
" clip-path="url(#p1c07891464)" style="fill: none; stroke: #bcbd22; stroke-width: 1.5; stroke-linecap: square"/>
   </g>
   <g id="line2d_42">
    <path d="M 116.606547 264.376108 
L 133.697359 259.603471 
L 134.467847 259.529496 
L 167.015197 253.184487 
L 177.755232 249.386113 
L 194.963718 243.925616 
L 232.552298 232.705501 
L 241.307837 235.970906 
L 273.973702 222.261195 
L 292.487815 220.236564 
L 297.040695 217.734849 
L 324.467246 209.007554 
" clip-path="url(#p1c07891464)" style="fill: none; stroke: #17becf; stroke-width: 1.5; stroke-linecap: square"/>
   </g>
   <g id="line2d_43">
    <path d="M 73.832727 277.698402 
L 92.044248 275.895682 
L 98.348236 275.271663 
L 116.606547 273.464311 
L 133.697359 271.772528 
L 134.467847 271.696259 
L 138.74055 271.273313 
L 141.682411 270.982104 
L 167.015197 268.474465 
L 177.755232 267.411332 
L 181.187403 267.071588 
L 190.340794 266.165513 
L 194.963718 265.7079 
L 209.157497 264.302887 
L 232.552298 261.987085 
L 234.95902 261.748849 
L 236.710128 261.57551 
L 236.754956 261.571073 
L 241.307837 261.120393 
L 241.728103 261.078792 
L 253.489943 259.914512 
L 273.973702 257.886867 
L 288.587747 256.440254 
L 289.148102 256.384785 
L 292.487815 256.054194 
L 297.040695 255.603514 
L 303.834993 254.930961 
L 305.913908 254.725174 
L 324.467246 252.888618 
L 329.213448 252.418801 
L 358.259423 249.543601 
L 369.068662 248.473617 
L 398.487273 245.561531 
" clip-path="url(#p1c07891464)" style="fill: none; stroke: #1f77b4; stroke-width: 1.5; stroke-linecap: square"/>
   </g>
   <g id="line2d_44">
    <path d="M 116.606547 272.728646 
L 133.697359 269.552376 
L 134.467847 276.95555 
L 167.015197 273.566061 
L 177.755232 255.907198 
L 194.963718 272.168134 
L 232.552298 266.039952 
L 241.307837 246.667285 
L 273.973702 263.745765 
L 292.487815 259.210667 
L 297.040695 257.765485 
L 324.467246 249.760348 
" clip-path="url(#p1c07891464)" style="fill: none; stroke: #ff7f0e; stroke-width: 1.5; stroke-linecap: square"/>
   </g>
   <g id="line2d_45">
    <path d="M 73.832727 264.003434 
L 92.044248 259.035121 
L 98.348236 257.315321 
L 116.606547 252.334244 
L 133.697359 247.671673 
L 134.467847 247.461476 
L 138.74055 246.295833 
L 141.682411 245.493259 
L 167.015197 238.582184 
L 177.755232 235.652179 
L 181.187403 234.715843 
L 190.340794 232.218693 
L 194.963718 230.957506 
L 209.157497 227.085279 
L 232.552298 220.702909 
L 234.95902 220.046327 
L 236.710128 219.568605 
L 236.754956 219.556375 
L 241.307837 218.314297 
L 241.728103 218.199644 
L 253.489943 214.990878 
L 273.973702 209.402673 
L 288.587747 205.415793 
L 289.148102 205.262922 
L 292.487815 204.35181 
L 297.040695 203.109732 
L 303.834993 201.256169 
L 305.913908 200.689017 
L 324.467246 195.627453 
L 329.213448 194.332635 
L 358.259423 186.408558 
L 369.068662 183.459674 
L 398.487273 175.433938 
" clip-path="url(#p1c07891464)" style="fill: none; stroke: #2ca02c; stroke-width: 1.5; stroke-linecap: square"/>
   </g>
   <g id="line2d_46">
    <path d="M 116.606547 254.288813 
L 133.697359 249.125535 
L 134.467847 244.124897 
L 167.015197 238.392723 
L 177.755232 237.802856 
L 194.963718 229.329808 
L 232.552298 217.435615 
L 241.307837 221.893046 
L 273.973702 209.388927 
L 292.487815 201.210738 
L 297.040695 202.353547 
L 324.467246 198.82163 
" clip-path="url(#p1c07891464)" style="fill: none; stroke: #d62728; stroke-width: 1.5; stroke-linecap: square"/>
   </g>
   <g id="line2d_47">
    <path d="M 73.832727 282.859664 
L 92.044248 280.270142 
L 98.348236 279.373769 
L 116.606547 276.777593 
L 133.697359 274.347426 
L 134.467847 274.237869 
L 138.74055 273.630327 
L 141.682411 273.21202 
L 167.015197 269.609914 
L 177.755232 268.082773 
L 181.187403 267.594748 
L 190.340794 266.293214 
L 194.963718 265.635873 
L 209.157497 263.617639 
L 232.552298 260.291099 
L 234.95902 259.948884 
L 236.710128 259.699891 
L 236.754956 259.693517 
L 241.307837 259.046136 
L 241.728103 258.986378 
L 253.489943 257.313945 
L 273.973702 254.401329 
L 288.587747 252.323337 
L 289.148102 252.24366 
L 292.487815 251.768781 
L 297.040695 251.1214 
L 303.834993 250.155309 
L 305.913908 249.859705 
L 324.467246 247.221579 
L 329.213448 246.54671 
L 358.259423 242.416621 
L 369.068662 240.87964 
L 398.487273 236.696565 
" clip-path="url(#p1c07891464)" style="fill: none; stroke: #9467bd; stroke-width: 1.5; stroke-linecap: square"/>
   </g>
   <g id="line2d_48">
    <path d="M 116.606547 280.263541 
L 133.697359 267.815503 
L 134.467847 280.260616 
L 167.015197 271.472507 
L 177.755232 261.722806 
L 194.963718 266.514749 
L 232.552298 265.03083 
L 241.307837 249.142285 
L 273.973702 255.963975 
L 292.487815 256.067684 
L 297.040695 253.846772 
L 324.467246 244.440505 
" clip-path="url(#p1c07891464)" style="fill: none; stroke: #8c564b; stroke-width: 1.5; stroke-linecap: square"/>
   </g>
   <g id="line2d_49">
    <path d="M 73.832727 282.771374 
L 92.044248 279.826561 
L 98.348236 278.807203 
L 116.606547 275.854824 
L 133.697359 273.091231 
L 134.467847 272.966643 
L 138.74055 272.275744 
L 141.682411 271.800044 
L 167.015197 267.703719 
L 177.755232 265.96705 
L 181.187403 265.412066 
L 190.340794 263.931958 
L 194.963718 263.184428 
L 209.157497 260.889287 
L 232.552298 257.106335 
L 234.95902 256.717167 
L 236.710128 256.434011 
L 236.754956 256.426763 
L 241.307837 255.69056 
L 241.728103 255.622602 
L 253.489943 253.720706 
L 273.973702 250.408472 
L 288.587747 248.045373 
L 289.148102 247.954763 
L 292.487815 247.41473 
L 297.040695 246.678527 
L 303.834993 245.579885 
L 305.913908 245.243723 
L 324.467246 242.243639 
L 329.213448 241.476175 
L 358.259423 236.779426 
L 369.068662 235.031566 
L 398.487273 230.274561 
" clip-path="url(#p1c07891464)" style="fill: none; stroke: #e377c2; stroke-width: 1.5; stroke-linecap: square"/>
   </g>
   <g id="line2d_50">
    <path d="M 116.606547 276.404857 
L 133.697359 268.648235 
L 134.467847 270.694574 
L 167.015197 273.345334 
L 177.755232 262.365904 
L 194.963718 272.388874 
L 232.552298 258.876961 
L 241.307837 246.580896 
L 273.973702 253.151628 
L 292.487815 250.813518 
L 297.040695 245.241778 
L 324.467246 239.797598 
" clip-path="url(#p1c07891464)" style="fill: none; stroke: #7f7f7f; stroke-width: 1.5; stroke-linecap: square"/>
   </g>
   <g id="line2d_51">
    <path d="M 73.832727 292.843265 
L 92.044248 290.918169 
L 98.348236 290.251789 
L 116.606547 288.321748 
L 133.697359 286.515119 
L 134.467847 286.433673 
L 138.74055 285.982016 
L 141.682411 285.671039 
L 167.015197 282.993171 
L 177.755232 281.857868 
L 181.187403 281.495062 
L 190.340794 280.527479 
L 194.963718 280.038801 
L 209.157497 278.53841 
L 232.552298 276.065403 
L 234.95902 275.810994 
L 236.710128 275.625889 
L 236.754956 275.62115 
L 241.307837 275.139876 
L 241.728103 275.095451 
L 253.489943 273.852135 
L 273.973702 271.686846 
L 288.587747 270.142031 
L 289.148102 270.082797 
L 292.487815 269.729764 
L 297.040695 269.24849 
L 303.834993 268.530281 
L 305.913908 268.310524 
L 324.467246 266.349296 
L 329.213448 265.847586 
L 358.259423 262.777207 
L 369.068662 261.634588 
L 398.487273 258.524818 
" clip-path="url(#p1c07891464)" style="fill: none; stroke: #bcbd22; stroke-width: 1.5; stroke-linecap: square"/>
   </g>
   <g id="line2d_52">
    <path d="M 116.606547 289.427746 
L 133.697359 283.589336 
L 134.467847 289.489314 
L 167.015197 287.46628 
L 177.755232 274.871682 
L 194.963718 285.140832 
L 232.552298 280.870887 
L 241.307837 257.322412 
L 273.973702 278.07012 
L 292.487815 271.656763 
L 297.040695 271.569932 
L 324.467246 264.904749 
" clip-path="url(#p1c07891464)" style="fill: none; stroke: #17becf; stroke-width: 1.5; stroke-linecap: square"/>
   </g>
   <g id="line2d_53">
    <path d="M 73.832727 280.354846 
L 92.044248 278.119322 
L 98.348236 277.345487 
L 116.606547 275.10422 
L 133.697359 273.006267 
L 134.467847 272.911687 
L 138.74055 272.387199 
L 141.682411 272.026076 
L 167.015197 268.916394 
L 177.755232 267.59802 
L 181.187403 267.176709 
L 190.340794 266.053101 
L 194.963718 265.485622 
L 209.157497 263.743289 
L 232.552298 260.871501 
L 234.95902 260.576068 
L 236.710128 260.361114 
L 236.754956 260.355611 
L 241.307837 259.79673 
L 241.728103 259.745141 
L 253.489943 258.301337 
L 273.973702 255.786888 
L 288.587747 253.992967 
L 289.148102 253.924181 
L 292.487815 253.514221 
L 297.040695 252.95534 
L 303.834993 252.121317 
L 305.913908 251.866124 
L 324.467246 249.588641 
L 329.213448 249.006029 
L 358.259423 245.440541 
L 369.068662 244.113672 
L 398.487273 240.502441 
" clip-path="url(#p1c07891464)" style="fill: none; stroke: #1f77b4; stroke-width: 1.5; stroke-linecap: square"/>
   </g>
   <g id="line2d_54">
    <path d="M 116.606547 275.196579 
L 133.697359 273.096423 
L 134.467847 272.466282 
L 167.015197 272.852355 
L 177.755232 262.979339 
L 194.963718 271.612018 
L 232.552298 264.223756 
L 241.307837 243.944069 
L 273.973702 259.880573 
L 292.487815 252.755982 
L 297.040695 258.076283 
L 324.467246 248.451872 
" clip-path="url(#p1c07891464)" style="fill: none; stroke: #ff7f0e; stroke-width: 1.5; stroke-linecap: square"/>
   </g>
   <g id="line2d_55">
    <path d="M 73.832727 280.270381 
L 92.044248 277.979454 
L 98.348236 277.186441 
L 116.606547 274.889628 
L 133.697359 272.739682 
L 134.467847 272.642758 
L 138.74055 272.105271 
L 141.682411 271.735198 
L 167.015197 268.548449 
L 177.755232 267.197401 
L 181.187403 266.76565 
L 190.340794 265.614195 
L 194.963718 265.032652 
L 209.157497 263.247139 
L 232.552298 260.304179 
L 234.95902 260.001425 
L 236.710128 259.781143 
L 236.754956 259.775504 
L 241.307837 259.202772 
L 241.728103 259.149905 
L 253.489943 257.670319 
L 273.973702 255.093555 
L 288.587747 253.255174 
L 289.148102 253.184684 
L 292.487815 252.764564 
L 297.040695 252.191832 
L 303.834993 251.33714 
L 305.913908 251.075622 
L 324.467246 248.741696 
L 329.213448 248.144646 
L 358.259423 244.490794 
L 369.068662 243.131041 
L 398.487273 239.430313 
" clip-path="url(#p1c07891464)" style="fill: none; stroke: #2ca02c; stroke-width: 1.5; stroke-linecap: square"/>
   </g>
   <g id="line2d_56">
    <path d="M 116.606547 277.152696 
L 133.697359 272.101728 
L 134.467847 274.8409 
L 167.015197 273.664946 
L 177.755232 251.082212 
L 194.963718 270.482287 
L 232.552298 266.213467 
L 241.307837 249.179802 
L 273.973702 260.308537 
L 292.487815 254.507876 
L 297.040695 254.302024 
L 324.467246 245.512694 
" clip-path="url(#p1c07891464)" style="fill: none; stroke: #d62728; stroke-width: 1.5; stroke-linecap: square"/>
   </g>
   <g id="line2d_57">
    <path d="M 73.832727 282.479327 
L 92.044248 278.496213 
L 98.348236 277.117442 
L 116.606547 273.124095 
L 133.697359 269.386095 
L 134.467847 269.217579 
L 138.74055 268.283079 
L 141.682411 267.639653 
L 167.015197 262.099019 
L 177.755232 259.750023 
L 181.187403 258.99936 
L 190.340794 256.997385 
L 194.963718 255.986287 
L 209.157497 252.881909 
L 232.552298 247.76514 
L 234.95902 247.238756 
L 236.710128 246.855764 
L 236.754956 246.84596 
L 241.307837 245.850181 
L 241.728103 245.758263 
L 253.489943 243.185784 
L 273.973702 238.7057 
L 288.587747 235.509404 
L 289.148102 235.386847 
L 292.487815 234.656405 
L 297.040695 233.660627 
L 303.834993 232.174619 
L 305.913908 231.719931 
L 324.467246 227.662057 
L 329.213448 226.623996 
L 358.259423 220.271236 
L 369.068662 217.907104 
L 398.487273 211.472843 
" clip-path="url(#p1c07891464)" style="fill: none; stroke: #9467bd; stroke-width: 1.5; stroke-linecap: square"/>
   </g>
   <g id="line2d_58">
    <path d="M 116.606547 271.813117 
L 133.697359 267.475218 
L 134.467847 269.241268 
L 167.015197 267.501342 
L 177.755232 257.234179 
L 194.963718 260.339295 
L 232.552298 249.255225 
L 241.307837 234.799942 
L 273.973702 244.958292 
L 292.487815 238.824612 
L 297.040695 230.753356 
L 324.467246 225.667363 
" clip-path="url(#p1c07891464)" style="fill: none; stroke: #8c564b; stroke-width: 1.5; stroke-linecap: square"/>
   </g>
   <g id="line2d_59">
    <path d="M 73.832727 286.826997 
L 92.044248 282.857147 
L 98.348236 281.482968 
L 116.606547 277.502919 
L 133.697359 273.777367 
L 134.467847 273.609412 
L 138.74055 272.678024 
L 141.682411 272.03674 
L 167.015197 266.514557 
L 177.755232 264.173383 
L 181.187403 263.425219 
L 190.340794 261.429912 
L 194.963718 260.42218 
L 209.157497 257.32814 
L 232.552298 252.22841 
L 234.95902 251.703779 
L 236.710128 251.322062 
L 236.754956 251.31229 
L 241.307837 250.319828 
L 241.728103 250.228216 
L 253.489943 247.664304 
L 273.973702 243.199138 
L 288.587747 240.013486 
L 289.148102 239.891337 
L 292.487815 239.163328 
L 297.040695 238.170865 
L 303.834993 236.689806 
L 305.913908 236.236632 
L 324.467246 232.192271 
L 329.213448 231.157667 
L 358.259423 224.826061 
L 369.068662 222.469802 
L 398.487273 216.056968 
" clip-path="url(#p1c07891464)" style="fill: none; stroke: #e377c2; stroke-width: 1.5; stroke-linecap: square"/>
   </g>
   <g id="line2d_60">
    <path d="M 116.606547 274.141094 
L 133.697359 272.605063 
L 134.467847 275.328286 
L 167.015197 271.12617 
L 177.755232 259.464175 
L 194.963718 263.500551 
L 232.552298 253.95099 
L 241.307837 248.348449 
L 273.973702 245.440276 
L 292.487815 240.764729 
L 297.040695 238.287868 
L 324.467246 228.316006 
" clip-path="url(#p1c07891464)" style="fill: none; stroke: #7f7f7f; stroke-width: 1.5; stroke-linecap: square"/>
   </g>
   <g id="line2d_61">
    <path d="M 73.832727 281.144327 
L 92.044248 277.431882 
L 98.348236 276.146805 
L 116.606547 272.424822 
L 133.697359 268.940835 
L 134.467847 268.78377 
L 138.74055 267.912774 
L 141.682411 267.313071 
L 167.015197 262.148946 
L 177.755232 259.959575 
L 181.187403 259.259922 
L 190.340794 257.39399 
L 194.963718 256.4516 
L 209.157497 253.558178 
L 232.552298 248.789114 
L 234.95902 248.2985 
L 236.710128 247.941535 
L 236.754956 247.932396 
L 241.307837 247.004285 
L 241.728103 246.918613 
L 253.489943 244.520945 
L 273.973702 240.345301 
L 288.587747 237.366207 
L 289.148102 237.251978 
L 292.487815 236.571173 
L 297.040695 235.643062 
L 303.834993 234.258034 
L 305.913908 233.834245 
L 324.467246 230.05212 
L 329.213448 229.0846 
L 358.259423 223.163536 
L 369.068662 220.960057 
L 398.487273 214.963031 
" clip-path="url(#p1c07891464)" style="fill: none; stroke: #bcbd22; stroke-width: 1.5; stroke-linecap: square"/>
   </g>
   <g id="line2d_62">
    <path d="M 116.606547 272.500839 
L 133.697359 266.812754 
L 134.467847 269.145249 
L 167.015197 264.344491 
L 177.755232 257.838365 
L 194.963718 257.909565 
L 232.552298 251.607736 
L 241.307837 242.117469 
L 273.973702 243.367172 
L 292.487815 240.408548 
L 297.040695 234.556655 
L 324.467246 226.505761 
" clip-path="url(#p1c07891464)" style="fill: none; stroke: #17becf; stroke-width: 1.5; stroke-linecap: square"/>
   </g>
   <g id="line2d_63">
    <path d="M 73.832727 228.315847 
L 92.044248 222.079589 
L 98.348236 219.920884 
L 116.606547 213.668604 
L 133.697359 207.816116 
L 134.467847 207.552274 
L 138.74055 206.089152 
L 141.682411 205.081756 
L 167.015197 196.40693 
L 177.755232 192.729169 
L 181.187403 191.553874 
L 190.340794 188.419435 
L 194.963718 186.836384 
L 209.157497 181.975941 
L 232.552298 173.964748 
L 234.95902 173.140603 
L 236.710128 172.540962 
L 236.754956 172.525612 
L 241.307837 170.966547 
L 241.728103 170.822633 
L 253.489943 166.79497 
L 273.973702 159.780619 
L 288.587747 154.776262 
L 289.148102 154.584377 
L 292.487815 153.440743 
L 297.040695 151.881679 
L 303.834993 149.555075 
L 305.913908 148.843182 
L 324.467246 142.489874 
L 329.213448 140.86461 
L 358.259423 130.918258 
L 369.068662 127.216799 
L 398.487273 117.142844 
" clip-path="url(#p1c07891464)" style="fill: none; stroke: #1f77b4; stroke-width: 1.5; stroke-linecap: square"/>
   </g>
   <g id="line2d_64">
    <path d="M 116.606547 210.225871 
L 133.697359 217.064786 
L 134.467847 199.895895 
L 167.015197 187.227331 
L 177.755232 204.768054 
L 194.963718 179.619342 
L 232.552298 170.295095 
L 241.307837 182.675918 
L 273.973702 163.261253 
L 292.487815 161.871299 
L 297.040695 149.616581 
L 324.467246 131.012262 
" clip-path="url(#p1c07891464)" style="fill: none; stroke: #ff7f0e; stroke-width: 1.5; stroke-linecap: square"/>
   </g>
   <g id="patch_3">
    <path d="M 57.6 307.584 
L 57.6 41.472 
" style="fill: none; stroke: #000000; stroke-width: 0.8; stroke-linejoin: miter; stroke-linecap: square"/>
   </g>
   <g id="patch_4">
    <path d="M 414.72 307.584 
L 414.72 41.472 
" style="fill: none; stroke: #000000; stroke-width: 0.8; stroke-linejoin: miter; stroke-linecap: square"/>
   </g>
   <g id="patch_5">
    <path d="M 57.6 307.584 
L 414.72 307.584 
" style="fill: none; stroke: #000000; stroke-width: 0.8; stroke-linejoin: miter; stroke-linecap: square"/>
   </g>
   <g id="patch_6">
    <path d="M 57.6 41.472 
L 414.72 41.472 
" style="fill: none; stroke: #000000; stroke-width: 0.8; stroke-linejoin: miter; stroke-linecap: square"/>
   </g>
  </g>
 </g>
 <defs>
  <clipPath id="p1c07891464">
   <rect x="57.6" y="41.472" width="357.12" height="266.112"/>
  </clipPath>
 </defs>
</svg>
