<?xml version="1.0" encoding="utf-8" standalone="no"?>
<!DOCTYPE svg PUBLIC "-//W3C//DTD SVG 1.1//EN"
  "http://www.w3.org/Graphics/SVG/1.1/DTD/svg11.dtd">
<svg xmlns:xlink="http://www.w3.org/1999/xlink" width="792pt" height="576pt" viewBox="0 0 792 576" xmlns="http://www.w3.org/2000/svg" version="1.1">
 <metadata>
  <rdf:RDF xmlns:dc="http://purl.org/dc/elements/1.1/" xmlns:cc="http://creativecommons.org/ns#" xmlns:rdf="http://www.w3.org/1999/02/22-rdf-syntax-ns#">
   <cc:Work>
    <dc:type rdf:resource="http://purl.org/dc/dcmitype/StillImage"/>
    <dc:date>2021-12-02T03:12:22.361610</dc:date>
    <dc:format>image/svg+xml</dc:format>
    <dc:creator>
     <cc:Agent>
      <dc:title>Matplotlib v3.5.0, https://matplotlib.org/</dc:title>
     </cc:Agent>
    </dc:creator>
   </cc:Work>
  </rdf:RDF>
 </metadata>
 <defs>
  <style type="text/css">*{stroke-linejoin: round; stroke-linecap: butt}</style>
 </defs>
 <g id="figure_1">
  <g id="patch_1">
   <path d="M 0 576 
L 792 576 
L 792 0 
L 0 0 
z
" style="fill: #ffffff"/>
  </g>
  <g id="axes_1">
   <g id="patch_2">
    <path d="M 99 512.64 
L 653.4 512.64 
L 653.4 69.12 
L 99 69.12 
z
" style="fill: #e5e5e5"/>
   </g>
   <g id="matplotlib.axis_1">
    <g id="xtick_1">
     <g id="line2d_1">
      <path d="M 181.903854 512.64 
L 181.903854 69.12 
" clip-path="url(#pbf20266321)" style="fill: none; stroke: #ffffff; stroke-width: 1.4; stroke-linecap: square"/>
     </g>
     <g id="line2d_2">
      <defs>
       <path id="m6eb8e18e58" d="M 0 0 
L 0 5 
" style="stroke: #7f7f7f; stroke-width: 1.4"/>
      </defs>
      <g>
       <use xlink:href="#m6eb8e18e58" x="181.903854" y="512.64" style="fill: #7f7f7f; stroke: #7f7f7f; stroke-width: 1.4"/>
      </g>
     </g>
     <g id="text_1">
      <!-- 80 -->
      <g style="fill: #7f7f7f" transform="translate(174.268854 527.758125)scale(0.12 -0.12)">
       <defs>
        <path id="DejaVuSans-38" d="M 2034 2216 
Q 1584 2216 1326 1975 
Q 1069 1734 1069 1313 
Q 1069 891 1326 650 
Q 1584 409 2034 409 
Q 2484 409 2743 651 
Q 3003 894 3003 1313 
Q 3003 1734 2745 1975 
Q 2488 2216 2034 2216 
z
M 1403 2484 
Q 997 2584 770 2862 
Q 544 3141 544 3541 
Q 544 4100 942 4425 
Q 1341 4750 2034 4750 
Q 2731 4750 3128 4425 
Q 3525 4100 3525 3541 
Q 3525 3141 3298 2862 
Q 3072 2584 2669 2484 
Q 3125 2378 3379 2068 
Q 3634 1759 3634 1313 
Q 3634 634 3220 271 
Q 2806 -91 2034 -91 
Q 1263 -91 848 271 
Q 434 634 434 1313 
Q 434 1759 690 2068 
Q 947 2378 1403 2484 
z
M 1172 3481 
Q 1172 3119 1398 2916 
Q 1625 2713 2034 2713 
Q 2441 2713 2670 2916 
Q 2900 3119 2900 3481 
Q 2900 3844 2670 4047 
Q 2441 4250 2034 4250 
Q 1625 4250 1398 4047 
Q 1172 3844 1172 3481 
z
" transform="scale(0.015625)"/>
        <path id="DejaVuSans-30" d="M 2034 4250 
Q 1547 4250 1301 3770 
Q 1056 3291 1056 2328 
Q 1056 1369 1301 889 
Q 1547 409 2034 409 
Q 2525 409 2770 889 
Q 3016 1369 3016 2328 
Q 3016 3291 2770 3770 
Q 2525 4250 2034 4250 
z
M 2034 4750 
Q 2819 4750 3233 4129 
Q 3647 3509 3647 2328 
Q 3647 1150 3233 529 
Q 2819 -91 2034 -91 
Q 1250 -91 836 529 
Q 422 1150 422 2328 
Q 422 3509 836 4129 
Q 1250 4750 2034 4750 
z
" transform="scale(0.015625)"/>
       </defs>
       <use xlink:href="#DejaVuSans-38"/>
       <use xlink:href="#DejaVuSans-30" x="63.623047"/>
      </g>
     </g>
    </g>
    <g id="xtick_2">
     <g id="line2d_3">
      <path d="M 268.894371 512.64 
L 268.894371 69.12 
" clip-path="url(#pbf20266321)" style="fill: none; stroke: #ffffff; stroke-width: 1.4; stroke-linecap: square"/>
     </g>
     <g id="line2d_4">
      <g>
       <use xlink:href="#m6eb8e18e58" x="268.894371" y="512.64" style="fill: #7f7f7f; stroke: #7f7f7f; stroke-width: 1.4"/>
      </g>
     </g>
     <g id="text_2">
      <!-- 100 -->
      <g style="fill: #7f7f7f" transform="translate(257.441871 527.758125)scale(0.12 -0.12)">
       <defs>
        <path id="DejaVuSans-31" d="M 794 531 
L 1825 531 
L 1825 4091 
L 703 3866 
L 703 4441 
L 1819 4666 
L 2450 4666 
L 2450 531 
L 3481 531 
L 3481 0 
L 794 0 
L 794 531 
z
" transform="scale(0.015625)"/>
       </defs>
       <use xlink:href="#DejaVuSans-31"/>
       <use xlink:href="#DejaVuSans-30" x="63.623047"/>
       <use xlink:href="#DejaVuSans-30" x="127.246094"/>
      </g>
     </g>
    </g>
    <g id="xtick_3">
     <g id="line2d_5">
      <path d="M 355.884887 512.64 
L 355.884887 69.12 
" clip-path="url(#pbf20266321)" style="fill: none; stroke: #ffffff; stroke-width: 1.4; stroke-linecap: square"/>
     </g>
     <g id="line2d_6">
      <g>
       <use xlink:href="#m6eb8e18e58" x="355.884887" y="512.64" style="fill: #7f7f7f; stroke: #7f7f7f; stroke-width: 1.4"/>
      </g>
     </g>
     <g id="text_3">
      <!-- 120 -->
      <g style="fill: #7f7f7f" transform="translate(344.432387 527.758125)scale(0.12 -0.12)">
       <defs>
        <path id="DejaVuSans-32" d="M 1228 531 
L 3431 531 
L 3431 0 
L 469 0 
L 469 531 
Q 828 903 1448 1529 
Q 2069 2156 2228 2338 
Q 2531 2678 2651 2914 
Q 2772 3150 2772 3378 
Q 2772 3750 2511 3984 
Q 2250 4219 1831 4219 
Q 1534 4219 1204 4116 
Q 875 4013 500 3803 
L 500 4441 
Q 881 4594 1212 4672 
Q 1544 4750 1819 4750 
Q 2544 4750 2975 4387 
Q 3406 4025 3406 3419 
Q 3406 3131 3298 2873 
Q 3191 2616 2906 2266 
Q 2828 2175 2409 1742 
Q 1991 1309 1228 531 
z
" transform="scale(0.015625)"/>
       </defs>
       <use xlink:href="#DejaVuSans-31"/>
       <use xlink:href="#DejaVuSans-32" x="63.623047"/>
       <use xlink:href="#DejaVuSans-30" x="127.246094"/>
      </g>
     </g>
    </g>
    <g id="xtick_4">
     <g id="line2d_7">
      <path d="M 442.875404 512.64 
L 442.875404 69.12 
" clip-path="url(#pbf20266321)" style="fill: none; stroke: #ffffff; stroke-width: 1.4; stroke-linecap: square"/>
     </g>
     <g id="line2d_8">
      <g>
       <use xlink:href="#m6eb8e18e58" x="442.875404" y="512.64" style="fill: #7f7f7f; stroke: #7f7f7f; stroke-width: 1.4"/>
      </g>
     </g>
     <g id="text_4">
      <!-- 140 -->
      <g style="fill: #7f7f7f" transform="translate(431.422904 527.758125)scale(0.12 -0.12)">
       <defs>
        <path id="DejaVuSans-34" d="M 2419 4116 
L 825 1625 
L 2419 1625 
L 2419 4116 
z
M 2253 4666 
L 3047 4666 
L 3047 1625 
L 3713 1625 
L 3713 1100 
L 3047 1100 
L 3047 0 
L 2419 0 
L 2419 1100 
L 313 1100 
L 313 1709 
L 2253 4666 
z
" transform="scale(0.015625)"/>
       </defs>
       <use xlink:href="#DejaVuSans-31"/>
       <use xlink:href="#DejaVuSans-34" x="63.623047"/>
       <use xlink:href="#DejaVuSans-30" x="127.246094"/>
      </g>
     </g>
    </g>
    <g id="xtick_5">
     <g id="line2d_9">
      <path d="M 529.86592 512.64 
L 529.86592 69.12 
" clip-path="url(#pbf20266321)" style="fill: none; stroke: #ffffff; stroke-width: 1.4; stroke-linecap: square"/>
     </g>
     <g id="line2d_10">
      <g>
       <use xlink:href="#m6eb8e18e58" x="529.86592" y="512.64" style="fill: #7f7f7f; stroke: #7f7f7f; stroke-width: 1.4"/>
      </g>
     </g>
     <g id="text_5">
      <!-- 160 -->
      <g style="fill: #7f7f7f" transform="translate(518.41342 527.758125)scale(0.12 -0.12)">
       <defs>
        <path id="DejaVuSans-36" d="M 2113 2584 
Q 1688 2584 1439 2293 
Q 1191 2003 1191 1497 
Q 1191 994 1439 701 
Q 1688 409 2113 409 
Q 2538 409 2786 701 
Q 3034 994 3034 1497 
Q 3034 2003 2786 2293 
Q 2538 2584 2113 2584 
z
M 3366 4563 
L 3366 3988 
Q 3128 4100 2886 4159 
Q 2644 4219 2406 4219 
Q 1781 4219 1451 3797 
Q 1122 3375 1075 2522 
Q 1259 2794 1537 2939 
Q 1816 3084 2150 3084 
Q 2853 3084 3261 2657 
Q 3669 2231 3669 1497 
Q 3669 778 3244 343 
Q 2819 -91 2113 -91 
Q 1303 -91 875 529 
Q 447 1150 447 2328 
Q 447 3434 972 4092 
Q 1497 4750 2381 4750 
Q 2619 4750 2861 4703 
Q 3103 4656 3366 4563 
z
" transform="scale(0.015625)"/>
       </defs>
       <use xlink:href="#DejaVuSans-31"/>
       <use xlink:href="#DejaVuSans-36" x="63.623047"/>
       <use xlink:href="#DejaVuSans-30" x="127.246094"/>
      </g>
     </g>
    </g>
    <g id="xtick_6">
     <g id="line2d_11">
      <path d="M 616.856437 512.64 
L 616.856437 69.12 
" clip-path="url(#pbf20266321)" style="fill: none; stroke: #ffffff; stroke-width: 1.4; stroke-linecap: square"/>
     </g>
     <g id="line2d_12">
      <g>
       <use xlink:href="#m6eb8e18e58" x="616.856437" y="512.64" style="fill: #7f7f7f; stroke: #7f7f7f; stroke-width: 1.4"/>
      </g>
     </g>
     <g id="text_6">
      <!-- 180 -->
      <g style="fill: #7f7f7f" transform="translate(605.403937 527.758125)scale(0.12 -0.12)">
       <use xlink:href="#DejaVuSans-31"/>
       <use xlink:href="#DejaVuSans-38" x="63.623047"/>
       <use xlink:href="#DejaVuSans-30" x="127.246094"/>
      </g>
     </g>
    </g>
    <g id="xtick_7">
     <g id="line2d_13">
      <path d="M 138.408596 512.64 
L 138.408596 69.12 
" clip-path="url(#pbf20266321)" style="fill: none; stroke: #f2f2f2; stroke-width: 0.7; stroke-linecap: square"/>
     </g>
     <g id="line2d_14"/>
    </g>
    <g id="xtick_8">
     <g id="line2d_15">
      <path d="M 225.399112 512.64 
L 225.399112 69.12 
" clip-path="url(#pbf20266321)" style="fill: none; stroke: #f2f2f2; stroke-width: 0.7; stroke-linecap: square"/>
     </g>
     <g id="line2d_16"/>
    </g>
    <g id="xtick_9">
     <g id="line2d_17">
      <path d="M 312.389629 512.64 
L 312.389629 69.12 
" clip-path="url(#pbf20266321)" style="fill: none; stroke: #f2f2f2; stroke-width: 0.7; stroke-linecap: square"/>
     </g>
     <g id="line2d_18"/>
    </g>
    <g id="xtick_10">
     <g id="line2d_19">
      <path d="M 399.380145 512.64 
L 399.380145 69.12 
" clip-path="url(#pbf20266321)" style="fill: none; stroke: #f2f2f2; stroke-width: 0.7; stroke-linecap: square"/>
     </g>
     <g id="line2d_20"/>
    </g>
    <g id="xtick_11">
     <g id="line2d_21">
      <path d="M 486.370662 512.64 
L 486.370662 69.12 
" clip-path="url(#pbf20266321)" style="fill: none; stroke: #f2f2f2; stroke-width: 0.7; stroke-linecap: square"/>
     </g>
     <g id="line2d_22"/>
    </g>
    <g id="xtick_12">
     <g id="line2d_23">
      <path d="M 573.361178 512.64 
L 573.361178 69.12 
" clip-path="url(#pbf20266321)" style="fill: none; stroke: #f2f2f2; stroke-width: 0.7; stroke-linecap: square"/>
     </g>
     <g id="line2d_24"/>
    </g>
   </g>
   <g id="matplotlib.axis_2">
    <g id="ytick_1">
     <g id="line2d_25">
      <path d="M 99 468.143399 
L 653.4 468.143399 
" clip-path="url(#pbf20266321)" style="fill: none; stroke: #ffffff; stroke-width: 1.4; stroke-linecap: square"/>
     </g>
     <g id="line2d_26">
      <defs>
       <path id="m64ebac6302" d="M 0 0 
L -5 0 
" style="stroke: #7f7f7f; stroke-width: 1.4"/>
      </defs>
      <g>
       <use xlink:href="#m64ebac6302" x="99" y="468.143399" style="fill: #7f7f7f; stroke: #7f7f7f; stroke-width: 1.4"/>
      </g>
     </g>
     <g id="text_7">
      <!-- 100 -->
      <g style="fill: #7f7f7f" transform="translate(70.095 472.702461)scale(0.12 -0.12)">
       <use xlink:href="#DejaVuSans-31"/>
       <use xlink:href="#DejaVuSans-30" x="63.623047"/>
       <use xlink:href="#DejaVuSans-30" x="127.246094"/>
      </g>
     </g>
    </g>
    <g id="ytick_2">
     <g id="line2d_27">
      <path d="M 99 394.563365 
L 653.4 394.563365 
" clip-path="url(#pbf20266321)" style="fill: none; stroke: #ffffff; stroke-width: 1.4; stroke-linecap: square"/>
     </g>
     <g id="line2d_28">
      <g>
       <use xlink:href="#m64ebac6302" x="99" y="394.563365" style="fill: #7f7f7f; stroke: #7f7f7f; stroke-width: 1.4"/>
      </g>
     </g>
     <g id="text_8">
      <!-- 200 -->
      <g style="fill: #7f7f7f" transform="translate(70.095 399.122428)scale(0.12 -0.12)">
       <use xlink:href="#DejaVuSans-32"/>
       <use xlink:href="#DejaVuSans-30" x="63.623047"/>
       <use xlink:href="#DejaVuSans-30" x="127.246094"/>
      </g>
     </g>
    </g>
    <g id="ytick_3">
     <g id="line2d_29">
      <path d="M 99 320.983332 
L 653.4 320.983332 
" clip-path="url(#pbf20266321)" style="fill: none; stroke: #ffffff; stroke-width: 1.4; stroke-linecap: square"/>
     </g>
     <g id="line2d_30">
      <g>
       <use xlink:href="#m64ebac6302" x="99" y="320.983332" style="fill: #7f7f7f; stroke: #7f7f7f; stroke-width: 1.4"/>
      </g>
     </g>
     <g id="text_9">
      <!-- 300 -->
      <g style="fill: #7f7f7f" transform="translate(70.095 325.542394)scale(0.12 -0.12)">
       <defs>
        <path id="DejaVuSans-33" d="M 2597 2516 
Q 3050 2419 3304 2112 
Q 3559 1806 3559 1356 
Q 3559 666 3084 287 
Q 2609 -91 1734 -91 
Q 1441 -91 1130 -33 
Q 819 25 488 141 
L 488 750 
Q 750 597 1062 519 
Q 1375 441 1716 441 
Q 2309 441 2620 675 
Q 2931 909 2931 1356 
Q 2931 1769 2642 2001 
Q 2353 2234 1838 2234 
L 1294 2234 
L 1294 2753 
L 1863 2753 
Q 2328 2753 2575 2939 
Q 2822 3125 2822 3475 
Q 2822 3834 2567 4026 
Q 2313 4219 1838 4219 
Q 1578 4219 1281 4162 
Q 984 4106 628 3988 
L 628 4550 
Q 988 4650 1302 4700 
Q 1616 4750 1894 4750 
Q 2613 4750 3031 4423 
Q 3450 4097 3450 3541 
Q 3450 3153 3228 2886 
Q 3006 2619 2597 2516 
z
" transform="scale(0.015625)"/>
       </defs>
       <use xlink:href="#DejaVuSans-33"/>
       <use xlink:href="#DejaVuSans-30" x="63.623047"/>
       <use xlink:href="#DejaVuSans-30" x="127.246094"/>
      </g>
     </g>
    </g>
    <g id="ytick_4">
     <g id="line2d_31">
      <path d="M 99 247.403298 
L 653.4 247.403298 
" clip-path="url(#pbf20266321)" style="fill: none; stroke: #ffffff; stroke-width: 1.4; stroke-linecap: square"/>
     </g>
     <g id="line2d_32">
      <g>
       <use xlink:href="#m64ebac6302" x="99" y="247.403298" style="fill: #7f7f7f; stroke: #7f7f7f; stroke-width: 1.4"/>
      </g>
     </g>
     <g id="text_10">
      <!-- 400 -->
      <g style="fill: #7f7f7f" transform="translate(70.095 251.962361)scale(0.12 -0.12)">
       <use xlink:href="#DejaVuSans-34"/>
       <use xlink:href="#DejaVuSans-30" x="63.623047"/>
       <use xlink:href="#DejaVuSans-30" x="127.246094"/>
      </g>
     </g>
    </g>
    <g id="ytick_5">
     <g id="line2d_33">
      <path d="M 99 173.823265 
L 653.4 173.823265 
" clip-path="url(#pbf20266321)" style="fill: none; stroke: #ffffff; stroke-width: 1.4; stroke-linecap: square"/>
     </g>
     <g id="line2d_34">
      <g>
       <use xlink:href="#m64ebac6302" x="99" y="173.823265" style="fill: #7f7f7f; stroke: #7f7f7f; stroke-width: 1.4"/>
      </g>
     </g>
     <g id="text_11">
      <!-- 500 -->
      <g style="fill: #7f7f7f" transform="translate(70.095 178.382327)scale(0.12 -0.12)">
       <defs>
        <path id="DejaVuSans-35" d="M 691 4666 
L 3169 4666 
L 3169 4134 
L 1269 4134 
L 1269 2991 
Q 1406 3038 1543 3061 
Q 1681 3084 1819 3084 
Q 2600 3084 3056 2656 
Q 3513 2228 3513 1497 
Q 3513 744 3044 326 
Q 2575 -91 1722 -91 
Q 1428 -91 1123 -41 
Q 819 9 494 109 
L 494 744 
Q 775 591 1075 516 
Q 1375 441 1709 441 
Q 2250 441 2565 725 
Q 2881 1009 2881 1497 
Q 2881 1984 2565 2268 
Q 2250 2553 1709 2553 
Q 1456 2553 1204 2497 
Q 953 2441 691 2322 
L 691 4666 
z
" transform="scale(0.015625)"/>
       </defs>
       <use xlink:href="#DejaVuSans-35"/>
       <use xlink:href="#DejaVuSans-30" x="63.623047"/>
       <use xlink:href="#DejaVuSans-30" x="127.246094"/>
      </g>
     </g>
    </g>
    <g id="ytick_6">
     <g id="line2d_35">
      <path d="M 99 100.243232 
L 653.4 100.243232 
" clip-path="url(#pbf20266321)" style="fill: none; stroke: #ffffff; stroke-width: 1.4; stroke-linecap: square"/>
     </g>
     <g id="line2d_36">
      <g>
       <use xlink:href="#m64ebac6302" x="99" y="100.243232" style="fill: #7f7f7f; stroke: #7f7f7f; stroke-width: 1.4"/>
      </g>
     </g>
     <g id="text_12">
      <!-- 600 -->
      <g style="fill: #7f7f7f" transform="translate(70.095 104.802294)scale(0.12 -0.12)">
       <use xlink:href="#DejaVuSans-36"/>
       <use xlink:href="#DejaVuSans-30" x="63.623047"/>
       <use xlink:href="#DejaVuSans-30" x="127.246094"/>
      </g>
     </g>
    </g>
    <g id="ytick_7">
     <g id="line2d_37">
      <path d="M 99 504.933415 
L 653.4 504.933415 
" clip-path="url(#pbf20266321)" style="fill: none; stroke: #f2f2f2; stroke-width: 0.7; stroke-linecap: square"/>
     </g>
     <g id="line2d_38"/>
    </g>
    <g id="ytick_8">
     <g id="line2d_39">
      <path d="M 99 431.353382 
L 653.4 431.353382 
" clip-path="url(#pbf20266321)" style="fill: none; stroke: #f2f2f2; stroke-width: 0.7; stroke-linecap: square"/>
     </g>
     <g id="line2d_40"/>
    </g>
    <g id="ytick_9">
     <g id="line2d_41">
      <path d="M 99 357.773348 
L 653.4 357.773348 
" clip-path="url(#pbf20266321)" style="fill: none; stroke: #f2f2f2; stroke-width: 0.7; stroke-linecap: square"/>
     </g>
     <g id="line2d_42"/>
    </g>
    <g id="ytick_10">
     <g id="line2d_43">
      <path d="M 99 284.193315 
L 653.4 284.193315 
" clip-path="url(#pbf20266321)" style="fill: none; stroke: #f2f2f2; stroke-width: 0.7; stroke-linecap: square"/>
     </g>
     <g id="line2d_44"/>
    </g>
    <g id="ytick_11">
     <g id="line2d_45">
      <path d="M 99 210.613282 
L 653.4 210.613282 
" clip-path="url(#pbf20266321)" style="fill: none; stroke: #f2f2f2; stroke-width: 0.7; stroke-linecap: square"/>
     </g>
     <g id="line2d_46"/>
    </g>
    <g id="ytick_12">
     <g id="line2d_47">
      <path d="M 99 137.033248 
L 653.4 137.033248 
" clip-path="url(#pbf20266321)" style="fill: none; stroke: #f2f2f2; stroke-width: 0.7; stroke-linecap: square"/>
     </g>
     <g id="line2d_48"/>
    </g>
   </g>
   <g id="line2d_49">
    <path d="M 124.2 471.705536 
L 152.471918 465.691969 
L 162.258351 463.61035 
L 190.602906 457.581332 
L 217.135013 451.937831 
L 218.331133 451.683411 
L 224.96416 450.272536 
L 229.531162 449.301113 
L 268.85827 440.936057 
L 285.531307 437.389625 
L 290.859476 436.256299 
L 305.069377 433.233788 
L 312.246095 431.707267 
L 334.280792 427.020385 
L 370.599333 419.295265 
L 374.335576 418.500549 
L 377.054029 417.922321 
L 377.123622 417.907518 
L 384.191601 416.404127 
L 384.84403 416.265352 
L 403.10334 412.381513 
L 434.902723 405.617638 
L 457.58985 400.791982 
L 458.459755 400.606949 
L 463.64439 399.504153 
L 470.712369 398.000761 
L 481.259969 395.757238 
L 484.487317 395.070767 
L 513.289877 388.94433 
L 520.657974 387.377102 
L 565.749508 377.785925 
L 582.529979 374.216642 
L 628.2 364.502418 
" clip-path="url(#pbf20266321)" style="fill: none; stroke: #f7746a; stroke-linecap: square"/>
   </g>
   <g id="line2d_50">
    <path d="M 124.2 482.207271 
L 152.471918 478.438066 
L 162.258351 477.133341 
L 190.602906 473.354452 
L 217.135013 469.817198 
L 218.331133 469.657732 
L 224.96416 468.773419 
L 229.531162 468.164547 
L 268.85827 462.921467 
L 285.531307 460.698622 
L 290.859476 459.988272 
L 305.069377 458.093812 
L 312.246095 457.137013 
L 334.280792 454.199353 
L 370.599333 449.357375 
L 374.335576 448.85926 
L 377.054029 448.496836 
L 377.123622 448.487558 
L 384.191601 447.545257 
L 384.84403 447.458275 
L 403.10334 445.023949 
L 434.902723 440.784463 
L 457.58985 437.759821 
L 458.459755 437.643846 
L 463.64439 436.952631 
L 470.712369 436.01033 
L 481.259969 434.604127 
L 484.487317 434.173858 
L 513.289877 430.333908 
L 520.657974 429.351595 
L 565.749508 423.340003 
L 582.529979 421.102835 
L 628.2 415.014119 
" clip-path="url(#pbf20266321)" style="fill: none; stroke: #f07c32; stroke-linecap: square"/>
   </g>
   <g id="line2d_51">
    <path d="M 124.2 467.537514 
L 152.471918 462.062655 
L 162.258351 460.167511 
L 190.602906 454.678585 
L 217.135013 449.540639 
L 218.331133 449.309011 
L 224.96416 448.024524 
L 229.531162 447.140124 
L 268.85827 439.524425 
L 285.531307 436.29569 
L 290.859476 435.263889 
L 305.069377 432.512141 
L 312.246095 431.122368 
L 334.280792 426.855347 
L 370.599333 419.822258 
L 374.335576 419.098734 
L 377.054029 418.572305 
L 377.123622 418.558829 
L 384.191601 417.190114 
L 384.84403 417.063771 
L 403.10334 413.527853 
L 434.902723 407.3699 
L 457.58985 402.976535 
L 458.459755 402.808078 
L 463.64439 401.804073 
L 470.712369 400.435358 
L 481.259969 398.392814 
L 484.487317 397.767838 
L 513.289877 392.190219 
L 520.657974 390.763386 
L 565.749508 382.031406 
L 582.529979 378.781866 
L 628.2 369.937862 
" clip-path="url(#pbf20266321)" style="fill: none; stroke: #d78b32; stroke-linecap: square"/>
   </g>
   <g id="line2d_52">
    <path d="M 124.2 433.483205 
L 152.471918 426.056499 
L 162.258351 423.485717 
L 190.602906 416.03993 
L 217.135013 409.070253 
L 218.331133 408.756046 
L 224.96416 407.013627 
L 229.531162 405.813928 
L 268.85827 395.483153 
L 285.531307 391.103339 
L 290.859476 389.703691 
L 305.069377 385.970914 
L 312.246095 384.085674 
L 334.280792 378.297414 
L 370.599333 368.756954 
L 374.335576 367.775486 
L 377.054029 367.06138 
L 377.123622 367.043099 
L 384.191601 365.186423 
L 384.84403 365.015037 
L 403.10334 360.218528 
L 434.902723 351.865198 
L 457.58985 345.905553 
L 458.459755 345.677039 
L 463.64439 344.315096 
L 470.712369 342.458419 
L 481.259969 339.687687 
L 484.487317 338.8399 
L 513.289877 331.273801 
L 520.657974 329.338287 
L 565.749508 317.493264 
L 582.529979 313.085228 
L 628.2 301.088243 
" clip-path="url(#pbf20266321)" style="fill: none; stroke: #c49432; stroke-linecap: square"/>
   </g>
   <g id="line2d_53">
    <path d="M 124.2 467.09868 
L 152.471918 464.448851 
L 162.258351 463.531603 
L 190.602906 460.874966 
L 217.135013 458.388204 
L 218.331133 458.276095 
L 224.96416 457.654405 
L 229.531162 457.226356 
L 268.85827 453.540363 
L 285.531307 451.977657 
L 290.859476 451.478266 
L 305.069377 450.146421 
L 312.246095 449.473772 
L 334.280792 447.408537 
L 370.599333 444.004526 
L 374.335576 443.654341 
L 377.054029 443.39955 
L 377.123622 443.393027 
L 384.191601 442.73057 
L 384.84403 442.66942 
L 403.10334 440.958039 
L 434.902723 437.977593 
L 457.58985 435.851207 
L 458.459755 435.769674 
L 463.64439 435.283736 
L 470.712369 434.621279 
L 481.259969 433.632689 
L 484.487317 433.330201 
L 513.289877 430.630637 
L 520.657974 429.940051 
L 565.749508 425.713778 
L 582.529979 424.141003 
L 628.2 419.860511 
" clip-path="url(#pbf20266321)" style="fill: none; stroke: #b49b32; stroke-linecap: square"/>
   </g>
   <g id="line2d_54">
    <path d="M 124.2 329.596956 
L 152.471918 316.116359 
L 162.258351 311.449998 
L 190.602906 297.934766 
L 217.135013 285.283743 
L 218.331133 284.71341 
L 224.96416 281.550654 
L 229.531162 279.373019 
L 268.85827 260.621093 
L 285.531307 252.671066 
L 290.859476 250.130492 
L 305.069377 243.354936 
L 312.246095 239.932938 
L 334.280792 229.426368 
L 370.599333 212.108985 
L 374.335576 210.327472 
L 377.054029 209.03126 
L 377.123622 208.998077 
L 384.191601 205.627928 
L 384.84403 205.316837 
L 403.10334 196.610445 
L 434.902723 181.447884 
L 457.58985 170.630222 
L 458.459755 170.215435 
L 463.64439 167.743301 
L 470.712369 164.373151 
L 481.259969 159.343851 
L 484.487317 157.804989 
L 513.289877 144.071371 
L 520.657974 140.55812 
L 565.749508 119.057603 
L 582.529979 111.05635 
L 628.2 89.28 
" clip-path="url(#pbf20266321)" style="fill: none; stroke: #a3a031; stroke-linecap: square"/>
   </g>
   <g id="line2d_55">
    <path d="M 124.2 438.79219 
L 152.471918 431.861725 
L 162.258351 429.462717 
L 190.602906 422.514445 
L 217.135013 416.01047 
L 218.331133 415.717258 
L 224.96416 414.091264 
L 229.531162 412.971727 
L 268.85827 403.331236 
L 285.531307 399.244074 
L 290.859476 397.937948 
L 305.069377 394.454589 
L 312.246095 392.695317 
L 334.280792 387.293819 
L 370.599333 378.390836 
L 374.335576 377.474948 
L 377.054029 376.808557 
L 377.123622 376.791497 
L 384.191601 375.058881 
L 384.84403 374.898947 
L 403.10334 370.422933 
L 434.902723 362.627758 
L 457.58985 357.066326 
L 458.459755 356.853081 
L 463.64439 355.58214 
L 470.712369 353.849523 
L 481.259969 351.263927 
L 484.487317 350.472787 
L 513.289877 343.412242 
L 520.657974 341.606056 
L 565.749508 330.552496 
L 582.529979 326.438998 
L 628.2 315.243631 
" clip-path="url(#pbf20266321)" style="fill: none; stroke: #90a531; stroke-linecap: square"/>
   </g>
   <g id="line2d_56">
    <path d="M 124.2 451.198981 
L 152.471918 446.654961 
L 162.258351 445.082031 
L 190.602906 440.526337 
L 217.135013 436.261949 
L 218.331133 436.069703 
L 224.96416 435.003606 
L 229.531162 434.269572 
L 268.85827 427.948701 
L 285.531307 425.268917 
L 290.859476 424.412544 
L 305.069377 422.12865 
L 312.246095 420.975168 
L 334.280792 417.433629 
L 370.599333 411.596312 
L 374.335576 410.995802 
L 377.054029 410.558877 
L 377.123622 410.547692 
L 384.191601 409.411687 
L 384.84403 409.306825 
L 403.10334 406.372088 
L 434.902723 401.261114 
L 457.58985 397.614713 
L 458.459755 397.474897 
L 463.64439 396.641594 
L 470.712369 395.505589 
L 481.259969 393.81032 
L 484.487317 393.291603 
L 513.289877 388.662295 
L 520.657974 387.478054 
L 565.749508 380.230692 
L 582.529979 377.533642 
L 628.2 370.193302 
" clip-path="url(#pbf20266321)" style="fill: none; stroke: #77ab31; stroke-linecap: square"/>
   </g>
   <g id="line2d_57">
    <path d="M 124.2 412.215467 
L 152.471918 403.834015 
L 162.258351 400.932743 
L 190.602906 392.529758 
L 217.135013 384.664087 
L 218.331133 384.309487 
L 224.96416 382.34307 
L 229.531162 380.989143 
L 268.85827 369.330286 
L 285.531307 364.387421 
L 290.859476 362.80784 
L 305.069377 358.595193 
L 312.246095 356.467594 
L 334.280792 349.935219 
L 370.599333 339.168278 
L 374.335576 338.060636 
L 377.054029 337.254728 
L 377.123622 337.234096 
L 384.191601 335.138733 
L 384.84403 334.945315 
L 403.10334 329.532187 
L 434.902723 320.104988 
L 457.58985 313.379195 
L 458.459755 313.121304 
L 463.64439 311.584275 
L 470.712369 309.488912 
L 481.259969 306.361986 
L 484.487317 305.405211 
L 513.289877 296.866446 
L 520.657974 294.68211 
L 565.749508 281.314339 
L 582.529979 276.339625 
L 628.2 262.800357 
" clip-path="url(#pbf20266321)" style="fill: none; stroke: #43b231; stroke-linecap: square"/>
   </g>
   <g id="line2d_58">
    <path d="M 124.2 453.128643 
L 152.471918 446.120147 
L 162.258351 443.694129 
L 190.602906 436.667626 
L 217.135013 430.090422 
L 218.331133 429.793909 
L 224.96416 428.149608 
L 229.531162 427.017466 
L 268.85827 417.268433 
L 285.531307 413.135253 
L 290.859476 411.814421 
L 305.069377 408.291843 
L 312.246095 406.512764 
L 334.280792 401.05045 
L 370.599333 392.047228 
L 374.335576 391.121028 
L 377.054029 390.447134 
L 377.123622 390.429883 
L 384.191601 388.677759 
L 384.84403 388.516024 
L 403.10334 383.989614 
L 434.902723 376.106673 
L 457.58985 370.482625 
L 458.459755 370.266979 
L 463.64439 368.981728 
L 470.712369 367.229604 
L 481.259969 364.614896 
L 484.487317 363.81485 
L 513.289877 356.67481 
L 520.657974 354.848288 
L 565.749508 343.670276 
L 582.529979 339.510464 
L 628.2 328.189047 
" clip-path="url(#pbf20266321)" style="fill: none; stroke: #33b169; stroke-linecap: square"/>
   </g>
   <g id="line2d_59">
    <path d="M 124.2 482.545982 
L 152.471918 475.949284 
L 162.258351 473.665812 
L 190.602906 467.052166 
L 217.135013 460.861418 
L 218.331133 460.582327 
L 224.96416 459.03464 
L 229.531162 457.96902 
L 268.85827 448.79281 
L 285.531307 444.902483 
L 290.859476 443.65926 
L 305.069377 440.343658 
L 312.246095 438.669111 
L 334.280792 433.527746 
L 370.599333 425.053527 
L 374.335576 424.181748 
L 377.054029 423.54745 
L 377.123622 423.531212 
L 384.191601 421.882037 
L 384.84403 421.729806 
L 403.10334 417.469354 
L 434.902723 410.049591 
L 457.58985 404.755994 
L 458.459755 404.553019 
L 463.64439 403.343286 
L 470.712369 401.694112 
L 481.259969 399.233036 
L 484.487317 398.479997 
L 513.289877 391.759484 
L 520.657974 390.040283 
L 565.749508 379.519058 
L 582.529979 375.603664 
L 628.2 364.947459 
" clip-path="url(#pbf20266321)" style="fill: none; stroke: #34af84; stroke-linecap: square"/>
   </g>
   <g id="line2d_60">
    <path d="M 124.2 484.459708 
L 152.471918 481.092473 
L 162.258351 479.926891 
L 190.602906 476.551005 
L 217.135013 473.390984 
L 218.331133 473.248524 
L 224.96416 472.458519 
L 229.531162 471.914581 
L 268.85827 467.230654 
L 285.531307 465.244865 
L 290.859476 464.610271 
L 305.069377 462.917847 
L 312.246095 462.063087 
L 334.280792 459.438716 
L 370.599333 455.113114 
L 374.335576 454.668121 
L 377.054029 454.344348 
L 377.123622 454.33606 
L 384.191601 453.494251 
L 384.84403 453.416545 
L 403.10334 451.24183 
L 434.902723 447.454467 
L 457.58985 444.75239 
L 458.459755 444.648783 
L 463.64439 444.031284 
L 470.712369 443.189475 
L 481.259969 441.933237 
L 484.487317 441.548855 
L 513.289877 438.118419 
L 520.657974 437.240866 
L 565.749508 431.870385 
L 582.529979 429.871801 
L 628.2 424.432421 
" clip-path="url(#pbf20266321)" style="fill: none; stroke: #35ae95; stroke-linecap: square"/>
   </g>
   <g id="line2d_61">
    <path d="M 124.2 452.211934 
L 152.471918 446.386188 
L 162.258351 444.369584 
L 190.602906 438.528871 
L 217.135013 433.061633 
L 218.331133 432.815159 
L 224.96416 431.44835 
L 229.531162 430.507268 
L 268.85827 422.403477 
L 285.531307 418.96781 
L 290.859476 417.869881 
L 305.069377 414.941772 
L 312.246095 413.462929 
L 334.280792 408.922433 
L 370.599333 401.438591 
L 374.335576 400.668696 
L 377.054029 400.108528 
L 377.123622 400.094188 
L 384.191601 398.637751 
L 384.84403 398.503311 
L 403.10334 394.740776 
L 434.902723 388.188157 
L 457.58985 383.51322 
L 458.459755 383.333966 
L 463.64439 382.265614 
L 470.712369 380.809178 
L 481.259969 378.635727 
L 484.487317 377.970695 
L 513.289877 372.035605 
L 520.657974 370.517326 
L 565.749508 361.225711 
L 582.529979 357.767907 
L 628.2 348.357087 
" clip-path="url(#pbf20266321)" style="fill: none; stroke: #36ada2; stroke-linecap: square"/>
   </g>
   <g id="line2d_62">
    <path d="M 124.2 492.48 
L 152.471918 488.626928 
L 162.258351 487.293172 
L 190.602906 483.4302 
L 217.135013 479.81424 
L 218.331133 479.651226 
L 224.96416 478.747235 
L 229.531162 478.124816 
L 268.85827 472.765074 
L 285.531307 470.492769 
L 290.859476 469.766613 
L 305.069377 467.83 
L 312.246095 466.851912 
L 334.280792 463.848887 
L 370.599333 458.899171 
L 374.335576 458.389973 
L 377.054029 458.019485 
L 377.123622 458.010001 
L 384.191601 457.046732 
L 384.84403 456.957815 
L 403.10334 454.469324 
L 434.902723 450.135506 
L 457.58985 447.043564 
L 458.459755 446.925008 
L 463.64439 446.218414 
L 470.712369 445.255146 
L 481.259969 443.817653 
L 484.487317 443.37781 
L 513.289877 439.452419 
L 520.657974 438.448249 
L 565.749508 432.302895 
L 582.529979 430.015949 
L 628.2 423.791755 
" clip-path="url(#pbf20266321)" style="fill: none; stroke: #36acae; stroke-linecap: square"/>
   </g>
   <g id="line2d_63">
    <path d="M 124.2 460.038007 
L 152.471918 452.105957 
L 162.258351 449.360248 
L 190.602906 441.407819 
L 217.135013 433.963895 
L 218.331133 433.628309 
L 224.96416 431.767328 
L 229.531162 430.485997 
L 268.85827 419.452271 
L 285.531307 414.774436 
L 290.859476 413.27955 
L 305.069377 409.29278 
L 312.246095 407.27926 
L 334.280792 401.097142 
L 370.599333 390.907509 
L 374.335576 389.859258 
L 377.054029 389.096561 
L 377.123622 389.077036 
L 384.191601 387.094023 
L 384.84403 386.910976 
L 403.10334 381.788092 
L 434.902723 372.866367 
L 457.58985 366.501202 
L 458.459755 366.257139 
L 463.64439 364.802523 
L 470.712369 362.819511 
L 481.259969 359.860246 
L 484.487317 358.954772 
L 513.289877 350.873844 
L 520.657974 348.80663 
L 565.749508 336.15562 
L 582.529979 331.447644 
L 628.2 318.634333 
" clip-path="url(#pbf20266321)" style="fill: none; stroke: #37aaba; stroke-linecap: square"/>
   </g>
   <g id="line2d_64">
    <path d="M 124.2 462.83067 
L 152.471918 459.826136 
L 162.258351 458.786105 
L 190.602906 455.773852 
L 217.135013 452.954213 
L 218.331133 452.827098 
L 224.96416 452.122188 
L 229.531162 451.63684 
L 268.85827 447.457442 
L 285.531307 445.685553 
L 290.859476 445.119314 
L 305.069377 443.609189 
L 312.246095 442.846499 
L 334.280792 440.504812 
L 370.599333 436.645142 
L 374.335576 436.248081 
L 377.054029 435.959184 
L 377.123622 435.951788 
L 384.191601 435.200655 
L 384.84403 435.131319 
L 403.10334 433.190853 
L 434.902723 429.811446 
L 457.58985 427.400423 
L 458.459755 427.307976 
L 463.64439 426.756991 
L 470.712369 426.005857 
L 481.259969 424.884935 
L 484.487317 424.541956 
L 513.289877 421.481029 
L 520.657974 420.698002 
L 565.749508 415.906002 
L 582.529979 414.122695 
L 628.2 409.269218 
" clip-path="url(#pbf20266321)" style="fill: none; stroke: #38a8c9; stroke-linecap: square"/>
   </g>
   <g id="line2d_65">
    <path d="M 124.2 440.005723 
L 152.471918 431.725202 
L 162.258351 428.858868 
L 190.602906 420.557073 
L 217.135013 412.786122 
L 218.331133 412.435793 
L 224.96416 410.493055 
L 229.531162 409.155432 
L 268.85827 397.636973 
L 285.531307 392.753632 
L 290.859476 391.193072 
L 305.069377 387.031155 
L 312.246095 384.929176 
L 334.280792 378.475466 
L 370.599333 367.838181 
L 374.335576 366.743879 
L 377.054029 365.947675 
L 377.123622 365.927292 
L 384.191601 363.857162 
L 384.84403 363.666073 
L 403.10334 358.31813 
L 434.902723 349.004455 
L 457.58985 342.359655 
L 458.459755 342.10487 
L 463.64439 340.58635 
L 470.712369 338.51622 
L 481.259969 335.426949 
L 484.487317 334.481695 
L 513.289877 326.045755 
L 520.657974 323.887724 
L 565.749508 310.68093 
L 582.529979 305.766123 
L 628.2 292.389897 
" clip-path="url(#pbf20266321)" style="fill: none; stroke: #3aa6dd; stroke-linecap: square"/>
   </g>
   <g id="line2d_66">
    <path d="M 124.2 471.432774 
L 152.471918 467.116903 
L 162.258351 465.622948 
L 190.602906 461.295988 
L 217.135013 457.24571 
L 218.331133 457.063115 
L 224.96416 456.050545 
L 229.531162 455.353366 
L 268.85827 449.349857 
L 285.531307 446.804622 
L 290.859476 445.991246 
L 305.069377 443.822023 
L 312.246095 442.726456 
L 334.280792 439.362732 
L 370.599333 433.818498 
L 374.335576 433.248139 
L 377.054029 432.833152 
L 377.123622 432.822528 
L 384.191601 431.74356 
L 384.84403 431.643963 
L 403.10334 428.856575 
L 434.902723 424.002216 
L 457.58985 420.538895 
L 458.459755 420.406099 
L 463.64439 419.614635 
L 470.712369 418.535667 
L 481.259969 416.925515 
L 484.487317 416.432842 
L 513.289877 412.035966 
L 520.657974 410.911183 
L 565.749508 404.027701 
L 582.529979 401.466066 
L 628.2 394.494274 
" clip-path="url(#pbf20266321)" style="fill: none; stroke: #569ff4; stroke-linecap: square"/>
   </g>
   <g id="line2d_67">
    <path d="M 124.2 471.285623 
L 152.471918 466.377602 
L 162.258351 464.678671 
L 190.602906 459.758041 
L 217.135013 455.152052 
L 218.331133 454.944405 
L 224.96416 453.792907 
L 229.531162 453.000073 
L 268.85827 446.172865 
L 285.531307 443.278416 
L 290.859476 442.353443 
L 305.069377 439.886596 
L 312.246095 438.640714 
L 334.280792 434.815478 
L 370.599333 428.510558 
L 374.335576 427.861944 
L 377.054029 427.390019 
L 377.123622 427.377938 
L 384.191601 426.150933 
L 384.84403 426.037671 
L 403.10334 422.867844 
L 434.902723 417.347453 
L 457.58985 413.408955 
L 458.459755 413.257939 
L 463.64439 412.357883 
L 470.712369 411.130878 
L 481.259969 409.299809 
L 484.487317 408.739539 
L 513.289877 403.739398 
L 520.657974 402.460292 
L 565.749508 394.632376 
L 582.529979 391.719277 
L 628.2 383.790935 
" clip-path="url(#pbf20266321)" style="fill: none; stroke: #8b94f4; stroke-linecap: square"/>
   </g>
   <g id="line2d_68">
    <path d="M 124.2 488.072108 
L 152.471918 484.863615 
L 162.258351 483.752982 
L 190.602906 480.536246 
L 217.135013 477.525199 
L 218.331133 477.389455 
L 224.96416 476.636693 
L 229.531162 476.118398 
L 268.85827 471.655285 
L 285.531307 469.763113 
L 290.859476 469.158436 
L 305.069377 467.545798 
L 312.246095 466.731334 
L 334.280792 464.230684 
L 370.599333 460.109005 
L 374.335576 459.68499 
L 377.054029 459.376481 
L 377.123622 459.368583 
L 384.191601 458.56646 
L 384.84403 458.492418 
L 403.10334 456.420225 
L 434.902723 452.811411 
L 457.58985 450.236718 
L 458.459755 450.137995 
L 463.64439 449.549607 
L 470.712369 448.747484 
L 481.259969 447.550469 
L 484.487317 447.184207 
L 513.289877 443.915493 
L 520.657974 443.079311 
L 565.749508 437.962011 
L 582.529979 436.057647 
L 628.2 430.874697 
" clip-path="url(#pbf20266321)" style="fill: none; stroke: #ae88f4; stroke-linecap: square"/>
   </g>
   <g id="line2d_69">
    <path d="M 124.2 467.258077 
L 152.471918 463.532204 
L 162.258351 462.242479 
L 190.602906 458.507033 
L 217.135013 455.010445 
L 218.331133 454.852812 
L 224.96416 453.978665 
L 229.531162 453.376793 
L 268.85827 448.19399 
L 285.531307 445.996699 
L 290.859476 445.294515 
L 305.069377 443.421835 
L 312.246095 442.476036 
L 334.280792 439.572148 
L 370.599333 434.785835 
L 374.335576 434.293446 
L 377.054029 433.935189 
L 377.123622 433.926018 
L 384.191601 432.99455 
L 384.84403 432.908568 
L 403.10334 430.502228 
L 434.902723 426.311481 
L 457.58985 423.321611 
L 458.459755 423.206969 
L 463.64439 422.523701 
L 470.712369 421.592233 
L 481.259969 420.202196 
L 484.487317 419.776873 
L 513.289877 415.981068 
L 520.657974 415.010049 
L 565.749508 409.067568 
L 582.529979 406.85612 
L 628.2 400.837402 
" clip-path="url(#pbf20266321)" style="fill: none; stroke: #cd79f4; stroke-linecap: square"/>
   </g>
   <g id="line2d_70">
    <path d="M 124.2 467.117301 
L 152.471918 463.29909 
L 162.258351 461.977401 
L 190.602906 458.14938 
L 217.135013 454.566136 
L 218.331133 454.404596 
L 224.96416 453.508785 
L 229.531162 452.891997 
L 268.85827 447.580748 
L 285.531307 445.329002 
L 290.859476 444.609416 
L 305.069377 442.690325 
L 312.246095 441.721087 
L 334.280792 438.745232 
L 370.599333 433.840299 
L 374.335576 433.335708 
L 377.054029 432.968572 
L 377.123622 432.959173 
L 384.191601 432.004621 
L 384.84403 431.916508 
L 403.10334 429.450531 
L 434.902723 425.155925 
L 457.58985 422.091957 
L 458.459755 421.974474 
L 463.64439 421.274273 
L 470.712369 420.31972 
L 481.259969 418.895233 
L 484.487317 418.45937 
L 513.289877 414.569494 
L 520.657974 413.574409 
L 565.749508 407.484656 
L 582.529979 405.218401 
L 628.2 399.050522 
" clip-path="url(#pbf20266321)" style="fill: none; stroke: #ed62f4; stroke-linecap: square"/>
   </g>
   <g id="line2d_71">
    <path d="M 124.2 470.798878 
L 152.471918 464.160354 
L 162.258351 461.862404 
L 190.602906 455.206825 
L 217.135013 448.976826 
L 218.331133 448.695965 
L 224.96416 447.138465 
L 229.531162 446.066089 
L 268.85827 436.831698 
L 285.531307 432.916706 
L 290.859476 431.665599 
L 305.069377 428.328975 
L 312.246095 426.643812 
L 334.280792 421.469849 
L 370.599333 412.9419 
L 374.335576 412.064593 
L 377.054029 411.426274 
L 377.123622 411.409933 
L 384.191601 409.750302 
L 384.84403 409.597105 
L 403.10334 405.30964 
L 434.902723 397.842834 
L 457.58985 392.515674 
L 458.459755 392.311412 
L 463.64439 391.094009 
L 470.712369 389.434378 
L 481.259969 386.957698 
L 484.487317 386.199885 
L 513.289877 379.436762 
L 520.657974 377.70666 
L 565.749508 367.118726 
L 582.529979 363.178507 
L 628.2 352.454739 
" clip-path="url(#pbf20266321)" style="fill: none; stroke: #f562db; stroke-linecap: square"/>
   </g>
   <g id="line2d_72">
    <path d="M 124.2 478.044995 
L 152.471918 471.428578 
L 162.258351 469.13828 
L 190.602906 462.504864 
L 217.135013 456.295611 
L 218.331133 456.015686 
L 224.96416 454.463373 
L 229.531162 453.394567 
L 268.85827 444.190928 
L 285.531307 440.288972 
L 290.859476 439.042032 
L 305.069377 435.716519 
L 312.246095 434.036967 
L 334.280792 428.880234 
L 370.599333 420.380683 
L 374.335576 419.506298 
L 377.054029 418.870104 
L 377.123622 418.853817 
L 384.191601 417.199713 
L 384.84403 417.047027 
L 403.10334 412.773839 
L 434.902723 405.331897 
L 457.58985 400.022477 
L 458.459755 399.818895 
L 463.64439 398.605546 
L 470.712369 396.951442 
L 481.259969 394.483009 
L 484.487317 393.72772 
L 513.289877 386.987118 
L 520.657974 385.262778 
L 565.749508 374.710102 
L 582.529979 370.783004 
L 628.2 360.094946 
" clip-path="url(#pbf20266321)" style="fill: none; stroke: #f668c2; stroke-linecap: square"/>
   </g>
   <g id="line2d_73">
    <path d="M 124.2 468.573878 
L 152.471918 462.38647 
L 162.258351 460.244675 
L 190.602906 454.04137 
L 217.135013 448.234726 
L 218.331133 447.972951 
L 224.96416 446.52129 
L 229.531162 445.521785 
L 268.85827 436.914911 
L 285.531307 433.265958 
L 290.859476 432.09987 
L 305.069377 428.989983 
L 312.246095 427.419334 
L 334.280792 422.596963 
L 370.599333 414.648524 
L 374.335576 413.830834 
L 377.054029 413.235891 
L 377.123622 413.22066 
L 384.191601 411.673808 
L 384.84403 411.531022 
L 403.10334 407.534908 
L 434.902723 400.575502 
L 457.58985 395.610346 
L 458.459755 395.419964 
L 463.64439 394.285288 
L 470.712369 392.738436 
L 481.259969 390.430057 
L 484.487317 389.723741 
L 513.289877 383.4202 
L 520.657974 381.807666 
L 565.749508 371.939227 
L 582.529979 368.266762 
L 628.2 358.271719 
" clip-path="url(#pbf20266321)" style="fill: none; stroke: #f66caa; stroke-linecap: square"/>
   </g>
   <g id="line2d_74">
    <path d="M 124.2 380.526412 
L 152.471918 370.132648 
L 162.258351 366.534807 
L 190.602906 356.11434 
L 217.135013 346.360193 
L 218.331133 345.920457 
L 224.96416 343.48192 
L 229.531162 341.802927 
L 268.85827 327.344883 
L 285.531307 321.215281 
L 290.859476 319.256456 
L 305.069377 314.032391 
L 312.246095 311.393974 
L 334.280792 303.293235 
L 370.599333 289.941247 
L 374.335576 288.567671 
L 377.054029 287.568271 
L 377.123622 287.542686 
L 384.191601 284.944245 
L 384.84403 284.704389 
L 403.10334 277.991617 
L 434.902723 266.301032 
L 457.58985 257.960437 
L 458.459755 257.640628 
L 463.64439 255.734572 
L 470.712369 253.136131 
L 481.259969 249.258458 
L 484.487317 248.07197 
L 513.289877 237.483124 
L 520.657974 234.774349 
L 565.749508 218.197096 
L 582.529979 212.027998 
L 628.2 195.238073 
" clip-path="url(#pbf20266321)" style="fill: none; stroke: #f7708e; stroke-linecap: square"/>
   </g>
   <g id="line2d_75">
    <path d="M 190.602906 455.106088 
L 217.135013 457.424253 
L 218.331133 455.316652 
L 268.85827 443.943577 
L 285.531307 426.876007 
L 312.246095 432.393688 
L 370.599333 424.000716 
L 384.191601 403.3625 
L 434.902723 408.430258 
L 463.64439 409.191894 
L 470.712369 396.461856 
L 513.289877 386.494306 
" clip-path="url(#pbf20266321)" style="fill: none; stroke-dasharray: 3.7,1.6; stroke-dashoffset: 0; stroke: #f7746a"/>
   </g>
   <g id="line2d_76">
    <path d="M 190.602906 474.979756 
L 217.135013 458.441665 
L 218.331133 482.161613 
L 268.85827 475.860627 
L 285.531307 439.948164 
L 312.246095 464.988755 
L 370.599333 457.924839 
L 384.191601 423.777016 
L 434.902723 450.127669 
L 463.64439 439.16749 
L 470.712369 439.409667 
L 513.289877 427.783188 
" clip-path="url(#pbf20266321)" style="fill: none; stroke-dasharray: 3.7,1.6; stroke-dashoffset: 0; stroke: #f07c32"/>
   </g>
   <g id="line2d_77">
    <path d="M 190.602906 453.282786 
L 217.135013 439.807823 
L 218.331133 457.686132 
L 268.85827 451.257209 
L 285.531307 421.089255 
L 312.246095 437.144712 
L 370.599333 427.150702 
L 384.191601 407.857477 
L 434.902723 412.7498 
L 463.64439 402.985336 
L 470.712369 398.684852 
L 513.289877 389.586555 
" clip-path="url(#pbf20266321)" style="fill: none; stroke-dasharray: 3.7,1.6; stroke-dashoffset: 0; stroke: #d78b32"/>
   </g>
   <g id="line2d_78">
    <path d="M 190.602906 415.432493 
L 217.135013 408.845825 
L 218.331133 411.213907 
L 268.85827 398.232713 
L 285.531307 386.160516 
L 312.246095 383.746891 
L 370.599333 373.14966 
L 384.191601 360.088382 
L 434.902723 354.382069 
L 463.64439 343.872592 
L 470.712369 340.470044 
L 513.289877 332.799195 
" clip-path="url(#pbf20266321)" style="fill: none; stroke-dasharray: 3.7,1.6; stroke-dashoffset: 0; stroke: #c49432"/>
   </g>
   <g id="line2d_79">
    <path d="M 190.602906 466.15716 
L 217.135013 453.004449 
L 218.331133 468.028568 
L 268.85827 457.087161 
L 285.531307 434.698148 
L 312.246095 457.572095 
L 370.599333 448.564712 
L 384.191601 414.977275 
L 434.902723 450.732131 
L 463.64439 443.66877 
L 470.712369 433.916168 
L 513.289877 429.372761 
" clip-path="url(#pbf20266321)" style="fill: none; stroke-dasharray: 3.7,1.6; stroke-dashoffset: 0; stroke: #b49b32"/>
   </g>
   <g id="line2d_80">
    <path d="M 124.2 326.00934 
L 152.471918 309.366651 
L 162.258351 305.984432 
L 224.96416 291.528209 
L 229.531162 283.303402 
L 268.85827 270.694199 
L 290.859476 248.913341 
L 334.280792 227.566994 
L 374.335576 212.376348 
L 377.054029 219.712717 
L 377.123622 213.777822 
L 403.10334 173.99874 
" clip-path="url(#pbf20266321)" style="fill: none; stroke-dasharray: 3.7,1.6; stroke-dashoffset: 0; stroke: #a3a031"/>
   </g>
   <g id="line2d_81">
    <path d="M 190.602906 418.215863 
L 217.135013 411.000991 
L 218.331133 419.050698 
L 268.85827 413.224278 
L 285.531307 392.921073 
L 312.246095 397.497339 
L 370.599333 383.904131 
L 384.191601 365.231834 
L 434.902723 367.122465 
L 463.64439 359.256164 
L 470.712369 351.294504 
L 513.289877 339.714842 
" clip-path="url(#pbf20266321)" style="fill: none; stroke-dasharray: 3.7,1.6; stroke-dashoffset: 0; stroke: #90a531"/>
   </g>
   <g id="line2d_82">
    <path d="M 190.602906 443.617387 
L 217.135013 423.195985 
L 218.331133 442.025589 
L 268.85827 439.072541 
L 285.531307 411.386392 
L 312.246095 430.728106 
L 370.599333 420.122336 
L 384.191601 389.271848 
L 434.902723 410.498192 
L 463.64439 401.333718 
L 470.712369 396.066208 
L 513.289877 382.811066 
" clip-path="url(#pbf20266321)" style="fill: none; stroke-dasharray: 3.7,1.6; stroke-dashoffset: 0; stroke: #77ab31"/>
   </g>
   <g id="line2d_83">
    <path d="M 190.602906 393.235232 
L 217.135013 398.257267 
L 218.331133 370.994057 
L 268.85827 360.036001 
L 285.531307 372.840573 
L 312.246095 347.769861 
L 370.599333 336.321066 
L 384.191601 353.470166 
L 434.902723 319.217387 
L 463.64439 312.785428 
L 470.712369 305.237648 
L 513.289877 293.875579 
" clip-path="url(#pbf20266321)" style="fill: none; stroke-dasharray: 3.7,1.6; stroke-dashoffset: 0; stroke: #43b231"/>
   </g>
   <g id="line2d_84">
    <path d="M 190.602906 434.582933 
L 217.135013 435.879696 
L 218.331133 430.978859 
L 268.85827 410.452693 
L 285.531307 413.252491 
L 312.246095 397.786092 
L 370.599333 400.41429 
L 384.191601 391.636484 
L 434.902723 377.354224 
L 463.64439 371.571562 
L 470.712369 371.930715 
L 513.289877 347.346171 
" clip-path="url(#pbf20266321)" style="fill: none; stroke-dasharray: 3.7,1.6; stroke-dashoffset: 0; stroke: #33b169"/>
   </g>
   <g id="line2d_85">
    <path d="M 190.602906 463.017373 
L 217.135013 465.371702 
L 218.331133 465.172321 
L 268.85827 446.226708 
L 285.531307 440.833176 
L 312.246095 442.001908 
L 370.599333 425.408741 
L 384.191601 411.246447 
L 434.902723 417.903826 
L 463.64439 406.541459 
L 470.712369 402.734473 
L 513.289877 388.184217 
" clip-path="url(#pbf20266321)" style="fill: none; stroke-dasharray: 3.7,1.6; stroke-dashoffset: 0; stroke: #34af84"/>
   </g>
   <g id="line2d_86">
    <path d="M 190.602906 480.53261 
L 217.135013 466.310972 
L 218.331133 480.790072 
L 268.85827 471.066515 
L 285.531307 449.653662 
L 312.246095 474.948844 
L 370.599333 458.48582 
L 384.191601 430.545144 
L 434.902723 453.444879 
L 463.64439 452.621027 
L 470.712369 447.787424 
L 513.289877 432.94316 
" clip-path="url(#pbf20266321)" style="fill: none; stroke-dasharray: 3.7,1.6; stroke-dashoffset: 0; stroke: #35ae95"/>
   </g>
   <g id="line2d_87">
    <path d="M 190.602906 434.300024 
L 217.135013 419.443829 
L 218.331133 442.835356 
L 268.85827 433.271877 
L 285.531307 408.575256 
L 312.246095 420.800909 
L 370.599333 410.678049 
L 384.191601 390.652211 
L 434.902723 392.987196 
L 463.64439 385.763298 
L 470.712369 377.04885 
L 513.289877 366.257921 
" clip-path="url(#pbf20266321)" style="fill: none; stroke-dasharray: 3.7,1.6; stroke-dashoffset: 0; stroke: #36ada2"/>
   </g>
   <g id="line2d_88">
    <path d="M 190.602906 485.725462 
L 217.135013 474.784987 
L 218.331133 484.86337 
L 268.85827 481.891456 
L 285.531307 456.524191 
L 312.246095 476.785429 
L 370.599333 466.700126 
L 384.191601 426.156509 
L 434.902723 460.366048 
L 463.64439 446.916866 
L 470.712369 450.026877 
L 513.289877 439.271489 
" clip-path="url(#pbf20266321)" style="fill: none; stroke-dasharray: 3.7,1.6; stroke-dashoffset: 0; stroke: #36acae"/>
   </g>
   <g id="line2d_89">
    <path d="M 190.602906 440.626846 
L 217.135013 432.672452 
L 218.331133 432.54916 
L 268.85827 421.974145 
L 285.531307 415.643522 
L 312.246095 406.542694 
L 370.599333 387.842501 
L 384.191601 393.284843 
L 434.902723 370.435325 
L 463.64439 367.060939 
L 470.712369 362.891416 
L 513.289877 348.345923 
" clip-path="url(#pbf20266321)" style="fill: none; stroke-dasharray: 3.7,1.6; stroke-dashoffset: 0; stroke: #37aaba"/>
   </g>
   <g id="line2d_90">
    <path d="M 190.602906 454.547743 
L 217.135013 449.25396 
L 218.331133 461.592583 
L 268.85827 455.943435 
L 285.531307 426.511996 
L 312.246095 453.613556 
L 370.599333 443.39992 
L 384.191601 411.112141 
L 434.902723 439.576275 
L 463.64439 432.017779 
L 470.712369 429.609141 
L 513.289877 416.267247 
" clip-path="url(#pbf20266321)" style="fill: none; stroke-dasharray: 3.7,1.6; stroke-dashoffset: 0; stroke: #38a8c9"/>
   </g>
   <g id="line2d_91">
    <path d="M 190.602906 423.814689 
L 217.135013 415.209225 
L 218.331133 406.874829 
L 268.85827 397.321205 
L 285.531307 396.338093 
L 312.246095 382.216346 
L 370.599333 362.392692 
L 384.191601 369.821743 
L 434.902723 348.981545 
L 463.64439 335.351231 
L 470.712369 337.255912 
L 513.289877 331.369383 
" clip-path="url(#pbf20266321)" style="fill: none; stroke-dasharray: 3.7,1.6; stroke-dashoffset: 0; stroke: #3aa6dd"/>
   </g>
   <g id="line2d_92">
    <path d="M 190.602906 467.105902 
L 217.135013 446.359171 
L 218.331133 467.101027 
L 268.85827 452.454178 
L 285.531307 436.204677 
L 312.246095 444.191248 
L 370.599333 441.71805 
L 384.191601 415.237142 
L 434.902723 426.606625 
L 463.64439 426.779474 
L 470.712369 423.077954 
L 513.289877 407.400841 
" clip-path="url(#pbf20266321)" style="fill: none; stroke-dasharray: 3.7,1.6; stroke-dashoffset: 0; stroke: #569ff4"/>
   </g>
   <g id="line2d_93">
    <path d="M 190.602906 460.674762 
L 217.135013 447.747058 
L 218.331133 451.157623 
L 268.85827 455.575556 
L 285.531307 437.276506 
L 312.246095 453.981457 
L 370.599333 431.461601 
L 384.191601 410.96816 
L 434.902723 421.91938 
L 463.64439 418.02253 
L 470.712369 408.736296 
L 513.289877 399.662663 
" clip-path="url(#pbf20266321)" style="fill: none; stroke-dasharray: 3.7,1.6; stroke-dashoffset: 0; stroke: #8b94f4"/>
   </g>
   <g id="line2d_94">
    <path d="M 190.602906 482.379577 
L 217.135013 472.648894 
L 218.331133 482.48219 
L 268.85827 479.110466 
L 285.531307 458.119471 
L 312.246095 475.234721 
L 370.599333 468.118145 
L 384.191601 428.870686 
L 434.902723 463.4502 
L 463.64439 452.761271 
L 470.712369 452.616554 
L 513.289877 441.507915 
" clip-path="url(#pbf20266321)" style="fill: none; stroke-dasharray: 3.7,1.6; stroke-dashoffset: 0; stroke: #ae88f4"/>
   </g>
   <g id="line2d_95">
    <path d="M 190.602906 458.660965 
L 217.135013 455.160705 
L 218.331133 454.110469 
L 268.85827 454.753926 
L 285.531307 438.298898 
L 312.246095 452.686697 
L 370.599333 440.372926 
L 384.191601 406.573448 
L 434.902723 433.134288 
L 463.64439 421.25997 
L 470.712369 430.127138 
L 513.289877 414.086454 
" clip-path="url(#pbf20266321)" style="fill: none; stroke-dasharray: 3.7,1.6; stroke-dashoffset: 0; stroke: #cd79f4"/>
   </g>
   <g id="line2d_96">
    <path d="M 190.602906 461.92116 
L 217.135013 453.502879 
L 218.331133 458.068167 
L 268.85827 456.108243 
L 285.531307 418.470353 
L 312.246095 450.803812 
L 370.599333 443.689111 
L 384.191601 415.29967 
L 434.902723 433.847561 
L 463.64439 424.179793 
L 470.712369 423.836707 
L 513.289877 409.187823 
" clip-path="url(#pbf20266321)" style="fill: none; stroke-dasharray: 3.7,1.6; stroke-dashoffset: 0; stroke: #ed62f4"/>
   </g>
   <g id="line2d_97">
    <path d="M 190.602906 453.021861 
L 217.135013 445.792031 
L 218.331133 448.735446 
L 268.85827 445.83557 
L 285.531307 428.723631 
L 312.246095 433.898826 
L 370.599333 415.425375 
L 384.191601 391.333236 
L 434.902723 408.263819 
L 463.64439 398.04102 
L 470.712369 384.588927 
L 513.289877 376.112272 
" clip-path="url(#pbf20266321)" style="fill: none; stroke-dasharray: 3.7,1.6; stroke-dashoffset: 0; stroke: #f562db"/>
   </g>
   <g id="line2d_98">
    <path d="M 190.602906 456.901823 
L 217.135013 454.341771 
L 218.331133 458.880477 
L 268.85827 451.876951 
L 285.531307 432.440292 
L 312.246095 439.167584 
L 370.599333 423.251649 
L 384.191601 413.914082 
L 434.902723 409.067127 
L 463.64439 401.274549 
L 470.712369 397.146446 
L 513.289877 380.526676 
" clip-path="url(#pbf20266321)" style="fill: none; stroke-dasharray: 3.7,1.6; stroke-dashoffset: 0; stroke: #f668c2"/>
   </g>
   <g id="line2d_99">
    <path d="M 190.602906 454.168066 
L 217.135013 444.687923 
L 218.331133 448.575416 
L 268.85827 440.574152 
L 285.531307 429.730608 
L 312.246095 429.849276 
L 370.599333 419.346226 
L 384.191601 403.529115 
L 434.902723 405.611954 
L 463.64439 400.680913 
L 470.712369 390.927759 
L 513.289877 377.509601 
" clip-path="url(#pbf20266321)" style="fill: none; stroke-dasharray: 3.7,1.6; stroke-dashoffset: 0; stroke: #f66caa"/>
   </g>
   <g id="line2d_100">
    <path d="M 190.602906 350.376451 
L 217.135013 361.774643 
L 218.331133 333.159826 
L 268.85827 312.045552 
L 285.531307 341.28009 
L 312.246095 299.36557 
L 370.599333 283.825158 
L 384.191601 304.459864 
L 434.902723 272.102088 
L 463.64439 269.785498 
L 470.712369 249.360968 
L 513.289877 218.353771 
" clip-path="url(#pbf20266321)" style="fill: none; stroke-dasharray: 3.7,1.6; stroke-dashoffset: 0; stroke: #f7708e"/>
   </g>
   <g id="patch_3">
    <path d="M 99 512.64 
L 99 69.12 
" style="fill: none; opacity: 0"/>
   </g>
   <g id="patch_4">
    <path d="M 653.4 512.64 
L 653.4 69.12 
" style="fill: none; opacity: 0"/>
   </g>
   <g id="patch_5">
    <path d="M 99 512.64 
L 653.4 512.64 
" style="fill: none; opacity: 0"/>
   </g>
   <g id="patch_6">
    <path d="M 99 69.12 
L 653.4 69.12 
" style="fill: none; opacity: 0"/>
   </g>
   <g id="legend_1">
    <g id="patch_7">
     <path d="M 690.1164 75.293925 
L 710.1084 75.293925 
L 710.1084 68.296725 
L 690.1164 68.296725 
L 690.1164 75.293925 
z
" style="fill: none"/>
    </g>
    <g id="text_13">
     <!-- County -->
     <g transform="translate(718.1052 75.293925)scale(0.09996 -0.09996)">
      <defs>
       <path id="DejaVuSans-43" d="M 4122 4306 
L 4122 3641 
Q 3803 3938 3442 4084 
Q 3081 4231 2675 4231 
Q 1875 4231 1450 3742 
Q 1025 3253 1025 2328 
Q 1025 1406 1450 917 
Q 1875 428 2675 428 
Q 3081 428 3442 575 
Q 3803 722 4122 1019 
L 4122 359 
Q 3791 134 3420 21 
Q 3050 -91 2638 -91 
Q 1578 -91 968 557 
Q 359 1206 359 2328 
Q 359 3453 968 4101 
Q 1578 4750 2638 4750 
Q 3056 4750 3426 4639 
Q 3797 4528 4122 4306 
z
" transform="scale(0.015625)"/>
       <path id="DejaVuSans-6f" d="M 1959 3097 
Q 1497 3097 1228 2736 
Q 959 2375 959 1747 
Q 959 1119 1226 758 
Q 1494 397 1959 397 
Q 2419 397 2687 759 
Q 2956 1122 2956 1747 
Q 2956 2369 2687 2733 
Q 2419 3097 1959 3097 
z
M 1959 3584 
Q 2709 3584 3137 3096 
Q 3566 2609 3566 1747 
Q 3566 888 3137 398 
Q 2709 -91 1959 -91 
Q 1206 -91 779 398 
Q 353 888 353 1747 
Q 353 2609 779 3096 
Q 1206 3584 1959 3584 
z
" transform="scale(0.015625)"/>
       <path id="DejaVuSans-75" d="M 544 1381 
L 544 3500 
L 1119 3500 
L 1119 1403 
Q 1119 906 1312 657 
Q 1506 409 1894 409 
Q 2359 409 2629 706 
Q 2900 1003 2900 1516 
L 2900 3500 
L 3475 3500 
L 3475 0 
L 2900 0 
L 2900 538 
Q 2691 219 2414 64 
Q 2138 -91 1772 -91 
Q 1169 -91 856 284 
Q 544 659 544 1381 
z
M 1991 3584 
L 1991 3584 
z
" transform="scale(0.015625)"/>
       <path id="DejaVuSans-6e" d="M 3513 2113 
L 3513 0 
L 2938 0 
L 2938 2094 
Q 2938 2591 2744 2837 
Q 2550 3084 2163 3084 
Q 1697 3084 1428 2787 
Q 1159 2491 1159 1978 
L 1159 0 
L 581 0 
L 581 3500 
L 1159 3500 
L 1159 2956 
Q 1366 3272 1645 3428 
Q 1925 3584 2291 3584 
Q 2894 3584 3203 3211 
Q 3513 2838 3513 2113 
z
" transform="scale(0.015625)"/>
       <path id="DejaVuSans-74" d="M 1172 4494 
L 1172 3500 
L 2356 3500 
L 2356 3053 
L 1172 3053 
L 1172 1153 
Q 1172 725 1289 603 
Q 1406 481 1766 481 
L 2356 481 
L 2356 0 
L 1766 0 
Q 1100 0 847 248 
Q 594 497 594 1153 
L 594 3053 
L 172 3053 
L 172 3500 
L 594 3500 
L 594 4494 
L 1172 4494 
z
" transform="scale(0.015625)"/>
       <path id="DejaVuSans-79" d="M 2059 -325 
Q 1816 -950 1584 -1140 
Q 1353 -1331 966 -1331 
L 506 -1331 
L 506 -850 
L 844 -850 
Q 1081 -850 1212 -737 
Q 1344 -625 1503 -206 
L 1606 56 
L 191 3500 
L 800 3500 
L 1894 763 
L 2988 3500 
L 3597 3500 
L 2059 -325 
z
" transform="scale(0.015625)"/>
      </defs>
      <use xlink:href="#DejaVuSans-43"/>
      <use xlink:href="#DejaVuSans-6f" x="69.824219"/>
      <use xlink:href="#DejaVuSans-75" x="131.005859"/>
      <use xlink:href="#DejaVuSans-6e" x="194.384766"/>
      <use xlink:href="#DejaVuSans-74" x="257.763672"/>
      <use xlink:href="#DejaVuSans-79" x="296.972656"/>
     </g>
    </g>
    <g id="line2d_101">
     <path d="M 690.1164 86.467579 
L 700.1124 86.467579 
L 710.1084 86.467579 
" style="fill: none; stroke: #f7746a; stroke-width: 5; stroke-linecap: square"/>
    </g>
    <g id="text_14">
     <!-- Carlow -->
     <g transform="translate(718.1052 89.966179)scale(0.09996 -0.09996)">
      <defs>
       <path id="DejaVuSans-61" d="M 2194 1759 
Q 1497 1759 1228 1600 
Q 959 1441 959 1056 
Q 959 750 1161 570 
Q 1363 391 1709 391 
Q 2188 391 2477 730 
Q 2766 1069 2766 1631 
L 2766 1759 
L 2194 1759 
z
M 3341 1997 
L 3341 0 
L 2766 0 
L 2766 531 
Q 2569 213 2275 61 
Q 1981 -91 1556 -91 
Q 1019 -91 701 211 
Q 384 513 384 1019 
Q 384 1609 779 1909 
Q 1175 2209 1959 2209 
L 2766 2209 
L 2766 2266 
Q 2766 2663 2505 2880 
Q 2244 3097 1772 3097 
Q 1472 3097 1187 3025 
Q 903 2953 641 2809 
L 641 3341 
Q 956 3463 1253 3523 
Q 1550 3584 1831 3584 
Q 2591 3584 2966 3190 
Q 3341 2797 3341 1997 
z
" transform="scale(0.015625)"/>
       <path id="DejaVuSans-72" d="M 2631 2963 
Q 2534 3019 2420 3045 
Q 2306 3072 2169 3072 
Q 1681 3072 1420 2755 
Q 1159 2438 1159 1844 
L 1159 0 
L 581 0 
L 581 3500 
L 1159 3500 
L 1159 2956 
Q 1341 3275 1631 3429 
Q 1922 3584 2338 3584 
Q 2397 3584 2469 3576 
Q 2541 3569 2628 3553 
L 2631 2963 
z
" transform="scale(0.015625)"/>
       <path id="DejaVuSans-6c" d="M 603 4863 
L 1178 4863 
L 1178 0 
L 603 0 
L 603 4863 
z
" transform="scale(0.015625)"/>
       <path id="DejaVuSans-77" d="M 269 3500 
L 844 3500 
L 1563 769 
L 2278 3500 
L 2956 3500 
L 3675 769 
L 4391 3500 
L 4966 3500 
L 4050 0 
L 3372 0 
L 2619 2869 
L 1863 0 
L 1184 0 
L 269 3500 
z
" transform="scale(0.015625)"/>
      </defs>
      <use xlink:href="#DejaVuSans-43"/>
      <use xlink:href="#DejaVuSans-61" x="69.824219"/>
      <use xlink:href="#DejaVuSans-72" x="131.103516"/>
      <use xlink:href="#DejaVuSans-6c" x="172.216797"/>
      <use xlink:href="#DejaVuSans-6f" x="200"/>
      <use xlink:href="#DejaVuSans-77" x="261.181641"/>
     </g>
    </g>
    <g id="line2d_102">
     <path d="M 690.1164 101.139833 
L 700.1124 101.139833 
L 710.1084 101.139833 
" style="fill: none; stroke: #f07c32; stroke-width: 5; stroke-linecap: square"/>
    </g>
    <g id="text_15">
     <!-- Cavan -->
     <g transform="translate(718.1052 104.638433)scale(0.09996 -0.09996)">
      <defs>
       <path id="DejaVuSans-76" d="M 191 3500 
L 800 3500 
L 1894 563 
L 2988 3500 
L 3597 3500 
L 2284 0 
L 1503 0 
L 191 3500 
z
" transform="scale(0.015625)"/>
      </defs>
      <use xlink:href="#DejaVuSans-43"/>
      <use xlink:href="#DejaVuSans-61" x="69.824219"/>
      <use xlink:href="#DejaVuSans-76" x="131.103516"/>
      <use xlink:href="#DejaVuSans-61" x="190.283203"/>
      <use xlink:href="#DejaVuSans-6e" x="251.5625"/>
     </g>
    </g>
    <g id="line2d_103">
     <path d="M 690.1164 115.812086 
L 700.1124 115.812086 
L 710.1084 115.812086 
" style="fill: none; stroke: #d78b32; stroke-width: 5; stroke-linecap: square"/>
    </g>
    <g id="text_16">
     <!-- Clare -->
     <g transform="translate(718.1052 119.310686)scale(0.09996 -0.09996)">
      <defs>
       <path id="DejaVuSans-65" d="M 3597 1894 
L 3597 1613 
L 953 1613 
Q 991 1019 1311 708 
Q 1631 397 2203 397 
Q 2534 397 2845 478 
Q 3156 559 3463 722 
L 3463 178 
Q 3153 47 2828 -22 
Q 2503 -91 2169 -91 
Q 1331 -91 842 396 
Q 353 884 353 1716 
Q 353 2575 817 3079 
Q 1281 3584 2069 3584 
Q 2775 3584 3186 3129 
Q 3597 2675 3597 1894 
z
M 3022 2063 
Q 3016 2534 2758 2815 
Q 2500 3097 2075 3097 
Q 1594 3097 1305 2825 
Q 1016 2553 972 2059 
L 3022 2063 
z
" transform="scale(0.015625)"/>
      </defs>
      <use xlink:href="#DejaVuSans-43"/>
      <use xlink:href="#DejaVuSans-6c" x="69.824219"/>
      <use xlink:href="#DejaVuSans-61" x="97.607422"/>
      <use xlink:href="#DejaVuSans-72" x="158.886719"/>
      <use xlink:href="#DejaVuSans-65" x="197.75"/>
     </g>
    </g>
    <g id="line2d_104">
     <path d="M 690.1164 130.48434 
L 700.1124 130.48434 
L 710.1084 130.48434 
" style="fill: none; stroke: #c49432; stroke-width: 5; stroke-linecap: square"/>
    </g>
    <g id="text_17">
     <!-- Cork -->
     <g transform="translate(718.1052 133.98294)scale(0.09996 -0.09996)">
      <defs>
       <path id="DejaVuSans-6b" d="M 581 4863 
L 1159 4863 
L 1159 1991 
L 2875 3500 
L 3609 3500 
L 1753 1863 
L 3688 0 
L 2938 0 
L 1159 1709 
L 1159 0 
L 581 0 
L 581 4863 
z
" transform="scale(0.015625)"/>
      </defs>
      <use xlink:href="#DejaVuSans-43"/>
      <use xlink:href="#DejaVuSans-6f" x="69.824219"/>
      <use xlink:href="#DejaVuSans-72" x="131.005859"/>
      <use xlink:href="#DejaVuSans-6b" x="172.119141"/>
     </g>
    </g>
    <g id="line2d_105">
     <path d="M 690.1164 145.156594 
L 700.1124 145.156594 
L 710.1084 145.156594 
" style="fill: none; stroke: #b49b32; stroke-width: 5; stroke-linecap: square"/>
    </g>
    <g id="text_18">
     <!-- Donegal -->
     <g transform="translate(718.1052 148.655194)scale(0.09996 -0.09996)">
      <defs>
       <path id="DejaVuSans-44" d="M 1259 4147 
L 1259 519 
L 2022 519 
Q 2988 519 3436 956 
Q 3884 1394 3884 2338 
Q 3884 3275 3436 3711 
Q 2988 4147 2022 4147 
L 1259 4147 
z
M 628 4666 
L 1925 4666 
Q 3281 4666 3915 4102 
Q 4550 3538 4550 2338 
Q 4550 1131 3912 565 
Q 3275 0 1925 0 
L 628 0 
L 628 4666 
z
" transform="scale(0.015625)"/>
       <path id="DejaVuSans-67" d="M 2906 1791 
Q 2906 2416 2648 2759 
Q 2391 3103 1925 3103 
Q 1463 3103 1205 2759 
Q 947 2416 947 1791 
Q 947 1169 1205 825 
Q 1463 481 1925 481 
Q 2391 481 2648 825 
Q 2906 1169 2906 1791 
z
M 3481 434 
Q 3481 -459 3084 -895 
Q 2688 -1331 1869 -1331 
Q 1566 -1331 1297 -1286 
Q 1028 -1241 775 -1147 
L 775 -588 
Q 1028 -725 1275 -790 
Q 1522 -856 1778 -856 
Q 2344 -856 2625 -561 
Q 2906 -266 2906 331 
L 2906 616 
Q 2728 306 2450 153 
Q 2172 0 1784 0 
Q 1141 0 747 490 
Q 353 981 353 1791 
Q 353 2603 747 3093 
Q 1141 3584 1784 3584 
Q 2172 3584 2450 3431 
Q 2728 3278 2906 2969 
L 2906 3500 
L 3481 3500 
L 3481 434 
z
" transform="scale(0.015625)"/>
      </defs>
      <use xlink:href="#DejaVuSans-44"/>
      <use xlink:href="#DejaVuSans-6f" x="77.001953"/>
      <use xlink:href="#DejaVuSans-6e" x="138.183594"/>
      <use xlink:href="#DejaVuSans-65" x="201.5625"/>
      <use xlink:href="#DejaVuSans-67" x="263.085938"/>
      <use xlink:href="#DejaVuSans-61" x="326.5625"/>
      <use xlink:href="#DejaVuSans-6c" x="387.841797"/>
     </g>
    </g>
    <g id="line2d_106">
     <path d="M 690.1164 159.828848 
L 700.1124 159.828848 
L 710.1084 159.828848 
" style="fill: none; stroke: #a3a031; stroke-width: 5; stroke-linecap: square"/>
    </g>
    <g id="text_19">
     <!-- Dublin -->
     <g transform="translate(718.1052 163.327448)scale(0.09996 -0.09996)">
      <defs>
       <path id="DejaVuSans-62" d="M 3116 1747 
Q 3116 2381 2855 2742 
Q 2594 3103 2138 3103 
Q 1681 3103 1420 2742 
Q 1159 2381 1159 1747 
Q 1159 1113 1420 752 
Q 1681 391 2138 391 
Q 2594 391 2855 752 
Q 3116 1113 3116 1747 
z
M 1159 2969 
Q 1341 3281 1617 3432 
Q 1894 3584 2278 3584 
Q 2916 3584 3314 3078 
Q 3713 2572 3713 1747 
Q 3713 922 3314 415 
Q 2916 -91 2278 -91 
Q 1894 -91 1617 61 
Q 1341 213 1159 525 
L 1159 0 
L 581 0 
L 581 4863 
L 1159 4863 
L 1159 2969 
z
" transform="scale(0.015625)"/>
       <path id="DejaVuSans-69" d="M 603 3500 
L 1178 3500 
L 1178 0 
L 603 0 
L 603 3500 
z
M 603 4863 
L 1178 4863 
L 1178 4134 
L 603 4134 
L 603 4863 
z
" transform="scale(0.015625)"/>
      </defs>
      <use xlink:href="#DejaVuSans-44"/>
      <use xlink:href="#DejaVuSans-75" x="77.001953"/>
      <use xlink:href="#DejaVuSans-62" x="140.380859"/>
      <use xlink:href="#DejaVuSans-6c" x="203.857422"/>
      <use xlink:href="#DejaVuSans-69" x="231.640625"/>
      <use xlink:href="#DejaVuSans-6e" x="259.423828"/>
     </g>
    </g>
    <g id="line2d_107">
     <path d="M 690.1164 174.501101 
L 700.1124 174.501101 
L 710.1084 174.501101 
" style="fill: none; stroke: #90a531; stroke-width: 5; stroke-linecap: square"/>
    </g>
    <g id="text_20">
     <!-- Galway -->
     <g transform="translate(718.1052 177.999701)scale(0.09996 -0.09996)">
      <defs>
       <path id="DejaVuSans-47" d="M 3809 666 
L 3809 1919 
L 2778 1919 
L 2778 2438 
L 4434 2438 
L 4434 434 
Q 4069 175 3628 42 
Q 3188 -91 2688 -91 
Q 1594 -91 976 548 
Q 359 1188 359 2328 
Q 359 3472 976 4111 
Q 1594 4750 2688 4750 
Q 3144 4750 3555 4637 
Q 3966 4525 4313 4306 
L 4313 3634 
Q 3963 3931 3569 4081 
Q 3175 4231 2741 4231 
Q 1884 4231 1454 3753 
Q 1025 3275 1025 2328 
Q 1025 1384 1454 906 
Q 1884 428 2741 428 
Q 3075 428 3337 486 
Q 3600 544 3809 666 
z
" transform="scale(0.015625)"/>
      </defs>
      <use xlink:href="#DejaVuSans-47"/>
      <use xlink:href="#DejaVuSans-61" x="77.490234"/>
      <use xlink:href="#DejaVuSans-6c" x="138.769531"/>
      <use xlink:href="#DejaVuSans-77" x="166.552734"/>
      <use xlink:href="#DejaVuSans-61" x="248.339844"/>
      <use xlink:href="#DejaVuSans-79" x="309.619141"/>
     </g>
    </g>
    <g id="line2d_108">
     <path d="M 690.1164 189.173355 
L 700.1124 189.173355 
L 710.1084 189.173355 
" style="fill: none; stroke: #77ab31; stroke-width: 5; stroke-linecap: square"/>
    </g>
    <g id="text_21">
     <!-- Kerry -->
     <g transform="translate(718.1052 192.671955)scale(0.09996 -0.09996)">
      <defs>
       <path id="DejaVuSans-4b" d="M 628 4666 
L 1259 4666 
L 1259 2694 
L 3353 4666 
L 4166 4666 
L 1850 2491 
L 4331 0 
L 3500 0 
L 1259 2247 
L 1259 0 
L 628 0 
L 628 4666 
z
" transform="scale(0.015625)"/>
      </defs>
      <use xlink:href="#DejaVuSans-4b"/>
      <use xlink:href="#DejaVuSans-65" x="60.576172"/>
      <use xlink:href="#DejaVuSans-72" x="122.099609"/>
      <use xlink:href="#DejaVuSans-72" x="161.462891"/>
      <use xlink:href="#DejaVuSans-79" x="202.576172"/>
     </g>
    </g>
    <g id="line2d_109">
     <path d="M 690.1164 203.845609 
L 700.1124 203.845609 
L 710.1084 203.845609 
" style="fill: none; stroke: #43b231; stroke-width: 5; stroke-linecap: square"/>
    </g>
    <g id="text_22">
     <!-- Kildare -->
     <g transform="translate(718.1052 207.344209)scale(0.09996 -0.09996)">
      <defs>
       <path id="DejaVuSans-64" d="M 2906 2969 
L 2906 4863 
L 3481 4863 
L 3481 0 
L 2906 0 
L 2906 525 
Q 2725 213 2448 61 
Q 2172 -91 1784 -91 
Q 1150 -91 751 415 
Q 353 922 353 1747 
Q 353 2572 751 3078 
Q 1150 3584 1784 3584 
Q 2172 3584 2448 3432 
Q 2725 3281 2906 2969 
z
M 947 1747 
Q 947 1113 1208 752 
Q 1469 391 1925 391 
Q 2381 391 2643 752 
Q 2906 1113 2906 1747 
Q 2906 2381 2643 2742 
Q 2381 3103 1925 3103 
Q 1469 3103 1208 2742 
Q 947 2381 947 1747 
z
" transform="scale(0.015625)"/>
      </defs>
      <use xlink:href="#DejaVuSans-4b"/>
      <use xlink:href="#DejaVuSans-69" x="65.576172"/>
      <use xlink:href="#DejaVuSans-6c" x="93.359375"/>
      <use xlink:href="#DejaVuSans-64" x="121.142578"/>
      <use xlink:href="#DejaVuSans-61" x="184.619141"/>
      <use xlink:href="#DejaVuSans-72" x="245.898438"/>
      <use xlink:href="#DejaVuSans-65" x="284.761719"/>
     </g>
    </g>
    <g id="line2d_110">
     <path d="M 690.1164 218.517863 
L 700.1124 218.517863 
L 710.1084 218.517863 
" style="fill: none; stroke: #33b169; stroke-width: 5; stroke-linecap: square"/>
    </g>
    <g id="text_23">
     <!-- Kilkenny -->
     <g transform="translate(718.1052 222.016463)scale(0.09996 -0.09996)">
      <use xlink:href="#DejaVuSans-4b"/>
      <use xlink:href="#DejaVuSans-69" x="65.576172"/>
      <use xlink:href="#DejaVuSans-6c" x="93.359375"/>
      <use xlink:href="#DejaVuSans-6b" x="121.142578"/>
      <use xlink:href="#DejaVuSans-65" x="175.427734"/>
      <use xlink:href="#DejaVuSans-6e" x="236.951172"/>
      <use xlink:href="#DejaVuSans-6e" x="300.330078"/>
      <use xlink:href="#DejaVuSans-79" x="363.708984"/>
     </g>
    </g>
    <g id="line2d_111">
     <path d="M 690.1164 233.190116 
L 700.1124 233.190116 
L 710.1084 233.190116 
" style="fill: none; stroke: #34af84; stroke-width: 5; stroke-linecap: square"/>
    </g>
    <g id="text_24">
     <!-- Laois -->
     <g transform="translate(718.1052 236.688716)scale(0.09996 -0.09996)">
      <defs>
       <path id="DejaVuSans-4c" d="M 628 4666 
L 1259 4666 
L 1259 531 
L 3531 531 
L 3531 0 
L 628 0 
L 628 4666 
z
" transform="scale(0.015625)"/>
       <path id="DejaVuSans-73" d="M 2834 3397 
L 2834 2853 
Q 2591 2978 2328 3040 
Q 2066 3103 1784 3103 
Q 1356 3103 1142 2972 
Q 928 2841 928 2578 
Q 928 2378 1081 2264 
Q 1234 2150 1697 2047 
L 1894 2003 
Q 2506 1872 2764 1633 
Q 3022 1394 3022 966 
Q 3022 478 2636 193 
Q 2250 -91 1575 -91 
Q 1294 -91 989 -36 
Q 684 19 347 128 
L 347 722 
Q 666 556 975 473 
Q 1284 391 1588 391 
Q 1994 391 2212 530 
Q 2431 669 2431 922 
Q 2431 1156 2273 1281 
Q 2116 1406 1581 1522 
L 1381 1569 
Q 847 1681 609 1914 
Q 372 2147 372 2553 
Q 372 3047 722 3315 
Q 1072 3584 1716 3584 
Q 2034 3584 2315 3537 
Q 2597 3491 2834 3397 
z
" transform="scale(0.015625)"/>
      </defs>
      <use xlink:href="#DejaVuSans-4c"/>
      <use xlink:href="#DejaVuSans-61" x="55.712891"/>
      <use xlink:href="#DejaVuSans-6f" x="116.992188"/>
      <use xlink:href="#DejaVuSans-69" x="178.173828"/>
      <use xlink:href="#DejaVuSans-73" x="205.957031"/>
     </g>
    </g>
    <g id="line2d_112">
     <path d="M 690.1164 247.86237 
L 700.1124 247.86237 
L 710.1084 247.86237 
" style="fill: none; stroke: #35ae95; stroke-width: 5; stroke-linecap: square"/>
    </g>
    <g id="text_25">
     <!-- Leitrim -->
     <g transform="translate(718.1052 251.36097)scale(0.09996 -0.09996)">
      <defs>
       <path id="DejaVuSans-6d" d="M 3328 2828 
Q 3544 3216 3844 3400 
Q 4144 3584 4550 3584 
Q 5097 3584 5394 3201 
Q 5691 2819 5691 2113 
L 5691 0 
L 5113 0 
L 5113 2094 
Q 5113 2597 4934 2840 
Q 4756 3084 4391 3084 
Q 3944 3084 3684 2787 
Q 3425 2491 3425 1978 
L 3425 0 
L 2847 0 
L 2847 2094 
Q 2847 2600 2669 2842 
Q 2491 3084 2119 3084 
Q 1678 3084 1418 2786 
Q 1159 2488 1159 1978 
L 1159 0 
L 581 0 
L 581 3500 
L 1159 3500 
L 1159 2956 
Q 1356 3278 1631 3431 
Q 1906 3584 2284 3584 
Q 2666 3584 2933 3390 
Q 3200 3197 3328 2828 
z
" transform="scale(0.015625)"/>
      </defs>
      <use xlink:href="#DejaVuSans-4c"/>
      <use xlink:href="#DejaVuSans-65" x="53.962891"/>
      <use xlink:href="#DejaVuSans-69" x="115.486328"/>
      <use xlink:href="#DejaVuSans-74" x="143.269531"/>
      <use xlink:href="#DejaVuSans-72" x="182.478516"/>
      <use xlink:href="#DejaVuSans-69" x="223.591797"/>
      <use xlink:href="#DejaVuSans-6d" x="251.375"/>
     </g>
    </g>
    <g id="line2d_113">
     <path d="M 690.1164 262.534624 
L 700.1124 262.534624 
L 710.1084 262.534624 
" style="fill: none; stroke: #36ada2; stroke-width: 5; stroke-linecap: square"/>
    </g>
    <g id="text_26">
     <!-- Limerick -->
     <g transform="translate(718.1052 266.033224)scale(0.09996 -0.09996)">
      <defs>
       <path id="DejaVuSans-63" d="M 3122 3366 
L 3122 2828 
Q 2878 2963 2633 3030 
Q 2388 3097 2138 3097 
Q 1578 3097 1268 2742 
Q 959 2388 959 1747 
Q 959 1106 1268 751 
Q 1578 397 2138 397 
Q 2388 397 2633 464 
Q 2878 531 3122 666 
L 3122 134 
Q 2881 22 2623 -34 
Q 2366 -91 2075 -91 
Q 1284 -91 818 406 
Q 353 903 353 1747 
Q 353 2603 823 3093 
Q 1294 3584 2113 3584 
Q 2378 3584 2631 3529 
Q 2884 3475 3122 3366 
z
" transform="scale(0.015625)"/>
      </defs>
      <use xlink:href="#DejaVuSans-4c"/>
      <use xlink:href="#DejaVuSans-69" x="55.712891"/>
      <use xlink:href="#DejaVuSans-6d" x="83.496094"/>
      <use xlink:href="#DejaVuSans-65" x="180.908203"/>
      <use xlink:href="#DejaVuSans-72" x="242.431641"/>
      <use xlink:href="#DejaVuSans-69" x="283.544922"/>
      <use xlink:href="#DejaVuSans-63" x="311.328125"/>
      <use xlink:href="#DejaVuSans-6b" x="366.308594"/>
     </g>
    </g>
    <g id="line2d_114">
     <path d="M 690.1164 277.206878 
L 700.1124 277.206878 
L 710.1084 277.206878 
" style="fill: none; stroke: #36acae; stroke-width: 5; stroke-linecap: square"/>
    </g>
    <g id="text_27">
     <!-- Longford -->
     <g transform="translate(718.1052 280.705478)scale(0.09996 -0.09996)">
      <defs>
       <path id="DejaVuSans-66" d="M 2375 4863 
L 2375 4384 
L 1825 4384 
Q 1516 4384 1395 4259 
Q 1275 4134 1275 3809 
L 1275 3500 
L 2222 3500 
L 2222 3053 
L 1275 3053 
L 1275 0 
L 697 0 
L 697 3053 
L 147 3053 
L 147 3500 
L 697 3500 
L 697 3744 
Q 697 4328 969 4595 
Q 1241 4863 1831 4863 
L 2375 4863 
z
" transform="scale(0.015625)"/>
      </defs>
      <use xlink:href="#DejaVuSans-4c"/>
      <use xlink:href="#DejaVuSans-6f" x="53.962891"/>
      <use xlink:href="#DejaVuSans-6e" x="115.144531"/>
      <use xlink:href="#DejaVuSans-67" x="178.523438"/>
      <use xlink:href="#DejaVuSans-66" x="242"/>
      <use xlink:href="#DejaVuSans-6f" x="277.205078"/>
      <use xlink:href="#DejaVuSans-72" x="338.386719"/>
      <use xlink:href="#DejaVuSans-64" x="377.75"/>
     </g>
    </g>
    <g id="line2d_115">
     <path d="M 690.1164 291.879131 
L 700.1124 291.879131 
L 710.1084 291.879131 
" style="fill: none; stroke: #37aaba; stroke-width: 5; stroke-linecap: square"/>
    </g>
    <g id="text_28">
     <!-- Louth -->
     <g transform="translate(718.1052 295.377731)scale(0.09996 -0.09996)">
      <defs>
       <path id="DejaVuSans-68" d="M 3513 2113 
L 3513 0 
L 2938 0 
L 2938 2094 
Q 2938 2591 2744 2837 
Q 2550 3084 2163 3084 
Q 1697 3084 1428 2787 
Q 1159 2491 1159 1978 
L 1159 0 
L 581 0 
L 581 4863 
L 1159 4863 
L 1159 2956 
Q 1366 3272 1645 3428 
Q 1925 3584 2291 3584 
Q 2894 3584 3203 3211 
Q 3513 2838 3513 2113 
z
" transform="scale(0.015625)"/>
      </defs>
      <use xlink:href="#DejaVuSans-4c"/>
      <use xlink:href="#DejaVuSans-6f" x="53.962891"/>
      <use xlink:href="#DejaVuSans-75" x="115.144531"/>
      <use xlink:href="#DejaVuSans-74" x="178.523438"/>
      <use xlink:href="#DejaVuSans-68" x="217.732422"/>
     </g>
    </g>
    <g id="line2d_116">
     <path d="M 690.1164 306.551385 
L 700.1124 306.551385 
L 710.1084 306.551385 
" style="fill: none; stroke: #38a8c9; stroke-width: 5; stroke-linecap: square"/>
    </g>
    <g id="text_29">
     <!-- Mayo -->
     <g transform="translate(718.1052 310.049985)scale(0.09996 -0.09996)">
      <defs>
       <path id="DejaVuSans-4d" d="M 628 4666 
L 1569 4666 
L 2759 1491 
L 3956 4666 
L 4897 4666 
L 4897 0 
L 4281 0 
L 4281 4097 
L 3078 897 
L 2444 897 
L 1241 4097 
L 1241 0 
L 628 0 
L 628 4666 
z
" transform="scale(0.015625)"/>
      </defs>
      <use xlink:href="#DejaVuSans-4d"/>
      <use xlink:href="#DejaVuSans-61" x="86.279297"/>
      <use xlink:href="#DejaVuSans-79" x="147.558594"/>
      <use xlink:href="#DejaVuSans-6f" x="206.738281"/>
     </g>
    </g>
    <g id="line2d_117">
     <path d="M 690.1164 321.223639 
L 700.1124 321.223639 
L 710.1084 321.223639 
" style="fill: none; stroke: #3aa6dd; stroke-width: 5; stroke-linecap: square"/>
    </g>
    <g id="text_30">
     <!-- Meath -->
     <g transform="translate(718.1052 324.722239)scale(0.09996 -0.09996)">
      <use xlink:href="#DejaVuSans-4d"/>
      <use xlink:href="#DejaVuSans-65" x="86.279297"/>
      <use xlink:href="#DejaVuSans-61" x="147.802734"/>
      <use xlink:href="#DejaVuSans-74" x="209.082031"/>
      <use xlink:href="#DejaVuSans-68" x="248.291016"/>
     </g>
    </g>
    <g id="line2d_118">
     <path d="M 690.1164 335.895893 
L 700.1124 335.895893 
L 710.1084 335.895893 
" style="fill: none; stroke: #569ff4; stroke-width: 5; stroke-linecap: square"/>
    </g>
    <g id="text_31">
     <!-- Monaghan -->
     <g transform="translate(718.1052 339.394493)scale(0.09996 -0.09996)">
      <use xlink:href="#DejaVuSans-4d"/>
      <use xlink:href="#DejaVuSans-6f" x="86.279297"/>
      <use xlink:href="#DejaVuSans-6e" x="147.460938"/>
      <use xlink:href="#DejaVuSans-61" x="210.839844"/>
      <use xlink:href="#DejaVuSans-67" x="272.119141"/>
      <use xlink:href="#DejaVuSans-68" x="335.595703"/>
      <use xlink:href="#DejaVuSans-61" x="398.974609"/>
      <use xlink:href="#DejaVuSans-6e" x="460.253906"/>
     </g>
    </g>
    <g id="line2d_119">
     <path d="M 690.1164 350.568146 
L 700.1124 350.568146 
L 710.1084 350.568146 
" style="fill: none; stroke: #8b94f4; stroke-width: 5; stroke-linecap: square"/>
    </g>
    <g id="text_32">
     <!-- Offaly -->
     <g transform="translate(718.1052 354.066746)scale(0.09996 -0.09996)">
      <defs>
       <path id="DejaVuSans-4f" d="M 2522 4238 
Q 1834 4238 1429 3725 
Q 1025 3213 1025 2328 
Q 1025 1447 1429 934 
Q 1834 422 2522 422 
Q 3209 422 3611 934 
Q 4013 1447 4013 2328 
Q 4013 3213 3611 3725 
Q 3209 4238 2522 4238 
z
M 2522 4750 
Q 3503 4750 4090 4092 
Q 4678 3434 4678 2328 
Q 4678 1225 4090 567 
Q 3503 -91 2522 -91 
Q 1538 -91 948 565 
Q 359 1222 359 2328 
Q 359 3434 948 4092 
Q 1538 4750 2522 4750 
z
" transform="scale(0.015625)"/>
      </defs>
      <use xlink:href="#DejaVuSans-4f"/>
      <use xlink:href="#DejaVuSans-66" x="78.710938"/>
      <use xlink:href="#DejaVuSans-66" x="113.916016"/>
      <use xlink:href="#DejaVuSans-61" x="149.121094"/>
      <use xlink:href="#DejaVuSans-6c" x="210.400391"/>
      <use xlink:href="#DejaVuSans-79" x="238.183594"/>
     </g>
    </g>
    <g id="line2d_120">
     <path d="M 690.1164 365.2404 
L 700.1124 365.2404 
L 710.1084 365.2404 
" style="fill: none; stroke: #ae88f4; stroke-width: 5; stroke-linecap: square"/>
    </g>
    <g id="text_33">
     <!-- Roscommon -->
     <g transform="translate(718.1052 368.739)scale(0.09996 -0.09996)">
      <defs>
       <path id="DejaVuSans-52" d="M 2841 2188 
Q 3044 2119 3236 1894 
Q 3428 1669 3622 1275 
L 4263 0 
L 3584 0 
L 2988 1197 
Q 2756 1666 2539 1819 
Q 2322 1972 1947 1972 
L 1259 1972 
L 1259 0 
L 628 0 
L 628 4666 
L 2053 4666 
Q 2853 4666 3247 4331 
Q 3641 3997 3641 3322 
Q 3641 2881 3436 2590 
Q 3231 2300 2841 2188 
z
M 1259 4147 
L 1259 2491 
L 2053 2491 
Q 2509 2491 2742 2702 
Q 2975 2913 2975 3322 
Q 2975 3731 2742 3939 
Q 2509 4147 2053 4147 
L 1259 4147 
z
" transform="scale(0.015625)"/>
      </defs>
      <use xlink:href="#DejaVuSans-52"/>
      <use xlink:href="#DejaVuSans-6f" x="64.982422"/>
      <use xlink:href="#DejaVuSans-73" x="126.164062"/>
      <use xlink:href="#DejaVuSans-63" x="178.263672"/>
      <use xlink:href="#DejaVuSans-6f" x="233.244141"/>
      <use xlink:href="#DejaVuSans-6d" x="294.425781"/>
      <use xlink:href="#DejaVuSans-6d" x="391.837891"/>
      <use xlink:href="#DejaVuSans-6f" x="489.25"/>
      <use xlink:href="#DejaVuSans-6e" x="550.431641"/>
     </g>
    </g>
    <g id="line2d_121">
     <path d="M 690.1164 379.912654 
L 700.1124 379.912654 
L 710.1084 379.912654 
" style="fill: none; stroke: #cd79f4; stroke-width: 5; stroke-linecap: square"/>
    </g>
    <g id="text_34">
     <!-- Sligo -->
     <g transform="translate(718.1052 383.411254)scale(0.09996 -0.09996)">
      <defs>
       <path id="DejaVuSans-53" d="M 3425 4513 
L 3425 3897 
Q 3066 4069 2747 4153 
Q 2428 4238 2131 4238 
Q 1616 4238 1336 4038 
Q 1056 3838 1056 3469 
Q 1056 3159 1242 3001 
Q 1428 2844 1947 2747 
L 2328 2669 
Q 3034 2534 3370 2195 
Q 3706 1856 3706 1288 
Q 3706 609 3251 259 
Q 2797 -91 1919 -91 
Q 1588 -91 1214 -16 
Q 841 59 441 206 
L 441 856 
Q 825 641 1194 531 
Q 1563 422 1919 422 
Q 2459 422 2753 634 
Q 3047 847 3047 1241 
Q 3047 1584 2836 1778 
Q 2625 1972 2144 2069 
L 1759 2144 
Q 1053 2284 737 2584 
Q 422 2884 422 3419 
Q 422 4038 858 4394 
Q 1294 4750 2059 4750 
Q 2388 4750 2728 4690 
Q 3069 4631 3425 4513 
z
" transform="scale(0.015625)"/>
      </defs>
      <use xlink:href="#DejaVuSans-53"/>
      <use xlink:href="#DejaVuSans-6c" x="63.476562"/>
      <use xlink:href="#DejaVuSans-69" x="91.259766"/>
      <use xlink:href="#DejaVuSans-67" x="119.042969"/>
      <use xlink:href="#DejaVuSans-6f" x="182.519531"/>
     </g>
    </g>
    <g id="line2d_122">
     <path d="M 690.1164 394.584908 
L 700.1124 394.584908 
L 710.1084 394.584908 
" style="fill: none; stroke: #ed62f4; stroke-width: 5; stroke-linecap: square"/>
    </g>
    <g id="text_35">
     <!-- Tipperary -->
     <g transform="translate(718.1052 398.083508)scale(0.09996 -0.09996)">
      <defs>
       <path id="DejaVuSans-54" d="M -19 4666 
L 3928 4666 
L 3928 4134 
L 2272 4134 
L 2272 0 
L 1638 0 
L 1638 4134 
L -19 4134 
L -19 4666 
z
" transform="scale(0.015625)"/>
       <path id="DejaVuSans-70" d="M 1159 525 
L 1159 -1331 
L 581 -1331 
L 581 3500 
L 1159 3500 
L 1159 2969 
Q 1341 3281 1617 3432 
Q 1894 3584 2278 3584 
Q 2916 3584 3314 3078 
Q 3713 2572 3713 1747 
Q 3713 922 3314 415 
Q 2916 -91 2278 -91 
Q 1894 -91 1617 61 
Q 1341 213 1159 525 
z
M 3116 1747 
Q 3116 2381 2855 2742 
Q 2594 3103 2138 3103 
Q 1681 3103 1420 2742 
Q 1159 2381 1159 1747 
Q 1159 1113 1420 752 
Q 1681 391 2138 391 
Q 2594 391 2855 752 
Q 3116 1113 3116 1747 
z
" transform="scale(0.015625)"/>
      </defs>
      <use xlink:href="#DejaVuSans-54"/>
      <use xlink:href="#DejaVuSans-69" x="57.958984"/>
      <use xlink:href="#DejaVuSans-70" x="85.742188"/>
      <use xlink:href="#DejaVuSans-70" x="149.21875"/>
      <use xlink:href="#DejaVuSans-65" x="212.695312"/>
      <use xlink:href="#DejaVuSans-72" x="274.21875"/>
      <use xlink:href="#DejaVuSans-61" x="315.332031"/>
      <use xlink:href="#DejaVuSans-72" x="376.611328"/>
      <use xlink:href="#DejaVuSans-79" x="417.724609"/>
     </g>
    </g>
    <g id="line2d_123">
     <path d="M 690.1164 409.257161 
L 700.1124 409.257161 
L 710.1084 409.257161 
" style="fill: none; stroke: #f562db; stroke-width: 5; stroke-linecap: square"/>
    </g>
    <g id="text_36">
     <!-- Waterford -->
     <g transform="translate(718.1052 412.755761)scale(0.09996 -0.09996)">
      <defs>
       <path id="DejaVuSans-57" d="M 213 4666 
L 850 4666 
L 1831 722 
L 2809 4666 
L 3519 4666 
L 4500 722 
L 5478 4666 
L 6119 4666 
L 4947 0 
L 4153 0 
L 3169 4050 
L 2175 0 
L 1381 0 
L 213 4666 
z
" transform="scale(0.015625)"/>
      </defs>
      <use xlink:href="#DejaVuSans-57"/>
      <use xlink:href="#DejaVuSans-61" x="92.501953"/>
      <use xlink:href="#DejaVuSans-74" x="153.78125"/>
      <use xlink:href="#DejaVuSans-65" x="192.990234"/>
      <use xlink:href="#DejaVuSans-72" x="254.513672"/>
      <use xlink:href="#DejaVuSans-66" x="295.626953"/>
      <use xlink:href="#DejaVuSans-6f" x="330.832031"/>
      <use xlink:href="#DejaVuSans-72" x="392.013672"/>
      <use xlink:href="#DejaVuSans-64" x="431.376953"/>
     </g>
    </g>
    <g id="line2d_124">
     <path d="M 690.1164 423.929415 
L 700.1124 423.929415 
L 710.1084 423.929415 
" style="fill: none; stroke: #f668c2; stroke-width: 5; stroke-linecap: square"/>
    </g>
    <g id="text_37">
     <!-- Westmeath -->
     <g transform="translate(718.1052 427.428015)scale(0.09996 -0.09996)">
      <use xlink:href="#DejaVuSans-57"/>
      <use xlink:href="#DejaVuSans-65" x="93.001953"/>
      <use xlink:href="#DejaVuSans-73" x="154.525391"/>
      <use xlink:href="#DejaVuSans-74" x="206.625"/>
      <use xlink:href="#DejaVuSans-6d" x="245.833984"/>
      <use xlink:href="#DejaVuSans-65" x="343.246094"/>
      <use xlink:href="#DejaVuSans-61" x="404.769531"/>
      <use xlink:href="#DejaVuSans-74" x="466.048828"/>
      <use xlink:href="#DejaVuSans-68" x="505.257812"/>
     </g>
    </g>
    <g id="line2d_125">
     <path d="M 690.1164 438.601669 
L 700.1124 438.601669 
L 710.1084 438.601669 
" style="fill: none; stroke: #f66caa; stroke-width: 5; stroke-linecap: square"/>
    </g>
    <g id="text_38">
     <!-- Wexford -->
     <g transform="translate(718.1052 442.100269)scale(0.09996 -0.09996)">
      <defs>
       <path id="DejaVuSans-78" d="M 3513 3500 
L 2247 1797 
L 3578 0 
L 2900 0 
L 1881 1375 
L 863 0 
L 184 0 
L 1544 1831 
L 300 3500 
L 978 3500 
L 1906 2253 
L 2834 3500 
L 3513 3500 
z
" transform="scale(0.015625)"/>
      </defs>
      <use xlink:href="#DejaVuSans-57"/>
      <use xlink:href="#DejaVuSans-65" x="93.001953"/>
      <use xlink:href="#DejaVuSans-78" x="152.775391"/>
      <use xlink:href="#DejaVuSans-66" x="211.955078"/>
      <use xlink:href="#DejaVuSans-6f" x="247.160156"/>
      <use xlink:href="#DejaVuSans-72" x="308.341797"/>
      <use xlink:href="#DejaVuSans-64" x="347.705078"/>
     </g>
    </g>
    <g id="line2d_126">
     <path d="M 690.1164 453.273923 
L 700.1124 453.273923 
L 710.1084 453.273923 
" style="fill: none; stroke: #f7708e; stroke-width: 5; stroke-linecap: square"/>
    </g>
    <g id="text_39">
     <!-- Wicklow -->
     <g transform="translate(718.1052 456.772523)scale(0.09996 -0.09996)">
      <use xlink:href="#DejaVuSans-57"/>
      <use xlink:href="#DejaVuSans-69" x="96.626953"/>
      <use xlink:href="#DejaVuSans-63" x="124.410156"/>
      <use xlink:href="#DejaVuSans-6b" x="179.390625"/>
      <use xlink:href="#DejaVuSans-6c" x="237.300781"/>
      <use xlink:href="#DejaVuSans-6f" x="265.083984"/>
      <use xlink:href="#DejaVuSans-77" x="326.265625"/>
     </g>
    </g>
    <g id="patch_8">
     <path d="M 690.1164 478.080871 
L 710.1084 478.080871 
L 710.1084 471.083671 
L 690.1164 471.083671 
L 690.1164 478.080871 
z
" style="fill: none"/>
    </g>
    <g id="text_40">
     <!--  -->
     <g transform="translate(718.1052 471.444776)scale(0.09996 -0.09996)"/>
     <!-- Type -->
     <g transform="translate(718.1052 482.63811)scale(0.09996 -0.09996)">
      <use xlink:href="#DejaVuSans-54"/>
      <use xlink:href="#DejaVuSans-79" x="45.458984"/>
      <use xlink:href="#DejaVuSans-70" x="104.638672"/>
      <use xlink:href="#DejaVuSans-65" x="168.115234"/>
     </g>
    </g>
    <g id="line2d_127">
     <path d="M 690.1164 493.811764 
L 700.1124 493.811764 
L 710.1084 493.811764 
" style="fill: none; stroke: #000000; stroke-linecap: square"/>
    </g>
    <g id="text_41">
     <!-- Estimated -->
     <g transform="translate(718.1052 497.310364)scale(0.09996 -0.09996)">
      <defs>
       <path id="DejaVuSans-45" d="M 628 4666 
L 3578 4666 
L 3578 4134 
L 1259 4134 
L 1259 2753 
L 3481 2753 
L 3481 2222 
L 1259 2222 
L 1259 531 
L 3634 531 
L 3634 0 
L 628 0 
L 628 4666 
z
" transform="scale(0.015625)"/>
      </defs>
      <use xlink:href="#DejaVuSans-45"/>
      <use xlink:href="#DejaVuSans-73" x="63.183594"/>
      <use xlink:href="#DejaVuSans-74" x="115.283203"/>
      <use xlink:href="#DejaVuSans-69" x="154.492188"/>
      <use xlink:href="#DejaVuSans-6d" x="182.275391"/>
      <use xlink:href="#DejaVuSans-61" x="279.6875"/>
      <use xlink:href="#DejaVuSans-74" x="340.966797"/>
      <use xlink:href="#DejaVuSans-65" x="380.175781"/>
      <use xlink:href="#DejaVuSans-64" x="441.699219"/>
     </g>
    </g>
    <g id="line2d_128">
     <path d="M 690.1164 508.484017 
L 700.1124 508.484017 
L 710.1084 508.484017 
" style="fill: none; stroke-dasharray: 3.7,1.6; stroke-dashoffset: 0; stroke: #000000"/>
    </g>
    <g id="text_42">
     <!-- Exact -->
     <g transform="translate(718.1052 511.982617)scale(0.09996 -0.09996)">
      <use xlink:href="#DejaVuSans-45"/>
      <use xlink:href="#DejaVuSans-78" x="63.183594"/>
      <use xlink:href="#DejaVuSans-61" x="122.363281"/>
      <use xlink:href="#DejaVuSans-63" x="183.642578"/>
      <use xlink:href="#DejaVuSans-74" x="238.623047"/>
     </g>
    </g>
   </g>
  </g>
  <g id="text_43">
   <!-- Property Price Index -->
   <g transform="translate(335.642812 547.2)scale(0.12 -0.12)">
    <defs>
     <path id="DejaVuSans-50" d="M 1259 4147 
L 1259 2394 
L 2053 2394 
Q 2494 2394 2734 2622 
Q 2975 2850 2975 3272 
Q 2975 3691 2734 3919 
Q 2494 4147 2053 4147 
L 1259 4147 
z
M 628 4666 
L 2053 4666 
Q 2838 4666 3239 4311 
Q 3641 3956 3641 3272 
Q 3641 2581 3239 2228 
Q 2838 1875 2053 1875 
L 1259 1875 
L 1259 0 
L 628 0 
L 628 4666 
z
" transform="scale(0.015625)"/>
     <path id="DejaVuSans-20" transform="scale(0.015625)"/>
     <path id="DejaVuSans-49" d="M 628 4666 
L 1259 4666 
L 1259 0 
L 628 0 
L 628 4666 
z
" transform="scale(0.015625)"/>
    </defs>
    <use xlink:href="#DejaVuSans-50"/>
    <use xlink:href="#DejaVuSans-72" x="58.552734"/>
    <use xlink:href="#DejaVuSans-6f" x="97.416016"/>
    <use xlink:href="#DejaVuSans-70" x="158.597656"/>
    <use xlink:href="#DejaVuSans-65" x="222.074219"/>
    <use xlink:href="#DejaVuSans-72" x="283.597656"/>
    <use xlink:href="#DejaVuSans-74" x="324.710938"/>
    <use xlink:href="#DejaVuSans-79" x="363.919922"/>
    <use xlink:href="#DejaVuSans-20" x="423.099609"/>
    <use xlink:href="#DejaVuSans-50" x="454.886719"/>
    <use xlink:href="#DejaVuSans-72" x="513.439453"/>
    <use xlink:href="#DejaVuSans-69" x="554.552734"/>
    <use xlink:href="#DejaVuSans-63" x="582.335938"/>
    <use xlink:href="#DejaVuSans-65" x="637.316406"/>
    <use xlink:href="#DejaVuSans-20" x="698.839844"/>
    <use xlink:href="#DejaVuSans-49" x="730.626953"/>
    <use xlink:href="#DejaVuSans-6e" x="760.119141"/>
    <use xlink:href="#DejaVuSans-64" x="823.498047"/>
    <use xlink:href="#DejaVuSans-65" x="886.974609"/>
    <use xlink:href="#DejaVuSans-78" x="946.748047"/>
   </g>
  </g>
  <g id="text_44">
   <!-- Mean Property Value (1,000) -->
   <g transform="translate(42.91125 290.495625)rotate(-90)scale(0.12 -0.12)">
    <defs>
     <path id="DejaVuSans-56" d="M 1831 0 
L 50 4666 
L 709 4666 
L 2188 738 
L 3669 4666 
L 4325 4666 
L 2547 0 
L 1831 0 
z
" transform="scale(0.015625)"/>
     <path id="DejaVuSans-28" d="M 1984 4856 
Q 1566 4138 1362 3434 
Q 1159 2731 1159 2009 
Q 1159 1288 1364 580 
Q 1569 -128 1984 -844 
L 1484 -844 
Q 1016 -109 783 600 
Q 550 1309 550 2009 
Q 550 2706 781 3412 
Q 1013 4119 1484 4856 
L 1984 4856 
z
" transform="scale(0.015625)"/>
     <path id="DejaVuSans-20ac" d="M 3647 4306 
L 3647 3641 
Q 3363 3969 3098 4109 
Q 2834 4250 2516 4250 
Q 2025 4250 1709 3937 
Q 1394 3625 1294 3041 
L 3097 3041 
L 2925 2656 
L 1244 2656 
Q 1238 2581 1236 2509 
Q 1234 2438 1234 2328 
Q 1234 2228 1236 2156 
Q 1238 2084 1244 2009 
L 2638 2009 
L 2463 1625 
L 1294 1625 
Q 1394 1041 1709 725 
Q 2025 409 2516 409 
Q 2834 409 3098 550 
Q 3363 691 3647 1019 
L 3647 359 
Q 3369 134 3080 21 
Q 2791 -91 2491 -91 
Q 1750 -91 1267 362 
Q 784 816 659 1625 
L 0 1625 
L 172 2009 
L 606 2009 
Q 606 2081 604 2154 
Q 603 2228 603 2328 
Q 603 2438 604 2511 
Q 606 2584 606 2656 
L 0 2656 
L 172 3041 
L 659 3041 
Q 784 3844 1268 4297 
Q 1753 4750 2491 4750 
Q 2797 4750 3086 4639 
Q 3375 4528 3647 4306 
z
" transform="scale(0.015625)"/>
     <path id="DejaVuSans-2c" d="M 750 794 
L 1409 794 
L 1409 256 
L 897 -744 
L 494 -744 
L 750 256 
L 750 794 
z
" transform="scale(0.015625)"/>
     <path id="DejaVuSans-29" d="M 513 4856 
L 1013 4856 
Q 1481 4119 1714 3412 
Q 1947 2706 1947 2009 
Q 1947 1309 1714 600 
Q 1481 -109 1013 -844 
L 513 -844 
Q 928 -128 1133 580 
Q 1338 1288 1338 2009 
Q 1338 2731 1133 3434 
Q 928 4138 513 4856 
z
" transform="scale(0.015625)"/>
    </defs>
    <use xlink:href="#DejaVuSans-4d"/>
    <use xlink:href="#DejaVuSans-65" x="86.279297"/>
    <use xlink:href="#DejaVuSans-61" x="147.802734"/>
    <use xlink:href="#DejaVuSans-6e" x="209.082031"/>
    <use xlink:href="#DejaVuSans-20" x="272.460938"/>
    <use xlink:href="#DejaVuSans-50" x="304.248047"/>
    <use xlink:href="#DejaVuSans-72" x="362.800781"/>
    <use xlink:href="#DejaVuSans-6f" x="401.664062"/>
    <use xlink:href="#DejaVuSans-70" x="462.845703"/>
    <use xlink:href="#DejaVuSans-65" x="526.322266"/>
    <use xlink:href="#DejaVuSans-72" x="587.845703"/>
    <use xlink:href="#DejaVuSans-74" x="628.958984"/>
    <use xlink:href="#DejaVuSans-79" x="668.167969"/>
    <use xlink:href="#DejaVuSans-20" x="727.347656"/>
    <use xlink:href="#DejaVuSans-56" x="759.134766"/>
    <use xlink:href="#DejaVuSans-61" x="819.792969"/>
    <use xlink:href="#DejaVuSans-6c" x="881.072266"/>
    <use xlink:href="#DejaVuSans-75" x="908.855469"/>
    <use xlink:href="#DejaVuSans-65" x="972.234375"/>
    <use xlink:href="#DejaVuSans-20" x="1033.757812"/>
    <use xlink:href="#DejaVuSans-28" x="1065.544922"/>
    <use xlink:href="#DejaVuSans-20ac" x="1104.558594"/>
    <use xlink:href="#DejaVuSans-31" x="1168.181641"/>
    <use xlink:href="#DejaVuSans-2c" x="1231.804688"/>
    <use xlink:href="#DejaVuSans-30" x="1263.591797"/>
    <use xlink:href="#DejaVuSans-30" x="1327.214844"/>
    <use xlink:href="#DejaVuSans-30" x="1390.837891"/>
    <use xlink:href="#DejaVuSans-29" x="1454.460938"/>
   </g>
  </g>
 </g>
 <defs>
  <clipPath id="pbf20266321">
   <rect x="99" y="69.12" width="554.4" height="443.52"/>
  </clipPath>
 </defs>
</svg>
